<?xml version="1.0" encoding="utf-8"?>
<!-- Generator: Adobe Illustrator 16.0.3, SVG Export Plug-In . SVG Version: 6.00 Build 0)  -->
<!DOCTYPE svg PUBLIC "-//W3C//DTD SVG 1.1//EN" "http://www.w3.org/Graphics/SVG/1.1/DTD/svg11.dtd">
<svg version="1.1" id="Layer_1" xmlns="http://www.w3.org/2000/svg" xmlns:xlink="http://www.w3.org/1999/xlink" x="0px" y="0px"
	 width="30px" height="30px" viewBox="0 0 30 30" enable-background="new 0 0 30 30" xml:space="preserve">
<g>
	<polygon fill="#F5F6F7" points="6.412,2.67 6.412,8.014 1.35,8.014 1.35,25.92 2.85,27.795 26.943,27.795 28.537,26.389 
		28.537,2.67 	"/>
	<rect x="9.555" y="4.815" fill="#E16E5F" width="15.721" height="5.291"/>
	<rect x="18.412" y="12.46" fill="#E16E5F" width="6.863" height="5.064"/>
	<path fill="#B3B1B3" d="M10.252,24.913c-0.379,0-0.697-0.303-0.697-0.678c0-0.377,0.318-0.695,0.697-0.695h14.337
		c0.376,0,0.687,0.318,0.687,0.695c0,0.375-0.311,0.678-0.687,0.678H10.252L10.252,24.913z M4.818,9.464L4.818,9.464h-2.52v16.113
		c0,1.62,2.52,1.652,2.52,0V9.464L4.818,9.464z M3.568,29.161L3.568,29.161L3.568,29.161c-0.983,0-1.875-0.41-2.521-1.056l0,0
		C0.408,27.45,0,26.559,0,25.577V8.351V8.318c0-0.647,0.516-1.161,1.145-1.161h3.674V1.984c0-0.63,0.533-1.146,1.154-1.146h0.033
		h22.84C29.484,0.839,30,1.354,30,1.984v0.05v23.543c0,0.981-0.402,1.883-1.041,2.528h-0.016v0.009
		c-0.654,0.653-1.538,1.047-2.512,1.047H3.616H3.584H3.568L3.568,29.161z M27.699,25.577L27.699,25.577V3.146H7.137
		c0,7.48,0,14.952,0,22.432c0,0.459-0.082,0.876-0.23,1.269h19.525c0.352,0,0.663-0.14,0.892-0.369V26.47
		C27.553,26.248,27.699,25.929,27.699,25.577L27.699,25.577z M10.252,13.833L10.252,13.833c-0.379,0-0.697-0.294-0.697-0.687
		c0-0.384,0.318-0.687,0.697-0.687h5.727c0.393,0,0.703,0.303,0.703,0.687c0,0.393-0.311,0.687-0.703,0.687H10.252L10.252,13.833z
		 M10.252,17.524L10.252,17.524c-0.379,0-0.697-0.303-0.697-0.68c0-0.385,0.318-0.695,0.697-0.695h5.727
		c0.393,0,0.703,0.311,0.703,0.695c0,0.377-0.311,0.68-0.703,0.68H10.252L10.252,17.524z M10.252,21.232L10.252,21.232
		c-0.379,0-0.697-0.304-0.697-0.697c0-0.375,0.318-0.694,0.697-0.694h14.337c0.376,0,0.687,0.319,0.687,0.694
		c0,0.394-0.311,0.697-0.687,0.697H10.252L10.252,21.232z"/>
</g>
</svg>
