<svg id="圖層_1" data-name="圖層 1" xmlns="http://www.w3.org/2000/svg" viewBox="0 0 176 42.53"><title>bbh-logo-new</title><path d="M34.14,37.32h-.82s0-1.49,0-3.68V22.44c0-2.08-.18-2.29-2-2.29v-.54h5.08v7.08a4.4,4.4,0,0,1,4-2.1c3.5,0,5.54,2.29,5.54,6.21,0,4.27-2.27,6.82-6.08,6.82a6.42,6.42,0,0,1-3.8-1.14A2.1,2.1,0,0,1,34.14,37.32ZM37,35.45a3,3,0,0,0,2.6,1.61c1.89,0,2.88-2,2.88-5.85s-.95-5.88-2.76-5.88a3,3,0,0,0-2.63,1.84,9.77,9.77,0,0,0-.79,4.27A9.2,9.2,0,0,0,37,35.45Z" style="fill:#231815"/><path d="M82,26.27a6.85,6.85,0,0,1,4.77-1.68c4,0,6.61,2.55,6.61,6.47a6.82,6.82,0,0,1-1.68,4.67,7.06,7.06,0,0,1-5.06,1.92,6.78,6.78,0,0,1-4.8-1.79,6.64,6.64,0,0,1-1.76-4.65A7,7,0,0,1,82,26.27Zm4.75,10.84C89,37.11,90,35.27,90,31.16s-1-6-3.24-6a2.54,2.54,0,0,0-2.37,1.37,9.75,9.75,0,0,0-.82,4.59C83.52,35.17,84.54,37.11,86.74,37.11Z" style="fill:#231815"/><path d="M120.7,30.62a8.57,8.57,0,0,0,.67,3.75,3.66,3.66,0,0,0,3.47,2.34A4.76,4.76,0,0,0,129,34l.64.38a5.84,5.84,0,0,1-5.62,3.23c-4.06,0-6.66-2.52-6.66-6.47s2.53-6.56,6.41-6.56c2.6,0,4.44,1.09,5.28,3.12a8,8,0,0,1,.46,2.91Zm5.67-.69a8.6,8.6,0,0,0-.44-3c-.48-1.25-1.2-1.84-2.2-1.84s-1.94.71-2.47,2.08a9.24,9.24,0,0,0-.54,2.72Z" style="fill:#231815"/><path d="M0,37c2.07,0,2.3-.29,2.3-2.5V22.74c0-2.22-.26-2.48-2.3-2.5v-.63H8c5.05,0,7.33,1.28,7.33,4.1,0,2.56-1.58,3.78-5.49,4.19v.17c4.08.19,6.15,1.76,6.15,4.68,0,3.47-2.42,4.89-8.42,4.89H0Zm7.73-9.37c2.66,0,4.06-1.3,4.06-3.78s-1.43-3.54-4.24-3.54h-2v7.33Zm-.2,9.3c3.19,0,4.8-1.45,4.8-4.31a4,4,0,0,0-1.66-3.57,6.07,6.07,0,0,0-3-.65H5.59v8.53Z" style="fill:#231815"/><path d="M29.57,27.58a3,3,0,0,0-.94-2,5.75,5.75,0,0,0-3.78-1,8.36,8.36,0,0,0-4.18.89,3.45,3.45,0,0,0-1.59,2.2,1.54,1.54,0,0,0,1.77,1.87,1.93,1.93,0,0,0,1.58-1.94,3.34,3.34,0,0,1,.41-1.67,1.81,1.81,0,0,1,1.71-.8c1.53,0,2,.73,2,3.24v1.54a33.14,33.14,0,0,0-4.19.45c-2.73.5-4.08,1.75-4.08,3.78s1.51,3.47,3.93,3.47a5.88,5.88,0,0,0,4.37-1.91,1.81,1.81,0,0,0,2,1.8h1Zm-3,4.69A5.64,5.64,0,0,1,26.07,35a2.8,2.8,0,0,1-2.48,1.56c-1.25,0-2.07-1.11-2.07-2.79,0-2.2,1.3-3.07,5-3.33Z" style="fill:#231815"/><path d="M115.29,29.15a4.76,4.76,0,0,0-.77-3.19,4,4,0,0,0-3.32-1.37,4.83,4.83,0,0,0-4.39,2.48c-.46-1.67-1.66-2.48-3.62-2.48A5.06,5.06,0,0,0,98.74,27l0-2.34-5,0v.57c1.68,0,1.89.57,1.89,2.55v9.49h3.1V29.55c0-2.13,1.4-3.87,3.09-3.87,1.4,0,2.07,1.11,2.07,3.47v8.12H107V29.36a4,4,0,0,1,.79-2.39A2.65,2.65,0,0,1,110,25.68c1.51,0,2.12,1,2.12,3.49v8.1h3.13Z" style="fill:#231815"/><path d="M79.58,36.66c-2.09-.07-2.3-.28-2.3-2.45V22.66c0-2.13.21-2.36,2.22-2.43v-.62H74v7.89H66.73V19.61H61.21v.62c2,.07,2.2.3,2.2,2.43V34.21c0,2.17-.21,2.38-2.3,2.45v.62h5.62v-9H74v9h5.63Z" style="fill:#231815"/><path d="M58.93,24.95l-3.79,8.83-3.73-8.83H46.85v.54c1.2.1,1.43.36,2.29,2.25l4.47,9.87s-.47,1.1-.75,1.62c-.52,1-.8,1.07-.8,1.07a1.84,1.84,0,0,0-3.58.22,1.8,1.8,0,0,0,1.86,2c1.58,0,2.5-.87,3.55-3.31L58.23,29c1.15-2.67,1.79-3.35,3.22-3.55v-.54Z" style="fill:#231815"/><path d="M96.8,15.87a3.07,3.07,0,0,1,2.11-.72,2.68,2.68,0,0,1,2.92,2.79,2.89,2.89,0,0,1-.75,2,3.16,3.16,0,0,1-2.23.83A3,3,0,0,1,96.73,20a2.83,2.83,0,0,1-.78-2A3,3,0,0,1,96.8,15.87Zm2.1,4.68c1,0,1.42-.79,1.42-2.57s-.45-2.6-1.43-2.6a1.14,1.14,0,0,0-1.05.59,4.12,4.12,0,0,0-.36,2C97.47,19.72,97.92,20.55,98.89,20.55Z" style="fill:#231815"/><path d="M118.72,19a2.59,2.59,0,0,0,.11.92.61.61,0,0,0,.56.38,1.43,1.43,0,0,0,.79-.31l.16.25a2.47,2.47,0,0,1-1.55.51,1.41,1.41,0,0,1-1.28-.56,2.84,2.84,0,0,1-.17-1.41V15.62h-.64v-.3a1.23,1.23,0,0,0,1.07-.54,2.58,2.58,0,0,0,.42-1.09l.56-.05c0,.42,0,.73,0,1.66h1.37v.32h-1.37Z" style="fill:#231815"/><path d="M123.64,20.69h-.84l-1.41-4.27c-.21-.66-.41-.85-.89-.88V15.3h1.91l1.31,4.1,1.45-4h.66l1.38,4,1.3-4.1h1.22v.23c-.65,0-.93.33-1.23,1.23l-1.32,3.92h-.81L125,17Z" style="fill:#231815"/><path d="M111.43,19.35V17.11a2.06,2.06,0,0,0-.33-1.38,1.72,1.72,0,0,0-1.44-.59,2.09,2.09,0,0,0-1.9,1.07,1.43,1.43,0,0,0-1.57-1.07,2.19,2.19,0,0,0-1.92,1v-1h-2.15v.24c.73,0,.82.25.82,1.1v2.13h0v2h1.34v-2h0V17.28a1.54,1.54,0,0,1,1.34-1.67c.61,0,.89.48.89,1.5v2.25c0,.1,0,.18,0,.26v1h1.34V19.4s0,0,0,0V17.2a1.72,1.72,0,0,1,.34-1,1.15,1.15,0,0,1,1-.56c.65,0,.92.43.92,1.51v2.24c0,.14,0,.27,0,.37v.89h1.36v-.94C111.43,19.58,111.43,19.47,111.43,19.35Z" style="fill:#231815"/><circle cx="87.48" cy="19.82" r="0.81" style="fill:#231815"/><circle cx="114.55" cy="19.82" r="0.81" style="fill:#231815"/><path d="M95.19,19.35a2.61,2.61,0,0,1-2.47,1.43A2.68,2.68,0,0,1,89.82,18a2.7,2.7,0,0,1,2.9-2.89c1.25,0,2.29.61,2.33,1.34a.65.65,0,0,1-.74.71c-.26,0-.62-.2-.69-.84s-.37-1-.93-1a1.12,1.12,0,0,0-1,.65,5.06,5.06,0,0,0-.32,1.81,3.61,3.61,0,0,0,.39,1.73,1.49,1.49,0,0,0,1.34.8,2,2,0,0,0,1.83-1.2Z" style="fill:#231815"/><path d="M174.43,25.28a8.91,8.91,0,0,0-8-1.53c-.59.15-.29-.26-.2-.38,3.9-5.29,5.53-13.21-.88-17.36-7.94-5.14-18.21,2.61-15.06,14.36a20.13,20.13,0,0,0,.64,2c0-.1,0-.2-.07-.3-1.67-8.74,4-17.69,12.15-14,7.46,3.41,2.9,14.72.52,17.23-.06.07-.09.27.1.23,2.57-1,8.33-1.64,9.51,2.23,1,3.36-2.58,5.4-6.3,5.64A18.13,18.13,0,0,1,155.92,30c4,3.86,9.32,6,14.72,4.3C176.26,32.57,177.35,27.88,174.43,25.28Z" style="fill:#fac109"/><path d="M155.72,29.93a13,13,0,0,1,1.36,6.73c-.16,3.84-3.31,4.38-5,2.36a12.54,12.54,0,0,1-2.46-7c0-.3,0-.4-.62-.33-1.58.18-8.09-.67-11.17-4.64-4-5.14.86-7.58,6.77-5.37a34.51,34.51,0,0,1,4.76,2.17,43.54,43.54,0,0,0-6.24-3.45c-7.94-3.62-13.32,3.82-5.81,9.55a14.56,14.56,0,0,0,11.12,2.5c.64-.13.61-.07.68.57,0,3.14,1.05,6.54,2.58,8.06a3.75,3.75,0,0,0,6.5-2.36A13.39,13.39,0,0,0,155.72,29.93Z" style="fill:#fac109"/><path d="M147.2,21.79s-3.6-5.35-8.05-7.28c-2.53-1.1-3.56-.71-3.85-.1-.45,1,1.42,1.73,3.08,2.3C141.45,17.76,145.38,19.58,147.2,21.79Z" style="fill:#ee87b4"/><path d="M155.11,29.18S147,24.12,146.57,8.43c-.15-5.72,0-9.19-1.25-8.29-.64.47-2,3.72-1,10.6C146.11,22.78,154.24,28.76,155.11,29.18Z" style="fill:#ee8eb8"/></svg>