<?xml version="1.0" encoding="utf-8"?>
<!-- Generator: Adobe Illustrator 16.0.3, SVG Export Plug-In . SVG Version: 6.00 Build 0)  -->
<!DOCTYPE svg PUBLIC "-//W3C//DTD SVG 1.1//EN" "http://www.w3.org/Graphics/SVG/1.1/DTD/svg11.dtd">
<svg version="1.1" id="圖層_1" xmlns="http://www.w3.org/2000/svg" xmlns:xlink="http://www.w3.org/1999/xlink" x="0px" y="0px"
	 width="186px" height="65px" viewBox="0 0 186 65" enable-background="new 0 0 186 65" xml:space="preserve">
<g>
	<path fill="#00B900" d="M64.188,0.104h-9.603c-1.475,0-2.669,1.192-2.669,2.664v59.661c0,1.471,1.195,2.664,2.669,2.664h9.603
		c1.474,0,2.667-1.192,2.667-2.664V2.768C66.855,1.296,65.662,0.104,64.188,0.104"/>
	<path fill="#00B900" d="M130.296,0.104h-9.605c-1.473,0-2.667,1.192-2.667,2.664v35.444L90.682,1.289
		c-0.062-0.096-0.134-0.184-0.209-0.27C90.468,1.011,90.461,1.005,90.457,1c-0.05-0.057-0.104-0.11-0.158-0.163
		c-0.016-0.015-0.033-0.029-0.049-0.044c-0.046-0.042-0.093-0.082-0.141-0.121c-0.024-0.018-0.049-0.035-0.071-0.053
		c-0.045-0.033-0.091-0.065-0.139-0.095c-0.025-0.017-0.053-0.032-0.08-0.048c-0.048-0.027-0.096-0.055-0.145-0.079
		c-0.027-0.015-0.055-0.028-0.083-0.041c-0.05-0.022-0.1-0.045-0.153-0.065c-0.028-0.011-0.056-0.02-0.085-0.031
		c-0.052-0.018-0.104-0.036-0.159-0.051c-0.029-0.009-0.061-0.017-0.092-0.023c-0.051-0.012-0.103-0.025-0.154-0.034
		c-0.038-0.008-0.074-0.012-0.112-0.017c-0.047-0.007-0.092-0.013-0.141-0.017c-0.046-0.005-0.093-0.006-0.14-0.007
		c-0.03-0.002-0.058-0.005-0.088-0.005h-9.605c-1.473,0-2.668,1.192-2.668,2.664v59.661c0,1.471,1.195,2.664,2.668,2.664h9.605
		c1.473,0,2.667-1.192,2.667-2.664V26.997l27.375,36.969c0.189,0.268,0.419,0.486,0.674,0.659c0.01,0.007,0.021,0.015,0.03,0.021
		c0.054,0.035,0.108,0.067,0.165,0.099c0.025,0.015,0.05,0.029,0.077,0.041c0.041,0.022,0.084,0.043,0.127,0.062
		c0.042,0.019,0.083,0.038,0.126,0.055c0.028,0.011,0.055,0.021,0.083,0.031c0.058,0.021,0.12,0.041,0.18,0.058
		c0.012,0.002,0.025,0.005,0.038,0.009c0.219,0.058,0.447,0.092,0.682,0.092h9.605c1.473,0,2.667-1.192,2.667-2.664V2.768
		C132.964,1.296,131.77,0.104,130.296,0.104"/>
	<path fill="#00B900" d="M41.037,50.152H14.94V2.769c0-1.472-1.194-2.664-2.668-2.664H2.668C1.194,0.104,0,1.297,0,2.769v59.657
		v0.003c0,0.717,0.283,1.365,0.746,1.843c0.013,0.013,0.022,0.028,0.035,0.041c0.014,0.012,0.027,0.023,0.039,0.036
		c0.479,0.459,1.127,0.745,1.845,0.745h0.003h38.369c1.47,0,2.663-1.195,2.663-2.667v-9.606
		C43.7,51.347,42.506,50.152,41.037,50.152"/>
	<path fill="#00B900" d="M183.336,15.044c1.472,0,2.664-1.194,2.664-2.667V2.772c0-1.474-1.191-2.668-2.664-2.668h-38.367h-0.005
		c-0.719,0-1.372,0.287-1.851,0.751c-0.01,0.01-0.021,0.019-0.031,0.029c-0.016,0.015-0.028,0.032-0.043,0.048
		c-0.457,0.478-0.738,1.123-0.738,1.836v0.004v59.652v0.005c0,0.716,0.284,1.365,0.744,1.842c0.014,0.014,0.023,0.028,0.037,0.04
		c0.011,0.014,0.027,0.024,0.04,0.037c0.478,0.459,1.126,0.745,1.842,0.745h0.005h38.367c1.472,0,2.664-1.194,2.664-2.668v-9.603
		c0-1.475-1.191-2.669-2.664-2.669h-26.095V40.068h26.095c1.472,0,2.664-1.194,2.664-2.668v-9.604c0-1.473-1.191-2.667-2.664-2.667
		h-26.095V15.044H183.336z"/>
</g>
</svg>
