<svg id="圖層_1" data-name="圖層 1" xmlns="http://www.w3.org/2000/svg" viewBox="0 0 375 667"><defs><style>.cls-1{fill:#f0efed;}.cls-2{fill:#fff;}.cls-3{fill:#555;}.cls-4{fill:#1e5bc1;}.cls-5{fill:none;stroke:#ededed;stroke-miterlimit:10;}.cls-6{fill:#ed1c24;}.cls-7{fill:#095ba5;}.cls-8{fill:#aeaeae;}.cls-9{fill:#f80202;}</style></defs><title>sg_checkout-carrefourpay</title><rect class="cls-1" width="375" height="667"/><rect class="cls-2" width="375" height="54"/><rect class="cls-2" width="54" height="54"/><path class="cls-3" d="M23.2,27,33.25,17a1.15,1.15,0,0,0-1.62-1.62L20.87,26.09l-.12.08a1.21,1.21,0,0,0,0,1.66l.12.08L31.63,38.66A1.15,1.15,0,0,0,33.25,37Z"/><path class="cls-3" d="M119.05,33.07l1.12-1.26a5.68,5.68,0,0,0,4,1.82c1.92,0,3.08-1,3.08-2.4s-1.06-2-2.44-2.6l-2.12-.92c-1.36-.58-3-1.62-3-3.76s2-3.9,4.62-3.9a6,6,0,0,1,4.32,1.82l-1,1.18a4.75,4.75,0,0,0-3.34-1.38c-1.66,0-2.74.84-2.74,2.16s1.28,2,2.42,2.44l2.1.9c1.7.74,3,1.74,3,3.92s-1.92,4.16-5,4.16A7,7,0,0,1,119.05,33.07Z"/><path class="cls-3" d="M135.25,31.19c0-2,1.38-3.2,2.88-4.24a7.79,7.79,0,0,1-1-3.42,3.31,3.31,0,0,1,3.38-3.48,2.7,2.7,0,0,1,2.88,2.9c0,1.92-1.66,3.16-3.3,4.34a17.87,17.87,0,0,0,3.72,4.14,12.51,12.51,0,0,0,2.08-4.34h1.69a15.63,15.63,0,0,1-2.57,5.24,9,9,0,0,0,2.74,1.4l-.48,1.52A10.76,10.76,0,0,1,144,33.57a6.11,6.11,0,0,1-4.24,1.68C137.05,35.25,135.25,33.55,135.25,31.19Zm4.68,2.6a4.37,4.37,0,0,0,2.8-1.18,22.3,22.3,0,0,1-3.86-4.38c-1,.84-1.84,1.72-1.84,2.86A2.7,2.7,0,0,0,139.93,33.79Zm-.48-7.7c1.34-.9,2.5-1.8,2.5-3.1,0-.86-.4-1.64-1.38-1.64a1.91,1.91,0,0,0-1.82,2.14A6.11,6.11,0,0,0,139.45,26.09Z"/><path class="cls-3" d="M153.77,27.67c0-4.74,2.84-7.62,6.72-7.62a5.58,5.58,0,0,1,4.22,1.82l-1,1.2a4.11,4.11,0,0,0-3.18-1.4c-2.94,0-4.86,2.28-4.86,5.94s1.74,6,4.9,6a4,4,0,0,0,2.64-.86V28.93h-3.1V27.39h4.8v6.16a6.3,6.3,0,0,1-4.54,1.7C156.53,35.25,153.77,32.43,153.77,27.67Z"/><path class="cls-3" d="M171.89,29.57c0-3.62,2.46-5.72,5.24-5.72a4.64,4.64,0,0,1,3.18,1.28l-.94,1.2a3.21,3.21,0,0,0-2.16-1c-2,0-3.42,1.7-3.42,4.2s1.36,4.16,3.36,4.16a3.83,3.83,0,0,0,2.56-1.08l.8,1.22A5.27,5.27,0,0,1,177,35.25C174.11,35.25,171.89,33.17,171.89,29.57Z"/><path class="cls-3" d="M182.89,19.07h1.82v4.36l-.06,2.24a5.1,5.1,0,0,1,3.6-1.82c2.28,0,3.32,1.48,3.32,4.26V35h-1.82V28.35c0-2-.62-2.9-2.06-2.9-1.12,0-1.88.56-3,1.66V35h-1.82Z"/><path class="cls-3" d="M194.21,29.57c0-3.52,2.38-5.72,4.9-5.72,2.76,0,4.32,2,4.32,5.1a7.11,7.11,0,0,1-.08,1H196c.12,2.32,1.54,3.8,3.6,3.8a4.68,4.68,0,0,0,2.72-.86l.66,1.2a6.46,6.46,0,0,1-3.6,1.12C196.53,35.25,194.21,33.15,194.21,29.57Zm7.62-.9c0-2.18-1-3.36-2.7-3.36-1.54,0-2.9,1.24-3.12,3.36Z"/><path class="cls-3" d="M205.29,29.57c0-3.62,2.46-5.72,5.24-5.72a4.64,4.64,0,0,1,3.18,1.28l-.94,1.2a3.21,3.21,0,0,0-2.16-1c-2,0-3.42,1.7-3.42,4.2s1.36,4.16,3.36,4.16a3.83,3.83,0,0,0,2.56-1.08l.8,1.22a5.27,5.27,0,0,1-3.52,1.38C207.51,35.25,205.29,33.17,205.29,29.57Z"/><path class="cls-3" d="M216.29,19.07h1.8v10.8h.06l4.64-5.74h2l-3.64,4.36,4.12,6.5h-2l-3.18-5.24-2,2.38V35h-1.8Z"/><path class="cls-3" d="M226.11,29.57c0-3.62,2.38-5.72,5-5.72s5,2.1,5,5.72-2.38,5.68-5,5.68S226.11,33.17,226.11,29.57Zm8.2,0c0-2.5-1.28-4.2-3.16-4.2s-3.14,1.7-3.14,4.2,1.26,4.16,3.14,4.16S234.31,32.07,234.31,29.57Z"/><path class="cls-3" d="M238.91,31V24.13h1.82v6.66c0,2,.6,2.88,2,2.88,1.12,0,1.9-.54,2.94-1.84v-7.7h1.82V35H246l-.14-1.7h-.06a4.66,4.66,0,0,1-3.6,2C239.93,35.25,238.91,33.77,238.91,31Z"/><path class="cls-3" d="M251.51,31.63v-6h-1.62V24.23l1.7-.1.22-3.06h1.52v3.06h2.94v1.48h-2.94v6.06c0,1.34.42,2.1,1.68,2.1a3.85,3.85,0,0,0,1.24-.28l.36,1.36a6.84,6.84,0,0,1-2,.4C252.29,35.25,251.51,33.79,251.51,31.63Z"/><rect class="cls-2" x="10" y="65.15" width="355" height="78.85" rx="3"/><path d="M22.14,119.09v-5.31H20.81v-.71l1.36-.08.12-2.46h.78V113h2.45v.79H23.07v5.38c0,1.07.29,1.77,1.43,1.77a2.83,2.83,0,0,0,1-.25l.22.73a4.72,4.72,0,0,1-1.43.32C22.65,121.73,22.14,120.68,22.14,119.09Z"/><path d="M26.59,119.38c0-1.89,1.68-2.79,5.44-3.22,0-1.26-.33-2.58-2-2.58a4.6,4.6,0,0,0-2.69,1l-.42-.67a5.92,5.92,0,0,1,3.24-1.12c2,0,2.75,1.46,2.75,3.34v5.41h-.78l-.1-1.08h0a5,5,0,0,1-3,1.29A2.25,2.25,0,0,1,26.59,119.38Zm5.44.24v-2.77c-3.36.38-4.51,1.17-4.51,2.48A1.54,1.54,0,0,0,29.26,121,4.2,4.2,0,0,0,32,119.62Z"/><path d="M35.93,108.8h.93V118h0L41,113H42l-2.78,3.38,3.23,5.15h-1L38.7,117l-1.84,2.18v2.3h-.93Z"/><path d="M43.33,117.27c0-2.77,1.82-4.5,3.74-4.5s3.3,1.47,3.3,4a4.68,4.68,0,0,1,0,.67h-6c0,2.08,1.28,3.54,3.12,3.54a3.81,3.81,0,0,0,2.27-.74l.36.69a4.81,4.81,0,0,1-2.73.83C45.1,121.73,43.33,120.07,43.33,117.27Zm6.19-.6c0-2.06-.94-3.1-2.43-3.1s-2.64,1.15-2.82,3.1Z"/><path d="M55.6,119.38c0-1.89,1.68-2.79,5.44-3.22,0-1.26-.34-2.58-1.95-2.58a4.6,4.6,0,0,0-2.69,1l-.42-.67a5.91,5.91,0,0,1,3.23-1.12c2,0,2.76,1.46,2.76,3.34v5.41h-.79l-.09-1.08h0a5,5,0,0,1-3,1.29A2.25,2.25,0,0,1,55.6,119.38Zm5.44.24v-2.77c-3.36.38-4.51,1.17-4.51,2.48A1.54,1.54,0,0,0,58.27,121,4.22,4.22,0,0,0,61,119.62Z"/><path d="M63.76,113h1l1.49,5.38c.19.82.38,1.55.54,2.32h.08c.21-.77.4-1.52.61-2.32L69,113h1l1.52,5.38c.2.82.4,1.55.62,2.32h.06l.6-2.32L74.27,113h.92l-2.41,8.53h-1.2l-1.44-5.13c-.24-.82-.4-1.6-.64-2.45h-.08c-.19.85-.38,1.65-.65,2.48l-1.4,5.1H66.25Z"/><path d="M76.43,119.38c0-1.89,1.68-2.79,5.44-3.22,0-1.26-.33-2.58-2-2.58a4.6,4.6,0,0,0-2.69,1l-.42-.67a5.92,5.92,0,0,1,3.24-1.12c2,0,2.75,1.46,2.75,3.34v5.41H82l-.1-1.08h0a5,5,0,0,1-3,1.29A2.25,2.25,0,0,1,76.43,119.38Zm5.44.24v-2.77c-3.36.38-4.51,1.17-4.51,2.48A1.54,1.54,0,0,0,79.1,121,4.2,4.2,0,0,0,81.87,119.62Z"/><path d="M84.62,125.19l.21-.78a2.3,2.3,0,0,0,.69.12c1,0,1.71-.92,2.13-2.16l.22-.72L84.38,113h1l2,5.22c.28.74.6,1.63.9,2.4h.08c.26-.77.53-1.66.77-2.4L90.86,113h1l-3.33,9.53c-.5,1.47-1.38,2.85-3,2.85A2.3,2.3,0,0,1,84.62,125.19Z"/><path class="cls-3" d="M21.65,78.57V74.85h-1v-.74l1-.06.12-1.84h.81v1.84h1.79v.8H22.62v3.76c0,.79.24,1.27,1,1.27a2.22,2.22,0,0,0,.76-.18l.19.74a3.94,3.94,0,0,1-1.15.24C22.08,80.68,21.65,79.83,21.65,78.57Z"/><path class="cls-3" d="M25.19,78.86c0-1.42,1.24-2.11,4-2.43,0-.87-.26-1.73-1.38-1.73a3.52,3.52,0,0,0-2,.72l-.39-.69A4.7,4.7,0,0,1,28,73.88c1.57,0,2.19,1.07,2.19,2.63v4h-.8l-.09-.79h0a3.48,3.48,0,0,1-2.18,1A1.74,1.74,0,0,1,25.19,78.86Zm4,.13v-1.9c-2.29.27-3.07.82-3.07,1.71s.54,1.09,1.2,1.09A2.78,2.78,0,0,0,29.21,79Z"/><path class="cls-3" d="M32.32,71h1v6.61h0l2.88-3.54h1.08L35.1,76.64l2.46,3.88H36.49l-2-3.2-1.27,1.49v1.71h-1Z"/><path class="cls-3" d="M38.1,77.29A3.12,3.12,0,0,1,41,73.88c1.61,0,2.55,1.16,2.55,3a2.54,2.54,0,0,1,0,.59H39.08a2.24,2.24,0,0,0,2.21,2.4,2.82,2.82,0,0,0,1.65-.53l.36.65a3.82,3.82,0,0,1-2.13.66A3.09,3.09,0,0,1,38.1,77.29Zm4.59-.51c0-1.38-.63-2.11-1.68-2.11a2.09,2.09,0,0,0-1.95,2.11Z"/><path class="cls-3" d="M47.45,78.86c0-1.42,1.24-2.11,4-2.43,0-.87-.26-1.73-1.38-1.73a3.52,3.52,0,0,0-2,.72l-.39-.69a4.7,4.7,0,0,1,2.52-.85c1.57,0,2.19,1.07,2.19,2.63v4h-.8l-.09-.79h0a3.49,3.49,0,0,1-2.19,1A1.74,1.74,0,0,1,47.45,78.86Zm4,.13v-1.9c-2.29.27-3.07.82-3.07,1.71s.54,1.09,1.2,1.09A2.78,2.78,0,0,0,51.47,79Z"/><path class="cls-3" d="M53.76,74.05h1l1,3.85c.14.61.26,1.18.39,1.78h0c.16-.6.29-1.17.46-1.78l1-3.85h1l1,3.85c.16.61.3,1.18.46,1.78h0c.15-.6.28-1.17.42-1.78l1-3.85h.94l-1.78,6.47H59.65l-1-3.61c-.18-.62-.3-1.21-.46-1.87h-.06c-.14.66-.27,1.27-.46,1.89l-.95,3.59H55.59Z"/><path class="cls-3" d="M63.52,78.86c0-1.42,1.24-2.11,4-2.43,0-.87-.27-1.73-1.38-1.73a3.49,3.49,0,0,0-2,.72l-.39-.69a4.7,4.7,0,0,1,2.51-.85c1.58,0,2.2,1.07,2.2,2.63v4h-.8l-.09-.79h0a3.49,3.49,0,0,1-2.19,1A1.74,1.74,0,0,1,63.52,78.86Zm4,.13v-1.9c-2.29.27-3.07.82-3.07,1.71s.54,1.09,1.2,1.09A2.78,2.78,0,0,0,67.54,79Z"/><path class="cls-3" d="M69.92,83.22l.2-.79a1.48,1.48,0,0,0,.5.1c.75,0,1.23-.63,1.52-1.47l.14-.5-2.61-6.51h1l1.38,3.7c.21.57.44,1.24.65,1.83h.06c.18-.59.37-1.26.55-1.83l1.21-3.7h1L73,81.12c-.43,1.24-1.1,2.23-2.36,2.23A1.82,1.82,0,0,1,69.92,83.22Z"/><path class="cls-3" d="M82.17,71h.72L79.18,82.66h-.72Z"/><path class="cls-3" d="M86.09,79.79l.49-.66a3,3,0,0,0,2,.78c.9,0,1.34-.48,1.34-1.08s-.78-1-1.51-1.27c-.92-.33-1.92-.77-1.92-1.87s.8-1.81,2.21-1.81a3.19,3.19,0,0,1,2,.72l-.48.64a2.45,2.45,0,0,0-1.49-.58c-.87,0-1.26.46-1.26,1s.67.9,1.41,1.17c1,.37,2,.74,2,2,0,1-.82,1.89-2.32,1.89A3.86,3.86,0,0,1,86.09,79.79Z"/><path class="cls-3" d="M92.4,71h1v2.65l0,1.35a3.12,3.12,0,0,1,2.17-1.1c1.36,0,2,.88,2,2.53v4.11h-1v-4c0-1.25-.39-1.8-1.29-1.8a2.54,2.54,0,0,0-1.84,1.06v4.73h-1Z"/><path class="cls-3" d="M99.44,72a.64.64,0,0,1,.68-.66.64.64,0,0,1,.67.66.65.65,0,0,1-.67.69A.64.64,0,0,1,99.44,72Zm.19,2.08h1v6.47h-1Z"/><path class="cls-3" d="M102.86,74.05h.79l.09.75h0a3.54,3.54,0,0,1,2.09-.92c1.69,0,2.59,1.31,2.59,3.3,0,2.22-1.33,3.5-2.83,3.5a3,3,0,0,1-1.83-.76l0,1.14v2.25h-1Zm4.58,3.14c0-1.46-.51-2.48-1.8-2.48a2.8,2.8,0,0,0-1.81.93v3.51a2.62,2.62,0,0,0,1.65.7C106.61,79.85,107.44,78.83,107.44,77.19Z"/><path class="cls-3" d="M113.09,78.57V74.85h-1v-.74l1-.06.12-1.84h.81v1.84h1.79v.8h-1.79v3.76c0,.79.24,1.27,1,1.27a2.22,2.22,0,0,0,.76-.18l.19.74a3.94,3.94,0,0,1-1.15.24C113.52,80.68,113.09,79.83,113.09,78.57Z"/><path class="cls-3" d="M116.66,77.29c0-2.16,1.39-3.41,3-3.41a3.43,3.43,0,1,1-3,3.41Zm5,0c0-1.54-.82-2.58-2-2.58s-2,1-2,2.58.81,2.58,2,2.58S121.61,78.83,121.61,77.29Z"/><path class="cls-3" d="M127.06,71h1v2.65L128,75a3.12,3.12,0,0,1,2.17-1.1c1.35,0,2,.88,2,2.53v4.11h-1v-4c0-1.25-.38-1.8-1.28-1.8A2.54,2.54,0,0,0,128,75.79v4.73h-1Z"/><path class="cls-3" d="M133.78,77.29c0-2.16,1.39-3.41,3-3.41a3.43,3.43,0,1,1-3,3.41Zm4.95,0c0-1.54-.81-2.58-2-2.58s-2,1-2,2.58.8,2.58,2,2.58S138.73,78.83,138.73,77.29Z"/><path class="cls-3" d="M141.51,74.05h.79l.09,1h0a2.87,2.87,0,0,1,2-1.13,1.69,1.69,0,0,1,1.78,1.26,3.17,3.17,0,0,1,2.16-1.26c1.32,0,2,.88,2,2.53v4.11h-1v-4c0-1.25-.39-1.8-1.25-1.8a2.49,2.49,0,0,0-1.71,1.06v4.73h-1v-4c0-1.25-.4-1.8-1.27-1.8a2.47,2.47,0,0,0-1.69,1.06v4.73h-1Z"/><path class="cls-3" d="M152,77.29a3.12,3.12,0,0,1,2.89-3.41c1.62,0,2.56,1.16,2.56,3a3.25,3.25,0,0,1,0,.59H153a2.24,2.24,0,0,0,2.22,2.4,2.79,2.79,0,0,0,1.64-.53l.36.65a3.76,3.76,0,0,1-2.12.66A3.09,3.09,0,0,1,152,77.29Zm4.58-.51c0-1.38-.62-2.11-1.68-2.11A2.08,2.08,0,0,0,153,76.78Z"/><path class="cls-3" d="M349.89,116.84l-7.63,7.63a.87.87,0,1,0,1.23,1.24l8.17-8.18s.07,0,.09-.06a.92.92,0,0,0,0-1.26s-.06,0-.09-.06L343.49,108a.87.87,0,0,0-1.23,0,.85.85,0,0,0,0,1.23Z"/><path class="cls-4" d="M256.89,109.73h-4v-1.42h9.67v1.42h-4v11.79h-1.67Z"/><path class="cls-4" d="M264.92,108.31h2l2.54,7.07c.31.92.61,1.84.94,2.76h.09c.3-.92.59-1.84.9-2.76l2.52-7.07h2v13.21h-1.57v-7.31c0-1.13.12-2.73.21-3.88h-.07l-1,3-2.5,6.86h-1.12l-2.5-6.86-1.05-3h-.07c.07,1.15.2,2.75.2,3.88v7.31h-1.51Z"/><path class="cls-4" d="M282.61,119.8l1-1.14a5.1,5.1,0,0,0,3.63,1.64c1.73,0,2.78-.86,2.78-2.16s-1-1.78-2.2-2.34l-1.91-.83c-1.22-.52-2.68-1.46-2.68-3.39s1.76-3.51,4.16-3.51a5.44,5.44,0,0,1,3.89,1.64l-.88,1.07a4.3,4.3,0,0,0-3-1.25c-1.5,0-2.47.76-2.47,2s1.15,1.76,2.18,2.19l1.89.81c1.53.67,2.72,1.57,2.72,3.53s-1.73,3.75-4.48,3.75A6.32,6.32,0,0,1,282.61,119.8Z"/><path class="cls-4" d="M294,118.5v-5.42h-1.46v-1.24l1.53-.09.2-2.76h1.37v2.76h2.64v1.33h-2.64v5.46c0,1.2.37,1.89,1.51,1.89a3.33,3.33,0,0,0,1.11-.26l.33,1.23a6.19,6.19,0,0,1-1.8.36C294.67,121.76,294,120.44,294,118.5Z"/><path class="cls-4" d="M299.46,116.64c0-3.25,2.14-5.14,4.54-5.14s4.53,1.89,4.53,5.14-2.14,5.12-4.53,5.12S299.46,119.89,299.46,116.64Zm7.38,0c0-2.25-1.15-3.78-2.84-3.78s-2.83,1.53-2.83,3.78,1.13,3.75,2.83,3.75S306.84,118.9,306.84,116.64Z"/><path class="cls-4" d="M311.1,111.75h1.35l.15,1.78h0a3.39,3.39,0,0,1,2.77-2,2.12,2.12,0,0,1,1.05.21l-.31,1.44a2.4,2.4,0,0,0-1-.16c-.81,0-1.82.58-2.47,2.25v6.28H311.1Z"/><path class="cls-4" d="M317.15,116.64c0-3.16,2.14-5.14,4.41-5.14,2.49,0,3.89,1.8,3.89,4.59a5.79,5.79,0,0,1-.07.93h-6.59c.11,2.09,1.39,3.42,3.24,3.42a4.2,4.2,0,0,0,2.45-.77l.59,1.08a5.8,5.8,0,0,1-3.24,1C319.24,121.76,317.15,119.87,317.15,116.64Zm6.86-.81c0-2-.9-3-2.43-3s-2.61,1.12-2.81,3Z"/><line class="cls-5" x1="20" y1="88.5" x2="355" y2="88.5"/><rect class="cls-2" x="10" y="153.15" width="355" height="78.85" rx="3"/><path d="M77.29,204.68c0-3.73,2.07-6,5-6a4,4,0,0,1,3.07,1.41l-.54.62a3.31,3.31,0,0,0-2.53-1.17c-2.47,0-4,2-4,5.14s1.52,5.22,4,5.22a3.73,3.73,0,0,0,2.9-1.41l.54.61a4.35,4.35,0,0,1-3.49,1.66C79.34,210.73,77.29,208.41,77.29,204.68Z"/><path d="M87.37,208.38c0-1.89,1.68-2.79,5.45-3.22,0-1.26-.34-2.58-2-2.58a4.63,4.63,0,0,0-2.69,1l-.41-.67A5.88,5.88,0,0,1,91,201.77c2,0,2.75,1.46,2.75,3.34v5.41H93l-.1-1.08h0a4.93,4.93,0,0,1-3,1.29A2.25,2.25,0,0,1,87.37,208.38Zm5.45.24v-2.77c-3.37.38-4.52,1.17-4.52,2.48A1.54,1.54,0,0,0,90.05,210,4.22,4.22,0,0,0,92.82,208.62Z"/><path d="M96.72,202h.77l.11,1.59h0a2.92,2.92,0,0,1,2.42-1.81,1.75,1.75,0,0,1,.86.19l-.19.83a1.84,1.84,0,0,0-.78-.14c-.76,0-1.67.56-2.29,2.14v5.73h-.93Z"/><path d="M102.46,202h.77l.11,1.59h0a2.93,2.93,0,0,1,2.42-1.81,1.79,1.79,0,0,1,.87.19l-.2.83a1.78,1.78,0,0,0-.78-.14c-.75,0-1.67.56-2.29,2.14v5.73h-.93Z"/><path d="M107.33,206.27c0-2.77,1.82-4.5,3.74-4.5,2.07,0,3.3,1.47,3.3,4a4.68,4.68,0,0,1-.05.67h-6c0,2.08,1.28,3.54,3.12,3.54a3.81,3.81,0,0,0,2.27-.74l.36.69a4.81,4.81,0,0,1-2.73.83C109.1,210.73,107.33,209.07,107.33,206.27Zm6.19-.6c0-2.06-.94-3.1-2.43-3.1s-2.64,1.15-2.82,3.1Z"/><path d="M116.78,202.78H115.6v-.71l1.18-.08V200.2c0-1.7.75-2.61,2.19-2.61a3.45,3.45,0,0,1,1.28.27l-.22.76a2.44,2.44,0,0,0-1-.24c-.91,0-1.31.67-1.31,1.87V202h1.94v.79h-1.94v7.74h-.93Z"/><path d="M120.53,206.27c0-2.85,1.79-4.5,3.85-4.5s3.86,1.65,3.86,4.5-1.79,4.46-3.86,4.46S120.53,209.1,120.53,206.27Zm6.75,0c0-2.18-1.23-3.69-2.9-3.69s-2.88,1.51-2.88,3.69,1.22,3.66,2.88,3.66S127.28,208.44,127.28,206.27Z"/><path d="M130.61,207.45V202h.92v5.35c0,1.74.55,2.56,1.86,2.56,1,0,1.7-.51,2.66-1.66V202H137v8.53h-.79l-.08-1.4h-.05a3.77,3.77,0,0,1-2.88,1.61C131.41,210.73,130.61,209.64,130.61,207.45Z"/><path d="M140.17,202h.77l.11,1.59h0a2.93,2.93,0,0,1,2.42-1.81,1.79,1.79,0,0,1,.87.19l-.2.83a1.78,1.78,0,0,0-.78-.14c-.75,0-1.66.56-2.29,2.14v5.73h-.93Z"/><path d="M149.56,198.86h3c2.64,0,4.26.86,4.26,3.28s-1.6,3.45-4.2,3.45h-2.12v4.93h-1Zm2.9,5.93c2.31,0,3.41-.78,3.41-2.65s-1.15-2.48-3.47-2.48h-1.87v5.13Z"/><path d="M157.84,208.38c0-1.89,1.68-2.79,5.44-3.22,0-1.26-.34-2.58-1.95-2.58a4.6,4.6,0,0,0-2.69,1l-.42-.67a5.91,5.91,0,0,1,3.23-1.12c2,0,2.76,1.46,2.76,3.34v5.41h-.79l-.09-1.08h0a4.9,4.9,0,0,1-3,1.29A2.25,2.25,0,0,1,157.84,208.38Zm5.44.24v-2.77c-3.36.38-4.52,1.17-4.52,2.48a1.55,1.55,0,0,0,1.75,1.62A4.22,4.22,0,0,0,163.28,208.62Z"/><path d="M166,214.19l.21-.78a2.24,2.24,0,0,0,.68.12c1,0,1.72-.92,2.13-2.16l.23-.72L165.79,202h1l2,5.22c.27.74.59,1.63.9,2.4h.08l.77-2.4,1.74-5.22h.94l-3.32,9.53c-.5,1.47-1.38,2.85-2.95,2.85A2.27,2.27,0,0,1,166,214.19Z"/><path class="cls-3" d="M21.47,162.05h.79l.1.75h0a3.54,3.54,0,0,1,2.08-.92c1.69,0,2.59,1.31,2.59,3.3,0,2.22-1.33,3.5-2.83,3.5a3,3,0,0,1-1.82-.76l0,1.14v2.25h-1Zm4.58,3.14c0-1.46-.5-2.48-1.8-2.48a2.82,2.82,0,0,0-1.81.93v3.51a2.66,2.66,0,0,0,1.66.7C25.23,167.85,26.05,166.83,26.05,165.19Z"/><path class="cls-3" d="M28.24,166.86c0-1.42,1.24-2.11,4-2.43,0-.87-.26-1.73-1.38-1.73a3.49,3.49,0,0,0-2,.72l-.39-.69a4.7,4.7,0,0,1,2.52-.85c1.57,0,2.19,1.07,2.19,2.63v4h-.8l-.09-.79h0a3.49,3.49,0,0,1-2.19,1A1.74,1.74,0,0,1,28.24,166.86Zm4,.13v-1.9c-2.29.27-3.07.82-3.07,1.71s.54,1.09,1.2,1.09A2.78,2.78,0,0,0,32.26,167Z"/><path class="cls-3" d="M34.64,171.22l.2-.79a1.48,1.48,0,0,0,.5.1c.75,0,1.23-.63,1.52-1.47l.14-.5-2.62-6.51h1l1.38,3.7c.21.57.43,1.24.65,1.83h.06c.18-.59.37-1.26.55-1.83l1.21-3.7h1l-2.47,7.07c-.43,1.24-1.1,2.23-2.36,2.23A1.82,1.82,0,0,1,34.64,171.22Z"/><path class="cls-3" d="M41.51,162.05h.79l.1,1h0a2.87,2.87,0,0,1,2-1.13,1.69,1.69,0,0,1,1.79,1.26,3.15,3.15,0,0,1,2.16-1.26c1.32,0,2,.88,2,2.53v4.11h-1v-4c0-1.25-.4-1.8-1.26-1.8a2.45,2.45,0,0,0-1.7,1.06v4.73h-1v-4c0-1.25-.4-1.8-1.28-1.8a2.49,2.49,0,0,0-1.69,1.06v4.73h-1Z"/><path class="cls-3" d="M52,165.29a3.12,3.12,0,0,1,2.89-3.41c1.62,0,2.55,1.16,2.55,3a2.54,2.54,0,0,1,0,.59H53a2.24,2.24,0,0,0,2.22,2.4,2.82,2.82,0,0,0,1.64-.53l.36.65a3.76,3.76,0,0,1-2.12.66A3.08,3.08,0,0,1,52,165.29Zm4.58-.51c0-1.38-.63-2.11-1.68-2.11A2.08,2.08,0,0,0,53,164.78Z"/><path class="cls-3" d="M59.13,162.05h.79l.1.95h0a3.11,3.11,0,0,1,2.18-1.12c1.36,0,2,.88,2,2.53v4.11h-1v-4c0-1.25-.38-1.8-1.28-1.8a2.54,2.54,0,0,0-1.85,1.06v4.73h-1Z"/><path class="cls-3" d="M66.57,166.57v-3.72h-1v-.74l1-.06.12-1.84h.82v1.84h1.79v.8H67.54v3.76c0,.79.24,1.27,1,1.27a2.12,2.12,0,0,0,.75-.18l.2.74a4,4,0,0,1-1.15.24C67,168.68,66.57,167.83,66.57,166.57Z"/><path class="cls-6" d="M30.09,196.47l-7.73,7.47a1.59,1.59,0,0,0,0,2.53l7.73,7.47a.21.21,0,0,0,.14.07.13.13,0,0,0,.12-.14.21.21,0,0,0-.07-.15,12.86,12.86,0,0,1-3.13-8.49,13,13,0,0,1,3.13-8.54.21.21,0,0,0,.07-.15.13.13,0,0,0-.12-.14.21.21,0,0,0-.14.07"/><path class="cls-7" d="M36,195.83c-3,0-4.21,4.29-4.21,9.4S33,214.58,36,214.58c1.82,0,3.36-1.07,3.37-1.94a.72.72,0,0,0-.24-.54,3.42,3.42,0,0,1-1.2-2.39,2.4,2.4,0,1,1,4.78.33,6.46,6.46,0,0,1-1.32,3.71.2.2,0,0,0,0,.13c0,.07,0,.14.11.14a.19.19,0,0,0,.15-.08l7.73-7.47a1.59,1.59,0,0,0,0-2.53l-7.73-7.47a.19.19,0,0,0-.15-.08c-.06,0-.11.07-.11.14a.22.22,0,0,0,0,.13,6.49,6.49,0,0,1,1.32,3.71,2.49,2.49,0,0,1-2.45,2.77A2.46,2.46,0,0,1,38,200.7a3.42,3.42,0,0,1,1.2-2.39.72.72,0,0,0,.24-.54c0-.87-1.55-1.94-3.37-1.94"/><path class="cls-4" d="M321.13,208.8l.37-.5a3,3,0,0,0,2,.8c1,0,1.46-.55,1.46-1.21s-.8-1.1-1.54-1.36c-.95-.34-2-.74-2-1.84,0-.93.74-1.73,2.1-1.73a3,3,0,0,1,1.86.69l-.37.48a2.38,2.38,0,0,0-1.5-.58c-1,0-1.39.53-1.39,1.11s.69,1,1.44,1.24c1,.37,2.06.72,2.06,2,0,1-.78,1.82-2.2,1.82A3.79,3.79,0,0,1,321.13,208.8Z"/><path class="cls-4" d="M326.81,206.33c0-2.07,1.37-3.37,2.81-3.37s2.47,1.11,2.47,3a3.75,3.75,0,0,1,0,.5h-4.53a2.41,2.41,0,0,0,2.33,2.65,2.84,2.84,0,0,0,1.71-.55l.26.52a3.58,3.58,0,0,1-2,.62A3,3,0,0,1,326.81,206.33Zm4.64-.44c0-1.55-.71-2.33-1.82-2.33a2.28,2.28,0,0,0-2.11,2.33Z"/><path class="cls-4" d="M333.79,208.58V200h.7v8.66c0,.3.12.43.29.43l.22,0,.11.55a1.61,1.61,0,0,1-.47.07C334.07,209.68,333.79,209.32,333.79,208.58Z"/><path class="cls-4" d="M336.47,206.33c0-2.07,1.37-3.37,2.81-3.37s2.47,1.11,2.47,3a3.75,3.75,0,0,1,0,.5h-4.53a2.41,2.41,0,0,0,2.33,2.65,2.84,2.84,0,0,0,1.71-.55l.26.52a3.58,3.58,0,0,1-2,.62A3,3,0,0,1,336.47,206.33Zm4.64-.44c0-1.55-.71-2.33-1.82-2.33a2.28,2.28,0,0,0-2.11,2.33Z"/><path class="cls-4" d="M342.92,206.33a3.06,3.06,0,0,1,3-3.37,2.74,2.74,0,0,1,1.87.78l-.4.48a2.08,2.08,0,0,0-1.46-.64c-1.27,0-2.24,1.12-2.24,2.75s.88,2.75,2.23,2.75a2.5,2.5,0,0,0,1.66-.71l.35.48a3.15,3.15,0,0,1-2,.83C344.18,209.68,342.92,208.46,342.92,206.33Z"/><path class="cls-4" d="M349.46,207.7v-4h-1v-.53l1-.06.08-1.84h.59v1.84H352v.59h-1.83v4c0,.8.22,1.33,1.07,1.33a2,2,0,0,0,.78-.19l.16.55a3.68,3.68,0,0,1-1.06.24C349.85,209.68,349.46,208.89,349.46,207.7Z"/><line class="cls-5" x1="20" y1="176.5" x2="355" y2="176.5"/><rect class="cls-2" y="475" width="375" height="192"/><rect class="cls-2" x="10" y="243.63" width="355" height="71.37" rx="3"/><path d="M21.23,279.74c0-2.85,1.84-4.5,3.95-4.5a3.6,3.6,0,0,1,2.5,1.05l-.53.63a2.82,2.82,0,0,0-1.95-.86c-1.7,0-3,1.51-3,3.68s1.18,3.67,3,3.67a3.4,3.4,0,0,0,2.23-1l.46.64a4.2,4.2,0,0,1-2.74,1.11C22.91,284.21,21.23,282.58,21.23,279.74Z"/><path d="M28.88,279.74c0-2.85,1.79-4.5,3.85-4.5s3.86,1.65,3.86,4.5-1.79,4.47-3.86,4.47S28.88,282.58,28.88,279.74Zm6.75,0c0-2.17-1.23-3.68-2.9-3.68s-2.88,1.51-2.88,3.68,1.22,3.67,2.88,3.67S35.63,281.92,35.63,279.74Z"/><path d="M39,280.93v-5.46h.93v5.34c0,1.75.54,2.57,1.85,2.57,1,0,1.7-.52,2.66-1.67v-6.24h.93V284h-.79l-.08-1.41h0a3.81,3.81,0,0,1-2.89,1.62C39.76,284.21,39,283.12,39,280.93Z"/><path d="M48.53,275.47h.76l.12,1h0a5,5,0,0,1,2.85-1.27c2.27,0,3.42,1.73,3.42,4.36,0,2.91-1.76,4.61-3.76,4.61a4.21,4.21,0,0,1-2.51-1v4.64h-.92Zm6.19,4.13c0-2.05-.7-3.54-2.61-3.54a4.29,4.29,0,0,0-2.66,1.36v4.93a3.94,3.94,0,0,0,2.42,1C53.54,283.39,54.72,281.89,54.72,279.6Z"/><path d="M57.5,279.74c0-2.85,1.79-4.5,3.86-4.5s3.86,1.65,3.86,4.5-1.8,4.47-3.86,4.47S57.5,282.58,57.5,279.74Zm6.76,0c0-2.17-1.24-3.68-2.9-3.68s-2.88,1.51-2.88,3.68,1.21,3.67,2.88,3.67S64.26,281.92,64.26,279.74Z"/><path d="M67.71,275.47h.77l.11,1.29h0a4.25,4.25,0,0,1,2.91-1.52c1.78,0,2.6,1.11,2.6,3.3V284H73.2v-5.33c0-1.78-.56-2.59-1.87-2.59-1,0-1.7.51-2.69,1.53V284h-.93Z"/><path class="cls-3" d="M349.89,279.31,342.26,287a.85.85,0,0,0,0,1.23.87.87,0,0,0,1.23,0l8.17-8.18s.07,0,.09-.06a.81.81,0,0,0,.25-.63.84.84,0,0,0-.25-.63l-.09-.06-8.17-8.17a.87.87,0,0,0-1.23,0,.85.85,0,0,0,0,1.23Z"/><path class="cls-8" d="M113.86,283l.49-.67a4,4,0,0,0,2.69,1.07c1.3,0,1.95-.74,1.95-1.62s-1.07-1.47-2.06-1.82c-1.26-.45-2.61-1-2.61-2.45,0-1.25,1-2.31,2.8-2.31a4,4,0,0,1,2.48.92l-.49.64a3.21,3.21,0,0,0-2-.77c-1.28,0-1.86.7-1.86,1.47,0,.95.93,1.3,1.92,1.67,1.31.49,2.75,1,2.75,2.61,0,1.31-1,2.43-2.93,2.43A5,5,0,0,1,113.86,283Z"/><path class="cls-8" d="M121.42,279.74c0-2.77,1.83-4.5,3.75-4.5s3.3,1.48,3.3,4a4.83,4.83,0,0,1-.05.68h-6c0,2.08,1.28,3.53,3.12,3.53a3.8,3.8,0,0,0,2.27-.73l.35.69a4.75,4.75,0,0,1-2.72.83C123.2,284.21,121.42,282.54,121.42,279.74Zm6.2-.59c0-2.07-1-3.11-2.43-3.11s-2.65,1.16-2.82,3.11Z"/><path class="cls-8" d="M130.74,282.74V271.27h.93v11.56c0,.4.16.58.38.58a1.48,1.48,0,0,0,.3,0l.15.73a1.82,1.82,0,0,1-.63.1C131.1,284.21,130.74,283.73,130.74,282.74Z"/><path class="cls-8" d="M134.3,279.74c0-2.77,1.83-4.5,3.75-4.5s3.3,1.48,3.3,4a4.83,4.83,0,0,1,0,.68h-6.05c.05,2.08,1.28,3.53,3.12,3.53a3.8,3.8,0,0,0,2.27-.73l.36.69a4.81,4.81,0,0,1-2.73.83C136.08,284.21,134.3,282.54,134.3,279.74Zm6.2-.59c0-2.07-.95-3.11-2.43-3.11s-2.65,1.16-2.82,3.11Z"/><path class="cls-8" d="M142.91,279.74c0-2.85,1.84-4.5,4-4.5a3.6,3.6,0,0,1,2.49,1.05l-.53.63a2.8,2.8,0,0,0-2-.86c-1.7,0-3,1.51-3,3.68s1.18,3.67,3,3.67a3.37,3.37,0,0,0,2.22-1l.46.64a4.19,4.19,0,0,1-2.73,1.11C144.59,284.21,142.91,282.58,142.91,279.74Z"/><path class="cls-8" d="M151.63,281.57v-5.32H150.3v-.7l1.37-.08.11-2.47h.78v2.47H155v.78h-2.45v5.38c0,1.07.29,1.78,1.43,1.78a2.62,2.62,0,0,0,1-.26l.22.74a5.06,5.06,0,0,1-1.42.32C152.15,284.21,151.63,283.15,151.63,281.57Z"/><path class="cls-8" d="M159.9,279.74c0-2.85,1.85-4.5,4-4.5a3.6,3.6,0,0,1,2.49,1.05l-.52.63a2.84,2.84,0,0,0-2-.86c-1.69,0-3,1.51-3,3.68s1.19,3.67,3,3.67a3.35,3.35,0,0,0,2.22-1l.47.64a4.24,4.24,0,0,1-2.74,1.11C161.58,284.21,159.9,282.58,159.9,279.74Z"/><path class="cls-8" d="M167.55,279.74c0-2.85,1.79-4.5,3.86-4.5s3.86,1.65,3.86,4.5-1.8,4.47-3.86,4.47S167.55,282.58,167.55,279.74Zm6.76,0c0-2.17-1.24-3.68-2.9-3.68s-2.88,1.51-2.88,3.68,1.21,3.67,2.88,3.67S174.31,281.92,174.31,279.74Z"/><path class="cls-8" d="M177.63,280.93v-5.46h.93v5.34c0,1.75.54,2.57,1.86,2.57,1,0,1.69-.52,2.65-1.67v-6.24H184V284h-.78l-.08-1.41h0a3.79,3.79,0,0,1-2.88,1.62C178.43,284.21,177.63,283.12,177.63,280.93Z"/><path class="cls-8" d="M187.2,275.47H188l.11,1h0a5,5,0,0,1,2.85-1.27c2.27,0,3.43,1.73,3.43,4.36,0,2.91-1.76,4.61-3.76,4.61a4.26,4.26,0,0,1-2.52-1l0,1.57v3.07h-.93Zm6.19,4.13c0-2.05-.7-3.54-2.6-3.54a4.27,4.27,0,0,0-2.66,1.36v4.93a3.89,3.89,0,0,0,2.42,1C192.21,283.39,193.39,281.89,193.39,279.6Z"/><path class="cls-8" d="M196.18,279.74c0-2.85,1.79-4.5,3.85-4.5s3.86,1.65,3.86,4.5-1.79,4.47-3.86,4.47S196.18,282.58,196.18,279.74Zm6.75,0c0-2.17-1.23-3.68-2.9-3.68s-2.88,1.51-2.88,3.68,1.22,3.67,2.88,3.67S202.93,281.92,202.93,279.74Z"/><path class="cls-8" d="M206.38,275.47h.77l.11,1.29h0a4.21,4.21,0,0,1,2.91-1.52c1.78,0,2.59,1.11,2.59,3.3V284h-.93v-5.33c0-1.78-.56-2.59-1.87-2.59-1,0-1.7.51-2.69,1.53V284h-.93Z"/><path class="cls-8" d="M218.72,279.74c0-2.85,1.79-4.5,3.86-4.5s3.85,1.65,3.85,4.5-1.79,4.47-3.85,4.47S218.72,282.58,218.72,279.74Zm6.75,0c0-2.17-1.23-3.68-2.89-3.68s-2.88,1.51-2.88,3.68,1.21,3.67,2.88,3.67S225.47,281.92,225.47,279.74Z"/><path class="cls-8" d="M228.93,275.47h.77l.11,1.58h0a2.94,2.94,0,0,1,2.42-1.81,1.66,1.66,0,0,1,.86.2l-.19.83a1.85,1.85,0,0,0-.79-.14c-.75,0-1.66.55-2.28,2.14V284h-.93Z"/><path class="cls-8" d="M238.22,275.47H239l.11,1h0a5,5,0,0,1,2.85-1.27c2.28,0,3.43,1.73,3.43,4.36,0,2.91-1.76,4.61-3.76,4.61a4.26,4.26,0,0,1-2.52-1l0,1.57v3.07h-.93Zm6.2,4.13c0-2.05-.71-3.54-2.61-3.54a4.27,4.27,0,0,0-2.66,1.36v4.93a3.89,3.89,0,0,0,2.42,1C243.23,283.39,244.42,281.89,244.42,279.6Z"/><path class="cls-8" d="M247.9,275.47h.77l.11,1.58h0a3,3,0,0,1,2.42-1.81,1.69,1.69,0,0,1,.87.2l-.2.83a1.78,1.78,0,0,0-.78-.14c-.75,0-1.66.55-2.29,2.14V284h-.93Z"/><path class="cls-8" d="M252.77,279.74c0-2.85,1.79-4.5,3.85-4.5s3.86,1.65,3.86,4.5-1.79,4.47-3.86,4.47S252.77,282.58,252.77,279.74Zm6.75,0c0-2.17-1.23-3.68-2.9-3.68s-2.88,1.51-2.88,3.68,1.22,3.67,2.88,3.67S259.52,281.92,259.52,279.74Z"/><path class="cls-8" d="M263,275.47h.77l.12,1.29h0a4,4,0,0,1,2.69-1.52,2.21,2.21,0,0,1,2.35,1.73,4.27,4.27,0,0,1,2.88-1.73c1.71,0,2.56,1.11,2.56,3.3V284h-.93v-5.33c0-1.78-.59-2.59-1.84-2.59a3.59,3.59,0,0,0-2.46,1.53V284h-.93v-5.33c0-1.78-.58-2.59-1.84-2.59a3.62,3.62,0,0,0-2.47,1.53V284H263Z"/><path class="cls-8" d="M276.73,279.74c0-2.85,1.8-4.5,3.86-4.5s3.86,1.65,3.86,4.5-1.79,4.47-3.86,4.47S276.73,282.58,276.73,279.74Zm6.76,0c0-2.17-1.23-3.68-2.9-3.68s-2.88,1.51-2.88,3.68,1.22,3.67,2.88,3.67S283.49,281.92,283.49,279.74Z"/><path class="cls-8" d="M289.79,279.74c0-2.85,1.84-4.5,3.95-4.5a3.6,3.6,0,0,1,2.5,1.05l-.53.63a2.82,2.82,0,0,0-1.95-.86c-1.7,0-3,1.51-3,3.68s1.18,3.67,3,3.67a3.4,3.4,0,0,0,2.23-1l.46.64a4.19,4.19,0,0,1-2.73,1.11C291.47,284.21,289.79,282.58,289.79,279.74Z"/><path class="cls-8" d="M297.44,279.74c0-2.85,1.79-4.5,3.85-4.5s3.86,1.65,3.86,4.5-1.79,4.47-3.86,4.47S297.44,282.58,297.44,279.74Zm6.75,0c0-2.17-1.23-3.68-2.9-3.68s-2.88,1.51-2.88,3.68,1.22,3.67,2.88,3.67S304.19,281.92,304.19,279.74Z"/><path class="cls-8" d="M306.94,279.74c0-2.75,1.76-4.5,3.78-4.5a3.82,3.82,0,0,1,2.54,1.05l-.06-1.54v-3.48h.93V284h-.77l-.1-1.07h0a4,4,0,0,1-2.74,1.28C308.33,284.21,306.94,282.61,306.94,279.74Zm6.26,2.31v-4.93a3.41,3.41,0,0,0-2.39-1.06c-1.63,0-2.88,1.59-2.88,3.68s1,3.65,2.71,3.65A3.57,3.57,0,0,0,313.2,282.05Z"/><path class="cls-8" d="M316.62,279.74c0-2.77,1.83-4.5,3.75-4.5s3.3,1.48,3.3,4a4.83,4.83,0,0,1-.05.68h-6.05c0,2.08,1.28,3.53,3.12,3.53a3.8,3.8,0,0,0,2.27-.73l.35.69a4.8,4.8,0,0,1-2.72.83C318.4,284.21,316.62,282.54,316.62,279.74Zm6.2-.59c0-2.07-.95-3.11-2.44-3.11s-2.64,1.16-2.81,3.11Z"/><path class="cls-3" d="M20.56,507.54l.5-.67a4,4,0,0,0,2.69,1.07c1.29,0,1.95-.74,1.95-1.62s-1.07-1.47-2.07-1.82c-1.26-.45-2.61-1-2.61-2.45,0-1.25,1-2.31,2.81-2.31a4,4,0,0,1,2.48.92l-.5.64a3.21,3.21,0,0,0-2-.77c-1.28,0-1.86.7-1.86,1.47,0,.95.93,1.3,1.92,1.67,1.32.49,2.76,1,2.76,2.61,0,1.31-1,2.43-2.93,2.43A5,5,0,0,1,20.56,507.54Z"/><path class="cls-3" d="M28.71,505.43V500h.92v5.34c0,1.75.55,2.57,1.86,2.57,1,0,1.7-.52,2.66-1.67V500h.93v8.53h-.79l-.08-1.41h-.05a3.78,3.78,0,0,1-2.88,1.62C29.5,508.71,28.71,507.62,28.71,505.43Z"/><path class="cls-3" d="M39.17,507.64h0l-.12.86h-.75V495.77h.93v3.65l-.05,1.64A4.74,4.74,0,0,1,42,499.74c2.28,0,3.43,1.73,3.43,4.36,0,2.91-1.76,4.61-3.76,4.61A4.25,4.25,0,0,1,39.17,507.64Zm5.3-3.54c0-2.05-.71-3.54-2.61-3.54a4.2,4.2,0,0,0-2.66,1.36v4.93a3.83,3.83,0,0,0,2.42,1C43.28,507.89,44.47,506.39,44.47,504.1Z"/><path class="cls-3" d="M47.89,506.07v-5.32H46.56v-.7l1.36-.08L48,497.5h.79V500h2.45v.78H48.82v5.38c0,1.07.29,1.78,1.42,1.78a2.58,2.58,0,0,0,1-.26l.23.74a5,5,0,0,1-1.43.32C48.4,508.71,47.89,507.65,47.89,506.07Z"/><path class="cls-3" d="M52.4,504.24c0-2.85,1.79-4.5,3.86-4.5s3.86,1.65,3.86,4.5-1.8,4.47-3.86,4.47S52.4,507.08,52.4,504.24Zm6.76,0c0-2.17-1.24-3.68-2.9-3.68s-2.88,1.51-2.88,3.68,1.21,3.67,2.88,3.67S59.16,506.42,59.16,504.24Z"/><path class="cls-3" d="M62.58,506.07v-5.32H61.25v-.7l1.36-.08.11-2.47h.78V500H66v.78H63.5v5.38c0,1.07.29,1.78,1.43,1.78a2.58,2.58,0,0,0,1-.26l.22.74a5,5,0,0,1-1.42.32C63.09,508.71,62.58,507.65,62.58,506.07Z"/><path class="cls-3" d="M67,506.36c0-1.89,1.69-2.79,5.45-3.22,0-1.27-.34-2.58-2-2.58a4.63,4.63,0,0,0-2.69,1l-.41-.67a5.88,5.88,0,0,1,3.23-1.13c2,0,2.75,1.46,2.75,3.35v5.41h-.78l-.1-1.09h0a4.88,4.88,0,0,1-3,1.3A2.25,2.25,0,0,1,67,506.36Zm5.45.24v-2.77C69.1,504.21,68,505,68,506.31a1.53,1.53,0,0,0,1.75,1.61A4.2,4.2,0,0,0,72.47,506.6Z"/><path class="cls-3" d="M76.37,507.24V495.77h.93v11.56c0,.4.16.58.38.58a1.56,1.56,0,0,0,.31,0l.14.73a1.82,1.82,0,0,1-.63.1C76.74,508.71,76.37,508.23,76.37,507.24Z"/><path class="cls-3" d="M80.22,501.15A.82.82,0,1,1,81,502,.83.83,0,0,1,80.22,501.15Zm0,6.69a.82.82,0,1,1,.82.87A.83.83,0,0,1,80.22,507.84Z"/><path class="cls-3" d="M20.9,528.24c0-2.75,1.76-4.5,3.77-4.5a3.82,3.82,0,0,1,2.55,1l-.06-1.54v-3.48h.92V532.5h-.76l-.1-1.07h0a4,4,0,0,1-2.74,1.28C22.29,532.71,20.9,531.11,20.9,528.24Zm6.26,2.31v-4.93a3.43,3.43,0,0,0-2.39-1.06c-1.63,0-2.88,1.59-2.88,3.68s1,3.65,2.7,3.65A3.57,3.57,0,0,0,27.16,530.55Z"/><path class="cls-3" d="M31,521.18a.75.75,0,0,1,1.49,0,.75.75,0,1,1-1.49,0Zm.27,2.79h.93v8.53h-.93Z"/><path class="cls-3" d="M34.35,531.54l.5-.67a4,4,0,0,0,2.69,1.07c1.29,0,2-.74,2-1.62s-1.07-1.47-2.06-1.82c-1.27-.45-2.61-1-2.61-2.45,0-1.25,1-2.31,2.8-2.31a4,4,0,0,1,2.48.92l-.5.64a3.18,3.18,0,0,0-2-.77c-1.28,0-1.85.7-1.85,1.47,0,1,.92,1.3,1.92,1.67,1.31.49,2.75,1,2.75,2.61,0,1.31-1,2.43-2.93,2.43A5.06,5.06,0,0,1,34.35,531.54Z"/><path class="cls-3" d="M41.92,528.24c0-2.85,1.84-4.5,3.95-4.5a3.6,3.6,0,0,1,2.5,1l-.53.63a2.82,2.82,0,0,0-2-.86c-1.7,0-3,1.51-3,3.68s1.18,3.67,3,3.67A3.4,3.4,0,0,0,48.1,531l.46.64a4.19,4.19,0,0,1-2.73,1.11C43.6,532.71,41.92,531.08,41.92,528.24Z"/><path class="cls-3" d="M49.57,528.24c0-2.85,1.79-4.5,3.86-4.5s3.85,1.65,3.85,4.5-1.79,4.47-3.85,4.47S49.57,531.08,49.57,528.24Zm6.75,0c0-2.17-1.23-3.68-2.89-3.68s-2.89,1.51-2.89,3.68,1.22,3.67,2.89,3.67S56.32,530.42,56.32,528.24Z"/><path class="cls-3" d="M59.65,529.43V524h.93v5.34c0,1.75.54,2.57,1.85,2.57,1,0,1.7-.52,2.66-1.67V524H66v8.53h-.79l-.08-1.41h0a3.81,3.81,0,0,1-2.88,1.62C60.45,532.71,59.65,531.62,59.65,529.43Z"/><path class="cls-3" d="M69.22,524H70l.12,1.29h0A4.21,4.21,0,0,1,73,523.74c1.78,0,2.59,1.11,2.59,3.3v5.46h-.92v-5.33c0-1.78-.56-2.59-1.88-2.59-1,0-1.69.51-2.69,1.53v6.39h-.92Z"/><path class="cls-3" d="M78.91,530.07v-5.32H77.58v-.7l1.36-.08.12-2.47h.78V524h2.45v.78H79.84v5.38c0,1.07.29,1.78,1.43,1.78a2.66,2.66,0,0,0,1-.26l.22.74a5.06,5.06,0,0,1-1.42.32C79.42,532.71,78.91,531.65,78.91,530.07Z"/><path class="cls-3" d="M84.24,525.15a.82.82,0,1,1,.82.87A.83.83,0,0,1,84.24,525.15Zm0,6.69a.82.82,0,1,1,.82.87A.83.83,0,0,1,84.24,531.84Z"/><path class="cls-9" d="M330.32,508.69a5.08,5.08,0,0,1-3-1.36l.49-.66a4.18,4.18,0,0,0,2.81,1.24,2,2,0,0,0,2.24-2.1c0-3.36-5.09-2.46-5.09-6a2.75,2.75,0,0,1,2.53-2.8v-1.77h.77V497a3.42,3.42,0,0,1,2.43,1.28l-.52.57a2.83,2.83,0,0,0-2.26-1.05,1.89,1.89,0,0,0-2,2c0,3,5.07,2,5.07,6a2.84,2.84,0,0,1-2.72,2.94v1.76h-.77Z"/><path class="cls-9" d="M341.55,498h-5.9v-.83h7v.57c-2.7,3.54-3.34,6.34-3.52,10.76h-1C338.35,504,339.28,501.17,341.55,498Z"/><path class="cls-9" d="M344.29,502.8c0-3.78,1.25-5.84,3.44-5.84s3.42,2.08,3.42,5.84-1.24,5.91-3.42,5.91S344.29,506.56,344.29,502.8Zm5.94,0c0-3.42-1-5-2.5-5s-2.51,1.62-2.51,5,1,5.12,2.51,5.12S350.23,506.23,350.23,502.8Z"/><path class="cls-4" d="M330.27,527.68h3.94v.79h-3.94Z"/><path class="cls-4" d="M338.88,532.69a5,5,0,0,1-3-1.36l.48-.66a4.18,4.18,0,0,0,2.81,1.24,2,2,0,0,0,2.24-2.1c0-3.36-5.09-2.46-5.09-6a2.75,2.75,0,0,1,2.53-2.8v-1.77h.77V521a3.42,3.42,0,0,1,2.43,1.28l-.52.57a2.81,2.81,0,0,0-2.26-1.05,1.89,1.89,0,0,0-2,2c0,3,5.07,2,5.07,6a2.84,2.84,0,0,1-2.72,2.94v1.76h-.77Z"/><path class="cls-4" d="M344.29,526.8c0-3.78,1.25-5.84,3.44-5.84s3.43,2.08,3.43,5.84-1.25,5.91-3.43,5.91S344.29,530.56,344.29,526.8Zm5.94,0c0-3.42-1-5-2.5-5s-2.51,1.62-2.51,5,1,5.12,2.51,5.12S350.23,530.23,350.23,526.8Z"/><line class="cls-5" x1="20" y1="553.5" x2="355" y2="553.5"/><path class="cls-9" d="M328,583.69a5.76,5.76,0,0,1-3.11-1.37l.84-1.27a4.26,4.26,0,0,0,2.7,1.15c1.25,0,1.86-.62,1.86-1.66,0-2.59-4.95-2.15-4.95-5.57a3,3,0,0,1,2.66-3.11v-1.81h1.28v1.8a4.08,4.08,0,0,1,2.58,1.39l-.95,1.07a2.86,2.86,0,0,0-2.13-1,1.48,1.48,0,0,0-1.66,1.55c0,2.34,5,1.79,5,5.52a3.12,3.12,0,0,1-2.79,3.23v1.83H328Z"/><path class="cls-9" d="M339.44,573.59H333.9V572h7.59v1.12c-2.7,3.38-3.2,5.87-3.39,10.34h-1.89A16.6,16.6,0,0,1,339.44,573.59Z"/><path class="cls-9" d="M343,577.72c0-3.86,1.47-5.9,3.81-5.9s3.81,2.06,3.81,5.9-1.45,6-3.81,6S343,581.58,343,577.72Zm5.86,0c0-3.3-.85-4.45-2.05-4.45s-2.05,1.15-2.05,4.45.85,4.53,2.05,4.53S348.85,581,348.85,577.72Z"/><path class="cls-3" d="M21.81,581.07v-5.32H20.48v-.7l1.36-.08L22,572.5h.79V575h2.45v.78H22.74v5.38c0,1.07.29,1.78,1.42,1.78a2.58,2.58,0,0,0,1-.26l.23.74a5,5,0,0,1-1.43.32C22.32,583.71,21.81,582.65,21.81,581.07Z"/><path class="cls-3" d="M26.32,579.24c0-2.85,1.79-4.5,3.86-4.5s3.86,1.65,3.86,4.5-1.8,4.47-3.86,4.47S26.32,582.08,26.32,579.24Zm6.76,0c0-2.17-1.24-3.68-2.9-3.68s-2.88,1.51-2.88,3.68,1.21,3.67,2.88,3.67S33.08,581.42,33.08,579.24Z"/><path class="cls-3" d="M36.5,581.07v-5.32H35.17v-.7l1.36-.08.11-2.47h.78V575h2.45v.78H37.42v5.38c0,1.07.29,1.78,1.43,1.78a2.58,2.58,0,0,0,1-.26l.22.74a5,5,0,0,1-1.42.32C37,583.71,36.5,582.65,36.5,581.07Z"/><path class="cls-3" d="M40.94,581.36c0-1.89,1.69-2.79,5.45-3.22,0-1.27-.34-2.58-2-2.58a4.63,4.63,0,0,0-2.69,1l-.41-.67a5.88,5.88,0,0,1,3.23-1.13c2,0,2.75,1.46,2.75,3.35v5.41h-.78l-.1-1.09h0a4.88,4.88,0,0,1-3,1.3A2.25,2.25,0,0,1,40.94,581.36Zm5.45.24v-2.77c-3.37.38-4.52,1.16-4.52,2.48a1.53,1.53,0,0,0,1.75,1.61A4.2,4.2,0,0,0,46.39,581.6Z"/><path class="cls-3" d="M50.29,582.24V570.77h.93v11.56c0,.4.16.58.38.58a1.56,1.56,0,0,0,.31,0l.14.73a1.82,1.82,0,0,1-.63.1C50.66,583.71,50.29,583.23,50.29,582.24Z"/><path class="cls-3" d="M54.14,576.15A.82.82,0,1,1,55,577,.83.83,0,0,1,54.14,576.15Zm0,6.69a.82.82,0,1,1,.82.87A.83.83,0,0,1,54.14,582.84Z"/><rect class="cls-9" x="57.5" y="618" width="260" height="38" rx="19"/><path class="cls-2" d="M173.46,633.1h1.69l.17,1.08h.05a5,5,0,0,1,3.06-1.34c2.5,0,3.91,2,3.91,5,0,3.4-2,5.34-4.27,5.34a4.09,4.09,0,0,1-2.61-1.11l.07,1.69V647h-2.07Zm6.74,4.82c0-2.07-.67-3.35-2.33-3.35a3.43,3.43,0,0,0-2.34,1.21v4.84a3.3,3.3,0,0,0,2.14.9C179.11,641.52,180.2,640.25,180.2,637.92Z"/><path class="cls-2" d="M184,640.37c0-2.12,1.8-3.22,5.92-3.67,0-1.15-.43-2.16-1.89-2.16a5.4,5.4,0,0,0-2.86,1l-.78-1.41a7.58,7.58,0,0,1,4-1.3c2.47,0,3.6,1.57,3.6,4.2v6h-1.69l-.17-1.13H190a4.93,4.93,0,0,1-3.15,1.36A2.73,2.73,0,0,1,184,640.37Zm5.92.07V638c-2.94.34-3.93,1.1-3.93,2.22s.67,1.37,1.55,1.37A3.49,3.49,0,0,0,189.88,640.44Z"/><path class="cls-2" d="M194.09,646.94l.39-1.62a2.55,2.55,0,0,0,.73.15c1.08,0,1.71-.8,2.07-1.86l.19-.68-3.92-9.83h2.12l1.84,5.09c.29.89.59,1.88.9,2.79h.09l.77-2.79,1.59-5.09h2l-3.64,10.49c-.78,2.13-1.82,3.55-3.91,3.55A3.43,3.43,0,0,1,194.09,646.94Z"/></svg>