<?xml version="1.0" encoding="utf-8"?>
<!-- Generator: Adobe Illustrator 16.0.0, SVG Export Plug-In . SVG Version: 6.00 Build 0)  -->
<!DOCTYPE svg PUBLIC "-//W3C//DTD SVG 1.1//EN" "http://www.w3.org/Graphics/SVG/1.1/DTD/svg11.dtd">
<svg version="1.1" id="Layer_1" xmlns="http://www.w3.org/2000/svg" xmlns:xlink="http://www.w3.org/1999/xlink" x="0px" y="0px"
	 width="32px" height="32px" viewBox="0 0 32 32" enable-background="new 0 0 32 32" xml:space="preserve">
<g>
	<path d="M11.581,9.057c0-0.058-0.029-0.116-0.087-0.116c-0.029,0-0.086,0.029-0.117,0.059l-6.183,5.978
		c-0.292,0.263-0.496,0.584-0.496,1.021c0,0.437,0.175,0.758,0.496,1.021l6.183,5.978c0.058,0.03,0.087,0.059,0.117,0.059
		c0.059,0,0.087-0.059,0.087-0.116c0-0.029-0.029-0.088-0.059-0.116c-1.458-1.81-2.508-3.879-2.508-6.797
		c0-2.945,1.05-5.045,2.508-6.853C11.552,9.145,11.581,9.086,11.581,9.057z"/>
	<path d="M26.806,14.949L20.622,8.97c-0.028-0.029-0.087-0.058-0.116-0.058c-0.059,0-0.088,0.058-0.088,0.117
		c0,0.029,0,0.058,0.029,0.088c0.554,0.787,1.051,1.779,1.051,2.974c0,1.254-0.73,2.217-1.954,2.217
		c-0.903,0-1.865-0.846-1.865-1.954c0-0.583,0.261-1.254,0.962-1.925c0.116-0.116,0.175-0.262,0.175-0.438
		c0-0.641-1.254-1.487-2.684-1.487c-2.421,0-3.354,3.442-3.354,7.525c0,4.083,0.934,7.467,3.354,7.467
		c1.459,0,2.684-0.846,2.684-1.546c0-0.146-0.059-0.292-0.175-0.438c-0.7-0.67-0.962-1.341-0.962-1.924
		c0-1.109,0.962-1.955,1.865-1.955c1.227,0,1.954,0.963,1.954,2.217c0,1.197-0.497,2.188-1.051,2.975
		c-0.029,0.029-0.029,0.059-0.029,0.088c0,0.058,0.029,0.116,0.088,0.116c0.029,0,0.058-0.029,0.116-0.059l6.184-5.977
		c0.321-0.263,0.496-0.584,0.496-1.022C27.302,15.532,27.098,15.211,26.806,14.949z"/>
</g>
<path fill="none" stroke="#000000" stroke-width="1.9355" stroke-miterlimit="10" d="M31,23.453c0,2.03-1.646,3.676-3.676,3.676
	H4.675C2.646,27.129,1,25.483,1,23.453V8.546c0-2.03,1.646-3.675,3.675-3.675h22.649c2.03,0,3.676,1.645,3.676,3.675V23.453z"/>
</svg>
