<?xml version="1.0" standalone="no"?><!DOCTYPE svg PUBLIC "-//W3C//DTD SVG 1.1//EN" "http://www.w3.org/Graphics/SVG/1.1/DTD/svg11.dtd"><svg t="1542597796190" class="icon" style="" viewBox="0 0 1024 1024" version="1.1" xmlns="http://www.w3.org/2000/svg" p-id="21776" xmlns:xlink="http://www.w3.org/1999/xlink" width="128" height="128"><defs><style type="text/css"></style></defs><path d="M213.606 788.89l19.354 160.358s125.952-56.678 159.283-77.875a524.8 524.8 0 0 0 120.627 13.926c256.717 0 460.8-171.725 460.8-407.091C973.67 242.79 769.587 51.2 512.87 51.2c-256.716 0-460.8 191.59-460.8 427.008 0 127.078 63.232 237.158 161.536 310.682z m-48.281 27.238C61.49 730.982 0.87 610.508 0.87 478.208 0.87 212.788 229.632 0 512.87 0c283.29 0 512 212.787 512 478.208 0 262.349-225.024 458.291-512 458.291-37.99 0-75.622-3.686-112.179-10.905-13.721 7.424-31.59 16.384-53.401 26.88l-8.602 4.096a4201.267 4201.267 0 0 1-84.736 39.372 51.2 51.2 0 0 1-71.834-40.55l-16.793-139.264z" fill="#EA3E3E" p-id="21777"></path><path d="M342.118 524.8c0 84.992 73.78 154.163 166.759 154.163 92.928 0 166.707-69.222 166.707-154.163a25.6 25.6 0 0 1 51.2 0c0 113.971-97.382 205.363-217.907 205.363-120.576 0-217.959-91.392-217.959-205.363a25.6 25.6 0 1 1 51.2 0z" fill="#EA3E3E" p-id="21778"></path></svg>