<?xml version="1.0" standalone="no"?><!DOCTYPE svg PUBLIC "-//W3C//DTD SVG 1.1//EN" "http://www.w3.org/Graphics/SVG/1.1/DTD/svg11.dtd"><svg t="1542597348946" class="icon" style="" viewBox="0 0 1024 1024" version="1.1" xmlns="http://www.w3.org/2000/svg" p-id="3946" xmlns:xlink="http://www.w3.org/1999/xlink" width="128" height="128"><defs><style type="text/css"></style></defs><path d="M390.4 384h371.2a102.4 102.4 0 0 1 102.4 102.4v403.2a102.4 102.4 0 0 1-102.4 102.4H390.4A102.4 102.4 0 0 1 288 889.6V486.4a102.4 102.4 0 0 1 102.4-102.4z m0 0h371.2a102.4 102.4 0 0 1 102.4 102.4v403.2a102.4 102.4 0 0 1-102.4 102.4H390.4A102.4 102.4 0 0 1 288 889.6V486.4a102.4 102.4 0 0 1 102.4-102.4z m0 0h371.2a102.4 102.4 0 0 1 102.4 102.4v403.2a102.4 102.4 0 0 1-102.4 102.4H390.4A102.4 102.4 0 0 1 288 889.6V486.4a102.4 102.4 0 0 1 102.4-102.4z" fill="#CAE705" p-id="3947"></path><path d="M632.224 714.592a32 32 0 0 1 47.552 42.816C637.344 804.544 576.864 832 512 832s-125.344-27.456-167.776-74.592a31.968 31.968 0 1 1 47.552-42.816C422.208 748.352 465.472 768 512 768s89.792-19.648 120.224-53.408z" fill="#2B82D8" p-id="3948"></path><path d="M288 288a64 64 0 0 0-64 64v512a64 64 0 0 0 64 64h448a64 64 0 0 0 64-64V352a64 64 0 0 0-64-64H288z m0-64h448a128 128 0 0 1 128 128v512a128 128 0 0 1-128 128H288a128 128 0 0 1-128-128V352a128 128 0 0 1 128-128z m0 64a64 64 0 0 0-64 64v512a64 64 0 0 0 64 64h448a64 64 0 0 0 64-64V352a64 64 0 0 0-64-64H288z m0-64h448a128 128 0 0 1 128 128v512a128 128 0 0 1-128 128H288a128 128 0 0 1-128-128V352a128 128 0 0 1 128-128z m0 64a64 64 0 0 0-64 64v512a64 64 0 0 0 64 64h448a64 64 0 0 0 64-64V352a64 64 0 0 0-64-64H288z m0-64h448a128 128 0 0 1 128 128v512a128 128 0 0 1-128 128H288a128 128 0 0 1-128-128V352a128 128 0 0 1 128-128z" fill="#2B82D8" p-id="3949"></path><path d="M608 224V192a96 96 0 1 0-192 0v32h192z m-96-192a160 160 0 0 1 160 160v96H352V192a160 160 0 0 1 160-160z" fill="#2B82D8" p-id="3950"></path></svg>