<svg id="圖層_1" data-name="圖層 1" xmlns="http://www.w3.org/2000/svg" viewBox="0 0 375 667"><defs><style>.cls-1{fill:#f0efed;}.cls-2{fill:#fff;}.cls-3{fill:#555;}.cls-4{fill:#ffba1b;}.cls-5{fill:#282d46;}.cls-6{fill:#1e5bc1;}.cls-7{fill:none;stroke:#ededed;stroke-miterlimit:10;}.cls-8{fill:#aeaeae;}.cls-9{fill:#f80202;}</style></defs><title>sg_checkout 複本</title><rect class="cls-1" width="375" height="667"/><rect class="cls-2" width="375" height="54"/><rect class="cls-2" width="54" height="54"/><path class="cls-3" d="M23.2,27,33.25,17a1.15,1.15,0,0,0-1.62-1.62L20.87,26.09l-.12.08a1.21,1.21,0,0,0,0,1.66l.12.08L31.63,38.66A1.15,1.15,0,0,0,33.25,37Z"/><path class="cls-3" d="M119.05,33.07l1.12-1.26a5.68,5.68,0,0,0,4,1.82c1.92,0,3.08-1,3.08-2.4s-1.06-2-2.44-2.6l-2.12-.92c-1.36-.58-3-1.62-3-3.76s2-3.9,4.62-3.9a6,6,0,0,1,4.32,1.82l-1,1.18a4.75,4.75,0,0,0-3.34-1.38c-1.66,0-2.74.84-2.74,2.16s1.28,2,2.42,2.44l2.1.9c1.7.74,3,1.74,3,3.92s-1.92,4.16-5,4.16A7,7,0,0,1,119.05,33.07Z"/><path class="cls-3" d="M135.25,31.19c0-2,1.38-3.2,2.88-4.24a7.79,7.79,0,0,1-1-3.42,3.31,3.31,0,0,1,3.38-3.48,2.7,2.7,0,0,1,2.88,2.9c0,1.92-1.66,3.16-3.3,4.34a17.87,17.87,0,0,0,3.72,4.14,12.51,12.51,0,0,0,2.08-4.34h1.69a15.63,15.63,0,0,1-2.57,5.24,9,9,0,0,0,2.74,1.4l-.48,1.52A10.76,10.76,0,0,1,144,33.57a6.11,6.11,0,0,1-4.24,1.68C137.05,35.25,135.25,33.55,135.25,31.19Zm4.68,2.6a4.37,4.37,0,0,0,2.8-1.18,22.3,22.3,0,0,1-3.86-4.38c-1,.84-1.84,1.72-1.84,2.86A2.7,2.7,0,0,0,139.93,33.79Zm-.48-7.7c1.34-.9,2.5-1.8,2.5-3.1,0-.86-.4-1.64-1.38-1.64a1.91,1.91,0,0,0-1.82,2.14A6.11,6.11,0,0,0,139.45,26.09Z"/><path class="cls-3" d="M153.77,27.67c0-4.74,2.84-7.62,6.72-7.62a5.58,5.58,0,0,1,4.22,1.82l-1,1.2a4.11,4.11,0,0,0-3.18-1.4c-2.94,0-4.86,2.28-4.86,5.94s1.74,6,4.9,6a4,4,0,0,0,2.64-.86V28.93h-3.1V27.39h4.8v6.16a6.3,6.3,0,0,1-4.54,1.7C156.53,35.25,153.77,32.43,153.77,27.67Z"/><path class="cls-3" d="M171.89,29.57c0-3.62,2.46-5.72,5.24-5.72a4.64,4.64,0,0,1,3.18,1.28l-.94,1.2a3.21,3.21,0,0,0-2.16-1c-2,0-3.42,1.7-3.42,4.2s1.36,4.16,3.36,4.16a3.83,3.83,0,0,0,2.56-1.08l.8,1.22A5.27,5.27,0,0,1,177,35.25C174.11,35.25,171.89,33.17,171.89,29.57Z"/><path class="cls-3" d="M182.89,19.07h1.82v4.36l-.06,2.24a5.1,5.1,0,0,1,3.6-1.82c2.28,0,3.32,1.48,3.32,4.26V35h-1.82V28.35c0-2-.62-2.9-2.06-2.9-1.12,0-1.88.56-3,1.66V35h-1.82Z"/><path class="cls-3" d="M194.21,29.57c0-3.52,2.38-5.72,4.9-5.72,2.76,0,4.32,2,4.32,5.1a7.11,7.11,0,0,1-.08,1H196c.12,2.32,1.54,3.8,3.6,3.8a4.68,4.68,0,0,0,2.72-.86l.66,1.2a6.46,6.46,0,0,1-3.6,1.12C196.53,35.25,194.21,33.15,194.21,29.57Zm7.62-.9c0-2.18-1-3.36-2.7-3.36-1.54,0-2.9,1.24-3.12,3.36Z"/><path class="cls-3" d="M205.29,29.57c0-3.62,2.46-5.72,5.24-5.72a4.64,4.64,0,0,1,3.18,1.28l-.94,1.2a3.21,3.21,0,0,0-2.16-1c-2,0-3.42,1.7-3.42,4.2s1.36,4.16,3.36,4.16a3.83,3.83,0,0,0,2.56-1.08l.8,1.22a5.27,5.27,0,0,1-3.52,1.38C207.51,35.25,205.29,33.17,205.29,29.57Z"/><path class="cls-3" d="M216.29,19.07h1.8v10.8h.06l4.64-5.74h2l-3.64,4.36,4.12,6.5h-2l-3.18-5.24-2,2.38V35h-1.8Z"/><path class="cls-3" d="M226.11,29.57c0-3.62,2.38-5.72,5-5.72s5,2.1,5,5.72-2.38,5.68-5,5.68S226.11,33.17,226.11,29.57Zm8.2,0c0-2.5-1.28-4.2-3.16-4.2s-3.14,1.7-3.14,4.2,1.26,4.16,3.14,4.16S234.31,32.07,234.31,29.57Z"/><path class="cls-3" d="M238.91,31V24.13h1.82v6.66c0,2,.6,2.88,2,2.88,1.12,0,1.9-.54,2.94-1.84v-7.7h1.82V35H246l-.14-1.7h-.06a4.66,4.66,0,0,1-3.6,2C239.93,35.25,238.91,33.77,238.91,31Z"/><path class="cls-3" d="M251.51,31.63v-6h-1.62V24.23l1.7-.1.22-3.06h1.52v3.06h2.94v1.48h-2.94v6.06c0,1.34.42,2.1,1.68,2.1a3.85,3.85,0,0,0,1.24-.28l.36,1.36a6.84,6.84,0,0,1-2,.4C252.29,35.25,251.51,33.79,251.51,31.63Z"/><rect class="cls-2" x="10" y="65.15" width="355" height="78.85" rx="3"/><path d="M77.23,118.27c0-2.85,1.84-4.5,4-4.5a3.6,3.6,0,0,1,2.5,1l-.53.64a2.78,2.78,0,0,0-2-.86c-1.7,0-3,1.5-3,3.68s1.18,3.66,3,3.66a3.44,3.44,0,0,0,2.23-.94l.46.64a4.19,4.19,0,0,1-2.74,1.1C78.91,122.73,77.23,121.1,77.23,118.27Z"/><path d="M85.92,114h.77l.11,1.59h0a2.94,2.94,0,0,1,2.42-1.81,1.75,1.75,0,0,1,.86.19l-.19.83a1.85,1.85,0,0,0-.79-.14c-.75,0-1.66.56-2.28,2.14v5.74h-.93Z"/><path d="M90.78,118.27c0-2.77,1.83-4.5,3.75-4.5s3.29,1.47,3.29,4a4.73,4.73,0,0,1,0,.67h-6c0,2.08,1.28,3.54,3.12,3.54a3.81,3.81,0,0,0,2.27-.74l.35.69a4.8,4.8,0,0,1-2.72.83C92.56,122.73,90.78,121.07,90.78,118.27Zm6.2-.59c0-2.07-1-3.11-2.44-3.11s-2.64,1.15-2.81,3.11Z"/><path d="M99.39,118.27c0-2.76,1.76-4.5,3.78-4.5a3.8,3.8,0,0,1,2.54,1l-.06-1.54V109.8h.93v12.73h-.77l-.1-1.08h0a3.92,3.92,0,0,1-2.73,1.28C100.78,122.73,99.39,121.13,99.39,118.27Zm6.26,2.3v-4.93a3.41,3.41,0,0,0-2.39-1c-1.63,0-2.88,1.58-2.88,3.68s1,3.65,2.71,3.65A3.59,3.59,0,0,0,105.65,120.57Z"/><path d="M109.5,111.21a.75.75,0,0,1,1.49,0,.75.75,0,1,1-1.49,0Zm.27,2.78h.93v8.54h-.93Z"/><path d="M114.09,120.09v-5.31h-1.32v-.71l1.36-.08.11-2.46H115V114h2.45v.79H115v5.38c0,1.07.29,1.77,1.43,1.77a2.78,2.78,0,0,0,1-.25l.22.73a4.73,4.73,0,0,1-1.42.32C114.61,122.73,114.09,121.68,114.09,120.09Z"/><path d="M122.37,118.27c0-2.85,1.84-4.5,3.95-4.5a3.62,3.62,0,0,1,2.5,1l-.53.64a2.8,2.8,0,0,0-2-.86c-1.69,0-3,1.5-3,3.68s1.19,3.66,3,3.66a3.39,3.39,0,0,0,2.22-.94l.47.64a4.21,4.21,0,0,1-2.74,1.1C124.05,122.73,122.37,121.1,122.37,118.27Z"/><path d="M130.29,120.38c0-1.89,1.68-2.78,5.44-3.22,0-1.26-.34-2.57-2-2.57a4.62,4.62,0,0,0-2.69,1l-.41-.67a5.91,5.91,0,0,1,3.23-1.12c2,0,2.76,1.46,2.76,3.35v5.41h-.79l-.09-1.09h0a4.93,4.93,0,0,1-3,1.29A2.25,2.25,0,0,1,130.29,120.38Zm5.44.24v-2.77c-3.36.38-4.52,1.17-4.52,2.48A1.54,1.54,0,0,0,133,122,4.22,4.22,0,0,0,135.73,120.62Z"/><path d="M139.63,114h.77l.11,1.59h0a3,3,0,0,1,2.42-1.81,1.75,1.75,0,0,1,.86.19l-.19.83a1.84,1.84,0,0,0-.78-.14c-.76,0-1.67.56-2.29,2.14v5.74h-.93Z"/><path d="M144.49,118.27c0-2.76,1.76-4.5,3.78-4.5a3.85,3.85,0,0,1,2.55,1l-.07-1.54V109.8h.93v12.73h-.77l-.09-1.08h0a4,4,0,0,1-2.74,1.28C145.89,122.73,144.49,121.13,144.49,118.27Zm6.26,2.3v-4.93a3.39,3.39,0,0,0-2.38-1c-1.64,0-2.88,1.58-2.88,3.68s1,3.65,2.7,3.65A3.59,3.59,0,0,0,150.75,120.57Z"/><path class="cls-3" d="M21.47,74.05h.79l.1.75h0a3.54,3.54,0,0,1,2.08-.92c1.69,0,2.59,1.31,2.59,3.3,0,2.22-1.33,3.5-2.83,3.5a3.06,3.06,0,0,1-1.82-.75l0,1.13v2.25h-1Zm4.58,3.14c0-1.46-.5-2.48-1.8-2.48a2.82,2.82,0,0,0-1.81.93v3.51a2.66,2.66,0,0,0,1.66.7C25.23,79.85,26.05,78.83,26.05,77.19Z"/><path class="cls-3" d="M28.24,78.86c0-1.42,1.24-2.11,4-2.42,0-.88-.26-1.74-1.38-1.74a3.49,3.49,0,0,0-2,.72l-.39-.69A4.7,4.7,0,0,1,31,73.88c1.57,0,2.19,1.07,2.19,2.63v4h-.8l-.09-.8h0a3.49,3.49,0,0,1-2.19,1A1.74,1.74,0,0,1,28.24,78.86Zm4,.13V77.1c-2.29.26-3.07.81-3.07,1.7s.54,1.09,1.2,1.09A2.78,2.78,0,0,0,32.26,79Z"/><path class="cls-3" d="M34.64,83.22l.2-.79a1.48,1.48,0,0,0,.5.1c.75,0,1.23-.63,1.52-1.47l.14-.5-2.62-6.51h1l1.38,3.7c.21.57.43,1.24.65,1.83h.06c.18-.59.37-1.26.55-1.83l1.21-3.7h1l-2.47,7.08c-.43,1.23-1.1,2.23-2.36,2.23A1.81,1.81,0,0,1,34.64,83.22Z"/><path class="cls-3" d="M41.51,74.05h.79l.1,1h0a2.87,2.87,0,0,1,2-1.13,1.69,1.69,0,0,1,1.79,1.26,3.15,3.15,0,0,1,2.16-1.26c1.32,0,2,.88,2,2.53v4.12h-1v-4c0-1.25-.4-1.8-1.26-1.8a2.45,2.45,0,0,0-1.7,1.06v4.74h-1v-4c0-1.25-.4-1.8-1.28-1.8a2.49,2.49,0,0,0-1.69,1.06v4.74h-1Z"/><path class="cls-3" d="M52,77.29a3.12,3.12,0,0,1,2.89-3.41c1.62,0,2.55,1.16,2.55,3a2.54,2.54,0,0,1,0,.59H53a2.24,2.24,0,0,0,2.22,2.4,2.82,2.82,0,0,0,1.64-.53l.36.65a3.76,3.76,0,0,1-2.12.66A3.08,3.08,0,0,1,52,77.29Zm4.58-.51c0-1.38-.63-2.11-1.68-2.11A2.08,2.08,0,0,0,53,76.78Z"/><path class="cls-3" d="M59.13,74.05h.79l.1,1h0a3.11,3.11,0,0,1,2.18-1.12c1.36,0,2,.88,2,2.53v4.12h-1v-4c0-1.25-.38-1.8-1.28-1.8a2.54,2.54,0,0,0-1.85,1.06v4.74h-1Z"/><path class="cls-3" d="M66.57,78.57V74.85h-1v-.74l1-.06.12-1.84h.82v1.84h1.79v.8H67.54v3.76c0,.79.24,1.27,1,1.27a2.12,2.12,0,0,0,.75-.18l.2.74a4,4,0,0,1-1.15.24C67,80.68,66.57,79.83,66.57,78.57Z"/><path class="cls-4" d="M42.18,122.56h-16a.68.68,0,1,0,0,1.36h16a.68.68,0,0,0,.69-.68A.7.7,0,0,0,42.18,122.56Zm-4.57,2.29H26.16a.69.69,0,0,0,0,1.37H37.61a.69.69,0,0,0,0-1.37Z"/><path class="cls-5" d="M58.37,106.52H26a3,3,0,0,0-2.81,2.92v18.33a3,3,0,0,0,2.95,3H58.21a3,3,0,0,0,3-2.94V109.5A3,3,0,0,0,58.37,106.52Zm-7.75,5.94h1.91L49.79,118H47.88Zm-1.53,0L46.35,118H24.55v-5.49ZM59.82,118H51.31l2.75-5.49h5.77V118ZM26,107.88H58.32a1.6,1.6,0,0,1,1.5,1.61v1.6H24.55v-1.64A1.57,1.57,0,0,1,26,107.88Zm33.78,20a1.6,1.6,0,0,1-1.61,1.58H26.14a1.6,1.6,0,0,1-1.59-1.63v-8.45H59.82Z"/><path class="cls-6" d="M321.13,120.8l.37-.5a3,3,0,0,0,2,.81c1,0,1.46-.56,1.46-1.22s-.8-1.1-1.54-1.36c-.95-.34-2-.74-2-1.84,0-.93.74-1.73,2.1-1.73a3,3,0,0,1,1.86.69l-.37.48a2.38,2.38,0,0,0-1.5-.58c-1,0-1.39.53-1.39,1.11s.69,1,1.44,1.24c1,.38,2.06.72,2.06,2,0,1-.78,1.82-2.2,1.82A3.73,3.73,0,0,1,321.13,120.8Z"/><path class="cls-6" d="M326.81,118.33c0-2.07,1.37-3.37,2.81-3.37s2.47,1.11,2.47,3a3.75,3.75,0,0,1,0,.5h-4.53a2.41,2.41,0,0,0,2.33,2.65,2.84,2.84,0,0,0,1.71-.55l.26.52a3.58,3.58,0,0,1-2,.62A3,3,0,0,1,326.81,118.33Zm4.64-.44c0-1.55-.71-2.33-1.82-2.33a2.28,2.28,0,0,0-2.11,2.33Z"/><path class="cls-6" d="M333.79,120.58V112h.7v8.66c0,.3.12.43.29.43l.22,0,.11.55a1.61,1.61,0,0,1-.47.07C334.07,121.68,333.79,121.32,333.79,120.58Z"/><path class="cls-6" d="M336.47,118.33c0-2.07,1.37-3.37,2.81-3.37s2.47,1.11,2.47,3a3.75,3.75,0,0,1,0,.5h-4.53a2.41,2.41,0,0,0,2.33,2.65,2.84,2.84,0,0,0,1.71-.55l.26.52a3.58,3.58,0,0,1-2,.62A3,3,0,0,1,336.47,118.33Zm4.64-.44c0-1.55-.71-2.33-1.82-2.33a2.28,2.28,0,0,0-2.11,2.33Z"/><path class="cls-6" d="M342.92,118.33a3.06,3.06,0,0,1,3-3.37,2.74,2.74,0,0,1,1.87.78l-.4.48a2.08,2.08,0,0,0-1.46-.64c-1.27,0-2.24,1.12-2.24,2.75s.88,2.75,2.23,2.75a2.5,2.5,0,0,0,1.66-.71l.35.48a3.15,3.15,0,0,1-2,.83C344.18,121.68,342.92,120.46,342.92,118.33Z"/><path class="cls-6" d="M349.46,119.7v-4h-1v-.53l1-.06.08-1.84h.59v1.84H352v.59h-1.83v4c0,.8.22,1.33,1.07,1.33a2,2,0,0,0,.78-.19l.16.55a3.68,3.68,0,0,1-1.06.24C349.85,121.68,349.46,120.89,349.46,119.7Z"/><line class="cls-7" x1="20" y1="88.5" x2="355" y2="88.5"/><rect class="cls-2" y="475" width="375" height="192"/><rect class="cls-2" x="10" y="155.63" width="355" height="71.37" rx="3"/><path d="M21.23,191.74c0-2.85,1.84-4.5,3.95-4.5a3.6,3.6,0,0,1,2.5,1l-.53.63a2.82,2.82,0,0,0-1.95-.86c-1.7,0-3,1.51-3,3.68s1.18,3.67,3,3.67a3.4,3.4,0,0,0,2.23-.95l.46.64a4.2,4.2,0,0,1-2.74,1.11C22.91,196.21,21.23,194.58,21.23,191.74Z"/><path d="M28.88,191.74c0-2.85,1.79-4.5,3.85-4.5s3.86,1.65,3.86,4.5-1.79,4.47-3.86,4.47S28.88,194.58,28.88,191.74Zm6.75,0c0-2.17-1.23-3.68-2.9-3.68s-2.88,1.51-2.88,3.68,1.22,3.67,2.88,3.67S35.63,193.92,35.63,191.74Z"/><path d="M39,192.93v-5.46h.93v5.34c0,1.75.54,2.57,1.85,2.57,1,0,1.7-.52,2.66-1.67v-6.24h.93V196h-.79l-.08-1.41h0a3.81,3.81,0,0,1-2.89,1.62C39.76,196.21,39,195.12,39,192.93Z"/><path d="M48.53,187.47h.76l.12,1h0a5,5,0,0,1,2.85-1.27c2.27,0,3.42,1.73,3.42,4.36,0,2.91-1.76,4.61-3.76,4.61a4.21,4.21,0,0,1-2.51-1v4.64h-.92Zm6.19,4.13c0-2-.7-3.54-2.61-3.54a4.29,4.29,0,0,0-2.66,1.36v4.93a3.94,3.94,0,0,0,2.42,1C53.54,195.39,54.72,193.89,54.72,191.6Z"/><path d="M57.5,191.74c0-2.85,1.79-4.5,3.86-4.5s3.86,1.65,3.86,4.5-1.8,4.47-3.86,4.47S57.5,194.58,57.5,191.74Zm6.76,0c0-2.17-1.24-3.68-2.9-3.68s-2.88,1.51-2.88,3.68,1.21,3.67,2.88,3.67S64.26,193.92,64.26,191.74Z"/><path d="M67.71,187.47h.77l.11,1.29h0a4.25,4.25,0,0,1,2.91-1.52c1.78,0,2.6,1.11,2.6,3.3V196H73.2v-5.33c0-1.78-.56-2.59-1.87-2.59-1,0-1.7.51-2.69,1.53V196h-.93Z"/><path class="cls-3" d="M349.89,191.31,342.26,199a.85.85,0,0,0,0,1.23.87.87,0,0,0,1.23,0l8.17-8.18s.07,0,.09-.06a.81.81,0,0,0,.25-.63.84.84,0,0,0-.25-.63s-.06,0-.09-.06l-8.17-8.17a.87.87,0,0,0-1.23,0,.85.85,0,0,0,0,1.23Z"/><path class="cls-8" d="M113.86,195l.49-.67a4,4,0,0,0,2.69,1.07c1.3,0,1.95-.74,1.95-1.62s-1.07-1.47-2.06-1.82c-1.26-.45-2.61-1-2.61-2.45,0-1.25,1-2.31,2.8-2.31a4,4,0,0,1,2.48.92l-.49.64a3.21,3.21,0,0,0-2-.77c-1.28,0-1.86.7-1.86,1.47,0,.95.93,1.3,1.92,1.67,1.31.49,2.75,1,2.75,2.61,0,1.31-1,2.43-2.93,2.43A5,5,0,0,1,113.86,195Z"/><path class="cls-8" d="M121.42,191.74c0-2.77,1.83-4.5,3.75-4.5s3.3,1.48,3.3,4a4.83,4.83,0,0,1-.05.68h-6c0,2.08,1.28,3.53,3.12,3.53a3.8,3.8,0,0,0,2.27-.73l.35.69a4.75,4.75,0,0,1-2.72.83C123.2,196.21,121.42,194.54,121.42,191.74Zm6.2-.59c0-2.07-1-3.11-2.43-3.11s-2.65,1.16-2.82,3.11Z"/><path class="cls-8" d="M130.74,194.74V183.27h.93v11.56c0,.4.16.58.38.58a1.48,1.48,0,0,0,.3,0l.15.73a1.82,1.82,0,0,1-.63.1C131.1,196.21,130.74,195.73,130.74,194.74Z"/><path class="cls-8" d="M134.3,191.74c0-2.77,1.83-4.5,3.75-4.5s3.3,1.48,3.3,4a4.83,4.83,0,0,1,0,.68h-6.05c.05,2.08,1.28,3.53,3.12,3.53a3.8,3.8,0,0,0,2.27-.73l.36.69a4.81,4.81,0,0,1-2.73.83C136.08,196.21,134.3,194.54,134.3,191.74Zm6.2-.59c0-2.07-.95-3.11-2.43-3.11s-2.65,1.16-2.82,3.11Z"/><path class="cls-8" d="M142.91,191.74c0-2.85,1.84-4.5,4-4.5a3.6,3.6,0,0,1,2.49,1l-.53.63a2.8,2.8,0,0,0-2-.86c-1.7,0-3,1.51-3,3.68s1.18,3.67,3,3.67a3.37,3.37,0,0,0,2.22-.95l.46.64a4.19,4.19,0,0,1-2.73,1.11C144.59,196.21,142.91,194.58,142.91,191.74Z"/><path class="cls-8" d="M151.63,193.57v-5.32H150.3v-.7l1.37-.08.11-2.47h.78v2.47H155v.78h-2.45v5.38c0,1.07.29,1.78,1.43,1.78a2.62,2.62,0,0,0,1-.26l.22.74a5.06,5.06,0,0,1-1.42.32C152.15,196.21,151.63,195.15,151.63,193.57Z"/><path class="cls-8" d="M159.9,191.74c0-2.85,1.85-4.5,4-4.5a3.6,3.6,0,0,1,2.49,1l-.52.63a2.84,2.84,0,0,0-2-.86c-1.69,0-3,1.51-3,3.68s1.19,3.67,3,3.67a3.35,3.35,0,0,0,2.22-.95l.47.64a4.24,4.24,0,0,1-2.74,1.11C161.58,196.21,159.9,194.58,159.9,191.74Z"/><path class="cls-8" d="M167.55,191.74c0-2.85,1.79-4.5,3.86-4.5s3.86,1.65,3.86,4.5-1.8,4.47-3.86,4.47S167.55,194.58,167.55,191.74Zm6.76,0c0-2.17-1.24-3.68-2.9-3.68s-2.88,1.51-2.88,3.68,1.21,3.67,2.88,3.67S174.31,193.92,174.31,191.74Z"/><path class="cls-8" d="M177.63,192.93v-5.46h.93v5.34c0,1.75.54,2.57,1.86,2.57,1,0,1.69-.52,2.65-1.67v-6.24H184V196h-.78l-.08-1.41h0a3.79,3.79,0,0,1-2.88,1.62C178.43,196.21,177.63,195.12,177.63,192.93Z"/><path class="cls-8" d="M187.2,187.47H188l.11,1h0a5,5,0,0,1,2.85-1.27c2.27,0,3.43,1.73,3.43,4.36,0,2.91-1.76,4.61-3.76,4.61a4.26,4.26,0,0,1-2.52-1l0,1.57v3.07h-.93Zm6.19,4.13c0-2-.7-3.54-2.6-3.54a4.27,4.27,0,0,0-2.66,1.36v4.93a3.89,3.89,0,0,0,2.42,1C192.21,195.39,193.39,193.89,193.39,191.6Z"/><path class="cls-8" d="M196.18,191.74c0-2.85,1.79-4.5,3.85-4.5s3.86,1.65,3.86,4.5-1.79,4.47-3.86,4.47S196.18,194.58,196.18,191.74Zm6.75,0c0-2.17-1.23-3.68-2.9-3.68s-2.88,1.51-2.88,3.68,1.22,3.67,2.88,3.67S202.93,193.92,202.93,191.74Z"/><path class="cls-8" d="M206.38,187.47h.77l.11,1.29h0a4.21,4.21,0,0,1,2.91-1.52c1.78,0,2.59,1.11,2.59,3.3V196h-.93v-5.33c0-1.78-.56-2.59-1.87-2.59-1,0-1.7.51-2.69,1.53V196h-.93Z"/><path class="cls-8" d="M218.72,191.74c0-2.85,1.79-4.5,3.86-4.5s3.85,1.65,3.85,4.5-1.79,4.47-3.85,4.47S218.72,194.58,218.72,191.74Zm6.75,0c0-2.17-1.23-3.68-2.89-3.68s-2.88,1.51-2.88,3.68,1.21,3.67,2.88,3.67S225.47,193.92,225.47,191.74Z"/><path class="cls-8" d="M228.93,187.47h.77l.11,1.58h0a2.94,2.94,0,0,1,2.42-1.81,1.66,1.66,0,0,1,.86.2l-.19.83a1.85,1.85,0,0,0-.79-.14c-.75,0-1.66.55-2.28,2.14V196h-.93Z"/><path class="cls-8" d="M238.22,187.47H239l.11,1h0a5,5,0,0,1,2.85-1.27c2.28,0,3.43,1.73,3.43,4.36,0,2.91-1.76,4.61-3.76,4.61a4.26,4.26,0,0,1-2.52-1l0,1.57v3.07h-.93Zm6.2,4.13c0-2-.71-3.54-2.61-3.54a4.27,4.27,0,0,0-2.66,1.36v4.93a3.89,3.89,0,0,0,2.42,1C243.23,195.39,244.42,193.89,244.42,191.6Z"/><path class="cls-8" d="M247.9,187.47h.77l.11,1.58h0a3,3,0,0,1,2.42-1.81,1.69,1.69,0,0,1,.87.2l-.2.83a1.78,1.78,0,0,0-.78-.14c-.75,0-1.66.55-2.29,2.14V196h-.93Z"/><path class="cls-8" d="M252.77,191.74c0-2.85,1.79-4.5,3.85-4.5s3.86,1.65,3.86,4.5-1.79,4.47-3.86,4.47S252.77,194.58,252.77,191.74Zm6.75,0c0-2.17-1.23-3.68-2.9-3.68s-2.88,1.51-2.88,3.68,1.22,3.67,2.88,3.67S259.52,193.92,259.52,191.74Z"/><path class="cls-8" d="M263,187.47h.77l.12,1.29h0a4,4,0,0,1,2.69-1.52,2.21,2.21,0,0,1,2.35,1.73,4.27,4.27,0,0,1,2.88-1.73c1.71,0,2.56,1.11,2.56,3.3V196h-.93v-5.33c0-1.78-.59-2.59-1.84-2.59a3.59,3.59,0,0,0-2.46,1.53V196h-.93v-5.33c0-1.78-.58-2.59-1.84-2.59a3.62,3.62,0,0,0-2.47,1.53V196H263Z"/><path class="cls-8" d="M276.73,191.74c0-2.85,1.8-4.5,3.86-4.5s3.86,1.65,3.86,4.5-1.79,4.47-3.86,4.47S276.73,194.58,276.73,191.74Zm6.76,0c0-2.17-1.23-3.68-2.9-3.68s-2.88,1.51-2.88,3.68,1.22,3.67,2.88,3.67S283.49,193.92,283.49,191.74Z"/><path class="cls-8" d="M289.79,191.74c0-2.85,1.84-4.5,3.95-4.5a3.6,3.6,0,0,1,2.5,1l-.53.63a2.82,2.82,0,0,0-1.95-.86c-1.7,0-3,1.51-3,3.68s1.18,3.67,3,3.67a3.4,3.4,0,0,0,2.23-.95l.46.64a4.19,4.19,0,0,1-2.73,1.11C291.47,196.21,289.79,194.58,289.79,191.74Z"/><path class="cls-8" d="M297.44,191.74c0-2.85,1.79-4.5,3.85-4.5s3.86,1.65,3.86,4.5-1.79,4.47-3.86,4.47S297.44,194.58,297.44,191.74Zm6.75,0c0-2.17-1.23-3.68-2.9-3.68s-2.88,1.51-2.88,3.68,1.22,3.67,2.88,3.67S304.19,193.92,304.19,191.74Z"/><path class="cls-8" d="M306.94,191.74c0-2.75,1.76-4.5,3.78-4.5a3.82,3.82,0,0,1,2.54,1l-.06-1.54v-3.48h.93V196h-.77l-.1-1.07h0a4,4,0,0,1-2.74,1.28C308.33,196.21,306.94,194.61,306.94,191.74Zm6.26,2.31v-4.93a3.41,3.41,0,0,0-2.39-1.06c-1.63,0-2.88,1.59-2.88,3.68s1,3.65,2.71,3.65A3.57,3.57,0,0,0,313.2,194.05Z"/><path class="cls-8" d="M316.62,191.74c0-2.77,1.83-4.5,3.75-4.5s3.3,1.48,3.3,4a4.83,4.83,0,0,1-.05.68h-6.05c0,2.08,1.28,3.53,3.12,3.53a3.8,3.8,0,0,0,2.27-.73l.35.69a4.8,4.8,0,0,1-2.72.83C318.4,196.21,316.62,194.54,316.62,191.74Zm6.2-.59c0-2.07-.95-3.11-2.44-3.11s-2.64,1.16-2.81,3.11Z"/><path class="cls-3" d="M20.56,507.54l.5-.67a4,4,0,0,0,2.69,1.07c1.29,0,1.95-.74,1.95-1.62s-1.07-1.47-2.07-1.82c-1.26-.45-2.61-1-2.61-2.45,0-1.25,1-2.31,2.81-2.31a4,4,0,0,1,2.48.92l-.5.64a3.21,3.21,0,0,0-2-.77c-1.28,0-1.86.7-1.86,1.47,0,.95.93,1.3,1.92,1.67,1.32.49,2.76,1,2.76,2.61,0,1.31-1,2.43-2.93,2.43A5,5,0,0,1,20.56,507.54Z"/><path class="cls-3" d="M28.71,505.43V500h.92v5.34c0,1.75.55,2.57,1.86,2.57,1,0,1.7-.52,2.66-1.67V500h.93v8.53h-.79l-.08-1.41h-.05a3.78,3.78,0,0,1-2.88,1.62C29.5,508.71,28.71,507.62,28.71,505.43Z"/><path class="cls-3" d="M39.17,507.64h0l-.12.86h-.75V495.77h.93v3.65l-.05,1.64A4.74,4.74,0,0,1,42,499.74c2.28,0,3.43,1.73,3.43,4.36,0,2.91-1.76,4.61-3.76,4.61A4.25,4.25,0,0,1,39.17,507.64Zm5.3-3.54c0-2.05-.71-3.54-2.61-3.54a4.2,4.2,0,0,0-2.66,1.36v4.93a3.83,3.83,0,0,0,2.42,1C43.28,507.89,44.47,506.39,44.47,504.1Z"/><path class="cls-3" d="M47.89,506.07v-5.32H46.56v-.7l1.36-.08L48,497.5h.79V500h2.45v.78H48.82v5.38c0,1.07.29,1.78,1.42,1.78a2.58,2.58,0,0,0,1-.26l.23.74a5,5,0,0,1-1.43.32C48.4,508.71,47.89,507.65,47.89,506.07Z"/><path class="cls-3" d="M52.4,504.24c0-2.85,1.79-4.5,3.86-4.5s3.86,1.65,3.86,4.5-1.8,4.47-3.86,4.47S52.4,507.08,52.4,504.24Zm6.76,0c0-2.17-1.24-3.68-2.9-3.68s-2.88,1.51-2.88,3.68,1.21,3.67,2.88,3.67S59.16,506.42,59.16,504.24Z"/><path class="cls-3" d="M62.58,506.07v-5.32H61.25v-.7l1.36-.08.11-2.47h.78V500H66v.78H63.5v5.38c0,1.07.29,1.78,1.43,1.78a2.58,2.58,0,0,0,1-.26l.22.74a5,5,0,0,1-1.42.32C63.09,508.71,62.58,507.65,62.58,506.07Z"/><path class="cls-3" d="M67,506.36c0-1.89,1.69-2.79,5.45-3.22,0-1.27-.34-2.58-2-2.58a4.63,4.63,0,0,0-2.69,1l-.41-.67a5.88,5.88,0,0,1,3.23-1.13c2,0,2.75,1.46,2.75,3.35v5.41h-.78l-.1-1.09h0a4.88,4.88,0,0,1-3,1.3A2.25,2.25,0,0,1,67,506.36Zm5.45.24v-2.77C69.1,504.21,68,505,68,506.31a1.53,1.53,0,0,0,1.75,1.61A4.2,4.2,0,0,0,72.47,506.6Z"/><path class="cls-3" d="M76.37,507.24V495.77h.93v11.56c0,.4.16.58.38.58a1.56,1.56,0,0,0,.31,0l.14.73a1.82,1.82,0,0,1-.63.1C76.74,508.71,76.37,508.23,76.37,507.24Z"/><path class="cls-3" d="M80.22,501.15A.82.82,0,1,1,81,502,.83.83,0,0,1,80.22,501.15Zm0,6.69a.82.82,0,1,1,.82.87A.83.83,0,0,1,80.22,507.84Z"/><path class="cls-3" d="M20.9,528.24c0-2.75,1.76-4.5,3.77-4.5a3.82,3.82,0,0,1,2.55,1l-.06-1.54v-3.48h.92V532.5h-.76l-.1-1.07h0a4,4,0,0,1-2.74,1.28C22.29,532.71,20.9,531.11,20.9,528.24Zm6.26,2.31v-4.93a3.43,3.43,0,0,0-2.39-1.06c-1.63,0-2.88,1.59-2.88,3.68s1,3.65,2.7,3.65A3.57,3.57,0,0,0,27.16,530.55Z"/><path class="cls-3" d="M31,521.18a.75.75,0,0,1,1.49,0,.75.75,0,1,1-1.49,0Zm.27,2.79h.93v8.53h-.93Z"/><path class="cls-3" d="M34.35,531.54l.5-.67a4,4,0,0,0,2.69,1.07c1.29,0,2-.74,2-1.62s-1.07-1.47-2.06-1.82c-1.27-.45-2.61-1-2.61-2.45,0-1.25,1-2.31,2.8-2.31a4,4,0,0,1,2.48.92l-.5.64a3.18,3.18,0,0,0-2-.77c-1.28,0-1.85.7-1.85,1.47,0,1,.92,1.3,1.92,1.67,1.31.49,2.75,1,2.75,2.61,0,1.31-1,2.43-2.93,2.43A5.06,5.06,0,0,1,34.35,531.54Z"/><path class="cls-3" d="M41.92,528.24c0-2.85,1.84-4.5,3.95-4.5a3.6,3.6,0,0,1,2.5,1l-.53.63a2.82,2.82,0,0,0-2-.86c-1.7,0-3,1.51-3,3.68s1.18,3.67,3,3.67A3.4,3.4,0,0,0,48.1,531l.46.64a4.19,4.19,0,0,1-2.73,1.11C43.6,532.71,41.92,531.08,41.92,528.24Z"/><path class="cls-3" d="M49.57,528.24c0-2.85,1.79-4.5,3.86-4.5s3.85,1.65,3.85,4.5-1.79,4.47-3.85,4.47S49.57,531.08,49.57,528.24Zm6.75,0c0-2.17-1.23-3.68-2.89-3.68s-2.89,1.51-2.89,3.68,1.22,3.67,2.89,3.67S56.32,530.42,56.32,528.24Z"/><path class="cls-3" d="M59.65,529.43V524h.93v5.34c0,1.75.54,2.57,1.85,2.57,1,0,1.7-.52,2.66-1.67V524H66v8.53h-.79l-.08-1.41h0a3.81,3.81,0,0,1-2.88,1.62C60.45,532.71,59.65,531.62,59.65,529.43Z"/><path class="cls-3" d="M69.22,524H70l.12,1.29h0A4.21,4.21,0,0,1,73,523.74c1.78,0,2.59,1.11,2.59,3.3v5.46h-.92v-5.33c0-1.78-.56-2.59-1.88-2.59-1,0-1.69.51-2.69,1.53v6.39h-.92Z"/><path class="cls-3" d="M78.91,530.07v-5.32H77.58v-.7l1.36-.08.12-2.47h.78V524h2.45v.78H79.84v5.38c0,1.07.29,1.78,1.43,1.78a2.66,2.66,0,0,0,1-.26l.22.74a5.06,5.06,0,0,1-1.42.32C79.42,532.71,78.91,531.65,78.91,530.07Z"/><path class="cls-3" d="M84.24,525.15a.82.82,0,1,1,.82.87A.83.83,0,0,1,84.24,525.15Zm0,6.69a.82.82,0,1,1,.82.87A.83.83,0,0,1,84.24,531.84Z"/><path class="cls-9" d="M330.32,508.69a5.08,5.08,0,0,1-3-1.36l.49-.66a4.18,4.18,0,0,0,2.81,1.24,2,2,0,0,0,2.24-2.1c0-3.36-5.09-2.46-5.09-6a2.75,2.75,0,0,1,2.53-2.8v-1.77h.77V497a3.42,3.42,0,0,1,2.43,1.28l-.52.57a2.83,2.83,0,0,0-2.26-1.05,1.89,1.89,0,0,0-2,2c0,3,5.07,2,5.07,6a2.84,2.84,0,0,1-2.72,2.94v1.76h-.77Z"/><path class="cls-9" d="M341.55,498h-5.9v-.83h7v.57c-2.7,3.54-3.34,6.34-3.52,10.76h-1C338.35,504,339.28,501.17,341.55,498Z"/><path class="cls-9" d="M344.29,502.8c0-3.78,1.25-5.84,3.44-5.84s3.42,2.08,3.42,5.84-1.24,5.91-3.42,5.91S344.29,506.56,344.29,502.8Zm5.94,0c0-3.42-1-5-2.5-5s-2.51,1.62-2.51,5,1,5.12,2.51,5.12S350.23,506.23,350.23,502.8Z"/><path class="cls-6" d="M330.27,527.68h3.94v.79h-3.94Z"/><path class="cls-6" d="M338.88,532.69a5,5,0,0,1-3-1.36l.48-.66a4.18,4.18,0,0,0,2.81,1.24,2,2,0,0,0,2.24-2.1c0-3.36-5.09-2.46-5.09-6a2.75,2.75,0,0,1,2.53-2.8v-1.77h.77V521a3.42,3.42,0,0,1,2.43,1.28l-.52.57a2.81,2.81,0,0,0-2.26-1.05,1.89,1.89,0,0,0-2,2c0,3,5.07,2,5.07,6a2.84,2.84,0,0,1-2.72,2.94v1.76h-.77Z"/><path class="cls-6" d="M344.29,526.8c0-3.78,1.25-5.84,3.44-5.84s3.43,2.08,3.43,5.84-1.25,5.91-3.43,5.91S344.29,530.56,344.29,526.8Zm5.94,0c0-3.42-1-5-2.5-5s-2.51,1.62-2.51,5,1,5.12,2.51,5.12S350.23,530.23,350.23,526.8Z"/><line class="cls-7" x1="20" y1="553.5" x2="355" y2="553.5"/><path class="cls-9" d="M328,583.69a5.76,5.76,0,0,1-3.11-1.37l.84-1.27a4.26,4.26,0,0,0,2.7,1.15c1.25,0,1.86-.62,1.86-1.66,0-2.59-4.95-2.15-4.95-5.57a3,3,0,0,1,2.66-3.11v-1.81h1.28v1.8a4.08,4.08,0,0,1,2.58,1.39l-.95,1.07a2.86,2.86,0,0,0-2.13-1,1.48,1.48,0,0,0-1.66,1.55c0,2.34,5,1.79,5,5.52a3.12,3.12,0,0,1-2.79,3.23v1.83H328Z"/><path class="cls-9" d="M339.44,573.59H333.9V572h7.59v1.12c-2.7,3.38-3.2,5.87-3.39,10.34h-1.89A16.6,16.6,0,0,1,339.44,573.59Z"/><path class="cls-9" d="M343,577.72c0-3.86,1.47-5.9,3.81-5.9s3.81,2.06,3.81,5.9-1.45,6-3.81,6S343,581.58,343,577.72Zm5.86,0c0-3.3-.85-4.45-2.05-4.45s-2.05,1.15-2.05,4.45.85,4.53,2.05,4.53S348.85,581,348.85,577.72Z"/><path class="cls-3" d="M21.81,581.07v-5.32H20.48v-.7l1.36-.08L22,572.5h.79V575h2.45v.78H22.74v5.38c0,1.07.29,1.78,1.42,1.78a2.58,2.58,0,0,0,1-.26l.23.74a5,5,0,0,1-1.43.32C22.32,583.71,21.81,582.65,21.81,581.07Z"/><path class="cls-3" d="M26.32,579.24c0-2.85,1.79-4.5,3.86-4.5s3.86,1.65,3.86,4.5-1.8,4.47-3.86,4.47S26.32,582.08,26.32,579.24Zm6.76,0c0-2.17-1.24-3.68-2.9-3.68s-2.88,1.51-2.88,3.68,1.21,3.67,2.88,3.67S33.08,581.42,33.08,579.24Z"/><path class="cls-3" d="M36.5,581.07v-5.32H35.17v-.7l1.36-.08.11-2.47h.78V575h2.45v.78H37.42v5.38c0,1.07.29,1.78,1.43,1.78a2.58,2.58,0,0,0,1-.26l.22.74a5,5,0,0,1-1.42.32C37,583.71,36.5,582.65,36.5,581.07Z"/><path class="cls-3" d="M40.94,581.36c0-1.89,1.69-2.79,5.45-3.22,0-1.27-.34-2.58-2-2.58a4.63,4.63,0,0,0-2.69,1l-.41-.67a5.88,5.88,0,0,1,3.23-1.13c2,0,2.75,1.46,2.75,3.35v5.41h-.78l-.1-1.09h0a4.88,4.88,0,0,1-3,1.3A2.25,2.25,0,0,1,40.94,581.36Zm5.45.24v-2.77c-3.37.38-4.52,1.16-4.52,2.48a1.53,1.53,0,0,0,1.75,1.61A4.2,4.2,0,0,0,46.39,581.6Z"/><path class="cls-3" d="M50.29,582.24V570.77h.93v11.56c0,.4.16.58.38.58a1.56,1.56,0,0,0,.31,0l.14.73a1.82,1.82,0,0,1-.63.1C50.66,583.71,50.29,583.23,50.29,582.24Z"/><path class="cls-3" d="M54.14,576.15A.82.82,0,1,1,55,577,.83.83,0,0,1,54.14,576.15Zm0,6.69a.82.82,0,1,1,.82.87A.83.83,0,0,1,54.14,582.84Z"/><rect class="cls-9" x="57.5" y="618" width="260" height="38" rx="19"/><path class="cls-2" d="M173.46,633.1h1.69l.17,1.08h.05a5,5,0,0,1,3.06-1.34c2.5,0,3.91,2,3.91,5,0,3.4-2,5.34-4.27,5.34a4.09,4.09,0,0,1-2.61-1.11l.07,1.69V647h-2.07Zm6.74,4.82c0-2.07-.67-3.35-2.33-3.35a3.43,3.43,0,0,0-2.34,1.21v4.84a3.3,3.3,0,0,0,2.14.9C179.11,641.52,180.2,640.25,180.2,637.92Z"/><path class="cls-2" d="M184,640.37c0-2.12,1.8-3.22,5.92-3.67,0-1.15-.43-2.16-1.89-2.16a5.4,5.4,0,0,0-2.86,1l-.78-1.41a7.58,7.58,0,0,1,4-1.3c2.47,0,3.6,1.57,3.6,4.2v6h-1.69l-.17-1.13H190a4.93,4.93,0,0,1-3.15,1.36A2.73,2.73,0,0,1,184,640.37Zm5.92.07V638c-2.94.34-3.93,1.1-3.93,2.22s.67,1.37,1.55,1.37A3.49,3.49,0,0,0,189.88,640.44Z"/><path class="cls-2" d="M194.09,646.94l.39-1.62a2.55,2.55,0,0,0,.73.15c1.08,0,1.71-.8,2.07-1.86l.19-.68-3.92-9.83h2.12l1.84,5.09c.29.89.59,1.88.9,2.79h.09l.77-2.79,1.59-5.09h2l-3.64,10.49c-.78,2.13-1.82,3.55-3.91,3.55A3.43,3.43,0,0,1,194.09,646.94Z"/></svg>