<svg id="圖層_1" data-name="圖層 1" xmlns="http://www.w3.org/2000/svg" viewBox="0 0 54 54"><defs><style>.cls-1{fill:#8d8d8d;}.cls-2{fill:#f80202;}</style></defs><title>sg-icon</title><path class="cls-1" d="M47.3,37.69a1.21,1.21,0,0,0-1.2,1.21v6a1.2,1.2,0,0,1-1.2,1.2H37.69a1.2,1.2,0,1,0,0,2.4H44.9a3.61,3.61,0,0,0,3.6-3.6v-6A1.21,1.21,0,0,0,47.3,37.69Z"/><path class="cls-1" d="M15.1,46.1h-6a1.2,1.2,0,0,1-1.2-1.2v-6a1.2,1.2,0,1,0-2.4,0v6a3.61,3.61,0,0,0,3.6,3.6h6a1.2,1.2,0,1,0,0-2.4Z"/><path class="cls-1" d="M6.7,16.31A1.21,1.21,0,0,0,7.9,15.1v-6A1.2,1.2,0,0,1,9.1,7.9h6a1.2,1.2,0,1,0,0-2.4h-6A3.61,3.61,0,0,0,5.5,9.1v6A1.21,1.21,0,0,0,6.7,16.31Z"/><path class="cls-1" d="M37.69,7.9H44.9a1.2,1.2,0,0,1,1.2,1.2v6a1.2,1.2,0,1,0,2.4,0v-6a3.61,3.61,0,0,0-3.6-3.6H37.69a1.2,1.2,0,0,0,0,2.4Z"/><path class="cls-1" d="M16.13,36.34a22,22,0,0,1-2,4.4c-.9,1.55-1.07,1.73-1.76,1.73A1.27,1.27,0,0,1,11,41.3c0-.38,0-.49.48-1a23.41,23.41,0,0,0,2.31-4.2c.27-.66.55-.9,1-.9A1.29,1.29,0,0,1,16.13,36.34Zm3-23.12a2,2,0,0,1,2.24,2.21V32.34a2,2,0,0,1-2.24,2.24H14.69a2,2,0,0,1-2.21-2.21V15.43a1.94,1.94,0,0,1,2.21-2.21Zm0,3.83c0-1.1-.27-1.62-.89-1.62H15.55c-.59,0-.86.52-.86,1.62v6.17h4.47ZM14.69,30.57c0,1.18.27,1.8.86,1.8h2.68c.62,0,.93-.55.93-1.87V23.22H14.69Zm6.64,7.18a10.76,10.76,0,0,1,1.31,3.06A1.18,1.18,0,0,1,21.33,42c-.58,0-.79-.17-1.17-1a45.87,45.87,0,0,0-2.1-4.21,1.18,1.18,0,0,1-.21-.62A1.22,1.22,0,0,1,19.06,35C19.71,35,20,35.34,21.33,37.75Zm6.51-25.46a1.15,1.15,0,0,1,2.28,0v2.38h4.54V12.29a1.15,1.15,0,0,1,2.28,0v2.38h4.41a.84.84,0,0,1,.82.93.86.86,0,0,1-.82.93H36.94v2.2h3.48a.83.83,0,0,1,.79.9.82.82,0,0,1-.79.89H36.94v2.31h5c.48,0,.48.19,0,.19H33.53v3.53h4.58a2,2,0,0,1,2.27,2.28v5.71h1.76a.91.91,0,0,1,.86,1,.9.9,0,0,1-.86,1H40.38v3.17c0,1.9-.72,2.59-2.79,2.59A26,26,0,0,1,34.25,42a1,1,0,0,1-.86-1.06c0-.76.34-1.21.9-1.21a1.72,1.72,0,0,1,.37,0,25.28,25.28,0,0,0,2.59.17c.62,0,.86-.24.86-.86V36.47H26.91v5.24a1.06,1.06,0,0,1-1.13,1,1,1,0,0,1-1.14-1V36.47H22.81a1,1,0,0,1,0-1.93h1.83V28.83a2,2,0,0,1,2.27-2.28h4.34V23H23c-.51,0-.51-.19,0-.19h4.89V20.52H24.43a.82.82,0,0,1-.82-.89.83.83,0,0,1,.82-.9h3.41v-2.2H23.33a.87.87,0,0,1-.83-.93.85.85,0,0,1,.83-.93h4.51ZM27.6,28.41c-.48,0-.69.21-.69.69v1.45h4.41V28.41Zm-.69,6.13h4.41v-2.2H26.91Zm3.21-15.81h4.54v-2.2H30.12Zm0,4.1h4.54V20.52H30.12Zm3.34,7.72h4.65V29.1a.61.61,0,0,0-.69-.69h-4Zm0,4h4.65v-2.2H33.46Z"/><path class="cls-2" d="M51.48,22.73h-49a1,1,0,0,0,0,2h49a1,1,0,1,0,0-2Z"/></svg>