<svg xmlns="http://www.w3.org/2000/svg" id="Calque_2" viewBox="0 0 317.8 85.4"><style>.st4{fill:#1e5bc6}</style><path d="M245 18.7c.1-.1.3-.2.4-.2.2 0 .3.2.3.4 0 .1-.1.3-.2.4-5 6.2-8.6 13.4-8.6 23.5 0 10 3.6 17.1 8.6 23.3.1.1.2.3.2.4 0 .2-.1.4-.3.4-.1 0-.2-.1-.4-.2l-21.2-20.5c-1.1-.9-1.7-2-1.7-3.5s.7-2.6 1.7-3.5L245 18.7" fill="#fd0202"/><path class="st4" d="M261.3 17c-8.3 0-11.5 11.8-11.5 25.8s3.2 25.6 11.5 25.6c5 0 9.2-2.9 9.2-5.3 0-.5-.2-1-.6-1.5-2.4-2.3-3.3-4.6-3.3-6.6 0-3.8 3.3-6.7 6.4-6.7 4.2 0 6.7 3.3 6.7 7.6 0 4.1-1.7 7.5-3.6 10.2-.1.1-.1.2-.1.3 0 .2.1.4.3.4.1 0 .2-.1.4-.2l21.2-20.5c1.1-.9 1.7-2 1.7-3.5s-.7-2.6-1.7-3.5l-21.2-20.5c-.1-.1-.3-.2-.4-.2-.2 0-.3.2-.3.4 0 .1 0 .2.1.3 1.9 2.7 3.6 6.1 3.6 10.2 0 4.3-2.5 7.6-6.7 7.6-3.1 0-6.4-2.9-6.4-6.7 0-2 .9-4.3 3.3-6.6.4-.4.6-.9.6-1.5 0-2.2-4.3-5.1-9.2-5.1zM46.6 51.2c0-2.1.9-3.9 2.5-5 1.6-1.2 3.8-1.8 6.4-1.8 1.6 0 3.3.3 4.4.8v-2.4c0-2.4-1-3.8-3.7-3.8-.5 0-1.6.1-2.6.4.1.3.1.7.1 1.1 0 .8-.3 1.6-.7 2.1-.5.5-1.2.9-2.1.9-1.6 0-2.7-1.3-2.8-2.9 0-2.9 3.6-4.9 8.4-4.9 3.8 0 6.2.9 7.4 2.5 1.2 1.5 1.2 3.6 1.2 6.6v7.9c0 1.5.9 1.9 2.8 2.2h.2v.2c-.1 2.1-1.6 2.9-3.3 3.1h-.4c-1.6 0-3.2-.8-3.9-2.4-1 .9-3.3 2.4-6.3 2.5-4.3-.1-7.6-3-7.6-7.1zm134.9 6c-.4-.5-.6-1.2-.8-2l-.9.9c-1.4 1.3-3.3 2.2-5.4 2.2-2.3 0-4.3-.9-5.5-2.4-1.9-2.3-1.9-5.2-1.9-9.3v-4c0-1.6-.5-2.2-2-2.2h-.8l-.1-.2c-.1-.3-.2-.6-.2-.9 0-1.9 2.5-3 3.9-3.3.5-.1 1-.2 1.4-.2 1.2 0 2 .4 2.6 1 .5.7.8 1.6.8 2.7v6.8c0 2.5.2 4.4.7 5.6.6 1.2 1.4 1.8 3 1.8 1.7 0 2.7-.7 3.4-1.8.7-1.1.9-2.6.9-4v-5.5c0-1.6-.6-2.2-2-2.2h-.8l-.1-.2c-.1-.3-.2-.6-.2-.9 0-1.9 2.5-3 3.9-3.3.5-.1 1-.2 1.4-.2 1.2 0 2 .4 2.6 1 .5.7.8 1.6.8 2.7 0 .8-.1 2.2-.1 8v4.1c0 1.7.6 2.4 2.1 2.4h.7l.1.2c.1.3.2.6.2.8-.1 1.9-2.5 2.6-3.9 2.9-.5.1-.9.1-1.3.1-1.3.4-2.1 0-2.5-.6zm-77.3-9.9c0-3.4 1.1-6.3 3.1-8.4 1.9-2.1 4.7-3.3 8-3.3 3 0 5.2 1.1 6.7 2.7s2.2 3.7 2.2 5.5c0 1.1-.2 2.2-.7 3l-.1.1H110c.2 3.9 2.7 6.6 7 6.6 2.7 0 4.7-1.5 5.4-2.3l.1-.2.2.1c.4.3.8.8.8 1.8 0 2.2-2.6 5.1-8.5 5.1-6 .2-10.8-4.5-10.8-10.7zm47.5 10.9c-3 0-5.8-1.1-7.8-3.1s-3.2-4.8-3.2-8.2c0-6.7 5.3-11.2 11.2-11.2 3.2 0 6 1.1 7.9 3.1 2 2 3.1 4.8 3.1 8.1s-1.2 6.2-3.2 8.2c-2 1.9-4.8 3.1-8 3.1zm41-.7c-.9-.3-1.5-.8-1.5-1.5 0-.3.1-.6.3-1v-.1h.1c.3-.1 1-.2 1.5-.7.6-.5.8-1.1.8-2.9v-9c0-1.5-.4-2-1.6-2.1-.3 0-.6 0-1 .1h-.2l-.1-.2c-.1-.3-.2-.7-.2-1 0-1.8 2-2.7 3.3-3.1.5-.2 1-.2 1.5-.2 1.8 0 2.8 1.3 3.2 2.9 1.2-1.9 3.1-3.2 4.9-3.2 1.7 0 3.5 1.1 3.5 3.3 0 1.5-1.1 3.1-2.9 3.1-1.3 0-2.5-.9-2.8-2.2-1 .3-2.5 1.6-2.5 6v5.4c0 1.8.3 2.4.8 2.9.5.4 1.6.6 2 .7h.1v.1c.2.4.3.7.3 1.1 0 .7-.5 1.2-1.4 1.5-.9.3-2.2.4-3.9.4-1.9.1-3.2 0-4.2-.3zm-64.9 0c-.9-.3-1.5-.8-1.5-1.5 0-.3.1-.6.2-1l.1-.1h.1c.4-.1.9-.2 1.5-.7.5-.5.8-1.1.8-2.9V39.5l-3.2-.1-.1-.1c-.2-.4-.2-.8-.2-1.1 0-1.2.9-1.9 2-1.9h1.4V35c0-3.2.6-5 1.4-6.2 1.2-1.9 3.4-3.2 6.7-3.2 4.1 0 7.6 1.9 7.6 5 0 1.3-.9 3-2.9 3-1.4 0-2.8-1.2-2.8-2.8 0-.6.2-1.1.5-1.6-.4-.4-1.3-.6-2.1-.6-1.3 0-2 .4-2.4 1.2-.4.7-.6 1.8-.6 3v3.4h5.5l.1.1c.2.4.2.8.2 1.1 0 1.2-.8 2.1-1.9 2.2H137c-.9 0-1.8-.1-2.5-.1v11.7c0 1.8.3 2.4.8 2.9.5.4 1.8.6 2.2.7h.1l.1.1c.1.3.2.6.2.9 0 .8-.7 1.3-1.7 1.6-1 .3-2.4.4-4.3.4-1.8.1-3.1 0-4.1-.3zm-38 0c-.9-.3-1.5-.8-1.5-1.5 0-.3.1-.6.3-1l.1-.1h.1c.4-.1.9-.2 1.5-.7.5-.5.8-1.1.8-2.9v-9c0-1.5-.4-2-1.7-2.1-.3 0-.6 0-1 .1h-.2l-.2-.1c-.1-.3-.2-.7-.2-1 0-1.8 2-2.7 3.3-3.1.5-.2 1-.2 1.5-.2 1.8 0 2.8 1.3 3.2 2.9 1.2-1.9 3.1-3.2 4.9-3.2 1.7 0 3.5 1.1 3.5 3.3 0 1.5-1.1 3.1-2.9 3.1-1.3 0-2.5-.9-2.8-2.2-1 .3-2.5 1.6-2.5 6v5.4c0 1.8.3 2.4.8 2.9.5.4 1.6.6 2 .7h.1l.1.2c.2.4.3.7.3 1 0 .7-.5 1.2-1.4 1.5-.9.3-2.2.4-3.9.4-1.9 0-3.3-.1-4.2-.4zm-18 0c-.9-.3-1.5-.8-1.5-1.5 0-.3.1-.6.2-1l.1-.1h.1c.4-.1.9-.2 1.5-.7.5-.5.8-1.1.8-2.9v-9c0-1.5-.4-2-1.7-2.1-.3 0-.6 0-1 .1h-.2l-.1-.1c-.1-.3-.2-.7-.2-1 0-1.8 2-2.7 3.3-3.1.5-.2 1-.2 1.5-.2 1.8 0 2.8 1.3 3.2 2.9 1.2-1.9 3.1-3.2 4.9-3.2 1.7 0 3.5 1.1 3.5 3.3 0 1.5-1.1 3.1-2.9 3.1-1.3 0-2.5-.9-2.8-2.2-1 .3-2.5 1.6-2.5 6v5.4c0 1.8.3 2.4.8 2.9.5.4 1.6.6 2 .7h.1l.1.2c.2.4.3.7.3 1 0 .7-.5 1.2-1.4 1.5-.9.3-2.2.4-3.9.4-1.9 0-3.3-.1-4.2-.4zm75-11.3c0 5.9 2.6 8.5 5.1 8.5 2.9 0 5-2.5 5-7.5 0-2.6-.6-4.7-1.5-6.1-.9-1.4-2.2-2.2-3.7-2.2-3 0-4.9 2.7-4.9 7.3zm-90.4 1.3c-2.4 0-4 1.1-4 3.3 0 2.1 1.4 3.5 3.6 3.5 1.4 0 2.9-.8 3.8-1.9v-3.1c0-.4-.3-.9-.9-1.2-.5-.4-1.4-.6-2.5-.6zm61.5-3.6c.4 0 .5-.1.6-.2.1-.1.1-.4.1-.8 0-2-1.6-3.9-4.1-3.9-3.1 0-4.4 2.5-4.5 5l7.9-.1zM22.5 54.3c-2.6-2.7-4.3-6.6-4.3-11.5 0-4.7 1.6-8.6 4.2-11.4 2.6-2.8 6.1-4.4 9.8-4.4 6.6 0 11.3 4.6 11.3 8.6 0 2.1-1.4 3.8-3.2 3.8-.9 0-1.8-.3-2.4-.9-.6-.6-1-1.4-1-2.5 0-1.3.6-2 1.1-2.6-.9-1.5-2.6-2.8-5.3-2.8-2.3 0-4.2 1.2-5.6 3.3-1.4 2.1-2.2 5.1-2.2 8.7 0 3.5.9 6.5 2.3 8.6 1.4 2.1 3.4 3.3 5.7 3.3 2.7 0 4.4-1.2 5.3-2.8-.5-.5-1.1-1.3-1.1-2.5 0-1 .4-1.9 1-2.5.6-.6 1.5-.9 2.4-.9 1.8 0 3.2 1.6 3.2 3.8 0 4-4.7 8.6-11.3 8.6-3.7.2-7.2-1.2-9.9-3.9zm0 0c-2.6-2.7-4.3-6.6-4.3-11.5 0-4.7 1.6-8.6 4.2-11.4 2.6-2.8 6.1-4.4 9.8-4.4 6.6 0 11.3 4.6 11.3 8.6 0 2.1-1.4 3.8-3.2 3.8-.9 0-1.8-.3-2.4-.9-.6-.6-1-1.4-1-2.5 0-1.3.6-2 1.1-2.6-.9-1.5-2.6-2.8-5.3-2.8-2.3 0-4.2 1.2-5.6 3.3-1.4 2.1-2.2 5.1-2.2 8.7 0 3.5.9 6.5 2.3 8.6 1.4 2.1 3.4 3.3 5.7 3.3 2.7 0 4.4-1.2 5.3-2.8-.5-.5-1.1-1.3-1.1-2.5 0-1 .4-1.9 1-2.5.6-.6 1.5-.9 2.4-.9 1.8 0 3.2 1.6 3.2 3.8 0 4-4.7 8.6-11.3 8.6-3.7.2-7.2-1.2-9.9-3.9zm0 0c-2.6-2.7-4.3-6.6-4.3-11.5 0-4.7 1.6-8.6 4.2-11.4 2.6-2.8 6.1-4.4 9.8-4.4 6.6 0 11.3 4.6 11.3 8.6 0 2.1-1.4 3.8-3.2 3.8-.9 0-1.8-.3-2.4-.9-.6-.6-1-1.4-1-2.5 0-1.3.6-2 1.1-2.6-.9-1.5-2.6-2.8-5.3-2.8-2.3 0-4.2 1.2-5.6 3.3-1.4 2.1-2.2 5.1-2.2 8.7 0 3.5.9 6.5 2.3 8.6 1.4 2.1 3.4 3.3 5.7 3.3 2.7 0 4.4-1.2 5.3-2.8-.5-.5-1.1-1.3-1.1-2.5 0-1 .4-1.9 1-2.5.6-.6 1.5-.9 2.4-.9 1.8 0 3.2 1.6 3.2 3.8 0 4-4.7 8.6-11.3 8.6-3.7.2-7.2-1.2-9.9-3.9z"/></svg>