<svg id="圖層_1" data-name="圖層 1" xmlns="http://www.w3.org/2000/svg" viewBox="0 0 375 667"><defs><style>.cls-1{fill:#f0efed;}.cls-2{fill:#fff;}.cls-3{fill:#555;}.cls-4{fill:#1e5bc1;}.cls-5{fill:#333;}.cls-6{fill:none;stroke:#ededed;stroke-miterlimit:10;}.cls-7{fill:#39b04a;}.cls-8{fill:#888;}.cls-9{fill:#f80202;}.cls-10{fill:#f0ad4e;}</style></defs><title>sg_order_list</title><rect class="cls-1" width="375" height="667"/><rect class="cls-2" width="375" height="54"/><rect class="cls-2" width="54" height="54"/><path class="cls-3" d="M23.2,27,33.25,17a1.15,1.15,0,0,0-1.62-1.62L20.87,26.09l-.12.08a1.21,1.21,0,0,0,0,1.66l.12.08L31.63,38.66A1.15,1.15,0,0,0,33.25,37Z"/><path class="cls-3" d="M143.06,27.1c0-4.46,2.54-7.18,6.16-7.18s6.17,2.72,6.17,7.18-2.54,7.25-6.17,7.25S143.06,31.56,143.06,27.1Zm10.46,0c0-3.5-1.72-5.64-4.3-5.64s-4.29,2.14-4.29,5.64,1.69,5.71,4.29,5.71S153.52,30.57,153.52,27.1Z"/><path class="cls-3" d="M158.35,23.79h1.48l.15,1.88H160a3.69,3.69,0,0,1,3-2.14,2.37,2.37,0,0,1,1.14.23l-.34,1.52a2.47,2.47,0,0,0-1-.18c-.89,0-2,.61-2.7,2.38V34.1h-1.79Z"/><path class="cls-3" d="M165,29c0-3.34,2.19-5.43,4.63-5.43a4.41,4.41,0,0,1,3,1.21L172.57,23V19h1.78V34.1h-1.46l-.16-1.21h-.06a4.86,4.86,0,0,1-3.25,1.46C166.74,34.35,165,32.39,165,29Zm7.56,2.52V26.07A3.88,3.88,0,0,0,170,25c-1.73,0-3.09,1.59-3.09,4s1.06,4,3,4A3.78,3.78,0,0,0,172.57,31.48Z"/><path class="cls-3" d="M177.19,29c0-3.34,2.34-5.43,4.82-5.43,2.72,0,4.26,1.9,4.26,4.84a6.48,6.48,0,0,1-.08,1H179a3.48,3.48,0,0,0,3.55,3.6,4.76,4.76,0,0,0,2.68-.81l.64,1.14a6.56,6.56,0,0,1-3.54,1.06A5,5,0,0,1,177.19,29Zm7.5-.86c0-2.07-1-3.19-2.66-3.19A3.23,3.23,0,0,0,179,28.1Z"/><path class="cls-3" d="M188.91,23.79h1.48l.16,1.88h.06a3.67,3.67,0,0,1,3-2.14,2.35,2.35,0,0,1,1.14.23l-.33,1.52a2.52,2.52,0,0,0-1-.18c-.88,0-2,.61-2.7,2.38V34.1h-1.79Z"/><path class="cls-3" d="M201.13,20.17H203V32.6h6.3v1.5h-8.13Z"/><path class="cls-3" d="M211.38,20.51a1.2,1.2,0,1,1,1.2,1.16A1.11,1.11,0,0,1,211.38,20.51Zm.29,3.28h1.79V34.1h-1.79Z"/><path class="cls-3" d="M215.89,32.92l.89-1.13A4.94,4.94,0,0,0,220,33c1.42,0,2.1-.72,2.1-1.61,0-1.07-1.26-1.52-2.44-2-1.49-.53-3.13-1.23-3.13-3s1.38-2.92,3.7-2.92a5.52,5.52,0,0,1,3.31,1.16l-.86,1.12a4,4,0,0,0-2.43-.91c-1.36,0-2,.68-2,1.48,0,1,1.11,1.34,2.31,1.78,1.55.57,3.27,1.18,3.27,3.13,0,1.67-1.38,3.06-3.9,3.06A6.56,6.56,0,0,1,215.89,32.92Z"/><path class="cls-3" d="M226.2,30.91V25.2h-1.6V23.89l1.67-.1.22-2.9H228v2.9h2.89V25.2H228V31c0,1.27.41,2,1.65,2a3.91,3.91,0,0,0,1.22-.26l.36,1.29a7,7,0,0,1-2,.38C227,34.35,226.2,33,226.2,30.91Z"/><rect class="cls-2" y="56" width="375" height="48"/><rect class="cls-4" y="102" width="187" height="2"/><path class="cls-3" d="M235.77,81.22c0-2.45,1.64-4,3.38-4s3,1.36,3,3.54a2.81,2.81,0,0,1-.06.69H236.9a2.62,2.62,0,0,0,2.6,2.8,3.42,3.42,0,0,0,1.92-.61l.41.75a4.37,4.37,0,0,1-2.47.77C237.37,85.18,235.77,83.71,235.77,81.22Zm5.35-.59c0-1.61-.73-2.47-2-2.47a2.44,2.44,0,0,0-2.27,2.47Z"/><path class="cls-3" d="M245.33,81.05,243,77.44h1.23l1.07,1.72c.24.42.5.84.77,1.26h.06c.23-.42.46-.84.7-1.26l1-1.72H249l-2.3,3.72L249.21,85H248l-1.17-1.83c-.26-.47-.54-.93-.82-1.38h-.07c-.28.45-.53.91-.8,1.38L244,85h-1.2Z"/><path class="cls-3" d="M250.75,77.44h.92l.12.88h0a4.14,4.14,0,0,1,2.44-1.08c2,0,3,1.53,3,3.85,0,2.59-1.55,4.09-3.3,4.09a3.53,3.53,0,0,1-2.13-.88l0,1.33v2.62h-1.13Zm5.35,3.67c0-1.71-.59-2.9-2.1-2.9a3.27,3.27,0,0,0-2.12,1.09v4.09a3,3,0,0,0,1.94.83C255.13,84.22,256.1,83,256.1,81.11Z"/><path class="cls-3" d="M259.14,75a.74.74,0,0,1,.79-.77.79.79,0,1,1-.79.77Zm.22,2.43h1.13V85h-1.13Z"/><path class="cls-3" d="M263.13,77.44h.92l.11,1.38h0a2.62,2.62,0,0,1,2.15-1.58,1.62,1.62,0,0,1,.8.17l-.23,1a2,2,0,0,0-.71-.12c-.65,0-1.43.47-1.95,1.79V85h-1.13Z"/><path class="cls-3" d="M267.69,81.22c0-2.45,1.64-4,3.38-4s3,1.36,3,3.54a2.81,2.81,0,0,1-.06.69h-5.17a2.62,2.62,0,0,0,2.6,2.8,3.37,3.37,0,0,0,1.91-.61l.42.75a4.37,4.37,0,0,1-2.47.77C269.29,85.18,267.69,83.71,267.69,81.22Zm5.35-.59c0-1.61-.73-2.47-2-2.47a2.44,2.44,0,0,0-2.27,2.47Z"/><path class="cls-3" d="M275.39,81.22c0-2.44,1.55-4,3.29-4a3.17,3.17,0,0,1,2.17.9l-.05-1.32v-3h1.13V85H281l-.1-.91h0a3.38,3.38,0,0,1-2.34,1.09C276.61,85.18,275.39,83.75,275.39,81.22Zm5.41,1.92V79.05a2.8,2.8,0,0,0-1.94-.84c-1.29,0-2.28,1.24-2.28,3s.78,3,2.17,3A2.85,2.85,0,0,0,280.8,83.14Z"/><path class="cls-3" d="M287.11,81.22c0-2.52,1.62-4,3.47-4s3.49,1.46,3.49,4-1.64,4-3.49,4S287.11,83.73,287.11,81.22Zm5.78,0c0-1.8-.95-3-2.31-3s-2.3,1.21-2.3,3,.94,3,2.3,3S292.89,83,292.89,81.22Z"/><path class="cls-3" d="M296.12,77.44h.93l.11,1.38h0a2.62,2.62,0,0,1,2.15-1.58,1.56,1.56,0,0,1,.79.17l-.22,1a2,2,0,0,0-.71-.12c-.65,0-1.43.47-1.95,1.79V85h-1.14Z"/><path class="cls-3" d="M300.7,81.22c0-2.44,1.56-4,3.29-4a3.21,3.21,0,0,1,2.18.9l-.06-1.32v-3h1.13V85h-.94l-.09-.91h0a3.42,3.42,0,0,1-2.34,1.09C301.92,85.18,300.7,83.75,300.7,81.22Zm5.41,1.92V79.05a2.79,2.79,0,0,0-1.93-.84c-1.29,0-2.29,1.24-2.29,3s.79,3,2.17,3A2.83,2.83,0,0,0,306.11,83.14Z"/><path class="cls-3" d="M309.3,81.22c0-2.45,1.64-4,3.37-4,1.89,0,3,1.36,3,3.54a3.4,3.4,0,0,1-.06.69h-5.17a2.61,2.61,0,0,0,2.59,2.8,3.37,3.37,0,0,0,1.92-.61l.42.75a4.43,4.43,0,0,1-2.48.77C310.89,85.18,309.3,83.71,309.3,81.22Zm5.35-.59c0-1.61-.73-2.47-2-2.47a2.44,2.44,0,0,0-2.27,2.47Z"/><path class="cls-3" d="M317.57,77.44h.93l.11,1.38h0a2.62,2.62,0,0,1,2.14-1.58,1.57,1.57,0,0,1,.8.17l-.22,1a2.05,2.05,0,0,0-.72-.12c-.64,0-1.43.47-1.94,1.79V85h-1.14Z"/><path class="cls-3" d="M321.94,84.15l.57-.77a3.47,3.47,0,0,0,2.29.91c1.05,0,1.57-.56,1.57-1.26s-.91-1.18-1.77-1.49c-1.08-.39-2.24-.9-2.24-2.19s.94-2.11,2.58-2.11a3.71,3.71,0,0,1,2.29.84l-.56.74a2.84,2.84,0,0,0-1.73-.67c-1,0-1.47.53-1.47,1.15s.78,1,1.65,1.36c1.11.43,2.34.87,2.34,2.31,0,1.2-.95,2.21-2.71,2.21A4.59,4.59,0,0,1,321.94,84.15Z"/><path class="cls-5" d="M55.84,77.44H57l1.5,4.39c.22.75.48,1.52.71,2.23h.06c.24-.71.49-1.48.71-2.23l1.5-4.39h1.12L59.93,85H58.6Z"/><path class="cls-5" d="M63.34,83.05c0-1.65,1.45-2.46,4.7-2.83,0-1-.31-2-1.61-2a4.14,4.14,0,0,0-2.3.84l-.46-.8a5.53,5.53,0,0,1,2.94-1c1.83,0,2.56,1.25,2.56,3.07V85h-.94l-.1-.92h0a4.07,4.07,0,0,1-2.55,1.1A2,2,0,0,1,63.34,83.05Zm4.7.16V81c-2.68.31-3.59,1-3.59,2a1.23,1.23,0,0,0,1.4,1.28A3.3,3.3,0,0,0,68,83.21Z"/><path class="cls-5" d="M71.66,83.61V73.85h1.13V83.7c0,.38.16.53.36.53a1,1,0,0,0,.26,0l.17.88a2,2,0,0,1-.69.1C72,85.18,71.66,84.62,71.66,83.61Z"/><path class="cls-5" d="M75.34,75a.8.8,0,0,1,1.59,0,.8.8,0,1,1-1.59,0Zm.23,2.43H76.7V85H75.57Z"/><path class="cls-5" d="M78.76,81.22c0-2.44,1.55-4,3.29-4a3.17,3.17,0,0,1,2.17.9l0-1.32v-3H85.3V85h-.94l-.1-.91h0a3.38,3.38,0,0,1-2.34,1.09C80,85.18,78.76,83.75,78.76,81.22Zm5.41,1.92V79.05a2.8,2.8,0,0,0-1.94-.84c-1.29,0-2.28,1.24-2.28,3s.78,3,2.17,3A2.85,2.85,0,0,0,84.17,83.14Z"/><path class="cls-5" d="M90.48,81.22c0-2.52,1.62-4,3.47-4s3.49,1.46,3.49,4-1.64,4-3.49,4S90.48,83.73,90.48,81.22Zm5.78,0c0-1.8-1-3-2.31-3s-2.3,1.21-2.3,3,.94,3,2.3,3S96.26,83,96.26,81.22Z"/><path class="cls-5" d="M99.49,77.44h.93l.11,1.38h0a2.62,2.62,0,0,1,2.14-1.58,1.57,1.57,0,0,1,.8.17l-.22,1a2.05,2.05,0,0,0-.72-.12c-.64,0-1.43.47-1.94,1.79V85H99.49Z"/><path class="cls-5" d="M104.07,81.22c0-2.44,1.56-4,3.29-4a3.17,3.17,0,0,1,2.17.9l0-1.32v-3h1.13V85h-.94l-.09-.91h0a3.38,3.38,0,0,1-2.34,1.09C105.29,85.18,104.07,83.75,104.07,81.22Zm5.41,1.92V79.05a2.8,2.8,0,0,0-1.94-.84c-1.29,0-2.28,1.24-2.28,3s.78,3,2.17,3A2.85,2.85,0,0,0,109.48,83.14Z"/><path class="cls-5" d="M112.67,81.22c0-2.45,1.63-4,3.37-4s3,1.36,3,3.54a3.4,3.4,0,0,1-.06.69H113.8a2.61,2.61,0,0,0,2.59,2.8,3.4,3.4,0,0,0,1.92-.61l.42.75a4.43,4.43,0,0,1-2.48.77C114.26,85.18,112.67,83.71,112.67,81.22Zm5.35-.59c0-1.61-.73-2.47-2-2.47a2.44,2.44,0,0,0-2.27,2.47Z"/><path class="cls-5" d="M120.94,77.44h.92l.12,1.38h0a2.62,2.62,0,0,1,2.14-1.58,1.6,1.6,0,0,1,.8.17l-.22,1a2.09,2.09,0,0,0-.72-.12c-.64,0-1.43.47-2,1.79V85h-1.13Z"/><path class="cls-5" d="M125.31,84.15l.57-.77a3.47,3.47,0,0,0,2.29.91c1.05,0,1.56-.56,1.56-1.26s-.91-1.18-1.76-1.49c-1.08-.39-2.24-.9-2.24-2.19s.94-2.11,2.58-2.11a3.71,3.71,0,0,1,2.29.84l-.56.74a2.86,2.86,0,0,0-1.73-.67c-1,0-1.48.53-1.48,1.15s.79,1,1.66,1.36c1.1.43,2.34.87,2.34,2.31,0,1.2-1,2.21-2.71,2.21A4.56,4.56,0,0,1,125.31,84.15Z"/><rect class="cls-2" x="10" y="115" width="355" height="101" rx="3"/><path class="cls-5" d="M23.91,126.1H20.78v-1h7.44v1H25.08v9.27H23.91Z"/><path class="cls-5" d="M30.08,125.12h1.43l2,5.6c.26.73.49,1.46.75,2.19h.07c.25-.73.47-1.46.71-2.19l2-5.6h1.43v10.25H37.4v-5.92c0-.87.09-2.08.14-3h0l-.82,2.32-2,5.52h-.8l-2-5.52L31,126.48H31c.05.89.14,2.1.14,3v5.92H30.08Z"/><path class="cls-5" d="M43.7,134l.7-.8a4,4,0,0,0,2.87,1.3c1.4,0,2.26-.71,2.26-1.76s-.77-1.46-1.75-1.89l-1.49-.66a2.88,2.88,0,0,1-2.09-2.61c0-1.55,1.35-2.67,3.17-2.67a4.09,4.09,0,0,1,3,1.26l-.61.74a3.31,3.31,0,0,0-2.37-1c-1.19,0-2,.6-2,1.57s.92,1.44,1.71,1.78l1.48.63c1.18.52,2.13,1.22,2.13,2.74s-1.33,2.87-3.44,2.87A4.77,4.77,0,0,1,43.7,134Z"/><path class="cls-5" d="M52.49,133.09v-4.34H51.34v-.87l1.19-.07.14-2.14h1v2.14h2.08v.94H53.63v4.38c0,.93.28,1.49,1.19,1.49a2.42,2.42,0,0,0,.88-.21l.22.86a4.58,4.58,0,0,1-1.34.28C53,135.55,52.49,134.56,52.49,133.09Z"/><path class="cls-5" d="M56.65,131.59c0-2.52,1.62-4,3.47-4s3.49,1.46,3.49,4-1.64,4-3.49,4S56.65,134.1,56.65,131.59Zm5.78,0c0-1.79-1-3-2.31-3s-2.29,1.22-2.29,3,.93,3,2.29,3S62.43,133.4,62.43,131.59Z"/><path class="cls-5" d="M65.67,127.81h.92l.11,1.38h0a2.62,2.62,0,0,1,2.15-1.58,1.56,1.56,0,0,1,.79.17l-.22,1a2,2,0,0,0-.71-.12c-.65,0-1.43.48-2,1.79v4.93H65.67Z"/><path class="cls-5" d="M70.23,131.59c0-2.45,1.64-4,3.37-4,1.9,0,3,1.36,3,3.55a3.37,3.37,0,0,1-.06.68H71.36a2.62,2.62,0,0,0,2.6,2.8,3.29,3.29,0,0,0,1.91-.61l.42.75a4.37,4.37,0,0,1-2.48.77C71.83,135.55,70.23,134.08,70.23,131.59Zm5.35-.59c0-1.61-.73-2.46-2-2.46A2.43,2.43,0,0,0,71.35,131Z"/><line class="cls-6" x1="20" y1="161.5" x2="355" y2="161.5"/><path class="cls-7" d="M328.08,127.81H329l.11.88h0a4.17,4.17,0,0,1,2.44-1.08c2,0,3,1.53,3,3.85,0,2.6-1.56,4.09-3.31,4.09a3.55,3.55,0,0,1-2.13-.88l0,1.33v2.62h-1.13Zm5.35,3.67c0-1.71-.59-2.9-2.1-2.9a3.31,3.31,0,0,0-2.12,1.09v4.09a3,3,0,0,0,1.93.83C332.46,134.59,333.43,133.4,333.43,131.48Z"/><path class="cls-7" d="M336,133.42c0-1.65,1.44-2.46,4.69-2.82,0-1-.3-2-1.61-2a4,4,0,0,0-2.29.85l-.47-.8a5.49,5.49,0,0,1,2.95-1c1.83,0,2.56,1.25,2.56,3.07v4.69h-.94l-.1-.92h0a4.09,4.09,0,0,1-2.55,1.1A2,2,0,0,1,336,133.42Zm4.69.16v-2.21c-2.67.3-3.58.95-3.58,2a1.23,1.23,0,0,0,1.4,1.28A3.23,3.23,0,0,0,340.66,133.58Z"/><path class="cls-7" d="M344.06,125.38a.8.8,0,1,1,.8.8A.75.75,0,0,1,344.06,125.38Zm.23,2.43h1.13v7.56h-1.13Z"/><path class="cls-7" d="M347.48,131.59c0-2.44,1.55-4,3.29-4a3.17,3.17,0,0,1,2.17.9l-.05-1.32v-3H354v11.15h-.94l-.1-.91h0a3.38,3.38,0,0,1-2.34,1.09C348.7,135.55,347.48,134.13,347.48,131.59Zm5.41,1.92v-4.09a2.84,2.84,0,0,0-1.94-.84c-1.29,0-2.28,1.25-2.28,3s.78,3,2.17,3A2.85,2.85,0,0,0,352.89,133.51Z"/><path class="cls-8" d="M20.87,153.09c2.74-2.77,4.14-4.33,4.14-5.79a1.65,1.65,0,0,0-1.79-1.82,2.57,2.57,0,0,0-1.94,1.08l-.44-.42a3.24,3.24,0,0,1,2.45-1.26,2.25,2.25,0,0,1,2.43,2.4c0,1.66-1.51,3.28-3.8,5.69.46,0,1-.07,1.44-.07h2.78v.62H20.87Z"/><path class="cls-8" d="M27.39,149.25c0-2.83.93-4.37,2.58-4.37s2.56,1.56,2.56,4.37-.93,4.43-2.56,4.43S27.39,152.07,27.39,149.25Zm4.45,0c0-2.56-.75-3.77-1.87-3.77s-1.89,1.21-1.89,3.77.75,3.84,1.89,3.84S31.84,151.82,31.84,149.25Z"/><path class="cls-8" d="M34.28,152.91h2v-6.85H34.73v-.46A4.59,4.59,0,0,0,36.4,145H37v7.88h1.83v.61H34.28Z"/><path class="cls-8" d="M40.13,151.35A2.84,2.84,0,0,1,41.8,149v0a2.39,2.39,0,0,1-1.2-2,2.11,2.11,0,0,1,2.26-2.1,2.13,2.13,0,0,1,2.31,2.22,3,3,0,0,1-1.2,2.13v.06a2.51,2.51,0,0,1,1.49,2.17,2.37,2.37,0,0,1-2.62,2.22A2.47,2.47,0,0,1,40.13,151.35Zm4.63.1c0-1.27-1.23-1.7-2.54-2.22a2.51,2.51,0,0,0-1.43,2.09,1.89,1.89,0,0,0,2.05,1.8A1.74,1.74,0,0,0,44.76,151.45Zm-.24-4.33a1.61,1.61,0,0,0-1.68-1.68A1.5,1.5,0,0,0,41.27,147c0,1.16,1.09,1.64,2.19,2.06A2.52,2.52,0,0,0,44.52,147.12Z"/><path class="cls-8" d="M46.55,149.91h3v.59h-3Z"/><path class="cls-8" d="M51.11,152.91h2v-6.85H51.57v-.46a4.59,4.59,0,0,0,1.67-.57h.56v7.88h1.82v.61H51.11Z"/><path class="cls-8" d="M57,153.09c2.73-2.77,4.14-4.33,4.14-5.79a1.66,1.66,0,0,0-1.79-1.82,2.55,2.55,0,0,0-1.94,1.08l-.45-.42a3.25,3.25,0,0,1,2.46-1.26,2.24,2.24,0,0,1,2.42,2.4c0,1.66-1.51,3.28-3.8,5.69.47,0,1-.07,1.44-.07h2.78v.62H57Z"/><path class="cls-8" d="M63.39,149.91h3v.59h-3Z"/><path class="cls-8" d="M67.38,153.09c2.74-2.77,4.14-4.33,4.14-5.79a1.65,1.65,0,0,0-1.79-1.82,2.57,2.57,0,0,0-1.94,1.08l-.44-.42a3.25,3.25,0,0,1,2.46-1.26,2.24,2.24,0,0,1,2.42,2.4c0,1.66-1.51,3.28-3.8,5.69.46,0,1-.07,1.44-.07h2.78v.62H67.38Z"/><path class="cls-8" d="M73.6,152.54l.38-.49a2.94,2.94,0,0,0,2.29,1,2.08,2.08,0,0,0,2-2.21,1.91,1.91,0,0,0-2-2.12,2.56,2.56,0,0,0-1.55.55l-.45-.26.3-4h4v.63H75.23L75,148.59a2.7,2.7,0,0,1,1.46-.41A2.41,2.41,0,0,1,79,150.84a2.7,2.7,0,0,1-2.73,2.84A3.6,3.6,0,0,1,73.6,152.54Z"/><path class="cls-8" d="M86.12,152.91h2v-6.85H86.57v-.46a4.59,4.59,0,0,0,1.67-.57h.56v7.88h1.83v.61H86.12Z"/><path class="cls-8" d="M91.77,152.54l.38-.49a2.94,2.94,0,0,0,2.29,1,2.09,2.09,0,0,0,2-2.21,1.91,1.91,0,0,0-2-2.12,2.56,2.56,0,0,0-1.55.55l-.46-.26.31-4h4v.63H93.4l-.25,2.93a2.7,2.7,0,0,1,1.46-.41,2.41,2.41,0,0,1,2.59,2.66,2.7,2.7,0,0,1-2.73,2.84A3.6,3.6,0,0,1,91.77,152.54Z"/><path class="cls-8" d="M98.74,148a.61.61,0,1,1,.61.65A.62.62,0,0,1,98.74,148Zm0,5a.61.61,0,1,1,1.22,0,.61.61,0,1,1-1.22,0Z"/><path class="cls-8" d="M101.19,152.54l.38-.49a2.94,2.94,0,0,0,2.29,1,2.09,2.09,0,0,0,2-2.21,1.91,1.91,0,0,0-2-2.12,2.56,2.56,0,0,0-1.55.55l-.46-.26.31-4h4v.63h-3.37l-.25,2.93a2.7,2.7,0,0,1,1.46-.41,2.41,2.41,0,0,1,2.59,2.66,2.7,2.7,0,0,1-2.73,2.84A3.6,3.6,0,0,1,101.19,152.54Z"/><path class="cls-8" d="M107.61,152.54l.38-.49a2.93,2.93,0,0,0,2.29,1,2.09,2.09,0,0,0,2-2.21,1.91,1.91,0,0,0-2-2.12,2.56,2.56,0,0,0-1.55.55l-.46-.26.3-4h4v.63h-3.37l-.25,2.93a2.7,2.7,0,0,1,1.46-.41,2.41,2.41,0,0,1,2.59,2.66,2.71,2.71,0,0,1-2.74,2.84A3.59,3.59,0,0,1,107.61,152.54Z"/><path class="cls-8" d="M114.58,148a.61.61,0,1,1,.61.65A.62.62,0,0,1,114.58,148Zm0,5a.61.61,0,1,1,1.22,0,.61.61,0,1,1-1.22,0Z"/><path class="cls-8" d="M117,152.54l.38-.49a2.93,2.93,0,0,0,2.29,1,2.09,2.09,0,0,0,2-2.21,1.91,1.91,0,0,0-2-2.12,2.56,2.56,0,0,0-1.55.55l-.46-.26.3-4h4v.63h-3.37l-.25,2.93a2.7,2.7,0,0,1,1.46-.41,2.41,2.41,0,0,1,2.59,2.66,2.71,2.71,0,0,1-2.74,2.84A3.59,3.59,0,0,1,117,152.54Z"/><path class="cls-8" d="M123.45,152.54l.38-.49a2.93,2.93,0,0,0,2.29,1,2.09,2.09,0,0,0,2-2.21,1.91,1.91,0,0,0-2-2.12,2.56,2.56,0,0,0-1.55.55l-.46-.26.3-4h4v.63h-3.37l-.25,2.93a2.7,2.7,0,0,1,1.46-.41,2.41,2.41,0,0,1,2.59,2.66,2.71,2.71,0,0,1-2.74,2.84A3.59,3.59,0,0,1,123.45,152.54Z"/><path d="M21.77,177.46h.82v9.91h-.82Z"/><path d="M25.57,185.31v-4.52H24.44v-.6l1.15-.06.1-2.1h.67v2.1h2.08v.66H26.36v4.57c0,.91.24,1.51,1.21,1.51a2.33,2.33,0,0,0,.88-.22l.19.63a4,4,0,0,1-1.21.27C26,187.55,25.57,186.65,25.57,185.31Z"/><path d="M29.4,183.76c0-2.36,1.55-3.82,3.18-3.82s2.8,1.25,2.8,3.37a3.48,3.48,0,0,1,0,.57H30.2c0,1.77,1.09,3,2.65,3a3.22,3.22,0,0,0,1.93-.62l.3.58a4,4,0,0,1-2.31.71C30.91,187.55,29.4,186.13,29.4,183.76Zm5.26-.51c0-1.75-.8-2.63-2.07-2.63a2.57,2.57,0,0,0-2.39,2.63Z"/><path d="M37.31,180.13H38l.1,1.1h0a3.34,3.34,0,0,1,2.28-1.29,1.87,1.87,0,0,1,2,1.46,3.6,3.6,0,0,1,2.45-1.46c1.45,0,2.17.93,2.17,2.8v4.63H46.2v-4.53c0-1.5-.5-2.2-1.56-2.2A3.06,3.06,0,0,0,42.55,182v5.42h-.79v-4.53c0-1.5-.49-2.2-1.57-2.2A3.06,3.06,0,0,0,38.1,182v5.42h-.79Z"/><path d="M48.72,186.56l.42-.57a3.4,3.4,0,0,0,2.28.91c1.1,0,1.66-.63,1.66-1.38s-.91-1.25-1.75-1.55c-1.08-.38-2.22-.83-2.22-2.08,0-1.06.84-1.95,2.38-1.95a3.48,3.48,0,0,1,2.11.77l-.42.54a2.76,2.76,0,0,0-1.7-.65c-1.09,0-1.58.6-1.58,1.25,0,.8.79,1.1,1.63,1.42,1.12.42,2.34.81,2.34,2.21,0,1.12-.88,2.07-2.49,2.07A4.27,4.27,0,0,1,48.72,186.56Z"/><path d="M58.76,180.13h.66l.09.88h0A4.25,4.25,0,0,1,62,179.94c1.93,0,2.91,1.46,2.91,3.69,0,2.48-1.5,3.92-3.2,3.92a3.56,3.56,0,0,1-2.13-.88v3.94h-.79Zm5.27,3.5c0-1.74-.6-3-2.22-3a3.69,3.69,0,0,0-2.26,1.15V186a3.38,3.38,0,0,0,2.06.89C63,186.86,64,185.58,64,183.63Z"/><path d="M66.88,184.76v-4.63h.79v4.54c0,1.48.46,2.17,1.57,2.17.85,0,1.45-.43,2.26-1.41v-5.3h.79v7.24h-.67l-.06-1.19h0a3.22,3.22,0,0,1-2.44,1.37C67.56,187.55,66.88,186.62,66.88,184.76Z"/><path d="M75,180.13h.65l.1,1.34h0a2.49,2.49,0,0,1,2.06-1.53,1.48,1.48,0,0,1,.73.16l-.16.71a1.49,1.49,0,0,0-.67-.13c-.64,0-1.41.48-1.94,1.82v4.87H75Z"/><path d="M79.14,183.76c0-2.42,1.57-3.82,3.36-3.82a3.06,3.06,0,0,1,2.12.88l-.45.54a2.39,2.39,0,0,0-1.66-.73c-1.44,0-2.54,1.28-2.54,3.13s1,3.11,2.53,3.11a2.91,2.91,0,0,0,1.89-.8l.39.54a3.58,3.58,0,0,1-2.32.94C80.57,187.55,79.14,186.16,79.14,183.76Z"/><path d="M86.52,176.56h.79v4.68a3.53,3.53,0,0,1,2.47-1.3c1.51,0,2.2.93,2.2,2.8v4.63h-.78v-4.53c0-1.5-.48-2.2-1.59-2.2A3.15,3.15,0,0,0,87.31,182v5.42h-.79Z"/><path d="M94,185.55c0-1.6,1.42-2.37,4.62-2.73,0-1.08-.29-2.19-1.66-2.19a3.91,3.91,0,0,0-2.28.83l-.36-.57a5.06,5.06,0,0,1,2.75-.95c1.73,0,2.34,1.23,2.34,2.84v4.59h-.67l-.08-.92h0a4.14,4.14,0,0,1-2.53,1.1A1.91,1.91,0,0,1,94,185.55Zm4.62.2V183.4c-2.86.33-3.83,1-3.83,2.11a1.3,1.3,0,0,0,1.48,1.37A3.57,3.57,0,0,0,98.65,185.75Z"/><path d="M101.08,186.56l.42-.57a3.42,3.42,0,0,0,2.29.91c1.1,0,1.66-.63,1.66-1.38s-.92-1.25-1.76-1.55c-1.07-.38-2.21-.83-2.21-2.08,0-1.06.84-1.95,2.37-1.95a3.45,3.45,0,0,1,2.11.77l-.42.54a2.74,2.74,0,0,0-1.7-.65c-1.09,0-1.58.6-1.58,1.25,0,.8.79,1.1,1.64,1.42,1.11.42,2.33.81,2.33,2.21,0,1.12-.88,2.07-2.48,2.07A4.32,4.32,0,0,1,101.08,186.56Z"/><path d="M107.51,183.76c0-2.36,1.55-3.82,3.18-3.82s2.8,1.25,2.8,3.37a3.48,3.48,0,0,1,0,.57h-5.14c0,1.77,1.09,3,2.65,3a3.28,3.28,0,0,0,1.94-.62l.29.58a4,4,0,0,1-2.31.71C109,187.55,107.51,186.13,107.51,183.76Zm5.26-.51c0-1.75-.8-2.63-2.06-2.63a2.57,2.57,0,0,0-2.4,2.63Z"/><path d="M114.83,183.76c0-2.34,1.49-3.82,3.2-3.82a3.26,3.26,0,0,1,2.17.88l-.06-1.31v-2.95h.79v10.81h-.65l-.08-.91h0a3.36,3.36,0,0,1-2.33,1.09C116,187.55,114.83,186.19,114.83,183.76Zm5.31,2v-4.18a2.86,2.86,0,0,0-2-.9c-1.39,0-2.45,1.34-2.45,3.13s.83,3.1,2.3,3.1A3,3,0,0,0,120.14,185.71Z"/><path d="M132,183.58l-2.24-3.45h.87l1.12,1.78c.24.4.5.8.77,1.19h.05c.25-.39.48-.79.73-1.19l1.07-1.78h.83l-2.24,3.53,2.44,3.71h-.88l-1.24-1.91a12.15,12.15,0,0,0-.83-1.32h-.06c-.28.42-.54.87-.82,1.32l-1.17,1.91h-.84Z"/><path d="M136.2,186.88c3.1-3.14,4.69-4.91,4.69-6.56a1.88,1.88,0,0,0-2-2.07,3,3,0,0,0-2.2,1.22l-.5-.47a3.66,3.66,0,0,1,2.78-1.43,2.54,2.54,0,0,1,2.75,2.72c0,1.89-1.71,3.72-4.31,6.46.53,0,1.1-.08,1.63-.08h3.16v.7h-6Z"/><path class="cls-9" d="M333.26,187.17a4.53,4.53,0,0,1-2.61-1.19l.42-.58a3.68,3.68,0,0,0,2.47,1.08,1.75,1.75,0,0,0,2-1.83c0-2.94-4.46-2.16-4.46-5.28a2.43,2.43,0,0,1,2.22-2.46v-1.54h.67v1.54a3,3,0,0,1,2.13,1.13l-.46.5a2.45,2.45,0,0,0-2-.92,1.65,1.65,0,0,0-1.75,1.7c0,2.61,4.44,1.77,4.44,5.27a2.5,2.5,0,0,1-2.38,2.58v1.54h-.67Z"/><path class="cls-9" d="M346.19,177.81H341v-.73h6.16v.51c-2.37,3.09-2.93,5.54-3.08,9.41h-.89A15.3,15.3,0,0,1,346.19,177.81Z"/><path class="cls-9" d="M348.59,182c0-3.3,1.09-5.11,3-5.11s3,1.82,3,5.11-1.1,5.17-3,5.17S348.59,185.3,348.59,182Zm5.19,0c0-3-.87-4.41-2.18-4.41s-2.2,1.42-2.2,4.41.87,4.49,2.2,4.49S353.78,185,353.78,182Z"/><rect class="cls-2" x="10" y="226" width="355" height="101" rx="3"/><path class="cls-5" d="M23.91,237.1H20.78v-1h7.44v1H25.08v9.27H23.91Z"/><path class="cls-5" d="M30.08,236.12h1.43l2,5.6c.26.73.49,1.46.75,2.19h.07c.25-.73.47-1.46.71-2.19l2-5.6h1.43v10.25H37.4v-5.92c0-.87.09-2.08.14-3h0l-.82,2.32-2,5.52h-.8l-2-5.52L31,237.48H31c.05.89.14,2.1.14,3v5.92H30.08Z"/><path class="cls-5" d="M43.7,245l.7-.8a4,4,0,0,0,2.87,1.3c1.4,0,2.26-.71,2.26-1.76s-.77-1.46-1.75-1.89l-1.49-.66a2.88,2.88,0,0,1-2.09-2.61c0-1.55,1.35-2.67,3.17-2.67a4.09,4.09,0,0,1,3,1.26l-.61.74a3.31,3.31,0,0,0-2.37-1c-1.19,0-2,.6-2,1.57s.92,1.44,1.71,1.78l1.48.63c1.18.52,2.13,1.22,2.13,2.74s-1.33,2.87-3.44,2.87A4.77,4.77,0,0,1,43.7,245Z"/><path class="cls-5" d="M52.49,244.09v-4.34H51.34v-.87l1.19-.07.14-2.14h1v2.14h2.08v.94H53.63v4.38c0,.93.28,1.49,1.19,1.49a2.42,2.42,0,0,0,.88-.21l.22.86a4.58,4.58,0,0,1-1.34.28C53,246.55,52.49,245.56,52.49,244.09Z"/><path class="cls-5" d="M56.65,242.59c0-2.52,1.62-4,3.47-4s3.49,1.46,3.49,4-1.64,4-3.49,4S56.65,245.1,56.65,242.59Zm5.78,0c0-1.79-1-3-2.31-3s-2.29,1.22-2.29,3,.93,3,2.29,3S62.43,244.4,62.43,242.59Z"/><path class="cls-5" d="M65.67,238.81h.92l.11,1.38h0a2.62,2.62,0,0,1,2.15-1.58,1.56,1.56,0,0,1,.79.17l-.22,1a2,2,0,0,0-.71-.12c-.65,0-1.43.48-2,1.79v4.93H65.67Z"/><path class="cls-5" d="M70.23,242.59c0-2.45,1.64-4,3.37-4,1.9,0,3,1.36,3,3.55a3.37,3.37,0,0,1-.06.68H71.36a2.62,2.62,0,0,0,2.6,2.8,3.29,3.29,0,0,0,1.91-.61l.42.75a4.37,4.37,0,0,1-2.48.77C71.83,246.55,70.23,245.08,70.23,242.59Zm5.35-.59c0-1.61-.73-2.46-2-2.46A2.43,2.43,0,0,0,71.35,242Z"/><line class="cls-6" x1="20" y1="272.5" x2="355" y2="272.5"/><path class="cls-10" d="M311.07,243.61v-4.8h1.13v4.66c0,1.45.43,2.09,1.5,2.09.8,0,1.37-.41,2.13-1.33v-5.42H317v7.56H316l-.1-1.2h-.05a3.28,3.28,0,0,1-2.52,1.38C311.78,246.55,311.07,245.55,311.07,243.61Z"/><path class="cls-10" d="M319.61,238.81h.92l.11,1.11h0a3.67,3.67,0,0,1,2.55-1.31c1.59,0,2.31,1,2.31,3v4.8H324.4v-4.66c0-1.46-.45-2.1-1.5-2.1a3,3,0,0,0-2.16,1.23v5.53h-1.13Z"/><path class="cls-10" d="M328.08,238.81H329l.11.88h0a4.17,4.17,0,0,1,2.44-1.08c2,0,3,1.53,3,3.85,0,2.6-1.56,4.09-3.31,4.09a3.55,3.55,0,0,1-2.13-.88l0,1.33v2.62h-1.13Zm5.35,3.67c0-1.71-.59-2.9-2.1-2.9a3.31,3.31,0,0,0-2.12,1.09v4.09a3,3,0,0,0,1.93.83C332.46,245.59,333.43,244.4,333.43,242.48Z"/><path class="cls-10" d="M336,244.42c0-1.65,1.45-2.46,4.7-2.82,0-1-.31-2-1.62-2a4,4,0,0,0-2.29.85l-.47-.8a5.49,5.49,0,0,1,2.95-1c1.83,0,2.56,1.25,2.56,3.07v4.69h-.94l-.1-.92h0a4.09,4.09,0,0,1-2.55,1.1A2,2,0,0,1,336,244.42Zm4.7.16v-2.21c-2.68.3-3.59.95-3.59,2a1.23,1.23,0,0,0,1.4,1.28A3.27,3.27,0,0,0,340.67,244.58Z"/><path class="cls-10" d="M344.06,236.38a.8.8,0,1,1,.8.8A.75.75,0,0,1,344.06,236.38Zm.23,2.43h1.13v7.56h-1.13Z"/><path class="cls-10" d="M347.48,242.59c0-2.44,1.56-4,3.29-4a3.17,3.17,0,0,1,2.17.9l-.05-1.32v-3H354v11.15h-.94l-.09-.91h-.05a3.38,3.38,0,0,1-2.34,1.09C348.7,246.55,347.48,245.13,347.48,242.59Zm5.41,1.92v-4.09a2.84,2.84,0,0,0-1.94-.84c-1.28,0-2.28,1.25-2.28,3s.79,3,2.17,3A2.85,2.85,0,0,0,352.89,244.51Z"/><path class="cls-8" d="M20.87,264.09c2.74-2.77,4.14-4.33,4.14-5.79a1.65,1.65,0,0,0-1.79-1.82,2.57,2.57,0,0,0-1.94,1.08l-.44-.42a3.24,3.24,0,0,1,2.45-1.26,2.25,2.25,0,0,1,2.43,2.4c0,1.66-1.51,3.28-3.8,5.69.46,0,1-.07,1.44-.07h2.78v.62H20.87Z"/><path class="cls-8" d="M27.39,260.25c0-2.83.93-4.37,2.58-4.37s2.56,1.56,2.56,4.37-.93,4.43-2.56,4.43S27.39,263.07,27.39,260.25Zm4.45,0c0-2.56-.75-3.77-1.87-3.77s-1.89,1.21-1.89,3.77.75,3.84,1.89,3.84S31.84,262.82,31.84,260.25Z"/><path class="cls-8" d="M34.28,263.91h2v-6.85H34.73v-.46A4.59,4.59,0,0,0,36.4,256H37v7.88h1.83v.61H34.28Z"/><path class="cls-8" d="M40.13,262.35A2.84,2.84,0,0,1,41.8,260v-.05A2.39,2.39,0,0,1,40.6,258a2.11,2.11,0,0,1,2.26-2.1,2.13,2.13,0,0,1,2.31,2.22,3,3,0,0,1-1.2,2.13v.06a2.51,2.51,0,0,1,1.49,2.17,2.37,2.37,0,0,1-2.62,2.22A2.47,2.47,0,0,1,40.13,262.35Zm4.63.1c0-1.27-1.23-1.7-2.54-2.22a2.51,2.51,0,0,0-1.43,2.09,1.89,1.89,0,0,0,2.05,1.8A1.74,1.74,0,0,0,44.76,262.45Zm-.24-4.33a1.61,1.61,0,0,0-1.68-1.68A1.5,1.5,0,0,0,41.27,258c0,1.16,1.09,1.64,2.19,2.06A2.52,2.52,0,0,0,44.52,258.12Z"/><path class="cls-8" d="M46.55,260.91h3v.59h-3Z"/><path class="cls-8" d="M51.11,263.91h2v-6.85H51.57v-.46a4.59,4.59,0,0,0,1.67-.57h.56v7.88h1.82v.61H51.11Z"/><path class="cls-8" d="M57,264.09c2.73-2.77,4.14-4.33,4.14-5.79a1.66,1.66,0,0,0-1.79-1.82,2.55,2.55,0,0,0-1.94,1.08l-.45-.42a3.25,3.25,0,0,1,2.46-1.26,2.24,2.24,0,0,1,2.42,2.4c0,1.66-1.51,3.28-3.8,5.69.47,0,1-.07,1.44-.07h2.78v.62H57Z"/><path class="cls-8" d="M63.39,260.91h3v.59h-3Z"/><path class="cls-8" d="M67.38,264.09c2.74-2.77,4.14-4.33,4.14-5.79a1.65,1.65,0,0,0-1.79-1.82,2.57,2.57,0,0,0-1.94,1.08l-.44-.42a3.25,3.25,0,0,1,2.46-1.26,2.24,2.24,0,0,1,2.42,2.4c0,1.66-1.51,3.28-3.8,5.69.46,0,1-.07,1.44-.07h2.78v.62H67.38Z"/><path class="cls-8" d="M73.6,263.54l.38-.49a2.94,2.94,0,0,0,2.29,1,2.08,2.08,0,0,0,2-2.21,1.91,1.91,0,0,0-2-2.12,2.56,2.56,0,0,0-1.55.55l-.45-.26.3-4h4v.63H75.23L75,259.59a2.7,2.7,0,0,1,1.46-.41A2.41,2.41,0,0,1,79,261.84a2.7,2.7,0,0,1-2.73,2.84A3.6,3.6,0,0,1,73.6,263.54Z"/><path class="cls-8" d="M86.12,263.91h2v-6.85H86.57v-.46a4.59,4.59,0,0,0,1.67-.57h.56v7.88h1.83v.61H86.12Z"/><path class="cls-8" d="M91.77,263.54l.38-.49a2.94,2.94,0,0,0,2.29,1,2.09,2.09,0,0,0,2-2.21,1.91,1.91,0,0,0-2-2.12,2.56,2.56,0,0,0-1.55.55l-.46-.26.31-4h4v.63H93.4l-.25,2.93a2.7,2.7,0,0,1,1.46-.41,2.41,2.41,0,0,1,2.59,2.66,2.7,2.7,0,0,1-2.73,2.84A3.6,3.6,0,0,1,91.77,263.54Z"/><path class="cls-8" d="M98.74,259a.61.61,0,1,1,.61.65A.62.62,0,0,1,98.74,259Zm0,5a.61.61,0,1,1,1.22,0,.61.61,0,1,1-1.22,0Z"/><path class="cls-8" d="M101.19,263.54l.38-.49a2.94,2.94,0,0,0,2.29,1,2.09,2.09,0,0,0,2-2.21,1.91,1.91,0,0,0-2-2.12,2.56,2.56,0,0,0-1.55.55l-.46-.26.31-4h4v.63h-3.37l-.25,2.93a2.7,2.7,0,0,1,1.46-.41,2.41,2.41,0,0,1,2.59,2.66,2.7,2.7,0,0,1-2.73,2.84A3.6,3.6,0,0,1,101.19,263.54Z"/><path class="cls-8" d="M107.61,263.54l.38-.49a2.93,2.93,0,0,0,2.29,1,2.09,2.09,0,0,0,2-2.21,1.91,1.91,0,0,0-2-2.12,2.56,2.56,0,0,0-1.55.55l-.46-.26.3-4h4v.63h-3.37l-.25,2.93a2.7,2.7,0,0,1,1.46-.41,2.41,2.41,0,0,1,2.59,2.66,2.71,2.71,0,0,1-2.74,2.84A3.59,3.59,0,0,1,107.61,263.54Z"/><path class="cls-8" d="M114.58,259a.61.61,0,1,1,.61.65A.62.62,0,0,1,114.58,259Zm0,5a.61.61,0,1,1,1.22,0,.61.61,0,1,1-1.22,0Z"/><path class="cls-8" d="M117,263.54l.38-.49a2.93,2.93,0,0,0,2.29,1,2.09,2.09,0,0,0,2-2.21,1.91,1.91,0,0,0-2-2.12,2.56,2.56,0,0,0-1.55.55l-.46-.26.3-4h4v.63h-3.37l-.25,2.93a2.7,2.7,0,0,1,1.46-.41,2.41,2.41,0,0,1,2.59,2.66,2.71,2.71,0,0,1-2.74,2.84A3.59,3.59,0,0,1,117,263.54Z"/><path class="cls-8" d="M123.45,263.54l.38-.49a2.93,2.93,0,0,0,2.29,1,2.09,2.09,0,0,0,2-2.21,1.91,1.91,0,0,0-2-2.12,2.56,2.56,0,0,0-1.55.55l-.46-.26.3-4h4v.63h-3.37l-.25,2.93a2.7,2.7,0,0,1,1.46-.41,2.41,2.41,0,0,1,2.59,2.66,2.71,2.71,0,0,1-2.74,2.84A3.59,3.59,0,0,1,123.45,263.54Z"/><path d="M21.77,288.46h.82v9.91h-.82Z"/><path d="M25.57,296.31v-4.52H24.44v-.6l1.15-.06.1-2.1h.67v2.1h2.08v.66H26.36v4.57c0,.91.24,1.51,1.21,1.51a2.33,2.33,0,0,0,.88-.22l.19.63a4,4,0,0,1-1.21.27C26,298.55,25.57,297.65,25.57,296.31Z"/><path d="M29.4,294.76c0-2.36,1.55-3.82,3.18-3.82s2.8,1.25,2.8,3.37a3.48,3.48,0,0,1,0,.57H30.2c0,1.77,1.09,3,2.65,3a3.22,3.22,0,0,0,1.93-.62l.3.58a4,4,0,0,1-2.31.71C30.91,298.55,29.4,297.13,29.4,294.76Zm5.26-.51c0-1.75-.8-2.63-2.07-2.63a2.57,2.57,0,0,0-2.39,2.63Z"/><path d="M37.31,291.13H38l.1,1.1h0a3.34,3.34,0,0,1,2.28-1.29,1.87,1.87,0,0,1,2,1.46,3.6,3.6,0,0,1,2.45-1.46c1.45,0,2.17.93,2.17,2.8v4.63H46.2v-4.53c0-1.5-.5-2.2-1.56-2.2A3.06,3.06,0,0,0,42.55,293v5.42h-.79v-4.53c0-1.5-.49-2.2-1.57-2.2A3.06,3.06,0,0,0,38.1,293v5.42h-.79Z"/><path d="M48.72,297.56l.42-.57a3.4,3.4,0,0,0,2.28.91c1.1,0,1.66-.63,1.66-1.38s-.91-1.25-1.75-1.55c-1.08-.38-2.22-.83-2.22-2.08,0-1.06.84-1.95,2.38-1.95a3.48,3.48,0,0,1,2.11.77l-.42.54a2.76,2.76,0,0,0-1.7-.65c-1.09,0-1.58.6-1.58,1.25s.79,1.1,1.63,1.42c1.12.42,2.34.81,2.34,2.21,0,1.12-.88,2.07-2.49,2.07A4.27,4.27,0,0,1,48.72,297.56Z"/><path d="M58.76,291.13h.66l.09.88h0A4.25,4.25,0,0,1,62,290.94c1.93,0,2.91,1.46,2.91,3.69,0,2.48-1.5,3.92-3.2,3.92a3.56,3.56,0,0,1-2.13-.88v3.94h-.79Zm5.27,3.5c0-1.74-.6-3-2.22-3a3.69,3.69,0,0,0-2.26,1.15V297a3.38,3.38,0,0,0,2.06.89C63,297.86,64,296.58,64,294.63Z"/><path d="M66.88,295.76v-4.63h.79v4.54c0,1.48.46,2.17,1.57,2.17.85,0,1.45-.43,2.26-1.41v-5.3h.79v7.24h-.67l-.06-1.19h0a3.22,3.22,0,0,1-2.44,1.37C67.56,298.55,66.88,297.62,66.88,295.76Z"/><path d="M75,291.13h.65l.1,1.34h0a2.49,2.49,0,0,1,2.06-1.53,1.48,1.48,0,0,1,.73.16l-.16.71a1.49,1.49,0,0,0-.67-.13c-.64,0-1.41.48-1.94,1.82v4.87H75Z"/><path d="M79.14,294.76c0-2.42,1.57-3.82,3.36-3.82a3.06,3.06,0,0,1,2.12.88l-.45.54a2.39,2.39,0,0,0-1.66-.73c-1.44,0-2.54,1.28-2.54,3.13s1,3.11,2.53,3.11a2.91,2.91,0,0,0,1.89-.8l.39.54a3.58,3.58,0,0,1-2.32.94C80.57,298.55,79.14,297.16,79.14,294.76Z"/><path d="M86.52,287.56h.79v4.68a3.53,3.53,0,0,1,2.47-1.3c1.51,0,2.2.93,2.2,2.8v4.63h-.78v-4.53c0-1.5-.48-2.2-1.59-2.2A3.15,3.15,0,0,0,87.31,293v5.42h-.79Z"/><path d="M94,296.55c0-1.6,1.42-2.37,4.62-2.73,0-1.08-.29-2.19-1.66-2.19a3.91,3.91,0,0,0-2.28.83l-.36-.57a5.06,5.06,0,0,1,2.75-.95c1.73,0,2.34,1.23,2.34,2.84v4.59h-.67l-.08-.92h0a4.14,4.14,0,0,1-2.53,1.1A1.91,1.91,0,0,1,94,296.55Zm4.62.2V294.4c-2.86.33-3.83,1-3.83,2.11a1.3,1.3,0,0,0,1.48,1.37A3.57,3.57,0,0,0,98.65,296.75Z"/><path d="M101.08,297.56l.42-.57a3.42,3.42,0,0,0,2.29.91c1.1,0,1.66-.63,1.66-1.38s-.92-1.25-1.76-1.55c-1.07-.38-2.21-.83-2.21-2.08,0-1.06.84-1.95,2.37-1.95a3.45,3.45,0,0,1,2.11.77l-.42.54a2.74,2.74,0,0,0-1.7-.65c-1.09,0-1.58.6-1.58,1.25s.79,1.1,1.64,1.42c1.11.42,2.33.81,2.33,2.21,0,1.12-.88,2.07-2.48,2.07A4.32,4.32,0,0,1,101.08,297.56Z"/><path d="M107.51,294.76c0-2.36,1.55-3.82,3.18-3.82s2.8,1.25,2.8,3.37a3.48,3.48,0,0,1,0,.57h-5.14c0,1.77,1.09,3,2.65,3a3.28,3.28,0,0,0,1.94-.62l.29.58a4,4,0,0,1-2.31.71C109,298.55,107.51,297.13,107.51,294.76Zm5.26-.51c0-1.75-.8-2.63-2.06-2.63a2.57,2.57,0,0,0-2.4,2.63Z"/><path d="M114.83,294.76c0-2.34,1.49-3.82,3.2-3.82a3.26,3.26,0,0,1,2.17.88l-.06-1.31v-2.95h.79v10.81h-.65l-.08-.91h0a3.36,3.36,0,0,1-2.33,1.09C116,298.55,114.83,297.19,114.83,294.76Zm5.31,1.95v-4.18a2.86,2.86,0,0,0-2-.9c-1.39,0-2.45,1.34-2.45,3.13s.83,3.1,2.3,3.1A3,3,0,0,0,120.14,296.71Z"/><path d="M132,294.58l-2.24-3.45h.87l1.12,1.78c.24.4.5.8.77,1.19h.05c.25-.39.48-.79.73-1.19l1.07-1.78h.83l-2.24,3.53,2.44,3.71h-.88l-1.24-1.91a12.15,12.15,0,0,0-.83-1.32h-.06c-.28.42-.54.87-.82,1.32l-1.17,1.91h-.84Z"/><path d="M136.2,297.88c3.1-3.14,4.69-4.91,4.69-6.56a1.88,1.88,0,0,0-2-2.07,3,3,0,0,0-2.2,1.22l-.5-.47a3.66,3.66,0,0,1,2.78-1.43,2.54,2.54,0,0,1,2.75,2.72c0,1.89-1.71,3.72-4.31,6.46.53,0,1.1-.08,1.63-.08h3.16v.7h-6Z"/><path class="cls-9" d="M333.26,298.17a4.53,4.53,0,0,1-2.61-1.19l.42-.58a3.68,3.68,0,0,0,2.47,1.08,1.75,1.75,0,0,0,2-1.83c0-2.94-4.46-2.16-4.46-5.28a2.43,2.43,0,0,1,2.22-2.46v-1.54h.67v1.54a3,3,0,0,1,2.13,1.13l-.46.5a2.45,2.45,0,0,0-2-.92,1.65,1.65,0,0,0-1.75,1.7c0,2.61,4.44,1.77,4.44,5.27a2.5,2.5,0,0,1-2.38,2.58v1.54h-.67Z"/><path class="cls-9" d="M346.19,288.81H341v-.73h6.16v.51c-2.37,3.09-2.93,5.54-3.08,9.41h-.89A15.3,15.3,0,0,1,346.19,288.81Z"/><path class="cls-9" d="M348.59,293c0-3.3,1.09-5.11,3-5.11s3,1.82,3,5.11-1.1,5.17-3,5.17S348.59,296.3,348.59,293Zm5.19,0c0-3-.87-4.41-2.18-4.41s-2.2,1.42-2.2,4.41.87,4.49,2.2,4.49S353.78,296,353.78,293Z"/><rect class="cls-2" x="10" y="338" width="355" height="101" rx="3"/><path class="cls-5" d="M23.91,349.1H20.78v-1h7.44v1H25.08v9.27H23.91Z"/><path class="cls-5" d="M30.08,348.12h1.43l2,5.6c.26.73.49,1.46.75,2.19h.07c.25-.73.47-1.46.71-2.19l2-5.6h1.43v10.25H37.4v-5.92c0-.87.09-2.08.14-3h0l-.82,2.32-2,5.52h-.8l-2-5.52L31,349.48H31c.05.89.14,2.1.14,3v5.92H30.08Z"/><path class="cls-5" d="M43.7,357l.7-.8a4,4,0,0,0,2.87,1.3c1.4,0,2.26-.71,2.26-1.76s-.77-1.46-1.75-1.89l-1.49-.66a2.88,2.88,0,0,1-2.09-2.61c0-1.55,1.35-2.67,3.17-2.67a4.09,4.09,0,0,1,3,1.26l-.61.74a3.31,3.31,0,0,0-2.37-1c-1.19,0-2,.6-2,1.57s.92,1.44,1.71,1.78l1.48.63c1.18.52,2.13,1.22,2.13,2.74s-1.33,2.87-3.44,2.87A4.77,4.77,0,0,1,43.7,357Z"/><path class="cls-5" d="M52.49,356.09v-4.34H51.34v-.87l1.19-.07.14-2.14h1v2.14h2.08v.94H53.63v4.38c0,.93.28,1.49,1.19,1.49a2.42,2.42,0,0,0,.88-.21l.22.86a4.58,4.58,0,0,1-1.34.28C53,358.55,52.49,357.56,52.49,356.09Z"/><path class="cls-5" d="M56.65,354.59c0-2.52,1.62-4,3.47-4s3.49,1.46,3.49,4-1.64,4-3.49,4S56.65,357.1,56.65,354.59Zm5.78,0c0-1.79-1-3-2.31-3s-2.29,1.22-2.29,3,.93,3,2.29,3S62.43,356.4,62.43,354.59Z"/><path class="cls-5" d="M65.67,350.81h.92l.11,1.38h0a2.62,2.62,0,0,1,2.15-1.58,1.56,1.56,0,0,1,.79.17l-.22,1a2,2,0,0,0-.71-.12c-.65,0-1.43.48-2,1.79v4.93H65.67Z"/><path class="cls-5" d="M70.23,354.59c0-2.45,1.64-4,3.37-4,1.9,0,3,1.36,3,3.55a3.37,3.37,0,0,1-.06.68H71.36a2.62,2.62,0,0,0,2.6,2.8,3.29,3.29,0,0,0,1.91-.61l.42.75a4.37,4.37,0,0,1-2.48.77C71.83,358.55,70.23,357.08,70.23,354.59Zm5.35-.59c0-1.61-.73-2.46-2-2.46A2.43,2.43,0,0,0,71.35,354Z"/><line class="cls-6" x1="20" y1="384.5" x2="355" y2="384.5"/><path class="cls-7" d="M328.08,350.81H329l.11.88h0a4.17,4.17,0,0,1,2.44-1.08c2,0,3,1.53,3,3.85,0,2.6-1.56,4.09-3.31,4.09a3.55,3.55,0,0,1-2.13-.88l0,1.33v2.62h-1.13Zm5.35,3.67c0-1.71-.59-2.9-2.1-2.9a3.31,3.31,0,0,0-2.12,1.09v4.09a3,3,0,0,0,1.93.83C332.46,357.59,333.43,356.4,333.43,354.48Z"/><path class="cls-7" d="M336,356.42c0-1.65,1.44-2.46,4.69-2.82,0-1-.3-2-1.61-2a4,4,0,0,0-2.29.85l-.47-.8a5.49,5.49,0,0,1,2.95-1c1.83,0,2.56,1.25,2.56,3.07v4.69h-.94l-.1-.92h0a4.09,4.09,0,0,1-2.55,1.1A2,2,0,0,1,336,356.42Zm4.69.16v-2.21c-2.67.3-3.58.95-3.58,2a1.23,1.23,0,0,0,1.4,1.28A3.23,3.23,0,0,0,340.66,356.58Z"/><path class="cls-7" d="M344.06,348.38a.8.8,0,1,1,.8.8A.75.75,0,0,1,344.06,348.38Zm.23,2.43h1.13v7.56h-1.13Z"/><path class="cls-7" d="M347.48,354.59c0-2.44,1.55-4,3.29-4a3.17,3.17,0,0,1,2.17.9l-.05-1.32v-3H354v11.15h-.94l-.1-.91h0a3.38,3.38,0,0,1-2.34,1.09C348.7,358.55,347.48,357.13,347.48,354.59Zm5.41,1.92v-4.09a2.84,2.84,0,0,0-1.94-.84c-1.29,0-2.28,1.25-2.28,3s.78,3,2.17,3A2.85,2.85,0,0,0,352.89,356.51Z"/><path class="cls-8" d="M20.87,376.09c2.74-2.77,4.14-4.33,4.14-5.79a1.65,1.65,0,0,0-1.79-1.82,2.57,2.57,0,0,0-1.94,1.08l-.44-.42a3.24,3.24,0,0,1,2.45-1.26,2.25,2.25,0,0,1,2.43,2.4c0,1.66-1.51,3.28-3.8,5.69.46,0,1-.07,1.44-.07h2.78v.62H20.87Z"/><path class="cls-8" d="M27.39,372.25c0-2.83.93-4.37,2.58-4.37s2.56,1.56,2.56,4.37-.93,4.43-2.56,4.43S27.39,375.07,27.39,372.25Zm4.45,0c0-2.56-.75-3.77-1.87-3.77s-1.89,1.21-1.89,3.77.75,3.84,1.89,3.84S31.84,374.82,31.84,372.25Z"/><path class="cls-8" d="M34.28,375.91h2v-6.85H34.73v-.46A4.59,4.59,0,0,0,36.4,368H37v7.88h1.83v.61H34.28Z"/><path class="cls-8" d="M40.13,374.35A2.84,2.84,0,0,1,41.8,372v-.05A2.39,2.39,0,0,1,40.6,370a2.11,2.11,0,0,1,2.26-2.1,2.13,2.13,0,0,1,2.31,2.22,3,3,0,0,1-1.2,2.13v.06a2.51,2.51,0,0,1,1.49,2.17,2.37,2.37,0,0,1-2.62,2.22A2.47,2.47,0,0,1,40.13,374.35Zm4.63.1c0-1.27-1.23-1.7-2.54-2.22a2.51,2.51,0,0,0-1.43,2.09,1.89,1.89,0,0,0,2.05,1.8A1.74,1.74,0,0,0,44.76,374.45Zm-.24-4.33a1.61,1.61,0,0,0-1.68-1.68A1.5,1.5,0,0,0,41.27,370c0,1.16,1.09,1.64,2.19,2.06A2.52,2.52,0,0,0,44.52,370.12Z"/><path class="cls-8" d="M46.55,372.91h3v.59h-3Z"/><path class="cls-8" d="M51.11,375.91h2v-6.85H51.57v-.46a4.59,4.59,0,0,0,1.67-.57h.56v7.88h1.82v.61H51.11Z"/><path class="cls-8" d="M57,376.09c2.73-2.77,4.14-4.33,4.14-5.79a1.66,1.66,0,0,0-1.79-1.82,2.55,2.55,0,0,0-1.94,1.08l-.45-.42a3.25,3.25,0,0,1,2.46-1.26,2.24,2.24,0,0,1,2.42,2.4c0,1.66-1.51,3.28-3.8,5.69.47,0,1-.07,1.44-.07h2.78v.62H57Z"/><path class="cls-8" d="M63.39,372.91h3v.59h-3Z"/><path class="cls-8" d="M67.38,376.09c2.74-2.77,4.14-4.33,4.14-5.79a1.65,1.65,0,0,0-1.79-1.82,2.57,2.57,0,0,0-1.94,1.08l-.44-.42a3.25,3.25,0,0,1,2.46-1.26,2.24,2.24,0,0,1,2.42,2.4c0,1.66-1.51,3.28-3.8,5.69.46,0,1-.07,1.44-.07h2.78v.62H67.38Z"/><path class="cls-8" d="M73.6,375.54l.38-.49a2.94,2.94,0,0,0,2.29,1,2.08,2.08,0,0,0,2-2.21,1.91,1.91,0,0,0-2-2.12,2.56,2.56,0,0,0-1.55.55l-.45-.26.3-4h4v.63H75.23L75,371.59a2.7,2.7,0,0,1,1.46-.41A2.41,2.41,0,0,1,79,373.84a2.7,2.7,0,0,1-2.73,2.84A3.6,3.6,0,0,1,73.6,375.54Z"/><path class="cls-8" d="M86.12,375.91h2v-6.85H86.57v-.46a4.59,4.59,0,0,0,1.67-.57h.56v7.88h1.83v.61H86.12Z"/><path class="cls-8" d="M91.77,375.54l.38-.49a2.94,2.94,0,0,0,2.29,1,2.09,2.09,0,0,0,2-2.21,1.91,1.91,0,0,0-2-2.12,2.56,2.56,0,0,0-1.55.55l-.46-.26.31-4h4v.63H93.4l-.25,2.93a2.7,2.7,0,0,1,1.46-.41,2.41,2.41,0,0,1,2.59,2.66,2.7,2.7,0,0,1-2.73,2.84A3.6,3.6,0,0,1,91.77,375.54Z"/><path class="cls-8" d="M98.74,371a.61.61,0,1,1,.61.65A.62.62,0,0,1,98.74,371Zm0,5a.61.61,0,1,1,1.22,0,.61.61,0,1,1-1.22,0Z"/><path class="cls-8" d="M101.19,375.54l.38-.49a2.94,2.94,0,0,0,2.29,1,2.09,2.09,0,0,0,2-2.21,1.91,1.91,0,0,0-2-2.12,2.56,2.56,0,0,0-1.55.55l-.46-.26.31-4h4v.63h-3.37l-.25,2.93a2.7,2.7,0,0,1,1.46-.41,2.41,2.41,0,0,1,2.59,2.66,2.7,2.7,0,0,1-2.73,2.84A3.6,3.6,0,0,1,101.19,375.54Z"/><path class="cls-8" d="M107.61,375.54l.38-.49a2.93,2.93,0,0,0,2.29,1,2.09,2.09,0,0,0,2-2.21,1.91,1.91,0,0,0-2-2.12,2.56,2.56,0,0,0-1.55.55l-.46-.26.3-4h4v.63h-3.37l-.25,2.93a2.7,2.7,0,0,1,1.46-.41,2.41,2.41,0,0,1,2.59,2.66,2.71,2.71,0,0,1-2.74,2.84A3.59,3.59,0,0,1,107.61,375.54Z"/><path class="cls-8" d="M114.58,371a.61.61,0,1,1,.61.65A.62.62,0,0,1,114.58,371Zm0,5a.61.61,0,1,1,1.22,0,.61.61,0,1,1-1.22,0Z"/><path class="cls-8" d="M117,375.54l.38-.49a2.93,2.93,0,0,0,2.29,1,2.09,2.09,0,0,0,2-2.21,1.91,1.91,0,0,0-2-2.12,2.56,2.56,0,0,0-1.55.55l-.46-.26.3-4h4v.63h-3.37l-.25,2.93a2.7,2.7,0,0,1,1.46-.41,2.41,2.41,0,0,1,2.59,2.66,2.71,2.71,0,0,1-2.74,2.84A3.59,3.59,0,0,1,117,375.54Z"/><path class="cls-8" d="M123.45,375.54l.38-.49a2.93,2.93,0,0,0,2.29,1,2.09,2.09,0,0,0,2-2.21,1.91,1.91,0,0,0-2-2.12,2.56,2.56,0,0,0-1.55.55l-.46-.26.3-4h4v.63h-3.37l-.25,2.93a2.7,2.7,0,0,1,1.46-.41,2.41,2.41,0,0,1,2.59,2.66,2.71,2.71,0,0,1-2.74,2.84A3.59,3.59,0,0,1,123.45,375.54Z"/><path d="M21.77,400.46h.82v9.91h-.82Z"/><path d="M25.57,408.31v-4.52H24.44v-.6l1.15-.06.1-2.1h.67v2.1h2.08v.66H26.36v4.57c0,.91.24,1.51,1.21,1.51a2.33,2.33,0,0,0,.88-.22l.19.63a4,4,0,0,1-1.21.27C26,410.55,25.57,409.65,25.57,408.31Z"/><path d="M29.4,406.76c0-2.36,1.55-3.82,3.18-3.82s2.8,1.25,2.8,3.37a3.48,3.48,0,0,1,0,.57H30.2c0,1.77,1.09,3,2.65,3a3.22,3.22,0,0,0,1.93-.62l.3.58a4,4,0,0,1-2.31.71C30.91,410.55,29.4,409.13,29.4,406.76Zm5.26-.51c0-1.75-.8-2.63-2.07-2.63a2.57,2.57,0,0,0-2.39,2.63Z"/><path d="M37.31,403.13H38l.1,1.1h0a3.34,3.34,0,0,1,2.28-1.29,1.87,1.87,0,0,1,2,1.46,3.6,3.6,0,0,1,2.45-1.46c1.45,0,2.17.93,2.17,2.8v4.63H46.2v-4.53c0-1.5-.5-2.2-1.56-2.2A3.06,3.06,0,0,0,42.55,405v5.42h-.79v-4.53c0-1.5-.49-2.2-1.57-2.2A3.06,3.06,0,0,0,38.1,405v5.42h-.79Z"/><path d="M48.72,409.56l.42-.57a3.4,3.4,0,0,0,2.28.91c1.1,0,1.66-.63,1.66-1.38s-.91-1.25-1.75-1.55c-1.08-.38-2.22-.83-2.22-2.08,0-1.06.84-1.95,2.38-1.95a3.48,3.48,0,0,1,2.11.77l-.42.54a2.76,2.76,0,0,0-1.7-.65c-1.09,0-1.58.6-1.58,1.25s.79,1.1,1.63,1.42c1.12.42,2.34.81,2.34,2.21,0,1.12-.88,2.07-2.49,2.07A4.27,4.27,0,0,1,48.72,409.56Z"/><path d="M58.76,403.13h.66l.09.88h0A4.25,4.25,0,0,1,62,402.94c1.93,0,2.91,1.46,2.91,3.69,0,2.48-1.5,3.92-3.2,3.92a3.56,3.56,0,0,1-2.13-.88v3.94h-.79Zm5.27,3.5c0-1.74-.6-3-2.22-3a3.69,3.69,0,0,0-2.26,1.15V409a3.38,3.38,0,0,0,2.06.89C63,409.86,64,408.58,64,406.63Z"/><path d="M66.88,407.76v-4.63h.79v4.54c0,1.48.46,2.17,1.57,2.17.85,0,1.45-.43,2.26-1.41v-5.3h.79v7.24h-.67l-.06-1.19h0a3.22,3.22,0,0,1-2.44,1.37C67.56,410.55,66.88,409.62,66.88,407.76Z"/><path d="M75,403.13h.65l.1,1.34h0a2.49,2.49,0,0,1,2.06-1.53,1.48,1.48,0,0,1,.73.16l-.16.71a1.49,1.49,0,0,0-.67-.13c-.64,0-1.41.48-1.94,1.82v4.87H75Z"/><path d="M79.14,406.76c0-2.42,1.57-3.82,3.36-3.82a3.06,3.06,0,0,1,2.12.88l-.45.54a2.39,2.39,0,0,0-1.66-.73c-1.44,0-2.54,1.28-2.54,3.13s1,3.11,2.53,3.11a2.91,2.91,0,0,0,1.89-.8l.39.54a3.58,3.58,0,0,1-2.32.94C80.57,410.55,79.14,409.16,79.14,406.76Z"/><path d="M86.52,399.56h.79v4.68a3.53,3.53,0,0,1,2.47-1.3c1.51,0,2.2.93,2.2,2.8v4.63h-.78v-4.53c0-1.5-.48-2.2-1.59-2.2A3.15,3.15,0,0,0,87.31,405v5.42h-.79Z"/><path d="M94,408.55c0-1.6,1.42-2.37,4.62-2.73,0-1.08-.29-2.19-1.66-2.19a3.91,3.91,0,0,0-2.28.83l-.36-.57a5.06,5.06,0,0,1,2.75-.95c1.73,0,2.34,1.23,2.34,2.84v4.59h-.67l-.08-.92h0a4.14,4.14,0,0,1-2.53,1.1A1.91,1.91,0,0,1,94,408.55Zm4.62.2V406.4c-2.86.33-3.83,1-3.83,2.11a1.3,1.3,0,0,0,1.48,1.37A3.57,3.57,0,0,0,98.65,408.75Z"/><path d="M101.08,409.56l.42-.57a3.42,3.42,0,0,0,2.29.91c1.1,0,1.66-.63,1.66-1.38s-.92-1.25-1.76-1.55c-1.07-.38-2.21-.83-2.21-2.08,0-1.06.84-1.95,2.37-1.95a3.45,3.45,0,0,1,2.11.77l-.42.54a2.74,2.74,0,0,0-1.7-.65c-1.09,0-1.58.6-1.58,1.25s.79,1.1,1.64,1.42c1.11.42,2.33.81,2.33,2.21,0,1.12-.88,2.07-2.48,2.07A4.32,4.32,0,0,1,101.08,409.56Z"/><path d="M107.51,406.76c0-2.36,1.55-3.82,3.18-3.82s2.8,1.25,2.8,3.37a3.48,3.48,0,0,1,0,.57h-5.14c0,1.77,1.09,3,2.65,3a3.28,3.28,0,0,0,1.94-.62l.29.58a4,4,0,0,1-2.31.71C109,410.55,107.51,409.13,107.51,406.76Zm5.26-.51c0-1.75-.8-2.63-2.06-2.63a2.57,2.57,0,0,0-2.4,2.63Z"/><path d="M114.83,406.76c0-2.34,1.49-3.82,3.2-3.82a3.26,3.26,0,0,1,2.17.88l-.06-1.31v-2.95h.79v10.81h-.65l-.08-.91h0a3.36,3.36,0,0,1-2.33,1.09C116,410.55,114.83,409.19,114.83,406.76Zm5.31,1.95v-4.18a2.86,2.86,0,0,0-2-.9c-1.39,0-2.45,1.34-2.45,3.13s.83,3.1,2.3,3.1A3,3,0,0,0,120.14,408.71Z"/><path d="M132,406.58l-2.24-3.45h.87l1.12,1.78c.24.4.5.8.77,1.19h.05c.25-.39.48-.79.73-1.19l1.07-1.78h.83l-2.24,3.53,2.44,3.71h-.88l-1.24-1.91a12.15,12.15,0,0,0-.83-1.32h-.06c-.28.42-.54.87-.82,1.32l-1.17,1.91h-.84Z"/><path d="M136.2,409.88c3.1-3.14,4.69-4.91,4.69-6.56a1.88,1.88,0,0,0-2-2.07,3,3,0,0,0-2.2,1.22l-.5-.47a3.66,3.66,0,0,1,2.78-1.43,2.54,2.54,0,0,1,2.75,2.72c0,1.89-1.71,3.72-4.31,6.46.53,0,1.1-.08,1.63-.08h3.16v.7h-6Z"/><path class="cls-9" d="M333.26,410.17a4.53,4.53,0,0,1-2.61-1.19l.42-.58a3.68,3.68,0,0,0,2.47,1.08,1.75,1.75,0,0,0,2-1.83c0-2.94-4.46-2.16-4.46-5.28a2.43,2.43,0,0,1,2.22-2.46v-1.54h.67v1.54a3,3,0,0,1,2.13,1.13l-.46.5a2.45,2.45,0,0,0-2-.92,1.65,1.65,0,0,0-1.75,1.7c0,2.61,4.44,1.77,4.44,5.27a2.5,2.5,0,0,1-2.38,2.58v1.54h-.67Z"/><path class="cls-9" d="M346.19,400.81H341v-.73h6.16v.51c-2.37,3.09-2.93,5.54-3.08,9.41h-.89A15.3,15.3,0,0,1,346.19,400.81Z"/><path class="cls-9" d="M348.59,405c0-3.3,1.09-5.11,3-5.11s3,1.82,3,5.11-1.1,5.17-3,5.17S348.59,408.3,348.59,405Zm5.19,0c0-3-.87-4.41-2.18-4.41s-2.2,1.42-2.2,4.41.87,4.49,2.2,4.49S353.78,408,353.78,405Z"/></svg>