<svg id="圖層_1" data-name="圖層 1" xmlns="http://www.w3.org/2000/svg" viewBox="0 0 375 667"><defs><style>.cls-1{fill:#f0efed;}.cls-2{fill:#fff;}.cls-3{fill:#555;}.cls-4{fill:#ed1c24;}.cls-5{fill:#095ba5;}.cls-6{fill:#1e5bc1;}.cls-7{fill:none;stroke:#ededed;stroke-miterlimit:10;}.cls-8{fill:#aeaeae;}.cls-9{fill:#f80202;}</style></defs><title>sg_checkout-carrefourpay 複本</title><rect class="cls-1" width="375" height="667"/><rect class="cls-2" width="375" height="54"/><rect class="cls-2" width="54" height="54"/><path class="cls-3" d="M23.2,27,33.25,17a1.15,1.15,0,0,0-1.62-1.62L20.87,26.09l-.12.08a1.21,1.21,0,0,0,0,1.66l.12.08L31.63,38.66A1.15,1.15,0,0,0,33.25,37Z"/><path class="cls-3" d="M119.05,33.07l1.12-1.26a5.68,5.68,0,0,0,4,1.82c1.92,0,3.08-1,3.08-2.4s-1.06-2-2.44-2.6l-2.12-.92c-1.36-.58-3-1.62-3-3.76s2-3.9,4.62-3.9a6,6,0,0,1,4.32,1.82l-1,1.18a4.75,4.75,0,0,0-3.34-1.38c-1.66,0-2.74.84-2.74,2.16s1.28,2,2.42,2.44l2.1.9c1.7.74,3,1.74,3,3.92s-1.92,4.16-5,4.16A7,7,0,0,1,119.05,33.07Z"/><path class="cls-3" d="M135.25,31.19c0-2,1.38-3.2,2.88-4.24a7.79,7.79,0,0,1-1-3.42,3.31,3.31,0,0,1,3.38-3.48,2.7,2.7,0,0,1,2.88,2.9c0,1.92-1.66,3.16-3.3,4.34a17.87,17.87,0,0,0,3.72,4.14,12.51,12.51,0,0,0,2.08-4.34h1.69a15.63,15.63,0,0,1-2.57,5.24,9,9,0,0,0,2.74,1.4l-.48,1.52A10.76,10.76,0,0,1,144,33.57a6.11,6.11,0,0,1-4.24,1.68C137.05,35.25,135.25,33.55,135.25,31.19Zm4.68,2.6a4.37,4.37,0,0,0,2.8-1.18,22.3,22.3,0,0,1-3.86-4.38c-1,.84-1.84,1.72-1.84,2.86A2.7,2.7,0,0,0,139.93,33.79Zm-.48-7.7c1.34-.9,2.5-1.8,2.5-3.1,0-.86-.4-1.64-1.38-1.64a1.91,1.91,0,0,0-1.82,2.14A6.11,6.11,0,0,0,139.45,26.09Z"/><path class="cls-3" d="M153.77,27.67c0-4.74,2.84-7.62,6.72-7.62a5.58,5.58,0,0,1,4.22,1.82l-1,1.2a4.11,4.11,0,0,0-3.18-1.4c-2.94,0-4.86,2.28-4.86,5.94s1.74,6,4.9,6a4,4,0,0,0,2.64-.86V28.93h-3.1V27.39h4.8v6.16a6.3,6.3,0,0,1-4.54,1.7C156.53,35.25,153.77,32.43,153.77,27.67Z"/><path class="cls-3" d="M171.89,29.57c0-3.62,2.46-5.72,5.24-5.72a4.64,4.64,0,0,1,3.18,1.28l-.94,1.2a3.21,3.21,0,0,0-2.16-1c-2,0-3.42,1.7-3.42,4.2s1.36,4.16,3.36,4.16a3.83,3.83,0,0,0,2.56-1.08l.8,1.22A5.27,5.27,0,0,1,177,35.25C174.11,35.25,171.89,33.17,171.89,29.57Z"/><path class="cls-3" d="M182.89,19.07h1.82v4.36l-.06,2.24a5.1,5.1,0,0,1,3.6-1.82c2.28,0,3.32,1.48,3.32,4.26V35h-1.82V28.35c0-2-.62-2.9-2.06-2.9-1.12,0-1.88.56-3,1.66V35h-1.82Z"/><path class="cls-3" d="M194.21,29.57c0-3.52,2.38-5.72,4.9-5.72,2.76,0,4.32,2,4.32,5.1a7.11,7.11,0,0,1-.08,1H196c.12,2.32,1.54,3.8,3.6,3.8a4.68,4.68,0,0,0,2.72-.86l.66,1.2a6.46,6.46,0,0,1-3.6,1.12C196.53,35.25,194.21,33.15,194.21,29.57Zm7.62-.9c0-2.18-1-3.36-2.7-3.36-1.54,0-2.9,1.24-3.12,3.36Z"/><path class="cls-3" d="M205.29,29.57c0-3.62,2.46-5.72,5.24-5.72a4.64,4.64,0,0,1,3.18,1.28l-.94,1.2a3.21,3.21,0,0,0-2.16-1c-2,0-3.42,1.7-3.42,4.2s1.36,4.16,3.36,4.16a3.83,3.83,0,0,0,2.56-1.08l.8,1.22a5.27,5.27,0,0,1-3.52,1.38C207.51,35.25,205.29,33.17,205.29,29.57Z"/><path class="cls-3" d="M216.29,19.07h1.8v10.8h.06l4.64-5.74h2l-3.64,4.36,4.12,6.5h-2l-3.18-5.24-2,2.38V35h-1.8Z"/><path class="cls-3" d="M226.11,29.57c0-3.62,2.38-5.72,5-5.72s5,2.1,5,5.72-2.38,5.68-5,5.68S226.11,33.17,226.11,29.57Zm8.2,0c0-2.5-1.28-4.2-3.16-4.2s-3.14,1.7-3.14,4.2,1.26,4.16,3.14,4.16S234.31,32.07,234.31,29.57Z"/><path class="cls-3" d="M238.91,31V24.13h1.82v6.66c0,2,.6,2.88,2,2.88,1.12,0,1.9-.54,2.94-1.84v-7.7h1.82V35H246l-.14-1.7h-.06a4.66,4.66,0,0,1-3.6,2C239.93,35.25,238.91,33.77,238.91,31Z"/><path class="cls-3" d="M251.51,31.63v-6h-1.62V24.23l1.7-.1.22-3.06h1.52v3.06h2.94v1.48h-2.94v6.06c0,1.34.42,2.1,1.68,2.1a3.85,3.85,0,0,0,1.24-.28l.36,1.36a6.84,6.84,0,0,1-2,.4C252.29,35.25,251.51,33.79,251.51,31.63Z"/><rect class="cls-2" x="10" y="65.15" width="355" height="78.85" rx="3"/><path d="M77.29,116.68c0-3.73,2.07-6,5-6a4,4,0,0,1,3.07,1.41l-.54.63a3.28,3.28,0,0,0-2.53-1.17c-2.47,0-4,2-4,5.14s1.52,5.22,4,5.22a3.73,3.73,0,0,0,2.9-1.41l.54.6a4.33,4.33,0,0,1-3.49,1.67C79.34,122.73,77.29,120.41,77.29,116.68Z"/><path d="M87.37,120.38c0-1.89,1.68-2.79,5.45-3.22,0-1.27-.34-2.58-2-2.58a4.63,4.63,0,0,0-2.69,1l-.41-.67A5.88,5.88,0,0,1,91,113.77c2,0,2.75,1.45,2.75,3.34v5.41H93l-.1-1.09h0a4.88,4.88,0,0,1-3,1.3A2.25,2.25,0,0,1,87.37,120.38Zm5.45.24v-2.77c-3.37.38-4.52,1.17-4.52,2.48A1.54,1.54,0,0,0,90.05,122,4.22,4.22,0,0,0,92.82,120.62Z"/><path d="M96.72,114h.77l.11,1.58h0a2.93,2.93,0,0,1,2.42-1.8,1.65,1.65,0,0,1,.86.19l-.19.83a1.84,1.84,0,0,0-.78-.14c-.76,0-1.67.56-2.29,2.14v5.73h-.93Z"/><path d="M102.46,114h.77l.11,1.58h0a2.94,2.94,0,0,1,2.42-1.8,1.69,1.69,0,0,1,.87.19l-.2.83a1.78,1.78,0,0,0-.78-.14c-.75,0-1.67.56-2.29,2.14v5.73h-.93Z"/><path d="M107.33,118.26c0-2.76,1.82-4.49,3.74-4.49,2.07,0,3.3,1.47,3.3,4a4.68,4.68,0,0,1-.05.67h-6c0,2.08,1.28,3.54,3.12,3.54a3.81,3.81,0,0,0,2.27-.74l.36.69a4.81,4.81,0,0,1-2.73.83C109.1,122.73,107.33,121.06,107.33,118.26Zm6.19-.59c0-2.06-.94-3.1-2.43-3.1s-2.64,1.15-2.82,3.1Z"/><path d="M116.78,114.78H115.6v-.71l1.18-.08V112.2c0-1.7.75-2.61,2.19-2.61a3.45,3.45,0,0,1,1.28.27l-.22.75a2.44,2.44,0,0,0-1-.24c-.91,0-1.31.67-1.31,1.88V114h1.94v.79h-1.94v7.74h-.93Z"/><path d="M120.53,118.26c0-2.84,1.79-4.49,3.85-4.49s3.86,1.65,3.86,4.49-1.79,4.47-3.86,4.47S120.53,121.1,120.53,118.26Zm6.75,0c0-2.17-1.23-3.68-2.9-3.68s-2.88,1.51-2.88,3.68,1.22,3.67,2.88,3.67S127.28,120.44,127.28,118.26Z"/><path d="M130.61,119.45V114h.92v5.35c0,1.74.55,2.56,1.86,2.56,1,0,1.7-.52,2.66-1.67V114H137v8.53h-.79l-.08-1.41h-.05a3.78,3.78,0,0,1-2.88,1.62C131.41,122.73,130.61,121.64,130.61,119.45Z"/><path d="M140.17,114h.77l.11,1.58h0a2.94,2.94,0,0,1,2.42-1.8,1.69,1.69,0,0,1,.87.19l-.2.83a1.78,1.78,0,0,0-.78-.14c-.75,0-1.66.56-2.29,2.14v5.73h-.93Z"/><path d="M149.56,110.85h3c2.64,0,4.26.87,4.26,3.28s-1.6,3.46-4.2,3.46h-2.12v4.93h-1Zm2.9,5.94c2.31,0,3.41-.78,3.41-2.66s-1.15-2.48-3.47-2.48h-1.87v5.14Z"/><path d="M157.84,120.38c0-1.89,1.68-2.79,5.44-3.22,0-1.27-.34-2.58-1.95-2.58a4.6,4.6,0,0,0-2.69,1l-.42-.67a5.91,5.91,0,0,1,3.23-1.12c2,0,2.76,1.45,2.76,3.34v5.41h-.79l-.09-1.09h0a4.86,4.86,0,0,1-3,1.3A2.25,2.25,0,0,1,157.84,120.38Zm5.44.24v-2.77c-3.36.38-4.52,1.17-4.52,2.48a1.55,1.55,0,0,0,1.75,1.62A4.22,4.22,0,0,0,163.28,120.62Z"/><path d="M166,126.19l.21-.79a2,2,0,0,0,.68.13c1,0,1.72-.93,2.13-2.16l.23-.72L165.79,114h1l2,5.22c.27.74.59,1.63.9,2.4h.08l.77-2.4,1.74-5.22h.94l-3.32,9.52c-.5,1.48-1.38,2.85-2.95,2.85A2.27,2.27,0,0,1,166,126.19Z"/><path class="cls-3" d="M21.47,74h.79l.1.76h0a3.54,3.54,0,0,1,2.08-.92c1.69,0,2.59,1.31,2.59,3.3,0,2.21-1.33,3.5-2.83,3.5a3,3,0,0,1-1.82-.76l0,1.14V83.3h-1Zm4.58,3.15c0-1.47-.5-2.48-1.8-2.48a2.82,2.82,0,0,0-1.81.93v3.5a2.63,2.63,0,0,0,1.66.71C25.23,79.85,26.05,78.83,26.05,77.19Z"/><path class="cls-3" d="M28.24,78.86c0-1.42,1.24-2.12,4-2.43,0-.87-.26-1.74-1.38-1.74a3.49,3.49,0,0,0-2,.72l-.39-.68A4.7,4.7,0,0,1,31,73.88c1.57,0,2.19,1.07,2.19,2.62v4h-.8l-.09-.79h0a3.49,3.49,0,0,1-2.19,1A1.74,1.74,0,0,1,28.24,78.86Zm4,.13v-1.9c-2.29.27-3.07.82-3.07,1.7a1.06,1.06,0,0,0,1.2,1.1A2.82,2.82,0,0,0,32.26,79Z"/><path class="cls-3" d="M34.64,83.22l.2-.79a1.48,1.48,0,0,0,.5.1c.75,0,1.23-.63,1.52-1.47l.14-.5L34.38,74h1l1.38,3.71c.21.56.43,1.24.65,1.82h.06c.18-.58.37-1.26.55-1.82L39.25,74h1l-2.47,7.08c-.43,1.24-1.1,2.23-2.36,2.23A2,2,0,0,1,34.64,83.22Z"/><path class="cls-3" d="M41.51,74h.79l.1,1h0a2.87,2.87,0,0,1,2-1.13,1.69,1.69,0,0,1,1.79,1.26,3.11,3.11,0,0,1,2.16-1.26c1.32,0,2,.87,2,2.53v4.11h-1v-4c0-1.25-.4-1.8-1.26-1.8a2.45,2.45,0,0,0-1.7,1.06v4.73h-1v-4c0-1.25-.4-1.8-1.28-1.8a2.49,2.49,0,0,0-1.69,1.06v4.73h-1Z"/><path class="cls-3" d="M52,77.28a3.11,3.11,0,0,1,2.89-3.4c1.62,0,2.55,1.16,2.55,3a2.6,2.6,0,0,1,0,.59H53a2.24,2.24,0,0,0,2.22,2.4,2.82,2.82,0,0,0,1.64-.53l.36.65a3.76,3.76,0,0,1-2.12.66A3.09,3.09,0,0,1,52,77.28Zm4.58-.5c0-1.38-.63-2.11-1.68-2.11A2.08,2.08,0,0,0,53,76.78Z"/><path class="cls-3" d="M59.13,74h.79L60,75h0a3.14,3.14,0,0,1,2.18-1.11c1.36,0,2,.87,2,2.53v4.11h-1v-4c0-1.25-.38-1.8-1.28-1.8a2.54,2.54,0,0,0-1.85,1.06v4.73h-1Z"/><path class="cls-3" d="M66.57,78.57V74.85h-1v-.74l1-.07.12-1.83h.82V74h1.79v.81H67.54V78.6c0,.79.24,1.28,1,1.28a2.12,2.12,0,0,0,.75-.18l.2.74a4,4,0,0,1-1.15.24C67,80.68,66.57,79.83,66.57,78.57Z"/><path class="cls-4" d="M30.09,108.46l-7.73,7.48a1.59,1.59,0,0,0-.63,1.26,1.61,1.61,0,0,0,.63,1.27l7.73,7.47a.21.21,0,0,0,.14.07.13.13,0,0,0,.12-.14.21.21,0,0,0-.07-.15,12.88,12.88,0,0,1-3.13-8.49,13,13,0,0,1,3.13-8.55.17.17,0,0,0,.07-.14.14.14,0,0,0-.12-.15.21.21,0,0,0-.14.07"/><path class="cls-5" d="M36,107.83c-3,0-4.21,4.29-4.21,9.4S33,126.57,36,126.57c1.82,0,3.36-1.06,3.37-1.94a.7.7,0,0,0-.24-.53,3.42,3.42,0,0,1-1.2-2.4,2.46,2.46,0,0,1,2.33-2.44A2.5,2.5,0,0,1,42.74,122a6.49,6.49,0,0,1-1.32,3.71.19.19,0,0,0,0,.12c0,.08,0,.15.11.15a.22.22,0,0,0,.15-.08l7.73-7.47A1.61,1.61,0,0,0,50,117.2a1.59,1.59,0,0,0-.63-1.26l-7.73-7.48a.21.21,0,0,0-.15-.07.13.13,0,0,0-.11.14.22.22,0,0,0,0,.13,6.44,6.44,0,0,1,1.32,3.71,2.49,2.49,0,0,1-2.45,2.77A2.46,2.46,0,0,1,38,112.7a3.44,3.44,0,0,1,1.2-2.4.7.7,0,0,0,.24-.53c0-.88-1.55-1.94-3.37-1.94"/><path class="cls-6" d="M321.13,120.8l.37-.5a3,3,0,0,0,2,.8c1,0,1.46-.55,1.46-1.21s-.8-1.1-1.54-1.37c-.95-.33-2-.73-2-1.83,0-.94.74-1.73,2.1-1.73a3.05,3.05,0,0,1,1.86.68l-.37.49a2.38,2.38,0,0,0-1.5-.58c-1,0-1.39.53-1.39,1.1s.69,1,1.44,1.25c1,.37,2.06.72,2.06,2,0,1-.78,1.82-2.2,1.82A3.79,3.79,0,0,1,321.13,120.8Z"/><path class="cls-6" d="M326.81,118.33c0-2.07,1.37-3.37,2.81-3.37s2.47,1.1,2.47,3a3.9,3.9,0,0,1,0,.5h-4.53a2.41,2.41,0,0,0,2.33,2.65,2.84,2.84,0,0,0,1.71-.55l.26.51a3.5,3.5,0,0,1-2,.63A3,3,0,0,1,326.81,118.33Zm4.64-.44c0-1.55-.71-2.33-1.82-2.33a2.27,2.27,0,0,0-2.11,2.33Z"/><path class="cls-6" d="M333.79,120.57V112h.7v8.66c0,.3.12.43.29.43a.85.85,0,0,0,.22,0l.11.56a1.61,1.61,0,0,1-.47.07C334.07,121.68,333.79,121.32,333.79,120.57Z"/><path class="cls-6" d="M336.47,118.33c0-2.07,1.37-3.37,2.81-3.37s2.47,1.1,2.47,3a3.9,3.9,0,0,1,0,.5h-4.53a2.41,2.41,0,0,0,2.33,2.65,2.84,2.84,0,0,0,1.71-.55l.26.51a3.5,3.5,0,0,1-2,.63A3,3,0,0,1,336.47,118.33Zm4.64-.44c0-1.55-.71-2.33-1.82-2.33a2.27,2.27,0,0,0-2.11,2.33Z"/><path class="cls-6" d="M342.92,118.33a3.06,3.06,0,0,1,3-3.37,2.74,2.74,0,0,1,1.87.78l-.4.48a2.09,2.09,0,0,0-1.46-.65c-1.27,0-2.24,1.13-2.24,2.76s.88,2.75,2.23,2.75a2.55,2.55,0,0,0,1.66-.71l.35.48a3.15,3.15,0,0,1-2,.83C344.18,121.68,342.92,120.46,342.92,118.33Z"/><path class="cls-6" d="M349.46,119.7v-4h-1v-.53l1-.06.08-1.85h.59v1.85H352v.59h-1.83v4c0,.8.22,1.33,1.07,1.33a2.18,2.18,0,0,0,.78-.19l.16.55a3.68,3.68,0,0,1-1.06.24C349.85,121.68,349.46,120.89,349.46,119.7Z"/><line class="cls-7" x1="20" y1="88.5" x2="355" y2="88.5"/><rect class="cls-2" y="475" width="375" height="192"/><rect class="cls-2" x="10" y="155.63" width="355" height="71.37" rx="3"/><path d="M21.23,191.74c0-2.85,1.84-4.5,3.95-4.5a3.6,3.6,0,0,1,2.5,1l-.53.64a2.82,2.82,0,0,0-1.95-.86c-1.7,0-3,1.5-3,3.68s1.18,3.67,3,3.67a3.45,3.45,0,0,0,2.23-.95l.46.64a4.2,4.2,0,0,1-2.74,1.11C22.91,196.21,21.23,194.57,21.23,191.74Z"/><path d="M28.88,191.74c0-2.85,1.79-4.5,3.85-4.5s3.86,1.65,3.86,4.5-1.79,4.47-3.86,4.47S28.88,194.57,28.88,191.74Zm6.75,0c0-2.18-1.23-3.68-2.9-3.68s-2.88,1.5-2.88,3.68,1.22,3.67,2.88,3.67S35.63,193.92,35.63,191.74Z"/><path d="M39,192.92v-5.45h.93v5.34c0,1.75.54,2.56,1.85,2.56,1,0,1.7-.51,2.66-1.66v-6.24h.93V196h-.79l-.08-1.41h0a3.81,3.81,0,0,1-2.89,1.62C39.76,196.21,39,195.12,39,192.92Z"/><path d="M48.53,187.47h.76l.12,1h0a5,5,0,0,1,2.85-1.27c2.27,0,3.42,1.73,3.42,4.36,0,2.91-1.76,4.61-3.76,4.61a4.21,4.21,0,0,1-2.51-1v4.64h-.92Zm6.19,4.13c0-2-.7-3.54-2.61-3.54a4.29,4.29,0,0,0-2.66,1.36v4.93a3.94,3.94,0,0,0,2.42,1C53.54,195.39,54.72,193.88,54.72,191.6Z"/><path d="M57.5,191.74c0-2.85,1.79-4.5,3.86-4.5s3.86,1.65,3.86,4.5-1.8,4.47-3.86,4.47S57.5,194.57,57.5,191.74Zm6.76,0c0-2.18-1.24-3.68-2.9-3.68s-2.88,1.5-2.88,3.68,1.21,3.67,2.88,3.67S64.26,193.92,64.26,191.74Z"/><path d="M67.71,187.47h.77l.11,1.29h0a4.21,4.21,0,0,1,2.91-1.52c1.78,0,2.6,1.11,2.6,3.3V196H73.2v-5.33c0-1.78-.56-2.6-1.87-2.6-1,0-1.7.52-2.69,1.54V196h-.93Z"/><path class="cls-3" d="M349.89,191.31,342.26,199a.85.85,0,0,0,0,1.23.87.87,0,0,0,1.23,0l8.17-8.18s.07,0,.09-.06a.92.92,0,0,0,0-1.26s-.06,0-.09-.06l-8.17-8.18a.87.87,0,0,0-1.23,1.24Z"/><path class="cls-8" d="M113.86,195l.49-.68a4,4,0,0,0,2.69,1.08c1.3,0,1.95-.74,1.95-1.62s-1.07-1.47-2.06-1.82c-1.26-.45-2.61-1-2.61-2.45,0-1.25,1-2.31,2.8-2.31a4,4,0,0,1,2.48.91l-.49.64a3.2,3.2,0,0,0-2-.76c-1.28,0-1.86.7-1.86,1.47,0,.94.93,1.29,1.92,1.66,1.31.5,2.75,1,2.75,2.61,0,1.31-1,2.44-2.93,2.44A5,5,0,0,1,113.86,195Z"/><path class="cls-8" d="M121.42,191.74c0-2.77,1.83-4.5,3.75-4.5s3.3,1.47,3.3,4a4.57,4.57,0,0,1-.05.67h-6c0,2.08,1.28,3.54,3.12,3.54a3.81,3.81,0,0,0,2.27-.74l.35.69a4.75,4.75,0,0,1-2.72.84C123.2,196.21,121.42,194.54,121.42,191.74Zm6.2-.59c0-2.07-1-3.11-2.43-3.11s-2.65,1.15-2.82,3.11Z"/><path class="cls-8" d="M130.74,194.73V183.27h.93v11.56c0,.4.16.58.38.58a1.12,1.12,0,0,0,.3,0l.15.74a1.82,1.82,0,0,1-.63.1C131.1,196.21,130.74,195.72,130.74,194.73Z"/><path class="cls-8" d="M134.3,191.74c0-2.77,1.83-4.5,3.75-4.5s3.3,1.47,3.3,4a4.57,4.57,0,0,1,0,.67h-6.05c.05,2.08,1.28,3.54,3.12,3.54a3.81,3.81,0,0,0,2.27-.74l.36.69a4.81,4.81,0,0,1-2.73.84C136.08,196.21,134.3,194.54,134.3,191.74Zm6.2-.59c0-2.07-.95-3.11-2.43-3.11s-2.65,1.15-2.82,3.11Z"/><path class="cls-8" d="M142.91,191.74c0-2.85,1.84-4.5,4-4.5a3.59,3.59,0,0,1,2.49,1l-.53.64a2.8,2.8,0,0,0-2-.86c-1.7,0-3,1.5-3,3.68s1.18,3.67,3,3.67a3.42,3.42,0,0,0,2.22-.95l.46.64a4.19,4.19,0,0,1-2.73,1.11C144.59,196.21,142.91,194.57,142.91,191.74Z"/><path class="cls-8" d="M151.63,193.56v-5.31H150.3v-.7l1.37-.08.11-2.47h.78v2.47H155v.78h-2.45v5.38c0,1.07.29,1.78,1.43,1.78a2.8,2.8,0,0,0,1-.26l.22.73a4.78,4.78,0,0,1-1.42.33C152.15,196.21,151.63,195.15,151.63,193.56Z"/><path class="cls-8" d="M159.9,191.74c0-2.85,1.85-4.5,4-4.5a3.59,3.59,0,0,1,2.49,1l-.52.64a2.84,2.84,0,0,0-2-.86c-1.69,0-3,1.5-3,3.68s1.19,3.67,3,3.67a3.4,3.4,0,0,0,2.22-.95l.47.64a4.24,4.24,0,0,1-2.74,1.11C161.58,196.21,159.9,194.57,159.9,191.74Z"/><path class="cls-8" d="M167.55,191.74c0-2.85,1.79-4.5,3.86-4.5s3.86,1.65,3.86,4.5-1.8,4.47-3.86,4.47S167.55,194.57,167.55,191.74Zm6.76,0c0-2.18-1.24-3.68-2.9-3.68s-2.88,1.5-2.88,3.68,1.21,3.67,2.88,3.67S174.31,193.92,174.31,191.74Z"/><path class="cls-8" d="M177.63,192.92v-5.45h.93v5.34c0,1.75.54,2.56,1.86,2.56,1,0,1.69-.51,2.65-1.66v-6.24H184V196h-.78l-.08-1.41h0a3.79,3.79,0,0,1-2.88,1.62C178.43,196.21,177.63,195.12,177.63,192.92Z"/><path class="cls-8" d="M187.2,187.47H188l.11,1h0a5,5,0,0,1,2.85-1.27c2.27,0,3.43,1.73,3.43,4.36,0,2.91-1.76,4.61-3.76,4.61a4.26,4.26,0,0,1-2.52-1l0,1.56v3.08h-.93Zm6.19,4.13c0-2-.7-3.54-2.6-3.54a4.27,4.27,0,0,0-2.66,1.36v4.93a3.89,3.89,0,0,0,2.42,1C192.21,195.39,193.39,193.88,193.39,191.6Z"/><path class="cls-8" d="M196.18,191.74c0-2.85,1.79-4.5,3.85-4.5s3.86,1.65,3.86,4.5-1.79,4.47-3.86,4.47S196.18,194.57,196.18,191.74Zm6.75,0c0-2.18-1.23-3.68-2.9-3.68s-2.88,1.5-2.88,3.68,1.22,3.67,2.88,3.67S202.93,193.92,202.93,191.74Z"/><path class="cls-8" d="M206.38,187.47h.77l.11,1.29h0a4.17,4.17,0,0,1,2.91-1.52c1.78,0,2.59,1.11,2.59,3.3V196h-.93v-5.33c0-1.78-.56-2.6-1.87-2.6-1,0-1.7.52-2.69,1.54V196h-.93Z"/><path class="cls-8" d="M218.72,191.74c0-2.85,1.79-4.5,3.86-4.5s3.85,1.65,3.85,4.5-1.79,4.47-3.85,4.47S218.72,194.57,218.72,191.74Zm6.75,0c0-2.18-1.23-3.68-2.89-3.68s-2.88,1.5-2.88,3.68,1.21,3.67,2.88,3.67S225.47,193.92,225.47,191.74Z"/><path class="cls-8" d="M228.93,187.47h.77l.11,1.58h0a2.94,2.94,0,0,1,2.42-1.81,1.75,1.75,0,0,1,.86.19l-.19.84a1.72,1.72,0,0,0-.79-.15c-.75,0-1.66.56-2.28,2.15V196h-.93Z"/><path class="cls-8" d="M238.22,187.47H239l.11,1h0a5,5,0,0,1,2.85-1.27c2.28,0,3.43,1.73,3.43,4.36,0,2.91-1.76,4.61-3.76,4.61a4.26,4.26,0,0,1-2.52-1l0,1.56v3.08h-.93Zm6.2,4.13c0-2-.71-3.54-2.61-3.54a4.27,4.27,0,0,0-2.66,1.36v4.93a3.89,3.89,0,0,0,2.42,1C243.23,195.39,244.42,193.88,244.42,191.6Z"/><path class="cls-8" d="M247.9,187.47h.77l.11,1.58h0a3,3,0,0,1,2.42-1.81,1.79,1.79,0,0,1,.87.19l-.2.84a1.65,1.65,0,0,0-.78-.15c-.75,0-1.66.56-2.29,2.15V196h-.93Z"/><path class="cls-8" d="M252.77,191.74c0-2.85,1.79-4.5,3.85-4.5s3.86,1.65,3.86,4.5-1.79,4.47-3.86,4.47S252.77,194.57,252.77,191.74Zm6.75,0c0-2.18-1.23-3.68-2.9-3.68s-2.88,1.5-2.88,3.68,1.22,3.67,2.88,3.67S259.52,193.92,259.52,191.74Z"/><path class="cls-8" d="M263,187.47h.77l.12,1.29h0a4,4,0,0,1,2.69-1.52,2.21,2.21,0,0,1,2.35,1.73,4.27,4.27,0,0,1,2.88-1.73c1.71,0,2.56,1.11,2.56,3.3V196h-.93v-5.33c0-1.78-.59-2.6-1.84-2.6a3.61,3.61,0,0,0-2.46,1.54V196h-.93v-5.33c0-1.78-.58-2.6-1.84-2.6a3.64,3.64,0,0,0-2.47,1.54V196H263Z"/><path class="cls-8" d="M276.73,191.74c0-2.85,1.8-4.5,3.86-4.5s3.86,1.65,3.86,4.5-1.79,4.47-3.86,4.47S276.73,194.57,276.73,191.74Zm6.76,0c0-2.18-1.23-3.68-2.9-3.68s-2.88,1.5-2.88,3.68,1.22,3.67,2.88,3.67S283.49,193.92,283.49,191.74Z"/><path class="cls-8" d="M289.79,191.74c0-2.85,1.84-4.5,3.95-4.5a3.6,3.6,0,0,1,2.5,1l-.53.64a2.82,2.82,0,0,0-1.95-.86c-1.7,0-3,1.5-3,3.68s1.18,3.67,3,3.67a3.45,3.45,0,0,0,2.23-.95l.46.64a4.19,4.19,0,0,1-2.73,1.11C291.47,196.21,289.79,194.57,289.79,191.74Z"/><path class="cls-8" d="M297.44,191.74c0-2.85,1.79-4.5,3.85-4.5s3.86,1.65,3.86,4.5-1.79,4.47-3.86,4.47S297.44,194.57,297.44,191.74Zm6.75,0c0-2.18-1.23-3.68-2.9-3.68s-2.88,1.5-2.88,3.68,1.22,3.67,2.88,3.67S304.19,193.92,304.19,191.74Z"/><path class="cls-8" d="M306.94,191.74c0-2.75,1.76-4.5,3.78-4.5a3.85,3.85,0,0,1,2.54,1l-.06-1.53v-3.48h.93V196h-.77l-.1-1.08h0a4,4,0,0,1-2.74,1.29C308.33,196.21,306.94,194.6,306.94,191.74Zm6.26,2.3v-4.93a3.44,3.44,0,0,0-2.39-1.05c-1.63,0-2.88,1.58-2.88,3.68s1,3.65,2.71,3.65A3.59,3.59,0,0,0,313.2,194Z"/><path class="cls-8" d="M316.62,191.74c0-2.77,1.83-4.5,3.75-4.5s3.3,1.47,3.3,4a4.57,4.57,0,0,1-.05.67h-6.05c0,2.08,1.28,3.54,3.12,3.54a3.81,3.81,0,0,0,2.27-.74l.35.69a4.8,4.8,0,0,1-2.72.84C318.4,196.21,316.62,194.54,316.62,191.74Zm6.2-.59c0-2.07-.95-3.11-2.44-3.11s-2.64,1.15-2.81,3.11Z"/><path class="cls-3" d="M20.56,507.54l.5-.67a4,4,0,0,0,2.69,1.07c1.29,0,1.95-.74,1.95-1.62s-1.07-1.47-2.07-1.82c-1.26-.45-2.61-1-2.61-2.45,0-1.25,1-2.31,2.81-2.31a4,4,0,0,1,2.48.92l-.5.64a3.21,3.21,0,0,0-2-.77c-1.28,0-1.86.7-1.86,1.47,0,.95.93,1.3,1.92,1.67,1.32.49,2.76,1,2.76,2.61,0,1.31-1,2.43-2.93,2.43A5,5,0,0,1,20.56,507.54Z"/><path class="cls-3" d="M28.71,505.43V500h.92v5.34c0,1.75.55,2.57,1.86,2.57,1,0,1.7-.52,2.66-1.67V500h.93v8.53h-.79l-.08-1.41h-.05a3.78,3.78,0,0,1-2.88,1.62C29.5,508.71,28.71,507.62,28.71,505.43Z"/><path class="cls-3" d="M39.17,507.64h0l-.12.86h-.75V495.77h.93v3.65l-.05,1.64A4.74,4.74,0,0,1,42,499.74c2.28,0,3.43,1.73,3.43,4.36,0,2.91-1.76,4.61-3.76,4.61A4.25,4.25,0,0,1,39.17,507.64Zm5.3-3.54c0-2.05-.71-3.54-2.61-3.54a4.2,4.2,0,0,0-2.66,1.36v4.93a3.83,3.83,0,0,0,2.42,1C43.28,507.89,44.47,506.39,44.47,504.1Z"/><path class="cls-3" d="M47.89,506.07v-5.32H46.56v-.7l1.36-.08L48,497.5h.79V500h2.45v.78H48.82v5.38c0,1.07.29,1.78,1.42,1.78a2.58,2.58,0,0,0,1-.26l.23.74a5,5,0,0,1-1.43.32C48.4,508.71,47.89,507.65,47.89,506.07Z"/><path class="cls-3" d="M52.4,504.24c0-2.85,1.79-4.5,3.86-4.5s3.86,1.65,3.86,4.5-1.8,4.47-3.86,4.47S52.4,507.08,52.4,504.24Zm6.76,0c0-2.17-1.24-3.68-2.9-3.68s-2.88,1.51-2.88,3.68,1.21,3.67,2.88,3.67S59.16,506.42,59.16,504.24Z"/><path class="cls-3" d="M62.58,506.07v-5.32H61.25v-.7l1.36-.08.11-2.47h.78V500H66v.78H63.5v5.38c0,1.07.29,1.78,1.43,1.78a2.58,2.58,0,0,0,1-.26l.22.74a5,5,0,0,1-1.42.32C63.09,508.71,62.58,507.65,62.58,506.07Z"/><path class="cls-3" d="M67,506.36c0-1.89,1.69-2.79,5.45-3.22,0-1.27-.34-2.58-2-2.58a4.63,4.63,0,0,0-2.69,1l-.41-.67a5.88,5.88,0,0,1,3.23-1.13c2,0,2.75,1.46,2.75,3.35v5.41h-.78l-.1-1.09h0a4.88,4.88,0,0,1-3,1.3A2.25,2.25,0,0,1,67,506.36Zm5.45.24v-2.77C69.1,504.21,68,505,68,506.31a1.53,1.53,0,0,0,1.75,1.61A4.2,4.2,0,0,0,72.47,506.6Z"/><path class="cls-3" d="M76.37,507.24V495.77h.93v11.56c0,.4.16.58.38.58a1.56,1.56,0,0,0,.31,0l.14.73a1.82,1.82,0,0,1-.63.1C76.74,508.71,76.37,508.23,76.37,507.24Z"/><path class="cls-3" d="M80.22,501.15A.82.82,0,1,1,81,502,.83.83,0,0,1,80.22,501.15Zm0,6.69a.82.82,0,1,1,.82.87A.83.83,0,0,1,80.22,507.84Z"/><path class="cls-3" d="M20.9,528.24c0-2.75,1.76-4.5,3.77-4.5a3.82,3.82,0,0,1,2.55,1l-.06-1.54v-3.48h.92V532.5h-.76l-.1-1.07h0a4,4,0,0,1-2.74,1.28C22.29,532.71,20.9,531.11,20.9,528.24Zm6.26,2.31v-4.93a3.43,3.43,0,0,0-2.39-1.06c-1.63,0-2.88,1.59-2.88,3.68s1,3.65,2.7,3.65A3.57,3.57,0,0,0,27.16,530.55Z"/><path class="cls-3" d="M31,521.18a.75.75,0,0,1,1.49,0,.75.75,0,1,1-1.49,0Zm.27,2.79h.93v8.53h-.93Z"/><path class="cls-3" d="M34.35,531.54l.5-.67a4,4,0,0,0,2.69,1.07c1.29,0,2-.74,2-1.62s-1.07-1.47-2.06-1.82c-1.27-.45-2.61-1-2.61-2.45,0-1.25,1-2.31,2.8-2.31a4,4,0,0,1,2.48.92l-.5.64a3.18,3.18,0,0,0-2-.77c-1.28,0-1.85.7-1.85,1.47,0,1,.92,1.3,1.92,1.67,1.31.49,2.75,1,2.75,2.61,0,1.31-1,2.43-2.93,2.43A5.06,5.06,0,0,1,34.35,531.54Z"/><path class="cls-3" d="M41.92,528.24c0-2.85,1.84-4.5,3.95-4.5a3.6,3.6,0,0,1,2.5,1l-.53.63a2.82,2.82,0,0,0-2-.86c-1.7,0-3,1.51-3,3.68s1.18,3.67,3,3.67A3.4,3.4,0,0,0,48.1,531l.46.64a4.19,4.19,0,0,1-2.73,1.11C43.6,532.71,41.92,531.08,41.92,528.24Z"/><path class="cls-3" d="M49.57,528.24c0-2.85,1.79-4.5,3.86-4.5s3.85,1.65,3.85,4.5-1.79,4.47-3.85,4.47S49.57,531.08,49.57,528.24Zm6.75,0c0-2.17-1.23-3.68-2.89-3.68s-2.89,1.51-2.89,3.68,1.22,3.67,2.89,3.67S56.32,530.42,56.32,528.24Z"/><path class="cls-3" d="M59.65,529.43V524h.93v5.34c0,1.75.54,2.57,1.85,2.57,1,0,1.7-.52,2.66-1.67V524H66v8.53h-.79l-.08-1.41h0a3.81,3.81,0,0,1-2.88,1.62C60.45,532.71,59.65,531.62,59.65,529.43Z"/><path class="cls-3" d="M69.22,524H70l.12,1.29h0A4.21,4.21,0,0,1,73,523.74c1.78,0,2.59,1.11,2.59,3.3v5.46h-.92v-5.33c0-1.78-.56-2.59-1.88-2.59-1,0-1.69.51-2.69,1.53v6.39h-.92Z"/><path class="cls-3" d="M78.91,530.07v-5.32H77.58v-.7l1.36-.08.12-2.47h.78V524h2.45v.78H79.84v5.38c0,1.07.29,1.78,1.43,1.78a2.66,2.66,0,0,0,1-.26l.22.74a5.06,5.06,0,0,1-1.42.32C79.42,532.71,78.91,531.65,78.91,530.07Z"/><path class="cls-3" d="M84.24,525.15a.82.82,0,1,1,.82.87A.83.83,0,0,1,84.24,525.15Zm0,6.69a.82.82,0,1,1,.82.87A.83.83,0,0,1,84.24,531.84Z"/><path class="cls-9" d="M330.32,508.69a5.08,5.08,0,0,1-3-1.36l.49-.66a4.18,4.18,0,0,0,2.81,1.24,2,2,0,0,0,2.24-2.1c0-3.36-5.09-2.46-5.09-6a2.75,2.75,0,0,1,2.53-2.8v-1.77h.77V497a3.42,3.42,0,0,1,2.43,1.28l-.52.57a2.83,2.83,0,0,0-2.26-1.05,1.89,1.89,0,0,0-2,2c0,3,5.07,2,5.07,6a2.84,2.84,0,0,1-2.72,2.94v1.76h-.77Z"/><path class="cls-9" d="M341.55,498h-5.9v-.83h7v.57c-2.7,3.54-3.34,6.34-3.52,10.76h-1C338.35,504,339.28,501.17,341.55,498Z"/><path class="cls-9" d="M344.29,502.8c0-3.78,1.25-5.84,3.44-5.84s3.42,2.08,3.42,5.84-1.24,5.91-3.42,5.91S344.29,506.56,344.29,502.8Zm5.94,0c0-3.42-1-5-2.5-5s-2.51,1.62-2.51,5,1,5.12,2.51,5.12S350.23,506.23,350.23,502.8Z"/><path class="cls-6" d="M330.27,527.68h3.94v.79h-3.94Z"/><path class="cls-6" d="M338.88,532.69a5,5,0,0,1-3-1.36l.48-.66a4.18,4.18,0,0,0,2.81,1.24,2,2,0,0,0,2.24-2.1c0-3.36-5.09-2.46-5.09-6a2.75,2.75,0,0,1,2.53-2.8v-1.77h.77V521a3.42,3.42,0,0,1,2.43,1.28l-.52.57a2.81,2.81,0,0,0-2.26-1.05,1.89,1.89,0,0,0-2,2c0,3,5.07,2,5.07,6a2.84,2.84,0,0,1-2.72,2.94v1.76h-.77Z"/><path class="cls-6" d="M344.29,526.8c0-3.78,1.25-5.84,3.44-5.84s3.43,2.08,3.43,5.84-1.25,5.91-3.43,5.91S344.29,530.56,344.29,526.8Zm5.94,0c0-3.42-1-5-2.5-5s-2.51,1.62-2.51,5,1,5.12,2.51,5.12S350.23,530.23,350.23,526.8Z"/><line class="cls-7" x1="20" y1="553.5" x2="355" y2="553.5"/><path class="cls-9" d="M328,583.69a5.76,5.76,0,0,1-3.11-1.37l.84-1.27a4.26,4.26,0,0,0,2.7,1.15c1.25,0,1.86-.62,1.86-1.66,0-2.59-4.95-2.15-4.95-5.57a3,3,0,0,1,2.66-3.11v-1.81h1.28v1.8a4.08,4.08,0,0,1,2.58,1.39l-.95,1.07a2.86,2.86,0,0,0-2.13-1,1.48,1.48,0,0,0-1.66,1.55c0,2.34,5,1.79,5,5.52a3.12,3.12,0,0,1-2.79,3.23v1.83H328Z"/><path class="cls-9" d="M339.44,573.59H333.9V572h7.59v1.12c-2.7,3.38-3.2,5.87-3.39,10.34h-1.89A16.6,16.6,0,0,1,339.44,573.59Z"/><path class="cls-9" d="M343,577.72c0-3.86,1.47-5.9,3.81-5.9s3.81,2.06,3.81,5.9-1.45,6-3.81,6S343,581.58,343,577.72Zm5.86,0c0-3.3-.85-4.45-2.05-4.45s-2.05,1.15-2.05,4.45.85,4.53,2.05,4.53S348.85,581,348.85,577.72Z"/><path class="cls-3" d="M21.81,581.07v-5.32H20.48v-.7l1.36-.08L22,572.5h.79V575h2.45v.78H22.74v5.38c0,1.07.29,1.78,1.42,1.78a2.58,2.58,0,0,0,1-.26l.23.74a5,5,0,0,1-1.43.32C22.32,583.71,21.81,582.65,21.81,581.07Z"/><path class="cls-3" d="M26.32,579.24c0-2.85,1.79-4.5,3.86-4.5s3.86,1.65,3.86,4.5-1.8,4.47-3.86,4.47S26.32,582.08,26.32,579.24Zm6.76,0c0-2.17-1.24-3.68-2.9-3.68s-2.88,1.51-2.88,3.68,1.21,3.67,2.88,3.67S33.08,581.42,33.08,579.24Z"/><path class="cls-3" d="M36.5,581.07v-5.32H35.17v-.7l1.36-.08.11-2.47h.78V575h2.45v.78H37.42v5.38c0,1.07.29,1.78,1.43,1.78a2.58,2.58,0,0,0,1-.26l.22.74a5,5,0,0,1-1.42.32C37,583.71,36.5,582.65,36.5,581.07Z"/><path class="cls-3" d="M40.94,581.36c0-1.89,1.69-2.79,5.45-3.22,0-1.27-.34-2.58-2-2.58a4.63,4.63,0,0,0-2.69,1l-.41-.67a5.88,5.88,0,0,1,3.23-1.13c2,0,2.75,1.46,2.75,3.35v5.41h-.78l-.1-1.09h0a4.88,4.88,0,0,1-3,1.3A2.25,2.25,0,0,1,40.94,581.36Zm5.45.24v-2.77c-3.37.38-4.52,1.16-4.52,2.48a1.53,1.53,0,0,0,1.75,1.61A4.2,4.2,0,0,0,46.39,581.6Z"/><path class="cls-3" d="M50.29,582.24V570.77h.93v11.56c0,.4.16.58.38.58a1.56,1.56,0,0,0,.31,0l.14.73a1.82,1.82,0,0,1-.63.1C50.66,583.71,50.29,583.23,50.29,582.24Z"/><path class="cls-3" d="M54.14,576.15A.82.82,0,1,1,55,577,.83.83,0,0,1,54.14,576.15Zm0,6.69a.82.82,0,1,1,.82.87A.83.83,0,0,1,54.14,582.84Z"/><rect class="cls-9" x="57.5" y="618" width="260" height="38" rx="19"/><path class="cls-2" d="M173.46,633.1h1.69l.17,1.08h.05a5,5,0,0,1,3.06-1.34c2.5,0,3.91,2,3.91,5,0,3.4-2,5.34-4.27,5.34a4.09,4.09,0,0,1-2.61-1.11l.07,1.69V647h-2.07Zm6.74,4.82c0-2.07-.67-3.35-2.33-3.35a3.43,3.43,0,0,0-2.34,1.21v4.84a3.3,3.3,0,0,0,2.14.9C179.11,641.52,180.2,640.25,180.2,637.92Z"/><path class="cls-2" d="M184,640.37c0-2.12,1.8-3.22,5.92-3.67,0-1.15-.43-2.16-1.89-2.16a5.4,5.4,0,0,0-2.86,1l-.78-1.41a7.58,7.58,0,0,1,4-1.3c2.47,0,3.6,1.57,3.6,4.2v6h-1.69l-.17-1.13H190a4.93,4.93,0,0,1-3.15,1.36A2.73,2.73,0,0,1,184,640.37Zm5.92.07V638c-2.94.34-3.93,1.1-3.93,2.22s.67,1.37,1.55,1.37A3.49,3.49,0,0,0,189.88,640.44Z"/><path class="cls-2" d="M194.09,646.94l.39-1.62a2.55,2.55,0,0,0,.73.15c1.08,0,1.71-.8,2.07-1.86l.19-.68-3.92-9.83h2.12l1.84,5.09c.29.89.59,1.88.9,2.79h.09l.77-2.79,1.59-5.09h2l-3.64,10.49c-.78,2.13-1.82,3.55-3.91,3.55A3.43,3.43,0,0,1,194.09,646.94Z"/></svg>