<svg id="圖層_1" data-name="圖層 1" xmlns="http://www.w3.org/2000/svg" viewBox="0 0 375 667"><defs><style>.cls-1{fill:#f0efed;}.cls-2,.cls-9{fill:#fff;}.cls-3{fill:#555;}.cls-4{fill:#333;}.cls-5{fill:#e81c24;}.cls-6{fill:none;stroke:#ededed;}.cls-6,.cls-9{stroke-miterlimit:10;}.cls-7{fill:#f0ad4e;}.cls-8{fill:#f80202;}.cls-9{stroke:#1e5bc1;}.cls-10{fill:#1e5bc1;}</style></defs><title>sg_order_details_paid</title><rect class="cls-1" width="375" height="667"/><rect class="cls-2" width="375" height="54"/><rect class="cls-2" width="54" height="54"/><path class="cls-3" d="M23.2,27,33.25,17a1.15,1.15,0,0,0-1.62-1.62L20.87,26.09l-.12.08a1.21,1.21,0,0,0,0,1.66l.12.08L31.63,38.66A1.15,1.15,0,0,0,33.25,37Z"/><path class="cls-3" d="M134.43,29.57c0-3.62,2.38-5.72,5-5.72s5,2.1,5,5.72-2.38,5.68-5,5.68S134.43,33.17,134.43,29.57Zm8.2,0c0-2.5-1.28-4.2-3.16-4.2s-3.14,1.7-3.14,4.2,1.26,4.16,3.14,4.16S142.63,32.07,142.63,29.57Z"/><path class="cls-3" d="M147.37,24.13h1.5l.16,2h.06a3.75,3.75,0,0,1,3.08-2.26,2.32,2.32,0,0,1,1.16.24l-.34,1.6a2.57,2.57,0,0,0-1.06-.18c-.9,0-2,.64-2.74,2.5v7h-1.82Z"/><path class="cls-3" d="M154.13,29.57c0-3.52,2.22-5.72,4.7-5.72a4.42,4.42,0,0,1,3.06,1.28l-.08-1.88V19.07h1.8V35h-1.48L162,33.71h-.06a4.84,4.84,0,0,1-3.3,1.54C155.89,35.25,154.13,33.19,154.13,29.57Zm7.68,2.66v-5.7a3.89,3.89,0,0,0-2.66-1.14c-1.76,0-3.14,1.68-3.14,4.16s1.08,4.18,3,4.18A3.8,3.8,0,0,0,161.81,32.23Z"/><path class="cls-3" d="M166.49,29.57c0-3.52,2.38-5.72,4.9-5.72,2.76,0,4.32,2,4.32,5.1a7.11,7.11,0,0,1-.08,1h-7.32c.12,2.32,1.54,3.8,3.6,3.8a4.68,4.68,0,0,0,2.72-.86l.66,1.2a6.46,6.46,0,0,1-3.6,1.12C168.81,35.25,166.49,33.15,166.49,29.57Zm7.62-.9c0-2.18-1-3.36-2.7-3.36-1.54,0-2.9,1.24-3.12,3.36Z"/><path class="cls-3" d="M178.39,24.13h1.5l.16,2h.06a3.75,3.75,0,0,1,3.08-2.26,2.32,2.32,0,0,1,1.16.24l-.34,1.6a2.57,2.57,0,0,0-1.06-.18c-.9,0-2,.64-2.74,2.5v7h-1.82Z"/><path class="cls-3" d="M189.85,29.57c0-3.52,2.22-5.72,4.7-5.72a4.42,4.42,0,0,1,3.06,1.28l-.08-1.88V19.07h1.8V35h-1.48l-.16-1.28h-.06a4.84,4.84,0,0,1-3.3,1.54C191.61,35.25,189.85,33.19,189.85,29.57Zm7.68,2.66v-5.7a3.89,3.89,0,0,0-2.66-1.14c-1.76,0-3.14,1.68-3.14,4.16s1.08,4.18,3,4.18A3.8,3.8,0,0,0,197.53,32.23Z"/><path class="cls-3" d="M202.21,29.57c0-3.52,2.38-5.72,4.9-5.72,2.76,0,4.32,2,4.32,5.1a7.11,7.11,0,0,1-.08,1H204c.12,2.32,1.54,3.8,3.6,3.8a4.68,4.68,0,0,0,2.72-.86l.66,1.2a6.46,6.46,0,0,1-3.6,1.12C204.53,35.25,202.21,33.15,202.21,29.57Zm7.62-.9c0-2.18-1-3.36-2.7-3.36-1.54,0-2.9,1.24-3.12,3.36Z"/><path class="cls-3" d="M214.21,31.63v-6h-1.62V24.23l1.7-.1.22-3.06H216v3.06H219v1.48H216v6.06c0,1.34.42,2.1,1.68,2.1a3.85,3.85,0,0,0,1.24-.28l.36,1.36a6.84,6.84,0,0,1-2,.4C215,35.25,214.21,33.79,214.21,31.63Z"/><path class="cls-3" d="M220.27,32.17c0-2.36,2.06-3.54,6.69-4.06,0-1.4-.47-2.74-2.25-2.74a6,6,0,0,0-3.26,1.16l-.72-1.26A8.17,8.17,0,0,1,225,23.85c2.64,0,3.77,1.78,3.77,4.46V35h-1.5l-.16-1.3h-.07a5.82,5.82,0,0,1-3.6,1.56A2.94,2.94,0,0,1,220.27,32.17Zm6.69.18v-3c-3.67.44-4.91,1.34-4.91,2.74,0,1.24.84,1.74,1.92,1.74A4.48,4.48,0,0,0,227,32.35Z"/><path class="cls-3" d="M231.93,20.67a1.22,1.22,0,1,1,1.22,1.22A1.14,1.14,0,0,1,231.93,20.67Zm.3,3.46h1.82V35h-1.82Z"/><path class="cls-3" d="M237.73,32.83V19.07h1.82V33c0,.56.24.78.52.78a1.6,1.6,0,0,0,.38,0l.26,1.4a2.8,2.8,0,0,1-1.06.16C238.29,35.25,237.73,34.37,237.73,32.83Z"/><rect class="cls-2" x="10" y="65.15" width="355" height="369.85" rx="3"/><path class="cls-4" d="M23.91,76.25H20.78v-1h7.44v1H25.08v9.27H23.91Z"/><path class="cls-4" d="M30.08,75.27h1.43l2,5.6c.26.73.49,1.46.75,2.19h.07c.25-.73.47-1.46.71-2.19l2-5.6h1.43V85.52H37.4V79.6c0-.87.09-2.07.14-3h0L36.67,79l-2,5.51h-.8l-2-5.51L31,76.63H31c.05.9.14,2.1.14,3v5.92H30.08Z"/><path class="cls-4" d="M43.7,84.18l.7-.8a4,4,0,0,0,2.87,1.3c1.4,0,2.26-.71,2.26-1.76s-.77-1.46-1.75-1.89l-1.49-.66a2.88,2.88,0,0,1-2.09-2.61c0-1.55,1.35-2.67,3.17-2.67a4.09,4.09,0,0,1,3,1.26l-.61.74a3.31,3.31,0,0,0-2.37-1c-1.19,0-2,.6-2,1.57s.92,1.44,1.71,1.78l1.48.63c1.18.52,2.13,1.22,2.13,2.74s-1.33,2.88-3.44,2.88A4.78,4.78,0,0,1,43.7,84.18Z"/><path class="cls-4" d="M52.49,83.24V78.9H51.34V78L52.53,78l.14-2.14h1V78h2.08v.94H53.63v4.38c0,.93.28,1.49,1.19,1.49a2.42,2.42,0,0,0,.88-.21l.22.87a4.58,4.58,0,0,1-1.34.28C53,85.71,52.49,84.71,52.49,83.24Z"/><path class="cls-4" d="M56.65,81.74c0-2.52,1.62-4,3.47-4s3.49,1.46,3.49,4-1.64,4-3.49,4S56.65,84.25,56.65,81.74Zm5.78,0c0-1.79-1-3-2.31-3s-2.29,1.22-2.29,3,.93,3,2.29,3S62.43,83.55,62.43,81.74Z"/><path class="cls-4" d="M65.67,78h.92l.11,1.39h0a2.62,2.62,0,0,1,2.15-1.59,1.67,1.67,0,0,1,.79.17l-.22,1a1.83,1.83,0,0,0-.71-.13c-.65,0-1.43.48-2,1.79v4.93H65.67Z"/><path class="cls-4" d="M70.23,81.74c0-2.45,1.64-4,3.37-4,1.9,0,3,1.36,3,3.55a3.37,3.37,0,0,1-.06.68H71.36A2.62,2.62,0,0,0,74,84.8a3.3,3.3,0,0,0,1.91-.62l.42.76a4.37,4.37,0,0,1-2.48.77C71.83,85.71,70.23,84.24,70.23,81.74Zm5.35-.59c0-1.61-.73-2.46-2-2.46a2.43,2.43,0,0,0-2.27,2.46Z"/><path class="cls-3" d="M112.15,118.23h-1.26v-.63h1.35l.32-2.55H111.2v-.64h1.42l.39-3h.6l-.38,3h2.26l.39-3h.6l-.39,3h1.26v.64H116l-.3,2.55H117v.63h-1.41l-.38,3.29h-.62l.4-3.29h-2.26l-.41,3.29h-.6Zm3-.63.32-2.55h-2.27l-.32,2.55Z"/><path class="cls-3" d="M118.45,121c3.2-3.24,4.84-5.06,4.84-6.77a1.93,1.93,0,0,0-2.09-2.12,3,3,0,0,0-2.27,1.26l-.52-.49a3.81,3.81,0,0,1,2.87-1.48,2.63,2.63,0,0,1,2.83,2.81c0,1.94-1.76,3.83-4.44,6.65.55,0,1.14-.08,1.68-.08h3.25v.72h-6.15Z"/><path class="cls-3" d="M126.6,120.81h2.31v-8h-1.78v-.54a5.62,5.62,0,0,0,2-.66h.66v9.2h2.13v.71H126.6Z"/><path class="cls-3" d="M133.66,120.73l.49-.54a2.09,2.09,0,0,0,1.67.82c1.54,0,2.88-1.25,2.88-4.77a3.33,3.33,0,0,1-2.48,1.36c-1.72,0-2.77-1.06-2.77-3a2.92,2.92,0,0,1,2.76-3.13c2,0,3.29,1.66,3.29,4.71,0,4.11-1.75,5.58-3.67,5.58A2.78,2.78,0,0,1,133.66,120.73Zm2.67-3.79a3,3,0,0,0,2.34-1.48c-.14-2.06-.95-3.35-2.48-3.35-1.1,0-1.93,1-1.93,2.44S134.89,116.94,136.33,116.94Z"/><path class="cls-3" d="M141,116.54c0-3.31,1.09-5.12,3-5.12s3,1.83,3,5.12-1.1,5.17-3,5.17S141,119.83,141,116.54Zm5.19,0c0-3-.87-4.41-2.18-4.41s-2.2,1.41-2.2,4.41.87,4.48,2.2,4.48S146.23,119.54,146.23,116.54Z"/><path class="cls-3" d="M148.41,121c3.2-3.24,4.84-5.06,4.84-6.77a1.93,1.93,0,0,0-2.09-2.12,3,3,0,0,0-2.27,1.26l-.52-.49a3.81,3.81,0,0,1,2.87-1.48,2.63,2.63,0,0,1,2.83,2.81c0,1.94-1.76,3.83-4.44,6.65.55,0,1.14-.08,1.68-.08h3.25v.72h-6.15Z"/><path class="cls-3" d="M155.67,120.38l.45-.58a3.4,3.4,0,0,0,2.67,1.21,2.43,2.43,0,0,0,2.38-2.58,2.24,2.24,0,0,0-2.34-2.48,3,3,0,0,0-1.8.64l-.54-.3.35-4.68h4.67v.72h-3.94l-.29,3.44a3.1,3.1,0,0,1,1.71-.49,2.81,2.81,0,0,1,3,3.11,3.16,3.16,0,0,1-3.19,3.32A4.23,4.23,0,0,1,155.67,120.38Z"/><path class="cls-3" d="M163.39,121c3.2-3.24,4.84-5.06,4.84-6.77a1.93,1.93,0,0,0-2.09-2.12,3,3,0,0,0-2.27,1.26l-.52-.49a3.81,3.81,0,0,1,2.87-1.48,2.63,2.63,0,0,1,2.83,2.81c0,1.94-1.76,3.83-4.44,6.65.55,0,1.14-.08,1.68-.08h3.25v.72h-6.15Z"/><path class="cls-3" d="M170.69,120.31l.46-.55a3.5,3.5,0,0,0,2.69,1.25,2.09,2.09,0,0,0,2.27-2.12c0-1.32-1-2.21-3.39-2.21V116c2.24,0,3-.94,3-2.09a1.75,1.75,0,0,0-1.94-1.77,3.14,3.14,0,0,0-2.24,1.06l-.47-.55a3.82,3.82,0,0,1,2.73-1.22,2.47,2.47,0,0,1,.88,4.85v.06a2.63,2.63,0,0,1,2.24,2.58,2.82,2.82,0,0,1-3.08,2.8A4.15,4.15,0,0,1,170.69,120.31Z"/><path class="cls-3" d="M178.54,117c0-4.11,1.74-5.59,3.69-5.59a2.76,2.76,0,0,1,2.14,1l-.48.53a2.14,2.14,0,0,0-1.68-.8c-1.51,0-2.81,1.19-2.85,4.72a3.32,3.32,0,0,1,2.45-1.33c1.72,0,2.77,1.06,2.77,3a2.91,2.91,0,0,1-2.76,3.13C179.85,121.71,178.54,120.05,178.54,117Zm.83.63c.13,2.06.92,3.38,2.46,3.38a2.18,2.18,0,0,0,1.95-2.44c0-1.38-.64-2.39-2.08-2.39A3,3,0,0,0,179.37,117.64Z"/><path class="cls-3" d="M191.08,112.33h-5.17v-.72h6.16v.5c-2.37,3.1-2.93,5.55-3.08,9.41h-.88A15.28,15.28,0,0,1,191.08,112.33Z"/><path class="cls-3" d="M193.58,120.73l.49-.54a2.11,2.11,0,0,0,1.67.82c1.54,0,2.88-1.25,2.88-4.77a3.31,3.31,0,0,1-2.48,1.36c-1.72,0-2.77-1.06-2.77-3a2.92,2.92,0,0,1,2.76-3.13c2,0,3.29,1.66,3.29,4.71,0,4.11-1.75,5.58-3.67,5.58A2.79,2.79,0,0,1,193.58,120.73Zm2.68-3.79a3,3,0,0,0,2.33-1.48c-.13-2.06-1-3.35-2.47-3.35-1.11,0-1.94,1-1.94,2.44S194.81,116.94,196.26,116.94Z"/><path class="cls-3" d="M21.12,117.8c0-2.5,1.57-3.94,3.37-3.94s3.38,1.44,3.38,3.94-1.57,3.91-3.38,3.91S21.12,120.28,21.12,117.8Zm5.91,0c0-1.91-1.08-3.22-2.54-3.22S22,115.89,22,117.8,23,121,24.49,121,27,119.7,27,117.8Z"/><path class="cls-3" d="M30.05,114.06h.67l.1,1.39h0A2.56,2.56,0,0,1,33,113.86a1.47,1.47,0,0,1,.76.17l-.17.73a1.55,1.55,0,0,0-.69-.13c-.65,0-1.45.49-2,1.88v5h-.81Z"/><path class="cls-3" d="M34.31,117.8c0-2.41,1.54-3.94,3.3-3.94a3.38,3.38,0,0,1,2.23.91l-.06-1.34v-3h.82v11.13h-.68l-.08-.93h0a3.49,3.49,0,0,1-2.4,1.12C35.52,121.71,34.31,120.31,34.31,117.8Zm5.47,2V115.5a3,3,0,0,0-2.08-.92c-1.43,0-2.53,1.38-2.53,3.22S36,121,37.54,121A3.11,3.11,0,0,0,39.78,119.82Z"/><path class="cls-3" d="M42.77,117.8c0-2.42,1.6-3.94,3.28-3.94s2.89,1.29,2.89,3.48a5.11,5.11,0,0,1,0,.58H43.6c0,1.83,1.12,3.1,2.73,3.1a3.35,3.35,0,0,0,2-.64l.31.6a4.15,4.15,0,0,1-2.38.73C44.33,121.71,42.77,120.25,42.77,117.8Zm5.43-.52c0-1.81-.83-2.72-2.13-2.72a2.66,2.66,0,0,0-2.47,2.72Z"/><path class="cls-3" d="M50.92,114.06h.68l.09,1.39h0a2.59,2.59,0,0,1,2.12-1.59,1.43,1.43,0,0,1,.75.17l-.16.73a1.6,1.6,0,0,0-.69-.13c-.66,0-1.46.49-2,1.88v5h-.82Z"/><path class="cls-3" d="M59.06,114.06h.67l.1,1.13h0a3.65,3.65,0,0,1,2.55-1.33c1.55,0,2.26,1,2.26,2.89v4.77h-.81v-4.66c0-1.56-.49-2.27-1.64-2.27-.87,0-1.48.45-2.35,1.35v5.58h-.81Z"/><path class="cls-3" d="M66.74,117.8c0-2.5,1.57-3.94,3.38-3.94s3.38,1.44,3.38,3.94-1.57,3.91-3.38,3.91S66.74,120.28,66.74,117.8Zm5.91,0c0-1.91-1.07-3.22-2.53-3.22s-2.52,1.31-2.52,3.22S68.66,121,70.12,121,72.65,119.7,72.65,117.8Z"/><path class="cls-3" d="M75.16,121a.72.72,0,0,1,.71-.77.77.77,0,1,1-.71.77Z"/><path class="cls-5" d="M111,177c3.2-3.24,4.84-5.06,4.84-6.77a1.93,1.93,0,0,0-2.09-2.12,3,3,0,0,0-2.27,1.26l-.52-.49a3.81,3.81,0,0,1,2.87-1.48,2.63,2.63,0,0,1,2.83,2.81c0,1.94-1.76,3.83-4.44,6.65.55,0,1.14-.08,1.68-.08h3.25v.72H111Z"/><path class="cls-3" d="M21.5,167.62a.65.65,0,0,1,1.3,0,.65.65,0,1,1-1.3,0Zm.23,2.44h.82v7.46h-.82Z"/><path class="cls-3" d="M25.51,175.4v-4.65H24.35v-.62l1.19-.07.1-2.16h.69v2.16h2.14v.69H26.33v4.7c0,.94.25,1.56,1.24,1.56a2.27,2.27,0,0,0,.91-.23l.2.65a4.32,4.32,0,0,1-1.25.28C26,177.71,25.51,176.78,25.51,175.4Z"/><path class="cls-3" d="M29.46,173.8c0-2.42,1.6-3.94,3.28-3.94s2.89,1.29,2.89,3.48a3.48,3.48,0,0,1-.05.58H30.29c0,1.83,1.12,3.1,2.73,3.1a3.35,3.35,0,0,0,2-.64l.31.6a4.2,4.2,0,0,1-2.38.73C31,177.71,29.46,176.25,29.46,173.8Zm5.42-.52c0-1.81-.82-2.72-2.13-2.72a2.65,2.65,0,0,0-2.46,2.72Z"/><path class="cls-3" d="M37.61,170.06h.67l.1,1.13h0a3.47,3.47,0,0,1,2.35-1.33,1.94,1.94,0,0,1,2.06,1.52,3.7,3.7,0,0,1,2.52-1.52c1.5,0,2.24,1,2.24,2.89v4.77h-.81v-4.66c0-1.56-.52-2.27-1.61-2.27A3.16,3.16,0,0,0,43,171.94v5.58h-.81v-4.66c0-1.56-.5-2.27-1.61-2.27a3.16,3.16,0,0,0-2.16,1.35v5.58h-.81Z"/><path class="cls-3" d="M49.36,176.68l.43-.58a3.48,3.48,0,0,0,2.35.93c1.14,0,1.71-.64,1.71-1.41s-.94-1.29-1.81-1.6c-1.1-.39-2.28-.85-2.28-2.14,0-1.09.87-2,2.45-2a3.51,3.51,0,0,1,2.17.8l-.43.56a2.76,2.76,0,0,0-1.75-.67c-1.12,0-1.63.62-1.63,1.29s.82,1.13,1.68,1.45c1.15.44,2.41.84,2.41,2.29,0,1.15-.91,2.13-2.56,2.13A4.39,4.39,0,0,1,49.36,176.68Z"/><path class="cls-5" d="M113.83,205.69a4.41,4.41,0,0,1-2.6-1.19l.42-.57a3.73,3.73,0,0,0,2.47,1.08,1.76,1.76,0,0,0,2-1.84c0-2.94-4.46-2.16-4.46-5.28a2.41,2.41,0,0,1,2.21-2.45V193.9h.68v1.54a3,3,0,0,1,2.13,1.12l-.47.5a2.46,2.46,0,0,0-2-.92,1.66,1.66,0,0,0-1.75,1.71c0,2.6,4.44,1.76,4.44,5.27a2.49,2.49,0,0,1-2.38,2.57v1.54h-.68Z"/><path class="cls-5" d="M123.66,196.33H118.5v-.72h6.16v.5c-2.37,3.1-2.93,5.55-3.08,9.41h-.89A15.34,15.34,0,0,1,123.66,196.33Z"/><path class="cls-5" d="M126.06,200.54c0-3.31,1.09-5.12,3-5.12s3,1.83,3,5.12-1.1,5.17-3,5.17S126.06,203.83,126.06,200.54Zm5.19,0c0-3-.87-4.41-2.18-4.41s-2.2,1.41-2.2,4.41.87,4.48,2.2,4.48S131.25,203.54,131.25,200.54Z"/><path class="cls-3" d="M21.92,203.4v-4.65H20.75v-.62l1.19-.07.1-2.16h.69v2.16h2.14v.69H22.73v4.7c0,.94.25,1.56,1.24,1.56a2.36,2.36,0,0,0,.92-.23l.19.65a4.32,4.32,0,0,1-1.25.28C22.36,205.71,21.92,204.78,21.92,203.4Z"/><path class="cls-3" d="M25.86,201.8c0-2.5,1.57-3.94,3.38-3.94s3.38,1.44,3.38,3.94-1.57,3.91-3.38,3.91S25.86,204.28,25.86,201.8Zm5.91,0c0-1.91-1.07-3.22-2.53-3.22s-2.52,1.31-2.52,3.22S27.78,205,29.24,205,31.77,203.7,31.77,201.8Z"/><path class="cls-3" d="M34.77,203.4v-4.65H33.6v-.62l1.2-.07.09-2.16h.69v2.16h2.14v.69H35.58v4.7c0,.94.25,1.56,1.25,1.56a2.31,2.31,0,0,0,.91-.23l.19.65a4.33,4.33,0,0,1-1.24.28C35.22,205.71,34.77,204.78,34.77,203.4Z"/><path class="cls-3" d="M38.66,203.65c0-1.66,1.47-2.44,4.76-2.82,0-1.1-.29-2.25-1.71-2.25a4,4,0,0,0-2.35.85l-.36-.59a5.17,5.17,0,0,1,2.82-1c1.78,0,2.41,1.28,2.41,2.93v4.73h-.68l-.09-1h0a4.32,4.32,0,0,1-2.61,1.14A2,2,0,0,1,38.66,203.65Zm4.76.21v-2.43c-2.94.34-4,1-4,2.18A1.34,1.34,0,0,0,41,205,3.68,3.68,0,0,0,43.42,203.86Z"/><path class="cls-3" d="M46.83,204.42v-10h.82V204.5c0,.35.14.51.33.51a1.16,1.16,0,0,0,.27,0l.13.64a1.68,1.68,0,0,1-.55.09C47.16,205.71,46.83,205.29,46.83,204.42Z"/><path class="cls-3" d="M114,224h-3.21v-.72h7.29V224h-3.23v9.49H114Z"/><path class="cls-3" d="M120,223.31h1.12l2.1,5.87c.27.74.54,1.5.8,2.24h.06c.27-.74.5-1.5.76-2.24l2.1-5.87h1.12v10.21h-.8v-6.47c0-.84.06-2,.1-2.81h-.06l-.8,2.28-2.14,5.91h-.67l-2.16-5.91-.8-2.28h0c0,.85.09,2,.09,2.81v6.47H120Z"/><path class="cls-3" d="M133.35,232.18l.52-.59a3.92,3.92,0,0,0,2.95,1.36c1.52,0,2.45-.8,2.45-2s-.79-1.63-1.8-2.07l-1.53-.68a2.82,2.82,0,0,1-2.07-2.55c0-1.51,1.29-2.56,3-2.56a3.91,3.91,0,0,1,2.89,1.23l-.48.55a3.26,3.26,0,0,0-2.41-1c-1.3,0-2.17.68-2.17,1.73s1,1.6,1.74,1.92l1.53.68c1.16.51,2.14,1.16,2.14,2.71s-1.3,2.78-3.31,2.78A4.54,4.54,0,0,1,133.35,232.18Z"/><path class="cls-3" d="M142,231.4v-4.65h-1.16v-.62l1.19-.07.1-2.16h.68v2.16H145v.69h-2.15v4.7c0,.94.26,1.56,1.25,1.56a2.27,2.27,0,0,0,.91-.23l.2.65a4.39,4.39,0,0,1-1.25.28C142.45,233.71,142,232.78,142,231.4Z"/><path class="cls-3" d="M146,229.8c0-2.5,1.57-3.94,3.38-3.94s3.37,1.44,3.37,3.94-1.57,3.91-3.37,3.91S146,232.28,146,229.8Zm5.91,0c0-1.91-1.08-3.22-2.53-3.22s-2.53,1.31-2.53,3.22,1.07,3.21,2.53,3.21S151.86,231.7,151.86,229.8Z"/><path class="cls-3" d="M154.88,226.06h.67l.1,1.39h0a2.57,2.57,0,0,1,2.11-1.59,1.47,1.47,0,0,1,.76.17l-.17.73a1.53,1.53,0,0,0-.68-.13c-.66,0-1.46.49-2,1.88v5h-.81Z"/><path class="cls-3" d="M159.14,229.8c0-2.42,1.59-3.94,3.28-3.94s2.88,1.29,2.88,3.48a3.52,3.52,0,0,1,0,.58H160c0,1.83,1.12,3.1,2.74,3.1a3.35,3.35,0,0,0,2-.64l.31.6a4.15,4.15,0,0,1-2.38.73C160.69,233.71,159.14,232.25,159.14,229.8Zm5.42-.52c0-1.81-.83-2.72-2.13-2.72a2.67,2.67,0,0,0-2.47,2.72Z"/><path class="cls-3" d="M21.92,231.4v-4.65H20.75v-.62l1.19-.07.1-2.16h.69v2.16h2.14v.69H22.73v4.7c0,.94.25,1.56,1.24,1.56a2.36,2.36,0,0,0,.92-.23l.19.65a4.32,4.32,0,0,1-1.25.28C22.36,233.71,21.92,232.78,21.92,231.4Z"/><path class="cls-3" d="M25.81,231.65c0-1.66,1.47-2.44,4.76-2.82,0-1.1-.29-2.25-1.71-2.25a4,4,0,0,0-2.35.85l-.37-.59a5.21,5.21,0,0,1,2.83-1c1.78,0,2.41,1.28,2.41,2.93v4.73H30.7l-.09-1h0a4.27,4.27,0,0,1-2.6,1.14A2,2,0,0,1,25.81,231.65Zm4.76.21v-2.43c-2.94.34-3.95,1-3.95,2.18A1.34,1.34,0,0,0,28.15,233,3.68,3.68,0,0,0,30.57,231.86Z"/><path class="cls-3" d="M34,222.39h.82v8.07h0l3.58-4.4h.92L36.88,229l2.83,4.51h-.89l-2.41-3.92-1.61,1.91v2H34Z"/><path class="cls-3" d="M40.45,229.8c0-2.42,1.6-3.94,3.28-3.94s2.89,1.29,2.89,3.48a3.48,3.48,0,0,1,0,.58H41.28c0,1.83,1.12,3.1,2.73,3.1a3.35,3.35,0,0,0,2-.64l.31.6a4.2,4.2,0,0,1-2.38.73C42,233.71,40.45,232.25,40.45,229.8Zm5.42-.52c0-1.81-.82-2.72-2.13-2.72a2.65,2.65,0,0,0-2.46,2.72Z"/><path class="cls-3" d="M51.19,231.65c0-1.66,1.47-2.44,4.76-2.82,0-1.1-.29-2.25-1.71-2.25a4,4,0,0,0-2.35.85l-.36-.59a5.17,5.17,0,0,1,2.82-1c1.78,0,2.41,1.28,2.41,2.93v4.73h-.68l-.09-1h0a4.32,4.32,0,0,1-2.61,1.14A2,2,0,0,1,51.19,231.65Zm4.76.21v-2.43c-2.94.34-4,1-4,2.18A1.34,1.34,0,0,0,53.53,233,3.68,3.68,0,0,0,56,231.86Z"/><path class="cls-3" d="M58.33,226.06h.87l1.3,4.7c.17.72.34,1.36.48,2h.07c.18-.68.35-1.34.53-2l1.33-4.7h.9l1.33,4.7c.18.72.35,1.36.54,2h.06c.17-.68.34-1.32.52-2l1.27-4.7h.8l-2.1,7.46h-1L63.92,229c-.21-.72-.35-1.4-.56-2.15h-.07c-.17.75-.34,1.45-.58,2.18l-1.21,4.46h-1Z"/><path class="cls-3" d="M69.42,231.65c0-1.66,1.47-2.44,4.76-2.82,0-1.1-.29-2.25-1.71-2.25a4,4,0,0,0-2.35.85l-.37-.59a5.21,5.21,0,0,1,2.83-1c1.78,0,2.41,1.28,2.41,2.93v4.73h-.68l-.09-1h0a4.27,4.27,0,0,1-2.6,1.14A2,2,0,0,1,69.42,231.65Zm4.76.21v-2.43c-2.94.34-4,1-4,2.18A1.34,1.34,0,0,0,71.76,233,3.68,3.68,0,0,0,74.18,231.86Z"/><path class="cls-3" d="M76.58,236.73l.19-.68a2.07,2.07,0,0,0,.6.11c.9,0,1.5-.81,1.86-1.89l.2-.63-3.06-7.58h.89L79,230.63c.24.64.52,1.42.79,2.1h.07c.22-.68.46-1.46.67-2.1l1.53-4.57h.82L80,234.39c-.43,1.29-1.2,2.5-2.58,2.5A2,2,0,0,1,76.58,236.73Z"/><path class="cls-3" d="M111,149c3.2-3.24,4.84-5.06,4.84-6.77a1.93,1.93,0,0,0-2.09-2.12,3,3,0,0,0-2.27,1.26l-.52-.49a3.81,3.81,0,0,1,2.87-1.48,2.63,2.63,0,0,1,2.83,2.81c0,1.94-1.76,3.83-4.44,6.65.55,0,1.14-.08,1.68-.08h3.25v.72H111Z"/><path class="cls-3" d="M118.57,144.54c0-3.31,1.09-5.12,3-5.12s3,1.83,3,5.12-1.1,5.17-3,5.17S118.57,147.83,118.57,144.54Zm5.19,0c0-3-.87-4.41-2.18-4.41s-2.2,1.41-2.2,4.41.87,4.48,2.2,4.48S123.76,147.54,123.76,144.54Z"/><path class="cls-3" d="M126.6,148.81h2.31v-8h-1.78v-.54a5.62,5.62,0,0,0,2-.66h.66v9.2h2.13v.71H126.6Z"/><path class="cls-3" d="M133.43,147a3.32,3.32,0,0,1,1.95-2.77v-.06a2.78,2.78,0,0,1-1.4-2.28,2.47,2.47,0,0,1,2.63-2.46,2.51,2.51,0,0,1,2.71,2.6,3.51,3.51,0,0,1-1.4,2.49v.07a2.92,2.92,0,0,1,1.73,2.54,2.76,2.76,0,0,1-3.05,2.59A2.89,2.89,0,0,1,133.43,147Zm5.41.11c0-1.48-1.44-2-3-2.59A2.93,2.93,0,0,0,134.2,147a2.21,2.21,0,0,0,2.4,2.1A2,2,0,0,0,138.84,147.1Zm-.28-5.06a1.87,1.87,0,0,0-2-2,1.76,1.76,0,0,0-1.84,1.8c0,1.36,1.28,1.91,2.55,2.41A2.93,2.93,0,0,0,138.56,142Z"/><path class="cls-3" d="M140.92,145.31h3.45V146h-3.45Z"/><path class="cls-3" d="M146.25,148.81h2.31v-8h-1.78v-.54a5.63,5.63,0,0,0,1.94-.66h.66v9.2h2.13v.71h-5.26Z"/><path class="cls-3" d="M153.08,149c3.19-3.24,4.83-5.06,4.83-6.77a1.93,1.93,0,0,0-2.09-2.12,3,3,0,0,0-2.27,1.26l-.52-.49a3.81,3.81,0,0,1,2.88-1.48,2.63,2.63,0,0,1,2.83,2.81c0,1.94-1.77,3.83-4.45,6.65.55,0,1.14-.08,1.69-.08h3.25v.72h-6.15Z"/><path class="cls-3" d="M160.57,145.31H164V146h-3.44Z"/><path class="cls-3" d="M165.23,149c3.19-3.24,4.83-5.06,4.83-6.77a1.93,1.93,0,0,0-2.09-2.12,3,3,0,0,0-2.26,1.26l-.52-.49a3.81,3.81,0,0,1,2.87-1.48,2.63,2.63,0,0,1,2.83,2.81c0,1.94-1.77,3.83-4.44,6.65.54,0,1.13-.08,1.68-.08h3.25v.72h-6.15Z"/><path class="cls-3" d="M172.48,148.38l.45-.58A3.42,3.42,0,0,0,175.6,149a2.44,2.44,0,0,0,2.39-2.58,2.24,2.24,0,0,0-2.34-2.48,3,3,0,0,0-1.81.64l-.53-.3.35-4.68h4.66v.72h-3.93l-.3,3.44a3.1,3.1,0,0,1,1.71-.49,2.82,2.82,0,0,1,3,3.11,3.16,3.16,0,0,1-3.2,3.32A4.23,4.23,0,0,1,172.48,148.38Z"/><path class="cls-3" d="M187.08,148.81h2.31v-8h-1.77v-.54a5.63,5.63,0,0,0,1.94-.66h.66v9.2h2.13v.71h-5.27Z"/><path class="cls-3" d="M193.68,148.38l.45-.58A3.4,3.4,0,0,0,196.8,149a2.43,2.43,0,0,0,2.38-2.58,2.24,2.24,0,0,0-2.34-2.48,3,3,0,0,0-1.8.64l-.54-.3.35-4.68h4.67v.72h-3.94l-.29,3.44a3.1,3.1,0,0,1,1.71-.49,2.81,2.81,0,0,1,3,3.11,3.16,3.16,0,0,1-3.19,3.32A4.21,4.21,0,0,1,193.68,148.38Z"/><path class="cls-3" d="M201.81,143.09a.72.72,0,1,1,1.43,0,.72.72,0,1,1-1.43,0Zm0,5.86a.72.72,0,1,1,.72.76A.72.72,0,0,1,201.81,149Z"/><path class="cls-3" d="M204.67,148.38l.45-.58a3.4,3.4,0,0,0,2.67,1.21,2.43,2.43,0,0,0,2.38-2.58,2.24,2.24,0,0,0-2.34-2.48,3,3,0,0,0-1.8.64l-.54-.3.35-4.68h4.67v.72h-3.94l-.29,3.44a3.1,3.1,0,0,1,1.71-.49,2.81,2.81,0,0,1,3,3.11,3.16,3.16,0,0,1-3.19,3.32A4.23,4.23,0,0,1,204.67,148.38Z"/><path class="cls-3" d="M212.16,148.38l.45-.58a3.4,3.4,0,0,0,2.67,1.21,2.43,2.43,0,0,0,2.38-2.58,2.24,2.24,0,0,0-2.34-2.48,3,3,0,0,0-1.8.64l-.54-.3.35-4.68H218v.72h-3.94l-.29,3.44a3.1,3.1,0,0,1,1.71-.49,2.81,2.81,0,0,1,3,3.11,3.16,3.16,0,0,1-3.19,3.32A4.23,4.23,0,0,1,212.16,148.38Z"/><path class="cls-3" d="M220.29,143.09a.72.72,0,1,1,1.43,0,.72.72,0,1,1-1.43,0Zm0,5.86a.72.72,0,1,1,.72.76A.72.72,0,0,1,220.29,149Z"/><path class="cls-3" d="M223.15,148.38l.45-.58a3.4,3.4,0,0,0,2.67,1.21,2.43,2.43,0,0,0,2.38-2.58,2.24,2.24,0,0,0-2.34-2.48,3,3,0,0,0-1.8.64l-.54-.3.35-4.68H229v.72h-3.94l-.29,3.44a3.1,3.1,0,0,1,1.71-.49,2.81,2.81,0,0,1,3,3.11,3.16,3.16,0,0,1-3.19,3.32A4.23,4.23,0,0,1,223.15,148.38Z"/><path class="cls-3" d="M230.64,148.38l.45-.58a3.4,3.4,0,0,0,2.67,1.21,2.43,2.43,0,0,0,2.38-2.58A2.24,2.24,0,0,0,233.8,144a3,3,0,0,0-1.8.64l-.54-.3.35-4.68h4.67v.72h-3.94l-.29,3.44a3.1,3.1,0,0,1,1.71-.49,2.81,2.81,0,0,1,3,3.11,3.16,3.16,0,0,1-3.19,3.32A4.23,4.23,0,0,1,230.64,148.38Z"/><path class="cls-3" d="M21.12,145.8c0-2.5,1.57-3.94,3.37-3.94s3.38,1.44,3.38,3.94-1.57,3.91-3.38,3.91S21.12,148.28,21.12,145.8Zm5.91,0c0-1.91-1.08-3.22-2.54-3.22S22,143.89,22,145.8,23,149,24.49,149,27,147.7,27,145.8Z"/><path class="cls-3" d="M30.05,142.06h.67l.1,1.39h0A2.56,2.56,0,0,1,33,141.86a1.47,1.47,0,0,1,.76.17l-.17.73a1.55,1.55,0,0,0-.69-.13c-.65,0-1.45.49-2,1.88v5h-.81Z"/><path class="cls-3" d="M34.31,145.8c0-2.41,1.54-3.94,3.3-3.94a3.38,3.38,0,0,1,2.23.91l-.06-1.34v-3h.82v11.13h-.68l-.08-.93h0a3.49,3.49,0,0,1-2.4,1.12C35.52,149.71,34.31,148.31,34.31,145.8Zm5.47,2V143.5a3,3,0,0,0-2.08-.92c-1.43,0-2.53,1.38-2.53,3.22S36,149,37.54,149A3.11,3.11,0,0,0,39.78,147.82Z"/><path class="cls-3" d="M42.77,145.8c0-2.42,1.6-3.94,3.28-3.94s2.89,1.29,2.89,3.48a5.11,5.11,0,0,1,0,.58H43.6c0,1.83,1.12,3.1,2.73,3.1a3.35,3.35,0,0,0,2-.64l.31.6a4.15,4.15,0,0,1-2.38.73C44.33,149.71,42.77,148.25,42.77,145.8Zm5.43-.52c0-1.81-.83-2.72-2.13-2.72a2.66,2.66,0,0,0-2.47,2.72Z"/><path class="cls-3" d="M50.92,142.06h.68l.09,1.39h0a2.59,2.59,0,0,1,2.12-1.59,1.43,1.43,0,0,1,.75.17l-.16.73a1.6,1.6,0,0,0-.69-.13c-.66,0-1.46.49-2,1.88v5h-.82Z"/><path class="cls-3" d="M59.24,147.4v-4.65H58.08v-.62l1.19-.07.1-2.16h.68v2.16h2.14v.69H60.05v4.7c0,.94.25,1.56,1.25,1.56a2.31,2.31,0,0,0,.91-.23l.2.65a4.46,4.46,0,0,1-1.25.28C59.69,149.71,59.24,148.78,59.24,147.4Z"/><path class="cls-3" d="M63.75,139.62a.65.65,0,0,1,1.3,0,.65.65,0,1,1-1.3,0Zm.23,2.44h.82v7.46H64Z"/><path class="cls-3" d="M67.58,142.06h.67l.1,1.13h0a3.47,3.47,0,0,1,2.35-1.33,1.93,1.93,0,0,1,2.06,1.52,3.72,3.72,0,0,1,2.52-1.52c1.5,0,2.25,1,2.25,2.89v4.77h-.82v-4.66c0-1.56-.52-2.27-1.61-2.27A3.12,3.12,0,0,0,73,143.94v5.58h-.82v-4.66c0-1.56-.5-2.27-1.61-2.27a3.16,3.16,0,0,0-2.16,1.35v5.58h-.81Z"/><path class="cls-3" d="M79.62,145.8c0-2.42,1.6-3.94,3.28-3.94s2.89,1.29,2.89,3.48a3.48,3.48,0,0,1-.05.58H80.45c0,1.83,1.12,3.1,2.73,3.1a3.35,3.35,0,0,0,2-.64l.31.6a4.18,4.18,0,0,1-2.38.73C81.18,149.71,79.62,148.25,79.62,145.8Zm5.42-.52c0-1.81-.82-2.72-2.13-2.72a2.66,2.66,0,0,0-2.46,2.72Z"/><line class="cls-6" x1="20" y1="95.5" x2="355" y2="95.5"/><path class="cls-7" d="M311.07,82.76V78h1.13v4.67c0,1.44.43,2.08,1.5,2.08.8,0,1.37-.4,2.13-1.33V78H317v7.56H316l-.1-1.2h-.05a3.26,3.26,0,0,1-2.52,1.39C311.78,85.71,311.07,84.7,311.07,82.76Z"/><path class="cls-7" d="M319.61,78h.92l.11,1.11h0a3.67,3.67,0,0,1,2.55-1.31c1.59,0,2.31,1,2.31,3v4.8H324.4V80.86c0-1.46-.45-2.1-1.5-2.1A3,3,0,0,0,320.74,80v5.53h-1.13Z"/><path class="cls-7" d="M328.08,78H329l.11.88h0a4.17,4.17,0,0,1,2.44-1.08c2,0,3,1.53,3,3.86,0,2.59-1.56,4.09-3.31,4.09a3.57,3.57,0,0,1-2.13-.89l0,1.33v2.62h-1.13Zm5.35,3.67c0-1.71-.59-2.9-2.1-2.9a3.31,3.31,0,0,0-2.12,1.09v4.09a3,3,0,0,0,1.93.83C332.46,84.74,333.43,83.55,333.43,81.63Z"/><path class="cls-7" d="M336,83.58c0-1.66,1.45-2.47,4.7-2.83,0-1-.31-2-1.62-2a4,4,0,0,0-2.29.84l-.47-.8a5.49,5.49,0,0,1,2.95-1c1.83,0,2.56,1.25,2.56,3.07v4.69h-.94l-.1-.92h0a4.05,4.05,0,0,1-2.55,1.11A2,2,0,0,1,336,83.58Zm4.7.15V81.52c-2.68.31-3.59,1-3.59,2s.63,1.27,1.4,1.27A3.27,3.27,0,0,0,340.67,83.73Z"/><path class="cls-7" d="M344.06,75.54a.8.8,0,1,1,.8.79A.75.75,0,0,1,344.06,75.54Zm.23,2.42h1.13v7.56h-1.13Z"/><path class="cls-7" d="M347.48,81.74c0-2.44,1.56-4,3.29-4a3.17,3.17,0,0,1,2.17.9l-.05-1.32v-3H354V85.52h-.94l-.09-.91h-.05a3.35,3.35,0,0,1-2.34,1.1C348.7,85.71,347.48,84.28,347.48,81.74Zm5.41,1.92V79.57a2.84,2.84,0,0,0-1.94-.84c-1.28,0-2.28,1.25-2.28,3s.79,3,2.17,3A2.81,2.81,0,0,0,352.89,83.66Z"/><line class="cls-6" x1="20" y1="256.5" x2="355" y2="256.5"/><path d="M21.77,278.61h5.47v.7H22.59v3.82h3.93v.69H22.59v4.7h-.82Z"/><path d="M29,278.61h.81v9.91H29Z"/><path d="M31.83,287.22l.62-.41A2,2,0,0,0,34.32,288c1.17,0,1.74-.68,1.74-2.27v-7.09h.82v7.17c0,1.63-.7,2.92-2.53,2.92A2.72,2.72,0,0,1,31.83,287.22Z"/><path d="M39.73,278.61h.82v9.91h-.82Z"/><path d="M46.45,278.61h.84l4.05,6.81,1.1,2h.07c0-1-.11-2-.11-2.93v-5.88h.78v9.91h-.85l-4-6.82-1.12-2h-.07c0,1,.11,1.88.11,2.87v5.94h-.77Z"/><path d="M55.47,286.7c0-1.6,1.43-2.36,4.63-2.73,0-1.07-.29-2.19-1.66-2.19a4,4,0,0,0-2.29.83L55.8,282a5,5,0,0,1,2.75-1c1.72,0,2.33,1.24,2.33,2.84v4.59h-.66l-.08-.92h0a4.14,4.14,0,0,1-2.53,1.1A1.91,1.91,0,0,1,55.47,286.7Zm4.63.21v-2.36c-2.86.33-3.84,1-3.84,2.11A1.31,1.31,0,0,0,57.74,288,3.62,3.62,0,0,0,60.1,286.91Z"/><path d="M63.41,286.46v-4.52H62.28v-.59l1.16-.07.09-2.1h.67v2.1h2.08v.66H64.2v4.57c0,.91.25,1.51,1.21,1.51a2.12,2.12,0,0,0,.88-.22l.2.63a4.17,4.17,0,0,1-1.22.27C63.85,288.7,63.41,287.8,63.41,286.46Z"/><path d="M67.91,285.91v-4.63h.79v4.54c0,1.48.46,2.17,1.58,2.17.84,0,1.44-.43,2.25-1.41v-5.3h.79v7.24h-.66l-.07-1.19h0a3.23,3.23,0,0,1-2.45,1.37C68.59,288.7,67.91,287.78,67.91,285.91Z"/><path d="M76,281.28h.65l.1,1.34h0a2.49,2.49,0,0,1,2.05-1.53,1.48,1.48,0,0,1,.73.16l-.16.71a1.46,1.46,0,0,0-.67-.13c-.64,0-1.41.48-1.94,1.83v4.86H76Z"/><path d="M80.09,286.7c0-1.6,1.43-2.36,4.62-2.73,0-1.07-.28-2.19-1.65-2.19a3.91,3.91,0,0,0-2.29.83l-.35-.57a5,5,0,0,1,2.74-1c1.73,0,2.34,1.24,2.34,2.84v4.59h-.66l-.09-.92h0a4.19,4.19,0,0,1-2.53,1.1A1.91,1.91,0,0,1,80.09,286.7Zm4.62.21v-2.36c-2.85.33-3.83,1-3.83,2.11A1.31,1.31,0,0,0,82.36,288,3.6,3.6,0,0,0,84.71,286.91Z"/><path d="M88,287.45v-9.73h.79v9.81c0,.34.14.49.33.49a1.08,1.08,0,0,0,.25,0l.13.63a1.69,1.69,0,0,1-.53.08C88.34,288.7,88,288.29,88,287.45Z"/><path d="M96.89,278.61h.85l3.46,9.91h-.87l-1.1-3.33H95.37l-1.13,3.33h-.81Zm-1.3,5.93H99l-.59-1.79c-.41-1.16-.74-2.21-1.09-3.4h-.06c-.34,1.19-.68,2.24-1.07,3.4Z"/><path d="M102.66,281.28h.65l.1,1.34h0a2.49,2.49,0,0,1,2.06-1.53,1.48,1.48,0,0,1,.73.16l-.16.71a1.49,1.49,0,0,0-.67-.13c-.64,0-1.41.48-1.94,1.83v4.86h-.79Z"/><path d="M107.71,286.46v-4.52h-1.12v-.59l1.15-.07.1-2.1h.66v2.1h2.08v.66H108.5v4.57c0,.91.25,1.51,1.21,1.51a2.2,2.2,0,0,0,.89-.22l.19.63a4.11,4.11,0,0,1-1.21.27C108.15,288.7,107.71,287.8,107.71,286.46Z"/><path d="M111.55,284.91c0-2.35,1.55-3.82,3.18-3.82s2.8,1.25,2.8,3.37a3.48,3.48,0,0,1,0,.57h-5.14c0,1.77,1.09,3,2.65,3a3.23,3.23,0,0,0,1.93-.63l.3.58a4,4,0,0,1-2.31.71C113.06,288.7,111.55,287.29,111.55,284.91Zm5.26-.5c0-1.76-.8-2.64-2.07-2.64a2.58,2.58,0,0,0-2.39,2.64Z"/><path d="M118.58,287.71l.42-.57a3.4,3.4,0,0,0,2.28.91c1.1,0,1.66-.63,1.66-1.37s-.91-1.26-1.75-1.55c-1.08-.38-2.22-.83-2.22-2.09,0-1.05.84-2,2.38-2a3.48,3.48,0,0,1,2.11.77l-.42.55a2.71,2.71,0,0,0-1.7-.66c-1.09,0-1.58.6-1.58,1.25,0,.81.79,1.11,1.63,1.42,1.12.42,2.34.81,2.34,2.21,0,1.12-.88,2.07-2.49,2.07A4.27,4.27,0,0,1,118.58,287.71Z"/><path d="M125.37,278.91a.6.6,0,0,1,.64-.62.6.6,0,0,1,.63.62.62.62,0,0,1-.63.67A.63.63,0,0,1,125.37,278.91Zm.23,2.37h.79v7.24h-.79Z"/><path d="M128.59,286.7c0-1.6,1.43-2.36,4.63-2.73,0-1.07-.29-2.19-1.66-2.19a4,4,0,0,0-2.29.83l-.35-.57a5,5,0,0,1,2.75-1c1.72,0,2.34,1.24,2.34,2.84v4.59h-.67l-.08-.92h0a4.14,4.14,0,0,1-2.53,1.1A1.91,1.91,0,0,1,128.59,286.7Zm4.63.21v-2.36c-2.86.33-3.84,1-3.84,2.11a1.32,1.32,0,0,0,1.49,1.38A3.62,3.62,0,0,0,133.22,286.91Z"/><path d="M136.53,281.28h.66l.09,1.1h0a3.55,3.55,0,0,1,2.47-1.29c1.51,0,2.21.94,2.21,2.8v4.63h-.79V284c0-1.51-.48-2.21-1.59-2.21-.85,0-1.44.44-2.29,1.31v5.42h-.79Z"/><path d="M146.66,278.61h.84l1.2,5.74c.23,1.07.45,2.15.67,3.24h0c.25-1.09.5-2.17.76-3.24l1.51-5.74h.8l1.53,5.74c.25,1.07.5,2.15.76,3.24h.07c.2-1.09.4-2.17.62-3.24l1.21-5.74h.79l-2.18,9.91h-.92l-1.75-6.62c-.17-.78-.34-1.47-.52-2.24H152c-.16.77-.36,1.46-.54,2.24l-1.7,6.62h-.92Z"/><path d="M158.49,286.7c0-1.6,1.43-2.36,4.62-2.73,0-1.07-.29-2.19-1.66-2.19a3.91,3.91,0,0,0-2.28.83l-.36-.57a5.06,5.06,0,0,1,2.75-1c1.73,0,2.34,1.24,2.34,2.84v4.59h-.67l-.08-.92h0a4.14,4.14,0,0,1-2.53,1.1A1.91,1.91,0,0,1,158.49,286.7Zm4.62.21v-2.36c-2.86.33-3.83,1-3.83,2.11a1.31,1.31,0,0,0,1.48,1.38A3.62,3.62,0,0,0,163.11,286.91Z"/><path d="M166.43,286.46v-4.52H165.3v-.59l1.15-.07.1-2.1h.67v2.1h2.08v.66h-2.08v4.57c0,.91.24,1.51,1.21,1.51a2.16,2.16,0,0,0,.88-.22l.19.63a4,4,0,0,1-1.21.27C166.86,288.7,166.43,287.8,166.43,286.46Z"/><path d="M170.26,284.91c0-2.35,1.55-3.82,3.18-3.82s2.8,1.25,2.8,3.37a3.48,3.48,0,0,1,0,.57h-5.14c0,1.77,1.09,3,2.65,3a3.23,3.23,0,0,0,1.93-.63l.3.58a4,4,0,0,1-2.31.71C171.77,288.7,170.26,287.29,170.26,284.91Zm5.26-.5c0-1.76-.8-2.64-2.06-2.64a2.58,2.58,0,0,0-2.4,2.64Z"/><path d="M178.17,281.28h.65l.1,1.34h0a2.49,2.49,0,0,1,2.05-1.53,1.45,1.45,0,0,1,.73.16l-.16.71a1.46,1.46,0,0,0-.67-.13c-.63,0-1.41.48-1.94,1.83v4.86h-.79Z"/><path d="M181.77,290.4a2,2,0,0,0,1.2-1.82h-.16a.67.67,0,0,1-.71-.69.68.68,0,0,1,.72-.68c.49,0,.82.45.82,1.17a2.83,2.83,0,0,1-1.63,2.53Z"/><path d="M187.85,287.41l.44-.56a3.32,3.32,0,0,0,2.59,1.17,2.35,2.35,0,0,0,2.31-2.5,2.17,2.17,0,0,0-2.27-2.41,2.88,2.88,0,0,0-1.75.63l-.52-.3.34-4.54h4.53v.71H189.7l-.29,3.33a3,3,0,0,1,1.66-.48,2.74,2.74,0,0,1,2.94,3,3.06,3.06,0,0,1-3.1,3.22A4.06,4.06,0,0,1,187.85,287.41Z"/><path d="M195.46,283.68c0-3.2,1.06-5,2.93-5s2.9,1.77,2.9,5-1.06,5-2.9,5S195.46,286.88,195.46,283.68Zm5,0c0-2.9-.85-4.28-2.12-4.28s-2.14,1.38-2.14,4.28.84,4.36,2.14,4.36S200.51,286.59,200.51,283.68Z"/><path d="M203,288a.7.7,0,1,1,.69.73A.7.7,0,0,1,203,288Z"/><path d="M211.08,279.61h-5v-.71h6v.49c-2.3,3-2.84,5.38-3,9.13h-.86A14.74,14.74,0,0,1,211.08,279.61Z"/><path d="M217.14,278.61h5.47v.7H218v3.82h3.93v.69H218v4.7h-.82Z"/><path d="M224.29,287.45v-9.73h.79v9.81c0,.34.14.49.33.49a1.14,1.14,0,0,0,.26,0l.12.63a1.64,1.64,0,0,1-.53.08C224.61,288.7,224.29,288.29,224.29,287.45Z"/><path d="M230.4,283.54c0-3.15,1.71-5.1,4.1-5.1s4.12,1.95,4.12,5.1-1.7,5.16-4.12,5.16S230.4,286.69,230.4,283.54Zm7.38,0c0-2.7-1.3-4.37-3.28-4.37s-3.25,1.67-3.25,4.37,1.3,4.43,3.25,4.43S237.78,286.23,237.78,283.54Z"/><path d="M239.83,288.1l4.18-6.16h-3.73v-.66H245v.42l-4.18,6.14h4.31v.68h-5.33Z"/><path d="M344,284.73l-2.24-3.45h.87l1.12,1.78c.24.41.5.8.77,1.2h.05c.25-.4.48-.79.73-1.2l1.07-1.78h.83l-2.24,3.53,2.44,3.71h-.88l-1.24-1.91a12.15,12.15,0,0,0-.83-1.32h-.06c-.28.42-.54.87-.82,1.32l-1.17,1.91h-.84Z"/><path d="M348.84,287.83h2.24v-7.76h-1.73v-.53a5.48,5.48,0,0,0,1.89-.64h.64v8.93H354v.69h-5.11Z"/><path class="cls-8" d="M332.92,317.83a4.41,4.41,0,0,1-2.6-1.19l.42-.57a3.68,3.68,0,0,0,2.47,1.08,1.75,1.75,0,0,0,2-1.84c0-2.94-4.46-2.15-4.46-5.28a2.42,2.42,0,0,1,2.21-2.45V306h.68v1.54a3.07,3.07,0,0,1,2.13,1.12l-.47.51a2.44,2.44,0,0,0-2-.93,1.66,1.66,0,0,0-1.75,1.71c0,2.61,4.44,1.77,4.44,5.27a2.49,2.49,0,0,1-2.38,2.57v1.55h-.68Z"/><path class="cls-8" d="M340.46,316.45l.46-.55a3.47,3.47,0,0,0,2.69,1.25,2.1,2.1,0,0,0,2.27-2.12c0-1.31-1-2.21-3.39-2.21v-.69c2.24,0,3-.93,3-2.08a1.74,1.74,0,0,0-1.93-1.78,3.14,3.14,0,0,0-2.24,1.06l-.48-.54a3.79,3.79,0,0,1,2.73-1.22,2.46,2.46,0,0,1,.88,4.84v.06a2.64,2.64,0,0,1,2.25,2.58,2.83,2.83,0,0,1-3.09,2.8A4.13,4.13,0,0,1,340.46,316.45Z"/><path class="cls-8" d="M347.9,316.52l.45-.58a3.44,3.44,0,0,0,2.68,1.21,2.43,2.43,0,0,0,2.38-2.58,2.24,2.24,0,0,0-2.34-2.48,2.94,2.94,0,0,0-1.81.65l-.53-.31.35-4.68h4.66v.73h-3.93l-.3,3.43a3.19,3.19,0,0,1,1.71-.49,2.82,2.82,0,0,1,3,3.11,3.16,3.16,0,0,1-3.2,3.32A4.23,4.23,0,0,1,347.9,316.52Z"/><line class="cls-6" x1="20" y1="339.5" x2="355" y2="339.5"/><path d="M21.77,358.61h5.48v.7H22.59v3.61h3.93v.7H22.59v4.2H27.4v.7H21.77Z"/><path d="M28.15,361.28H29l1.56,4.44c.23.71.47,1.45.72,2.1h.05c.24-.65.49-1.39.72-2.1l1.58-4.44h.8l-2.66,7.24h-.94Z"/><path d="M35.75,358.91a.63.63,0,0,1,1.26,0,.63.63,0,1,1-1.26,0Zm.23,2.37h.79v7.24H36Z"/><path d="M39,366.7c0-1.6,1.43-2.36,4.62-2.73,0-1.07-.28-2.19-1.66-2.19a3.91,3.91,0,0,0-2.28.83L39.3,362a5,5,0,0,1,2.74-1c1.73,0,2.34,1.24,2.34,2.84v4.59h-.67l-.08-.92h0a4.19,4.19,0,0,1-2.53,1.1A1.91,1.91,0,0,1,39,366.7Zm4.62.21v-2.36c-2.85.33-3.83,1-3.83,2.11A1.31,1.31,0,0,0,41.24,368,3.6,3.6,0,0,0,43.59,366.91Z"/><path d="M46.91,361.28h.65l.1,1.1h0a3.59,3.59,0,0,1,2.48-1.29c1.51,0,2.2.94,2.2,2.8v4.63h-.79V364c0-1.51-.47-2.21-1.59-2.21-.84,0-1.44.44-2.28,1.31v5.42h-.79Z"/><path d="M58.07,358.61h.84L63,365.42l1.1,2h.07c0-1-.11-2-.11-2.93v-5.88h.78v9.91H64l-4-6.82-1.12-2h-.06c0,1,.1,1.88.1,2.87v5.94h-.77Z"/><path d="M67.1,366.7c0-1.6,1.42-2.36,4.62-2.73,0-1.07-.29-2.19-1.66-2.19a3.91,3.91,0,0,0-2.28.83l-.36-.57a5.06,5.06,0,0,1,2.75-1c1.72,0,2.34,1.24,2.34,2.84v4.59h-.67l-.08-.92h0a4.14,4.14,0,0,1-2.53,1.1A1.91,1.91,0,0,1,67.1,366.7Zm4.62.21v-2.36c-2.86.33-3.84,1-3.84,2.11A1.32,1.32,0,0,0,69.37,368,3.62,3.62,0,0,0,71.72,366.91Z"/><path d="M75,366.46v-4.52H73.91v-.59l1.15-.07.1-2.1h.66v2.1H77.9v.66H75.82v4.57c0,.91.25,1.51,1.21,1.51a2.2,2.2,0,0,0,.89-.22l.19.63a4.11,4.11,0,0,1-1.21.27C75.47,368.7,75,367.8,75,366.46Z"/><path d="M79.53,365.91v-4.63h.79v4.54c0,1.48.47,2.17,1.58,2.17.84,0,1.44-.43,2.26-1.41v-5.3H85v7.24h-.67l-.07-1.19h0a3.23,3.23,0,0,1-2.45,1.37C80.21,368.7,79.53,367.78,79.53,365.91Z"/><path d="M87.66,361.28h.66l.09,1.34h0a2.49,2.49,0,0,1,2-1.53,1.52,1.52,0,0,1,.74.16l-.17.71a1.44,1.44,0,0,0-.66-.13c-.64,0-1.42.48-2,1.83v4.86h-.79Z"/><path d="M91.71,366.7c0-1.6,1.43-2.36,4.63-2.73,0-1.07-.29-2.19-1.66-2.19a4,4,0,0,0-2.29.83L92,362a5,5,0,0,1,2.75-1c1.72,0,2.34,1.24,2.34,2.84v4.59h-.67l-.08-.92h0a4.14,4.14,0,0,1-2.53,1.1A1.91,1.91,0,0,1,91.71,366.7Zm4.63.21v-2.36c-2.86.33-3.84,1-3.84,2.11A1.31,1.31,0,0,0,94,368,3.62,3.62,0,0,0,96.34,366.91Z"/><path d="M99.65,367.45v-9.73h.79v9.81c0,.34.14.49.33.49a1.14,1.14,0,0,0,.26,0l.12.63a1.64,1.64,0,0,1-.53.08C100,368.7,99.65,368.29,99.65,367.45Z"/><path d="M105.63,367.22l.51-.57A3.84,3.84,0,0,0,109,368c1.46,0,2.37-.78,2.37-1.91s-.77-1.57-1.75-2l-1.48-.65a2.76,2.76,0,0,1-2-2.48c0-1.46,1.25-2.48,2.93-2.48a3.76,3.76,0,0,1,2.8,1.19l-.46.53a3.17,3.17,0,0,0-2.34-1c-1.26,0-2.1.67-2.1,1.69s1,1.55,1.68,1.86l1.48.65c1.13.51,2.08,1.13,2.08,2.64S111,368.7,109,368.7A4.43,4.43,0,0,1,105.63,367.22Z"/><path d="M114.18,361.28h.66l.09.88h0a4.25,4.25,0,0,1,2.42-1.07c1.93,0,2.91,1.47,2.91,3.7,0,2.47-1.5,3.91-3.2,3.91a3.56,3.56,0,0,1-2.13-.88v3.94h-.79Zm5.27,3.51c0-1.75-.6-3-2.22-3a3.66,3.66,0,0,0-2.26,1.16v4.18A3.32,3.32,0,0,0,117,368C118.44,368,119.45,366.73,119.45,364.79Z"/><path d="M122.41,361.28h.65l.1,1.34h0a2.49,2.49,0,0,1,2.06-1.53,1.48,1.48,0,0,1,.73.16l-.16.71a1.49,1.49,0,0,0-.67-.13c-.64,0-1.41.48-1.94,1.83v4.86h-.79Z"/><path d="M127.06,358.91a.63.63,0,0,1,1.26,0,.63.63,0,1,1-1.26,0Zm.23,2.37h.79v7.24h-.79Z"/><path d="M130.78,361.28h.65l.1,1.1h0a3.55,3.55,0,0,1,2.47-1.29c1.51,0,2.2.94,2.2,2.8v4.63h-.78V364c0-1.51-.48-2.21-1.59-2.21a3.15,3.15,0,0,0-2.29,1.31v5.42h-.79Z"/><path d="M138.23,370a2.17,2.17,0,0,1,1.09-1.72v-.07a1.3,1.3,0,0,1-.65-1.17,1.8,1.8,0,0,1,.8-1.35v-.05a2.63,2.63,0,0,1-.93-2,2.53,2.53,0,0,1,2.6-2.57,2.48,2.48,0,0,1,1,.19h2.47v.65H143a2.34,2.34,0,0,1,.75,1.74,2.53,2.53,0,0,1-3.73,2.26,1.26,1.26,0,0,0-.57,1c0,.52.31.91,1.36.91h1.52c1.65,0,2.42.52,2.42,1.68s-1.36,2.46-3.48,2.46C139.42,372,138.23,371.22,138.23,370Zm5.69-.36c0-.78-.58-1.06-1.65-1.06h-1.48a5.38,5.38,0,0,1-.91-.13,1.82,1.82,0,0,0-.9,1.46c0,.88.86,1.48,2.34,1.48S143.92,370.5,143.92,369.63Zm-1-6a1.81,1.81,0,1,0-3.61,0,1.81,1.81,0,1,0,3.61,0Z"/><path d="M148.29,358.61h.84l1.2,5.74c.23,1.07.45,2.15.67,3.24h.05c.25-1.09.5-2.17.76-3.24l1.51-5.74h.8l1.53,5.74c.26,1.07.5,2.15.76,3.24h.07c.2-1.09.4-2.17.62-3.24l1.21-5.74h.79l-2.18,9.91H156l-1.75-6.62c-.17-.78-.34-1.47-.52-2.24h0c-.17.77-.37,1.46-.55,2.24l-1.7,6.62h-.92Z"/><path d="M160.12,366.7c0-1.6,1.43-2.36,4.62-2.73,0-1.07-.28-2.19-1.66-2.19a3.91,3.91,0,0,0-2.28.83l-.35-.57a5,5,0,0,1,2.74-1c1.73,0,2.34,1.24,2.34,2.84v4.59h-.67l-.08-.92h0a4.14,4.14,0,0,1-2.52,1.1A1.91,1.91,0,0,1,160.12,366.7Zm4.62.21v-2.36c-2.85.33-3.83,1-3.83,2.11a1.31,1.31,0,0,0,1.48,1.38A3.62,3.62,0,0,0,164.74,366.91Z"/><path d="M168.06,366.46v-4.52h-1.13v-.59l1.15-.07.1-2.1h.67v2.1h2.08v.66h-2.08v4.57c0,.91.24,1.51,1.21,1.51a2.16,2.16,0,0,0,.88-.22l.19.63a4,4,0,0,1-1.21.27C168.49,368.7,168.06,367.8,168.06,366.46Z"/><path d="M171.89,364.91c0-2.35,1.55-3.82,3.18-3.82s2.8,1.25,2.8,3.37a3.48,3.48,0,0,1,0,.57h-5.14c.05,1.77,1.09,3,2.66,3a3.28,3.28,0,0,0,1.93-.63l.3.58a4.07,4.07,0,0,1-2.32.71C173.4,368.7,171.89,367.29,171.89,364.91Zm5.26-.5c0-1.76-.8-2.64-2.06-2.64a2.58,2.58,0,0,0-2.4,2.64Z"/><path d="M179.8,361.28h.66l.09,1.34h0a2.49,2.49,0,0,1,2-1.53,1.52,1.52,0,0,1,.74.16l-.17.71a1.44,1.44,0,0,0-.66-.13c-.64,0-1.42.48-1.95,1.83v4.86h-.79Z"/><path d="M183.41,370.4a2,2,0,0,0,1.19-1.82h-.16a.67.67,0,0,1-.71-.69.68.68,0,0,1,.72-.68c.49,0,.82.45.82,1.17a2.83,2.83,0,0,1-1.63,2.53Z"/><path d="M189.48,367.41l.44-.56a3.32,3.32,0,0,0,2.59,1.17,2.35,2.35,0,0,0,2.31-2.5,2.17,2.17,0,0,0-2.27-2.41,2.88,2.88,0,0,0-1.75.63l-.52-.3.34-4.54h4.53v.71h-3.82l-.29,3.33a3,3,0,0,1,1.66-.48,2.74,2.74,0,0,1,2.94,3,3.06,3.06,0,0,1-3.1,3.22A4.06,4.06,0,0,1,189.48,367.41Z"/><path d="M197.09,363.68c0-3.2,1.06-5,2.93-5s2.91,1.77,2.91,5-1.06,5-2.91,5S197.09,366.88,197.09,363.68Zm5,0c0-2.9-.85-4.28-2.12-4.28s-2.14,1.38-2.14,4.28S198.72,368,200,368,202.14,366.59,202.14,363.68Z"/><path d="M204.65,368a.7.7,0,1,1,.69.73A.7.7,0,0,1,204.65,368Z"/><path d="M212.71,359.61h-5v-.71h6v.49c-2.3,3-2.84,5.38-3,9.13h-.86A14.74,14.74,0,0,1,212.71,359.61Z"/><path d="M218.78,358.61h5.46v.7h-4.65v3.82h3.93v.69h-3.93v4.7h-.81Z"/><path d="M225.93,367.45v-9.73h.78v9.81c0,.34.14.49.33.49a1.14,1.14,0,0,0,.26,0l.12.63a1.59,1.59,0,0,1-.53.08C226.24,368.7,225.93,368.29,225.93,367.45Z"/><path d="M232,363.54c0-3.15,1.71-5.1,4.11-5.1s4.11,1.95,4.11,5.1-1.69,5.16-4.11,5.16S232,366.69,232,363.54Zm7.38,0c0-2.7-1.3-4.37-3.27-4.37s-3.25,1.67-3.25,4.37,1.29,4.43,3.25,4.43S239.41,366.23,239.41,363.54Z"/><path d="M241.46,368.1l4.18-6.16h-3.73v-.66h4.75v.42l-4.18,6.14h4.31v.68h-5.33Z"/><path d="M344,364.73l-2.24-3.45h.87l1.12,1.78c.24.41.5.8.77,1.2h.05c.25-.4.48-.79.73-1.2l1.07-1.78h.83l-2.24,3.53,2.44,3.71h-.88l-1.24-1.91a12.15,12.15,0,0,0-.83-1.32h-.06c-.28.42-.54.87-.82,1.32l-1.17,1.91h-.84Z"/><path d="M348.84,367.83h2.24v-7.76h-1.73v-.53a5.48,5.48,0,0,0,1.89-.64h.64v8.93H354v.69h-5.11Z"/><path class="cls-8" d="M332.92,397.83a4.41,4.41,0,0,1-2.6-1.19l.42-.57a3.68,3.68,0,0,0,2.47,1.08,1.75,1.75,0,0,0,2-1.84c0-2.94-4.46-2.15-4.46-5.28a2.42,2.42,0,0,1,2.21-2.45V386h.68v1.54a3.07,3.07,0,0,1,2.13,1.12l-.47.51a2.44,2.44,0,0,0-2-.93,1.66,1.66,0,0,0-1.75,1.71c0,2.61,4.44,1.77,4.44,5.27a2.49,2.49,0,0,1-2.38,2.57v1.55h-.68Z"/><path class="cls-8" d="M340.46,396.45l.46-.55a3.47,3.47,0,0,0,2.69,1.25,2.1,2.1,0,0,0,2.27-2.12c0-1.31-1-2.21-3.39-2.21v-.69c2.24,0,3-.93,3-2.08a1.74,1.74,0,0,0-1.93-1.78,3.14,3.14,0,0,0-2.24,1.06l-.48-.54a3.79,3.79,0,0,1,2.73-1.22,2.46,2.46,0,0,1,.88,4.84v.06a2.64,2.64,0,0,1,2.25,2.58,2.83,2.83,0,0,1-3.09,2.8A4.13,4.13,0,0,1,340.46,396.45Z"/><path class="cls-8" d="M347.9,396.52l.45-.58a3.44,3.44,0,0,0,2.68,1.21,2.43,2.43,0,0,0,2.38-2.58,2.24,2.24,0,0,0-2.34-2.48,2.94,2.94,0,0,0-1.81.65l-.53-.31.35-4.68h4.66v.73h-3.93l-.3,3.43a3.19,3.19,0,0,1,1.71-.49,2.82,2.82,0,0,1,3,3.11,3.16,3.16,0,0,1-3.2,3.32A4.23,4.23,0,0,1,347.9,396.52Z"/><rect class="cls-8" x="207.25" y="618" width="148.5" height="38" rx="19"/><path class="cls-2" d="M267.46,633.1h1.69l.17,1.08h.05a5,5,0,0,1,3.06-1.34c2.5,0,3.91,2,3.91,5,0,3.4-2,5.34-4.27,5.34a4.09,4.09,0,0,1-2.61-1.11l.07,1.69V647h-2.07Zm6.74,4.82c0-2.07-.67-3.35-2.33-3.35a3.43,3.43,0,0,0-2.34,1.21v4.84a3.3,3.3,0,0,0,2.14.9C273.11,641.52,274.2,640.25,274.2,637.92Z"/><path class="cls-2" d="M278,640.37c0-2.12,1.8-3.22,5.92-3.67,0-1.15-.43-2.16-1.89-2.16a5.4,5.4,0,0,0-2.86,1l-.78-1.41a7.58,7.58,0,0,1,4-1.3c2.47,0,3.6,1.57,3.6,4.2v6h-1.69l-.17-1.13H284a4.93,4.93,0,0,1-3.15,1.36A2.73,2.73,0,0,1,278,640.37Zm5.92.07V638c-2.94.34-3.93,1.1-3.93,2.22s.67,1.37,1.55,1.37A3.49,3.49,0,0,0,283.88,640.44Z"/><path class="cls-2" d="M288.09,646.94l.39-1.62a2.55,2.55,0,0,0,.73.15c1.08,0,1.71-.8,2.07-1.86l.19-.68-3.92-9.83h2.12l1.84,5.09c.29.89.59,1.88.9,2.79h.09l.77-2.79,1.59-5.09h2l-3.64,10.49c-.78,2.13-1.82,3.55-3.91,3.55A3.43,3.43,0,0,1,288.09,646.94Z"/><rect class="cls-9" x="10.25" y="618" width="148.5" height="38" rx="19"/><path class="cls-10" d="M57.83,638.05a4.87,4.87,0,0,1,4.9-5.21,4.26,4.26,0,0,1,2.9,1.14l-1,1.35a2.57,2.57,0,0,0-1.76-.77c-1.68,0-2.86,1.4-2.86,3.49s1.15,3.49,2.79,3.49a3.39,3.39,0,0,0,2.16-.9l.86,1.37a4.91,4.91,0,0,1-3.22,1.22C59.89,643.23,57.83,641.34,57.83,638.05Z"/><path class="cls-10" d="M67.07,640.37c0-2.12,1.8-3.22,5.92-3.67,0-1.15-.43-2.16-1.89-2.16a5.43,5.43,0,0,0-2.86,1l-.78-1.41a7.61,7.61,0,0,1,4-1.3c2.47,0,3.6,1.57,3.6,4.2v6H73.37l-.16-1.13h-.08A4.93,4.93,0,0,1,70,643.23,2.73,2.73,0,0,1,67.07,640.37Zm5.92.07V638c-2.93.34-3.92,1.1-3.92,2.22s.66,1.37,1.54,1.37A3.49,3.49,0,0,0,73,640.44Z"/><path class="cls-10" d="M78,633.1h1.69l.17,1.37h.05a4.71,4.71,0,0,1,3.28-1.63c2.1,0,3,1.41,3,3.93V643H84.15v-6c0-1.71-.5-2.39-1.67-2.39A3.35,3.35,0,0,0,80.06,636v7H78Z"/><path class="cls-10" d="M88.52,638.05a4.87,4.87,0,0,1,4.9-5.21,4.26,4.26,0,0,1,2.9,1.14l-1,1.35a2.57,2.57,0,0,0-1.76-.77c-1.68,0-2.86,1.4-2.86,3.49s1.15,3.49,2.79,3.49a3.39,3.39,0,0,0,2.16-.9l.86,1.37a4.91,4.91,0,0,1-3.22,1.22C90.58,643.23,88.52,641.34,88.52,638.05Z"/><path class="cls-10" d="M97.36,638.05c0-3.21,2.22-5.21,4.52-5.21,2.63,0,4.05,1.9,4.05,4.69a4.93,4.93,0,0,1-.11,1.06H99.39a3,3,0,0,0,3.07,3,4.24,4.24,0,0,0,2.35-.73l.73,1.31a6,6,0,0,1-3.35,1C99.5,643.23,97.36,641.33,97.36,638.05Zm6.77-.9c0-1.69-.77-2.68-2.21-2.68a2.67,2.67,0,0,0-2.54,2.68Z"/><path class="cls-10" d="M108.23,640.68v-12h2.07v12.14c0,.55.24.75.49.75a1.7,1.7,0,0,0,.34,0l.27,1.56a3.22,3.22,0,0,1-1.11.16C108.79,643.23,108.23,642.28,108.23,640.68Z"/></svg>