<?xml version="1.0" standalone="no"?><!DOCTYPE svg PUBLIC "-//W3C//DTD SVG 1.1//EN" "http://www.w3.org/Graphics/SVG/1.1/DTD/svg11.dtd"><svg t="1542597524337" class="icon" style="" viewBox="0 0 1024 1024" version="1.1" xmlns="http://www.w3.org/2000/svg" p-id="16880" xmlns:xlink="http://www.w3.org/1999/xlink" width="128" height="128"><defs><style type="text/css"></style></defs><path d="M494.399091 74.100289h116.112454v207.948813h-116.112454zM195.017922 74.106289L96.643538 282.055102H217.002008V74.106289zM876.740585 74.106289v207.948813h127.014496L906.680702 74.106289z" fill="#9BBEFF" p-id="16881"></path><path d="M299.58633 74.100289h114.152446v207.948813h-114.152446zM691.811862 74.100289h115.438451v207.948813h-115.438451z" fill="#FF8C8C" p-id="16882"></path><path d="M571.193391 282.055102v667.836609h378.575479V282.055102" fill="#C8F5FF" p-id="16883"></path><path d="M251.278142 282.049102h148.62458v667.836608h-148.62458z" fill="#AAE6FF" p-id="16884"></path><path d="M159.919785 371.343451c33.696132-15.612061 57.080223-49.708194 57.080223-89.288349h-114.160446c0 39.578155 23.384091 73.676288 57.080223 89.288349zM552.451318 371.783452c34.216134-15.40206 58.052227-49.770194 58.052227-89.72635h-116.104454c0 39.956156 23.836093 74.32429 58.052227 89.72635z" fill="#7D9BFF" p-id="16885"></path><path d="M887.236626 282.055102h-79.980313c0 54.330212 44.046172 98.376384 98.376385 98.376384a97.986383 97.986383 0 0 0 39.990156-8.498033c-34.394134-15.32806-58.386228-49.790194-58.386228-89.878351z" fill="#FFFFFF" p-id="16886"></path><path d="M1004.009082 282.055102h-116.770456c0 40.086157 23.990094 74.550291 58.386228 89.878351 34.392134-15.32806 58.384228-49.790194 58.384228-89.878351z" fill="#7D9BFF" p-id="16887"></path><path d="M287.984285 282.055102H217.002008c0 54.330212 44.046172 98.376384 98.376384 98.376384a98.122383 98.122383 0 0 0 35.492139-6.626026c-36.788144-14.240056-62.886246-49.936195-62.886246-91.750358z" fill="#FFFFFF" p-id="16888"></path><path d="M413.752776 282.055102h-125.768491c0 41.814163 26.100102 77.508303 62.884246 91.750358 36.784144-14.240056 62.884246-49.936195 62.884245-91.750358z" fill="#FF5A5A" p-id="16889"></path><path d="M688.301849 282.055102h-77.796304c0 54.330212 44.046172 98.376384 98.376384 98.376384a98.048383 98.048383 0 0 0 38.898152-8.004031c-34.982137-15.078059-59.478232-49.860195-59.478232-90.372353z" fill="#FFFFFF" p-id="16890"></path><path d="M807.256313 282.055102h-118.954464c0 40.512158 24.496096 75.294294 59.478232 90.372353 34.980137-15.078059 59.476232-49.860195 59.476232-90.372353z" fill="#FF5A5A" p-id="16891"></path><path d="M563.20336 777.929039h386.56551v171.958671H563.20336z" fill="#F5C86E" p-id="16892"></path><path d="M1002.211075 929.897632h-32.448127V653.738554c0-11.044043-8.954035-19.994078-19.996078-19.994078s-19.996078 8.952035-19.996078 19.994078v104.202407H419.8968V446.067742c0-11.044043-8.954035-19.996078-19.996078-19.996078-11.042043 0-19.996078 8.952035-19.996078 19.996078v483.82989H93.977527V397.827554c7.956031 1.692007 16.196063 2.60001 24.648096 2.60001 40.95216 0 77.114301-20.904082 98.376385-52.602205 21.260083 31.700124 57.422224 52.602205 98.374384 52.602205s77.114301-20.904082 98.376384-52.602205c21.260083 31.700124 57.424224 52.602205 98.376385 52.602205 40.95216 0 77.114301-20.904082 98.376384-52.602205 21.260083 31.700124 57.424224 52.602205 98.376384 52.602205 40.95216 0 77.112301-20.904082 98.374384-52.602205 21.260083 31.700124 57.424224 52.602205 98.376385 52.602205a118.400463 118.400463 0 0 0 24.140094-2.48201v126.716495c0 11.044043 8.954035 19.996078 19.996078 19.996079s19.996078-8.952035 19.996078-19.996079v-143.190559C1002.369076 360.367408 1024.00516 323.701264 1024.00516 282.055102a19.906078 19.906078 0 0 0-3.354013-11.080044L924.798772 65.648256a20.000078 20.000078 0 0 0-18.12007-11.538045H118.371622a19.994078 19.994078 0 0 0-18.07407 11.446045L1.921168 273.505068a19.990078 19.990078 0 0 0-1.574007 12.260048c1.238005 39.890156 22.286087 74.858292 53.63821 95.378373v548.752143H21.537244c-11.042043 0-19.996078 8.952035-19.996078 19.996079 0 11.044043 8.954035 19.994078 19.996078 19.994078h980.675831c11.042043 0 19.994078-8.952035 19.994078-19.994078 0.002-11.042043-8.952035-19.994078-19.996078-19.994079zM118.625623 360.439408c-36.310142 0-66.924261-24.822097-75.788296-58.386228h151.574592c-8.862035 33.564131-39.478154 58.386228-75.786296 58.386228z m669.074614-98.378384h-156.910613V94.102368h156.910613v167.958656z m-196.900769 0h-156.906613V94.102368h156.908613v167.958656h-0.002z m-196.894769 0h-156.908613V94.102368h156.908613v167.958656z m-78.530307 98.378384c-36.308142 0-66.922261-24.822097-75.786296-58.386228h151.572592c-8.862035 33.564131-39.474154 58.386228-75.786296 58.386228z m196.754769 0c-36.312142 0-66.924261-24.822097-75.788297-58.386228h151.574593c-8.862035 33.564131-39.476154 58.386228-75.786296 58.386228z m196.752768 0c-36.312142 0-66.924261-24.822097-75.788296-58.386228h151.572592c-8.864035 33.564131-39.476154 58.386228-75.784296 58.386228z m120.964473-58.388228h151.574592c-8.864035 33.564131-39.476154 58.386228-75.788296 58.386228-36.310142 0-66.924261-24.820097-75.786296-58.386228z m142.508556-39.990156h-144.664565V94.102368h66.258259l78.406306 167.958656zM131.031672 94.102368h65.974258v167.958656H51.573361l79.458311-167.958656z m288.865128 835.795264v-131.968515h509.875992v131.968515H419.8968z" fill="" p-id="16893"></path><path d="M302.00634 639.608498a20.110079 20.110079 0 0 0-5.860023 14.136056c0 5.258021 2.140008 10.418041 5.860023 14.136055a20.136079 20.136079 0 0 0 14.134055 5.858023c5.260021 0 10.418041-2.140008 14.136055-5.858023a20.144079 20.144079 0 0 0 5.858023-14.136055c0-5.278021-2.138008-10.418041-5.858023-14.136056a20.112079 20.112079 0 0 0-14.136055-5.858022 20.136079 20.136079 0 0 0-14.134055 5.858022zM692.515865 483.449888c-7.810031-7.808031-20.46608-7.808031-28.27811 0l-135.444529 135.44453c-7.808031 7.808031-7.808031 20.46808 0 28.27811a19.928078 19.928078 0 0 0 14.138055 5.856023 19.934078 19.934078 0 0 0 14.138055-5.856023l135.444529-135.444529c7.812031-7.808031 7.812031-20.47008 0.002-28.278111zM496.279099 659.702577c-5.260021 0-10.418041 2.120008-14.136056 5.838023a20.180079 20.180079 0 0 0-5.858023 14.136055c0 5.278021 2.138008 10.418041 5.858023 14.136055a20.054078 20.054078 0 0 0 14.136056 5.858023c5.258021 0 10.418041-2.120008 14.134055-5.858023a20.110079 20.110079 0 0 0 5.860023-14.136055c0-5.258021-2.140008-10.418041-5.860023-14.136055a20.120079 20.120079 0 0 0-14.134055-5.838023zM708.297927 635.950484a19.930078 19.930078 0 0 0 14.138055-5.856023l136.496533-136.496533c7.808031-7.808031 7.808031-20.46808 0-28.27811-7.810031-7.808031-20.46608-7.808031-28.27811 0l-136.496533 136.496533c-7.808031 7.808031-7.808031 20.46808 0 28.27811a19.934078 19.934078 0 0 0 14.140055 5.856023zM949.76887 568.646221c-5.258021 0-10.418041 2.140008-14.136055 5.858023s-5.858023 8.858035-5.858023 14.136055a20.140079 20.140079 0 0 0 5.858023 14.136056 20.148079 20.148079 0 0 0 14.136055 5.858022 20.140079 20.140079 0 0 0 14.134055-5.858022 20.142079 20.142079 0 0 0 5.860023-14.136056c0-5.258021-2.140008-10.418041-5.860023-14.136055a20.144079 20.144079 0 0 0-14.134055-5.858023z" fill="" p-id="16894"></path></svg>