<svg id="圖層_1" data-name="圖層 1" xmlns="http://www.w3.org/2000/svg" viewBox="0 0 375 667"><defs><style>.cls-1{fill:#f0efed;}.cls-2{fill:#fff;}.cls-3{fill:#555;}.cls-4{fill:#333;}.cls-5{fill:#1e5bc1;}.cls-6{fill:none;stroke:#ededed;stroke-miterlimit:10;}.cls-7{fill:#949494;}</style></defs><title>sg_store_list</title><rect class="cls-1" width="375" height="667"/><rect class="cls-2" x="10" y="119" width="355" height="97" rx="3"/><rect class="cls-2" width="375" height="54"/><rect class="cls-2" width="54" height="54"/><path class="cls-3" d="M22.25,27,34.81,14.44a1.43,1.43,0,0,0-2-2L19.34,25.87a.75.75,0,0,0-.15.09,1.52,1.52,0,0,0,0,2.08.75.75,0,0,0,.15.09L32.78,41.58a1.43,1.43,0,0,0,2-2Z"/><path class="cls-3" d="M102.57,33.75l.9-1.2a4.93,4.93,0,0,0,3.22,1.28c1.44,0,2.14-.76,2.14-1.7,0-1.12-1.28-1.6-2.48-2.06-1.52-.56-3.18-1.3-3.18-3.14s1.4-3.08,3.76-3.08a5.52,5.52,0,0,1,3.36,1.22l-.88,1.18a4,4,0,0,0-2.46-1c-1.38,0-2,.72-2,1.56,0,1,1.12,1.42,2.34,1.88,1.58.6,3.32,1.24,3.32,3.3,0,1.76-1.4,3.22-4,3.22A6.55,6.55,0,0,1,102.57,33.75Z"/><path class="cls-3" d="M112.33,29.57c0-3.52,2.38-5.72,4.9-5.72,2.76,0,4.32,2,4.32,5.1a7.11,7.11,0,0,1-.08,1h-7.32c.12,2.32,1.54,3.8,3.6,3.8a4.68,4.68,0,0,0,2.72-.86l.66,1.2a6.46,6.46,0,0,1-3.6,1.12C114.65,35.25,112.33,33.15,112.33,29.57Zm7.62-.9c0-2.18-1-3.36-2.7-3.36-1.54,0-2.9,1.24-3.12,3.36Z"/><path class="cls-3" d="M124.23,32.83V19.07h1.82V33c0,.56.24.78.52.78a1.6,1.6,0,0,0,.38,0l.26,1.4a2.8,2.8,0,0,1-1.06.16C124.79,35.25,124.23,34.37,124.23,32.83Z"/><path class="cls-3" d="M129.11,29.57c0-3.52,2.38-5.72,4.9-5.72,2.76,0,4.32,2,4.32,5.1a7.11,7.11,0,0,1-.08,1h-7.32c.12,2.32,1.54,3.8,3.6,3.8a4.68,4.68,0,0,0,2.72-.86l.66,1.2a6.46,6.46,0,0,1-3.6,1.12C131.43,35.25,129.11,33.15,129.11,29.57Zm7.62-.9c0-2.18-1-3.36-2.7-3.36-1.54,0-2.9,1.24-3.12,3.36Z"/><path class="cls-3" d="M140.19,29.57c0-3.62,2.46-5.72,5.24-5.72a4.64,4.64,0,0,1,3.18,1.28l-.94,1.2a3.21,3.21,0,0,0-2.16-1c-2,0-3.42,1.7-3.42,4.2s1.36,4.16,3.36,4.16A3.83,3.83,0,0,0,148,32.65l.8,1.22a5.27,5.27,0,0,1-3.52,1.38C142.41,35.25,140.19,33.17,140.19,29.57Z"/><path class="cls-3" d="M151.29,31.63v-6h-1.62V24.23l1.7-.1.22-3.06h1.52v3.06h2.94v1.48h-2.94v6.06c0,1.34.42,2.1,1.68,2.1a3.85,3.85,0,0,0,1.24-.28l.36,1.36a6.84,6.84,0,0,1-2,.4C152.07,35.25,151.29,33.79,151.29,31.63Z"/><path class="cls-3" d="M162.31,32.17c0-2.36,2.06-3.54,6.68-4.06,0-1.4-.46-2.74-2.24-2.74a6,6,0,0,0-3.26,1.16l-.72-1.26a8.17,8.17,0,0,1,4.28-1.42c2.64,0,3.76,1.78,3.76,4.46V35h-1.5l-.16-1.3h-.06a5.82,5.82,0,0,1-3.6,1.56A2.94,2.94,0,0,1,162.31,32.17Zm6.68.18v-3c-3.66.44-4.9,1.34-4.9,2.74,0,1.24.84,1.74,1.92,1.74A4.44,4.44,0,0,0,169,32.35Z"/><path class="cls-3" d="M178.75,32.83V19.07h1.82V33c0,.56.24.78.52.78a1.6,1.6,0,0,0,.38,0l.26,1.4a2.8,2.8,0,0,1-1.06.16C179.31,35.25,178.75,34.37,178.75,32.83Z"/><path class="cls-3" d="M183.63,29.57c0-3.62,2.38-5.72,5-5.72s5,2.1,5,5.72-2.38,5.68-5,5.68S183.63,33.17,183.63,29.57Zm8.2,0c0-2.5-1.28-4.2-3.16-4.2s-3.14,1.7-3.14,4.2,1.26,4.16,3.14,4.16S191.83,32.07,191.83,29.57Z"/><path class="cls-3" d="M195.75,29.57c0-3.62,2.46-5.72,5.24-5.72a4.64,4.64,0,0,1,3.18,1.28l-.94,1.2a3.21,3.21,0,0,0-2.16-1c-2,0-3.42,1.7-3.42,4.2S199,33.73,201,33.73a3.83,3.83,0,0,0,2.56-1.08l.8,1.22a5.27,5.27,0,0,1-3.52,1.38C198,35.25,195.75,33.17,195.75,29.57Z"/><path class="cls-3" d="M205.85,32.17c0-2.36,2.06-3.54,6.68-4.06,0-1.4-.46-2.74-2.24-2.74A6,6,0,0,0,207,26.53l-.72-1.26a8.17,8.17,0,0,1,4.28-1.42c2.64,0,3.76,1.78,3.76,4.46V35h-1.5l-.16-1.3h-.06a5.82,5.82,0,0,1-3.6,1.56A2.94,2.94,0,0,1,205.85,32.17Zm6.68.18v-3c-3.66.44-4.9,1.34-4.9,2.74,0,1.24.84,1.74,1.92,1.74A4.44,4.44,0,0,0,212.53,32.35Z"/><path class="cls-3" d="M217.81,32.83V19.07h1.82V33c0,.56.24.78.52.78a1.6,1.6,0,0,0,.38,0l.26,1.4a2.8,2.8,0,0,1-1.06.16C218.37,35.25,217.81,34.37,217.81,32.83Z"/><path class="cls-3" d="M226.77,33.75l.9-1.2a4.93,4.93,0,0,0,3.22,1.28c1.44,0,2.14-.76,2.14-1.7,0-1.12-1.28-1.6-2.48-2.06-1.52-.56-3.18-1.3-3.18-3.14s1.4-3.08,3.76-3.08a5.52,5.52,0,0,1,3.36,1.22l-.88,1.18a4,4,0,0,0-2.46-1c-1.38,0-2,.72-2,1.56,0,1,1.12,1.42,2.34,1.88,1.58.6,3.32,1.24,3.32,3.3,0,1.76-1.4,3.22-4,3.22A6.55,6.55,0,0,1,226.77,33.75Z"/><path class="cls-3" d="M237.23,31.63v-6h-1.62V24.23l1.7-.1.22-3.06h1.52v3.06H242v1.48h-2.94v6.06c0,1.34.42,2.1,1.68,2.1a3.85,3.85,0,0,0,1.24-.28l.36,1.36a6.84,6.84,0,0,1-2,.4C238,35.25,237.23,33.79,237.23,31.63Z"/><path class="cls-3" d="M243.33,29.57c0-3.62,2.38-5.72,5-5.72s5,2.1,5,5.72-2.38,5.68-5,5.68S243.33,33.17,243.33,29.57Zm8.2,0c0-2.5-1.28-4.2-3.16-4.2s-3.14,1.7-3.14,4.2,1.26,4.16,3.14,4.16S251.53,32.07,251.53,29.57Z"/><path class="cls-3" d="M256.27,24.13h1.5l.16,2H258a3.75,3.75,0,0,1,3.08-2.26,2.32,2.32,0,0,1,1.16.24l-.34,1.6a2.57,2.57,0,0,0-1.06-.18c-.9,0-2,.64-2.74,2.5v7h-1.82Z"/><path class="cls-3" d="M263,29.57c0-3.52,2.38-5.72,4.9-5.72,2.76,0,4.32,2,4.32,5.1a7.11,7.11,0,0,1-.08,1h-7.32c.12,2.32,1.54,3.8,3.6,3.8a4.68,4.68,0,0,0,2.72-.86l.66,1.2a6.46,6.46,0,0,1-3.6,1.12C265.31,35.25,263,33.15,263,29.57Zm7.62-.9c0-2.18-1-3.36-2.7-3.36-1.54,0-2.9,1.24-3.12,3.36Z"/><path class="cls-4" d="M24.56,157.87h-4v-1.42h9.67v1.42h-4v11.8H24.56Z"/><path class="cls-4" d="M32.58,156.45h2l2.54,7.08c.3.92.61,1.83.93,2.75h.09c.31-.92.6-1.83.9-2.75l2.52-7.08h2v13.22H42v-7.31c0-1.14.12-2.74.21-3.89h-.07l-1,3-2.51,6.86H37.52L35,161.47l-1-3H33.9c.07,1.15.19,2.75.19,3.89v7.31H32.58Z"/><path class="cls-4" d="M50.28,167.94l1-1.14a5.13,5.13,0,0,0,3.64,1.64c1.73,0,2.77-.86,2.77-2.16s-.95-1.78-2.19-2.34l-1.91-.83c-1.23-.52-2.68-1.46-2.68-3.38s1.76-3.51,4.16-3.51A5.36,5.36,0,0,1,59,157.86l-.88,1.06a4.25,4.25,0,0,0-3-1.24c-1.5,0-2.47.75-2.47,1.94s1.15,1.76,2.18,2.2l1.89.81c1.53.66,2.72,1.56,2.72,3.53s-1.73,3.74-4.49,3.74A6.31,6.31,0,0,1,50.28,167.94Z"/><path class="cls-4" d="M61.63,166.64v-5.42H60.18V160l1.53-.09.19-2.76h1.37v2.76h2.65v1.33H63.27v5.46c0,1.2.38,1.89,1.52,1.89a3.58,3.58,0,0,0,1.11-.25l.33,1.22a6.19,6.19,0,0,1-1.81.36C62.34,169.9,61.63,168.59,61.63,166.64Z"/><path class="cls-4" d="M67.12,164.79c0-3.26,2.15-5.15,4.54-5.15s4.54,1.89,4.54,5.15-2.14,5.11-4.54,5.11S67.12,168,67.12,164.79Zm7.39,0c0-2.25-1.16-3.78-2.85-3.78s-2.83,1.53-2.83,3.78,1.14,3.74,2.83,3.74S74.51,167,74.51,164.79Z"/><path class="cls-4" d="M78.77,159.89h1.35l.14,1.78h.06a3.36,3.36,0,0,1,2.77-2,2.14,2.14,0,0,1,1,.21l-.31,1.44a2.43,2.43,0,0,0-1-.16c-.82,0-1.82.58-2.47,2.25v6.29H78.77Z"/><path class="cls-4" d="M84.82,164.79c0-3.17,2.14-5.15,4.41-5.15,2.48,0,3.89,1.8,3.89,4.59a7.57,7.57,0,0,1-.07.94H86.46c.1,2.08,1.38,3.42,3.24,3.42a4.21,4.21,0,0,0,2.45-.78l.59,1.08a5.8,5.8,0,0,1-3.24,1C86.91,169.9,84.82,168,84.82,164.79Zm6.86-.81c0-2-.9-3-2.43-3s-2.61,1.12-2.81,3Z"/><path class="cls-4" d="M21.48,181.46h.87l4.18,7,1.13,2.06h.07c-.05-1-.11-2-.11-3v-6h.8v10.21h-.87l-4.16-7-1.15-2h-.07c0,1,.11,1.93.11,3v6.12h-.8Z"/><path class="cls-4" d="M30.68,187.94c0-2.49,1.57-3.94,3.38-3.94s3.37,1.45,3.37,3.94-1.57,3.91-3.37,3.91S30.68,190.42,30.68,187.94Zm5.91,0c0-1.9-1.08-3.22-2.53-3.22s-2.52,1.32-2.52,3.22,1.06,3.21,2.52,3.21S36.59,189.85,36.59,187.94Z"/><path class="cls-4" d="M39.1,191.09a.71.71,0,1,1,.71.76A.72.72,0,0,1,39.1,191.09Z"/><path class="cls-4" d="M46.35,188.75H41.83v-.49l4.51-6.51h.79v6.33h1.45v.67H47.13v2.92h-.78Zm0-.67v-3.47c0-.47,0-1.28.07-1.75h-.07c-.24.42-.52.81-.81,1.26l-2.78,4Z"/><path class="cls-4" d="M54.89,182.48H49.72v-.73h6.17v.5c-2.37,3.1-2.93,5.55-3.09,9.42h-.88A15.23,15.23,0,0,1,54.89,182.48Z"/><path class="cls-4" d="M57.28,193.6a2.12,2.12,0,0,0,1.23-1.88.44.44,0,0,1-.16,0,.69.69,0,0,1-.73-.72.7.7,0,0,1,.74-.7c.51,0,.84.46.84,1.21a2.91,2.91,0,0,1-1.68,2.6Z"/><path class="cls-4" d="M64.63,181.46H67c3.14,0,4.68,1.94,4.68,5.07s-1.54,5.14-4.66,5.14H64.63ZM67,191c2.69,0,3.88-1.78,3.88-4.42s-1.19-4.37-3.88-4.37H65.47V191Z"/><path class="cls-4" d="M73.34,187.94c0-2.42,1.6-3.94,3.28-3.94s2.88,1.29,2.88,3.48a3.73,3.73,0,0,1,0,.59H74.17c0,1.82,1.12,3.09,2.73,3.09a3.35,3.35,0,0,0,2-.64l.31.6a4.21,4.21,0,0,1-2.39.73C74.89,191.85,73.34,190.39,73.34,187.94Zm5.42-.52c0-1.8-.83-2.71-2.13-2.71a2.64,2.64,0,0,0-2.46,2.71Z"/><path class="cls-4" d="M82.76,187.76l-2.31-3.56h.9L82.5,186c.25.42.51.82.79,1.23h.06l.74-1.23,1.11-1.84h.85l-2.31,3.64,2.52,3.83h-.91l-1.27-2a14.07,14.07,0,0,0-.86-1.36h-.06c-.28.44-.55.9-.85,1.36l-1.2,2h-.87Z"/><path class="cls-4" d="M87.63,181.76a.66.66,0,0,1,1.31,0,.66.66,0,1,1-1.31,0Zm.24,2.44h.81v7.47h-.81Z"/><path class="cls-4" d="M91.47,184.2h.67l.1,1.14h0A3.65,3.65,0,0,1,94.82,184c1.55,0,2.27,1,2.27,2.89v4.78h-.82V187c0-1.55-.49-2.27-1.63-2.27a3.26,3.26,0,0,0-2.36,1.35v5.59h-.81Z"/><path class="cls-4" d="M99.14,193.18a2.28,2.28,0,0,1,1.12-1.78v-.07a1.33,1.33,0,0,1-.67-1.2,1.84,1.84,0,0,1,.83-1.39v-.06a2.68,2.68,0,0,1-1-2,2.62,2.62,0,0,1,2.68-2.65,2.58,2.58,0,0,1,1,.2h2.55v.67H104a2.4,2.4,0,0,1,.77,1.8,2.57,2.57,0,0,1-2.63,2.63,2.5,2.5,0,0,1-1.21-.31,1.33,1.33,0,0,0-.58,1c0,.53.32.94,1.4.94h1.57c1.69,0,2.49.53,2.49,1.72s-1.4,2.53-3.59,2.53C100.36,195.22,99.14,194.44,99.14,193.18Zm5.86-.38c0-.8-.59-1.09-1.7-1.09h-1.52a4.74,4.74,0,0,1-.94-.13,1.88,1.88,0,0,0-.93,1.5c0,.91.88,1.53,2.41,1.53S105,193.7,105,192.8Zm-1-6.15a1.86,1.86,0,1,0-3.71,0,1.86,1.86,0,1,0,3.71,0Z"/><path class="cls-4" d="M109.5,181.46h.87l1.23,5.91c.24,1.1.46,2.21.69,3.33h0c.26-1.12.52-2.23.79-3.33l1.55-5.91h.83l1.57,5.91c.27,1.1.52,2.21.78,3.33h.07c.21-1.12.42-2.23.65-3.33l1.25-5.91h.81l-2.24,10.21h-1l-1.8-6.82c-.17-.82-.35-1.52-.54-2.32h0c-.17.8-.38,1.5-.56,2.32l-1.75,6.82h-1Z"/><path class="cls-4" d="M121.63,191.09a.71.71,0,1,1,.71.76A.72.72,0,0,1,121.63,191.09Z"/><path class="cls-4" d="M128.68,181.46h3c2,0,3.4.74,3.4,2.73a2.69,2.69,0,0,1-2.55,2.8l2.76,4.68h-.95l-2.72-4.61h-2.09v4.61h-.84Zm2.79,4.9c1.76,0,2.74-.7,2.74-2.17s-1-2-2.74-2h-1.95v4.2Z"/><path class="cls-4" d="M136.34,187.94c0-2.41,1.54-3.94,3.3-3.94a3.34,3.34,0,0,1,2.23.92l-.05-1.35v-3h.81v11.14H142l-.09-.94h0a3.47,3.47,0,0,1-2.4,1.12C137.56,191.85,136.34,190.45,136.34,187.94Zm5.48,2v-4.32a3,3,0,0,0-2.09-.92c-1.43,0-2.52,1.39-2.52,3.22s.85,3.19,2.37,3.19A3.14,3.14,0,0,0,141.82,190Z"/><path class="cls-4" d="M145.06,191.09a.72.72,0,1,1,.72.76A.73.73,0,0,1,145.06,191.09Z"/><path class="cls-4" d="M148.27,193.6a2.12,2.12,0,0,0,1.23-1.88.5.5,0,0,1-.17,0,.69.69,0,0,1-.73-.72.71.71,0,0,1,.75-.7c.5,0,.84.46.84,1.21a2.9,2.9,0,0,1-1.69,2.6Z"/><path class="cls-4" d="M154.85,190.32l.51-.59a4,4,0,0,0,3,1.36c1.51,0,2.45-.8,2.45-2s-.8-1.62-1.81-2.07l-1.52-.67a2.84,2.84,0,0,1-2.08-2.55c0-1.52,1.29-2.57,3-2.57a3.93,3.93,0,0,1,2.89,1.24l-.48.54a3.29,3.29,0,0,0-2.41-1c-1.3,0-2.17.69-2.17,1.74s1,1.59,1.74,1.92l1.52.67c1.17.52,2.15,1.16,2.15,2.72s-1.31,2.77-3.31,2.77A4.53,4.53,0,0,1,154.85,190.32Z"/><path class="cls-4" d="M163.65,180.53h.81v4.82A3.64,3.64,0,0,1,167,184c1.56,0,2.27,1,2.27,2.89v4.78h-.81V187c0-1.55-.49-2.27-1.64-2.27a3.26,3.26,0,0,0-2.36,1.35v5.59h-.81Z"/><path class="cls-4" d="M171.66,181.76a.65.65,0,0,1,1.3,0,.65.65,0,1,1-1.3,0Zm.24,2.44h.81v7.47h-.81Z"/><path class="cls-4" d="M175.5,190.56v-10h.81v10.11c0,.35.14.51.34.51a1.14,1.14,0,0,0,.26,0l.13.64a1.45,1.45,0,0,1-.55.09C175.82,191.85,175.5,191.43,175.5,190.56Z"/><path class="cls-4" d="M179,181.76a.65.65,0,0,1,1.3,0,.65.65,0,1,1-1.3,0Zm.23,2.44h.82v7.47h-.82Z"/><path class="cls-4" d="M182.83,184.2h.67l.1,1.14h0a3.67,3.67,0,0,1,2.55-1.34c1.56,0,2.27,1,2.27,2.89v4.78h-.81V187c0-1.55-.49-2.27-1.64-2.27a3.26,3.26,0,0,0-2.36,1.35v5.59h-.81Z"/><path class="cls-4" d="M194.33,181.46h2.41c3.13,0,4.67,1.94,4.67,5.07s-1.54,5.14-4.66,5.14h-2.42Zm2.32,9.49c2.69,0,3.88-1.78,3.88-4.42s-1.19-4.37-3.88-4.37h-1.48V191Z"/><path class="cls-4" d="M203.41,181.76a.65.65,0,0,1,1.3,0,.65.65,0,1,1-1.3,0Zm.24,2.44h.81v7.47h-.81Z"/><path class="cls-4" d="M206.34,190.83l.43-.59a3.5,3.5,0,0,0,2.35.94c1.14,0,1.71-.65,1.71-1.42s-.94-1.29-1.8-1.59c-1.11-.4-2.29-.86-2.29-2.15,0-1.09.87-2,2.45-2a3.62,3.62,0,0,1,2.18.8l-.44.56a2.81,2.81,0,0,0-1.75-.67c-1.12,0-1.62.62-1.62,1.29,0,.83.81,1.13,1.68,1.46,1.14.43,2.41.84,2.41,2.28,0,1.15-.91,2.13-2.57,2.13A4.38,4.38,0,0,1,206.34,190.83Z"/><path class="cls-4" d="M213.45,189.54v-4.65h-1.16v-.62l1.19-.07.1-2.16h.68v2.16h2.15v.69h-2.15v4.7c0,.94.25,1.56,1.25,1.56a2.31,2.31,0,0,0,.91-.23l.2.65a4.39,4.39,0,0,1-1.25.28C213.9,191.85,213.45,190.92,213.45,189.54Z"/><path class="cls-4" d="M218.07,191.09a.72.72,0,1,1,.71.76A.73.73,0,0,1,218.07,191.09Z"/><path class="cls-4" d="M221.28,193.6a2.12,2.12,0,0,0,1.23-1.88.5.5,0,0,1-.17,0,.69.69,0,0,1-.73-.72.7.7,0,0,1,.74-.7c.51,0,.84.46.84,1.21a2.89,2.89,0,0,1-1.68,2.6Z"/><path class="cls-4" d="M230.8,182.17h-3.21v-.71h7.28v.71h-3.22v9.5h-.85Z"/><path class="cls-4" d="M235,189.79c0-1.65,1.47-2.44,4.76-2.82,0-1.1-.29-2.25-1.71-2.25a4,4,0,0,0-2.35.85l-.36-.58a5.09,5.09,0,0,1,2.82-1c1.78,0,2.41,1.28,2.41,2.93v4.74h-.68l-.09-1h0a4.32,4.32,0,0,1-2.61,1.14A2,2,0,0,1,235,189.79Zm4.76.21v-2.42c-2.94.33-4,1-4,2.17a1.34,1.34,0,0,0,1.53,1.41A3.68,3.68,0,0,0,239.77,190Z"/><path class="cls-4" d="M243,181.76a.65.65,0,0,1,1.3,0,.65.65,0,1,1-1.3,0Zm.24,2.44H244v7.47h-.81Z"/><path class="cls-4" d="M246.78,184.2h.68l.09.91h0a4.37,4.37,0,0,1,2.5-1.11c2,0,3,1.52,3,3.81,0,2.55-1.54,4-3.29,4a3.69,3.69,0,0,1-2.2-.91l0,1.37V195h-.82Zm5.42,3.61c0-1.79-.61-3.09-2.28-3.09a3.72,3.72,0,0,0-2.32,1.19v4.31a3.36,3.36,0,0,0,2.11.91C251.17,191.13,252.2,189.82,252.2,187.81Z"/><path class="cls-4" d="M254.64,187.94c0-2.42,1.59-3.94,3.28-3.94s2.88,1.29,2.88,3.48a3.73,3.73,0,0,1,0,.59h-5.3c0,1.82,1.12,3.09,2.74,3.09a3.35,3.35,0,0,0,2-.64l.31.6a4.15,4.15,0,0,1-2.38.73C256.19,191.85,254.64,190.39,254.64,187.94Zm5.42-.52c0-1.8-.83-2.71-2.13-2.71a2.66,2.66,0,0,0-2.47,2.71Z"/><path class="cls-4" d="M262.55,181.76a.65.65,0,0,1,1.3,0,.65.65,0,1,1-1.3,0Zm.24,2.44h.81v7.47h-.81Z"/><path class="cls-4" d="M268.93,186.55c0-3.26,1.81-5.28,4.4-5.28a3.53,3.53,0,0,1,2.69,1.24l-.48.54a2.87,2.87,0,0,0-2.21-1c-2.16,0-3.52,1.74-3.52,4.5s1.33,4.56,3.48,4.56a3.26,3.26,0,0,0,2.53-1.23l.48.53a3.84,3.84,0,0,1-3.05,1.46C270.72,191.85,268.93,189.82,268.93,186.55Z"/><path class="cls-4" d="M278,181.76a.65.65,0,0,1,1.3,0,.65.65,0,1,1-1.3,0Zm.24,2.44h.81v7.47h-.81Z"/><path class="cls-4" d="M282.05,189.54v-4.65h-1.16v-.62l1.19-.07.09-2.16h.69v2.16H285v.69h-2.14v4.7c0,.94.25,1.56,1.25,1.56a2.31,2.31,0,0,0,.91-.23l.19.65a4.33,4.33,0,0,1-1.24.28C282.5,191.85,282.05,190.92,282.05,189.54Z"/><path class="cls-4" d="M285.79,194.88l.18-.69a2.07,2.07,0,0,0,.6.11c.9,0,1.5-.81,1.86-1.89l.2-.63-3.05-7.58h.88l1.74,4.57c.23.64.51,1.43.78,2.1h.07c.22-.67.46-1.46.67-2.1l1.53-4.57h.83l-2.92,8.34c-.43,1.28-1.2,2.49-2.58,2.49A2.1,2.1,0,0,1,285.79,194.88Z"/><path class="cls-4" d="M296.65,191H299v-8h-1.78v-.54a5.62,5.62,0,0,0,1.95-.66h.66V191h2.13v.72h-5.27Z"/><path class="cls-4" d="M304.14,191h2.31v-8h-1.78v-.54a5.62,5.62,0,0,0,1.95-.66h.66V191h2.13v.72h-5.27Z"/><path class="cls-4" d="M311.63,191h2.31v-8h-1.78v-.54a5.62,5.62,0,0,0,1.95-.66h.66V191h2.13v.72h-5.27Z"/><path class="cls-5" d="M20.72,134.79l.49-.66a2.92,2.92,0,0,0,1.95.78c.9,0,1.35-.48,1.35-1.08s-.78-1-1.51-1.27c-.93-.33-1.92-.77-1.92-1.87s.8-1.81,2.2-1.81a3.17,3.17,0,0,1,2,.72l-.48.64a2.42,2.42,0,0,0-1.49-.58c-.86,0-1.26.46-1.26,1s.68.9,1.42,1.17c.95.37,2,.74,2,2,0,1-.81,1.89-2.31,1.89A3.84,3.84,0,0,1,20.72,134.79Z"/><path class="cls-5" d="M26.93,133.16v-4.11h1v4c0,1.24.38,1.79,1.29,1.79.68,0,1.17-.35,1.82-1.14v-4.64h1v6.47h-.8l-.09-1h0a2.8,2.8,0,0,1-2.16,1.19C27.54,135.68,26.93,134.82,26.93,133.16Z"/><path class="cls-5" d="M33.74,136.78a1.86,1.86,0,0,1,1-1.48v-.05a1.19,1.19,0,0,1-.59-1.07,1.57,1.57,0,0,1,.72-1.2v0a2.28,2.28,0,0,1,1.56-4.05,2.49,2.49,0,0,1,.9.17h2.24v.75H38.16a2,2,0,0,1,.57,1.41,2.31,2.31,0,0,1-3.34,2,1,1,0,0,0-.43.82c0,.42.26.73,1.15.73h1.3c1.48,0,2.23.47,2.23,1.54s-1.26,2.22-3.23,2.22C34.82,138.54,33.74,137.9,33.74,136.78Zm4.94-.32c0-.64-.47-.85-1.36-.85H36.14a4,4,0,0,1-.83-.11,1.47,1.47,0,0,0-.71,1.16c0,.72.73,1.19,1.94,1.19S38.68,137.16,38.68,136.46Zm-.84-5.28a1.46,1.46,0,0,0-1.45-1.57,1.44,1.44,0,0,0-1.45,1.57,1.46,1.46,0,1,0,2.9,0Z"/><path class="cls-5" d="M40.42,136.78a1.86,1.86,0,0,1,1-1.48v-.05a1.19,1.19,0,0,1-.59-1.07,1.6,1.6,0,0,1,.72-1.2v0a2.28,2.28,0,0,1,1.56-4.05,2.49,2.49,0,0,1,.9.17h2.24v.75H44.85a2,2,0,0,1,.56,1.41,2.21,2.21,0,0,1-2.34,2.26,2.19,2.19,0,0,1-1-.24,1,1,0,0,0-.44.82c0,.42.27.73,1.15.73h1.3c1.49,0,2.23.47,2.23,1.54s-1.26,2.22-3.23,2.22C41.5,138.54,40.42,137.9,40.42,136.78Zm4.94-.32c0-.64-.47-.85-1.35-.85H42.82a4.13,4.13,0,0,1-.83-.11,1.47,1.47,0,0,0-.71,1.16c0,.72.74,1.19,1.95,1.19S45.36,137.16,45.36,136.46Zm-.84-5.28a1.45,1.45,0,1,0-2.9,0,1.46,1.46,0,1,0,2.9,0Z"/><path class="cls-5" d="M46.94,132.29a3.12,3.12,0,0,1,2.89-3.41c1.62,0,2.55,1.16,2.55,3a2.54,2.54,0,0,1-.05.59H47.91a2.24,2.24,0,0,0,2.22,2.4,2.82,2.82,0,0,0,1.64-.53l.36.65a3.76,3.76,0,0,1-2.12.66A3.08,3.08,0,0,1,46.94,132.29Zm4.58-.51c0-1.38-.63-2.11-1.68-2.11a2.08,2.08,0,0,0-1.94,2.11Z"/><path class="cls-5" d="M53.27,134.79l.49-.66a3,3,0,0,0,2,.78c.9,0,1.34-.48,1.34-1.08s-.78-1-1.51-1.27c-.92-.33-1.92-.77-1.92-1.87s.81-1.81,2.21-1.81a3.19,3.19,0,0,1,2,.72l-.48.64a2.45,2.45,0,0,0-1.49-.58c-.86,0-1.26.46-1.26,1s.67.9,1.42,1.17c.94.37,2,.74,2,2,0,1-.82,1.89-2.32,1.89A3.86,3.86,0,0,1,53.27,134.79Z"/><path class="cls-5" d="M59.5,133.57v-3.72h-1v-.74l1-.06.12-1.84h.81v1.84h1.79v.8H60.47v3.76c0,.79.24,1.27,1,1.27a2.22,2.22,0,0,0,.76-.18l.19.74a3.94,3.94,0,0,1-1.15.24C59.93,135.68,59.5,134.83,59.5,133.57Z"/><path class="cls-5" d="M65.67,134.79l.49-.66a2.92,2.92,0,0,0,2,.78c.9,0,1.35-.48,1.35-1.08s-.78-1-1.51-1.27c-.93-.33-1.92-.77-1.92-1.87s.8-1.81,2.2-1.81a3.17,3.17,0,0,1,2,.72l-.48.64a2.42,2.42,0,0,0-1.49-.58c-.86,0-1.25.46-1.25,1s.67.9,1.41,1.17c1,.37,2,.74,2,2,0,1-.81,1.89-2.31,1.89A3.86,3.86,0,0,1,65.67,134.79Z"/><path class="cls-5" d="M71.9,133.57v-3.72h-1v-.74l1-.06.12-1.84h.82v1.84h1.78v.8H72.87v3.76c0,.79.24,1.27,1,1.27a2.12,2.12,0,0,0,.75-.18l.19.74a3.94,3.94,0,0,1-1.15.24C72.33,135.68,71.9,134.83,71.9,133.57Z"/><path class="cls-5" d="M75.46,132.29c0-2.16,1.39-3.41,3-3.41a3.43,3.43,0,1,1-3,3.41Zm5,0c0-1.54-.81-2.58-2-2.58s-2,1-2,2.58.8,2.58,2,2.58S80.41,133.83,80.41,132.29Z"/><path class="cls-5" d="M83.19,129.05H84l.1,1.19h0A2.24,2.24,0,0,1,86,128.88a1.51,1.51,0,0,1,.68.14l-.19.86a1.54,1.54,0,0,0-.61-.11c-.55,0-1.23.41-1.67,1.53v4.22h-1Z"/><path class="cls-5" d="M87.1,132.29A3.12,3.12,0,0,1,90,128.88c1.62,0,2.56,1.16,2.56,3a3.25,3.25,0,0,1,0,.59H88.07a2.24,2.24,0,0,0,2.22,2.4,2.79,2.79,0,0,0,1.64-.53l.36.65a3.76,3.76,0,0,1-2.12.66A3.09,3.09,0,0,1,87.1,132.29Zm4.58-.51c0-1.38-.62-2.11-1.68-2.11a2.08,2.08,0,0,0-1.94,2.11Z"/><line class="cls-6" x1="20" y1="145.5" x2="355" y2="145.5"/><rect class="cls-2" x="10" y="243" width="355" height="417" rx="3"/><path class="cls-3" d="M21.56,250.75h1l3.32,5.68,1,1.8h.06c-.06-.88-.14-1.84-.14-2.73v-4.75h.95v8.77h-1l-3.3-5.68-1-1.8h-.06c.05.88.12,1.76.12,2.67v4.81h-.93Z"/><path class="cls-3" d="M29.58,256.29a3.12,3.12,0,0,1,2.9-3.41c1.61,0,2.55,1.16,2.55,3a2.54,2.54,0,0,1-.05.59H30.56a2.24,2.24,0,0,0,2.22,2.4,2.82,2.82,0,0,0,1.64-.53l.36.65a3.81,3.81,0,0,1-2.12.66A3.09,3.09,0,0,1,29.58,256.29Zm4.59-.51c0-1.38-.63-2.11-1.68-2.11a2.09,2.09,0,0,0-2,2.11Z"/><path class="cls-3" d="M36,253.05h1l1,3.85c.14.61.26,1.18.4,1.78h0c.16-.6.29-1.17.46-1.78l1-3.85h1l1,3.85c.16.61.3,1.18.46,1.78h.05c.14-.6.27-1.17.42-1.78l1-3.85h.94L43,259.52H41.83l-1-3.61c-.18-.62-.3-1.21-.46-1.87h-.06c-.14.66-.27,1.27-.46,1.89l-.95,3.59H37.77Z"/><path class="cls-3" d="M50.85,251.58H48.17v-.83h6.37v.83H51.85v7.94h-1Z"/><path class="cls-3" d="M54.65,257.86c0-1.42,1.24-2.11,4-2.43,0-.87-.26-1.73-1.38-1.73a3.52,3.52,0,0,0-2,.72l-.39-.69a4.7,4.7,0,0,1,2.52-.85c1.57,0,2.19,1.07,2.19,2.63v4h-.8l-.09-.79h0a3.48,3.48,0,0,1-2.18.95A1.74,1.74,0,0,1,54.65,257.86Zm4,.13v-1.9c-2.29.27-3.07.82-3.07,1.71s.54,1.09,1.2,1.09A2.78,2.78,0,0,0,58.67,258Z"/><path class="cls-3" d="M61.59,251a.68.68,0,0,1,1.35,0,.68.68,0,1,1-1.35,0Zm.19,2.08h1v6.47h-1Z"/><path class="cls-3" d="M65,253.05h.79l.1.75h0a3.54,3.54,0,0,1,2.09-.92c1.69,0,2.59,1.31,2.59,3.3,0,2.22-1.33,3.5-2.83,3.5a3,3,0,0,1-1.82-.76l0,1.14v2.25H65Zm4.58,3.14c0-1.46-.51-2.48-1.8-2.48a2.82,2.82,0,0,0-1.81.93v3.51a2.62,2.62,0,0,0,1.65.7C68.76,258.85,69.59,257.83,69.59,256.19Z"/><path class="cls-3" d="M71.88,256.29a3.12,3.12,0,0,1,2.89-3.41c1.62,0,2.56,1.16,2.56,3a2.54,2.54,0,0,1,0,.59H72.86a2.24,2.24,0,0,0,2.21,2.4,2.82,2.82,0,0,0,1.65-.53l.36.65a3.82,3.82,0,0,1-2.13.66A3.09,3.09,0,0,1,71.88,256.29Zm4.58-.51c0-1.38-.62-2.11-1.67-2.11a2.09,2.09,0,0,0-2,2.11Z"/><path class="cls-3" d="M78.78,251a.68.68,0,0,1,1.36,0,.68.68,0,1,1-1.36,0Zm.2,2.08h1v6.47H79Z"/><path class="cls-3" d="M84.45,255.13c0-2.81,1.63-4.54,3.85-4.54a3.2,3.2,0,0,1,2.38,1.07l-.55.64a2.39,2.39,0,0,0-1.82-.84c-1.72,0-2.84,1.4-2.84,3.65s1.08,3.69,2.8,3.69a2.64,2.64,0,0,0,2.08-1l.55.62a3.33,3.33,0,0,1-2.67,1.26C86.05,259.68,84.45,258,84.45,255.13Z"/><path class="cls-3" d="M92.29,251a.68.68,0,0,1,1.36,0,.68.68,0,1,1-1.36,0Zm.2,2.08h1v6.47h-1Z"/><path class="cls-3" d="M95.9,257.57v-3.72h-1v-.74l1-.06.12-1.84h.82v1.84h1.78v.8H96.87v3.76c0,.79.24,1.27,1,1.27a2.12,2.12,0,0,0,.75-.18l.19.74a3.94,3.94,0,0,1-1.15.24C96.33,259.68,95.9,258.83,95.9,257.57Z"/><path class="cls-3" d="M99.41,262.22l.21-.79a1.48,1.48,0,0,0,.5.1c.74,0,1.22-.63,1.51-1.47l.14-.5-2.61-6.51h1l1.38,3.7c.2.57.43,1.24.65,1.83h.06c.18-.59.37-1.26.55-1.83l1.21-3.7h1l-2.47,7.07c-.43,1.24-1.1,2.23-2.36,2.23A1.9,1.9,0,0,1,99.41,262.22Z"/><path class="cls-3" d="M110.88,250.75H112l3,8.77h-1l-.88-2.77h-3.27l-.9,2.77h-1ZM110,256h2.77l-.46-1.42c-.33-1-.61-2-.91-3h0c-.29,1.05-.58,2-.9,3Z"/><path class="cls-3" d="M116.17,253.05h.8l.09,1.19h0a2.23,2.23,0,0,1,1.83-1.36,1.52,1.52,0,0,1,.69.14l-.2.86a1.51,1.51,0,0,0-.61-.11c-.55,0-1.22.41-1.66,1.53v4.22h-1Z"/><path class="cls-3" d="M120.09,256.29a3.12,3.12,0,0,1,2.89-3.41c1.62,0,2.55,1.16,2.55,3a2.54,2.54,0,0,1,0,.59h-4.42a2.24,2.24,0,0,0,2.22,2.4,2.82,2.82,0,0,0,1.64-.53l.36.65a3.76,3.76,0,0,1-2.12.66A3.08,3.08,0,0,1,120.09,256.29Zm4.58-.51c0-1.38-.63-2.11-1.68-2.11a2.08,2.08,0,0,0-1.94,2.11Z"/><path class="cls-3" d="M126.57,257.86c0-1.42,1.23-2.11,4-2.43,0-.87-.26-1.73-1.37-1.73a3.49,3.49,0,0,0-2,.72l-.4-.69a4.76,4.76,0,0,1,2.52-.85c1.57,0,2.2,1.07,2.2,2.63v4h-.81l-.08-.79h0a3.44,3.44,0,0,1-2.18.95A1.74,1.74,0,0,1,126.57,257.86Zm4,.13v-1.9c-2.29.27-3.07.82-3.07,1.71s.54,1.09,1.2,1.09A2.76,2.76,0,0,0,130.58,258Z"/><line class="cls-6" x1="20" y1="269.5" x2="355" y2="269.5"/><path class="cls-4" d="M46.56,281.87h-4v-1.42h9.67v1.42h-4v11.8H46.56Z"/><path class="cls-4" d="M54.58,280.45h2l2.54,7.08c.3.92.61,1.83.93,2.75h.09c.31-.92.6-1.83.9-2.75l2.52-7.08h2v13.22H64v-7.31c0-1.14.12-2.74.21-3.89h-.07l-1,3-2.51,6.86H59.52L57,285.47l-1-3H55.9c.07,1.15.19,2.75.19,3.89v7.31H54.58Z"/><path class="cls-4" d="M72.28,291.94l1-1.14a5.13,5.13,0,0,0,3.64,1.64c1.73,0,2.77-.86,2.77-2.16s-1-1.78-2.19-2.34l-1.91-.83c-1.23-.52-2.68-1.46-2.68-3.38s1.76-3.51,4.16-3.51A5.36,5.36,0,0,1,81,281.86l-.88,1.06a4.25,4.25,0,0,0-3-1.24c-1.5,0-2.47.75-2.47,1.94s1.15,1.76,2.18,2.2l1.89.81c1.53.66,2.72,1.56,2.72,3.53s-1.73,3.74-4.49,3.74A6.31,6.31,0,0,1,72.28,291.94Z"/><path class="cls-4" d="M83.63,290.64v-5.42H82.18V284l1.53-.09.19-2.76h1.37v2.76h2.65v1.33H85.27v5.46c0,1.2.38,1.89,1.52,1.89a3.58,3.58,0,0,0,1.11-.25l.33,1.22a6.19,6.19,0,0,1-1.81.36C84.34,293.9,83.63,292.59,83.63,290.64Z"/><path class="cls-4" d="M89.12,288.79c0-3.26,2.15-5.15,4.54-5.15s4.54,1.89,4.54,5.15-2.14,5.11-4.54,5.11S89.12,292,89.12,288.79Zm7.39,0c0-2.25-1.16-3.78-2.85-3.78s-2.83,1.53-2.83,3.78,1.14,3.74,2.83,3.74S96.51,291,96.51,288.79Z"/><path class="cls-4" d="M100.77,283.89h1.35l.14,1.78h.06a3.36,3.36,0,0,1,2.77-2,2.14,2.14,0,0,1,1,.21l-.31,1.44a2.43,2.43,0,0,0-1-.16c-.82,0-1.82.58-2.47,2.25v6.29h-1.64Z"/><path class="cls-4" d="M106.82,288.79c0-3.17,2.14-5.15,4.41-5.15,2.48,0,3.89,1.8,3.89,4.59a7.57,7.57,0,0,1-.07.94h-6.59c.1,2.08,1.38,3.42,3.24,3.42a4.21,4.21,0,0,0,2.45-.78l.59,1.08a5.8,5.8,0,0,1-3.24,1C108.91,293.9,106.82,292,106.82,288.79Zm6.86-.81c0-2-.9-3-2.43-3s-2.61,1.12-2.81,3Z"/><path class="cls-4" d="M43.48,305.46h.87l4.18,7,1.13,2.06h.07c0-1-.11-2-.11-3v-6.05h.8v10.21h-.87l-4.16-7-1.15-2h-.07c0,1,.11,1.93.11,3v6.12h-.8Z"/><path class="cls-4" d="M52.68,311.94c0-2.49,1.57-3.94,3.38-3.94s3.37,1.45,3.37,3.94-1.57,3.91-3.37,3.91S52.68,314.42,52.68,311.94Zm5.91,0c0-1.9-1.08-3.22-2.53-3.22s-2.52,1.32-2.52,3.22,1.06,3.21,2.52,3.21S58.59,313.85,58.59,311.94Z"/><path class="cls-4" d="M61.1,315.09a.71.71,0,1,1,.71.76A.72.72,0,0,1,61.1,315.09Z"/><path class="cls-4" d="M68.35,312.75H63.83v-.49l4.51-6.51h.79v6.33h1.45v.67H69.13v2.92h-.78Zm0-.67v-3.47c0-.47,0-1.28.07-1.75h-.07c-.24.42-.52.81-.81,1.26l-2.78,4Z"/><path class="cls-4" d="M76.89,306.48H71.72v-.73h6.17v.5c-2.37,3.1-2.93,5.55-3.09,9.42h-.88A15.23,15.23,0,0,1,76.89,306.48Z"/><path class="cls-4" d="M79.28,317.6a2.12,2.12,0,0,0,1.23-1.88.44.44,0,0,1-.16,0,.69.69,0,0,1-.73-.72.7.7,0,0,1,.74-.7c.51,0,.84.46.84,1.21a2.91,2.91,0,0,1-1.68,2.6Z"/><path class="cls-4" d="M86.63,305.46H89c3.14,0,4.68,1.94,4.68,5.07s-1.54,5.14-4.66,5.14H86.63ZM89,315c2.69,0,3.88-1.78,3.88-4.42s-1.19-4.37-3.88-4.37H87.47V315Z"/><path class="cls-4" d="M95.34,311.94c0-2.42,1.6-3.94,3.28-3.94s2.88,1.29,2.88,3.48a3.73,3.73,0,0,1,0,.59H96.17c0,1.82,1.12,3.09,2.73,3.09a3.35,3.35,0,0,0,2-.64l.31.6a4.21,4.21,0,0,1-2.39.73C96.89,315.85,95.34,314.39,95.34,311.94Zm5.42-.52c0-1.8-.83-2.71-2.13-2.71a2.64,2.64,0,0,0-2.46,2.71Z"/><path class="cls-4" d="M104.76,311.76l-2.31-3.56h.9L104.5,310c.25.42.51.82.79,1.23h.06l.74-1.23,1.11-1.84h.85l-2.31,3.64,2.52,3.83h-.91l-1.27-2a14.07,14.07,0,0,0-.86-1.36h-.06c-.28.44-.55.9-.85,1.36l-1.2,2h-.87Z"/><path class="cls-4" d="M109.63,305.76a.66.66,0,0,1,1.31,0,.66.66,0,1,1-1.31,0Zm.24,2.44h.81v7.47h-.81Z"/><path class="cls-4" d="M113.47,308.2h.67l.1,1.14h0a3.65,3.65,0,0,1,2.55-1.34c1.55,0,2.27,1,2.27,2.89v4.78h-.82V311c0-1.55-.49-2.27-1.63-2.27a3.26,3.26,0,0,0-2.36,1.35v5.59h-.81Z"/><path class="cls-4" d="M121.14,317.18a2.28,2.28,0,0,1,1.12-1.78v-.07a1.33,1.33,0,0,1-.67-1.2,1.84,1.84,0,0,1,.83-1.39v-.06a2.68,2.68,0,0,1-1-2,2.62,2.62,0,0,1,2.68-2.65,2.58,2.58,0,0,1,1,.2h2.55v.67H126a2.4,2.4,0,0,1,.77,1.8,2.57,2.57,0,0,1-2.63,2.63,2.5,2.5,0,0,1-1.21-.31,1.33,1.33,0,0,0-.58,1c0,.53.32.94,1.4.94h1.57c1.69,0,2.49.53,2.49,1.72s-1.4,2.53-3.59,2.53C122.36,319.22,121.14,318.44,121.14,317.18Zm5.86-.38c0-.8-.59-1.09-1.7-1.09h-1.52a4.74,4.74,0,0,1-.94-.13,1.88,1.88,0,0,0-.93,1.5c0,.91.88,1.53,2.41,1.53S127,317.7,127,316.8Zm-1-6.15a1.86,1.86,0,1,0-3.71,0,1.86,1.86,0,1,0,3.71,0Z"/><path class="cls-4" d="M131.5,305.46h.87l1.23,5.91c.24,1.1.46,2.21.69,3.33h.05c.26-1.12.52-2.23.79-3.33l1.55-5.91h.83l1.57,5.91c.27,1.1.52,2.21.78,3.33h.07c.21-1.12.42-2.23.65-3.33l1.25-5.91h.81l-2.24,10.21h-1l-1.8-6.82c-.17-.82-.35-1.52-.54-2.32h0c-.17.8-.38,1.5-.56,2.32l-1.75,6.82h-1Z"/><path class="cls-4" d="M143.63,315.09a.71.71,0,1,1,.71.76A.72.72,0,0,1,143.63,315.09Z"/><path class="cls-4" d="M150.68,305.46h3c2,0,3.4.74,3.4,2.73a2.69,2.69,0,0,1-2.55,2.8l2.76,4.68h-.95l-2.72-4.61h-2.09v4.61h-.84Zm2.79,4.9c1.76,0,2.74-.7,2.74-2.17s-1-2-2.74-2h-1.95v4.2Z"/><path class="cls-4" d="M158.34,311.94c0-2.41,1.54-3.94,3.3-3.94a3.34,3.34,0,0,1,2.23.92l-.05-1.35v-3h.81v11.14H164l-.09-.94h0a3.47,3.47,0,0,1-2.4,1.12C159.56,315.85,158.34,314.45,158.34,311.94Zm5.48,2v-4.32a3,3,0,0,0-2.09-.92c-1.43,0-2.52,1.39-2.52,3.22s.85,3.19,2.37,3.19A3.14,3.14,0,0,0,163.82,314Z"/><path class="cls-4" d="M167.06,315.09a.72.72,0,1,1,.72.76A.73.73,0,0,1,167.06,315.09Z"/><path class="cls-4" d="M170.27,317.6a2.12,2.12,0,0,0,1.23-1.88.5.5,0,0,1-.17,0,.69.69,0,0,1-.73-.72.71.71,0,0,1,.75-.7c.5,0,.84.46.84,1.21a2.9,2.9,0,0,1-1.69,2.6Z"/><path class="cls-4" d="M176.85,314.32l.51-.59a4,4,0,0,0,3,1.36c1.51,0,2.45-.8,2.45-2s-.8-1.62-1.81-2.07l-1.52-.67a2.84,2.84,0,0,1-2.08-2.55c0-1.52,1.29-2.57,3-2.57a3.93,3.93,0,0,1,2.89,1.24l-.48.54a3.29,3.29,0,0,0-2.41-1c-1.3,0-2.17.69-2.17,1.74s1,1.59,1.74,1.92l1.52.67c1.17.52,2.15,1.16,2.15,2.72s-1.31,2.77-3.31,2.77A4.53,4.53,0,0,1,176.85,314.32Z"/><path class="cls-4" d="M185.65,304.53h.81v4.82A3.64,3.64,0,0,1,189,308c1.56,0,2.27,1,2.27,2.89v4.78h-.81V311c0-1.55-.49-2.27-1.64-2.27a3.26,3.26,0,0,0-2.36,1.35v5.59h-.81Z"/><path class="cls-4" d="M193.66,305.76a.65.65,0,0,1,1.3,0,.65.65,0,1,1-1.3,0Zm.24,2.44h.81v7.47h-.81Z"/><path class="cls-4" d="M197.5,314.56v-10h.81v10.11c0,.35.14.51.34.51a1.14,1.14,0,0,0,.26,0l.13.64a1.45,1.45,0,0,1-.55.09C197.82,315.85,197.5,315.43,197.5,314.56Z"/><path class="cls-4" d="M201,305.76a.65.65,0,0,1,1.3,0,.65.65,0,1,1-1.3,0Zm.23,2.44h.82v7.47h-.82Z"/><path class="cls-4" d="M204.83,308.2h.67l.1,1.14h0a3.67,3.67,0,0,1,2.55-1.34c1.56,0,2.27,1,2.27,2.89v4.78h-.81V311c0-1.55-.49-2.27-1.64-2.27a3.26,3.26,0,0,0-2.36,1.35v5.59h-.81Z"/><path class="cls-4" d="M216.33,305.46h2.41c3.13,0,4.67,1.94,4.67,5.07s-1.54,5.14-4.66,5.14h-2.42Zm2.32,9.49c2.69,0,3.88-1.78,3.88-4.42s-1.19-4.37-3.88-4.37h-1.48V315Z"/><path class="cls-4" d="M225.41,305.76a.65.65,0,0,1,1.3,0,.65.65,0,1,1-1.3,0Zm.24,2.44h.81v7.47h-.81Z"/><path class="cls-4" d="M228.34,314.83l.43-.59a3.5,3.5,0,0,0,2.35.94c1.14,0,1.71-.65,1.71-1.42s-.94-1.29-1.8-1.59c-1.11-.4-2.29-.86-2.29-2.15,0-1.09.87-2,2.45-2a3.62,3.62,0,0,1,2.18.8l-.44.56a2.81,2.81,0,0,0-1.75-.67c-1.12,0-1.62.62-1.62,1.29,0,.83.81,1.13,1.68,1.46,1.14.43,2.41.84,2.41,2.28,0,1.15-.91,2.13-2.57,2.13A4.38,4.38,0,0,1,228.34,314.83Z"/><path class="cls-4" d="M235.45,313.54v-4.65h-1.16v-.62l1.19-.07.1-2.16h.68v2.16h2.15v.69h-2.15v4.7c0,.94.25,1.56,1.25,1.56a2.31,2.31,0,0,0,.91-.23l.2.65a4.39,4.39,0,0,1-1.25.28C235.9,315.85,235.45,314.92,235.45,313.54Z"/><path class="cls-4" d="M240.07,315.09a.72.72,0,1,1,.71.76A.73.73,0,0,1,240.07,315.09Z"/><path class="cls-4" d="M243.28,317.6a2.12,2.12,0,0,0,1.23-1.88.5.5,0,0,1-.17,0,.69.69,0,0,1-.73-.72.7.7,0,0,1,.74-.7c.51,0,.84.46.84,1.21a2.89,2.89,0,0,1-1.68,2.6Z"/><path class="cls-4" d="M252.8,306.17h-3.21v-.71h7.28v.71h-3.22v9.5h-.85Z"/><path class="cls-4" d="M257,313.79c0-1.65,1.47-2.44,4.76-2.82,0-1.1-.29-2.25-1.71-2.25a4,4,0,0,0-2.35.85l-.36-.58a5.09,5.09,0,0,1,2.82-1c1.78,0,2.41,1.28,2.41,2.93v4.74h-.68l-.09-1h0a4.32,4.32,0,0,1-2.61,1.14A2,2,0,0,1,257,313.79Zm4.76.21v-2.42c-2.94.33-3.95,1-3.95,2.17a1.34,1.34,0,0,0,1.53,1.41A3.68,3.68,0,0,0,261.77,314Z"/><path class="cls-4" d="M265,305.76a.65.65,0,0,1,1.3,0,.65.65,0,1,1-1.3,0Zm.24,2.44H266v7.47h-.81Z"/><path class="cls-4" d="M268.78,308.2h.68l.09.91h0a4.37,4.37,0,0,1,2.5-1.11c2,0,3,1.52,3,3.81,0,2.55-1.54,4-3.29,4a3.69,3.69,0,0,1-2.2-.91l0,1.37V319h-.82Zm5.42,3.61c0-1.79-.61-3.09-2.28-3.09a3.72,3.72,0,0,0-2.32,1.19v4.31a3.36,3.36,0,0,0,2.11.91C273.17,315.13,274.2,313.82,274.2,311.81Z"/><path class="cls-4" d="M276.64,311.94c0-2.42,1.59-3.94,3.28-3.94s2.88,1.29,2.88,3.48a3.73,3.73,0,0,1,0,.59h-5.3c.05,1.82,1.12,3.09,2.74,3.09a3.35,3.35,0,0,0,2-.64l.31.6a4.15,4.15,0,0,1-2.38.73C278.19,315.85,276.64,314.39,276.64,311.94Zm5.42-.52c0-1.8-.83-2.71-2.13-2.71a2.66,2.66,0,0,0-2.47,2.71Z"/><path class="cls-4" d="M284.55,305.76a.65.65,0,0,1,1.3,0,.65.65,0,1,1-1.3,0Zm.24,2.44h.81v7.47h-.81Z"/><path class="cls-4" d="M290.93,310.55c0-3.26,1.81-5.28,4.4-5.28a3.53,3.53,0,0,1,2.69,1.24l-.48.54a2.87,2.87,0,0,0-2.21-1c-2.16,0-3.52,1.74-3.52,4.5s1.33,4.56,3.48,4.56a3.26,3.26,0,0,0,2.53-1.23l.48.53a3.84,3.84,0,0,1-3.05,1.46C292.72,315.85,290.93,313.82,290.93,310.55Z"/><path class="cls-4" d="M300,305.76a.65.65,0,0,1,1.3,0,.65.65,0,1,1-1.3,0Zm.24,2.44h.81v7.47h-.81Z"/><path class="cls-4" d="M304.05,313.54v-4.65h-1.16v-.62l1.19-.07.09-2.16h.69v2.16H307v.69h-2.14v4.7c0,.94.25,1.56,1.25,1.56a2.31,2.31,0,0,0,.91-.23l.19.65a4.33,4.33,0,0,1-1.24.28C304.5,315.85,304.05,314.92,304.05,313.54Z"/><path class="cls-4" d="M307.79,318.88l.18-.69a2.07,2.07,0,0,0,.6.11c.9,0,1.5-.81,1.86-1.89l.2-.63-3.05-7.58h.88l1.74,4.57c.23.64.51,1.43.78,2.1h.07c.22-.67.46-1.46.67-2.1l1.53-4.57h.83l-2.92,8.34c-.43,1.28-1.2,2.49-2.58,2.49A2.1,2.1,0,0,1,307.79,318.88Z"/><path class="cls-4" d="M318.65,315H321v-8h-1.78v-.54a5.62,5.62,0,0,0,1.95-.66h.66V315h2.13v.72h-5.27Z"/><path class="cls-4" d="M326.14,315h2.31v-8h-1.78v-.54a5.62,5.62,0,0,0,1.95-.66h.66V315h2.13v.72h-5.27Z"/><path class="cls-4" d="M333.63,315h2.31v-8h-1.78v-.54a5.62,5.62,0,0,0,1.95-.66h.66V315h2.13v.72h-5.27Z"/><line class="cls-6" x1="43" y1="327.5" x2="355" y2="327.5"/><path class="cls-4" d="M46.56,344.37h-4V343h9.67v1.42h-4v11.8H46.56Z"/><path class="cls-4" d="M54.58,343h2L59.14,350c.3.92.61,1.83.93,2.75h.09c.31-.92.6-1.83.9-2.75L63.58,343h2v13.22H64v-7.31c0-1.14.12-2.74.21-3.89h-.07l-1,3-2.51,6.86H59.52L57,348l-1-3H55.9c.07,1.15.19,2.75.19,3.89v7.31H54.58Z"/><path class="cls-4" d="M72.28,354.44l1-1.14a5.13,5.13,0,0,0,3.64,1.64c1.73,0,2.77-.86,2.77-2.16s-1-1.78-2.19-2.34l-1.91-.83c-1.23-.52-2.68-1.46-2.68-3.38s1.76-3.51,4.16-3.51A5.36,5.36,0,0,1,81,344.36l-.88,1.06a4.25,4.25,0,0,0-3-1.24c-1.5,0-2.47.75-2.47,1.94s1.15,1.76,2.18,2.2l1.89.81c1.53.66,2.72,1.56,2.72,3.53s-1.73,3.74-4.49,3.74A6.31,6.31,0,0,1,72.28,354.44Z"/><path class="cls-4" d="M83.63,353.14v-5.42H82.18v-1.24l1.53-.09.19-2.76h1.37v2.76h2.65v1.33H85.27v5.46c0,1.2.38,1.89,1.52,1.89a3.58,3.58,0,0,0,1.11-.25l.33,1.22a6.19,6.19,0,0,1-1.81.36C84.34,356.4,83.63,355.09,83.63,353.14Z"/><path class="cls-4" d="M89.12,351.29c0-3.26,2.15-5.15,4.54-5.15s4.54,1.89,4.54,5.15-2.14,5.11-4.54,5.11S89.12,354.53,89.12,351.29Zm7.39,0c0-2.25-1.16-3.78-2.85-3.78s-2.83,1.53-2.83,3.78S92,355,93.66,355,96.51,353.54,96.51,351.29Z"/><path class="cls-4" d="M100.77,346.39h1.35l.14,1.78h.06a3.36,3.36,0,0,1,2.77-2,2.14,2.14,0,0,1,1,.21l-.31,1.44a2.43,2.43,0,0,0-1-.16c-.82,0-1.82.58-2.47,2.25v6.29h-1.64Z"/><path class="cls-4" d="M106.82,351.29c0-3.17,2.14-5.15,4.41-5.15,2.48,0,3.89,1.8,3.89,4.59a7.57,7.57,0,0,1-.07.94h-6.59c.1,2.08,1.38,3.42,3.24,3.42a4.21,4.21,0,0,0,2.45-.78l.59,1.08a5.8,5.8,0,0,1-3.24,1C108.91,356.4,106.82,354.51,106.82,351.29Zm6.86-.81c0-2-.9-3-2.43-3s-2.61,1.12-2.81,3Z"/><path class="cls-4" d="M43.48,368h.87l4.18,7L49.66,377h.07c0-1-.11-2-.11-3V368h.8v10.21h-.87l-4.16-7-1.15-2h-.07c0,1,.11,1.93.11,3v6.12h-.8Z"/><path class="cls-4" d="M52.68,374.44c0-2.49,1.57-3.94,3.38-3.94s3.37,1.45,3.37,3.94-1.57,3.91-3.37,3.91S52.68,376.92,52.68,374.44Zm5.91,0c0-1.9-1.08-3.22-2.53-3.22s-2.52,1.32-2.52,3.22,1.06,3.21,2.52,3.21S58.59,376.35,58.59,374.44Z"/><path class="cls-4" d="M61.1,377.59a.71.71,0,1,1,.71.76A.72.72,0,0,1,61.1,377.59Z"/><path class="cls-4" d="M68.35,375.25H63.83v-.49l4.51-6.51h.79v6.33h1.45v.67H69.13v2.92h-.78Zm0-.67v-3.47c0-.47,0-1.28.07-1.75h-.07c-.24.42-.52.81-.81,1.26l-2.78,4Z"/><path class="cls-4" d="M76.89,369H71.72v-.73h6.17v.5c-2.37,3.1-2.93,5.55-3.09,9.42h-.88A15.23,15.23,0,0,1,76.89,369Z"/><path class="cls-4" d="M79.28,380.1a2.12,2.12,0,0,0,1.23-1.88.44.44,0,0,1-.16,0,.69.69,0,0,1-.73-.72.7.7,0,0,1,.74-.7c.51,0,.84.46.84,1.21a2.91,2.91,0,0,1-1.68,2.6Z"/><path class="cls-4" d="M86.63,368H89c3.14,0,4.68,1.94,4.68,5.07s-1.54,5.14-4.66,5.14H86.63ZM89,377.45c2.69,0,3.88-1.78,3.88-4.42s-1.19-4.37-3.88-4.37H87.47v8.79Z"/><path class="cls-4" d="M95.34,374.44c0-2.42,1.6-3.94,3.28-3.94s2.88,1.29,2.88,3.48a3.73,3.73,0,0,1,0,.59H96.17c0,1.82,1.12,3.09,2.73,3.09a3.35,3.35,0,0,0,2-.64l.31.6a4.21,4.21,0,0,1-2.39.73C96.89,378.35,95.34,376.89,95.34,374.44Zm5.42-.52c0-1.8-.83-2.71-2.13-2.71a2.64,2.64,0,0,0-2.46,2.71Z"/><path class="cls-4" d="M104.76,374.26l-2.31-3.56h.9l1.15,1.84c.25.42.51.82.79,1.23h.06l.74-1.23,1.11-1.84h.85l-2.31,3.64,2.52,3.83h-.91l-1.27-2a14.07,14.07,0,0,0-.86-1.36h-.06c-.28.44-.55.9-.85,1.36l-1.2,2h-.87Z"/><path class="cls-4" d="M109.63,368.26a.66.66,0,0,1,1.31,0,.66.66,0,1,1-1.31,0Zm.24,2.44h.81v7.47h-.81Z"/><path class="cls-4" d="M113.47,370.7h.67l.1,1.14h0a3.65,3.65,0,0,1,2.55-1.34c1.55,0,2.27,1,2.27,2.89v4.78h-.82V373.5c0-1.55-.49-2.27-1.63-2.27a3.26,3.26,0,0,0-2.36,1.35v5.59h-.81Z"/><path class="cls-4" d="M121.14,379.68a2.28,2.28,0,0,1,1.12-1.78v-.07a1.33,1.33,0,0,1-.67-1.2,1.84,1.84,0,0,1,.83-1.39v-.06a2.68,2.68,0,0,1-1-2,2.62,2.62,0,0,1,2.68-2.65,2.58,2.58,0,0,1,1,.2h2.55v.67H126a2.4,2.4,0,0,1,.77,1.8,2.57,2.57,0,0,1-2.63,2.63,2.5,2.5,0,0,1-1.21-.31,1.33,1.33,0,0,0-.58,1c0,.53.32.94,1.4.94h1.57c1.69,0,2.49.53,2.49,1.72s-1.4,2.53-3.59,2.53C122.36,381.72,121.14,380.94,121.14,379.68Zm5.86-.38c0-.8-.59-1.09-1.7-1.09h-1.52a4.74,4.74,0,0,1-.94-.13,1.88,1.88,0,0,0-.93,1.5c0,.91.88,1.53,2.41,1.53S127,380.2,127,379.3Zm-1-6.15a1.86,1.86,0,1,0-3.71,0,1.86,1.86,0,1,0,3.71,0Z"/><path class="cls-4" d="M131.5,368h.87l1.23,5.91c.24,1.1.46,2.21.69,3.33h.05c.26-1.12.52-2.23.79-3.33l1.55-5.91h.83l1.57,5.91c.27,1.1.52,2.21.78,3.33h.07c.21-1.12.42-2.23.65-3.33l1.25-5.91h.81l-2.24,10.21h-1l-1.8-6.82c-.17-.82-.35-1.52-.54-2.32h0c-.17.8-.38,1.5-.56,2.32l-1.75,6.82h-1Z"/><path class="cls-4" d="M143.63,377.59a.71.71,0,1,1,.71.76A.72.72,0,0,1,143.63,377.59Z"/><path class="cls-4" d="M150.68,368h3c2,0,3.4.74,3.4,2.73a2.69,2.69,0,0,1-2.55,2.8l2.76,4.68h-.95l-2.72-4.61h-2.09v4.61h-.84Zm2.79,4.9c1.76,0,2.74-.7,2.74-2.17s-1-2-2.74-2h-1.95v4.2Z"/><path class="cls-4" d="M158.34,374.44c0-2.41,1.54-3.94,3.3-3.94a3.34,3.34,0,0,1,2.23.92l-.05-1.35v-3h.81v11.14H164l-.09-.94h0a3.47,3.47,0,0,1-2.4,1.12C159.56,378.35,158.34,377,158.34,374.44Zm5.48,2v-4.32a3,3,0,0,0-2.09-.92c-1.43,0-2.52,1.39-2.52,3.22s.85,3.19,2.37,3.19A3.14,3.14,0,0,0,163.82,376.46Z"/><path class="cls-4" d="M167.06,377.59a.72.72,0,1,1,.72.76A.73.73,0,0,1,167.06,377.59Z"/><path class="cls-4" d="M170.27,380.1a2.12,2.12,0,0,0,1.23-1.88.5.5,0,0,1-.17,0,.69.69,0,0,1-.73-.72.71.71,0,0,1,.75-.7c.5,0,.84.46.84,1.21a2.9,2.9,0,0,1-1.69,2.6Z"/><path class="cls-4" d="M176.85,376.82l.51-.59a4,4,0,0,0,3,1.36c1.51,0,2.45-.8,2.45-2S182,374,181,373.56l-1.52-.67a2.84,2.84,0,0,1-2.08-2.55c0-1.52,1.29-2.57,3-2.57a3.93,3.93,0,0,1,2.89,1.24l-.48.54a3.29,3.29,0,0,0-2.41-1c-1.3,0-2.17.69-2.17,1.74s1,1.59,1.74,1.92l1.52.67c1.17.52,2.15,1.16,2.15,2.72s-1.31,2.77-3.31,2.77A4.53,4.53,0,0,1,176.85,376.82Z"/><path class="cls-4" d="M185.65,367h.81v4.82A3.64,3.64,0,0,1,189,370.5c1.56,0,2.27,1,2.27,2.89v4.78h-.81V373.5c0-1.55-.49-2.27-1.64-2.27a3.26,3.26,0,0,0-2.36,1.35v5.59h-.81Z"/><path class="cls-4" d="M193.66,368.26a.65.65,0,0,1,1.3,0,.65.65,0,1,1-1.3,0Zm.24,2.44h.81v7.47h-.81Z"/><path class="cls-4" d="M197.5,377.06V367h.81v10.11c0,.35.14.51.34.51a1.14,1.14,0,0,0,.26,0l.13.64a1.45,1.45,0,0,1-.55.09C197.82,378.35,197.5,377.93,197.5,377.06Z"/><path class="cls-4" d="M201,368.26a.65.65,0,0,1,1.3,0,.65.65,0,1,1-1.3,0Zm.23,2.44h.82v7.47h-.82Z"/><path class="cls-4" d="M204.83,370.7h.67l.1,1.14h0a3.67,3.67,0,0,1,2.55-1.34c1.56,0,2.27,1,2.27,2.89v4.78h-.81V373.5c0-1.55-.49-2.27-1.64-2.27a3.26,3.26,0,0,0-2.36,1.35v5.59h-.81Z"/><path class="cls-4" d="M216.33,368h2.41c3.13,0,4.67,1.94,4.67,5.07s-1.54,5.14-4.66,5.14h-2.42Zm2.32,9.49c2.69,0,3.88-1.78,3.88-4.42s-1.19-4.37-3.88-4.37h-1.48v8.79Z"/><path class="cls-4" d="M225.41,368.26a.65.65,0,0,1,1.3,0,.65.65,0,1,1-1.3,0Zm.24,2.44h.81v7.47h-.81Z"/><path class="cls-4" d="M228.34,377.33l.43-.59a3.5,3.5,0,0,0,2.35.94c1.14,0,1.71-.65,1.71-1.42s-.94-1.29-1.8-1.59c-1.11-.4-2.29-.86-2.29-2.15,0-1.09.87-2,2.45-2a3.62,3.62,0,0,1,2.18.8l-.44.56a2.81,2.81,0,0,0-1.75-.67c-1.12,0-1.62.62-1.62,1.29,0,.83.81,1.13,1.68,1.46,1.14.43,2.41.84,2.41,2.28,0,1.15-.91,2.13-2.57,2.13A4.38,4.38,0,0,1,228.34,377.33Z"/><path class="cls-4" d="M235.45,376v-4.65h-1.16v-.62l1.19-.07.1-2.16h.68v2.16h2.15v.69h-2.15v4.7c0,.94.25,1.56,1.25,1.56a2.31,2.31,0,0,0,.91-.23l.2.65a4.39,4.39,0,0,1-1.25.28C235.9,378.35,235.45,377.42,235.45,376Z"/><path class="cls-4" d="M240.07,377.59a.72.72,0,1,1,.71.76A.73.73,0,0,1,240.07,377.59Z"/><path class="cls-4" d="M243.28,380.1a2.12,2.12,0,0,0,1.23-1.88.5.5,0,0,1-.17,0,.69.69,0,0,1-.73-.72.7.7,0,0,1,.74-.7c.51,0,.84.46.84,1.21a2.89,2.89,0,0,1-1.68,2.6Z"/><path class="cls-4" d="M252.8,368.67h-3.21V368h7.28v.71h-3.22v9.5h-.85Z"/><path class="cls-4" d="M257,376.29c0-1.65,1.47-2.44,4.76-2.82,0-1.1-.29-2.25-1.71-2.25a4,4,0,0,0-2.35.85l-.36-.58a5.09,5.09,0,0,1,2.82-1c1.78,0,2.41,1.28,2.41,2.93v4.74h-.68l-.09-1h0a4.32,4.32,0,0,1-2.61,1.14A2,2,0,0,1,257,376.29Zm4.76.21v-2.42c-2.94.33-3.95,1-3.95,2.17a1.34,1.34,0,0,0,1.53,1.41A3.68,3.68,0,0,0,261.77,376.5Z"/><path class="cls-4" d="M265,368.26a.65.65,0,0,1,1.3,0,.65.65,0,1,1-1.3,0Zm.24,2.44H266v7.47h-.81Z"/><path class="cls-4" d="M268.78,370.7h.68l.09.91h0a4.37,4.37,0,0,1,2.5-1.11c2,0,3,1.52,3,3.81,0,2.55-1.54,4-3.29,4a3.69,3.69,0,0,1-2.2-.91l0,1.37v2.69h-.82Zm5.42,3.61c0-1.79-.61-3.09-2.28-3.09a3.72,3.72,0,0,0-2.32,1.19v4.31a3.36,3.36,0,0,0,2.11.91C273.17,377.63,274.2,376.32,274.2,374.31Z"/><path class="cls-4" d="M276.64,374.44c0-2.42,1.59-3.94,3.28-3.94s2.88,1.29,2.88,3.48a3.73,3.73,0,0,1,0,.59h-5.3c.05,1.82,1.12,3.09,2.74,3.09a3.35,3.35,0,0,0,2-.64l.31.6a4.15,4.15,0,0,1-2.38.73C278.19,378.35,276.64,376.89,276.64,374.44Zm5.42-.52c0-1.8-.83-2.71-2.13-2.71a2.66,2.66,0,0,0-2.47,2.71Z"/><path class="cls-4" d="M284.55,368.26a.65.65,0,0,1,1.3,0,.65.65,0,1,1-1.3,0Zm.24,2.44h.81v7.47h-.81Z"/><path class="cls-4" d="M290.93,373.05c0-3.26,1.81-5.28,4.4-5.28A3.53,3.53,0,0,1,298,369l-.48.54a2.87,2.87,0,0,0-2.21-1c-2.16,0-3.52,1.74-3.52,4.5s1.33,4.56,3.48,4.56a3.26,3.26,0,0,0,2.53-1.23l.48.53a3.84,3.84,0,0,1-3.05,1.46C292.72,378.35,290.93,376.32,290.93,373.05Z"/><path class="cls-4" d="M300,368.26a.65.65,0,0,1,1.3,0,.65.65,0,1,1-1.3,0Zm.24,2.44h.81v7.47h-.81Z"/><path class="cls-4" d="M304.05,376v-4.65h-1.16v-.62l1.19-.07.09-2.16h.69v2.16H307v.69h-2.14v4.7c0,.94.25,1.56,1.25,1.56a2.31,2.31,0,0,0,.91-.23l.19.65a4.33,4.33,0,0,1-1.24.28C304.5,378.35,304.05,377.42,304.05,376Z"/><path class="cls-4" d="M307.79,381.38l.18-.69a2.07,2.07,0,0,0,.6.11c.9,0,1.5-.81,1.86-1.89l.2-.63-3.05-7.58h.88l1.74,4.57c.23.64.51,1.43.78,2.1h.07c.22-.67.46-1.46.67-2.1l1.53-4.57h.83L311.16,379c-.43,1.28-1.2,2.49-2.58,2.49A2.1,2.1,0,0,1,307.79,381.38Z"/><path class="cls-4" d="M318.65,377.45H321v-8h-1.78v-.54a5.62,5.62,0,0,0,1.95-.66h.66v9.2h2.13v.72h-5.27Z"/><path class="cls-4" d="M326.14,377.45h2.31v-8h-1.78v-.54a5.62,5.62,0,0,0,1.95-.66h.66v9.2h2.13v.72h-5.27Z"/><path class="cls-4" d="M333.63,377.45h2.31v-8h-1.78v-.54a5.62,5.62,0,0,0,1.95-.66h.66v9.2h2.13v.72h-5.27Z"/><line class="cls-6" x1="43" y1="390" x2="355" y2="390"/><path class="cls-4" d="M46.56,406.87h-4v-1.42h9.67v1.42h-4v11.8H46.56Z"/><path class="cls-4" d="M54.58,405.45h2l2.54,7.08c.3.92.61,1.83.93,2.75h.09c.31-.92.6-1.83.9-2.75l2.52-7.08h2v13.22H64v-7.31c0-1.14.12-2.74.21-3.89h-.07l-1,3-2.51,6.86H59.52L57,410.47l-1-3H55.9c.07,1.15.19,2.75.19,3.89v7.31H54.58Z"/><path class="cls-4" d="M72.28,416.94l1-1.14a5.13,5.13,0,0,0,3.64,1.64c1.73,0,2.77-.86,2.77-2.16s-1-1.78-2.19-2.34l-1.91-.83c-1.23-.52-2.68-1.46-2.68-3.38s1.76-3.51,4.16-3.51A5.36,5.36,0,0,1,81,406.86l-.88,1.06a4.25,4.25,0,0,0-3-1.24c-1.5,0-2.47.75-2.47,1.94s1.15,1.76,2.18,2.2l1.89.81c1.53.66,2.72,1.56,2.72,3.53s-1.73,3.74-4.49,3.74A6.31,6.31,0,0,1,72.28,416.94Z"/><path class="cls-4" d="M83.63,415.64v-5.42H82.18V409l1.53-.09.19-2.76h1.37v2.76h2.65v1.33H85.27v5.46c0,1.2.38,1.89,1.52,1.89a3.58,3.58,0,0,0,1.11-.25l.33,1.22a6.19,6.19,0,0,1-1.81.36C84.34,418.9,83.63,417.59,83.63,415.64Z"/><path class="cls-4" d="M89.12,413.79c0-3.26,2.15-5.15,4.54-5.15s4.54,1.89,4.54,5.15-2.14,5.11-4.54,5.11S89.12,417,89.12,413.79Zm7.39,0c0-2.25-1.16-3.78-2.85-3.78s-2.83,1.53-2.83,3.78,1.14,3.74,2.83,3.74S96.51,416,96.51,413.79Z"/><path class="cls-4" d="M100.77,408.89h1.35l.14,1.78h.06a3.36,3.36,0,0,1,2.77-2,2.14,2.14,0,0,1,1,.21l-.31,1.44a2.43,2.43,0,0,0-1-.16c-.82,0-1.82.58-2.47,2.25v6.29h-1.64Z"/><path class="cls-4" d="M106.82,413.79c0-3.17,2.14-5.15,4.41-5.15,2.48,0,3.89,1.8,3.89,4.59a7.57,7.57,0,0,1-.07.94h-6.59c.1,2.08,1.38,3.42,3.24,3.42a4.21,4.21,0,0,0,2.45-.78l.59,1.08a5.8,5.8,0,0,1-3.24,1C108.91,418.9,106.82,417,106.82,413.79Zm6.86-.81c0-2-.9-3-2.43-3s-2.61,1.12-2.81,3Z"/><path class="cls-4" d="M43.48,430.46h.87l4.18,7,1.13,2.06h.07c0-1-.11-2-.11-3v-6.05h.8v10.21h-.87l-4.16-7-1.15-2h-.07c0,1,.11,1.93.11,3v6.12h-.8Z"/><path class="cls-4" d="M52.68,436.94c0-2.49,1.57-3.94,3.38-3.94s3.37,1.45,3.37,3.94-1.57,3.91-3.37,3.91S52.68,439.42,52.68,436.94Zm5.91,0c0-1.9-1.08-3.22-2.53-3.22s-2.52,1.32-2.52,3.22,1.06,3.21,2.52,3.21S58.59,438.85,58.59,436.94Z"/><path class="cls-4" d="M61.1,440.09a.71.71,0,1,1,.71.76A.72.72,0,0,1,61.1,440.09Z"/><path class="cls-4" d="M68.35,437.75H63.83v-.49l4.51-6.51h.79v6.33h1.45v.67H69.13v2.92h-.78Zm0-.67v-3.47c0-.47,0-1.28.07-1.75h-.07c-.24.42-.52.81-.81,1.26l-2.78,4Z"/><path class="cls-4" d="M76.89,431.48H71.72v-.73h6.17v.5c-2.37,3.1-2.93,5.55-3.09,9.42h-.88A15.23,15.23,0,0,1,76.89,431.48Z"/><path class="cls-4" d="M79.28,442.6a2.12,2.12,0,0,0,1.23-1.88.44.44,0,0,1-.16,0,.69.69,0,0,1-.73-.72.7.7,0,0,1,.74-.7c.51,0,.84.46.84,1.21a2.91,2.91,0,0,1-1.68,2.6Z"/><path class="cls-4" d="M86.63,430.46H89c3.14,0,4.68,1.94,4.68,5.07s-1.54,5.14-4.66,5.14H86.63ZM89,440c2.69,0,3.88-1.78,3.88-4.42s-1.19-4.37-3.88-4.37H87.47V440Z"/><path class="cls-4" d="M95.34,436.94c0-2.42,1.6-3.94,3.28-3.94s2.88,1.29,2.88,3.48a3.73,3.73,0,0,1,0,.59H96.17c0,1.82,1.12,3.09,2.73,3.09a3.35,3.35,0,0,0,2-.64l.31.6a4.21,4.21,0,0,1-2.39.73C96.89,440.85,95.34,439.39,95.34,436.94Zm5.42-.52c0-1.8-.83-2.71-2.13-2.71a2.64,2.64,0,0,0-2.46,2.71Z"/><path class="cls-4" d="M104.76,436.76l-2.31-3.56h.9L104.5,435c.25.42.51.82.79,1.23h.06l.74-1.23,1.11-1.84h.85l-2.31,3.64,2.52,3.83h-.91l-1.27-2a14.07,14.07,0,0,0-.86-1.36h-.06c-.28.44-.55.9-.85,1.36l-1.2,2h-.87Z"/><path class="cls-4" d="M109.63,430.76a.66.66,0,0,1,1.31,0,.66.66,0,1,1-1.31,0Zm.24,2.44h.81v7.47h-.81Z"/><path class="cls-4" d="M113.47,433.2h.67l.1,1.14h0a3.65,3.65,0,0,1,2.55-1.34c1.55,0,2.27,1,2.27,2.89v4.78h-.82V436c0-1.55-.49-2.27-1.63-2.27a3.26,3.26,0,0,0-2.36,1.35v5.59h-.81Z"/><path class="cls-4" d="M121.14,442.18a2.28,2.28,0,0,1,1.12-1.78v-.07a1.33,1.33,0,0,1-.67-1.2,1.84,1.84,0,0,1,.83-1.39v-.06a2.68,2.68,0,0,1-1-2,2.62,2.62,0,0,1,2.68-2.65,2.58,2.58,0,0,1,1,.2h2.55v.67H126a2.4,2.4,0,0,1,.77,1.8,2.57,2.57,0,0,1-2.63,2.63,2.5,2.5,0,0,1-1.21-.31,1.33,1.33,0,0,0-.58,1c0,.53.32.94,1.4.94h1.57c1.69,0,2.49.53,2.49,1.72s-1.4,2.53-3.59,2.53C122.36,444.22,121.14,443.44,121.14,442.18Zm5.86-.38c0-.8-.59-1.09-1.7-1.09h-1.52a4.74,4.74,0,0,1-.94-.13,1.88,1.88,0,0,0-.93,1.5c0,.91.88,1.53,2.41,1.53S127,442.7,127,441.8Zm-1-6.15a1.86,1.86,0,1,0-3.71,0,1.86,1.86,0,1,0,3.71,0Z"/><path class="cls-4" d="M131.5,430.46h.87l1.23,5.91c.24,1.1.46,2.21.69,3.33h.05c.26-1.12.52-2.23.79-3.33l1.55-5.91h.83l1.57,5.91c.27,1.1.52,2.21.78,3.33h.07c.21-1.12.42-2.23.65-3.33l1.25-5.91h.81l-2.24,10.21h-1l-1.8-6.82c-.17-.82-.35-1.52-.54-2.32h0c-.17.8-.38,1.5-.56,2.32l-1.75,6.82h-1Z"/><path class="cls-4" d="M143.63,440.09a.71.71,0,1,1,.71.76A.72.72,0,0,1,143.63,440.09Z"/><path class="cls-4" d="M150.68,430.46h3c2,0,3.4.74,3.4,2.73a2.69,2.69,0,0,1-2.55,2.8l2.76,4.68h-.95l-2.72-4.61h-2.09v4.61h-.84Zm2.79,4.9c1.76,0,2.74-.7,2.74-2.17s-1-2-2.74-2h-1.95v4.2Z"/><path class="cls-4" d="M158.34,436.94c0-2.41,1.54-3.94,3.3-3.94a3.34,3.34,0,0,1,2.23.92l-.05-1.35v-3h.81v11.14H164l-.09-.94h0a3.47,3.47,0,0,1-2.4,1.12C159.56,440.85,158.34,439.45,158.34,436.94Zm5.48,2v-4.32a3,3,0,0,0-2.09-.92c-1.43,0-2.52,1.39-2.52,3.22s.85,3.19,2.37,3.19A3.14,3.14,0,0,0,163.82,439Z"/><path class="cls-4" d="M167.06,440.09a.72.72,0,1,1,.72.76A.73.73,0,0,1,167.06,440.09Z"/><path class="cls-4" d="M170.27,442.6a2.12,2.12,0,0,0,1.23-1.88.5.5,0,0,1-.17,0,.69.69,0,0,1-.73-.72.71.71,0,0,1,.75-.7c.5,0,.84.46.84,1.21a2.9,2.9,0,0,1-1.69,2.6Z"/><path class="cls-4" d="M176.85,439.32l.51-.59a4,4,0,0,0,3,1.36c1.51,0,2.45-.8,2.45-2s-.8-1.62-1.81-2.07l-1.52-.67a2.84,2.84,0,0,1-2.08-2.55c0-1.52,1.29-2.57,3-2.57a3.93,3.93,0,0,1,2.89,1.24l-.48.54a3.29,3.29,0,0,0-2.41-1c-1.3,0-2.17.69-2.17,1.74s1,1.59,1.74,1.92l1.52.67c1.17.52,2.15,1.16,2.15,2.72s-1.31,2.77-3.31,2.77A4.53,4.53,0,0,1,176.85,439.32Z"/><path class="cls-4" d="M185.65,429.53h.81v4.82A3.64,3.64,0,0,1,189,433c1.56,0,2.27,1,2.27,2.89v4.78h-.81V436c0-1.55-.49-2.27-1.64-2.27a3.26,3.26,0,0,0-2.36,1.35v5.59h-.81Z"/><path class="cls-4" d="M193.66,430.76a.65.65,0,0,1,1.3,0,.65.65,0,1,1-1.3,0Zm.24,2.44h.81v7.47h-.81Z"/><path class="cls-4" d="M197.5,439.56v-10h.81v10.11c0,.35.14.51.34.51a1.14,1.14,0,0,0,.26,0l.13.64a1.45,1.45,0,0,1-.55.09C197.82,440.85,197.5,440.43,197.5,439.56Z"/><path class="cls-4" d="M201,430.76a.65.65,0,0,1,1.3,0,.65.65,0,1,1-1.3,0Zm.23,2.44h.82v7.47h-.82Z"/><path class="cls-4" d="M204.83,433.2h.67l.1,1.14h0a3.67,3.67,0,0,1,2.55-1.34c1.56,0,2.27,1,2.27,2.89v4.78h-.81V436c0-1.55-.49-2.27-1.64-2.27a3.26,3.26,0,0,0-2.36,1.35v5.59h-.81Z"/><path class="cls-4" d="M216.33,430.46h2.41c3.13,0,4.67,1.94,4.67,5.07s-1.54,5.14-4.66,5.14h-2.42Zm2.32,9.49c2.69,0,3.88-1.78,3.88-4.42s-1.19-4.37-3.88-4.37h-1.48V440Z"/><path class="cls-4" d="M225.41,430.76a.65.65,0,0,1,1.3,0,.65.65,0,1,1-1.3,0Zm.24,2.44h.81v7.47h-.81Z"/><path class="cls-4" d="M228.34,439.83l.43-.59a3.5,3.5,0,0,0,2.35.94c1.14,0,1.71-.65,1.71-1.42s-.94-1.29-1.8-1.59c-1.11-.4-2.29-.86-2.29-2.15,0-1.09.87-2,2.45-2a3.62,3.62,0,0,1,2.18.8l-.44.56a2.81,2.81,0,0,0-1.75-.67c-1.12,0-1.62.62-1.62,1.29,0,.83.81,1.13,1.68,1.46,1.14.43,2.41.84,2.41,2.28,0,1.15-.91,2.13-2.57,2.13A4.38,4.38,0,0,1,228.34,439.83Z"/><path class="cls-4" d="M235.45,438.54v-4.65h-1.16v-.62l1.19-.07.1-2.16h.68v2.16h2.15v.69h-2.15v4.7c0,.94.25,1.56,1.25,1.56a2.31,2.31,0,0,0,.91-.23l.2.65a4.39,4.39,0,0,1-1.25.28C235.9,440.85,235.45,439.92,235.45,438.54Z"/><path class="cls-4" d="M240.07,440.09a.72.72,0,1,1,.71.76A.73.73,0,0,1,240.07,440.09Z"/><path class="cls-4" d="M243.28,442.6a2.12,2.12,0,0,0,1.23-1.88.5.5,0,0,1-.17,0,.69.69,0,0,1-.73-.72.7.7,0,0,1,.74-.7c.51,0,.84.46.84,1.21a2.89,2.89,0,0,1-1.68,2.6Z"/><path class="cls-4" d="M252.8,431.17h-3.21v-.71h7.28v.71h-3.22v9.5h-.85Z"/><path class="cls-4" d="M257,438.79c0-1.65,1.47-2.44,4.76-2.82,0-1.1-.29-2.25-1.71-2.25a4,4,0,0,0-2.35.85l-.36-.58a5.09,5.09,0,0,1,2.82-1c1.78,0,2.41,1.28,2.41,2.93v4.74h-.68l-.09-1h0a4.32,4.32,0,0,1-2.61,1.14A2,2,0,0,1,257,438.79Zm4.76.21v-2.42c-2.94.33-3.95,1-3.95,2.17a1.34,1.34,0,0,0,1.53,1.41A3.68,3.68,0,0,0,261.77,439Z"/><path class="cls-4" d="M265,430.76a.65.65,0,0,1,1.3,0,.65.65,0,1,1-1.3,0Zm.24,2.44H266v7.47h-.81Z"/><path class="cls-4" d="M268.78,433.2h.68l.09.91h0a4.37,4.37,0,0,1,2.5-1.11c2,0,3,1.52,3,3.81,0,2.55-1.54,4-3.29,4a3.69,3.69,0,0,1-2.2-.91l0,1.37V444h-.82Zm5.42,3.61c0-1.79-.61-3.09-2.28-3.09a3.72,3.72,0,0,0-2.32,1.19v4.31a3.36,3.36,0,0,0,2.11.91C273.17,440.13,274.2,438.82,274.2,436.81Z"/><path class="cls-4" d="M276.64,436.94c0-2.42,1.59-3.94,3.28-3.94s2.88,1.29,2.88,3.48a3.73,3.73,0,0,1,0,.59h-5.3c.05,1.82,1.12,3.09,2.74,3.09a3.35,3.35,0,0,0,2-.64l.31.6a4.15,4.15,0,0,1-2.38.73C278.19,440.85,276.64,439.39,276.64,436.94Zm5.42-.52c0-1.8-.83-2.71-2.13-2.71a2.66,2.66,0,0,0-2.47,2.71Z"/><path class="cls-4" d="M284.55,430.76a.65.65,0,0,1,1.3,0,.65.65,0,1,1-1.3,0Zm.24,2.44h.81v7.47h-.81Z"/><path class="cls-4" d="M290.93,435.55c0-3.26,1.81-5.28,4.4-5.28a3.53,3.53,0,0,1,2.69,1.24l-.48.54a2.87,2.87,0,0,0-2.21-1c-2.16,0-3.52,1.74-3.52,4.5s1.33,4.56,3.48,4.56a3.26,3.26,0,0,0,2.53-1.23l.48.53a3.84,3.84,0,0,1-3.05,1.46C292.72,440.85,290.93,438.82,290.93,435.55Z"/><path class="cls-4" d="M300,430.76a.65.65,0,0,1,1.3,0,.65.65,0,1,1-1.3,0Zm.24,2.44h.81v7.47h-.81Z"/><path class="cls-4" d="M304.05,438.54v-4.65h-1.16v-.62l1.19-.07.09-2.16h.69v2.16H307v.69h-2.14v4.7c0,.94.25,1.56,1.25,1.56a2.31,2.31,0,0,0,.91-.23l.19.65a4.33,4.33,0,0,1-1.24.28C304.5,440.85,304.05,439.92,304.05,438.54Z"/><path class="cls-4" d="M307.79,443.88l.18-.69a2.07,2.07,0,0,0,.6.11c.9,0,1.5-.81,1.86-1.89l.2-.63-3.05-7.58h.88l1.74,4.57c.23.64.51,1.43.78,2.1h.07c.22-.67.46-1.46.67-2.1l1.53-4.57h.83l-2.92,8.34c-.43,1.28-1.2,2.49-2.58,2.49A2.1,2.1,0,0,1,307.79,443.88Z"/><path class="cls-4" d="M318.65,440H321v-8h-1.78v-.54a5.62,5.62,0,0,0,1.95-.66h.66V440h2.13v.72h-5.27Z"/><path class="cls-4" d="M326.14,440h2.31v-8h-1.78v-.54a5.62,5.62,0,0,0,1.95-.66h.66V440h2.13v.72h-5.27Z"/><path class="cls-4" d="M333.63,440h2.31v-8h-1.78v-.54a5.62,5.62,0,0,0,1.95-.66h.66V440h2.13v.72h-5.27Z"/><line class="cls-6" x1="43" y1="452.5" x2="355" y2="452.5"/><path class="cls-4" d="M46.56,469.37h-4V468h9.67v1.42h-4v11.8H46.56Z"/><path class="cls-4" d="M54.58,468h2L59.14,475c.3.92.61,1.83.93,2.75h.09c.31-.92.6-1.83.9-2.75L63.58,468h2v13.22H64v-7.31c0-1.14.12-2.74.21-3.89h-.07l-1,3-2.51,6.86H59.52L57,473l-1-3H55.9c.07,1.15.19,2.75.19,3.89v7.31H54.58Z"/><path class="cls-4" d="M72.28,479.44l1-1.14a5.13,5.13,0,0,0,3.64,1.64c1.73,0,2.77-.86,2.77-2.16s-1-1.78-2.19-2.34l-1.91-.83c-1.23-.52-2.68-1.46-2.68-3.38s1.76-3.51,4.16-3.51A5.36,5.36,0,0,1,81,469.36l-.88,1.06a4.25,4.25,0,0,0-3-1.24c-1.5,0-2.47.75-2.47,1.94s1.15,1.76,2.18,2.2l1.89.81c1.53.66,2.72,1.56,2.72,3.53s-1.73,3.74-4.49,3.74A6.31,6.31,0,0,1,72.28,479.44Z"/><path class="cls-4" d="M83.63,478.14v-5.42H82.18v-1.24l1.53-.09.19-2.76h1.37v2.76h2.65v1.33H85.27v5.46c0,1.2.38,1.89,1.52,1.89a3.58,3.58,0,0,0,1.11-.25l.33,1.22a6.19,6.19,0,0,1-1.81.36C84.34,481.4,83.63,480.09,83.63,478.14Z"/><path class="cls-4" d="M89.12,476.29c0-3.26,2.15-5.15,4.54-5.15s4.54,1.89,4.54,5.15-2.14,5.11-4.54,5.11S89.12,479.53,89.12,476.29Zm7.39,0c0-2.25-1.16-3.78-2.85-3.78s-2.83,1.53-2.83,3.78S92,480,93.66,480,96.51,478.54,96.51,476.29Z"/><path class="cls-4" d="M100.77,471.39h1.35l.14,1.78h.06a3.36,3.36,0,0,1,2.77-2,2.14,2.14,0,0,1,1,.21l-.31,1.44a2.43,2.43,0,0,0-1-.16c-.82,0-1.82.58-2.47,2.25v6.29h-1.64Z"/><path class="cls-4" d="M106.82,476.29c0-3.17,2.14-5.15,4.41-5.15,2.48,0,3.89,1.8,3.89,4.59a7.57,7.57,0,0,1-.07.94h-6.59c.1,2.08,1.38,3.42,3.24,3.42a4.21,4.21,0,0,0,2.45-.78l.59,1.08a5.8,5.8,0,0,1-3.24,1C108.91,481.4,106.82,479.51,106.82,476.29Zm6.86-.81c0-2-.9-3-2.43-3s-2.61,1.12-2.81,3Z"/><path class="cls-4" d="M43.48,493h.87l4.18,7L49.66,502h.07c0-1-.11-2-.11-3V493h.8v10.21h-.87l-4.16-7-1.15-2h-.07c0,1,.11,1.93.11,3v6.12h-.8Z"/><path class="cls-4" d="M52.68,499.44c0-2.49,1.57-3.94,3.38-3.94s3.37,1.45,3.37,3.94-1.57,3.91-3.37,3.91S52.68,501.92,52.68,499.44Zm5.91,0c0-1.9-1.08-3.22-2.53-3.22s-2.52,1.32-2.52,3.22,1.06,3.21,2.52,3.21S58.59,501.35,58.59,499.44Z"/><path class="cls-4" d="M61.1,502.59a.71.71,0,1,1,.71.76A.72.72,0,0,1,61.1,502.59Z"/><path class="cls-4" d="M68.35,500.25H63.83v-.49l4.51-6.51h.79v6.33h1.45v.67H69.13v2.92h-.78Zm0-.67v-3.47c0-.47,0-1.28.07-1.75h-.07c-.24.42-.52.81-.81,1.26l-2.78,4Z"/><path class="cls-4" d="M76.89,494H71.72v-.73h6.17v.5c-2.37,3.1-2.93,5.55-3.09,9.42h-.88A15.23,15.23,0,0,1,76.89,494Z"/><path class="cls-4" d="M79.28,505.1a2.12,2.12,0,0,0,1.23-1.88.44.44,0,0,1-.16,0,.69.69,0,0,1-.73-.72.7.7,0,0,1,.74-.7c.51,0,.84.46.84,1.21a2.91,2.91,0,0,1-1.68,2.6Z"/><path class="cls-4" d="M86.63,493H89c3.14,0,4.68,1.94,4.68,5.07s-1.54,5.14-4.66,5.14H86.63ZM89,502.45c2.69,0,3.88-1.78,3.88-4.42s-1.19-4.37-3.88-4.37H87.47v8.79Z"/><path class="cls-4" d="M95.34,499.44c0-2.42,1.6-3.94,3.28-3.94s2.88,1.29,2.88,3.48a3.73,3.73,0,0,1,0,.59H96.17c0,1.82,1.12,3.09,2.73,3.09a3.35,3.35,0,0,0,2-.64l.31.6a4.21,4.21,0,0,1-2.39.73C96.89,503.35,95.34,501.89,95.34,499.44Zm5.42-.52c0-1.8-.83-2.71-2.13-2.71a2.64,2.64,0,0,0-2.46,2.71Z"/><path class="cls-4" d="M104.76,499.26l-2.31-3.56h.9l1.15,1.84c.25.42.51.82.79,1.23h.06l.74-1.23,1.11-1.84h.85l-2.31,3.64,2.52,3.83h-.91l-1.27-2a14.07,14.07,0,0,0-.86-1.36h-.06c-.28.44-.55.9-.85,1.36l-1.2,2h-.87Z"/><path class="cls-4" d="M109.63,493.26a.66.66,0,0,1,1.31,0,.66.66,0,1,1-1.31,0Zm.24,2.44h.81v7.47h-.81Z"/><path class="cls-4" d="M113.47,495.7h.67l.1,1.14h0a3.65,3.65,0,0,1,2.55-1.34c1.55,0,2.27,1,2.27,2.89v4.78h-.82V498.5c0-1.55-.49-2.27-1.63-2.27a3.26,3.26,0,0,0-2.36,1.35v5.59h-.81Z"/><path class="cls-4" d="M121.14,504.68a2.28,2.28,0,0,1,1.12-1.78v-.07a1.33,1.33,0,0,1-.67-1.2,1.84,1.84,0,0,1,.83-1.39v-.06a2.68,2.68,0,0,1-1-2,2.62,2.62,0,0,1,2.68-2.65,2.58,2.58,0,0,1,1,.2h2.55v.67H126a2.4,2.4,0,0,1,.77,1.8,2.57,2.57,0,0,1-2.63,2.63,2.5,2.5,0,0,1-1.21-.31,1.33,1.33,0,0,0-.58,1c0,.53.32.94,1.4.94h1.57c1.69,0,2.49.53,2.49,1.72s-1.4,2.53-3.59,2.53C122.36,506.72,121.14,505.94,121.14,504.68Zm5.86-.38c0-.8-.59-1.09-1.7-1.09h-1.52a4.74,4.74,0,0,1-.94-.13,1.88,1.88,0,0,0-.93,1.5c0,.91.88,1.53,2.41,1.53S127,505.2,127,504.3Zm-1-6.15a1.86,1.86,0,1,0-3.71,0,1.86,1.86,0,1,0,3.71,0Z"/><path class="cls-4" d="M131.5,493h.87l1.23,5.91c.24,1.1.46,2.21.69,3.33h.05c.26-1.12.52-2.23.79-3.33l1.55-5.91h.83l1.57,5.91c.27,1.1.52,2.21.78,3.33h.07c.21-1.12.42-2.23.65-3.33l1.25-5.91h.81l-2.24,10.21h-1l-1.8-6.82c-.17-.82-.35-1.52-.54-2.32h0c-.17.8-.38,1.5-.56,2.32l-1.75,6.82h-1Z"/><path class="cls-4" d="M143.63,502.59a.71.71,0,1,1,.71.76A.72.72,0,0,1,143.63,502.59Z"/><path class="cls-4" d="M150.68,493h3c2,0,3.4.74,3.4,2.73a2.69,2.69,0,0,1-2.55,2.8l2.76,4.68h-.95l-2.72-4.61h-2.09v4.61h-.84Zm2.79,4.9c1.76,0,2.74-.7,2.74-2.17s-1-2-2.74-2h-1.95v4.2Z"/><path class="cls-4" d="M158.34,499.44c0-2.41,1.54-3.94,3.3-3.94a3.34,3.34,0,0,1,2.23.92l-.05-1.35v-3h.81v11.14H164l-.09-.94h0a3.47,3.47,0,0,1-2.4,1.12C159.56,503.35,158.34,502,158.34,499.44Zm5.48,2v-4.32a3,3,0,0,0-2.09-.92c-1.43,0-2.52,1.39-2.52,3.22s.85,3.19,2.37,3.19A3.14,3.14,0,0,0,163.82,501.46Z"/><path class="cls-4" d="M167.06,502.59a.72.72,0,1,1,.72.76A.73.73,0,0,1,167.06,502.59Z"/><path class="cls-4" d="M170.27,505.1a2.12,2.12,0,0,0,1.23-1.88.5.5,0,0,1-.17,0,.69.69,0,0,1-.73-.72.71.71,0,0,1,.75-.7c.5,0,.84.46.84,1.21a2.9,2.9,0,0,1-1.69,2.6Z"/><path class="cls-4" d="M176.85,501.82l.51-.59a4,4,0,0,0,3,1.36c1.51,0,2.45-.8,2.45-2S182,499,181,498.56l-1.52-.67a2.84,2.84,0,0,1-2.08-2.55c0-1.52,1.29-2.57,3-2.57a3.93,3.93,0,0,1,2.89,1.24l-.48.54a3.29,3.29,0,0,0-2.41-1c-1.3,0-2.17.69-2.17,1.74s1,1.59,1.74,1.92l1.52.67c1.17.52,2.15,1.16,2.15,2.72s-1.31,2.77-3.31,2.77A4.53,4.53,0,0,1,176.85,501.82Z"/><path class="cls-4" d="M185.65,492h.81v4.82A3.64,3.64,0,0,1,189,495.5c1.56,0,2.27,1,2.27,2.89v4.78h-.81V498.5c0-1.55-.49-2.27-1.64-2.27a3.26,3.26,0,0,0-2.36,1.35v5.59h-.81Z"/><path class="cls-4" d="M193.66,493.26a.65.65,0,0,1,1.3,0,.65.65,0,1,1-1.3,0Zm.24,2.44h.81v7.47h-.81Z"/><path class="cls-4" d="M197.5,502.06V492h.81v10.11c0,.35.14.51.34.51a1.14,1.14,0,0,0,.26,0l.13.64a1.45,1.45,0,0,1-.55.09C197.82,503.35,197.5,502.93,197.5,502.06Z"/><path class="cls-4" d="M201,493.26a.65.65,0,0,1,1.3,0,.65.65,0,1,1-1.3,0Zm.23,2.44h.82v7.47h-.82Z"/><path class="cls-4" d="M204.83,495.7h.67l.1,1.14h0a3.67,3.67,0,0,1,2.55-1.34c1.56,0,2.27,1,2.27,2.89v4.78h-.81V498.5c0-1.55-.49-2.27-1.64-2.27a3.26,3.26,0,0,0-2.36,1.35v5.59h-.81Z"/><path class="cls-4" d="M216.33,493h2.41c3.13,0,4.67,1.94,4.67,5.07s-1.54,5.14-4.66,5.14h-2.42Zm2.32,9.49c2.69,0,3.88-1.78,3.88-4.42s-1.19-4.37-3.88-4.37h-1.48v8.79Z"/><path class="cls-4" d="M225.41,493.26a.65.65,0,0,1,1.3,0,.65.65,0,1,1-1.3,0Zm.24,2.44h.81v7.47h-.81Z"/><path class="cls-4" d="M228.34,502.33l.43-.59a3.5,3.5,0,0,0,2.35.94c1.14,0,1.71-.65,1.71-1.42s-.94-1.29-1.8-1.59c-1.11-.4-2.29-.86-2.29-2.15,0-1.09.87-2,2.45-2a3.62,3.62,0,0,1,2.18.8l-.44.56a2.81,2.81,0,0,0-1.75-.67c-1.12,0-1.62.62-1.62,1.29,0,.83.81,1.13,1.68,1.46,1.14.43,2.41.84,2.41,2.28,0,1.15-.91,2.13-2.57,2.13A4.38,4.38,0,0,1,228.34,502.33Z"/><path class="cls-4" d="M235.45,501v-4.65h-1.16v-.62l1.19-.07.1-2.16h.68v2.16h2.15v.69h-2.15v4.7c0,.94.25,1.56,1.25,1.56a2.31,2.31,0,0,0,.91-.23l.2.65a4.39,4.39,0,0,1-1.25.28C235.9,503.35,235.45,502.42,235.45,501Z"/><path class="cls-4" d="M240.07,502.59a.72.72,0,1,1,.71.76A.73.73,0,0,1,240.07,502.59Z"/><path class="cls-4" d="M243.28,505.1a2.12,2.12,0,0,0,1.23-1.88.5.5,0,0,1-.17,0,.69.69,0,0,1-.73-.72.7.7,0,0,1,.74-.7c.51,0,.84.46.84,1.21a2.89,2.89,0,0,1-1.68,2.6Z"/><path class="cls-4" d="M252.8,493.67h-3.21V493h7.28v.71h-3.22v9.5h-.85Z"/><path class="cls-4" d="M257,501.29c0-1.65,1.47-2.44,4.76-2.82,0-1.1-.29-2.25-1.71-2.25a4,4,0,0,0-2.35.85l-.36-.58a5.09,5.09,0,0,1,2.82-1c1.78,0,2.41,1.28,2.41,2.93v4.74h-.68l-.09-1h0a4.32,4.32,0,0,1-2.61,1.14A2,2,0,0,1,257,501.29Zm4.76.21v-2.42c-2.94.33-3.95,1-3.95,2.17a1.34,1.34,0,0,0,1.53,1.41A3.68,3.68,0,0,0,261.77,501.5Z"/><path class="cls-4" d="M265,493.26a.65.65,0,0,1,1.3,0,.65.65,0,1,1-1.3,0Zm.24,2.44H266v7.47h-.81Z"/><path class="cls-4" d="M268.78,495.7h.68l.09.91h0a4.37,4.37,0,0,1,2.5-1.11c2,0,3,1.52,3,3.81,0,2.55-1.54,4-3.29,4a3.69,3.69,0,0,1-2.2-.91l0,1.37v2.69h-.82Zm5.42,3.61c0-1.79-.61-3.09-2.28-3.09a3.72,3.72,0,0,0-2.32,1.19v4.31a3.36,3.36,0,0,0,2.11.91C273.17,502.63,274.2,501.32,274.2,499.31Z"/><path class="cls-4" d="M276.64,499.44c0-2.42,1.59-3.94,3.28-3.94s2.88,1.29,2.88,3.48a3.73,3.73,0,0,1,0,.59h-5.3c.05,1.82,1.12,3.09,2.74,3.09a3.35,3.35,0,0,0,2-.64l.31.6a4.15,4.15,0,0,1-2.38.73C278.19,503.35,276.64,501.89,276.64,499.44Zm5.42-.52c0-1.8-.83-2.71-2.13-2.71a2.66,2.66,0,0,0-2.47,2.71Z"/><path class="cls-4" d="M284.55,493.26a.65.65,0,0,1,1.3,0,.65.65,0,1,1-1.3,0Zm.24,2.44h.81v7.47h-.81Z"/><path class="cls-4" d="M290.93,498.05c0-3.26,1.81-5.28,4.4-5.28A3.53,3.53,0,0,1,298,494l-.48.54a2.87,2.87,0,0,0-2.21-1c-2.16,0-3.52,1.74-3.52,4.5s1.33,4.56,3.48,4.56a3.26,3.26,0,0,0,2.53-1.23l.48.53a3.84,3.84,0,0,1-3.05,1.46C292.72,503.35,290.93,501.32,290.93,498.05Z"/><path class="cls-4" d="M300,493.26a.65.65,0,0,1,1.3,0,.65.65,0,1,1-1.3,0Zm.24,2.44h.81v7.47h-.81Z"/><path class="cls-4" d="M304.05,501v-4.65h-1.16v-.62l1.19-.07.09-2.16h.69v2.16H307v.69h-2.14v4.7c0,.94.25,1.56,1.25,1.56a2.31,2.31,0,0,0,.91-.23l.19.65a4.33,4.33,0,0,1-1.24.28C304.5,503.35,304.05,502.42,304.05,501Z"/><path class="cls-4" d="M307.79,506.38l.18-.69a2.07,2.07,0,0,0,.6.11c.9,0,1.5-.81,1.86-1.89l.2-.63-3.05-7.58h.88l1.74,4.57c.23.64.51,1.43.78,2.1h.07c.22-.67.46-1.46.67-2.1l1.53-4.57h.83L311.16,504c-.43,1.28-1.2,2.49-2.58,2.49A2.1,2.1,0,0,1,307.79,506.38Z"/><path class="cls-4" d="M318.65,502.45H321v-8h-1.78v-.54a5.62,5.62,0,0,0,1.95-.66h.66v9.2h2.13v.72h-5.27Z"/><path class="cls-4" d="M326.14,502.45h2.31v-8h-1.78v-.54a5.62,5.62,0,0,0,1.95-.66h.66v9.2h2.13v.72h-5.27Z"/><path class="cls-4" d="M333.63,502.45h2.31v-8h-1.78v-.54a5.62,5.62,0,0,0,1.95-.66h.66v9.2h2.13v.72h-5.27Z"/><line class="cls-6" x1="21" y1="515" x2="355" y2="515"/><path class="cls-3" d="M21.56,527.75h1l3.32,5.68,1,1.8h.06c-.06-.88-.14-1.84-.14-2.73v-4.75h.95v8.77h-1l-3.3-5.68-1-1.8h-.06c.05.88.12,1.76.12,2.67v4.81h-.93Z"/><path class="cls-3" d="M29.58,533.29a3.12,3.12,0,0,1,2.9-3.41c1.61,0,2.55,1.16,2.55,3a2.54,2.54,0,0,1-.05.59H30.56a2.24,2.24,0,0,0,2.22,2.4,2.82,2.82,0,0,0,1.64-.53l.36.65a3.81,3.81,0,0,1-2.12.66A3.09,3.09,0,0,1,29.58,533.29Zm4.59-.51c0-1.38-.63-2.11-1.68-2.11a2.09,2.09,0,0,0-2,2.11Z"/><path class="cls-3" d="M36,530.05h1l1,3.85c.14.61.26,1.18.4,1.78h0c.16-.6.29-1.17.46-1.78l1-3.85h1l1,3.85c.16.61.3,1.18.46,1.78h.05c.14-.6.27-1.17.42-1.78l1-3.85h.94L43,536.52H41.83l-1-3.61c-.18-.62-.3-1.21-.46-1.87h-.06c-.14.66-.27,1.27-.46,1.89l-.95,3.59H37.77Z"/><path class="cls-3" d="M50.85,528.58H48.17v-.83h6.37v.83H51.85v7.94h-1Z"/><path class="cls-3" d="M54.65,534.86c0-1.42,1.24-2.11,4-2.43,0-.87-.26-1.73-1.38-1.73a3.52,3.52,0,0,0-2,.72l-.39-.69a4.7,4.7,0,0,1,2.52-.85c1.57,0,2.19,1.07,2.19,2.63v4h-.8l-.09-.79h0a3.48,3.48,0,0,1-2.18.95A1.74,1.74,0,0,1,54.65,534.86Zm4,.13v-1.9c-2.29.27-3.07.82-3.07,1.71s.54,1.09,1.2,1.09A2.78,2.78,0,0,0,58.67,535Z"/><path class="cls-3" d="M61.59,528a.68.68,0,0,1,1.35,0,.68.68,0,1,1-1.35,0Zm.19,2.08h1v6.47h-1Z"/><path class="cls-3" d="M65,530.05h.79l.1.75h0a3.54,3.54,0,0,1,2.09-.92c1.69,0,2.59,1.31,2.59,3.3,0,2.22-1.33,3.5-2.83,3.5a3,3,0,0,1-1.82-.76l0,1.14v2.25H65Zm4.58,3.14c0-1.46-.51-2.48-1.8-2.48a2.82,2.82,0,0,0-1.81.93v3.51a2.62,2.62,0,0,0,1.65.7C68.76,535.85,69.59,534.83,69.59,533.19Z"/><path class="cls-3" d="M71.88,533.29a3.12,3.12,0,0,1,2.89-3.41c1.62,0,2.56,1.16,2.56,3a2.54,2.54,0,0,1,0,.59H72.86a2.24,2.24,0,0,0,2.21,2.4,2.82,2.82,0,0,0,1.65-.53l.36.65a3.82,3.82,0,0,1-2.13.66A3.09,3.09,0,0,1,71.88,533.29Zm4.58-.51c0-1.38-.62-2.11-1.67-2.11a2.09,2.09,0,0,0-2,2.11Z"/><path class="cls-3" d="M78.78,528a.68.68,0,0,1,1.36,0,.68.68,0,1,1-1.36,0Zm.2,2.08h1v6.47H79Z"/><path class="cls-3" d="M84.45,532.13c0-2.81,1.63-4.54,3.85-4.54a3.2,3.2,0,0,1,2.38,1.07l-.55.64a2.39,2.39,0,0,0-1.82-.84c-1.72,0-2.84,1.4-2.84,3.65s1.08,3.69,2.8,3.69a2.64,2.64,0,0,0,2.08-1l.55.62a3.33,3.33,0,0,1-2.67,1.26C86.05,536.68,84.45,535,84.45,532.13Z"/><path class="cls-3" d="M92.29,528a.68.68,0,0,1,1.36,0,.68.68,0,1,1-1.36,0Zm.2,2.08h1v6.47h-1Z"/><path class="cls-3" d="M95.9,534.57v-3.72h-1v-.74l1-.06.12-1.84h.82v1.84h1.78v.8H96.87v3.76c0,.79.24,1.27,1,1.27a2.12,2.12,0,0,0,.75-.18l.19.74a3.94,3.94,0,0,1-1.15.24C96.33,536.68,95.9,535.83,95.9,534.57Z"/><path class="cls-3" d="M99.41,539.22l.21-.79a1.48,1.48,0,0,0,.5.1c.74,0,1.22-.63,1.51-1.47l.14-.5-2.61-6.51h1l1.38,3.7c.2.57.43,1.24.65,1.83h.06c.18-.59.37-1.26.55-1.83l1.21-3.7h1l-2.47,7.07c-.43,1.24-1.1,2.23-2.36,2.23A1.9,1.9,0,0,1,99.41,539.22Z"/><path class="cls-3" d="M110.88,527.75H112l3,8.77h-1l-.88-2.77h-3.27l-.9,2.77h-1ZM110,533h2.77l-.46-1.42c-.33-1-.61-1.95-.91-3h0c-.29,1-.58,2-.9,3Z"/><path class="cls-3" d="M116.17,530.05h.8l.09,1.19h0a2.23,2.23,0,0,1,1.83-1.36,1.52,1.52,0,0,1,.69.14l-.2.86a1.51,1.51,0,0,0-.61-.11c-.55,0-1.22.41-1.66,1.53v4.22h-1Z"/><path class="cls-3" d="M120.09,533.29a3.12,3.12,0,0,1,2.89-3.41c1.62,0,2.55,1.16,2.55,3a2.54,2.54,0,0,1,0,.59h-4.42a2.24,2.24,0,0,0,2.22,2.4,2.82,2.82,0,0,0,1.64-.53l.36.65a3.76,3.76,0,0,1-2.12.66A3.08,3.08,0,0,1,120.09,533.29Zm4.58-.51c0-1.38-.63-2.11-1.68-2.11a2.08,2.08,0,0,0-1.94,2.11Z"/><path class="cls-3" d="M126.57,534.86c0-1.42,1.23-2.11,4-2.43,0-.87-.26-1.73-1.37-1.73a3.49,3.49,0,0,0-2,.72l-.4-.69a4.76,4.76,0,0,1,2.52-.85c1.57,0,2.2,1.07,2.2,2.63v4h-.81l-.08-.79h0a3.44,3.44,0,0,1-2.18.95A1.74,1.74,0,0,1,126.57,534.86Zm4,.13v-1.9c-2.29.27-3.07.82-3.07,1.71s.54,1.09,1.2,1.09A2.76,2.76,0,0,0,130.58,535Z"/><line class="cls-6" x1="20" y1="550.5" x2="355" y2="550.5"/><path class="cls-3" d="M21.56,563.75h1l3.32,5.68,1,1.8h.06c-.06-.88-.14-1.84-.14-2.73v-4.75h.95v8.77h-1l-3.3-5.68-1-1.8h-.06c.05.88.12,1.76.12,2.67v4.81h-.93Z"/><path class="cls-3" d="M29.58,569.29a3.12,3.12,0,0,1,2.9-3.41c1.61,0,2.55,1.16,2.55,3a2.54,2.54,0,0,1-.05.59H30.56a2.24,2.24,0,0,0,2.22,2.4,2.82,2.82,0,0,0,1.64-.53l.36.65a3.81,3.81,0,0,1-2.12.66A3.09,3.09,0,0,1,29.58,569.29Zm4.59-.51c0-1.38-.63-2.11-1.68-2.11a2.09,2.09,0,0,0-2,2.11Z"/><path class="cls-3" d="M36,566.05h1l1,3.85c.14.61.26,1.18.4,1.78h0c.16-.6.29-1.17.46-1.78l1-3.85h1l1,3.85c.16.61.3,1.18.46,1.78h.05c.14-.6.27-1.17.42-1.78l1-3.85h.94L43,572.52H41.83l-1-3.61c-.18-.62-.3-1.21-.46-1.87h-.06c-.14.66-.27,1.27-.46,1.89l-.95,3.59H37.77Z"/><path class="cls-3" d="M50.85,564.58H48.17v-.83h6.37v.83H51.85v7.94h-1Z"/><path class="cls-3" d="M54.65,570.86c0-1.42,1.24-2.11,4-2.43,0-.87-.26-1.73-1.38-1.73a3.52,3.52,0,0,0-2,.72l-.39-.69a4.7,4.7,0,0,1,2.52-.85c1.57,0,2.19,1.07,2.19,2.63v4h-.8l-.09-.79h0a3.48,3.48,0,0,1-2.18.95A1.74,1.74,0,0,1,54.65,570.86Zm4,.13v-1.9c-2.29.27-3.07.82-3.07,1.71s.54,1.09,1.2,1.09A2.78,2.78,0,0,0,58.67,571Z"/><path class="cls-3" d="M61.59,564a.68.68,0,0,1,1.35,0,.68.68,0,1,1-1.35,0Zm.19,2.08h1v6.47h-1Z"/><path class="cls-3" d="M65,566.05h.79l.1.75h0a3.54,3.54,0,0,1,2.09-.92c1.69,0,2.59,1.31,2.59,3.3,0,2.22-1.33,3.5-2.83,3.5a3,3,0,0,1-1.82-.76l0,1.14v2.25H65Zm4.58,3.14c0-1.46-.51-2.48-1.8-2.48a2.82,2.82,0,0,0-1.81.93v3.51a2.62,2.62,0,0,0,1.65.7C68.76,571.85,69.59,570.83,69.59,569.19Z"/><path class="cls-3" d="M71.88,569.29a3.12,3.12,0,0,1,2.89-3.41c1.62,0,2.56,1.16,2.56,3a2.54,2.54,0,0,1,0,.59H72.86a2.24,2.24,0,0,0,2.21,2.4,2.82,2.82,0,0,0,1.65-.53l.36.65a3.82,3.82,0,0,1-2.13.66A3.09,3.09,0,0,1,71.88,569.29Zm4.58-.51c0-1.38-.62-2.11-1.67-2.11a2.09,2.09,0,0,0-2,2.11Z"/><path class="cls-3" d="M78.78,564a.68.68,0,0,1,1.36,0,.68.68,0,1,1-1.36,0Zm.2,2.08h1v6.47H79Z"/><path class="cls-3" d="M84.45,568.13c0-2.81,1.63-4.54,3.85-4.54a3.2,3.2,0,0,1,2.38,1.07l-.55.64a2.39,2.39,0,0,0-1.82-.84c-1.72,0-2.84,1.4-2.84,3.65s1.08,3.69,2.8,3.69a2.64,2.64,0,0,0,2.08-1l.55.62a3.33,3.33,0,0,1-2.67,1.26C86.05,572.68,84.45,571,84.45,568.13Z"/><path class="cls-3" d="M92.29,564a.68.68,0,0,1,1.36,0,.68.68,0,1,1-1.36,0Zm.2,2.08h1v6.47h-1Z"/><path class="cls-3" d="M95.9,570.57v-3.72h-1v-.74l1-.06.12-1.84h.82v1.84h1.78v.8H96.87v3.76c0,.79.24,1.27,1,1.27a2.12,2.12,0,0,0,.75-.18l.19.74a3.94,3.94,0,0,1-1.15.24C96.33,572.68,95.9,571.83,95.9,570.57Z"/><path class="cls-3" d="M99.41,575.22l.21-.79a1.48,1.48,0,0,0,.5.1c.74,0,1.22-.63,1.51-1.47l.14-.5-2.61-6.51h1l1.38,3.7c.2.57.43,1.24.65,1.83h.06c.18-.59.37-1.26.55-1.83l1.21-3.7h1l-2.47,7.07c-.43,1.24-1.1,2.23-2.36,2.23A1.9,1.9,0,0,1,99.41,575.22Z"/><path class="cls-3" d="M110.88,563.75H112l3,8.77h-1l-.88-2.77h-3.27l-.9,2.77h-1ZM110,569h2.77l-.46-1.42c-.33-1-.61-1.95-.91-3h0c-.29,1-.58,2-.9,3Z"/><path class="cls-3" d="M116.17,566.05h.8l.09,1.19h0a2.23,2.23,0,0,1,1.83-1.36,1.52,1.52,0,0,1,.69.14l-.2.86a1.51,1.51,0,0,0-.61-.11c-.55,0-1.22.41-1.66,1.53v4.22h-1Z"/><path class="cls-3" d="M120.09,569.29a3.12,3.12,0,0,1,2.89-3.41c1.62,0,2.55,1.16,2.55,3a2.54,2.54,0,0,1,0,.59h-4.42a2.24,2.24,0,0,0,2.22,2.4,2.82,2.82,0,0,0,1.64-.53l.36.65a3.76,3.76,0,0,1-2.12.66A3.08,3.08,0,0,1,120.09,569.29Zm4.58-.51c0-1.38-.63-2.11-1.68-2.11a2.08,2.08,0,0,0-1.94,2.11Z"/><path class="cls-3" d="M126.57,570.86c0-1.42,1.23-2.11,4-2.43,0-.87-.26-1.73-1.37-1.73a3.49,3.49,0,0,0-2,.72l-.4-.69a4.76,4.76,0,0,1,2.52-.85c1.57,0,2.2,1.07,2.2,2.63v4h-.81l-.08-.79h0a3.44,3.44,0,0,1-2.18.95A1.74,1.74,0,0,1,126.57,570.86Zm4,.13v-1.9c-2.29.27-3.07.82-3.07,1.71s.54,1.09,1.2,1.09A2.76,2.76,0,0,0,130.58,571Z"/><line class="cls-6" x1="20" y1="586.5" x2="355" y2="586.5"/><path class="cls-3" d="M21.56,598.75h1l3.32,5.68,1,1.8h.06c-.06-.88-.14-1.84-.14-2.73v-4.75h.95v8.77h-1l-3.3-5.68-1-1.8h-.06c.05.88.12,1.76.12,2.67v4.81h-.93Z"/><path class="cls-3" d="M29.58,604.29a3.12,3.12,0,0,1,2.9-3.41c1.61,0,2.55,1.16,2.55,3a2.54,2.54,0,0,1-.05.59H30.56a2.24,2.24,0,0,0,2.22,2.4,2.82,2.82,0,0,0,1.64-.53l.36.65a3.81,3.81,0,0,1-2.12.66A3.09,3.09,0,0,1,29.58,604.29Zm4.59-.51c0-1.38-.63-2.11-1.68-2.11a2.09,2.09,0,0,0-2,2.11Z"/><path class="cls-3" d="M36,601.05h1l1,3.85c.14.61.26,1.18.4,1.78h0c.16-.6.29-1.17.46-1.78l1-3.85h1l1,3.85c.16.61.3,1.18.46,1.78h.05c.14-.6.27-1.17.42-1.78l1-3.85h.94L43,607.52H41.83l-1-3.61c-.18-.62-.3-1.21-.46-1.87h-.06c-.14.66-.27,1.27-.46,1.89l-.95,3.59H37.77Z"/><path class="cls-3" d="M50.85,599.58H48.17v-.83h6.37v.83H51.85v7.94h-1Z"/><path class="cls-3" d="M54.65,605.86c0-1.42,1.24-2.11,4-2.43,0-.87-.26-1.73-1.38-1.73a3.52,3.52,0,0,0-2,.72l-.39-.69a4.7,4.7,0,0,1,2.52-.85c1.57,0,2.19,1.07,2.19,2.63v4h-.8l-.09-.79h0a3.48,3.48,0,0,1-2.18.95A1.74,1.74,0,0,1,54.65,605.86Zm4,.13v-1.9c-2.29.27-3.07.82-3.07,1.71s.54,1.09,1.2,1.09A2.78,2.78,0,0,0,58.67,606Z"/><path class="cls-3" d="M61.59,599a.68.68,0,0,1,1.35,0,.68.68,0,1,1-1.35,0Zm.19,2.08h1v6.47h-1Z"/><path class="cls-3" d="M65,601.05h.79l.1.75h0a3.54,3.54,0,0,1,2.09-.92c1.69,0,2.59,1.31,2.59,3.3,0,2.22-1.33,3.5-2.83,3.5a3,3,0,0,1-1.82-.76l0,1.14v2.25H65Zm4.58,3.14c0-1.46-.51-2.48-1.8-2.48a2.82,2.82,0,0,0-1.81.93v3.51a2.62,2.62,0,0,0,1.65.7C68.76,606.85,69.59,605.83,69.59,604.19Z"/><path class="cls-3" d="M71.88,604.29a3.12,3.12,0,0,1,2.89-3.41c1.62,0,2.56,1.16,2.56,3a2.54,2.54,0,0,1,0,.59H72.86a2.24,2.24,0,0,0,2.21,2.4,2.82,2.82,0,0,0,1.65-.53l.36.65a3.82,3.82,0,0,1-2.13.66A3.09,3.09,0,0,1,71.88,604.29Zm4.58-.51c0-1.38-.62-2.11-1.67-2.11a2.09,2.09,0,0,0-2,2.11Z"/><path class="cls-3" d="M78.78,599a.68.68,0,0,1,1.36,0,.68.68,0,1,1-1.36,0Zm.2,2.08h1v6.47H79Z"/><path class="cls-3" d="M84.45,603.13c0-2.81,1.63-4.54,3.85-4.54a3.2,3.2,0,0,1,2.38,1.07l-.55.64a2.39,2.39,0,0,0-1.82-.84c-1.72,0-2.84,1.4-2.84,3.65s1.08,3.69,2.8,3.69a2.64,2.64,0,0,0,2.08-1l.55.62a3.33,3.33,0,0,1-2.67,1.26C86.05,607.68,84.45,606,84.45,603.13Z"/><path class="cls-3" d="M92.29,599a.68.68,0,0,1,1.36,0,.68.68,0,1,1-1.36,0Zm.2,2.08h1v6.47h-1Z"/><path class="cls-3" d="M95.9,605.57v-3.72h-1v-.74l1-.06.12-1.84h.82v1.84h1.78v.8H96.87v3.76c0,.79.24,1.27,1,1.27a2.12,2.12,0,0,0,.75-.18l.19.74a3.94,3.94,0,0,1-1.15.24C96.33,607.68,95.9,606.83,95.9,605.57Z"/><path class="cls-3" d="M99.41,610.22l.21-.79a1.48,1.48,0,0,0,.5.1c.74,0,1.22-.63,1.51-1.47l.14-.5-2.61-6.51h1l1.38,3.7c.2.57.43,1.24.65,1.83h.06c.18-.59.37-1.26.55-1.83l1.21-3.7h1l-2.47,7.07c-.43,1.24-1.1,2.23-2.36,2.23A1.9,1.9,0,0,1,99.41,610.22Z"/><path class="cls-3" d="M110.88,598.75H112l3,8.77h-1l-.88-2.77h-3.27l-.9,2.77h-1ZM110,604h2.77l-.46-1.42c-.33-1-.61-1.95-.91-3h0c-.29,1-.58,2-.9,3Z"/><path class="cls-3" d="M116.17,601.05h.8l.09,1.19h0a2.23,2.23,0,0,1,1.83-1.36,1.52,1.52,0,0,1,.69.14l-.2.86a1.51,1.51,0,0,0-.61-.11c-.55,0-1.22.41-1.66,1.53v4.22h-1Z"/><path class="cls-3" d="M120.09,604.29a3.12,3.12,0,0,1,2.89-3.41c1.62,0,2.55,1.16,2.55,3a2.54,2.54,0,0,1,0,.59h-4.42a2.24,2.24,0,0,0,2.22,2.4,2.82,2.82,0,0,0,1.64-.53l.36.65a3.76,3.76,0,0,1-2.12.66A3.08,3.08,0,0,1,120.09,604.29Zm4.58-.51c0-1.38-.63-2.11-1.68-2.11a2.08,2.08,0,0,0-1.94,2.11Z"/><path class="cls-3" d="M126.57,605.86c0-1.42,1.23-2.11,4-2.43,0-.87-.26-1.73-1.37-1.73a3.49,3.49,0,0,0-2,.72l-.4-.69a4.76,4.76,0,0,1,2.52-.85c1.57,0,2.2,1.07,2.2,2.63v4h-.81l-.08-.79h0a3.44,3.44,0,0,1-2.18.95A1.74,1.74,0,0,1,126.57,605.86Zm4,.13v-1.9c-2.29.27-3.07.82-3.07,1.71s.54,1.09,1.2,1.09A2.76,2.76,0,0,0,130.58,606Z"/><line class="cls-6" x1="20" y1="621.5" x2="355" y2="621.5"/><path class="cls-3" d="M21.56,634.75h1l3.32,5.68,1,1.8h.06c-.06-.88-.14-1.84-.14-2.73v-4.75h.95v8.77h-1l-3.3-5.68-1-1.8h-.06c.05.88.12,1.76.12,2.67v4.81h-.93Z"/><path class="cls-3" d="M29.58,640.29a3.12,3.12,0,0,1,2.9-3.41c1.61,0,2.55,1.16,2.55,3a2.54,2.54,0,0,1-.05.59H30.56a2.24,2.24,0,0,0,2.22,2.4,2.82,2.82,0,0,0,1.64-.53l.36.65a3.81,3.81,0,0,1-2.12.66A3.09,3.09,0,0,1,29.58,640.29Zm4.59-.51c0-1.38-.63-2.11-1.68-2.11a2.09,2.09,0,0,0-2,2.11Z"/><path class="cls-3" d="M36,637.05h1l1,3.85c.14.61.26,1.18.4,1.78h0c.16-.6.29-1.17.46-1.78l1-3.85h1l1,3.85c.16.61.3,1.18.46,1.78h.05c.14-.6.27-1.17.42-1.78l1-3.85h.94L43,643.52H41.83l-1-3.61c-.18-.62-.3-1.21-.46-1.87h-.06c-.14.66-.27,1.27-.46,1.89l-.95,3.59H37.77Z"/><path class="cls-3" d="M50.85,635.58H48.17v-.83h6.37v.83H51.85v7.94h-1Z"/><path class="cls-3" d="M54.65,641.86c0-1.42,1.24-2.11,4-2.43,0-.87-.26-1.73-1.38-1.73a3.52,3.52,0,0,0-2,.72l-.39-.69a4.7,4.7,0,0,1,2.52-.85c1.57,0,2.19,1.07,2.19,2.63v4h-.8l-.09-.79h0a3.48,3.48,0,0,1-2.18.95A1.74,1.74,0,0,1,54.65,641.86Zm4,.13v-1.9c-2.29.27-3.07.82-3.07,1.71s.54,1.09,1.2,1.09A2.78,2.78,0,0,0,58.67,642Z"/><path class="cls-3" d="M61.59,635a.68.68,0,0,1,1.35,0,.68.68,0,1,1-1.35,0Zm.19,2.08h1v6.47h-1Z"/><path class="cls-3" d="M65,637.05h.79l.1.75h0a3.54,3.54,0,0,1,2.09-.92c1.69,0,2.59,1.31,2.59,3.3,0,2.22-1.33,3.5-2.83,3.5a3,3,0,0,1-1.82-.76l0,1.14v2.25H65Zm4.58,3.14c0-1.46-.51-2.48-1.8-2.48a2.82,2.82,0,0,0-1.81.93v3.51a2.62,2.62,0,0,0,1.65.7C68.76,642.85,69.59,641.83,69.59,640.19Z"/><path class="cls-3" d="M71.88,640.29a3.12,3.12,0,0,1,2.89-3.41c1.62,0,2.56,1.16,2.56,3a2.54,2.54,0,0,1,0,.59H72.86a2.24,2.24,0,0,0,2.21,2.4,2.82,2.82,0,0,0,1.65-.53l.36.65a3.82,3.82,0,0,1-2.13.66A3.09,3.09,0,0,1,71.88,640.29Zm4.58-.51c0-1.38-.62-2.11-1.67-2.11a2.09,2.09,0,0,0-2,2.11Z"/><path class="cls-3" d="M78.78,635a.68.68,0,0,1,1.36,0,.68.68,0,1,1-1.36,0Zm.2,2.08h1v6.47H79Z"/><path class="cls-3" d="M84.45,639.13c0-2.81,1.63-4.54,3.85-4.54a3.2,3.2,0,0,1,2.38,1.07l-.55.64a2.39,2.39,0,0,0-1.82-.84c-1.72,0-2.84,1.4-2.84,3.65s1.08,3.69,2.8,3.69a2.64,2.64,0,0,0,2.08-1l.55.62a3.33,3.33,0,0,1-2.67,1.26C86.05,643.68,84.45,642,84.45,639.13Z"/><path class="cls-3" d="M92.29,635a.68.68,0,0,1,1.36,0,.68.68,0,1,1-1.36,0Zm.2,2.08h1v6.47h-1Z"/><path class="cls-3" d="M95.9,641.57v-3.72h-1v-.74l1-.06.12-1.84h.82v1.84h1.78v.8H96.87v3.76c0,.79.24,1.27,1,1.27a2.12,2.12,0,0,0,.75-.18l.19.74a3.94,3.94,0,0,1-1.15.24C96.33,643.68,95.9,642.83,95.9,641.57Z"/><path class="cls-3" d="M99.41,646.22l.21-.79a1.48,1.48,0,0,0,.5.1c.74,0,1.22-.63,1.51-1.47l.14-.5-2.61-6.51h1l1.38,3.7c.2.57.43,1.24.65,1.83h.06c.18-.59.37-1.26.55-1.83l1.21-3.7h1l-2.47,7.07c-.43,1.24-1.1,2.23-2.36,2.23A1.9,1.9,0,0,1,99.41,646.22Z"/><path class="cls-3" d="M110.88,634.75H112l3,8.77h-1l-.88-2.77h-3.27l-.9,2.77h-1ZM110,640h2.77l-.46-1.42c-.33-1-.61-1.95-.91-3h0c-.29,1-.58,2-.9,3Z"/><path class="cls-3" d="M116.17,637.05h.8l.09,1.19h0a2.23,2.23,0,0,1,1.83-1.36,1.52,1.52,0,0,1,.69.14l-.2.86a1.51,1.51,0,0,0-.61-.11c-.55,0-1.22.41-1.66,1.53v4.22h-1Z"/><path class="cls-3" d="M120.09,640.29a3.12,3.12,0,0,1,2.89-3.41c1.62,0,2.55,1.16,2.55,3a2.54,2.54,0,0,1,0,.59h-4.42a2.24,2.24,0,0,0,2.22,2.4,2.82,2.82,0,0,0,1.64-.53l.36.65a3.76,3.76,0,0,1-2.12.66A3.08,3.08,0,0,1,120.09,640.29Zm4.58-.51c0-1.38-.63-2.11-1.68-2.11a2.08,2.08,0,0,0-1.94,2.11Z"/><path class="cls-3" d="M126.57,641.86c0-1.42,1.23-2.11,4-2.43,0-.87-.26-1.73-1.37-1.73a3.49,3.49,0,0,0-2,.72l-.4-.69a4.76,4.76,0,0,1,2.52-.85c1.57,0,2.2,1.07,2.2,2.63v4h-.81l-.08-.79h0a3.44,3.44,0,0,1-2.18.95A1.74,1.74,0,0,1,126.57,641.86Zm4,.13v-1.9c-2.29.27-3.07.82-3.07,1.71s.54,1.09,1.2,1.09A2.76,2.76,0,0,0,130.58,642Z"/><path class="cls-7" d="M21.47,231.05h.79l.1,1h0a2.87,2.87,0,0,1,2-1.13,1.69,1.69,0,0,1,1.79,1.26,3.15,3.15,0,0,1,2.16-1.26c1.32,0,2,.88,2,2.53v4.11h-1v-4c0-1.25-.4-1.8-1.26-1.8a2.45,2.45,0,0,0-1.7,1.06v4.73h-1v-4c0-1.25-.4-1.8-1.28-1.8a2.49,2.49,0,0,0-1.69,1.06v4.73h-1Z"/><path class="cls-7" d="M32.5,231.05h.79l.1,1.19h0a2.25,2.25,0,0,1,1.84-1.36,1.45,1.45,0,0,1,.68.14l-.19.86a1.51,1.51,0,0,0-.61-.11c-.55,0-1.22.41-1.67,1.53v4.22h-1Z"/><path class="cls-7" d="M36.41,234.29c0-2.16,1.39-3.41,3-3.41a3.43,3.43,0,1,1-3,3.41Zm5,0c0-1.54-.82-2.58-2-2.58s-2,1-2,2.58.8,2.58,2,2.58S41.37,235.83,41.37,234.29Z"/><path class="cls-7" d="M43.64,234.29a3.12,3.12,0,0,1,2.89-3.41c1.62,0,2.55,1.16,2.55,3a2.54,2.54,0,0,1,0,.59H44.61a2.24,2.24,0,0,0,2.22,2.4,2.82,2.82,0,0,0,1.64-.53l.36.65a3.76,3.76,0,0,1-2.12.66A3.08,3.08,0,0,1,43.64,234.29Zm4.58-.51c0-1.38-.63-2.11-1.68-2.11a2.08,2.08,0,0,0-1.94,2.11Z"/><path class="cls-7" d="M52.65,236.79l.49-.66a2.92,2.92,0,0,0,2,.78c.9,0,1.35-.48,1.35-1.08s-.78-1-1.51-1.27c-.93-.33-1.92-.77-1.92-1.87s.8-1.81,2.2-1.81a3.17,3.17,0,0,1,2,.72l-.48.64a2.42,2.42,0,0,0-1.49-.58c-.86,0-1.25.46-1.25,1s.67.9,1.41,1.17c1,.37,2,.74,2,2,0,1-.81,1.89-2.31,1.89A3.86,3.86,0,0,1,52.65,236.79Z"/><path class="cls-7" d="M58.88,235.57v-3.72h-1v-.74l1-.06.12-1.84h.82v1.84h1.78v.8H59.85v3.76c0,.79.24,1.27,1,1.27a2.12,2.12,0,0,0,.75-.18l.19.74a3.94,3.94,0,0,1-1.15.24C59.31,237.68,58.88,236.83,58.88,235.57Z"/><path class="cls-7" d="M62.44,234.29c0-2.16,1.39-3.41,3-3.41a3.43,3.43,0,1,1-3,3.41Zm5,0c0-1.54-.81-2.58-2-2.58s-2,1-2,2.58.8,2.58,2,2.58S67.39,235.83,67.39,234.29Z"/><path class="cls-7" d="M70.17,231.05H71l.1,1.19h0a2.24,2.24,0,0,1,1.84-1.36,1.51,1.51,0,0,1,.68.14l-.19.86a1.54,1.54,0,0,0-.61-.11c-.56,0-1.23.41-1.67,1.53v4.22h-1Z"/><path class="cls-7" d="M74.08,234.29A3.12,3.12,0,0,1,77,230.88c1.62,0,2.56,1.16,2.56,3a3.25,3.25,0,0,1,0,.59H75.05a2.24,2.24,0,0,0,2.22,2.4,2.79,2.79,0,0,0,1.64-.53l.36.65a3.76,3.76,0,0,1-2.12.66A3.09,3.09,0,0,1,74.08,234.29Zm4.58-.51c0-1.38-.62-2.11-1.68-2.11A2.08,2.08,0,0,0,75,233.78Z"/></svg>