<?xml version="1.0" standalone="no"?><!DOCTYPE svg PUBLIC "-//W3C//DTD SVG 1.1//EN" "http://www.w3.org/Graphics/SVG/1.1/DTD/svg11.dtd"><svg t="1543395747341" class="icon" style="" viewBox="0 0 1024 1024" version="1.1" xmlns="http://www.w3.org/2000/svg" p-id="6755" xmlns:xlink="http://www.w3.org/1999/xlink" width="128" height="128"><defs><style type="text/css"></style></defs><path d="M371.872486 532.268138c-142.441931 0-257.800828-116.70069-257.800828-260.555035 0-143.819034 115.358897-260.519724 257.765517-260.519724 142.441931 0 257.800828 116.70069 257.800828 260.519724 0 143.854345-115.358897 260.555034-257.765517 260.555035z m0-48.233931c115.641379 0 209.531586-94.984828 209.531586-212.321104 0-117.300966-93.890207-212.285793-209.566897-212.285793-115.641379 0-209.531586 94.984828-209.531586 212.285793 0 117.336276 93.890207 212.321103 209.531586 212.321104z" fill="#595959" p-id="6756"></path><path d="M381.053175 388.555034c-25.140966 0-45.550345-20.762483-45.550345-46.433103 0-13.453241-10.628414-24.222897-23.905103-24.222897a23.940414 23.940414 0 0 0-23.869793 24.222897c0 43.890759 29.66069 80.790069 69.596689 91.700966v21.715862c0 13.453241 10.593103 24.222897 23.869794 24.222896a23.940414 23.940414 0 0 0 23.869793-24.222896v-21.715862a94.808276 94.808276 0 0 0 69.596689-91.700966c0-52.25931-45.550345-94.702345-97.068138-94.702345h-0.141241a46.256552 46.256552 0 0 1-41.807448-46.256552c0-25.494069 20.44469-46.397793 45.550345-46.397793 25.140966 0 45.726897 20.727172 45.726896 46.397793 0 13.453241 10.593103 24.222897 23.869793 24.222897a23.940414 23.940414 0 0 0 23.869793-24.222897c0-43.890759-29.66069-80.790069-69.561379-91.700965v-21.53931c0-13.488552-10.628414-24.258207-23.905103-24.258207a24.081655 24.081655 0 0 0-23.869794 24.399448v21.715862a94.808276 94.808276 0 0 0-69.561379 91.700966c0 52.25931 41.94869 94.878897 93.431173 94.878896H381.406279c23.552 1.906759 45.232552 21.53931 45.232551 45.762207-0.141241 25.494069-20.44469 46.433103-45.550344 46.433103zM874.974279 645.896828a197.243586 197.243586 0 0 0-147.985656-66.383449h-300.243862c-43.361103 0-78.530207 35.84-78.530207 79.589518 0 43.926069 35.310345 79.554207 78.530207 79.554206h131.495725c17.125517 0 31.108414 14.018207 31.108413 31.532138a31.284966 31.284966 0 0 1-31.073103 31.496828H406.12352c-21.186207 0-41.630897-7.768276-57.344-21.786483l-181.742345-167.724138a77.753379 77.753379 0 0 0-112.180965 7.450483 80.260414 80.260414 0 0 0 2.824827 108.049655l241.946483 252.89269A139.475862 139.475862 0 0 0 400.367934 1024h377.185103a26.694621 26.694621 0 0 0 26.55338-26.906483 26.694621 26.694621 0 0 0-26.55338-26.871172H400.050141c-23.410759 0-46.185931-9.886897-62.499311-27.047724l-241.981793-253.033931a26.65931 26.65931 0 0 1-0.918069-35.663449c10.522483-10.804966 24.964414-12.570483 36.581518-2.683586l181.777655 167.724138a138.487172 138.487172 0 0 0 92.689655 35.80469h152.081655c46.327172 0 84.038621-38.205793 84.038621-85.133242 0-46.962759-37.711448-85.133241-84.038621-85.133241H426.250417a25.776552 25.776552 0 0 1-25.6-25.953103 25.776552 25.776552 0 0 1 25.6-25.917794h300.208551c41.666207 0 81.072552 17.655172 108.402759 48.516414 42.125241 47.739586 93.925517 130.330483 100.881655 253.033931 0.776828 14.795034 13.34731 26.235586 27.930483 25.282207a26.765241 26.765241 0 0 0 24.999724-28.318896c-7.415172-138.134069-65.995034-231.706483-113.734621-285.801931z" fill="#595959" p-id="6757"></path></svg>