<?xml version="1.0" standalone="no"?><!DOCTYPE svg PUBLIC "-//W3C//DTD SVG 1.1//EN" "http://www.w3.org/Graphics/SVG/1.1/DTD/svg11.dtd"><svg t="1542104108849" class="icon" style="" viewBox="0 0 1024 1024" version="1.1" xmlns="http://www.w3.org/2000/svg" p-id="3717" xmlns:xlink="http://www.w3.org/1999/xlink" width="128" height="128"><defs><style type="text/css"></style></defs><path d="M221.866667 298.666667l68.266666-0.042667a8.576 8.576 0 0 0 8.533334-8.533333V221.866667c0-4.693333-3.84-8.533333-8.533334-8.533334h-68.266666a8.533333 8.533333 0 0 0-8.533334 8.533334v68.266666c0 4.693333 3.84 8.533333 8.533334 8.533334m256-42.666667l68.266666-0.042667a8.576 8.576 0 0 0 8.533334-8.533333V179.2c0-4.693333-3.84-8.533333-8.533334-8.533333h-68.266666a8.533333 8.533333 0 0 0-8.533334 8.533333v68.266667c0 4.693333 3.84 8.533333 8.533334 8.533333m-384 298.666667l68.266666-0.042667a8.576 8.576 0 0 0 8.533334-8.533333V477.866667c0-4.693333-3.84-8.533333-8.533334-8.533334H93.866667a8.533333 8.533333 0 0 0-8.533334 8.533334v68.266666c0 4.693333 3.84 8.533333 8.533334 8.533334m750.933333-0.042667c4.693333 0 8.533333-3.861333 8.533333-8.533333V477.866667a8.533333 8.533333 0 0 0-8.533333-8.533334h-68.266667a8.554667 8.554667 0 0 0-8.533333 8.533334v68.266666c0 4.693333 3.84 8.533333 8.533333 8.533334l68.266667-0.042667z m85.333333 128.042667h-68.266666a8.554667 8.554667 0 0 0-8.533334 8.533333v68.266667c0 4.693333 3.84 8.533333 8.533334 8.533333l68.266666-0.042667c4.693333 0 8.533333-3.861333 8.533334-8.533333V691.2a8.533333 8.533333 0 0 0-8.533334-8.533333m0 170.666666h-68.266666a8.554667 8.554667 0 0 0-8.533334 8.533334v68.266666c0 4.693333 3.84 8.533333 8.533334 8.533334l68.266666-0.042667c4.693333 0 8.533333-3.861333 8.533334-8.533333V861.866667a8.533333 8.533333 0 0 0-8.533334-8.533334m-170.666666 0h-68.266667a8.554667 8.554667 0 0 0-8.533333 8.533334v68.266666c0 4.693333 3.84 8.533333 8.533333 8.533334l68.266667-0.042667c4.693333 0 8.533333-3.861333 8.533333-8.533333V861.866667a8.533333 8.533333 0 0 0-8.533333-8.533334m93.866666-76.8a8.533333 8.533333 0 0 0-8.533333-8.533333h-68.266667a8.533333 8.533333 0 0 0-8.533333 8.533333v68.266667c0 4.693333 3.84 8.533333 8.533333 8.533333l68.266667-0.042666c4.693333 0 8.533333-3.84 8.533333-8.533334V776.533333z m-597.333333-298.666666v68.266666c0 4.693333 3.84 8.533333 8.533333 8.533334l409.6-0.042667c4.693333 0 8.533333-3.84 8.533334-8.533333V477.866667a8.533333 8.533333 0 0 0-8.533334-8.533334H554.666667v-119.466666a8.533333 8.533333 0 0 0-8.533334-8.533334h-68.266666a8.533333 8.533333 0 0 0-8.533334 8.533334l0.042667 119.466666H264.533333a8.533333 8.533333 0 0 0-8.533333 8.533334M546.133333 661.333333h-68.266666a8.554667 8.554667 0 0 0-8.533334 8.533334l0.042667 132.266666c0 4.693333 3.84 8.533333 8.533333 8.533334H546.133333a8.533333 8.533333 0 0 0 8.533334-8.533334v-132.266666a8.533333 8.533333 0 0 0-8.533334-8.533334m136.533334 72.533334a8.533333 8.533333 0 0 0-8.533334-8.533334h-68.266666a8.533333 8.533333 0 0 0-8.533334 8.533334l0.042667 110.933333c0 4.693333 3.861333 8.533333 8.533333 8.533333H674.133333c4.693333 0 8.533333-3.84 8.533334-8.533333v-110.933333zM605.866667 682.666667l238.933333-0.042667a8.576 8.576 0 0 0 8.533333-8.533333V605.866667c0-4.693333-3.84-8.533333-8.533333-8.533334H605.866667a8.533333 8.533333 0 0 0-8.533334 8.533334v68.266666c0 4.693333 3.84 8.533333 8.533334 8.533334" fill="#465057" p-id="3718"></path><path d="M341.333333 341.354667l-170.666666 0.021333V170.645333l170.666666-0.021333v170.730667zM418.133333 85.333333H93.866667c-4.693333 0-8.533333 3.84-8.533334 8.533334v324.266666c0 4.693333 3.84 8.533333 8.533334 8.533334h324.266666c4.693333 0 8.533333-3.84 8.533334-8.533334V93.866667c0-4.693333-3.84-8.533333-8.533334-8.533334zM341.333333 853.354667l-170.666666 0.021333v-170.730667l170.666666-0.021333v170.730667zM418.133333 597.333333H93.866667c-4.693333 0-8.533333 3.84-8.533334 8.533334v324.266666c0 4.693333 3.84 8.533333 8.533334 8.533334h324.266666c4.693333 0 8.533333-3.84 8.533334-8.533334V605.866667c0-4.693333-3.84-8.533333-8.533334-8.533334z" fill="#465057" p-id="3719"></path><path d="M290.133333 725.333333h-68.266666a8.554667 8.554667 0 0 0-8.533334 8.533334v68.266666c0 4.693333 3.84 8.533333 8.533334 8.533334l68.266666-0.042667c4.693333 0 8.533333-3.861333 8.533334-8.533333V733.866667a8.533333 8.533333 0 0 0-8.533334-8.533334m256 128h-68.266666a8.554667 8.554667 0 0 0-8.533334 8.533334v68.266666c0 4.693333 3.84 8.533333 8.533334 8.533334l68.266666-0.042667c4.693333 0 8.533333-3.861333 8.533334-8.533333V861.866667a8.533333 8.533333 0 0 0-8.533334-8.533334M853.333333 341.354667l-170.666666 0.021333V170.645333l170.666666-0.021333v170.730667zM930.133333 85.333333H605.866667c-4.693333 0-8.533333 3.84-8.533334 8.533334v324.266666c0 4.693333 3.84 8.533333 8.533334 8.533334h324.266666c4.693333 0 8.533333-3.84 8.533334-8.533334V93.866667c0-4.693333-3.84-8.533333-8.533334-8.533334z" fill="#465057" p-id="3720"></path><path d="M802.133333 213.333333h-68.266666a8.554667 8.554667 0 0 0-8.533334 8.533334v68.266666c0 4.693333 3.84 8.533333 8.533334 8.533334l68.266666-0.042667c4.693333 0 8.533333-3.861333 8.533334-8.533333V221.866667a8.533333 8.533333 0 0 0-8.533334-8.533334" fill="#465057" p-id="3721"></path></svg>