<?xml version="1.0" standalone="no"?><!DOCTYPE svg PUBLIC "-//W3C//DTD SVG 1.1//EN" "http://www.w3.org/Graphics/SVG/1.1/DTD/svg11.dtd"><svg t="1543394709133" class="icon" style="" viewBox="0 0 1024 1024" version="1.1" xmlns="http://www.w3.org/2000/svg" p-id="4239" xmlns:xlink="http://www.w3.org/1999/xlink" width="128" height="128"><defs><style type="text/css"></style></defs><path d="M515.42189603 622.93713371H88.92393252c-10.05552627 0-18.09994727 8.044421-18.09994726 18.09994723s8.044421 18.24359764 18.09994726 18.24359764h426.49796351c10.05552627 0 18.24359764-8.044421 18.24359762-18.24359764-0.14365036-9.91187588-8.18807141-18.09994727-18.24359762-18.09994723zM393.60637798 683.9885431H88.92393252c-10.05552627 0-18.09994727 8.044421-18.09994726 18.24359762 0 10.05552627 8.044421 18.09994727 18.09994726 18.09994725h304.68244546c9.91187588 0 18.09994727-8.044421 18.09994725-18.09994725 0-10.19917662-8.18807141-18.24359764-18.09994725-18.24359762z" fill="#ffbc1b" p-id="4240"></path><path d="M946.08572041 196.15186945H84.61442126c-41.51495841 2.29840602-74.41089426 36.34354488-74.84184538 77.71485286v487.83667366c-0.14365036 21.11660514 7.75712029 41.08400726 22.55310887 56.16729666 14.79598861 15.08328938 34.47608999 23.41501112 55.87999587 23.70231186H941.9198595c43.09511254 0 78.57675513-35.0506915 79.00770631-78.43310472V275.44687646c0.5746015-41.65860874-31.74673287-76.4219995-74.8418454-79.29500701zM739.94743223 354.31093239H790.65601461l-72.97439049 145.948781H667.11669204l72.83074019-145.948781z m-40.65305613 0l-73.11804092 145.948781H46.11612075V354.31093239h653.17825535z m285.43329515 145.948781H758.33468023l72.97439052-145.948781h153.56225093v145.948781zM85.76362424 232.35176393h859.02924278c22.55310888 1.7238045 40.07845464 20.2547029 39.93480423 42.80781176v42.52051104H46.11612075v-43.52606365c0.14365036-22.69675924 17.66899611-40.50940577 39.64750349-41.80225915z m898.96404701 530.78813584c-0.14365036 23.27136076-19.39280062 42.23321025-42.80781175 42.23321023H88.49298138c-11.49203001 0-22.12215774-4.59681201-30.16657873-12.78488338-7.9007706-8.044421-12.35393224-18.9618495-12.2102819-30.5975299V537.03420946H984.72767125v226.10569031z" fill="#282d46" p-id="4241"></path></svg>