<?xml version="1.0" standalone="no"?><!DOCTYPE svg PUBLIC "-//W3C//DTD SVG 1.1//EN" "http://www.w3.org/Graphics/SVG/1.1/DTD/svg11.dtd"><svg t="1541579588817" class="icon" style="" viewBox="0 0 1025 1024" version="1.1" xmlns="http://www.w3.org/2000/svg" p-id="2725" xmlns:xlink="http://www.w3.org/1999/xlink" width="32.03125" height="32"><defs><style type="text/css"></style></defs><path d="M1005.271106 338.746215l-319.994536-319.994536c-15.871729-15.871729-38.879336-22.23962-60.670964-16.863712-11.487804 2.815952-21.759628 8.735851-29.88749 16.863712-7.263876 7.263876-12.735783 16.255722-15.871729 26.303551-14.495752 47.007197-39.551325 87.8705-76.638691 124.925867-49.535154 49.503155-114.046053 87.006514-182.300887 126.653837-72.446763 41.983283-147.293485 85.50254-208.636437 146.813493-52.12711 52.191109-87.614504 110.238118-108.414149 177.628967-7.00788 22.751611-0.895985 47.359191 15.871729 64.190904l319.994536 319.994536c15.871729 15.871729 38.879336 22.23962 60.670964 16.863712 11.487804-2.879951 21.759628-8.735851 29.88749-16.863712 7.263876-7.263876 12.735783-16.255722 15.871729-26.36755 14.527752-47.007197 39.583324-87.8705 76.70269-124.925867 49.503155-49.503155 113.982054-86.942515 182.300887-126.557839 72.382764-42.047282 147.261485-85.566539 208.572438-146.877492 52.12711-52.12711 87.614504-110.238118 108.446148-177.628967 6.975881-22.719612 0.831986-47.42319-15.903728-64.158904zM384.001714 959.983607c-105.98219-105.98219-214.012345-214.044345-319.994536-319.994536 90.942447-294.426972 485.111716-281.563192 575.990164-575.990164 105.98219 105.950191 214.044345 214.012345 320.058535 319.994536-90.974446 294.362973-485.143716 281.563192-576.054163 575.990164zM625.981582 476.791858c-10.431822-8.735851-20.927643-14.687749-31.487462-17.631699-10.495821-2.94395-20.991642-4.12793-31.61546-3.359943-10.495821 0.799986-21.247637 3.199945-31.999454 7.327875-10.751816 4.191928-21.567632 8.735851-32.447446 14.015761-17.183707-19.743663-34.367413-39.26333-51.55112-57.37502 7.743868-7.00788 15.263739-10.55982 22.495616-10.815815 7.263876-0.319995 14.239757 0.447992 20.863644 2.111964 6.751885 1.695971 12.927779 3.135946 18.623682 4.255927 5.759902 1.119981 10.751816-0.127998 15.135742-3.807935 4.639921-3.999932 7.199877-9.183843 7.551871-15.423737 0.319995-6.303892-2.047965-12.447787-7.327875-18.431685-6.751885-7.743868-14.879746-12.447787-24.639579-14.175758-9.631836-1.695971-19.487667-1.567973-29.759492 0.671989-10.111827 2.303961-19.743663 6.111896-28.863507 11.487804s-16.447719 10.879814-21.887626 16.255722c-2.079964-1.983966-4.159929-3.935933-6.239893-5.887899-2.303961-2.111964-5.183911-3.263944-8.639852-3.199945-3.48794 0-6.367891 1.503974-8.735851 4.255927-2.303961 2.687954-3.359943 5.823901-2.94395 9.119844 0.319995 3.423942 1.695971 6.047897 4.063931 8.063862 2.079964 1.75997 4.159929 3.48794 6.239893 5.311909-8.19186 9.887831-14.943745 20.799645-20.255654 32.319448-5.375908 11.551803-8.575854 23.007607-9.759833 34.111418-1.247979 11.199809-0.063999 21.439634 3.359943 30.943472 3.423942 9.567837 9.759833 17.695698 19.007675 25.375567 15.071743 12.511786 32.79944 17.823696 53.375089 16.639716 20.51165-1.247979 42.623272-7.359874 66.398866-20.127656 18.879678 21.823627 37.823354 43.487257 56.735031 63.614914-7.999863 6.751885-15.007744 10.623819-21.183638 11.871797-6.175895 1.311978-11.679801 1.18398-16.671715-0.319995-4.991915-1.567973-9.631836-3.807935-13.887763-6.687886-4.255927-2.94395-8.447856-5.439907-12.639784-7.487872-4.12793-2.047965-8.383857-3.199945-12.735783-3.263944s-8.991846 2.047965-14.111759 6.43189c-5.24791 4.575922-7.871866 9.887831-7.871866 15.871729s2.751953 11.999795 8.127861 18.111691c5.439907 6.111896 12.511786 11.263808 21.05564 15.327738s18.207689 6.623887 28.831508 7.327875c10.623819 0.735987 21.823627-0.863985 33.631426-5.24791 11.871797-4.319926 23.615597-12.127793 35.199399-23.743595 5.567905 5.439907 11.199809 10.623819 16.799713 15.615733 2.36796 2.047965 5.24791 3.071948 8.735851 2.815952 3.359943-0.127998 6.303892-1.695971 8.639852-4.511923 2.36796-2.879951 3.359943-6.047897 3.007949-9.37584-0.319995-3.359943-1.695971-5.951898-3.999932-7.807867-5.631904-4.511923-11.263808-9.247842-16.863712-14.239757 9.567837-11.743799 17.247705-24.127588 22.943608-36.383379 5.695903-12.31979 9.055845-24.191587 10.175826-35.199399 1.119981-11.071811-0.191997-21.05564-3.807935-30.111486-3.583939-9.183843-9.95183-17.055709-19.071674-24.639579zM447.072637 498.487488c-9.055845 0.383993-16.95971-2.623955-23.871592-9.311841-2.94395-2.815952-4.991915-6.239893-6.239893-10.303824-1.311978-4.063931-1.75997-8.511855-1.247979-13.375772 0.447992-4.799918 1.887968-9.823832 4.383925-14.879746 2.36796-5.055914 5.887899-10.111827 10.367823-15.007744 16.223723 16.127725 32.415446 33.823422 48.639169 52.12711-12.28779 6.751885-22.975608 10.367823-32.031453 10.751816zM598.01406 562.550394c-2.879951 5.311909-6.175895 10.047828-10.047828 14.175758-17.951693-18.111691-35.871387-38.015351-53.759082-58.431002 4.575922-2.047965 9.37584-4.191928 14.559751-6.367891s10.367823-3.615938 15.551734-4.511923c5.311909-0.799986 10.55982-0.57599 15.80773 0.671989 5.183911 1.311978 10.111827 4.12793 14.687749 8.575854 4.511923 4.511923 7.359874 9.183843 8.511855 14.239757 1.247979 5.119913 1.311978 10.303824 0.447992 15.615733-0.927984 5.343909-2.815952 10.655818-5.759902 16.031726zM470.94423 709.74788c6.303892-5.087913 15.583734-4.831917 21.375635 1.055982 6.271893 6.239893 6.271893 16.447719 0 22.687613-0.511991 0.511991-1.055982 0.863985-1.631972 1.311978l0.063999 0.063999c-20.255654 15.391737-36.89537 29.247501-54.847063 47.199194-16.223723 16.191724-30.879473 33.247432-43.551256 50.559137l-20.447651 27.999522c-0.639989 1.15198-1.407976 2.207962-2.36796 3.199945-6.271893 6.239893-16.479719 6.239893-22.719612 0-5.439907-5.439907-6.111896-13.823764-2.111964-20.063657l-0.063999-0.063999 21.887626-29.88749c13.663767-18.687681 29.375498-36.991368 46.751202-54.367072 18.079691-18.14369 37.599358-34.335414 57.599016-49.695151l0.063999 0zM588.094229 246.875784c16.191724-16.191724 30.815474-33.183433 43.519257-50.591136l21.247637-29.119503c0.767987-1.375977 1.631972-2.751953 2.815952-3.935933 6.303892-6.303892 16.511718-6.303892 22.81561 0 5.983898 6.015897 6.239893 15.519735 0.799986 21.887626l0.063999 0.063999-21.887626 30.015487c-13.695766 18.687681-29.375498 36.927369-46.751202 54.303073-18.079691 18.079691-37.567358 34.335414-57.567017 49.695151l-0.127998-0.063999c-6.367891 5.8559-16.255722 5.727902-22.367618-0.447992-6.303892-6.303892-6.303892-16.575717 0-22.879609 1.119981-1.18398 2.431958-2.015966 3.743936-2.751953 18.815679-14.367755 36.959369-29.439497 53.695083-46.175212z" p-id="2726"></path></svg>