<?xml version="1.0" standalone="no"?><!DOCTYPE svg PUBLIC "-//W3C//DTD SVG 1.1//EN" "http://www.w3.org/Graphics/SVG/1.1/DTD/svg11.dtd"><svg t="1543395688917" class="icon" style="" viewBox="0 0 1171 1024" version="1.1" xmlns="http://www.w3.org/2000/svg" p-id="4411" xmlns:xlink="http://www.w3.org/1999/xlink" width="146.375" height="128"><defs><style type="text/css"></style></defs><path d="M362.330977 0h725.163347c45.896414 0 83.633466 37.737052 83.633466 83.633466v719.043825c0 45.896414-37.737052 83.633466-83.633466 83.633466H362.330977c-45.896414 0-83.633466-37.737052-83.633466-83.633466V83.633466C278.697511 37.737052 316.434563 0 362.330977 0z" fill="#FFD732" p-id="4412"></path><path d="M459.223407 621.131474H334.793128c-15.298805 0-27.537849 12.239044-27.537848 27.537849v236.621514c0 15.298805 12.239044 27.537849 27.537848 27.537848H459.223407c15.298805 0 27.537849-12.239044 27.537849-27.537848V649.689243c1.01992-15.298805-12.239044-28.557769-27.537849-28.557769z m-27.537848 237.641434h-69.354582V677.227092h69.354582v181.545816z" fill="#333333" p-id="4413"></path><path d="M947.76524 387.569721c0-15.298805-12.239044-27.537849-27.537849-27.537848H27.797112C12.498308 360.031873 0.259264 372.270916 0.259264 387.569721V500.780876c5.099602 41.816733 37.737052 74.454183 80.573705 79.553785h30.597609c15.298805 0 27.537849-12.239044 27.537849-27.537848s-12.239044-27.537849-27.537849-27.537849H85.932571c-15.298805-2.039841-27.537849-14.278884-29.57769-29.577689v-80.573705h139.729084v524.239044c0 21.418327 10.199203 44.876494 27.537849 61.195219 15.298805 15.298805 34.677291 23.458167 54.055776 23.458167h503.840638c22.438247 0 43.856574-9.179283 60.175299-25.498008 15.298805-16.318725 24.478088-37.737052 23.458167-59.155378V415.10757h56.095618c13.258964 0 26.517928-12.239044 26.517928-27.537849zM277.67759 967.904382c-7.139442 0-13.258964-4.079681-16.318725-7.139442-7.139442-7.139442-11.219124-16.318725-11.219123-21.418326V415.10757h403.888446v552.796812H277.67759z m530.358566-28.557768c0 7.139442-3.059761 14.278884-8.159362 19.378486s-12.239044 8.159363-20.398407 8.159362H709.103885V415.10757h97.912351v524.239044z" fill="#333333" p-id="4414"></path><path d="M975.303088 193.784861H79.813049c-40.796813 5.099602-74.454183 37.737052-79.553785 78.533864-2.039841 15.298805 8.159363 29.577689 23.458167 31.61753 15.298805 2.039841 29.577689-8.159363 31.61753-23.458167 2.039841-16.318725 14.278884-28.557769 30.59761-31.61753h889.370517c10.199203 0 27.537849 17.338645 27.537849 26.517928V497.721116c0 10.199203-18.358566 28.557769-27.537849 28.557768h-27.537848c-15.298805 0-27.537849 12.239044-27.537849 27.537849s12.239044 27.537849 27.537849 27.537849h27.537848c40.796813 0 83.633466-43.856574 83.633467-84.653387V275.378486c0-39.776892-42.836653-81.593625-83.633467-81.593625z" fill="#333333" p-id="4415"></path></svg>