<?xml version="1.0" encoding="utf-8"?>
<!-- Generator: Adobe Illustrator 16.0.3, SVG Export Plug-In . SVG Version: 6.00 Build 0)  -->
<!DOCTYPE svg PUBLIC "-//W3C//DTD SVG 1.1//EN" "http://www.w3.org/Graphics/SVG/1.1/DTD/svg11.dtd">
<svg version="1.1" id="Layer_1" xmlns="http://www.w3.org/2000/svg" xmlns:xlink="http://www.w3.org/1999/xlink" x="0px" y="0px"
	 width="30px" height="30px" viewBox="0 0 30 30" enable-background="new 0 0 30 30" xml:space="preserve">
<g>
	<rect x="1.175" y="1.084" fill="#F5F6F7" width="27.867" height="27.867"/>
	<path fill="#B3B1B3" d="M29.004,0L29.004,0H1.306C0.667,0,0.151,0.516,0.151,1.154v27.69c0,0.64,0.516,1.155,1.154,1.155h27.698
		c0.632,0,1.147-0.516,1.147-1.155V1.154C30.151,0.516,29.636,0,29.004,0L29.004,0z M27.85,27.69L27.85,27.69H2.469V9.042H27.85
		V27.69L27.85,27.69z M27.85,7.649L27.85,7.649H2.469V2.31h2.261V4.03c0,0.639,0.508,1.146,1.155,1.146
		c0.646,0,1.154-0.507,1.154-1.146V2.31h3.865V4.03c0,0.639,0.525,1.146,1.164,1.146s1.146-0.507,1.146-1.146V2.31h3.874V4.03
		c0,0.639,0.517,1.146,1.155,1.146c0.63,0,1.146-0.507,1.146-1.146V2.31h3.882V4.03c0,0.639,0.508,1.146,1.146,1.146
		c0.64,0,1.163-0.507,1.163-1.146V2.31h2.269V7.649L27.85,7.649z"/>
	<path fill="#E16E5F" d="M11.102,14.578c0.359,0.36,0.852,0.573,1.392,0.573c0.541,0,1.024-0.213,1.393-0.573
		c0.36-0.345,0.573-0.844,0.573-1.393c0-0.523-0.229-1.023-0.573-1.392h-0.017c-0.352-0.345-0.835-0.557-1.376-0.557
		c-0.54,0-1.032,0.212-1.392,0.557l0,0c-0.352,0.368-0.573,0.868-0.573,1.392C10.528,13.727,10.75,14.218,11.102,14.578
		L11.102,14.578L11.102,14.578z"/>
	<path fill="#B7B96C" d="M11.102,19.812L11.102,19.812c0.359,0.352,0.852,0.573,1.392,0.573c0.541,0,1.024-0.222,1.376-0.573
		l0.017-0.008c0.345-0.361,0.573-0.853,0.573-1.385c0-0.549-0.229-1.031-0.573-1.392h-0.017c-0.352-0.353-0.835-0.573-1.376-0.573
		c-0.54,0-1.032,0.221-1.392,0.573l0,0c-0.352,0.36-0.573,0.843-0.573,1.392c0,0.532,0.222,1.023,0.573,1.385V19.812L11.102,19.812z
		"/>
	<path fill="#B7B96C" d="M21.756,14.578L21.756,14.578c0.353,0.36,0.844,0.573,1.385,0.573c0.557,0,1.032-0.213,1.385-0.573
		c0.368-0.345,0.581-0.844,0.581-1.393c0-0.523-0.213-1.023-0.581-1.392l0,0c-0.353-0.345-0.844-0.557-1.385-0.557
		c-0.532,0-1.032,0.212-1.385,0.557l0,0c-0.352,0.368-0.581,0.868-0.581,1.392c0,0.541,0.229,1.032,0.573,1.393H21.756
		L21.756,14.578z"/>
	<path fill="#B7B96C" d="M16.425,14.578L16.425,14.578c0.36,0.36,0.853,0.573,1.393,0.573s1.031-0.213,1.393-0.573
		c0.343-0.345,0.573-0.844,0.573-1.393c0-0.523-0.23-1.023-0.573-1.392h-0.009c-0.359-0.345-0.86-0.557-1.384-0.557
		c-0.54,0-1.032,0.212-1.393,0.557l0,0c-0.353,0.368-0.573,0.868-0.573,1.392C15.852,13.727,16.072,14.218,16.425,14.578
		L16.425,14.578L16.425,14.578z"/>
	<path fill="#B7B96C" d="M11.102,25.028L11.102,25.028c0.359,0.36,0.852,0.59,1.392,0.59c0.541,0,1.024-0.229,1.376-0.59h0.017
		c0.345-0.352,0.573-0.852,0.573-1.375c0-0.55-0.229-1.049-0.573-1.393h-0.017c-0.352-0.36-0.835-0.574-1.376-0.574
		c-0.54,0-1.032,0.214-1.392,0.574l0,0c-0.352,0.344-0.573,0.843-0.573,1.393C10.528,24.177,10.75,24.677,11.102,25.028
		L11.102,25.028L11.102,25.028z"/>
	<path fill="#B7B96C" d="M16.425,25.028L16.425,25.028c0.36,0.36,0.853,0.59,1.393,0.59c0.523,0,1.024-0.229,1.384-0.59h0.009
		c0.343-0.352,0.573-0.852,0.573-1.375c0-0.55-0.23-1.049-0.573-1.393h-0.009c-0.359-0.36-0.86-0.574-1.384-0.574
		c-0.54,0-1.032,0.214-1.393,0.574l0,0c-0.353,0.344-0.573,0.843-0.573,1.393C15.852,24.177,16.072,24.677,16.425,25.028
		L16.425,25.028L16.425,25.028z"/>
	<path fill="#B7B96C" d="M5.777,19.812L5.777,19.812c0.361,0.352,0.844,0.573,1.393,0.573c0.541,0,1.024-0.222,1.377-0.573
		l0.016-0.008c0.36-0.361,0.573-0.853,0.573-1.385c0-0.549-0.213-1.031-0.573-1.392H8.547c-0.353-0.353-0.836-0.573-1.377-0.573
		c-0.549,0-1.031,0.221-1.393,0.573c-0.344,0.36-0.573,0.843-0.573,1.392c0,0.532,0.229,1.023,0.573,1.385V19.812L5.777,19.812z"/>
	<path fill="#B7B96C" d="M5.777,25.028L5.777,25.028c0.361,0.36,0.844,0.59,1.393,0.59c0.541,0,1.024-0.229,1.377-0.59h0.016
		c0.36-0.352,0.573-0.852,0.573-1.375c0-0.55-0.213-1.049-0.573-1.393H8.547c-0.353-0.36-0.836-0.574-1.377-0.574
		c-0.549,0-1.031,0.214-1.393,0.574l0,0c-0.344,0.344-0.573,0.843-0.573,1.393C5.204,24.177,5.434,24.677,5.777,25.028L5.777,25.028
		z"/>
	<path fill="#B7B96C" d="M16.425,19.812L16.425,19.812c0.36,0.352,0.853,0.573,1.393,0.573c0.523,0,1.024-0.222,1.384-0.573
		l0.009-0.008c0.343-0.361,0.573-0.853,0.573-1.385c0-0.549-0.23-1.031-0.573-1.392h-0.009c-0.359-0.353-0.86-0.573-1.384-0.573
		c-0.54,0-1.032,0.221-1.393,0.573l0,0c-0.353,0.36-0.573,0.843-0.573,1.392c0,0.532,0.221,1.023,0.573,1.385V19.812L16.425,19.812z
		"/>
	<path fill="#B7B96C" d="M21.756,19.812L21.756,19.812c0.353,0.352,0.853,0.573,1.385,0.573c0.541,0,1.032-0.222,1.385-0.573v-0.008
		c0.368-0.361,0.581-0.853,0.581-1.385c0-0.549-0.213-1.031-0.581-1.392c-0.353-0.353-0.844-0.573-1.385-0.573
		c-0.532,0-1.032,0.221-1.385,0.573c-0.352,0.36-0.581,0.843-0.581,1.392c0,0.532,0.229,1.023,0.581,1.385V19.812L21.756,19.812z"/>
</g>
</svg>
