<?xml version="1.0" encoding="utf-8"?>
<!-- Generator: Adobe Illustrator 16.0.3, SVG Export Plug-In . SVG Version: 6.00 Build 0)  -->
<!DOCTYPE svg PUBLIC "-//W3C//DTD SVG 1.1//EN" "http://www.w3.org/Graphics/SVG/1.1/DTD/svg11.dtd">
<svg version="1.1" id="圖層_1" xmlns="http://www.w3.org/2000/svg" xmlns:xlink="http://www.w3.org/1999/xlink" x="0px" y="0px"
	 width="243px" height="58px" viewBox="0 0 243 58" enable-background="new 0 0 243 58" xml:space="preserve">
<g>
	<g>
		<g>
			<path d="M48.055,50.891h-1.123c0,0,0.006-2.033,0.006-5.02V30.604c0-2.833-0.243-3.125-2.679-3.125v-0.743l6.926,0.01
				l-0.003,9.648c1.396-1.989,2.998-2.862,5.4-2.862c4.769,0,7.553,3.122,7.553,8.471c0,5.83-3.097,9.304-8.286,9.304
				c-1.968,0-3.576-0.466-5.184-1.552C50.666,49.756,50.037,50.891,48.055,50.891z M52.02,48.345
				c0.663,1.286,2.09,2.189,3.551,2.189c2.579,0,3.933-2.733,3.933-7.982c0-5.253-1.291-8.022-3.757-8.022
				c-1.461,0-2.823,0.967-3.587,2.513c-0.73,1.546-1.079,3.38-1.079,5.829S51.395,47.059,52.02,48.345z"/>
			<path d="M113.301,35.822c1.493-1.455,3.863-2.289,6.508-2.289c5.466,0,9.016,3.479,9.016,8.824c0,2.516-0.869,4.893-2.298,6.369
				c-1.602,1.65-4.143,2.613-6.894,2.613c-2.607,0-5.086-0.936-6.543-2.447c-1.536-1.578-2.401-3.865-2.401-6.341
				C110.689,39.91,111.663,37.43,113.301,35.822z M119.775,50.598c3.028,0,4.384-2.51,4.384-8.115c0-5.635-1.392-8.207-4.421-8.207
				c-1.428,0-2.647,0.672-3.233,1.863c-0.768,1.391-1.119,3.45-1.119,6.254C115.386,47.96,116.781,50.598,119.775,50.598z"/>
			<path d="M166.086,41.75c0.035,2.381,0.275,3.764,0.907,5.114c1.007,2.127,2.608,3.19,4.731,3.19c2.402,0,4.455-1.33,5.741-3.674
				l0.875,0.516c-1.741,3.058-4.073,4.41-7.659,4.41c-5.535,0-9.088-3.442-9.088-8.824c0-5.407,3.448-8.95,8.739-8.95
				c3.551,0,6.058,1.485,7.205,4.251c0.384,0.967,0.558,1.934,0.627,3.966L166.086,41.75L166.086,41.75z M173.814,40.809
				c-0.07-2.026-0.211-3.024-0.596-4.025c-0.66-1.705-1.632-2.508-2.992-2.508c-1.498,0-2.646,0.963-3.373,2.832
				c-0.386,1-0.597,2.026-0.733,3.701H173.814z"/>
			<path d="M1.502,50.464c2.818-0.063,3.134-0.392,3.134-3.411V31.014c0-3.026-0.351-3.387-3.134-3.417v-0.86h10.895
				c6.894,0,9.993,1.745,9.993,5.589c0,3.485-2.157,5.157-7.485,5.718v0.23c5.568,0.264,8.39,2.401,8.39,6.379
				c0,4.728-3.306,6.668-11.485,6.668H1.502V50.464z M12.048,37.682c3.622,0,5.538-1.776,5.538-5.16c0-3.22-1.952-4.833-5.777-4.833
				H9.126v9.993H12.048L12.048,37.682z M11.772,50.369c4.349,0,6.544-1.975,6.544-5.879c0-2.205-0.802-3.947-2.263-4.871
				c-0.906-0.559-2.402-0.885-4.107-0.885h-2.82v11.635H11.772z"/>
			<g>
				<path d="M41.826,37.605c-0.149-1.268-0.565-2.106-1.287-2.754c-1.044-0.902-2.754-1.318-5.154-1.318
					c-2.368,0-4.247,0.388-5.706,1.22c-1.363,0.776-2.054,2.276-2.164,2.999c-0.183,1.175,0.4,2.705,2.407,2.553
					c1.374-0.106,2.089-1.488,2.155-2.646c0.106-1.225,0.208-1.739,0.556-2.284c0.491-0.774,1.218-1.097,2.33-1.097
					c2.092,0,2.719,0.996,2.719,4.412v2.093c-2.157,0.099-4.003,0.319-5.709,0.614c-3.724,0.674-5.571,2.379-5.571,5.148
					c0,2.893,2.054,4.732,5.363,4.732c2.261,0,4.141-0.807,5.953-2.611c0.173,1.968,1.561,2.45,2.675,2.45
					c0.311,0,0.834,0.004,1.414,0.012L41.826,37.605z M37.683,44c0,1.839-0.175,2.898-0.628,3.734
					c-0.66,1.316-1.984,2.127-3.376,2.127c-1.706,0-2.818-1.517-2.818-3.799c0-2.998,1.772-4.182,6.822-4.541V44z"/>
			</g>
			<g>
				<path d="M158.706,39.748c0-2.188-0.28-3.379-1.045-4.348c-0.943-1.228-2.507-1.868-4.524-1.868c-2.615,0-4.457,1.026-5.99,3.38
					c-0.625-2.283-2.258-3.38-4.944-3.38c-2.606,0-4.664,1.128-6.056,3.25l-0.035-3.188l-6.787,0.036v0.774
					c2.293,0.027,2.574,0.773,2.574,3.475l0.017,12.947h4.233l-0.002-10.531c0-2.896,1.914-5.277,4.211-5.277
					c1.914,0,2.818,1.508,2.818,4.73l-0.012,11.078h4.229V40.037c0-1.193,0.344-2.221,1.075-3.254
					c0.87-1.221,1.847-1.766,3.097-1.766c2.059,0,2.892,1.353,2.892,4.765l-0.008,11.045h4.272L158.706,39.748z"/>
			</g>
			<g>
				<path d="M110.024,49.984c-2.853-0.092-3.132-0.381-3.132-3.34v-15.75c0-2.9,0.279-3.225,3.03-3.313v-0.845h-7.572l0.017,10.755
					h-9.874l0.012-10.755h-7.532v0.845c2.718,0.089,3,0.413,3,3.313v15.75c0,2.959-0.281,3.25-3.136,3.34v0.843h7.668l-0.012-12.271
					h9.874l-0.017,12.271h7.674V49.984z"/>
			</g>
			<path d="M81.866,34.018l-5.169,12.045l-5.092-12.045h-6.221v0.734c1.635,0.132,1.949,0.486,3.129,3.064l6.095,13.461
				c0,0-0.646,1.504-1.016,2.212c-0.709,1.36-1.092,1.458-1.092,1.458c-1.141-2.834-4.678-2.045-4.888,0.298
				c-0.131,1.479,0.869,2.759,2.542,2.759c2.156,0,3.409-1.189,4.837-4.508l5.917-13.907c1.571-3.644,2.438-4.571,4.387-4.836V34.02
				L81.866,34.018L81.866,34.018z"/>
			<g>
				<path d="M133.496,21.644c0.656-0.628,1.706-0.986,2.878-0.986c2.414,0,3.983,1.5,3.983,3.807c0,1.082-0.385,2.11-1.018,2.745
					c-0.707,0.713-1.828,1.131-3.047,1.131c-1.154,0-2.246-0.401-2.891-1.054c-0.68-0.683-1.065-1.671-1.065-2.741
					C132.338,23.404,132.771,22.337,133.496,21.644z M136.355,28.018c1.338,0,1.943-1.081,1.943-3.501
					c0-2.428-0.617-3.541-1.956-3.541c-0.635,0-1.175,0.291-1.436,0.803c-0.339,0.6-0.493,1.485-0.493,2.697
					C134.415,26.884,135.032,28.018,136.355,28.018z"/>
				<path d="M163.391,25.95c0,0.609,0.045,0.97,0.152,1.249c0.125,0.308,0.432,0.516,0.757,0.516c0.317,0,0.691-0.152,1.077-0.429
					l0.216,0.345c-0.632,0.476-1.313,0.696-2.108,0.696c-0.834,0-1.449-0.279-1.741-0.765c-0.185-0.354-0.231-0.678-0.231-1.918
					v-4.338h-0.879v-0.412c0.68-0.029,1.11-0.237,1.461-0.742c0.28-0.39,0.434-0.792,0.571-1.483l0.771-0.072
					c-0.029,0.571-0.045,1-0.045,2.268h1.864v0.44h-1.864V25.95L163.391,25.95z"/>
				<path d="M170.098,28.214h-1.139l-1.925-5.824c-0.29-0.9-0.552-1.165-1.214-1.206v-0.319h2.611l1.789,5.596l1.971-5.417h0.896
					l1.877,5.417l1.766-5.596h1.668v0.319c-0.879,0.055-1.266,0.444-1.682,1.681l-1.801,5.349h-1.105l-1.863-5.083L170.098,28.214z"
					/>
				<g>
					<path d="M153.447,26.392v-3.063c0-0.946-0.122-1.462-0.451-1.88c-0.408-0.53-1.084-0.807-1.958-0.807
						c-1.128,0-1.925,0.445-2.585,1.461c-0.271-0.985-0.979-1.461-2.141-1.461c-1.125,0-2.015,0.487-2.617,1.404l-0.012-1.377
						l-2.935,0.016v0.334c0.989,0.01,1.112,0.334,1.112,1.503v2.899h0.007v2.695h1.821V25.42h0.006v-1.855
						c0-1.254,0.828-2.282,1.824-2.282c0.824,0,1.217,0.651,1.217,2.046v3.063c0,0.133-0.002,0.251-0.004,0.361v1.363h1.826v-1.658
						c-0.002-0.023-0.002-0.043-0.002-0.066v-2.939c0-0.516,0.15-0.959,0.465-1.407c0.379-0.527,0.801-0.763,1.34-0.763
						c0.891,0,1.25,0.583,1.25,2.058v3.051c0,0.196-0.002,0.364-0.01,0.511v1.212h1.854v-1.288
						C153.449,26.7,153.447,26.555,153.447,26.392z"/>
				</g>
				<path d="M121.889,27.028c0,0.607-0.488,1.1-1.097,1.1c-0.607,0-1.101-0.492-1.101-1.1c0-0.609,0.494-1.099,1.101-1.099
					C121.401,25.929,121.889,26.419,121.889,27.028z"/>
				<circle cx="157.707" cy="27.028" r="1.1"/>
				<path d="M131.309,26.392c-0.695,1.294-1.834,1.948-3.373,1.948c-2.371,0-3.953-1.514-3.953-3.748
					c0-1.195,0.445-2.285,1.216-3.005c0.675-0.599,1.631-0.93,2.737-0.93c1.707,0,3.117,0.835,3.17,1.82
					c0.033,0.564-0.428,1.064-1.006,0.968c-0.351-0.057-0.849-0.27-0.945-1.148c-0.094-0.834-0.51-1.31-1.264-1.31
					c-0.629,0-1.17,0.347-1.416,0.887c-0.264,0.614-0.431,1.598-0.431,2.462c0,0.907,0.187,1.724,0.538,2.363
					c0.398,0.711,1.045,1.095,1.831,1.095c1.06,0,1.97-0.612,2.491-1.638L131.309,26.392z"/>
			</g>
		</g>
		<g>
			<path fill="#FAC109" d="M239.352,34.469c-2.955-2.623-7.582-3.063-10.961-2.085c-0.807,0.2-0.4-0.358-0.275-0.524
				c5.318-7.214,7.544-18.019-1.202-23.676c-10.821-7.007-24.832,3.562-20.531,19.581c0.24,0.893,0.528,1.777,0.86,2.648
				c-0.028-0.133-0.057-0.266-0.083-0.398c-2.277-11.919,5.481-24.117,16.571-19.048c10.17,4.648,3.959,20.068,0.713,23.5
				c-0.086,0.091-0.121,0.361,0.137,0.308c3.507-1.315,11.365-2.242,12.97,3.039c1.392,4.576-3.522,7.369-8.592,7.686
				c-3.579,0.223-9.871-0.941-14.839-4.596c5.396,5.263,12.706,8.109,20.064,5.861C241.857,44.414,243.338,38.014,239.352,34.469z"
				/>
			<path fill="#FAC109" d="M213.83,40.805c1.408,2.684,2.008,5.721,1.861,9.191c-0.223,5.232-4.519,5.979-6.848,3.22
				c-2.402-2.84-3.227-7.063-3.355-9.532c-0.035-0.402,0-0.551-0.85-0.455c-2.16,0.25-11.031-0.914-15.226-6.321
				c-5.435-7.009,1.176-10.338,9.228-7.32c2.453,0.919,4.617,1.907,6.516,2.976c-2.676-1.809-5.594-3.375-8.529-4.718
				c-10.826-4.942-18.159,5.207-7.92,13.023c5.1,3.893,11.645,4.131,15.165,3.403c0.864-0.177,0.825-0.101,0.921,0.773
				c0.023,4.281,1.438,8.913,3.512,10.992c3.088,3.089,8.484,1.566,8.861-3.219C217.525,48.264,216.204,44.273,213.83,40.805z"/>
			<path fill="#EB83B2" d="M202.227,29.711c0,0-4.912-7.299-10.98-9.933c-3.447-1.496-4.857-0.968-5.248-0.132
				c-0.614,1.316,1.936,2.359,4.203,3.135C194.382,24.221,199.741,26.703,202.227,29.711z"/>
			<path fill="#EA82B1" d="M213.006,39.795c0,0-11.078-6.904-11.643-28.293c-0.207-7.805-0.032-12.535-1.698-11.31
				c-0.867,0.639-2.774,5.07-1.374,14.449C200.736,31.057,211.833,39.217,213.006,39.795z"/>
		</g>
	</g>
</g>
</svg>
