<svg id="圖層_1" data-name="圖層 1" xmlns="http://www.w3.org/2000/svg" viewBox="0 0 150 150"><title>ms-13</title><path d="M132.07,59.39a2,2,0,0,0,1.88,2l4.94.16a1.94,1.94,0,1,0,.12-3.88l-4.94-.16A1.94,1.94,0,0,0,132.07,59.39Z" style="fill:#231815"/><path d="M123.79,86.72a1.9,1.9,0,0,0-.3,1,2,2,0,0,0,.92,1.71l4.2,2.61a1.94,1.94,0,1,0,2-3.29l-4.2-2.61A1.93,1.93,0,0,0,123.79,86.72Z" style="fill:#231815"/><path d="M129.3,73.62A1.95,1.95,0,0,0,130.64,76l5.15,1.45a1.94,1.94,0,0,0,1.05-3.73l-5.15-1.45A1.94,1.94,0,0,0,129.3,73.62Z" style="fill:#231815"/><path d="M126.37,29a1.94,1.94,0,0,0-1,1.65,1.9,1.9,0,0,0,.23,1,1.93,1.93,0,0,0,2.62.8L132.56,30a1.94,1.94,0,1,0-1.83-3.43Z" style="fill:#231815"/><path d="M131.73,42.7a2,2,0,0,0-1.54,1.83,2.49,2.49,0,0,0,0,.47,1.94,1.94,0,0,0,2.3,1.5l5.23-1.11a1.94,1.94,0,0,0-.8-3.8Z" style="fill:#231815"/><path d="M16.92,59.3a1.84,1.84,0,0,1-1.78,1.88L10.76,61a2,2,0,0,1,.13-3.88l4.37.14A1.85,1.85,0,0,1,16.92,59.3Z" style="fill:#231815"/><path d="M22.56,87.08a2.1,2.1,0,0,1,.2,1,2,2,0,0,1-.91,1.65L18,92.06a1.61,1.61,0,0,1-2.32-.79,2.06,2.06,0,0,1,.71-2.62l3.87-2.35A1.61,1.61,0,0,1,22.56,87.08Z" style="fill:#231815"/><path d="M18.49,73.67a2.56,2.56,0,0,1,0,.47A1.92,1.92,0,0,1,17.16,76l-4.64,1.13a1.72,1.72,0,0,1-2-1.49,2,2,0,0,1,1.34-2.3l4.63-1.13A1.71,1.71,0,0,1,18.49,73.67Z" style="fill:#231815"/><path d="M23.81,29.27A2,2,0,0,1,24.62,31a2.07,2.07,0,0,1-.27,1,1.61,1.61,0,0,1-2.36.63L18.28,30a2.08,2.08,0,0,1-.54-2.67,1.61,1.61,0,0,1,2.36-.64Z" style="fill:#231815"/><path d="M18.24,42.67a1.91,1.91,0,0,1,1.25,1.92,2.44,2.44,0,0,1-.07.46A1.71,1.71,0,0,1,17.3,46.4L12.75,45a2,2,0,0,1-1.18-2.39,1.71,1.71,0,0,1,2.12-1.35Z" style="fill:#231815"/><g id="_群組_" data-name="&lt;群組&gt;"><polygon points="92.15 124.95 74.18 112.47 56.22 124.95 56.22 83.79 92.15 83.79 92.15 124.95" style="fill:#ef90b9"/><path d="M92.15,126.42a1.45,1.45,0,0,1-.84-.27l-17.13-11.9-17.13,11.9a1.44,1.44,0,0,1-1.51.1,1.46,1.46,0,0,1-.78-1.3V83.79a1.46,1.46,0,0,1,1.46-1.46H92.15a1.46,1.46,0,0,1,1.46,1.46V125a1.46,1.46,0,0,1-.78,1.3A1.52,1.52,0,0,1,92.15,126.42ZM74.18,111a1.51,1.51,0,0,1,.84.26l15.67,10.89V85.25h-33v36.9l15.67-10.89A1.48,1.48,0,0,1,74.18,111Z" style="fill:#231815"/></g><g id="_群組_2" data-name="&lt;群組&gt;"><path d="M113.64,62.55a37.75,37.75,0,1,1-37.75-37.5A37.63,37.63,0,0,1,113.64,62.55Z" style="fill:#ffb71b"/><path d="M75.89,101.51a39,39,0,1,1,39.21-39A39.14,39.14,0,0,1,75.89,101.51Zm0-75a36,36,0,1,0,36.29,36A36.21,36.21,0,0,0,75.89,26.51Z" style="fill:#231815"/></g><g id="_群組_3" data-name="&lt;群組&gt;"><path d="M103.72,62.55A27.84,27.84,0,1,1,75.89,34.9,27.74,27.74,0,0,1,103.72,62.55Z" style="fill:#fff"/><path d="M75.89,91.66a29.12,29.12,0,1,1,29.3-29.11A29.24,29.24,0,0,1,75.89,91.66Zm0-55.3a26.19,26.19,0,1,0,26.37,26.19A26.31,26.31,0,0,0,75.89,36.36Z" style="fill:#231815"/></g><g id="_群組_4" data-name="&lt;群組&gt;"><path d="M80.34,44.58l2.35,4.73A5,5,0,0,0,86.42,52l5.25.75a4.92,4.92,0,0,1,2.75,8.41l-3.8,3.68a4.92,4.92,0,0,0-1.43,4.36l.9,5.19a5,5,0,0,1-7.2,5.2L78.2,77.14a5,5,0,0,0-4.62,0L68.89,79.6a5,5,0,0,1-7.2-5.2l.89-5.19a4.88,4.88,0,0,0-1.42-4.36l-3.8-3.68a4.92,4.92,0,0,1,2.75-8.41L65.36,52a5,5,0,0,0,3.73-2.7l2.35-4.73A5,5,0,0,1,80.34,44.58Z" style="fill:#ffb71b"/><path d="M85.21,81.63a6.43,6.43,0,0,1-3-.74l-4.69-2.45a3.54,3.54,0,0,0-3.26,0l-4.7,2.45a6.4,6.4,0,0,1-6.78-.5,6.33,6.33,0,0,1-2.53-6.24L61.14,69a3.42,3.42,0,0,0-1-3.06l-3.8-3.68a6.38,6.38,0,0,1,3.56-10.9l5.25-.76a3.5,3.5,0,0,0,2.63-1.9l2.35-4.73a6.45,6.45,0,0,1,11.52,0L84,48.66a3.5,3.5,0,0,0,2.63,1.9l5.25.75a6.39,6.39,0,0,1,3.56,10.91l-3.8,3.68a3.43,3.43,0,0,0-1,3.06l.9,5.19A6.32,6.32,0,0,1,89,80.39,6.46,6.46,0,0,1,85.21,81.63Zm-9.32-6.52a6.38,6.38,0,0,1,3,.74l4.7,2.45a3.45,3.45,0,0,0,3.7-.28,3.37,3.37,0,0,0,1.38-3.37l-.9-5.19a6.38,6.38,0,0,1,1.85-5.67l3.8-3.67a3.39,3.39,0,0,0,.89-3.54,3.44,3.44,0,0,0-2.83-2.37l-5.25-.76A6.42,6.42,0,0,1,81.37,50L79,45.24h0a3.51,3.51,0,0,0-6.28,0L70.4,50a6.39,6.39,0,0,1-4.83,3.49l-5.25.76a3.44,3.44,0,0,0-2.83,2.37,3.39,3.39,0,0,0,.89,3.54l3.8,3.67A6.38,6.38,0,0,1,64,69.46l-.9,5.19A3.39,3.39,0,0,0,64.5,78a3.47,3.47,0,0,0,3.71.28l4.69-2.45A6.45,6.45,0,0,1,75.89,75.11Z" style="fill:#231815"/></g></svg>