<svg id="圖層_1" data-name="圖層 1" xmlns="http://www.w3.org/2000/svg" viewBox="0 0 150 150"><title>ms-27</title><path d="M123.59,48.35h2.91v2.91a1.94,1.94,0,1,0,3.88,0V48.35h2.91a1.94,1.94,0,0,0,0-3.88h-2.91V41.56a1.94,1.94,0,1,0-3.88,0v2.91h-2.91a1.94,1.94,0,1,0,0,3.88Z" style="fill:#231815"/><path d="M100.94,26.47a5.18,5.18,0,1,1-5.18-4.94A5.06,5.06,0,0,1,100.94,26.47Z" style="fill:#e96bb0"/><path d="M95.76,32.87a6.4,6.4,0,1,1,6.64-6.4A6.52,6.52,0,0,1,95.76,32.87Zm0-9.87a3.48,3.48,0,1,0,3.71,3.47A3.61,3.61,0,0,0,95.76,23Z" style="fill:#231815"/><path d="M15.35,124.41a1.92,1.92,0,0,0-.58,1.37,2,2,0,0,0,.58,1.37,1.93,1.93,0,0,0,1.36.57,2,2,0,0,0,1.38-.57,2,2,0,0,0,0-2.74A2,2,0,0,0,15.35,124.41Z" style="fill:#231815"/><path d="M28.84,103H25.93v-2.91a1.94,1.94,0,0,0-3.88,0V103H19.14a1.94,1.94,0,1,0,0,3.87h2.91v2.91a1.94,1.94,0,0,0,3.88,0v-2.91h2.91a1.94,1.94,0,0,0,0-3.87Z" style="fill:#231815"/><path d="M47.77,123.53a5.18,5.18,0,1,1-5.18-4.94A5.06,5.06,0,0,1,47.77,123.53Z" style="fill:#ffb71b"/><path d="M42.59,129.93a6.4,6.4,0,1,1,6.64-6.4A6.53,6.53,0,0,1,42.59,129.93Zm0-9.88a3.48,3.48,0,1,0,3.71,3.48A3.61,3.61,0,0,0,42.59,120.05Z" style="fill:#231815"/><path d="M93.17,74.47a23.35,23.35,0,1,0,27.72,18.4A23.55,23.55,0,0,0,93.17,74.47Zm7.25,38.6c-9.11,1.77-17.84-3.75-19.51-12.32S85.28,83.8,94.38,82s17.84,3.75,19.5,12.32S109.52,111.31,100.42,113.07Z" style="fill:#ffb71b"/><path d="M97.48,122.21A24.78,24.78,0,0,1,92.89,73h0a25.19,25.19,0,0,1,18.85,3.73,24.57,24.57,0,0,1,6.69,34.45,25.22,25.22,0,0,1-16.08,10.52A26.24,26.24,0,0,1,97.48,122.21Zm.33-46.72a23.08,23.08,0,0,0-4.36.42h0A21.88,21.88,0,1,0,116,109.56a21.64,21.64,0,0,0-5.9-30.35A22.19,22.19,0,0,0,97.81,75.49Zm-4.64-1h0ZM97,114.86c-8.48,0-16-5.65-17.55-13.83C77.66,91.69,84.22,82.52,94.1,80.6s19.41,4.13,21.21,13.48a16.68,16.68,0,0,1-2.94,13,18.68,18.68,0,0,1-11.68,7.39h0A19.13,19.13,0,0,1,97,114.86Zm3.39-1.79h0Zm-2.65-29.9a16.62,16.62,0,0,0-3.11.3c-8.29,1.61-13.82,9.24-12.31,17s9.48,12.77,17.79,11.16h0a15.82,15.82,0,0,0,9.86-6.23,13.8,13.8,0,0,0,2.44-10.77C111.13,87.85,104.87,83.17,97.77,83.17Z" style="fill:#231815"/><path d="M111.49,59.36C101,51,92,61,77.92,73.57l0,0C64,86.16,52.69,93.73,60.33,105s27.22,7.66,41.74-4.31h0a1,1,0,0,1,.15-.14c.3-.26.62-.52.93-.8l0,0C116.27,87,122,67.78,111.49,59.36Z" style="fill:#ef90b9"/><path d="M74.91,113.25a26.72,26.72,0,0,1-3.62-.25,17.15,17.15,0,0,1-12.17-7.2c-7.47-11,1.6-19,13.09-29.08,1.47-1.29,3-2.63,4.54-4a1,1,0,0,1,.2-.22l4-3.59c11.74-10.63,21-19,31.48-10.67h0a16.39,16.39,0,0,1,6,12.48c.44,9.37-5,21-14,29.8a1.14,1.14,0,0,1-.26.32c-.22.21-.45.4-.67.59l-.29.24,0,0-.07.06c-.06.06-.12.1-.18.15C94.11,109.09,83.73,113.25,74.91,113.25Zm4.2-38.78a1.8,1.8,0,0,1-.19.21c-1.63,1.47-3.23,2.88-4.77,4.23C62.53,89.13,55.52,95.3,61.54,104.16A14.06,14.06,0,0,0,71.7,110.1c8.61,1.23,20.17-2.91,29.44-10.56h0l.16-.14.26-.22.32-.27a1.57,1.57,0,0,1,.2-.25c8.53-8.24,13.78-19.15,13.37-27.81-.21-4.43-1.85-7.91-4.88-10.34C102.43,54,95.84,59.33,82.9,71.06ZM103,101.77h0Z" style="fill:#231815"/><path d="M75.51,96c4.74-.9,10.65-5.13,13.2-6.91,5.42-3.81,10.4-8.6,12.47-15.06,1.73-5.37-2.19-6.12-2.19-6.12-4.11-.79-8.53,1.53-12.9.53-6.79-1.56-3.72-10.34-7-15.09a13.72,13.72,0,0,0-18-4.45c-8.77,4.75-8.35,19.75.56,24.09,3.47,1.7,9.11.58,10.51,5,1.06,3.33-1.49,9.85-2.39,13.19a3.54,3.54,0,0,0,1,4.08A5.7,5.7,0,0,0,75.51,96Z" style="fill:#fff"/><path d="M73.81,97.67A6.17,6.17,0,0,1,70,96.46a5,5,0,0,1-1.54-5.7c.18-.68.43-1.47.69-2.33,1-3.08,2.4-7.74,1.7-10-.64-2-2.45-2.41-5.37-2.93A16.41,16.41,0,0,1,61,74.34C56.4,72.07,53.43,67,53.31,61.1s2.6-11,7.11-13.45a15.24,15.24,0,0,1,19.9,4.9c1.46,2.14,1.8,4.78,2.12,7.34.52,4.11,1,6.46,4,7.15a16.15,16.15,0,0,0,6.24-.24,18.56,18.56,0,0,1,6.61-.3,4.9,4.9,0,0,1,3.09,2.25c.89,1.5,1,3.44.21,5.75-1.85,5.79-6.11,11-13,15.82l-.28.19c-2.79,2-8.6,6-13.49,7A10.7,10.7,0,0,1,73.81,97.67ZM67.64,48.73a12.09,12.09,0,0,0-5.82,1.49c-3.55,1.92-5.69,6.06-5.59,10.82s2.44,8.89,6.1,10.67a14.25,14.25,0,0,0,3.61,1c2.87.51,6.45,1.15,7.64,4.93,1,3.09-.49,7.87-1.68,11.71-.27.86-.51,1.64-.69,2.3l-.06.19a2,2,0,0,0,.59,2.36,4.32,4.32,0,0,0,3.49.44h0C79.5,93.78,85,90,87.59,88.12l.28-.2c6.46-4.54,10.24-9.08,11.92-14.31a4.36,4.36,0,0,0,.07-3.34,2,2,0,0,0-1.17-.9,16.62,16.62,0,0,0-5.55.31,18.4,18.4,0,0,1-7.37.21C80.61,68.71,80,64,79.54,60.26c-.28-2.21-.57-4.5-1.64-6A12.41,12.41,0,0,0,67.64,48.73Z" style="fill:#231815"/><path d="M71.45,110.08c-9.27,0-13.41-5.63-14.35-9.26a1.45,1.45,0,0,1,1-1.79,1.47,1.47,0,0,1,1.78,1c.11.42,2.91,10,18,6.2C94,102.19,108,82.89,108.12,82.69l.08-.1a21.81,21.81,0,0,0,3-22,1.47,1.47,0,0,1,2.7-1.14c5.74,13.58-2.65,24.06-3.43,25-1,1.35-15,20.38-31.82,24.66A29.27,29.27,0,0,1,71.45,110.08Z" style="fill:#231815"/></svg>