<svg id="圖層_1" data-name="圖層 1" xmlns="http://www.w3.org/2000/svg" viewBox="0 0 150 150"><title>ms-23</title><path d="M11.31,96.21a1.91,1.91,0,0,0-.57,1.36A2,2,0,0,0,11.31,99a2,2,0,0,0,1.37.56A2,2,0,0,0,14.06,99a2,2,0,0,0,.56-1.38,1.94,1.94,0,0,0-3.31-1.36Z" style="fill:#231815"/><path d="M24.8,74.78H21.89V71.87a1.94,1.94,0,0,0-3.88,0v2.91H15.1a1.94,1.94,0,0,0,0,3.88H18v2.91a1.94,1.94,0,1,0,3.88,0V78.66H24.8a1.94,1.94,0,0,0,0-3.88Z" style="fill:#231815"/><ellipse cx="38.56" cy="95.33" rx="5.17" ry="4.94" style="fill:#ffb71b"/><path d="M38.56,101.73a6.4,6.4,0,1,1,6.64-6.4A6.53,6.53,0,0,1,38.56,101.73Zm0-9.88a3.48,3.48,0,1,0,3.71,3.48A3.6,3.6,0,0,0,38.56,91.85Z" style="fill:#231815"/><polygon points="110.93 94.79 110.93 42.39 99.32 42.39 62.64 42.39 62.64 94.79 110.93 94.79" style="fill:#ffb71b"/><path d="M108.8,107.61V97.4H61.27a5,5,0,0,0-5,5v.13a5,5,0,0,0,5,5Z" style="fill:#fff"/><path d="M60,94.89V42.55a5,5,0,0,0-3.8,4.88V96.69A7.69,7.69,0,0,1,60,94.89Z" style="fill:#ffb71b"/><path d="M113.54,41.09v55a1.31,1.31,0,0,1-1.31,1.31h-.82v10.21h.9a1.31,1.31,0,0,1,0,2.61h-51a7.66,7.66,0,0,1-7.65-7.65V47.43a7.66,7.66,0,0,1,7.65-7.65h51A1.31,1.31,0,0,1,113.54,41.09Zm-2.61,53.7V42.39H62.64v52.4Zm-2.13,12.82V97.4H61.27a5,5,0,0,0-5,5v.13a5,5,0,0,0,5,5ZM60,94.89V42.55a5,5,0,0,0-3.8,4.88V96.69A7.69,7.69,0,0,1,60,94.89Z" style="fill:#231815"/><path d="M97.59,59.54a9,9,0,0,1,1.51,7.6c-1.4,5.69-7.4,10.21-10.85,12.4a3.93,3.93,0,0,1-2.11.61A4,4,0,0,1,84,79.54c-3.4-2.16-9.33-6.65-10.83-12.38a8.61,8.61,0,0,1,1.43-7.5,7.62,7.62,0,0,1,6-3,9.87,9.87,0,0,1,5.48,1.83,10.22,10.22,0,0,1,5.55-1.84A7.34,7.34,0,0,1,97.59,59.54Zm-1,7a6.3,6.3,0,0,0-1-5.36,4.77,4.77,0,0,0-3.83-1.88,8.07,8.07,0,0,0-4.77,1.88l-.81.61-.79-.62a7.7,7.7,0,0,0-4.66-1.86,4.94,4.94,0,0,0-4,2,6,6,0,0,0-1,5.23C77,71.55,83,75.76,85.42,77.33a1.34,1.34,0,0,0,1.43,0C89.36,75.74,95.33,71.49,96.56,66.51Z" style="fill:#231815"/><path d="M95.53,61.15a6.3,6.3,0,0,1,1,5.36c-1.23,5-7.2,9.23-9.71,10.83a1.34,1.34,0,0,1-1.43,0C83,75.76,77,71.55,75.71,66.49a6,6,0,0,1,1-5.23,4.94,4.94,0,0,1,4-2,7.7,7.7,0,0,1,4.66,1.86l.79.62.81-.61a8.07,8.07,0,0,1,4.77-1.88A4.77,4.77,0,0,1,95.53,61.15Z" style="fill:#e96bb0"/><path d="M131.3,73.87a1.41,1.41,0,0,0,1.53,1.24l4.93,0a1.28,1.28,0,1,0,0-2.52l-4.93,0A1.41,1.41,0,0,0,131.3,73.87Z" style="fill:#231815"/><path d="M128.72,85.55a1,1,0,0,0-.05.33,1.33,1.33,0,0,0,1.14,1.2l5.6,1.18a1.56,1.56,0,0,0,1.84-.92,1.25,1.25,0,0,0-1.09-1.53l-5.6-1.17A1.57,1.57,0,0,0,128.72,85.55Z" style="fill:#231815"/><path d="M129.76,60.63a1.33,1.33,0,0,0-1.12,1.23.91.91,0,0,0,.06.32,1.57,1.57,0,0,0,1.86.88l5.33-1.24A1.26,1.26,0,0,0,137,60.26a1.55,1.55,0,0,0-1.86-.87Z" style="fill:#231815"/></svg>