<svg id="圖層_1" data-name="圖層 1" xmlns="http://www.w3.org/2000/svg" viewBox="0 0 150 150"><title>ms-21</title><path d="M49,94.65a12.86,12.86,0,0,1,7,1.91,11.78,11.78,0,0,0,12,0,13.89,13.89,0,0,1,14.06,0,11.75,11.75,0,0,0,11.94,0,13.89,13.89,0,0,1,14.06,0,10.9,10.9,0,0,0,4.87,1.6v-13a2.45,2.45,0,0,0-2.44-2.45H39.53a2.45,2.45,0,0,0-2.44,2.45v13A10.9,10.9,0,0,0,42,96.56,12.89,12.89,0,0,1,49,94.65Z" style="fill:#fff"/><path d="M88,72a10.83,10.83,0,0,0-6,1.64,13.87,13.87,0,0,1-14,0,11.7,11.7,0,0,0-11.95,0,12.88,12.88,0,0,1-6.52,1.9v4.9h51v-4.9A12.88,12.88,0,0,1,94,73.66,10.83,10.83,0,0,0,88,72Z" style="fill:#ffb71b"/><path d="M56.17,36.38a1.1,1.1,0,1,1,2.2,0v2.35a4.15,4.15,0,0,0,1.34-3.24c0-1.26-1.3-3.08-2.44-4.33-1.15,1.25-2.45,3.07-2.45,4.33a4.15,4.15,0,0,0,1.35,3.24Z" style="fill:#ffb71b"/><path d="M55,71.73a13.89,13.89,0,0,1,14.06,0,11.7,11.7,0,0,0,12,0,13.89,13.89,0,0,1,14.06,0,10.83,10.83,0,0,0,6,1.64,5.74,5.74,0,0,0,3-.81V63.74a2.45,2.45,0,0,0-2.45-2.45H48.4A2.45,2.45,0,0,0,46,63.74v8.83a5.75,5.75,0,0,0,3,.8A10.77,10.77,0,0,0,55,71.73Z" style="fill:#fff"/><rect x="54.82" y="47.1" width="4.89" height="11.99" style="fill:#d94434"/><rect x="72.55" y="47.1" width="4.89" height="11.99" style="fill:#d94434"/><path d="M101,96.85a10.77,10.77,0,0,0-6,1.64,13.89,13.89,0,0,1-14.06,0,11.7,11.7,0,0,0-12,0,13.89,13.89,0,0,1-14.06,0,10.83,10.83,0,0,0-6-1.64,10.77,10.77,0,0,0-6,1.64,17.8,17.8,0,0,1-2.39,1.14v12.75h68.74v-5.07h-24a1.1,1.1,0,1,1,0-2.2h24V99.63A17.08,17.08,0,0,1,107,98.49,10.83,10.83,0,0,0,101,96.85ZM79.09,107a1.1,1.1,0,0,1-.78.32,1.06,1.06,0,0,1-.78-.32,1.1,1.1,0,1,1,1.56,0Z" style="fill:#ffb71b"/><path d="M73.9,36.38a1.1,1.1,0,1,1,2.2,0v2.35a4.15,4.15,0,0,0,1.35-3.24c0-1.36-1.43-3.21-2.45-4.33-1.15,1.25-2.45,3.07-2.45,4.33a4.15,4.15,0,0,0,1.35,3.24Z" style="fill:#ffb71b"/><path d="M91.63,36.38a1.1,1.1,0,1,1,2.2,0v2.35a4.15,4.15,0,0,0,1.35-3.24c0-1.36-1.42-3.21-2.45-4.33-1.15,1.25-2.44,3.07-2.44,4.33a4.15,4.15,0,0,0,1.34,3.24Z" style="fill:#ffb71b"/><rect x="90.29" y="47.1" width="4.89" height="11.99" style="fill:#d94434"/><path d="M77.53,105.43a1.09,1.09,0,0,0,0,1.56,1.06,1.06,0,0,0,.78.32,1.1,1.1,0,0,0,.78-.32,1.1,1.1,0,0,0-1.56-1.56Z" style="fill:#323232"/><path d="M40.9,119.3a1.1,1.1,0,0,0,0,2.2h66.68a1.1,1.1,0,1,0,0-2.2Z" style="fill:#231815"/><path d="M120.4,114.58a1.1,1.1,0,0,0,0-2.2h-8.83V100.21a14.78,14.78,0,0,0,2.45.19,1.11,1.11,0,0,0,1.1-1.1V85.11a4.66,4.66,0,0,0-4.65-4.65H102.7v-5a7.65,7.65,0,0,0,2.67-1.07,1.1,1.1,0,0,0,.88-1.08V63.74a4.66,4.66,0,0,0-4.65-4.65H97.38V46a1.1,1.1,0,0,0-1.1-1.1H93.83V41.17c2-.63,3.55-2.93,3.55-5.68,0-3-3.5-6.33-3.9-6.7a1.1,1.1,0,0,0-1.49,0c-.4.37-3.9,3.68-3.9,6.7,0,2.75,1.51,5,3.54,5.68V44.9H89.19a1.1,1.1,0,0,0-1.1,1.1V59.09H79.65V46a1.1,1.1,0,0,0-1.1-1.1H76.1V41.17c2-.63,3.55-2.93,3.55-5.68,0-3-3.51-6.33-3.9-6.7a1.11,1.11,0,0,0-1.5,0c-.4.37-3.9,3.68-3.9,6.7,0,2.75,1.52,5,3.55,5.68V44.9H71.45a1.1,1.1,0,0,0-1.1,1.1V59.09H61.91V46a1.1,1.1,0,0,0-1.1-1.1H58.37V41.17c2-.63,3.54-2.93,3.54-5.68,0-3-3.5-6.33-3.9-6.7a1.1,1.1,0,0,0-1.49,0c-.4.37-3.9,3.68-3.9,6.7,0,2.75,1.51,5,3.55,5.68V44.9H53.72a1.1,1.1,0,0,0-1.1,1.1V59.09H48.4a4.66,4.66,0,0,0-4.65,4.65v9.43a.68.68,0,0,0,0,.14v0a.83.83,0,0,0,0,.15s0,0,0,.06l.06.13,0,.06.09.11.05.06a.52.52,0,0,0,.11.1l0,0s0,0,0,0h0a7.81,7.81,0,0,0,3,1.32v5H39.53a4.66,4.66,0,0,0-4.65,4.65V99.3a1.11,1.11,0,0,0,1.1,1.1,14.78,14.78,0,0,0,2.45-.19v12.17H29.6a1.1,1.1,0,1,0,0,2.2Zm-11-9.47h-24a1.1,1.1,0,1,0,0,2.2h24v5.07H40.63V99.63A17.8,17.8,0,0,0,43,98.49a10.77,10.77,0,0,1,6-1.64,10.83,10.83,0,0,1,6,1.64,13.89,13.89,0,0,0,14.06,0,11.7,11.7,0,0,1,12,0,13.89,13.89,0,0,0,14.06,0,11.7,11.7,0,0,1,11.95,0,17.08,17.08,0,0,0,2.38,1.14ZM90.29,35.49c0-1.26,1.29-3.08,2.44-4.33,1,1.12,2.45,3,2.45,4.33a4.15,4.15,0,0,1-1.35,3.24V36.38a1.1,1.1,0,1,0-2.2,0v2.35A4.15,4.15,0,0,1,90.29,35.49Zm0,11.61h4.89v12H90.29ZM72.55,35.49c0-1.26,1.3-3.08,2.45-4.33,1,1.12,2.45,3,2.45,4.33a4.15,4.15,0,0,1-1.35,3.24V36.38a1.1,1.1,0,1,0-2.2,0v2.35A4.15,4.15,0,0,1,72.55,35.49Zm0,11.61h4.9v12h-4.9ZM54.82,35.49c0-1.26,1.3-3.08,2.45-4.33,1.14,1.25,2.44,3.07,2.44,4.33a4.15,4.15,0,0,1-1.34,3.24V36.38a1.1,1.1,0,1,0-2.2,0v2.35A4.15,4.15,0,0,1,54.82,35.49Zm0,11.61h4.89v12H54.82ZM46,72.57V63.74a2.45,2.45,0,0,1,2.45-2.45h53.2a2.45,2.45,0,0,1,2.45,2.45v8.82a5.74,5.74,0,0,1-3,.81,10.83,10.83,0,0,1-6-1.64,13.89,13.89,0,0,0-14.06,0,11.7,11.7,0,0,1-12,0,13.89,13.89,0,0,0-14.06,0,10.77,10.77,0,0,1-6,1.64A5.75,5.75,0,0,1,46,72.57Zm54.55,3v4.9h-51v-4.9A12.88,12.88,0,0,0,56,73.66a11.7,11.7,0,0,1,11.95,0,13.87,13.87,0,0,0,14,0,11.72,11.72,0,0,1,12,0A12.88,12.88,0,0,0,100.5,75.56ZM37.09,98.16v-13a2.45,2.45,0,0,1,2.44-2.45h70.94a2.45,2.45,0,0,1,2.44,2.45v13a10.9,10.9,0,0,1-4.87-1.6,13.89,13.89,0,0,0-14.06,0,11.75,11.75,0,0,1-11.94,0,13.89,13.89,0,0,0-14.06,0,11.78,11.78,0,0,1-12,0,12.86,12.86,0,0,0-7-1.91,12.89,12.89,0,0,0-7,1.91A10.9,10.9,0,0,1,37.09,98.16Z" style="fill:#231815"/><path d="M44.56,41.46a1.1,1.1,0,0,0-1.1-1.1H39.91a1.1,1.1,0,1,0,0,2.2h3.55A1.1,1.1,0,0,0,44.56,41.46Z" style="fill:#231815"/><path d="M45.14,29.8l-3.43-.92a1.09,1.09,0,0,0-1.34.78A1.1,1.1,0,0,0,41.14,31l3.43.91a.9.9,0,0,0,.28,0,1.1,1.1,0,0,0,.29-2.16Z" style="fill:#231815"/><path d="M41.43,54.08a1.33,1.33,0,0,0,.28,0l3.43-.92A1.1,1.1,0,1,0,44.57,51l-3.43.92a1.1,1.1,0,0,0-.77,1.35A1.09,1.09,0,0,0,41.43,54.08Z" style="fill:#231815"/><path d="M111.19,41.46a1.1,1.1,0,0,0-1.1-1.1h-3.55a1.1,1.1,0,0,0,0,2.2h3.55A1.1,1.1,0,0,0,111.19,41.46Z" style="fill:#231815"/><path d="M104.86,53.13l3.43.92a1.33,1.33,0,0,0,.28,0,1.1,1.1,0,0,0,.29-2.16L105.43,51a1.1,1.1,0,0,0-1.35.78A1.12,1.12,0,0,0,104.86,53.13Z" style="fill:#231815"/><path d="M105.15,32a.9.9,0,0,0,.28,0l3.43-.91a1.12,1.12,0,0,0,.78-1.35,1.1,1.1,0,0,0-1.35-.78l-3.43.92a1.1,1.1,0,0,0,.29,2.16Z" style="fill:#231815"/></svg>