<svg id="圖層_1" data-name="圖層 1" xmlns="http://www.w3.org/2000/svg" viewBox="0 0 150 150"><title>ms-26</title><path d="M121.8,26.58h2.91v2.91a1.94,1.94,0,1,0,3.88,0V26.58h2.91a1.94,1.94,0,0,0,0-3.88h-2.91V19.8a1.94,1.94,0,1,0-3.88,0v2.9H121.8a1.94,1.94,0,0,0,0,3.88Z" style="fill:#231815"/><path d="M146.59,40.08a5.18,5.18,0,1,1-5.17-4.94A5.06,5.06,0,0,1,146.59,40.08Z" style="fill:#e96bb0"/><path d="M141.42,46.48a6.4,6.4,0,1,1,6.63-6.4A6.53,6.53,0,0,1,141.42,46.48Zm0-9.87a3.48,3.48,0,1,0,3.71,3.47A3.6,3.6,0,0,0,141.42,36.61Z" style="fill:#231815"/><path d="M2.52,126.63A1.89,1.89,0,0,0,2,128a2,2,0,0,0,.57,1.38,1.94,1.94,0,0,0,1.36.56A1.91,1.91,0,0,0,5.82,128a1.92,1.92,0,0,0-.56-1.36A2,2,0,0,0,2.52,126.63Z" style="fill:#231815"/><path d="M16,105.2H13.1v-2.91a1.94,1.94,0,1,0-3.88,0v2.91H6.31a1.94,1.94,0,0,0,0,3.88H9.22V112a1.94,1.94,0,1,0,3.88,0v-2.91H16a1.94,1.94,0,1,0,0-3.88Z" style="fill:#231815"/><path d="M34.94,125.74a5.18,5.18,0,1,1-5.17-4.93A5.06,5.06,0,0,1,34.94,125.74Z" style="fill:#ffb71b"/><path d="M29.77,132.14a6.4,6.4,0,1,1,6.63-6.4A6.53,6.53,0,0,1,29.77,132.14Zm0-9.87a3.48,3.48,0,1,0,3.71,3.47A3.6,3.6,0,0,0,29.77,122.27Z" style="fill:#231815"/><path d="M121,51.47c-.27,1.29-1.1,3.94-3.31,4.74a18.58,18.58,0,0,1-6.81.6L107.58,66c8.15-.75,15.73-6.49,16-10.47C123.71,52.28,122.53,50.66,121,51.47Z" style="fill:#ef90b9"/><path d="M107.58,67.47a1.47,1.47,0,0,1-1.38-2l3.26-9.2a1.44,1.44,0,0,1,1.49-1,17.5,17.5,0,0,0,6.2-.52c1.56-.56,2.18-2.75,2.37-3.66a1.46,1.46,0,0,1,.76-1,2.85,2.85,0,0,1,2.92.07c1.3.84,1.94,2.75,1.79,5.38-.28,5.12-9,11.09-17.28,11.84Zm4.27-9.14-2.08,5.86c6.69-1.42,12.15-6,12.3-8.73a6.74,6.74,0,0,0-.15-2.07,6.62,6.62,0,0,1-3.78,4.19A17.83,17.83,0,0,1,111.85,58.33Z" style="fill:#231815"/><path d="M117.64,56.21c2.21-.8,3-3.45,3.31-4.74-.34.18-1.17-.29-1.72-.26a54.52,54.52,0,0,1-8.32-.93l-.08,6.53A18.58,18.58,0,0,0,117.64,56.21Z" style="fill:#ef90b9"/><path d="M112.78,58.35c-.79,0-1.5,0-2.06-.08a1.47,1.47,0,0,1-1.35-1.48l.08-6.53a1.49,1.49,0,0,1,.53-1.11,1.52,1.52,0,0,1,1.2-.31,49.14,49.14,0,0,0,8,.9,4.13,4.13,0,0,1,1.34.22l.22.07a1.46,1.46,0,0,1,1.67,1.75c-.37,1.73-1.41,4.78-4.24,5.8A16.41,16.41,0,0,1,112.78,58.35Zm-.47-2.94a14.92,14.92,0,0,0,4.84-.58h0a3.65,3.65,0,0,0,1.91-2.16,43.41,43.41,0,0,1-6.7-.66Z" style="fill:#231815"/><path d="M106.1,68.34a19.24,19.24,0,1,0-26,.57,2.89,2.89,0,0,1-.42,4.59C56.55,89.32,33.15,66,33.15,66S30.26,83.1,35.56,98.12c4.11,11.67,13.17,22.09,32.37,22.27,31,.3,44.07-15,43.94-29.58a24.27,24.27,0,0,0-.51-4.82C109.27,76.14,97.34,75.81,106.1,68.34Z" style="fill:#ffb71b"/><path d="M68.81,121.86h-.89c-16.77-.16-28.43-8.2-33.74-23.25-5.36-15.2-2.59-32.13-2.47-32.85A1.47,1.47,0,0,1,34.18,65a52,52,0,0,0,14.24,9.41c11.08,4.85,21.34,4.15,30.48-2.09a1.63,1.63,0,0,0,.73-1.23,1.26,1.26,0,0,0-.45-1,20.71,20.71,0,1,1,27.93-.62l-.06.06c-1.71,1.46-2.63,2.69-2.66,3.56s1.15,2.11,2.52,3.43c2.08,2,4.92,4.74,5.88,9.24a26,26,0,0,1-7.5,24.15C99.77,115.34,89,121.86,68.81,121.86ZM34.26,68.93c-.55,5.33-1.21,17.68,2.68,28.71,4.93,14,15.36,21.14,31,21.29h.87c19.17,0,29.29-6.06,34.41-11.18a23.63,23.63,0,0,0,7.19-16.94,22.69,22.69,0,0,0-.49-4.53c-.76-3.62-3-5.81-5-7.75-1.79-1.72-3.48-3.35-3.41-5.62,0-1.81,1.18-3.55,3.65-5.67a17.77,17.77,0,1,0-24,.56,4.2,4.2,0,0,1,1.44,3.43,4.51,4.51,0,0,1-2,3.47C60.77,88.21,40.71,74.27,34.26,68.93Zm71.84-.6h0Z" style="fill:#231815"/><path d="M87.81,87.13a9.09,9.09,0,0,0-9.62-4.07C71.34,84.17,61.72,90.46,56,89c0,0,.18,13.32,14.06,12.58S90.58,94,87.81,87.13Z" style="fill:#ef90b9"/><path d="M69,103.06a14,14,0,0,1-9.89-3.52C54.67,95.43,54.53,89.26,54.53,89a1.49,1.49,0,0,1,.55-1.17,1.46,1.46,0,0,1,1.27-.26c3,.78,7.72-1.1,12.28-2.92a48.19,48.19,0,0,1,9.32-3c7.78-1.26,11,4.57,11.15,4.82l.06.14a9.14,9.14,0,0,1-.75,8.55c-2.9,4.55-9.56,7.43-18.28,7.89C69.73,103,69.33,103.06,69,103.06Zm-11.3-12.4a12.27,12.27,0,0,0,3.43,6.76c2.13,2,5.13,2.88,8.89,2.68,7.66-.41,13.62-2.85,16-6.54a6.2,6.2,0,0,0,.55-5.79,7.64,7.64,0,0,0-8.07-3.26,46.59,46.59,0,0,0-8.71,2.86C65.54,89,61.22,90.76,57.65,90.66Z" style="fill:#231815"/><path d="M103.44,52.66a4.43,4.43,0,1,1-4.66-4A4.36,4.36,0,0,1,103.44,52.66Z" style="fill:#231815"/></svg>