<svg id="圖層_1" data-name="圖層 1" xmlns="http://www.w3.org/2000/svg" viewBox="0 0 150 36.12"><title>mamishow</title><path d="M135.41,6.25a3.15,3.15,0,0,0,3.17-3.12,3.17,3.17,0,0,0-6.34,0A3.14,3.14,0,0,0,135.41,6.25Z" style="fill:#e96bb0"/><path d="M148.52,24.52H136.86a.29.29,0,0,1-.28-.29V22.86a.28.28,0,0,1,.28-.28h9.31a1.31,1.31,0,0,0,1.3-1.31v-.2a1.3,1.3,0,0,0-1.3-1.3h-9.1a.28.28,0,0,1-.28-.29v-.91a.29.29,0,0,1,.29-.28H146a1.33,1.33,0,0,0,1.33-1,1.32,1.32,0,0,0-1.28-1.57h-9a.27.27,0,0,1-.28-.28v-.9a.28.28,0,0,1,.28-.28h9a1.31,1.31,0,0,0,1.31-1.3v-.05a1.31,1.31,0,0,0-1.31-1.31h-9a.28.28,0,0,1-.28-.28v-1a.27.27,0,0,1,.28-.28h9.08a1.31,1.31,0,0,0,1.3-1.31V8.5a1.3,1.3,0,0,0-1.3-1.3H125.66V7.08l2.6-2.42a1.5,1.5,0,0,0,.29-1.86,1.46,1.46,0,0,0-2.23-.31L118.26,10a1.53,1.53,0,0,0-.32,1.87,1.46,1.46,0,0,0,2.26.33l2.73-2.54V21.74a.87.87,0,0,0,.88.87l1.09,0h8.62a.29.29,0,0,1,.29.28v1.37a.29.29,0,0,1-.29.29H121.13a1.46,1.46,0,0,0-1.48,1.32,1.4,1.4,0,0,0,1.4,1.48H129a.14.14,0,0,1,.07.26l-6.92,4.64a1.39,1.39,0,0,0-.55,1.66,1.36,1.36,0,0,0,2,.63L133.37,28a.28.28,0,0,1,.44.24l0,6.34a1.44,1.44,0,0,0,1.31,1.46,1.38,1.38,0,0,0,1.46-1.38l0-7.07a.29.29,0,0,1,.28-.29h2.83s0,.08,0,.13c.09,2.14.45,5.23,3.12,7.08a6.83,6.83,0,0,0,3.67,1.23h0a1.61,1.61,0,0,0,.31,0,1.41,1.41,0,0,0,1.36-1.46,1.37,1.37,0,0,0-1-1.22L147,33h-.15a4.3,4.3,0,0,1-2.55-.86c-1.81-1.36-1.87-3.34-1.91-4.82v0h6.37a1.4,1.4,0,0,0,1.27-1.5A1.46,1.46,0,0,0,148.52,24.52Zm-14.5-5a.3.3,0,0,1-.29.28H126a.38.38,0,0,1-.38-.38v-.72a.38.38,0,0,1,.38-.38h7.71a.29.29,0,0,1,.28.29Zm0-4.09a.29.29,0,0,1-.28.29l-7.71,0a.38.38,0,0,1-.38-.37v-.75a.38.38,0,0,1,.38-.38h7.71a.28.28,0,0,1,.28.28Zm0-4.12a.28.28,0,0,1-.28.28H126a.38.38,0,0,1-.38-.37v-.8A.38.38,0,0,1,126,10h7.71a.27.27,0,0,1,.28.28Z" style="fill:#e96bb0"/><path d="M96.48,6.25a3.15,3.15,0,0,0,3.17-3.12,3.17,3.17,0,0,0-6.34,0A3.15,3.15,0,0,0,96.48,6.25Z" style="fill:#e96bb0"/><path d="M110.34,8.52H81.89a1.52,1.52,0,0,0-1.54,1.39,1.46,1.46,0,0,0,1.46,1.54H94.17a.68.68,0,0,1,.68.68v4a.67.67,0,0,1-.68.68H85.62l-.21,0a1.5,1.5,0,0,0-.37.05,1.43,1.43,0,0,0-1,.69,1.6,1.6,0,0,0-.24.83v11a1.58,1.58,0,1,0,3.15,0V19.79h7.18a.68.68,0,0,1,.68.68V34.58A1.51,1.51,0,0,0,96,36.09a1.48,1.48,0,0,0,1.77-1.45V20.47a.69.69,0,0,1,.68-.68h6.93a.74.74,0,0,1,.74.74v5.78c0,.49,0,1,0,1.47a1.86,1.86,0,0,1-1.08,1.76,1.63,1.63,0,0,1-1.13-.1.14.14,0,0,0-.19.17,3.09,3.09,0,0,0,1.18,1.5,2.89,2.89,0,0,0,3.78-1,8.4,8.4,0,0,0,.51-3.95V18.32h0v-.77a.73.73,0,0,0-.73-.73h-10a.68.68,0,0,1-.68-.68v-4a.69.69,0,0,1,.68-.68h11.8a1.49,1.49,0,0,0,1.49-1.17A1.47,1.47,0,0,0,110.34,8.52Z" style="fill:#e96bb0"/><path d="M16,25a2.83,2.83,0,1,0,2.87,2.83A2.84,2.84,0,0,0,16,25Z" style="fill:#e96bb0"/><path d="M21.87,25.38h0a1.22,1.22,0,0,0-1.17.88l-.84,2.89A1.23,1.23,0,0,0,21,30.71h0a1.23,1.23,0,0,0,1.18-.88L23,26.94A1.22,1.22,0,0,0,21.87,25.38Z" style="fill:#e96bb0"/><path d="M25.72,25.38h0a1.22,1.22,0,0,0-1.17.88l-.84,2.89a1.23,1.23,0,0,0,1.17,1.56h0a1.22,1.22,0,0,0,1.17-.88l.84-2.89A1.22,1.22,0,0,0,25.72,25.38Z" style="fill:#e96bb0"/><path d="M29.64,25.38a1.22,1.22,0,0,0-1.17.88l-.84,2.89a1.23,1.23,0,0,0,1.17,1.56h0A1.24,1.24,0,0,0,30,29.83l.83-2.89A1.22,1.22,0,0,0,29.64,25.38Z" style="fill:#e96bb0"/><path d="M35.22,26.46l-.06-4.36h0V20.94a.37.37,0,0,0-.37-.37h-7a.26.26,0,0,1-.25-.26V17.72a.25.25,0,0,1,.25-.25H31.9a1.33,1.33,0,0,0,0-2.65H27.77a.25.25,0,0,1-.25-.25V12.09a.26.26,0,0,1,.25-.26h3.95a1.32,1.32,0,0,0,0-2.64H27.77a.26.26,0,0,1-.25-.26V6.44a.25.25,0,0,1,.25-.25h5.56a1.31,1.31,0,1,0,0-2.61H16.6a.6.6,0,0,0-.6.6V22.7a.6.6,0,0,0,.6.6H32a.38.38,0,0,1,.37.37c0,1.17.07,4.46.1,4.93.08,1.11.1,2.56-1.21,2.93l-.67.18a.35.35,0,0,0-.16.58c.92.9,2.25,1.63,3.34,1.2s1.5-2.27,1.48-3.44S35.23,27.66,35.22,26.46ZM24.61,20.31a.26.26,0,0,1-.26.26H19.3a.35.35,0,0,1-.34-.35V17.83a.34.34,0,0,1,.34-.34l5.05,0a.26.26,0,0,1,.26.25Zm0-5.74a.25.25,0,0,1-.25.25l-5.06,0A.34.34,0,0,1,19,14.5V12.19a.34.34,0,0,1,.34-.34l5.05,0a.26.26,0,0,1,.26.26Zm0-5.63a.26.26,0,0,1-.25.25H19.3A.34.34,0,0,1,19,8.86V6.53a.34.34,0,0,1,.34-.34h5.06a.25.25,0,0,1,.25.25Z" style="fill:#e96bb0"/><path d="M8.7,25.57a.46.46,0,0,1,0-.41l4.84-13.51h0V9.88A.87.87,0,0,0,12.65,9H8.08a.38.38,0,0,1-.34-.52L9,5.29A1.45,1.45,0,0,0,6.36,4.16L4.45,8.78A.37.37,0,0,1,4.11,9H1.32a1.32,1.32,0,0,0,0,2.64H2.84a.25.25,0,0,1,.23.34L.81,18.88l0,0-.08.17a.94.94,0,0,0,.11,1l3.91,5a.45.45,0,0,1,0,.52l-2.7,4.2A1.46,1.46,0,0,0,4.5,31.4l2.17-3.28a.21.21,0,0,1,.35,0l2.23,3.42A1.43,1.43,0,1,0,11.64,30ZM6.62,22.3a.18.18,0,0,1-.31,0L4.16,19.11a.67.67,0,0,1-.06-.63l2.21-6.67a.25.25,0,0,1,.23-.16h3.54a.25.25,0,0,1,.23.34Z" style="fill:#e96bb0"/><path d="M68,11.85a1.37,1.37,0,0,0,1.88-.47l3.24-5.17a1.37,1.37,0,0,0-.55-1.94l-.08,0a1.38,1.38,0,0,0-1.81.53L67.55,10A1.37,1.37,0,0,0,68,11.85Z" style="fill:#e96bb0"/><path d="M74.26,29.21l-.16,0H74a4.43,4.43,0,0,1-2.54-.9c-1.79-1.38-1.82-3.37-1.85-4.85a1.34,1.34,0,1,0-2.68.06c.06,2.15.38,5.24,3,7.12a6.91,6.91,0,0,0,3.65,1.28h0a1.06,1.06,0,0,0,.31,0,1.4,1.4,0,0,0,1.37-1.44A1.36,1.36,0,0,0,74.26,29.21Z" style="fill:#e96bb0"/><path d="M55.87,11.24a1.37,1.37,0,0,0,2.25-1.58L54.7,4.59a1.36,1.36,0,0,0-2-.28l-.07.05a1.39,1.39,0,0,0-.25,1.87Z" style="fill:#e96bb0"/><path d="M59,22l-.07,0a1.38,1.38,0,0,0-1.79.49L52.34,30a1.38,1.38,0,0,0,2.32,1.5L59.5,24A1.39,1.39,0,0,0,59,22Z" style="fill:#e96bb0"/><path d="M73.94,17.36v0a1.38,1.38,0,0,0-1.38-1.38H64.83a.48.48,0,0,1-.48-.48V3A1.38,1.38,0,0,0,63,1.58h-.12A1.38,1.38,0,0,0,61.47,3v12.5a.48.48,0,0,1-.48.48H53.86a1.38,1.38,0,0,0-1.39,1.38v0a1.38,1.38,0,0,0,1.39,1.38H61a.48.48,0,0,1,.48.48V33.16a1.38,1.38,0,0,0,1.38,1.38H63a1.38,1.38,0,0,0,1.38-1.38V19.22a.48.48,0,0,1,.48-.48h7.73A1.38,1.38,0,0,0,73.94,17.36Z" style="fill:#e96bb0"/><path d="M50.18,9.15a5.38,5.38,0,0,0-4-1.41c-6,.09-6,5.73-6,9.86,0,2.92,0,9.75,6,9.86h.06c6-.18,6-5.78,6-9.86C52.17,14.05,52,11,50.18,9.15ZM46.15,25c-2.17,0-3.52-1.31-3.52-7.37,0-5.41.54-7.33,3.55-7.38h.1a2.93,2.93,0,0,1,2.15.7c1.16,1.14,1.25,3.81,1.25,6.68C49.68,23,49.17,24.87,46.15,25Z" style="fill:#e96bb0"/></svg>