<svg id="圖層_1" data-name="圖層 1" xmlns="http://www.w3.org/2000/svg" xmlns:xlink="http://www.w3.org/1999/xlink" viewBox="0 0 150 150"><defs><clipPath id="clip-path"><rect x="21.72" y="20.17" width="106.57" height="109.66" style="fill:none"/></clipPath></defs><title>ms-01</title><path d="M112.29,66.08c-3,3.48-7.06,5.24-10.06,8.78-3.47,4.1-7.78,7.76-11.41,11.57C87.5,89.91,85.2,94.3,81.5,97.38c-3.38,2.83-7.18,5.28-10.79,7.9-5,3.62-9.47,3.88-15.37,4.82a5.8,5.8,0,0,0-4.15,2.12A29.55,29.55,0,0,1,46.06,117c-3.66,2.67-6.32,6-10.48,8.1-3,1.51-8.14,3.42-10.77.25-2.33-2.82-1.44-9,.64-11.73,1.82-2.37,4.51-4.16,6.44-6.59s4-4.94,6.22-7.27c3.2-3.42,2.49-7.89,3.75-12.23a50.07,50.07,0,0,1,2.07-6.71c1.68-3.73,4.61-5.54,7.49-8.22,2.56-2.37,4.27-5.41,7.3-7.3a55.09,55.09,0,0,0,8.21-6.7c5-4.65,9.33-10.12,13.81-15.28s11.45-11.34,18.42-12.5c3.67-.6,8.08-1.62,11.84-1.05,5.36.82,8,5.11,10.25,9.53,2.1,4.06,2.79,9.9.23,13.92A113.42,113.42,0,0,1,112.29,66.08Z" style="fill:#fff"/><path d="M39.36,101.17c-.37,2.4-2.85,1.21-1.4,4.11a12.85,12.85,0,0,0,4,4.46,48.81,48.81,0,0,0,4.88,3c2.45,1.32,2.91.6,4.08-1.82a23.93,23.93,0,0,1-6.22-5.19c-1.21-1.43-3.42-5.58-5.59-5.4" style="fill:#ff76a4"/><path d="M93.56,54.45c7.7-.49,3.52,14.24,2,17.39a32.79,32.79,0,0,1-13,14c-6.33,3.84-16.16,6.81-20.4-1.25-3.62-6.87,1-16.18,5.87-21.39,3.66-3.91,8.3-5.54,13.07-7.89,2.7-1.32,12.78-4.42,14.74-.67" style="fill:#d8effc"/><g style="clip-path:url(#clip-path)"><path d="M121.28,42.09a4.91,4.91,0,0,0-.53-.4,9.41,9.41,0,0,0-1.17-1.62A4.29,4.29,0,0,0,117.85,35c-3.91-2.93-8.52-7.45-13.79-7a4.17,4.17,0,0,0-3.55,6.18c1.78,3.44,5.06,6,7.82,8.61A60.74,60.74,0,0,0,115.58,49a3.15,3.15,0,0,0,.93.62l0,0a4.11,4.11,0,0,0,5.55-1.46,4.74,4.74,0,0,0-.83-6.11" style="fill:#ff76a4"/></g><g style="clip-path:url(#clip-path)"><path d="M30.92,26.74h2.79v2.8a1.26,1.26,0,0,0,2.52,0v-2.8H39a1.26,1.26,0,0,0,0-2.51h-2.8v-2.8a1.26,1.26,0,1,0-2.52,0v2.8H30.92a1.26,1.26,0,1,0,0,2.51" style="fill:#323232"/><path d="M41.07,49.89a1.24,1.24,0,0,0,0,1.77A1.24,1.24,0,0,0,42,52a1.25,1.25,0,0,0,1.25-1.26,1.31,1.31,0,0,0-.36-.89,1.29,1.29,0,0,0-1.78,0" style="fill:#323232"/><path d="M25.35,56.16a1.26,1.26,0,0,0-.37.89,1.3,1.3,0,0,0,.37.89,1.27,1.27,0,0,0,.89.36,1.25,1.25,0,0,0,1.26-1.25,1.32,1.32,0,0,0-.37-.9,1.31,1.31,0,0,0-1.78,0" style="fill:#323232"/><path d="M69.12,35.35a2.8,2.8,0,1,0-2.8-2.79,2.8,2.8,0,0,0,2.8,2.79" style="fill:#e26a6a"/><path d="M63.81,32.56a5.31,5.31,0,1,0,5.31-5.31,5.31,5.31,0,0,0-5.31,5.31m5.31-2.8a2.8,2.8,0,1,1-2.8,2.8,2.81,2.81,0,0,1,2.8-2.8" style="fill:#323232"/><path d="M122.5,86.08a2.19,2.19,0,1,0-2.21,3.79l4.7,2.74a2.22,2.22,0,0,0,1.1.3,2.19,2.19,0,0,0,1.11-4.08Z" style="fill:#323232"/><path d="M113.71,106.52a2.21,2.21,0,0,0,1.56.65,2.16,2.16,0,0,0,1.54-.64c.86-.85-3.82-7-3.82-7a2.19,2.19,0,0,0-3.12,3.08Z" style="fill:#323232"/><path d="M97.39,109.31a2.19,2.19,0,0,0-.82,3l2.69,4.7a2.17,2.17,0,0,0,1.9,1.1,2.27,2.27,0,0,0,1.09-.28,2.19,2.19,0,0,0,.81-3l-2.68-4.7a2.2,2.2,0,0,0-3-.82" style="fill:#323232"/><rect x="83.09" y="54.38" width="3.09" height="24.85" transform="translate(-22.4 79.85) rotate(-45.23)" style="fill:#e94f57"/><rect x="73.83" y="63.49" width="3.09" height="24.85" transform="translate(-31.6 75.97) rotate(-45.23)" style="fill:#e94f57"/><path d="M118.94,32.18A18.87,18.87,0,0,0,105.4,26.4c-6.44,0-13.14,3.16-18.87,8.89L46.94,74.88c-7.25,7.24-10.13,15.63-8.43,23L28.52,108c-.27.26-6.7,6.32-6.8,12.59a8.52,8.52,0,0,0,2.6,6.35c7.35,7.38,15.81-1.23,20.93-6.35l8-8a18.63,18.63,0,0,0,4.11.47c6.44,0,13.14-3.15,18.87-8.89l39.59-39.59C126.46,54,127.71,41,118.94,32.18M116.15,35a14.89,14.89,0,0,1,4.06,14.75,53.65,53.65,0,0,1-18.84-18.88,17,17,0,0,1,4-.49A14.82,14.82,0,0,1,116.15,35M40.38,120.06c-1.43,1.52-6,5.48-9.78,5.55a4.37,4.37,0,0,1-3.48-1.45,4.6,4.6,0,0,1-1.45-3.48c.06-3.8,4-8.34,5.6-9.82l5.46-5.62a33.07,33.07,0,0,0,9.15,9.15Zm6.94-7.1a30.82,30.82,0,0,1-9.15-9.15L40,102a20.79,20.79,0,0,0,9.17,9.13ZM113,61.8,73.46,101.39c-5,5-10.69,7.72-16.08,7.72a14.82,14.82,0,0,1-10.75-4.62c-8.19-8.2-4.34-19.38,3.1-26.82l39.59-39.6a29,29,0,0,1,8.24-5.87,57.69,57.69,0,0,0,21.32,21.35A28.48,28.48,0,0,1,113,61.8M89.26,51.45c-6.1,0-13.65,3.75-19.69,9.79a34.49,34.49,0,0,0-9.09,14.81c-1.41,5.25-.65,9.67,2.13,12.46a10.45,10.45,0,0,0,7.6,2.82c6.11,0,13.64-3.75,19.68-9.79A34.42,34.42,0,0,0,99,66.73c1.41-5.25.66-9.67-2.13-12.46a10.51,10.51,0,0,0-7.6-2.82m7.82,14.76a32.46,32.46,0,0,1-8.59,13.94c-5.67,5.68-12.68,9.21-18.28,9.21A8.56,8.56,0,0,1,64,87.12c-2.27-2.27-2.84-6-1.62-10.54A32.42,32.42,0,0,1,71,62.64c5.69-5.69,12.69-9.22,18.29-9.22a8.54,8.54,0,0,1,6.2,2.25c2.27,2.27,2.85,6,1.62,10.54m8.15-20.32a2,2,0,0,1,0,2.79l-2.72,2.73a2,2,0,0,1-2.8,0,2,2,0,0,1,0-2.79l2.73-2.73a2,2,0,0,1,2.79,0" style="fill:#231f20"/><path d="M35.31,119.62a3.47,3.47,0,1,1-3.47-3.47,3.47,3.47,0,0,1,3.47,3.47" style="fill:#231f20"/></g></svg>