<svg id="圖層_1" data-name="圖層 1" xmlns="http://www.w3.org/2000/svg" viewBox="0 0 150 150"><title>ms-02</title><path d="M130.11,78.1a6.39,6.39,0,0,0-7.43-1.83c0-.14,0-.39,0-.53.09-1,.07-2,.07-3.08,0-22.09-20.26-40-45.25-40-24.28,0-44.09,16.92-45.19,38.14-6.1-1.2-12.45,7.35-7.27,13.18a5.84,5.84,0,0,0,6.29,1.76,36.87,36.87,0,0,0,.41,3.85c4.19,32.31,73,32.49,86.5,11.49A31,31,0,0,0,122.34,91C128.23,92.17,135.23,83.73,130.11,78.1Z" style="fill:#fbded7;stroke:#231815;stroke-linecap:round;stroke-linejoin:round;stroke-width:3.6966200000000002px"/><path d="M7.08,122.29a1.9,1.9,0,0,0-.58,1.36A2,2,0,0,0,7.08,125a1.92,1.92,0,0,0,1.36.56,1.91,1.91,0,0,0,1.94-1.94,1.92,1.92,0,0,0-.56-1.36A2,2,0,0,0,7.08,122.29Z" style="fill:#231815"/><path d="M20.57,100.86H17.66V98a1.94,1.94,0,1,0-3.88,0v2.91H10.87a1.94,1.94,0,0,0,0,3.88h2.91v2.91a1.94,1.94,0,0,0,3.88,0v-2.91h2.91a1.94,1.94,0,0,0,0-3.88Z" style="fill:#231815"/><path d="M75.87,39.57c0-5.29.12-11,2.78-15.91" style="fill:none;stroke:#231815;stroke-linecap:round;stroke-linejoin:round;stroke-width:3.6966200000000002px"/><path d="M68.21,40.84C66,36,63.72,30.83,64.06,25.23" style="fill:none;stroke:#231815;stroke-linecap:round;stroke-linejoin:round;stroke-width:3.6966200000000002px"/><path d="M84.82,40.74C86,35.57,87.32,30.05,91,25.81" style="fill:none;stroke:#231815;stroke-linecap:round;stroke-linejoin:round;stroke-width:3.6966200000000002px"/><ellipse cx="34.32" cy="121.4" rx="5.17" ry="4.94" style="fill:#ffb71b;stroke:#231815;stroke-linecap:round;stroke-linejoin:round;stroke-width:2.92612px"/><path d="M143.5,45.4a5.18,5.18,0,1,1-5.18-4.93A5.06,5.06,0,0,1,143.5,45.4Z" style="fill:#e96bb0;stroke:#231815;stroke-linecap:round;stroke-linejoin:round;stroke-width:2.92612px"/><path d="M95.35,89.07c0,9.21-4.72,16.67-17.84,16.67S59.68,98.28,59.68,89.07C60,89.37,95.35,89.37,95.35,89.07Z" style="fill:#f3a9c9;stroke:#231815;stroke-linecap:round;stroke-linejoin:round;stroke-width:2.67994px"/><path d="M42.68,79.57C42.68,76,46.34,73,50.85,73S59,76,59,79.57" style="fill:none;stroke:#231815;stroke-linecap:round;stroke-linejoin:round;stroke-width:3.6966200000000002px"/><path d="M96,79.57C96,76,99.67,73,104.18,73s8.17,2.92,8.17,6.53" style="fill:none;stroke:#231815;stroke-linecap:round;stroke-linejoin:round;stroke-width:3.6966200000000002px"/></svg>