<svg id="圖層_1" data-name="圖層 1" xmlns="http://www.w3.org/2000/svg" viewBox="0 0 150 150"><title>ms-14</title><path d="M123,61a1.89,1.89,0,0,0-.57,1.36,2,2,0,0,0,.57,1.38,2,2,0,0,0,1.37.56,2,2,0,0,0,1.38-.56,2,2,0,0,0,.56-1.38,2,2,0,0,0-.56-1.36A2,2,0,0,0,123,61Z" style="fill:#231815"/><path d="M136.47,39.59h-2.91V36.68a1.94,1.94,0,0,0-3.88,0v2.91h-2.9a1.94,1.94,0,0,0,0,3.88h2.9v2.91a1.94,1.94,0,0,0,3.88,0V43.47h2.91a1.94,1.94,0,0,0,0-3.88Z" style="fill:#231815"/><ellipse cx="143.01" cy="64.1" rx="5.17" ry="4.94" style="fill:#e96bb0"/><path d="M143,70.5a6.4,6.4,0,1,1,6.63-6.4A6.53,6.53,0,0,1,143,70.5Zm0-9.87a3.48,3.48,0,1,0,3.71,3.47A3.6,3.6,0,0,0,143,60.63Z" style="fill:#231815"/><path d="M.93,100a1.93,1.93,0,0,0-.57,1.37,2,2,0,0,0,.57,1.38,2,2,0,0,0,2.74,0,2,2,0,0,0,.57-1.38A2,2,0,0,0,3.67,100,2,2,0,0,0,.93,100Z" style="fill:#231815"/><path d="M14.42,78.56H11.51V75.65a1.94,1.94,0,0,0-3.88,0v2.91H4.72a1.94,1.94,0,1,0,0,3.88H7.63v2.91a1.94,1.94,0,0,0,3.88,0V82.44h2.91a1.94,1.94,0,1,0,0-3.88Z" style="fill:#231815"/><path d="M33.35,99.1a5.18,5.18,0,1,1-5.17-4.93A5.06,5.06,0,0,1,33.35,99.1Z" style="fill:#ffb71b"/><path d="M28.18,105.5a6.4,6.4,0,1,1,6.63-6.4A6.53,6.53,0,0,1,28.18,105.5Zm0-9.87a3.48,3.48,0,1,0,3.71,3.47A3.6,3.6,0,0,0,28.18,95.63Z" style="fill:#231815"/><path d="M52,33.65s-4.31-.63-4.31,4.62V58H45.54V40.54s-.42-4-4.2-4-4.79,1.89-4.79,4.83V69.57s-1.3,5.24,10.24,5.24v38s5.18,8.11,10.32,0v-38s9.75,1,9.75-4.61V41.59s.69-5-4.13-5-4.62,4.83-4.62,4.83v16.7h-2V38.47S56,33.65,52,33.65Z" style="fill:#fff"/><path d="M52.15,117.83c-3.82,0-6.49-4.1-6.6-4.28a1.45,1.45,0,0,1-.23-.78V76.24C40.75,76.05,37.64,75,36.09,73a4.6,4.6,0,0,1-1-3.52v-28c0-4.18,2.1-6.29,6.25-6.29a5.3,5.3,0,0,1,4.93,3,6,6,0,0,1,1.88-4.68,5.38,5.38,0,0,1,4-1.2c3.87.05,5.18,3.48,5.39,5.7a5.5,5.5,0,0,1,.81-1.09,5.82,5.82,0,0,1,4.4-1.7A5.36,5.36,0,0,1,67,36.83a6.65,6.65,0,0,1,1.34,4.85V70.2a5.17,5.17,0,0,1-1.74,4c-2.17,2-5.86,2.23-8,2.18v36.42a1.56,1.56,0,0,1-.22.78c-1.8,2.84-3.88,4.28-6.19,4.28Zm-3.9-5.52c.7.94,2.28,2.6,3.9,2.6h0c1.16,0,2.33-.87,3.49-2.58V74.81a1.45,1.45,0,0,1,.48-1.09,1.48,1.48,0,0,1,1.14-.37c1.45.16,5.62.21,7.36-1.36a2.23,2.23,0,0,0,.76-1.79V41.59a1.36,1.36,0,0,1,0-.2,3.86,3.86,0,0,0-.64-2.65,2.58,2.58,0,0,0-2-.72,3,3,0,0,0-2.28.8,4,4,0,0,0-.88,2.51V58.09a1.47,1.47,0,0,1-1.47,1.47h-2a1.46,1.46,0,0,1-1.46-1.47V38.47c0-.32-.15-3.35-2.59-3.35l-.2,0a2.61,2.61,0,0,0-1.8.51,3.46,3.46,0,0,0-.84,2.66V58a1.47,1.47,0,0,1-1.47,1.47H45.54A1.47,1.47,0,0,1,44.08,58V40.64A2.8,2.8,0,0,0,41.34,38c-2.55,0-3.33.79-3.33,3.37V69.57a1.45,1.45,0,0,1,0,.35,1.77,1.77,0,0,0,.47,1.3c.67.79,2.63,2.12,8.35,2.12a1.47,1.47,0,0,1,1.46,1.47Z" style="fill:#231815"/><path d="M95.25,33.92s-18-.41-18,20.56a22,22,0,0,0,11.33,19.7v38.59s5.25,7.76,10.28,0v-38s12.58-3.36,12.58-20.33S99.87,33.71,95.25,33.92Z" style="fill:#fff"/><path d="M93.91,117.68c-3.78,0-6.47-3.93-6.59-4.1a1.46,1.46,0,0,1-.25-.81V75A23.4,23.4,0,0,1,75.74,54.48c0-7.14,2-12.72,6-16.59a20.2,20.2,0,0,1,13.52-5.43,16.41,16.41,0,0,1,11.33,4.68c2.88,2.75,6.31,8,6.31,17.34,0,14.87-9.35,20-12.58,21.35v36.94a1.49,1.49,0,0,1-.24.79c-1.76,2.71-3.8,4.1-6.08,4.12ZM90,112.28c.72.91,2.29,2.47,3.91,2.47h0c1.15,0,2.3-.83,3.41-2.43V74.81a1.46,1.46,0,0,1,1.09-1.42c.46-.12,11.49-3.34,11.49-18.91,0-6.68-1.82-11.8-5.4-15.23a13.61,13.61,0,0,0-9.22-3.87h-.1A17.66,17.66,0,0,0,83.72,40c-3.35,3.29-5,8.16-5,14.47a20.4,20.4,0,0,0,10.5,18.38A1.48,1.48,0,0,1,90,74.18Z" style="fill:#231815"/></svg>