<svg id="圖層_1" data-name="圖層 1" xmlns="http://www.w3.org/2000/svg" viewBox="0 0 150 150"><title>ms-16</title><path d="M115.3,54.12a1.93,1.93,0,0,0-.57,1.37,2,2,0,0,0,.57,1.38,2,2,0,0,0,2.74,0,2,2,0,0,0,.57-1.38,2,2,0,0,0-.57-1.37A2,2,0,0,0,115.3,54.12Z" style="fill:#231815"/><path d="M128.79,32.7h-2.91V29.79a1.94,1.94,0,1,0-3.88,0V32.7h-2.91a1.94,1.94,0,0,0,0,3.88H122v2.91a1.94,1.94,0,1,0,3.88,0V36.58h2.91a1.94,1.94,0,0,0,0-3.88Z" style="fill:#231815"/><ellipse cx="135.32" cy="57.21" rx="5.17" ry="4.94" style="fill:#e96bb0"/><path d="M135.32,63.61a6.4,6.4,0,1,1,6.64-6.4A6.52,6.52,0,0,1,135.32,63.61Zm0-9.87A3.48,3.48,0,1,0,139,57.21,3.61,3.61,0,0,0,135.32,53.74Z" style="fill:#231815"/><path d="M10.08,118.09a1.94,1.94,0,0,0-.58,1.37,2,2,0,0,0,.58,1.38,1.92,1.92,0,0,0,1.36.56,1.94,1.94,0,0,0,1.38-3.31A2,2,0,0,0,10.08,118.09Z" style="fill:#231815"/><path d="M23.57,96.67H20.66V93.76a1.94,1.94,0,1,0-3.88,0v2.91H13.87a1.94,1.94,0,0,0,0,3.88h2.91v2.91a1.94,1.94,0,1,0,3.88,0v-2.91h2.91a1.94,1.94,0,0,0,0-3.88Z" style="fill:#231815"/><ellipse cx="37.32" cy="117.21" rx="5.17" ry="4.94" style="fill:#ffb71b"/><path d="M37.32,123.61a6.4,6.4,0,1,1,6.64-6.4A6.52,6.52,0,0,1,37.32,123.61Zm0-9.87A3.48,3.48,0,1,0,41,117.21,3.61,3.61,0,0,0,37.32,113.74Z" style="fill:#231815"/><path d="M102.16,100.51c.35-13.92-1.46-16.64-1.46-16.64,0-1.81-2.28-3.3-5.1-3.33L69.18,80.3c-2.82,0-5.12,1.42-5.13,3.23,0,0-1.39,3.53-1.44,15.92s1.31,17.42,1.31,17.42a1.79,1.79,0,0,0,0,.24c0,.11,0,.2,0,.3,0,3.82,8.2,4.15,18.31,4.25s18.32-.09,18.33-3.91a.94.94,0,0,0,0-.29l0-.25S101.8,114.44,102.16,100.51Z" style="fill:#fff"/><path d="M85.38,123.14H82.21c-10.17-.11-19.78-.2-19.76-5.73a2.48,2.48,0,0,1,0-.29h0c-.24-.95-1.37-6.21-1.33-17.66,0-11,1.12-15.13,1.46-16.19a4,4,0,0,1,1.25-2.53,7.51,7.51,0,0,1,5.34-1.88l26.42.24c3.51,0,6.28,1.94,6.53,4.4.57,1.27,1.78,5.37,1.48,17.07h0c-.3,11.94-1.26,15.9-1.61,17a2.91,2.91,0,0,1,0,.31,3.78,3.78,0,0,1-1.16,2.66C98.54,122.76,93,123.14,85.38,123.14ZM69.09,81.76a4.61,4.61,0,0,0-3.19,1,1.07,1.07,0,0,0-.38.73,1.62,1.62,0,0,1-.11.53s-1.29,3.62-1.34,15.39c0,12,1.24,17,1.26,17a1.33,1.33,0,0,1,0,.34,1.1,1.1,0,0,0,0,.18c0,.09,0,.19,0,.29a1,1,0,0,0,0,.17c0,2.56,11,2.67,16.86,2.73s14.6.13,16.56-1.8a.84.84,0,0,0,.29-.66v-.34a2,2,0,0,1,0-.25,1.42,1.42,0,0,1,.13-.53c0-.09,1.13-3.05,1.46-16.14h0c.33-12.81-1.18-15.74-1.25-15.86a1.22,1.22,0,0,1-.2-.77c0-.73-1.42-1.82-3.66-1.85l-26.42-.24Zm30,35.81Zm0,0Zm3.06-17.06h0Z" style="fill:#231815"/><path d="M100.74,70.23l-36.58-.34,0,9.18a.31.31,0,0,1,0,.1c0,1.91,8.18,3.53,18.24,3.63s18.27-1.38,18.28-3.29a.51.51,0,0,0,0-.13h0Z" style="fill:#ef90b9"/><path d="M83.33,84.27h-.94c-4.46,0-18.67-.51-19.64-4.64a1.3,1.3,0,0,1-.1-.56l0-9.17a1.45,1.45,0,0,1,.44-1,1.59,1.59,0,0,1,1-.42l36.58.34a1.46,1.46,0,0,1,1.45,1.47l0,9.14a1.75,1.75,0,0,1,0,.32,2.36,2.36,0,0,1-.75,1.5C99.07,83.47,90.43,84.27,83.33,84.27ZM65.59,78.86c1,.83,6.77,2.38,16.82,2.48s15.68-1.3,16.8-2.12a1.38,1.38,0,0,1,0-.2l0-7.34-33.66-.31,0,7.42A.14.14,0,0,1,65.59,78.86Zm-2.54,1.22Zm0,0Z" style="fill:#231815"/><path d="M100.72,70.69a1.44,1.44,0,0,0,0-.41c0-4.23-8.17-7.71-18.29-7.81s-18.34,3.24-18.35,7.46a2.73,2.73,0,0,0,.26,1.19,2.46,2.46,0,0,0,1.1,1.25,7.51,7.51,0,0,0,1.84.89c3.26,1.23,8.87,2.06,15.25,2.12,10.08.1,18.26-1.79,18.26-4.21A1.15,1.15,0,0,0,100.72,70.69Z" style="fill:#ef90b9"/><path d="M83.24,76.85h-.7c-6.34-.06-12.23-.89-15.75-2.21a8.87,8.87,0,0,1-2.16-1.06A3.91,3.91,0,0,1,63,71.63a4.26,4.26,0,0,1-.34-1.72A5.58,5.58,0,0,1,64.49,66c3.07-3,9.94-5,17.59-5h.4c11.27.11,19.76,4.09,19.74,9.27a2.26,2.26,0,0,1,0,.26,2.37,2.37,0,0,1,.07.64,2.88,2.88,0,0,1-.93,2C98.64,75.91,90.06,76.85,83.24,76.85ZM65.78,70.73a2,2,0,0,0,.5.42,6.08,6.08,0,0,0,1.49.72c3.27,1.23,8.78,2,14.8,2,9.9.1,16-1.72,16.77-2.81a1.21,1.21,0,0,1-.06-.68.62.62,0,0,0,0-.13c0-2.94-7.19-6.27-16.84-6.37-8-.06-13.78,2-15.91,4.13a2.72,2.72,0,0,0-1,1.87,1.37,1.37,0,0,0,.13.59,1,1,0,0,1,.08.21Z" style="fill:#231815"/><path d="M87.88,60.48a2.39,2.39,0,0,1-1.26-2.43l.06-.34a7.92,7.92,0,0,0,2.07-5.38c0-4.15-2.91-7.53-6.55-7.57s-6.6,3.3-6.61,7.44a7.94,7.94,0,0,0,2.18,5.6c0,.16,0,.3,0,.46a2.28,2.28,0,0,1-1.16,2.21c-4.63,1-7.85,3.31-7.86,6,0,3.7,5.37,4,12.92,4.1s14.4-.13,14.41-3.86C96.12,64,92.74,61.54,87.88,60.48Z" style="fill:#ffb71b"/><path d="M83.76,72.05H81.68c-6.74-.06-14.39-.13-14.36-5.58,0-3.3,3.36-6.11,8.76-7.37a1,1,0,0,0,.25-.69,9.6,9.6,0,0,1-2.21-6.2,9.41,9.41,0,0,1,2.69-6.64,7.61,7.61,0,0,1,5.36-2.26h0c4.43,0,8,4.09,8,9a9.51,9.51,0,0,1-2.15,6,.83.83,0,0,0,.41.75c5.64,1.31,9.12,4.21,9.1,7.61a3.91,3.91,0,0,1-1.2,2.86C94.22,71.71,89.46,72.05,83.76,72.05Zm-1.6-25.83a4.66,4.66,0,0,0-3.29,1.42,6.72,6.72,0,0,0-.05,9.14,1.47,1.47,0,0,1,.41.93v.14c0,.11,0,.23,0,.36a3.74,3.74,0,0,1-2,3.57,1.28,1.28,0,0,1-.33.11c-3.95.88-6.71,2.76-6.72,4.58,0,2.13,4.2,2.58,11.47,2.64,3.8,0,10.87.11,12.61-1.61a1,1,0,0,0,.33-.79c0-1.91-2.91-3.89-7.09-4.81a1.52,1.52,0,0,1-.46-.18,3.78,3.78,0,0,1-1.92-3.93,2.45,2.45,0,0,1,0-.25,1.76,1.76,0,0,1,.39-.84,6.47,6.47,0,0,0,1.67-4.38c0-3.33-2.28-6.07-5.1-6.1Z" style="fill:#231815"/></svg>