<svg id="圖層_1" data-name="圖層 1" xmlns="http://www.w3.org/2000/svg" viewBox="0 0 150 150"><title>ms-29</title><path d="M122.73,61.12a1.93,1.93,0,0,0-.57,1.37,2,2,0,0,0,.57,1.38,2,2,0,0,0,1.37.56,2,2,0,0,0,1.38-.56,1.94,1.94,0,0,0-2.75-2.75Z" style="fill:#231815"/><path d="M136.22,39.7h-2.91V36.79a1.94,1.94,0,1,0-3.88,0V39.7h-2.9a1.94,1.94,0,0,0,0,3.88h2.9v2.91a1.94,1.94,0,1,0,3.88,0V43.58h2.91a1.94,1.94,0,0,0,0-3.88Z" style="fill:#231815"/><path d="M147.93,64.21a5.18,5.18,0,1,1-5.17-4.94A5.06,5.06,0,0,1,147.93,64.21Z" style="fill:#e96bb0"/><path d="M142.76,70.61a6.4,6.4,0,1,1,6.63-6.4A6.53,6.53,0,0,1,142.76,70.61Zm0-9.87a3.48,3.48,0,1,0,3.71,3.47A3.6,3.6,0,0,0,142.76,60.74Z" style="fill:#231815"/><path d="M1.18,112.93a1.91,1.91,0,0,0-.57,1.36,2,2,0,0,0,.57,1.38,2,2,0,0,0,2.74,0,2,2,0,0,0,.57-1.38,2,2,0,0,0-.57-1.36A2,2,0,0,0,1.18,112.93Z" style="fill:#231815"/><path d="M14.67,91.5H11.76V88.59a1.94,1.94,0,0,0-3.88,0V91.5H5a1.94,1.94,0,1,0,0,3.88H7.88v2.91a1.94,1.94,0,0,0,3.88,0V95.38h2.91a1.94,1.94,0,1,0,0-3.88Z" style="fill:#231815"/><path d="M33.6,112.05a5.18,5.18,0,1,1-5.17-4.94A5.06,5.06,0,0,1,33.6,112.05Z" style="fill:#ffb71b"/><path d="M28.43,118.45a6.4,6.4,0,1,1,6.63-6.4A6.53,6.53,0,0,1,28.43,118.45Zm0-9.88a3.48,3.48,0,1,0,3.71,3.48A3.6,3.6,0,0,0,28.43,108.57Z" style="fill:#231815"/><path d="M51.28,41.13c2.86,7.3-2.54,16.26-12.09,20S19.58,62,16.71,54.73s2.54-16.26,12.08-20S48.4,33.83,51.28,41.13Z" style="fill:#b28146"/><path d="M30.77,64.19c-7,0-13.14-3.28-15.37-8.95-3.15-8,2.63-17.8,12.88-21.84s21.15-.8,24.3,7.21h0c3.15,8-2.63,17.81-12.87,21.84A24.51,24.51,0,0,1,30.77,64.19Zm6.5-29.73a21.82,21.82,0,0,0-8,1.56C20.5,39.48,15.43,47.65,18,54.21s11.85,9.09,20.66,5.63S52.55,48.21,50,41.64C48.17,37.07,43.14,34.46,37.27,34.46Z" style="fill:#231815"/><path d="M79.61,41.07c-2.85,7.31,2.6,16.25,12.16,20s19.62.8,22.46-6.51-2.61-16.25-12.17-20S82.45,33.76,79.61,41.07Z" style="fill:#b28146"/><path d="M100.12,64.05a24.62,24.62,0,0,1-8.86-1.7,23.06,23.06,0,0,1-11.42-9.22C77.31,49,76.76,44.51,78.3,40.56h0c3.12-8,14-11.3,24.27-7.31S118.65,47,115.54,55C113.32,60.74,107.17,64.05,100.12,64.05ZM80.92,41.58c-1.22,3.12-.75,6.7,1.32,10.09a20.22,20.22,0,0,0,10,8.06c8.82,3.42,18.08.87,20.64-5.71s-2.55-14.72-11.37-18.15S83.47,35,80.92,41.58Z" style="fill:#231815"/><path d="M104.56,75.18c0,17.13-17.35,28.94-38.83,29S26.82,92.47,26.78,75.34,44.12,39.73,65.6,39.68,104.53,58,104.56,75.18Z" style="fill:#b28146"/><path d="M65.61,105.57c-22.91,0-40.2-13-40.23-30.23,0-17.46,17.15-37,40.22-37.06h.08A41.11,41.11,0,0,1,94.09,50C101.62,57.16,106,66.35,106,75.17c0,17.29-17.26,30.35-40.24,30.4Zm.07-64.48H65.6c-17.33,0-37.45,15-37.41,34.24,0,15.65,16.11,27.43,37.42,27.43h.12c21.37,0,37.46-11.9,37.43-27.58,0-8.06-4-16.51-11-23.18A38.32,38.32,0,0,0,65.68,41.09Z" style="fill:#231815"/><path d="M80.86,87.1c0,5.71-6.76,17.05-15.15,17.06s-15.22-11.29-15.23-17S57.26,76.82,65.65,76.8,80.85,81.4,80.86,87.1Z" style="fill:#ffda96"/><path d="M65.69,105.63C56.24,105.63,49,93.33,49,87.17c0-3.26,1.79-6.29,5.07-8.53a20.75,20.75,0,0,1,11.56-3.3h0A20.62,20.62,0,0,1,77.22,78.6c3.29,2.22,5.1,5.24,5.11,8.5h0c0,3.29-1.86,7.83-4.74,11.56-3.46,4.49-7.68,7-11.88,7Zm0-27.37h0a17.76,17.76,0,0,0-9.91,2.8c-2.45,1.67-3.8,3.84-3.8,6.1,0,5.12,6.38,15.54,13.75,15.54h0c4.42,0,7.9-3.65,9.58-5.83,2.43-3.15,4.12-7.16,4.12-9.76h0c0-2.26-1.36-4.43-3.82-6.09A17.72,17.72,0,0,0,65.7,78.26Z" style="fill:#231815"/><path d="M52.72,74.31a4.84,4.84,0,1,1-4.84-4.83A4.84,4.84,0,0,1,52.72,74.31Z" style="fill:#231815"/><path d="M88,74.23a4.84,4.84,0,1,1-4.85-4.82A4.85,4.85,0,0,1,88,74.23Z" style="fill:#231815"/><path d="M64.26,89.94c-2.07-.82-4.11-2.79-3.91-4.65.26-2.41,3.08-3,5.06-3s4.65.31,5.39,2.35C72.06,88.08,67.13,91.08,64.26,89.94Z" style="fill:#ef90b9"/><path d="M65.64,91.65a5.28,5.28,0,0,1-1.92-.35h0c-2.55-1-5.11-3.51-4.82-6.16s2.77-4.34,6.5-4.34h0c4.57,0,6.19,1.8,6.74,3.31a5,5,0,0,1-1.44,5.41A7.54,7.54,0,0,1,65.64,91.65Zm-.84-3.07a4.15,4.15,0,0,0,3.9-1.16,2.17,2.17,0,0,0,.73-2.31c-.46-1.25-2.92-1.39-4-1.39h0c-.35,0-3.43.06-3.6,1.73-.11,1,1.32,2.47,3,3.13Z" style="fill:#231815"/><path d="M65.62,91.19a3.85,3.85,0,0,1-7.68,0" style="fill:#ffda96"/><path d="M61.78,96.23a5.18,5.18,0,0,1-5.3-5,1.47,1.47,0,0,1,2.93,0,2.39,2.39,0,0,0,4.75,0,1.46,1.46,0,0,1,2.92,0A5.18,5.18,0,0,1,61.78,96.23Z" style="fill:#231815"/><path d="M73.4,91.19a3.85,3.85,0,0,1-7.68,0" style="fill:#ffda96"/><path d="M69.56,96.23a5.18,5.18,0,0,1-5.3-5,1.47,1.47,0,0,1,2.93,0,2.39,2.39,0,0,0,4.75,0,1.46,1.46,0,0,1,2.92,0A5.18,5.18,0,0,1,69.56,96.23Z" style="fill:#231815"/></svg>