<svg id="圖層_1" data-name="圖層 1" xmlns="http://www.w3.org/2000/svg" viewBox="0 0 150 150"><title>ms-20</title><path d="M124.22,74.59a1.89,1.89,0,0,0,1.8,2l4.75.16a1.94,1.94,0,0,0,.12-3.88l-4.75-.15A1.88,1.88,0,0,0,124.22,74.59Z" style="fill:#231815"/><path d="M116.21,101.94a2,2,0,0,0-.28,1,2,2,0,0,0,.88,1.71l4,2.6a1.81,1.81,0,0,0,2.56-.62,2,2,0,0,0-.59-2.67l-4-2.61A1.83,1.83,0,0,0,116.21,101.94Z" style="fill:#231815"/><path d="M121.54,88.83a1.93,1.93,0,0,0-.08.47,2,2,0,0,0,1.36,1.93l5,1.44a1.86,1.86,0,0,0,2.3-1.35,1.94,1.94,0,0,0-1.29-2.39l-4.94-1.44A1.85,1.85,0,0,0,121.54,88.83Z" style="fill:#231815"/><path d="M118.78,44.16a2,2,0,0,0-1,1.66,2,2,0,0,0,.22,1,1.81,1.81,0,0,0,2.52.79l4.2-2.33a2,2,0,0,0,.77-2.63,1.83,1.83,0,0,0-2.53-.79Z" style="fill:#231815"/><path d="M123.9,57.91a1.93,1.93,0,0,0-1.47,1.84,1.46,1.46,0,0,0,0,.46,1.86,1.86,0,0,0,2.2,1.5l5-1.12a2,2,0,0,0,1.44-2.3,1.88,1.88,0,0,0-2.22-1.5Z" style="fill:#231815"/><path d="M24.81,74.64a1.8,1.8,0,0,1-1.71,1.88l-4.21-.14A2,2,0,0,1,19,72.51l4.21.13A1.81,1.81,0,0,1,24.81,74.64Z" style="fill:#231815"/><path d="M30.2,102.41a2.23,2.23,0,0,1,.19,1,2,2,0,0,1-.87,1.65l-3.73,2.36a1.53,1.53,0,0,1-2.23-.79,2.13,2.13,0,0,1,.69-2.63L28,101.63A1.52,1.52,0,0,1,30.2,102.41Z" style="fill:#231815"/><path d="M26.31,89a1.86,1.86,0,0,1,0,.47A1.92,1.92,0,0,1,25,91.32l-4.45,1.13A1.64,1.64,0,0,1,18.62,91a2,2,0,0,1,1.28-2.31l4.46-1.13A1.65,1.65,0,0,1,26.31,89Z" style="fill:#231815"/><path d="M31.48,44.6a2,2,0,0,1,.77,1.71,2.18,2.18,0,0,1-.25,1,1.53,1.53,0,0,1-2.28.63l-3.56-2.59a2.12,2.12,0,0,1-.52-2.66A1.53,1.53,0,0,1,27.92,42Z" style="fill:#231815"/><path d="M26.11,58a1.92,1.92,0,0,1,1.19,1.93,1.88,1.88,0,0,1-.06.46,1.65,1.65,0,0,1-2,1.35l-4.38-1.42a2,2,0,0,1-1.13-2.38,1.66,1.66,0,0,1,2-1.36Z" style="fill:#231815"/><path d="M94.67,93.36c-12.14,0-22-9.45-22-21.11a21.11,21.11,0,0,1,10-17.73c3.55-2.21,17.26-5.68,6.68-9.3a36.12,36.12,0,0,0-11.7-2C59,43.23,43.79,57.82,43.79,75.82S59,108.4,77.71,108.4A34.78,34.78,0,0,0,101.5,99c2.4-2.27,6.4-6.25,1.08-7.06C100,91.58,97.21,93.36,94.67,93.36Z" style="fill:#ffb71b"/><path d="M77.71,109.87c-19.51,0-35.38-15.28-35.38-34.05S58.2,41.76,77.71,41.76a37.42,37.42,0,0,1,12.17,2.08c2.08.71,4.84,1.91,4.93,4.15.1,2.77-3.8,4.43-7.93,6.19a29.66,29.66,0,0,0-3.38,1.59,19.66,19.66,0,0,0-9.34,16.48c0,10.83,9.2,19.65,20.51,19.65a11.67,11.67,0,0,0,3.07-.65,11.67,11.67,0,0,1,5.06-.72c2.07.32,3.33,1.15,3.74,2.46.73,2.34-1.7,4.9-4,7.11A36.33,36.33,0,0,1,77.71,109.87Zm0-65.18c-17.89,0-32.45,14-32.45,31.13s14.56,31.12,32.45,31.12a33.44,33.44,0,0,0,22.78-9c3.05-2.89,3.3-3.84,3.26-4.12h0a3.12,3.12,0,0,0-1.39-.44,9.25,9.25,0,0,0-3.78.63,13.71,13.71,0,0,1-3.91.77c-12.92,0-23.44-10.12-23.44-22.57A22.63,22.63,0,0,1,82,53.28a31.41,31.41,0,0,1,3.78-1.79c1.85-.79,5.65-2.41,6.13-3.38-.14-.18-.74-.76-2.92-1.51A34.73,34.73,0,0,0,77.71,44.69Z" style="fill:#231815"/><path d="M65.5,69a3.72,3.72,0,1,1-3.92-3.38A3.65,3.65,0,0,1,65.5,69Z" style="fill:#231815"/><path d="M69.39,85.88a6.85,6.85,0,0,1-6.19-3.15,1.42,1.42,0,1,1,2.45-1.42c1.24,2.13,5.1,2.3,8.42.37a1.42,1.42,0,1,1,1.43,2.45A12.32,12.32,0,0,1,69.39,85.88Z" style="fill:#231815"/></svg>