<svg id="圖層_1" data-name="圖層 1" xmlns="http://www.w3.org/2000/svg" viewBox="0 0 150 150"><title>ms-37</title><path d="M117.45,86.11a1.75,1.75,0,0,0-.52,1.25,1.76,1.76,0,0,0,1.77,1.77,1.74,1.74,0,0,0,1.77-1.77,1.77,1.77,0,0,0-3-1.25Z" style="fill:#231815"/><path d="M129.77,66.55h-2.66V63.89a1.77,1.77,0,1,0-3.54,0v2.66h-2.66a1.77,1.77,0,1,0,0,3.54h2.66v2.66a1.77,1.77,0,1,0,3.54,0V70.09h2.66a1.77,1.77,0,0,0,0-3.54Z" style="fill:#231815"/><path d="M140.46,88.93a4.73,4.73,0,1,1-4.73-4.51A4.63,4.63,0,0,1,140.46,88.93Z" style="fill:#e96bb0"/><path d="M135.73,94.9a6,6,0,1,1,6.19-6A6.08,6.08,0,0,1,135.73,94.9Zm0-9a3.05,3.05,0,1,0,3.26,3A3.16,3.16,0,0,0,135.73,85.89Z" style="fill:#231815"/><path d="M8.65,54.06a1.91,1.91,0,0,0-.57,1.36,1.94,1.94,0,1,0,3.88,0,1.94,1.94,0,0,0-.56-1.36A2,2,0,0,0,8.65,54.06Z" style="fill:#231815"/><path d="M26.9,71.6a5.05,5.05,0,0,1-5.17,4.93,4.94,4.94,0,1,1,0-9.87A5.05,5.05,0,0,1,26.9,71.6Z" style="fill:#ffb71b"/><path d="M21.73,78a6.4,6.4,0,1,1,0-12.8,6.4,6.4,0,1,1,0,12.8Zm0-9.88a3.48,3.48,0,1,0,0,6.95,3.48,3.48,0,1,0,0-6.95Z" style="fill:#231815"/><path d="M76.07,62.93a25.9,25.9,0,1,0,30.74,20.41A26.12,26.12,0,0,0,76.07,62.93Zm8,42.83C74,107.71,64.31,101.59,62.46,92.09s4.85-18.81,14.95-20.77S97.2,75.48,99,85,94.2,103.79,84.1,105.76Z" style="fill:#ffb71b"/><path d="M80.84,115.73A27.4,27.4,0,1,1,96.57,65.61a27.1,27.1,0,0,1,7.39,38,27.88,27.88,0,0,1-17.74,11.6A28.33,28.33,0,0,1,80.84,115.73Zm.37-51.83a25.08,25.08,0,0,0-4.86.47h0A24.43,24.43,0,1,0,101.54,102,24.16,24.16,0,0,0,95,68.05,24.75,24.75,0,0,0,81.21,63.9Zm-5.14-1h0Zm4.27,44.65c-9.32,0-17.57-6.22-19.31-15.21C59,82.08,66.26,72,77.13,69.88s21.35,4.55,23.34,14.83-5.22,20.37-16.09,22.48h0A21.5,21.5,0,0,1,80.34,107.58Zm3.76-1.82h0ZM81.17,72.42a18,18,0,0,0-3.48.34c-9.29,1.8-15.48,10.35-13.79,19s10.62,14.31,19.92,12.51S99.29,94,97.6,85.27C96.13,77.67,89.12,72.42,81.17,72.42Z" style="fill:#231815"/><path d="M96.39,46.16C84.72,36.84,74.81,48,59.14,61.93l0,0c-15.45,13.94-28,22.35-19.54,34.83s30.2,8.5,46.31-4.79h0a1.14,1.14,0,0,1,.16-.15c.34-.29.7-.58,1-.88l0,0C101.69,76.81,108.07,55.5,96.39,46.16Z" style="fill:#ef90b9"/><path d="M55.8,105.79a27.46,27.46,0,0,1-4-.28c-5.81-.83-10.44-3.57-13.39-7.91-8.21-12.09,1.81-20.9,14.5-32.06q2.44-2.15,5-4.47a1.21,1.21,0,0,1,.21-.24c1.53-1.35,3-2.69,4.42-4C76.07,44.65,85.8,35.83,97.3,45h0c4,3.22,6.3,8,6.57,13.73C104.36,69.1,98.29,82,88.4,91.69a1.59,1.59,0,0,1-.28.36l-.77.66-.3.25a.1.1,0,0,1,0,0l-.07.07a.9.9,0,0,1-.19.15C77,101.19,65.56,105.79,55.8,105.79Zm4.55-43a2.2,2.2,0,0,1-.2.23q-2.73,2.45-5.3,4.7c-13.65,12-20.47,18.71-14,28.22,2.52,3.69,6.34,5.93,11.38,6.65C61.82,104,74.68,99.37,85,90.86h0l.18-.15.27-.23.39-.33a1.39,1.39,0,0,1,.21-.27c9.5-9.17,15.33-21.33,14.88-31-.23-5-2.07-8.86-5.47-11.58C86.35,40,78.6,46.31,64.56,59,63.2,60.25,61.8,61.52,60.35,62.81ZM86.9,93.08ZM87,93Z" style="fill:#231815"/><path d="M56.47,86.85c5.26-1,11.82-5.7,14.65-7.67C77.13,75,82.65,69.64,85,62.47c1.92-5.95-2.43-6.79-2.43-6.79-4.56-.87-9.46,1.7-14.31.59-7.54-1.73-4.13-11.47-7.75-16.74a15.23,15.23,0,0,0-20-4.94c-9.72,5.27-9.26,21.91.63,26.73,3.85,1.89,10.1.64,11.66,5.55,1.17,3.7-1.66,10.93-2.66,14.64A3.94,3.94,0,0,0,51.29,86,6.36,6.36,0,0,0,56.47,86.85Z" style="fill:#fff"/><path d="M54.59,88.5a6.71,6.71,0,0,1-4.19-1.3,5.36,5.36,0,0,1-1.66-6.15c.21-.75.48-1.63.78-2.59,1.06-3.44,2.67-8.63,1.87-11.14-.73-2.3-2.78-2.77-6.07-3.36a18.27,18.27,0,0,1-4.83-1.32c-5.1-2.49-8.35-8.07-8.49-14.55S34.85,36,39.81,33.31A16.74,16.74,0,0,1,61.67,38.7c1.6,2.34,2,5.25,2.33,8.07.57,4.49,1.1,7.28,4.54,8.07a18.2,18.2,0,0,0,7-.27,20.65,20.65,0,0,1,7.27-.33,5.21,5.21,0,0,1,3.33,2.42c1,1.62,1,3.73.22,6.25-2.07,6.48-6.64,12-14.38,17.46l-.31.22c-3.09,2.17-9.52,6.67-14.91,7.7A11.84,11.84,0,0,1,54.59,88.5ZM47.74,34.21a13.65,13.65,0,0,0-6.54,1.67c-4,2.16-6.39,6.81-6.28,12.14s2.74,10,6.85,12a16.32,16.32,0,0,0,4.06,1.07c3.14.56,7.05,1.25,8.35,5.35,1.08,3.38-.56,8.66-1.87,12.9-.3,1-.57,1.83-.77,2.56a.6.6,0,0,1-.06.19,2.44,2.44,0,0,0,.71,2.8,4.91,4.91,0,0,0,4,.53h0C61,84.5,67.05,80.24,70,78.2l.31-.22c7.19-5,11.41-10.13,13.28-16a5,5,0,0,0,.06-3.84,2.34,2.34,0,0,0-1.4-1.07,18.29,18.29,0,0,0-6.22.35,20.65,20.65,0,0,1-8.12.23c-5.6-1.28-6.23-6.21-6.78-10.55-.31-2.47-.64-5-1.84-6.79A14,14,0,0,0,47.74,34.21Z" style="fill:#231815"/><path d="M51.91,102.29c-12.9,0-15.68-10.06-15.71-10.18a1.45,1.45,0,0,1,1-1.78,1.48,1.48,0,0,1,1.79,1c.12.48,3.26,11.29,20.15,7,17.88-4.54,33.45-26,33.6-26.22l.08-.1c.37-.44,9.12-10.91,3.35-24.57a1.46,1.46,0,0,1,2.69-1.14c6.35,15-3,26.58-3.78,27.57A96.61,96.61,0,0,1,84.76,85.66C76.24,94,67.88,99.17,59.9,101.2A32.8,32.8,0,0,1,51.91,102.29Z" style="fill:#231815"/><polygon points="34.07 30.4 28.54 35.92 67.62 75 28.54 114.08 34.07 119.6 73.14 80.52 112.22 119.6 117.74 114.08 78.67 75 117.74 35.92 112.22 30.4 73.14 69.48 34.07 30.4" style="fill:#d94434"/><path d="M34.07,121a1.41,1.41,0,0,1-1-.42l-5.52-5.52a1.41,1.41,0,0,1-.41-1,1.43,1.43,0,0,1,.41-1L65.63,75,27.55,36.92a1.41,1.41,0,0,1,0-2l5.52-5.52a1.44,1.44,0,0,1,2,0L73.14,67.49l38.09-38.08a1.38,1.38,0,0,1,1-.42h0a1.38,1.38,0,0,1,1,.42l5.53,5.52a1.41,1.41,0,0,1,0,2L80.65,75l38.09,38.08a1.43,1.43,0,0,1,.41,1,1.41,1.41,0,0,1-.41,1l-5.53,5.52a1.39,1.39,0,0,1-2,0L73.14,82.51,35.06,120.59A1.37,1.37,0,0,1,34.07,121Zm-3.54-6.93,3.54,3.53L72.15,79.53a1.44,1.44,0,0,1,2,0l38.08,38.08,3.54-3.53L77.67,76a1.41,1.41,0,0,1,0-2l38.09-38.09-3.54-3.53L74.14,70.47a1.44,1.44,0,0,1-2,0L34.07,32.39l-3.54,3.53L68.61,74a1.39,1.39,0,0,1,0,2Z" style="fill:#231815"/></svg>