<svg id="圖層_1" data-name="圖層 1" xmlns="http://www.w3.org/2000/svg" viewBox="0 0 150 150"><title>ms-31</title><path d="M113.22,111c-2.7,0-5,1.6-5,3.49s2.28,3.49,5,3.49,5-1.6,5-3.49S115.93,111,113.22,111Z" style="fill:#ffb71b"/><path d="M86.72,74.27c-2.7,0-5,1.6-5,3.48s2.28,3.49,5,3.49,5-1.59,5-3.49S89.43,74.27,86.72,74.27Z" style="fill:#e96bb0"/><path d="M36.78,86.56c-2.71,0-5,1.6-5,3.49s2.28,3.49,5,3.49,5-1.6,5-3.49S39.48,86.56,36.78,86.56Z" style="fill:#ffb71b"/><polygon points="44.55 56.76 66.31 78.4 66.31 67.68 44.55 46.04 44.55 56.76" style="fill:#ffb71b"/><ellipse cx="75.52" cy="54.81" rx="2.11" ry="2.09" style="fill:#e96bb0"/><path d="M61.32,111.24c-2.7,0-5,1.59-5,3.48s2.29,3.49,5,3.49,5-1.59,5-3.49S64,111.24,61.32,111.24Z" style="fill:#ffb71b"/><rect x="94.5" y="31.79" width="16.7" height="7.2" style="fill:#e96bb0"/><path d="M100.07,100.38H98V98.29a1.4,1.4,0,0,0-2.79,0v2.09H93.05a1.4,1.4,0,0,0,0,2.79h2.12v2.1a1.4,1.4,0,0,0,2.79,0v-2.1h2.11a1.4,1.4,0,0,0,0-2.79Z" style="fill:#231815"/><path d="M78,104.28a1.39,1.39,0,0,0-.41,1,1.4,1.4,0,1,0,2.79,0,1.39,1.39,0,0,0-.41-1A1.44,1.44,0,0,0,78,104.28Z" style="fill:#231815"/><path d="M81.55,93.81a1.43,1.43,0,0,0-.41,1,1.41,1.41,0,0,0,.41,1,1.39,1.39,0,0,0,2,0,1.41,1.41,0,0,0,.41-1,1.43,1.43,0,0,0-.41-1A1.46,1.46,0,0,0,81.55,93.81Z" style="fill:#231815"/><path d="M69,66.65l0-.08a1.48,1.48,0,0,0-.31-.47L44.14,41.7l0,0a1.07,1.07,0,0,0-.16-.14l-.12-.06-.12-.07-.14,0-.12,0-.24,0h0a1.27,1.27,0,0,0-.28,0l-.09,0-.17.06-.1.05-.14.07-.16.13s0,0,0,.05l-.07.09-.1.12-.08.13s0,.07-.05.11,0,.11,0,.16l0,.1a2.11,2.11,0,0,0,0,.25v0h0V57.34h0V85.24a8.94,8.94,0,0,0-5-1.46c-4.29,0-7.78,2.81-7.78,6.27s3.49,6.28,7.78,6.28,7.77-2.82,7.77-6.28V60.69L66.31,82.33v27.59a8.87,8.87,0,0,0-5-1.47c-4.28,0-7.77,2.81-7.77,6.27S57,121,61.32,121s7.78-2.82,7.78-6.28c0,0,0-.1,0-.16s0-.06,0-.1V67.1h0a1.24,1.24,0,0,0,0-.27A1.21,1.21,0,0,0,69,66.65ZM36.78,93.54c-2.71,0-5-1.6-5-3.49s2.28-3.49,5-3.49,5,1.6,5,3.49S39.48,93.54,36.78,93.54Zm24.54,24.67c-2.7,0-5-1.59-5-3.49s2.29-3.48,5-3.48,5,1.59,5,3.48S64,118.21,61.32,118.21Zm5-39.81L44.55,56.76V46L66.31,67.68Z" style="fill:#231815"/><path d="M58,35.28H60.1v2.09a1.39,1.39,0,0,0,2.78,0V35.28H65a1.4,1.4,0,0,0,0-2.79H62.88v-2.1a1.39,1.39,0,1,0-2.78,0v2.1H58a1.4,1.4,0,0,0,0,2.79Z" style="fill:#231815"/><path d="M37.41,114.49H35.3V112.4a1.4,1.4,0,1,0-2.79,0v2.09H30.39a1.4,1.4,0,0,0,0,2.79h2.12v2.09a1.4,1.4,0,0,0,2.79,0v-2.09h2.11a1.4,1.4,0,0,0,0-2.79Z" style="fill:#231815"/><path d="M79,42.25a1.44,1.44,0,0,0,1-.4,1.43,1.43,0,0,0,.41-1,1.41,1.41,0,0,0-.41-1,1.45,1.45,0,0,0-2,0,1.41,1.41,0,0,0-.41,1A1.38,1.38,0,0,0,79,42.25Z" style="fill:#231815"/><path d="M80.42,54.81a4.9,4.9,0,1,0-4.9,4.88A4.9,4.9,0,0,0,80.42,54.81Zm-4.9,2.09a2.1,2.1,0,1,1,2.11-2.09A2.1,2.1,0,0,1,75.52,56.9Z" style="fill:#231815"/><path d="M94.5,77.75v-36h18.09a1.4,1.4,0,0,0,1.4-1.4v-10a1.4,1.4,0,0,0-1.4-1.39H93.1a1.39,1.39,0,0,0-1.39,1.39V73a8.87,8.87,0,0,0-5-1.47c-4.28,0-7.77,2.81-7.77,6.27S82.44,84,86.72,84,94.5,81.21,94.5,77.75Zm16.7-46V39H94.5v-7.2ZM86.72,81.24c-2.7,0-5-1.59-5-3.49s2.28-3.48,5-3.48,5,1.6,5,3.48S89.43,81.24,86.72,81.24Z" style="fill:#231815"/><path d="M119.61,65.73a1.4,1.4,0,0,0-1.4,1.4v42.55a9,9,0,0,0-5-1.47c-4.28,0-7.77,2.82-7.77,6.28s3.49,6.27,7.77,6.27S121,118,121,114.49V67.13A1.4,1.4,0,0,0,119.61,65.73ZM113.22,118c-2.7,0-5-1.6-5-3.49s2.28-3.49,5-3.49,5,1.6,5,3.49S115.93,118,113.22,118Z" style="fill:#231815"/></svg>