<svg id="圖層_1" data-name="圖層 1" xmlns="http://www.w3.org/2000/svg" viewBox="0 0 150 150"><title>ms-35</title><path d="M125.9,39.63h2.91v2.91a1.94,1.94,0,0,0,3.88,0V39.63h2.91a1.94,1.94,0,0,0,0-3.88h-2.91V32.84a1.94,1.94,0,0,0-3.88,0v2.91H125.9a1.94,1.94,0,1,0,0,3.88Z" style="fill:#231815"/><path d="M113.66,19.34a5.18,5.18,0,0,1-10.35,0,5.18,5.18,0,0,1,10.35,0Z" style="fill:#e96bb0"/><path d="M108.49,25.74a6.53,6.53,0,0,1-6.64-6.4,6.64,6.64,0,0,1,13.27,0A6.52,6.52,0,0,1,108.49,25.74Zm0-9.88a3.6,3.6,0,0,0-3.71,3.48,3.72,3.72,0,0,0,7.42,0A3.61,3.61,0,0,0,108.49,15.86Z" style="fill:#231815"/><path d="M13,126a1.93,1.93,0,0,0-.57,1.37,2,2,0,0,0,.57,1.38,2,2,0,0,0,1.37.56,2,2,0,0,0,1.38-.56,2,2,0,0,0,.56-1.38A1.94,1.94,0,0,0,13,126Z" style="fill:#231815"/><path d="M26.52,104.58H23.61v-2.91a1.94,1.94,0,1,0-3.88,0v2.91H16.82a1.94,1.94,0,0,0,0,3.88h2.91v2.91a1.94,1.94,0,1,0,3.88,0v-2.91h2.91a1.94,1.94,0,1,0,0-3.88Z" style="fill:#231815"/><path d="M45.45,125.12a5.18,5.18,0,1,1-5.17-4.94A5.06,5.06,0,0,1,45.45,125.12Z" style="fill:#ffb71b"/><path d="M40.28,131.52a6.4,6.4,0,1,1,6.64-6.4A6.53,6.53,0,0,1,40.28,131.52Zm0-9.87A3.48,3.48,0,1,0,44,125.12,3.6,3.6,0,0,0,40.28,121.65Z" style="fill:#231815"/><path d="M85.69,86.26c-13.32,0-24.12-10.37-24.12-23.17a23.16,23.16,0,0,1,11-19.45c3.91-2.44,19-6.24,7.34-10.22a39.85,39.85,0,0,0-12.84-2.19c-20.56,0-37.23,16-37.23,35.77s16.67,35.77,37.23,35.77a38.13,38.13,0,0,0,26.1-10.28c2.64-2.49,7-6.86,1.19-7.75C91.51,84.3,88.47,86.26,85.69,86.26Z" style="fill:#ffb71b"/><path d="M67.08,104.23c-21.34,0-38.69-16.7-38.69-37.23S45.74,29.77,67.08,29.77A41,41,0,0,1,80.39,32c2.24.76,5.22,2.06,5.31,4.43.11,2.94-4.13,4.75-8.61,6.66a32.75,32.75,0,0,0-3.73,1.75A21.71,21.71,0,0,0,63,63.09c0,12,10.16,21.71,22.65,21.71a12.57,12.57,0,0,0,3.41-.72,12.49,12.49,0,0,1,5.49-.79c2.22.34,3.56,1.22,4,2.61.77,2.49-1.87,5.25-4.4,7.66A39.78,39.78,0,0,1,67.08,104.23Zm0-71.53C47.36,32.7,31.31,48.09,31.31,67s16.05,34.31,35.77,34.31a36.8,36.8,0,0,0,25.1-9.88C95.81,88,95.86,87,95.79,86.77c0,0-.37-.39-1.64-.58a10.1,10.1,0,0,0-4.2.69,14.78,14.78,0,0,1-4.26.84c-14.11,0-25.58-11-25.58-24.63a24.68,24.68,0,0,1,11.7-20.7,33.74,33.74,0,0,1,4.13-2c2-.84,6.6-2.82,6.84-3.89h0s-.39-.73-3.33-1.74A38.24,38.24,0,0,0,67.08,32.7Z" style="fill:#231815"/><path d="M53.68,59.5a4.09,4.09,0,1,1-4.31-3.71A4,4,0,0,1,53.68,59.5Z" style="fill:#231815"/><path d="M58,77.89c-.3,0-.6,0-.9,0a7.06,7.06,0,0,1-5.79-3.33,1.42,1.42,0,1,1,2.45-1.42A4.36,4.36,0,0,0,57.31,75a10.17,10.17,0,0,0,5.85-1.47A1.42,1.42,0,0,1,64.58,76,13.34,13.34,0,0,1,58,77.89Z" style="fill:#231815"/><path d="M122.78,108.5c.43-15.28-1.55-18.28-1.55-18.28,0-2-2.49-3.63-5.58-3.67l-29-.35c-3.09,0-5.61,1.54-5.63,3.53,0,0-1.54,3.86-1.64,17.46s1.38,19.12,1.38,19.12a2.13,2.13,0,0,0,0,.27c0,.12,0,.22,0,.33,0,4.19,9,4.58,20.08,4.73s20.11,0,20.14-4.24c0-.1,0-.2,0-.31s0-.18,0-.27S122.34,123.78,122.78,108.5Z" style="fill:#fff"/><path d="M105,133.13l-4.17,0c-10.6-.14-21.56-.28-21.53-6.2,0-.13,0-.23,0-.32v0c-.24-1-1.49-6.73-1.39-19.37.08-12,1.3-16.63,1.65-17.73a4.17,4.17,0,0,1,1.33-2.7,8.09,8.09,0,0,1,5.77-2l29,.36c3.78,0,6.76,2.1,7,4.74.61,1.34,1.93,5.77,1.56,18.71h0c-.38,13.25-1.46,17.51-1.82,18.59,0,.13,0,.23,0,.34a4,4,0,0,1-1.24,2.83C118.74,132.69,113,133.13,105,133.13ZM86.53,87.66a5.3,5.3,0,0,0-3.59,1.18,1.33,1.33,0,0,0-.47.9,1.39,1.39,0,0,1-.1.53s-1.45,4-1.54,16.94c-.09,13.17,1.32,18.67,1.33,18.73a1.64,1.64,0,0,1,0,.32l0,.23a1.38,1.38,0,0,1,0,.29c0,.07,0,.14,0,.21,0,2.94,12.12,3.1,18.64,3.19s16.1.19,18.29-2a1.1,1.1,0,0,0,.37-.82v-.06l0-.18a.57.57,0,0,1,0-.13,2.11,2.11,0,0,1,0-.26,1.47,1.47,0,0,1,.13-.54c0-.1,1.26-3.34,1.67-17.77h0C121.72,94.27,120,91.05,120,91a1.52,1.52,0,0,1-.24-.83c0-1-1.76-2.15-4.14-2.19l-29-.35Zm36.25,20.84h0Z" style="fill:#231815"/><path d="M121.32,75.25l-40.15-.49-.08,10.07.06.11c0,2.1,9,3.91,20,4s20-1.44,20.07-3.54c0-.06,0-.1,0-.15h0Z" style="fill:#ef90b9"/><path d="M102.48,90.46h-1.35c-3.47,0-20.36-.5-21.4-5.06a1.37,1.37,0,0,1-.1-.57l.08-10.07a1.5,1.5,0,0,1,.43-1,1.61,1.61,0,0,1,1-.41l40.15.49a1.46,1.46,0,0,1,1.44,1.47l-.06,10a1.86,1.86,0,0,1,0,.33,2.47,2.47,0,0,1-.79,1.56C119.56,89.47,110.69,90.46,102.48,90.46Zm-19.9-5.78c1,.93,7.32,2.7,18.59,2.84,11.07.16,17.45-1.41,18.58-2.33a1.35,1.35,0,0,1,0-.28l.06-8.21-37.23-.46-.07,8.31A.28.28,0,0,1,82.58,84.68ZM80,85.82Zm0,0Z" style="fill:#231815"/><path d="M121.3,75.75a2.28,2.28,0,0,0,0-.45c0-4.64-9-8.48-20-8.62s-20.14,3.49-20.17,8.11a2.93,2.93,0,0,0,.28,1.31,2.63,2.63,0,0,0,1.21,1.38,7.68,7.68,0,0,0,2,1c3.57,1.36,9.72,2.29,16.73,2.38,11.06.14,20.05-1.91,20.06-4.56A1.44,1.44,0,0,0,121.3,75.75Z" style="fill:#ef90b9"/><path d="M102.33,82.31h-1c-7-.09-13.39-1-17.23-2.48a9.28,9.28,0,0,1-2.34-1.15A4.1,4.1,0,0,1,80,76.61a4.49,4.49,0,0,1-.36-1.83,6,6,0,0,1,2-4.22c3.41-3.35,11.1-5.44,19.65-5.35,12.3.16,21.54,4.5,21.5,10.1,0,.1,0,.2,0,.3a2.33,2.33,0,0,1,.08.69,3,3,0,0,1-1,2.14C119.13,81.14,110.26,82.31,102.33,82.31ZM82.81,75.72a1.92,1.92,0,0,0,.61.55,6.49,6.49,0,0,0,1.67.8c3.59,1.37,9.65,2.23,16.28,2.31,11.19.14,17.83-1.9,18.56-3.13a1.51,1.51,0,0,1-.07-.76,1,1,0,0,0,0-.17c0-3.3-7.61-7-18.6-7.18-7.69-.09-14.73,1.72-17.57,4.51a3.16,3.16,0,0,0-1.12,2.15,1.78,1.78,0,0,0,.15.71,1.8,1.8,0,0,1,.08.21Z" style="fill:#231815"/><path d="M107.24,64.5a2.59,2.59,0,0,1-1.37-2.67,2.66,2.66,0,0,1,.07-.37,8.67,8.67,0,0,0,2.28-5.9c0-4.55-3.17-8.27-7.16-8.33s-7.25,3.61-7.28,8.15a8.72,8.72,0,0,0,2.37,6.16c0,.16,0,.32,0,.5a2.49,2.49,0,0,1-1.28,2.41c-5.09,1.11-8.64,3.62-8.66,6.57,0,4.06,5.89,4.45,14.17,4.54s15.81-.1,15.83-4.18C116.28,68.34,112.57,65.69,107.24,64.5Z" style="fill:#ffb71b"/><path d="M103.12,77.05l-2.72,0c-7.33-.09-15.65-.19-15.61-6,0-3.57,3.68-6.6,9.57-7.93a1.31,1.31,0,0,0,.36-.95,10.3,10.3,0,0,1-2.41-6.76,10.19,10.19,0,0,1,2.94-7.18,8.29,8.29,0,0,1,5.83-2.42c4.78.06,8.64,4.46,8.6,9.8a10.2,10.2,0,0,1-2.38,6.55,1.07,1.07,0,0,0,.53,1c6.14,1.43,9.92,4.58,9.89,8.25a4.2,4.2,0,0,1-1.29,3C114.15,76.66,109.15,77.05,103.12,77.05ZM101,48.7a5.27,5.27,0,0,0-3.7,1.58,7.21,7.21,0,0,0-2.06,5.11,7.29,7.29,0,0,0,2,5.13,1.46,1.46,0,0,1,.4.92l0,.15c0,.13,0,.26,0,.4a4,4,0,0,1-2.1,3.78,1.28,1.28,0,0,1-.33.11c-4.41,1-7.49,3.08-7.5,5.15,0,2.45,4.45,3,12.72,3.07,4.48.06,12,.16,13.94-1.76a1.24,1.24,0,0,0,.41-1c0-2.17-3.22-4.4-7.87-5.44a1.54,1.54,0,0,1-.46-.19,4,4,0,0,1-2-4.17,2,2,0,0,1,0-.27,1.81,1.81,0,0,1,.4-.85,7.26,7.26,0,0,0,1.88-4.9c0-3.74-2.54-6.81-5.71-6.85Z" style="fill:#231815"/><polygon points="131.85 78.03 126.32 72.5 100.27 98.56 74.22 72.5 68.69 78.03 94.75 104.08 68.69 130.13 74.22 135.66 100.27 109.6 126.32 135.66 131.85 130.13 105.79 104.08 131.85 78.03" style="fill:#d94434"/><path d="M74.22,137.06h0a1.43,1.43,0,0,1-1-.41l-5.52-5.53a1.39,1.39,0,0,1,0-2l25.06-25.06L67.7,79a1.41,1.41,0,0,1,0-2l5.52-5.52a1.44,1.44,0,0,1,2,0l25.06,25.06,25.06-25.06a1.39,1.39,0,0,1,2,0L132.84,77a1.43,1.43,0,0,1,.41,1,1.41,1.41,0,0,1-.41,1l-25.06,25.06,25.06,25.06a1.41,1.41,0,0,1,.41,1,1.43,1.43,0,0,1-.41,1l-5.53,5.52a1.39,1.39,0,0,1-2,0l-25.06-25.06L75.21,136.65A1.41,1.41,0,0,1,74.22,137.06Zm26.05-28.86a1.4,1.4,0,0,1,1,.41l25.06,25.06,3.54-3.54L104.8,105.07a1.4,1.4,0,0,1,0-2L129.86,78l-3.54-3.54L101.26,99.55a1.39,1.39,0,0,1-2,0L74.22,74.49,70.68,78l25.06,25.06a1.4,1.4,0,0,1,0,2L70.68,130.13l3.54,3.54,25.06-25.06A1.4,1.4,0,0,1,100.27,108.2Z" style="fill:#231815"/></svg>