<svg id="圖層_1" data-name="圖層 1" xmlns="http://www.w3.org/2000/svg" viewBox="0 0 150 150"><title>ms-36</title><path d="M126.3,53.75h2.91v2.91a1.94,1.94,0,0,0,3.88,0V53.75H136a1.94,1.94,0,0,0,0-3.88h-2.91V47a1.94,1.94,0,0,0-3.88,0v2.91H126.3a1.94,1.94,0,1,0,0,3.88Z" style="fill:#231815"/><path d="M114.06,33.46a5.18,5.18,0,1,1-5.17-4.93A5.06,5.06,0,0,1,114.06,33.46Z" style="fill:#e96bb0"/><path d="M108.89,39.86a6.4,6.4,0,1,1,6.63-6.4A6.53,6.53,0,0,1,108.89,39.86Zm0-9.87a3.48,3.48,0,1,0,3.71,3.47A3.6,3.6,0,0,0,108.89,30Z" style="fill:#231815"/><path d="M12.63,117.42a1.91,1.91,0,0,0-.57,1.36,2,2,0,0,0,.57,1.38,2,2,0,0,0,1.37.56,2,2,0,0,0,1.38-.56,2,2,0,0,0,.56-1.38,1.94,1.94,0,0,0-3.31-1.36Z" style="fill:#231815"/><path d="M26.12,96H23.21V93.08a1.94,1.94,0,0,0-3.88,0V96H16.42a1.94,1.94,0,0,0,0,3.88h2.91v2.91a1.94,1.94,0,0,0,3.88,0V99.87h2.91a1.94,1.94,0,1,0,0-3.88Z" style="fill:#231815"/><path d="M45.05,116.54a5.18,5.18,0,1,1-5.17-4.94A5.05,5.05,0,0,1,45.05,116.54Z" style="fill:#ffb71b"/><path d="M39.88,122.94a6.4,6.4,0,1,1,6.64-6.4A6.53,6.53,0,0,1,39.88,122.94Zm0-9.88a3.48,3.48,0,1,0,3.71,3.48A3.6,3.6,0,0,0,39.88,113.06Z" style="fill:#231815"/><path d="M106,69.2c0,10.61-7.2,17.17-16.08,17.17S73.88,79.81,73.88,69.2,83.48,50.48,90,50,106,58.6,106,69.2Z" style="fill:#d94434"/><path d="M90,87.77C79.83,87.77,72.47,80,72.47,69.2c0-11.6,10.47-20.08,17.39-20.6,3.17-.23,6.89,1.4,10.22,4.49a22.56,22.56,0,0,1,7.37,16.11C107.45,80,100.09,87.77,90,87.77Zm.51-36.38h-.4c-6,.45-14.79,8.12-14.79,17.8C75.28,78.48,81.32,85,90,85s14.68-6.48,14.68-15.76a19.72,19.72,0,0,0-6.47-14.05C95.6,52.77,92.76,51.39,90.47,51.39Z" style="fill:#231815"/><path d="M125,88.2c0,10.61-7.2,17.17-16.08,17.17S92.88,98.81,92.88,88.2,102.48,69.48,109,69,125,77.6,125,88.2Z" style="fill:#d94434"/><path d="M109,106.77c-10.13,0-17.49-7.81-17.49-18.57,0-11.6,10.47-20.08,17.39-20.6,3.18-.23,6.89,1.4,10.22,4.49a22.56,22.56,0,0,1,7.37,16.11C126.45,99,119.09,106.77,109,106.77Zm.51-36.38h-.4c-6,.45-14.79,8.12-14.79,17.8,0,9.28,6,15.76,14.68,15.76s14.68-6.48,14.68-15.76a19.72,19.72,0,0,0-6.47-14C114.6,71.77,111.76,70.39,109.47,70.39Z" style="fill:#231815"/><path d="M74.16,103.53,66.57,82.26l-11.23,4,7.54,21.15a5.66,5.66,0,0,0-2.28,6.77,5.58,5.58,0,0,0,7.06,3.54,5.41,5.41,0,0,0,3.48-4.3,5.41,5.41,0,0,0,5.42,1.13,5.6,5.6,0,0,0,3.23-7.22A5.67,5.67,0,0,0,74.16,103.53Z" style="fill:#fff"/><path d="M65.91,119.5a7.27,7.27,0,0,1-4.77-12.61L54,86.76a1.47,1.47,0,0,1,.89-1.87l11.23-4a1.47,1.47,0,0,1,1.87.89l7.25,20.32a7.22,7.22,0,0,1,6,4.76,7.07,7.07,0,0,1-4.12,9.09,6.82,6.82,0,0,1-5.1-.25,6.79,6.79,0,0,1-3.8,3.42A6.49,6.49,0,0,1,65.91,119.5Zm-8.7-32.35,7.05,19.78a1.46,1.46,0,0,1-.62,1.75,4.28,4.28,0,0,0,3.53,7.68,4,4,0,0,0,2.53-3.16,1.46,1.46,0,0,1,2.41-.86,3.92,3.92,0,0,0,4,.84,4.13,4.13,0,0,0,2.34-5.35A4.22,4.22,0,0,0,74.25,105a1.47,1.47,0,0,1-1.47-1l-7.1-19.89Z" style="fill:#231815"/><path d="M76.87,72.46c1.41-9.93,2.53-24.63-7.66-30.61-4.69-2.75-9.42-1.74-13.39,1.63-.29.26-.88,1.1-1.21,1.24-.86.36-2.29-.19-3.38-.36a16.12,16.12,0,0,0-8.46,1.13C36.49,47.8,30.94,52.66,30,59.59,28.87,68,34.17,76.72,39.43,82.83c3.47,4,18.86,13.57,18.86,13.57l13.83.16s3.06-12.87,3.35-14.9C75.88,78.67,76.42,75.58,76.87,72.46Z" style="fill:#d99131"/><path d="M72.12,98h0l-13.83-.16a1.46,1.46,0,0,1-.76-.22c-.63-.4-15.61-9.74-19.18-13.86-4.22-4.88-11.1-14.55-9.78-24.39.91-6.74,6-12.45,13.71-15.27a17.54,17.54,0,0,1,9.19-1.21c.35.06.72.14,1.09.23a7.06,7.06,0,0,0,1.41.24l.33-.37a5.48,5.48,0,0,1,.59-.63C59.64,38.32,65,37.68,70,40.59c10.57,6.2,10,20.4,8.37,32.07h0c-.21,1.47-.44,2.92-.67,4.37-.26,1.63-.51,3.24-.73,4.83-.29,2.08-3.25,14.51-3.38,15A1.46,1.46,0,0,1,72.12,98ZM58.71,94.94,71,95.08c1-4.14,2.85-12.17,3-13.62s.48-3.24.74-4.89c.22-1.43.45-2.87.66-4.32,1.53-10.77,2.12-23.82-7-29.14-4.87-2.86-9-.77-11.7,1.49l-.26.3a3.87,3.87,0,0,1-1.34,1.17A5.44,5.44,0,0,1,51.88,46c-.3-.07-.6-.14-.87-.18a14.6,14.6,0,0,0-7.74,1.06c-6.64,2.44-11.06,7.26-11.82,12.92-1.17,8.69,5.19,17.57,9.09,22.08C43.54,85.34,56.43,93.5,58.71,94.94ZM76.87,72.46h0Z" style="fill:#231815"/><path d="M55.52,44.73c-1.68,1.31-4.31.51-6.11,1.66s-3.54,3.85-4.58,5.8c-2.19,4.13-3.3,9.41-1.51,13.89,3.57,9,10.54,16.34,15.61,24.47.32.52,2.29,4.51,3,4.56l8.7.58s8.61-26.91,5-41.68C70.38,33.21,55.53,44.71,55.52,44.73Z" style="fill:#edab40"/><path d="M55,47.93a2,2,0,1,1-2.56-1.37A2.06,2.06,0,0,1,55,47.93Z" style="fill:#d99131"/><path d="M49.74,48.11a2,2,0,1,1-2.56-1.37A2.06,2.06,0,0,1,49.74,48.11Z" style="fill:#d99131"/><path d="M51.81,47.55a1.33,1.33,0,0,1-.71,1.71,1.37,1.37,0,1,1,.71-1.71Z" style="fill:#d99131"/><path d="M47.82,50.12a2,2,0,1,1-2.56-1.37A2.07,2.07,0,0,1,47.82,50.12Z" style="fill:#d99131"/><path d="M45.46,53.6a2,2,0,1,1-3.67,1.31,2,2,0,1,1,3.67-1.31Z" style="fill:#d99131"/><path d="M46.12,66a2,2,0,1,1-3.69,1.32A2,2,0,1,1,46.12,66Z" style="fill:#d99131"/><path d="M50.1,70.81a2,2,0,1,1-2.56-1.36A2.05,2.05,0,0,1,50.1,70.81Z" style="fill:#d99131"/><path d="M45.61,57.41A2,2,0,1,1,43,56.05,2.06,2.06,0,0,1,45.61,57.41Z" style="fill:#d99131"/><path d="M44.9,61.53a2,2,0,1,1-2.56-1.36A2.05,2.05,0,0,1,44.9,61.53Z" style="fill:#d99131"/><path d="M52.91,79.62a2,2,0,1,1-2.56-1.36A2.05,2.05,0,0,1,52.91,79.62Z" style="fill:#d99131"/><path d="M52,77.13a2,2,0,1,1-2.56-1.37A2.06,2.06,0,0,1,52,77.13Z" style="fill:#d99131"/><path d="M55.83,83.68a2,2,0,1,1-2.57-1.36A2.06,2.06,0,0,1,55.83,83.68Z" style="fill:#d99131"/><path d="M59.12,88.17a2,2,0,1,1-2.56-1.37A2.06,2.06,0,0,1,59.12,88.17Z" style="fill:#d99131"/><path d="M61.73,91.77a2,2,0,1,1-2.56-1.37A2.06,2.06,0,0,1,61.73,91.77Z" style="fill:#d99131"/><path d="M48.75,54.31a1.08,1.08,0,1,1-1.41-.74A1.14,1.14,0,0,1,48.75,54.31Z" style="fill:#d99131"/><path d="M50.29,50.17a1.07,1.07,0,1,1-1.39-.74A1.12,1.12,0,0,1,50.29,50.17Z" style="fill:#d99131"/><path d="M46.06,69.53a1.08,1.08,0,1,1-1.4-.74A1.12,1.12,0,0,1,46.06,69.53Z" style="fill:#d99131"/><path d="M47.16,61a1.07,1.07,0,1,1-1.39-.74A1.11,1.11,0,0,1,47.16,61Z" style="fill:#d99131"/><path d="M46.74,68.8a1.07,1.07,0,1,1-1.4-.74A1.12,1.12,0,0,1,46.74,68.8Z" style="fill:#d99131"/><path d="M48.82,74.1a1.07,1.07,0,1,1-2,.71,1.1,1.1,0,0,1,.61-1.45A1.12,1.12,0,0,1,48.82,74.1Z" style="fill:#d99131"/><path d="M55.49,78.52a1.07,1.07,0,1,1-1.4-.75A1.12,1.12,0,0,1,55.49,78.52Z" style="fill:#d99131"/><path d="M57.44,85.56a1.07,1.07,0,1,1-1.4-.74A1.12,1.12,0,0,1,57.44,85.56Z" style="fill:#d99131"/><path d="M64.35,93.29a1.08,1.08,0,1,1-2,.72,1.08,1.08,0,1,1,2-.72Z" style="fill:#d99131"/><path d="M45.46,58.31a1.15,1.15,0,0,1-.62,1.47,1.18,1.18,0,0,1-.79-2.21A1.14,1.14,0,0,1,45.46,58.31Z" style="fill:#d99131"/><path d="M44,62.06a1.07,1.07,0,1,1-1.4-.75A1.13,1.13,0,0,1,44,62.06Z" style="fill:#d99131"/></svg>