<svg id="圖層_1" data-name="圖層 1" xmlns="http://www.w3.org/2000/svg" viewBox="0 0 150 150"><title>ms-calendar</title><path d="M1.92,134.62V42.31H148.08v92.31A15.43,15.43,0,0,1,132.69,150H17.31A15.43,15.43,0,0,1,1.92,134.62Z" style="fill:#fff"/><path d="M148.08,26.92V50H1.92V26.92A15.43,15.43,0,0,1,17.31,11.54H132.69A15.43,15.43,0,0,1,148.08,26.92Z" style="fill:#f44336"/><circle cx="109.62" cy="26.92" r="11.54" style="fill:#b71c1c"/><circle cx="40.38" cy="26.92" r="11.54" style="fill:#b71c1c"/><path d="M109.62,0a7.71,7.71,0,0,0-7.7,7.69V26.92a7.7,7.7,0,1,0,15.39,0V7.69A7.71,7.71,0,0,0,109.62,0Z" style="fill:#fff"/><path d="M40.38,0a7.71,7.71,0,0,0-7.69,7.69V26.92a7.7,7.7,0,1,0,15.39,0V7.69A7.71,7.71,0,0,0,40.38,0Z" style="fill:#fff"/><rect x="32.69" y="65.38" width="15.38" height="15.38" style="fill:#90a4ae"/><rect x="55.77" y="65.38" width="15.38" height="15.38" style="fill:#90a4ae"/><rect x="78.85" y="65.38" width="15.38" height="15.38" style="fill:#90a4ae"/><rect x="101.92" y="65.38" width="15.38" height="15.38" style="fill:#90a4ae"/><rect x="32.69" y="88.46" width="15.38" height="15.38" style="fill:#90a4ae"/><rect x="55.77" y="88.46" width="15.38" height="15.38" style="fill:#90a4ae"/><rect x="78.85" y="88.46" width="15.38" height="15.38" style="fill:#90a4ae"/><rect x="101.92" y="88.46" width="15.38" height="15.38" style="fill:#90a4ae"/><rect x="32.69" y="111.54" width="15.38" height="15.38" style="fill:#90a4ae"/><rect x="55.77" y="111.54" width="15.38" height="15.38" style="fill:#90a4ae"/><rect x="78.85" y="111.54" width="15.38" height="15.38" style="fill:#90a4ae"/><rect x="101.92" y="111.54" width="15.38" height="15.38" style="fill:#90a4ae"/></svg>