<?xml version="1.0" encoding="utf-8"?>
<!-- Generator: Adobe Illustrator 22.1.0, SVG Export Plug-In . SVG Version: 6.00 Build 0)  -->
<svg version="1.1" id="圖層_1" xmlns="http://www.w3.org/2000/svg" xmlns:xlink="http://www.w3.org/1999/xlink" x="0px" y="0px"
	 viewBox="0 0 128 128" style="enable-background:new 0 0 128 128;" xml:space="preserve">
<style type="text/css">
	.st0{fill:#FFFFFF;}
</style>
<title>shopping-box</title>
<g>
	<g>
	</g>
	<path class="st0" d="M64,17c26.5,0,48,21.5,48,48s-21.5,48-48,48S16,91.5,16,65S37.5,17,64,17 M64,11c-29.8,0-54,24.2-54,54
		s24.2,54,54,54s54-24.2,54-54S93.8,11,64,11L64,11z"/>
	<g>
		<path class="st0" d="M89.9,63.4L52.4,41.8c-1.2-0.7-2.7,0.2-2.7,1.6v43.3c0,1.4,1.5,2.3,2.7,1.6l37.5-21.6
			C91.1,65.9,91.1,64.1,89.9,63.4z"/>
	</g>
</g>
</svg>
