<?xml version="1.0" encoding="utf-8"?>
<!-- Generator: Adobe Illustrator 22.0.1, SVG Export Plug-In . SVG Version: 6.00 Build 0)  -->
<svg version="1.1" id="圖層_1" xmlns="http://www.w3.org/2000/svg" xmlns:xlink="http://www.w3.org/1999/xlink" x="0px" y="0px"
	 viewBox="0 0 128 128" style="enable-background:new 0 0 128 128;" xml:space="preserve">
<style type="text/css">
	.st0{fill:#D5D5D5;}
</style>
<title>shopping-box</title>
<path class="st0" d="M14.5,38.3l46.6,26.4c0.8,0.5,1.8,0.5,2.6,0l46.6-26.4c1.3-0.7,1.7-2.3,1-3.6c-0.3-0.5-0.6-0.8-1.1-1.1
	L63.6,10.3c-0.7-0.4-1.6-0.4-2.4,0L14.6,33.6c-1.3,0.7-1.8,2.2-1.2,3.5C13.7,37.6,14,38,14.5,38.3z M17.1,33.7L17,38.3L63.6,15h-2.4
	l46.7,23.3l-0.1-4.7L61.1,60.1h2.6L17.1,33.7z M59.8,64.6v50.8c0,1.5,1.2,2.6,2.6,2.6c0.5,0,0.9-0.1,1.3-0.3l49.8-28.1
	c0.8-0.5,1.3-1.3,1.3-2.3V53.1c0.1-1.5-1-2.7-2.5-2.8s-2.7,1-2.8,2.5c0,0.1,0,0.2,0,0.3v34.2l1.4-2.3l-49.8,28.1l3.9,2.3V64.6
	c-0.1-1.5-1.3-2.6-2.8-2.5C60.9,62.2,59.9,63.2,59.8,64.6z M63.8,113.1L17.2,85l1.3,2.3V37.5c-0.1-1.5-1.3-2.6-2.8-2.5
	c-1.3,0.1-2.4,1.1-2.5,2.5v49.7c0,0.9,0.5,1.8,1.3,2.3l46.6,28.1c1.3,0.8,2.9,0.4,3.6-0.9S65.1,113.8,63.8,113.1L63.8,113.1
	L63.8,113.1z M26.9,58.4l15.6,9.3c1.3,0.8,2.9,0.3,3.6-0.9s0.3-2.9-0.9-3.6l-15.6-9.3c-1.3-0.8-2.9-0.3-3.6,0.9
	C25.2,56.1,25.6,57.7,26.9,58.4z"/>
</svg>
