<?xml version="1.0" encoding="utf-8"?>
<!-- Generator: Adobe Illustrator 16.0.3, SVG Export Plug-In . SVG Version: 6.00 Build 0)  -->
<!DOCTYPE svg PUBLIC "-//W3C//DTD SVG 1.1//EN" "http://www.w3.org/Graphics/SVG/1.1/DTD/svg11.dtd">
<svg version="1.1" id="圖層_1" xmlns="http://www.w3.org/2000/svg" xmlns:xlink="http://www.w3.org/1999/xlink" x="0px" y="0px"
	 width="42px" height="42px" viewBox="0 0 42 42" enable-background="new 0 0 42 42" xml:space="preserve">
<g>
	<path fill="#00C300" d="M34.403,0.038L7.656,0c-4.2-0.006-7.611,3.395-7.617,7.596L0.002,34.344
		c-0.006,4.201,3.396,7.613,7.596,7.619L34.344,42c4.202,0.006,7.611-3.395,7.617-7.598l0.037-26.748
		C42.004,3.454,38.604,0.043,34.403,0.038z"/>
	<g>
		<g>
			<path fill="#FFFFFF" d="M36.298,19.153c0-6.842-6.86-12.409-15.291-12.409c-8.431,0-15.291,5.566-15.291,12.409
				c0,6.134,5.44,11.271,12.788,12.243c0.498,0.107,1.176,0.328,1.347,0.754c0.154,0.387,0.101,0.992,0.049,1.383
				c0,0-0.179,1.078-0.218,1.309c-0.067,0.387-0.308,1.512,1.324,0.824c1.633-0.688,8.806-5.186,12.014-8.878H33.02
				C35.236,24.358,36.298,21.892,36.298,19.153z M15.021,23.225h-3.038c-0.442,0-0.802-0.359-0.802-0.803v-6.076
				c0-0.442,0.36-0.802,0.802-0.802c0.442,0,0.802,0.36,0.802,0.802v5.274h2.236c0.443,0,0.802,0.36,0.802,0.802
				C15.823,22.865,15.464,23.225,15.021,23.225z M18.164,22.422c0,0.443-0.36,0.803-0.801,0.803c-0.442,0-0.802-0.359-0.802-0.803
				v-6.076c0-0.442,0.36-0.802,0.802-0.802c0.441,0,0.801,0.36,0.801,0.802V22.422z M25.478,22.422c0,0.347-0.22,0.652-0.548,0.761
				c-0.083,0.028-0.169,0.042-0.255,0.042c-0.25,0-0.489-0.12-0.641-0.321l-3.114-4.24v3.759c0,0.443-0.359,0.803-0.802,0.803
				s-0.802-0.359-0.802-0.803v-6.076c0-0.346,0.221-0.651,0.548-0.761c0.083-0.028,0.168-0.042,0.254-0.042
				c0.25,0,0.49,0.12,0.641,0.321l3.114,4.24v-3.759c0-0.442,0.36-0.802,0.802-0.802c0.443,0,0.802,0.36,0.802,0.802V22.422z
				 M30.394,18.582c0.442,0,0.802,0.36,0.802,0.802c0,0.442-0.359,0.801-0.802,0.801h-2.236v1.435h2.236
				c0.441,0,0.802,0.36,0.802,0.802c0,0.443-0.36,0.803-0.802,0.803h-3.038c-0.441,0-0.802-0.359-0.802-0.803v-3.036
				c0-0.001,0-0.001,0-0.001v-3.036c0-0.001,0-0.001,0-0.002c0-0.442,0.359-0.802,0.802-0.802h3.038c0.442,0,0.802,0.36,0.802,0.802
				c0,0.442-0.359,0.802-0.802,0.802h-2.236v1.434H30.394z"/>
		</g>
	</g>
</g>
</svg>
