<svg id="圖層_1" data-name="圖層 1" xmlns="http://www.w3.org/2000/svg" viewBox="0 0 150 150"><title>ms-08</title><path d="M96.93,33.61C77.69,33.61,62,46.12,62,61.5s15.66,27.9,34.9,27.9a43.15,43.15,0,0,0,7.3-.61l.2,0h.13l.23,0,.13,0,.2.07.14.05.18.1.13.08a1.54,1.54,0,0,1,.19.17l.08.07A108.29,108.29,0,0,0,115,98.12a117.09,117.09,0,0,0,1.38-12,2,2,0,0,1,.94-2c9.1-5.25,14.54-13.71,14.54-22.65C131.83,46.12,116.17,33.61,96.93,33.61Z" style="fill:#fff;stroke:#231815;stroke-linecap:round;stroke-linejoin:round;stroke-width:2.92612px"/><path d="M26.69,112.15a2,2,0,0,1,1,2,109.54,109.54,0,0,0,1.46,12,113.66,113.66,0,0,0,9.64-8.77s0,0,.08-.07l.2-.17.13-.08.2-.1.14-.05.22-.07.13,0,.24,0h.14l.21,0a48.12,48.12,0,0,0,7.71.61C68.5,117.4,85,104.89,85,89.5S68.5,61.61,48.18,61.61,11.33,74.12,11.33,89.5C11.33,98.44,17.07,106.9,26.69,112.15Z" style="fill:#fff"/><path d="M48.18,61.61C68.5,61.61,85,74.12,85,89.5S68.5,117.4,48.18,117.4a48.12,48.12,0,0,1-7.71-.61l-.21,0h-.14l-.24,0-.13,0-.22.07-.14.05-.2.1-.13.08-.2.17s-.06,0-.08.07a113.66,113.66,0,0,1-9.64,8.77,109.54,109.54,0,0,1-1.46-12,2,2,0,0,0-1-2C17.07,106.9,11.33,98.44,11.33,89.5,11.33,74.12,27.86,61.61,48.18,61.61Z" style="fill:#fff;stroke:#231815;stroke-linecap:round;stroke-linejoin:round;stroke-width:2.92612px"/><path d="M107.92,63.46a2,2,0,0,1,2.75,0,2,2,0,0,1,.57,1.38,2,2,0,0,1-.57,1.36,1.94,1.94,0,0,1-3.31-1.36A2,2,0,0,1,107.92,63.46ZM95,63.46a2,2,0,0,1,2.74,0,2,2,0,0,1,.57,1.38,2,2,0,0,1-.57,1.36,1.93,1.93,0,0,1-2.74,0,2,2,0,0,1-.57-1.36A2,2,0,0,1,95,63.46Zm-12.93,0a2,2,0,0,1,2.74,0,1.94,1.94,0,0,1,0,2.74,2,2,0,0,1-1.38.57,2,2,0,0,1-1.37-.57,1.93,1.93,0,0,1,0-2.74Z" style="fill:#fff"/><path d="M112.31,123.1a2,2,0,0,0-.58,1.38,2,2,0,0,0,.58,1.37,1.91,1.91,0,0,0,1.36.57,1.93,1.93,0,0,0,1.94-1.94,2,2,0,0,0-.56-1.38A2,2,0,0,0,112.31,123.1Z" style="fill:#231815"/><path d="M87.89,131.27a1.94,1.94,0,0,0,1.94-1.94v-2.91h2.91a1.94,1.94,0,1,0,0-3.88H89.83v-2.91a1.94,1.94,0,1,0-3.87,0v2.91H83.05a1.94,1.94,0,0,0,0,3.88H86v2.91A1.93,1.93,0,0,0,87.89,131.27Z" style="fill:#231815"/><path d="M67.13,132.8a2,2,0,0,0-.57,1.38,1.91,1.91,0,0,0,.57,1.36,1.91,1.91,0,0,0,2.74,0,1.91,1.91,0,0,0,.57-1.36,2,2,0,0,0-.57-1.38A2,2,0,0,0,67.13,132.8Z" style="fill:#231815"/><path d="M10,22.61h2.91v2.91a1.94,1.94,0,0,0,3.88,0V22.61h2.91a1.94,1.94,0,0,0,0-3.88H16.76V15.82a1.94,1.94,0,0,0-3.88,0v2.91H10a1.94,1.94,0,0,0,0,3.88Z" style="fill:#231815"/><path d="M47.39,29a1.91,1.91,0,0,0,0,2.74,1.9,1.9,0,0,0,1.36.56,1.91,1.91,0,0,0,1.94-1.93A2,2,0,0,0,50.13,29,2,2,0,0,0,47.39,29Z" style="fill:#231815"/><path d="M52.23,14.45a2,2,0,0,0-.57,1.38A1.94,1.94,0,0,0,55,17.19a2,2,0,0,0,0-2.74A2,2,0,0,0,52.23,14.45Z" style="fill:#231815"/><path d="M96.35,66.77a2,2,0,0,0,1.37-.57,2,2,0,0,0,.57-1.36,2,2,0,0,0-.57-1.38,2,2,0,0,0-2.74,0,2,2,0,0,0-.57,1.38,1.95,1.95,0,0,0,1.94,1.93Z" style="fill:#231815"/><path d="M83.42,66.77a2,2,0,0,0,1.38-.57,1.94,1.94,0,0,0,0-2.74,2,2,0,0,0-2.74,0,1.93,1.93,0,0,0,0,2.74A2,2,0,0,0,83.42,66.77Z" style="fill:#231815"/><path d="M109.3,66.77a2,2,0,0,0,1.37-.57,2,2,0,0,0,.57-1.36,2,2,0,0,0-.57-1.38,2,2,0,0,0-2.75,0,1.94,1.94,0,0,0,1.38,3.31Z" style="fill:#231815"/><ellipse cx="33.96" cy="95.64" rx="5.17" ry="5.25" style="fill:#231815"/><ellipse cx="37.46" cy="100.47" rx="5.17" ry="5.25" style="fill:#231815"/><ellipse cx="43.8" cy="101.64" rx="5.17" ry="5.25" style="fill:#231815"/><ellipse cx="52.96" cy="101.3" rx="5.17" ry="5.25" style="fill:#231815"/><ellipse cx="59.96" cy="99.81" rx="5.17" ry="5.25" style="fill:#231815"/><ellipse cx="64.13" cy="95.3" rx="5.17" ry="5.25" style="fill:#231815"/><ellipse cx="64.63" cy="87.47" rx="5.17" ry="5.25" style="fill:#231815"/><ellipse cx="32.8" cy="87.97" rx="5.17" ry="5.25" style="fill:#231815"/><path d="M57.67,112.29h-18c0-4.64,4-8.41,9-8.41A8.71,8.71,0,0,1,57.67,112.29Z" style="fill:#ec75a9"/><path d="M57.67,112.88a.58.58,0,0,1-.59-.59c0-4.31-3.76-7.81-8.38-7.81s-8.38,3.5-8.38,7.81a.59.59,0,0,1-.6.59.58.58,0,0,1-.59-.59c0-5,4.29-9,9.57-9s9.57,4,9.57,9A.59.59,0,0,1,57.67,112.88Z" style="fill:#231815"/><path d="M66.5,89.93c0-8.7-7.84-15.76-17.5-15.76S31.5,81.23,31.5,89.93c0,8.14,6.85,12.23,15.64,13.06v2a2.17,2.17,0,0,0,3.71,0v-2C59.64,102.16,66.5,98.07,66.5,89.93Z" style="fill:#fbded7"/><path d="M49,106.7h0a3.16,3.16,0,0,1-2.33-1.33.6.6,0,0,1-.11-.34v-1.5c-10-1.09-15.65-6-15.65-13.6,0-9,8.12-16.35,18.1-16.35s18.09,7.33,18.09,16.35c0,7.57-5.69,12.51-15.65,13.6V105a.59.59,0,0,1-.14.38A3.06,3.06,0,0,1,49,106.7Zm-1.25-1.88a1.82,1.82,0,0,0,1.25.69h0a1.81,1.81,0,0,0,1.26-.7V103a.6.6,0,0,1,.54-.59c9.6-.91,15.11-5.45,15.11-12.47,0-8.36-7.58-15.16-16.9-15.16s-16.91,6.8-16.91,15.16c0,7,5.51,11.56,15.11,12.47a.6.6,0,0,1,.54.59Z" style="fill:#231815"/><path d="M55.1,75.93A87.25,87.25,0,0,1,31.69,86.16S30.22,75.79,39.51,70.6c12-6.7,17.78,2,17.78,2s3.13-.7,6.46,4a15.29,15.29,0,0,1,2.56,10.09S61.82,86.62,55.1,75.93Z" style="fill:#fbded7;stroke:#231815;stroke-linecap:round;stroke-linejoin:round;stroke-width:1.4173200000000001px"/><path d="M66.31,87.22c-.2,0-4.75-.12-11.39-10.47a90.07,90.07,0,0,1-23.07,10,.61.61,0,0,1-.75-.49c0-.11-1.42-10.83,8.12-16.16a18.47,18.47,0,0,1,8.89-2.62A12,12,0,0,1,57.57,72h.19c1,0,3.74.42,6.48,4.24A15.85,15.85,0,0,1,66.9,86.71.61.61,0,0,1,66.31,87.22Z" style="fill:#231815"/><path d="M57.78,88.7a2.08,2.08,0,1,1-2.08-2.08A2.09,2.09,0,0,1,57.78,88.7Z" style="fill:#231815"/><path d="M43.78,88.7a2.08,2.08,0,1,1-2.08-2.08A2.09,2.09,0,0,1,43.78,88.7Z" style="fill:#231815"/><path d="M28.41,89.12A2.8,2.8,0,0,0,29.55,93c1,.46,3-.23,3-.23v-3.6S29.44,87.58,28.41,89.12Z" style="fill:#fbded7"/><path d="M69.55,89.12c-1-1.54-4.17,0-4.17,0v3.6s2.05.69,3,.23A2.79,2.79,0,0,0,69.55,89.12Z" style="fill:#fbded7"/><path d="M32.33,92.92A3,3,0,0,1,30,94.07a3.13,3.13,0,0,1,0-6.25,3,3,0,0,1,2.49,1.37" style="fill:#fbded7;stroke:#231815;stroke-linecap:round;stroke-linejoin:round;stroke-width:1.4173200000000001px"/><path d="M66.15,92.53a3.07,3.07,0,0,0,2.39,1.14,3.12,3.12,0,0,0,0-6.24A3.07,3.07,0,0,0,66,88.79" style="fill:#fbded7;stroke:#231815;stroke-linecap:round;stroke-linejoin:round;stroke-width:1.4173200000000001px"/><path d="M54.63,93.24c0,2.7-2.57,4.88-5.75,4.88s-5.75-2.18-5.75-4.88" style="fill:none;stroke:#231815;stroke-linecap:round;stroke-linejoin:round;stroke-width:1.51642px"/><path d="M29.31,46.72a5.18,5.18,0,1,1-5.18-4.94A5.06,5.06,0,0,1,29.31,46.72Z" style="fill:#e96bb0;stroke:#231815;stroke-linecap:round;stroke-linejoin:round;stroke-width:2.92612px"/><path d="M142,109.39a5.18,5.18,0,1,1-5.17-4.94A5.07,5.07,0,0,1,142,109.39Z" style="fill:#e96bb0;stroke:#231815;stroke-linecap:round;stroke-linejoin:round;stroke-width:2.92612px"/></svg>