<svg id="圖層_1" data-name="圖層 1" xmlns="http://www.w3.org/2000/svg" viewBox="0 0 150 150"><title>ms-04</title><path d="M110.92,107.45a1.51,1.51,0,0,0,1.53,1.5l4.93,0a1.52,1.52,0,1,0,0-3l-4.93,0A1.52,1.52,0,0,0,110.92,107.45Z" style="fill:#323232"/><path d="M108.36,121.5a1.29,1.29,0,0,0,0,.39,1.51,1.51,0,0,0,1.14,1.45l5.6,1.42a1.51,1.51,0,1,0,.75-2.93l-5.61-1.43A1.52,1.52,0,0,0,108.36,121.5Z" style="fill:#323232"/><path d="M109.34,91.53A1.54,1.54,0,0,0,108.23,93a1.32,1.32,0,0,0,.06.39,1.5,1.5,0,0,0,1.86,1L115.48,93a1.51,1.51,0,1,0-.8-2.91Z" style="fill:#323232"/><path d="M43.58,111.18a1.53,1.53,0,0,1-1.51,1.53l-5,.05a1.52,1.52,0,1,1,0-3l5,0A1.52,1.52,0,0,1,43.58,111.18Z" style="fill:#323232"/><path d="M46.49,125.16a1.32,1.32,0,0,1,.06.39A1.5,1.5,0,0,1,45.42,127l-5.65,1.55a1.52,1.52,0,1,1-.83-2.92l5.66-1.54A1.52,1.52,0,0,1,46.49,125.16Z" style="fill:#323232"/><path d="M44.83,95.23A1.52,1.52,0,0,1,46,96.68a1.31,1.31,0,0,1-.05.39,1.53,1.53,0,0,1-1.87,1.09L38.63,96.8A1.51,1.51,0,0,1,37.52,95a1.53,1.53,0,0,1,1.87-1.09Z" style="fill:#323232"/><path d="M72.25,84.7A25,25,0,0,1,85.86,87c3.73,1.88,6.83,5.51,5.46,10-.5,1.66-2.66,2.54-4.16,3.17-3.51,1.45-8,.54-11.74.66-4.81.16-12.76,0-14.59-5.74C59.06,89.58,67.88,85.13,72.25,84.7Z" style="fill:#f8dcd5"/><path d="M64.23,91.69c-.83,0-13.58,2.34-13,5.8.8,4.89,10.43,2.29,13.37,1.06" style="fill:#fbded7"/><path d="M56.12,101.8a8.42,8.42,0,0,1-4.09-.86,4.38,4.38,0,0,1-2.26-3.22,3.12,3.12,0,0,1,.78-2.54c2.75-3.27,13.08-4.94,13.66-5l0,2.92,0-1.46,0,1.46c-2.65.19-11.28,2.55-11.62,4.13a1.41,1.41,0,0,0,.8,1.1c2.3,1.29,8.11-.16,10.56-1.18l1.13,2.71A27.22,27.22,0,0,1,56.12,101.8Z" style="fill:#231815"/><path d="M83.62,126.78a9.76,9.76,0,0,0,5.36-1.7c1.81-1.25.82-3.82,1.08-5.5.32-2.1,1.13-4.44.29-6.52-1.48-3.63-6.15-2.48-8.5-.43-4.39,3.83.42,6.21,2.16,9.92.78,1.67-.08,2.53-.71,4.16Z" style="fill:#fbded7"/><path d="M84,128.3l-.54,0h0a3.37,3.37,0,0,1-.55-.12,1.51,1.51,0,0,1-1-2c.16-.41.33-.77.49-1.11.47-1,.56-1.25.27-1.87a14.72,14.72,0,0,0-1.77-2.62c-1.69-2.15-4.23-5.39,0-9.08,1.68-1.46,4.68-2.75,7.3-2.13a5,5,0,0,1,3.59,3.13c.82,2.05.41,4.13,0,6-.09.46-.18.9-.24,1.34a7.31,7.31,0,0,0,0,1.4c.09,1.5.24,3.77-1.73,5.12A11.91,11.91,0,0,1,84,128.3Zm2.74-16.09a6.42,6.42,0,0,0-3.9,1.55c-2,1.73-1.51,2.51.41,4.95a17.46,17.46,0,0,1,2.13,3.2,4.24,4.24,0,0,1,.27,3.09,9.82,9.82,0,0,0,2.48-1.16c.5-.35.51-1,.43-2.45a9.28,9.28,0,0,1,0-2c.07-.48.17-1,.27-1.48a7.84,7.84,0,0,0,.12-4.25,2,2,0,0,0-1.49-1.33A3.4,3.4,0,0,0,86.74,112.21Z" style="fill:#231815"/><path d="M71.88,126.47c-1.67.42-4.38-.31-5.82-1-2.09-1.06-1.54-3.94-2.11-5.69-.7-2.18-2-4.55-1.48-6.88.86-4.07,5.87-3.52,8.66-1.67,5.2,3.44.7,6.65-.42,10.85-.5,1.88.54,2.67,1.48,4.31A1.43,1.43,0,0,1,71.88,126.47Z" style="fill:#fbded7"/><path d="M70.75,128a13.37,13.37,0,0,1-5.35-1.31c-2.14-1.1-2.39-3.35-2.57-5a8,8,0,0,0-.25-1.54c-.15-.45-.32-.92-.5-1.39-.7-1.87-1.49-4-1-6.23a5,5,0,0,1,3-3.76c2.56-1,5.85-.12,7.82,1.19,4.82,3.18,2.92,6.75,1.54,9.36a15.32,15.32,0,0,0-1.36,3.06c-.21.78,0,1.11.66,2.13.22.33.46.69.69,1.09a1.45,1.45,0,0,1-.63,2,2.78,2.78,0,0,1-.57.21h0A5.89,5.89,0,0,1,70.75,128Zm-4.16-16.8a3.8,3.8,0,0,0-1.4.24,2.14,2.14,0,0,0-1.31,1.68c-.29,1.42.29,3,.91,4.63.19.51.38,1,.54,1.51a11.61,11.61,0,0,1,.37,2.12c.16,1.46.31,2.37,1,2.73a10.2,10.2,0,0,0,3,.92,4.4,4.4,0,0,1-.38-3.39,17.39,17.39,0,0,1,1.6-3.68c1.56-2.93,1.93-3.94-.58-5.6A7.13,7.13,0,0,0,66.59,111.23Z" style="fill:#231815"/><path d="M90.32,97.52c2.33,4.83,1.5,5.67,1,7.59-1,4.27-3.75,6.85-7,9.64s-6.44,3.3-10.72,2.13a13.55,13.55,0,0,1-5.5-2.93c-1.5-1.36-2.13-3-3.27-4.56-3.15-4.25-4.8-8.63-.7-12.85" style="fill:#fbded7"/><path d="M77.45,118.91a16.17,16.17,0,0,1-4.24-.62A14.88,14.88,0,0,1,67.1,115a13.21,13.21,0,0,1-2.44-3.2c-.33-.55-.65-1.07-1-1.57-2.77-3.73-5.84-9.32-.58-14.74l2.1,2c-2.94,3-2.7,6.21.83,11,.45.61.81,1.21,1.16,1.79a11,11,0,0,0,1.91,2.56,12.24,12.24,0,0,0,4.91,2.6c3.88,1.06,6.6.53,9.38-1.84,3.14-2.67,5.62-5,6.56-8.87.07-.29.15-.55.22-.8.37-1.24.63-2.13-1.14-5.8l2.63-1.28c2.11,4.36,1.89,6,1.32,7.9-.06.22-.13.44-.18.67-1.16,4.71-4.09,7.5-7.52,10.41A11.62,11.62,0,0,1,77.45,118.91Z" style="fill:#231815"/><path d="M82.36,119.27a21,21,0,0,1-16.08-2.43C61.06,113.48,61,109.59,61,105c0-2.83,3.52-2.92,6.9-3,6-.06,11.93.6,17.9,1,3,.22,4.43.26,5.48,2.48,3.19,6.75-1.86,12-8.94,13.76" style="fill:#fff"/><path d="M77.18,121.36a21.74,21.74,0,0,1-11.69-3.29c-5.89-3.79-5.91-8.31-5.94-13.1,0-4.34,5-4.39,8.35-4.43,4.66,0,9.32.34,13.83.7q2.1.18,4.2.33l.27,0c2.93.21,5,.37,6.42,3.29a9.78,9.78,0,0,1,.23,8.61c-1.61,3.39-5.31,6-10.13,7.2h0A23.13,23.13,0,0,1,77.18,121.36Zm-8.5-17.9h-.74c-3.63,0-5.47.28-5.46,1.49,0,4.48,0,7.72,4.59,10.65A19.44,19.44,0,0,0,82,117.85h0c3.92-1,7-3.06,8.19-5.61a6.88,6.88,0,0,0-.22-6.11c-.61-1.29-1.07-1.41-4-1.62l-.26,0c-1.41-.1-2.82-.22-4.23-.33C77.3,103.82,73,103.46,68.68,103.46Z" style="fill:#231815"/><path d="M116.12,59.68a5,5,0,0,0-6-.77c0-.11-.07-.22-.1-.32,0-.84-.06-1.68-.16-2.53-2-17.37-19.5-29.65-39.16-27.42-19.1,2.16-33.17,17.23-32.14,34-4.9-.41-9.14,6.89-4.54,11a4.59,4.59,0,0,0,5.1.83,19.24,19.24,0,0,0,.66,3c7.39,23.55,60.33,19,69.06,1.31a24.29,24.29,0,0,0,2.32-8.3C115.9,70.92,120.65,63.66,116.12,59.68Z" style="fill:#fbded7"/><path d="M72.54,95.14c-1.8,0-3.63-.07-5.5-.21-15.19-1.17-25.63-7.37-28.65-17-.16-.5-.3-1-.43-1.6A6,6,0,0,1,33,74.76a7.32,7.32,0,0,1-1.78-8.59A8.15,8.15,0,0,1,37,61.29c-.21-17.08,14.21-31.92,33.5-34.1A39.53,39.53,0,0,1,97.75,33.8a31.16,31.16,0,0,1,13.56,22.1c0,.33.07.66.1,1a6.57,6.57,0,0,1,5.68,1.68h0a6.82,6.82,0,0,1,1.67,8.12,8.64,8.64,0,0,1-6.3,5.22,25.47,25.47,0,0,1-2.3,7.54C106.15,87.58,91.37,95.14,72.54,95.14ZM40.3,72.42l.27,1.87a17.32,17.32,0,0,0,.61,2.77c2.64,8.43,12.15,13.88,26.09,15C85,93.37,103.1,87.17,107.53,78.17a23.16,23.16,0,0,0,2.18-7.81l.15-1.42,1.43.12c1.77.14,3.88-1.39,4.78-3.51a3.94,3.94,0,0,0-.91-4.76,3.59,3.59,0,0,0-4.35-.59l-1.62.86-.63-2.44c0-.88-.07-1.66-.15-2.39a28.31,28.31,0,0,0-12.33-20,36.66,36.66,0,0,0-25.21-6.11C52.58,32.17,39,46.43,40,62.58l.1,1.68-1.68-.14A4.91,4.91,0,0,0,34,67.32a4.43,4.43,0,0,0,1,5.26,3.13,3.13,0,0,0,3.56.57Z" style="fill:#231815"/><path d="M101.27,61.6a4.39,4.39,0,1,1-4.87-4.05,4.51,4.51,0,0,1,4.87,4.05" style="fill:#231815"/><path d="M57.58,66.56a4.39,4.39,0,1,1-4.87-4.06,4.48,4.48,0,0,1,4.87,4.06" style="fill:#231815"/><path d="M64.35,41.21l-2.71-1.08c1.84-4.62-2.17-9-5.61-10.57l1.24-2.65C62.57,29.39,66.67,35.42,64.35,41.21Z" style="fill:#231815"/><path d="M71.28,36.76c-.5-4.57-1.12-10.26.34-15.39l2.81.8c-1.3,4.58-.74,9.73-.24,14.28Z" style="fill:#231815"/><path d="M81.41,39.83c-1-3.9-1-9.79,2-13.52a8.56,8.56,0,0,1,7-3.15l-.05,2.93a5.55,5.55,0,0,0-4.7,2.05c-2.18,2.72-2.29,7.48-1.43,11Z" style="fill:#231815"/><path d="M74.73,83.35c-6,0-11.09-3.88-11.69-9.19l2.81-.32c.48,4.22,5,7.18,10.15,6.61a10.28,10.28,0,0,0,6.37-3.08,7,7,0,0,0,2-5.63l2.82-.32a9.84,9.84,0,0,1-2.78,7.89,13.1,13.1,0,0,1-8.13,4A14.08,14.08,0,0,1,74.73,83.35Z" style="fill:#231815"/><path d="M89.44,91c.83.21,13,5.6,11.72,8.86-1.85,4.6-10.9-.3-13.56-2.22" style="fill:#fbded7"/><path d="M97.92,103.19c-4.07,0-9.41-3.13-11.18-4.4l1.71-2.37c2.26,1.62,7.8,4.47,10.37,3.73a1.34,1.34,0,0,0,1-.88c0-1.71-8.48-6.19-10.75-6.9l.76-2.83c.58.15,10.56,4.33,12.52,8.21a3.07,3.07,0,0,1,.19,2.61,4.3,4.3,0,0,1-2.88,2.6A6.06,6.06,0,0,1,97.92,103.19Z" style="fill:#231815"/></svg>