<svg id="圖層_1" data-name="圖層 1" xmlns="http://www.w3.org/2000/svg" viewBox="0 0 150 150"><title>ms-11</title><path d="M93.14,76.56l16.69-16.27L86.77,56.94a1.92,1.92,0,0,1-1.45-1.06L75,35,64.69,55.88a1.94,1.94,0,0,1-1.46,1.06L40.17,60.29,56.86,76.56a2,2,0,0,1,.56,1.72l-4,23L74.1,90.4a1.88,1.88,0,0,1,1.8,0l20.62,10.84-3.93-23A2,2,0,0,1,93.14,76.56Z" style="fill:#f5d76e"/><path d="M96.58,78.62l18.77-18.29A1.94,1.94,0,0,0,114.28,57L88.34,53.25l-11.6-23.5a1.94,1.94,0,0,0-3.48,0l-11.6,23.5L35.72,57a1.94,1.94,0,0,0-1.07,3.31L53.42,78.62,49,104.46a1.94,1.94,0,0,0,2.81,2L75,94.3l23.2,12.2a1.94,1.94,0,0,0,2.81-2ZM75.9,90.4a1.88,1.88,0,0,0-1.8,0L53.47,101.24l4-23a2,2,0,0,0-.56-1.72L40.17,60.29l23.06-3.35a1.94,1.94,0,0,0,1.46-1.06L75,35,85.32,55.88a1.92,1.92,0,0,0,1.45,1.06l23.06,3.35L93.14,76.56a2,2,0,0,0-.55,1.72l3.93,23Z" style="fill:#323232"/><path d="M75,126A1.94,1.94,0,0,0,73.06,128v4.94a1.94,1.94,0,0,0,3.88,0V128A1.94,1.94,0,0,0,75,126Z" style="fill:#323232"/><path d="M91.66,125.51a1.94,1.94,0,0,0-3.75,1l1.28,4.78a1.93,1.93,0,0,0,1.87,1.44,1.73,1.73,0,0,0,.5-.07,1.93,1.93,0,0,0,1.37-2.37Z" style="fill:#323232"/><path d="M124.47,44.23a1.89,1.89,0,0,0,1-.27l4.29-2.47a1.94,1.94,0,0,0-1.94-3.36l-4.29,2.48a1.94,1.94,0,0,0,1,3.62Z" style="fill:#323232"/><path d="M117.51,25.59l-3.64,3.65a1.93,1.93,0,0,0,0,2.74,1.91,1.91,0,0,0,1.37.57,1.94,1.94,0,0,0,1.37-.57l3.64-3.65a1.94,1.94,0,0,0-2.74-2.74Z" style="fill:#323232"/><path d="M102.59,23.06a1.88,1.88,0,0,0,1,.26,1.94,1.94,0,0,0,1.68-1l2.47-4.28a1.94,1.94,0,1,0-3.36-1.94l-2.47,4.28A1.93,1.93,0,0,0,102.59,23.06Z" style="fill:#323232"/><path d="M60.72,124.14a1.94,1.94,0,0,0-2.38,1.37l-1.27,4.78a1.93,1.93,0,0,0,1.37,2.37,1.73,1.73,0,0,0,.5.07,1.93,1.93,0,0,0,1.87-1.44l1.28-4.78A1.94,1.94,0,0,0,60.72,124.14Z" style="fill:#323232"/><path d="M26.51,40.61l-4.29-2.48a1.94,1.94,0,1,0-1.94,3.36L24.57,44a1.89,1.89,0,0,0,1,.27,1.94,1.94,0,0,0,1-3.62Z" style="fill:#323232"/><path d="M33.39,32a1.94,1.94,0,0,0,2.75-2.74l-3.65-3.65a1.94,1.94,0,0,0-2.74,2.74Z" style="fill:#323232"/><path d="M44.76,22.35a1.94,1.94,0,0,0,1.68,1,1.88,1.88,0,0,0,1-.26,1.93,1.93,0,0,0,.71-2.65l-2.47-4.28a1.94,1.94,0,0,0-3.36,1.94Z" style="fill:#323232"/></svg>