<svg id="圖層_1" data-name="圖層 1" xmlns="http://www.w3.org/2000/svg" viewBox="0 0 150 150"><title>ms-17</title><path d="M123.39,72.57a1.93,1.93,0,0,0,1.87,2l4.94.16a1.94,1.94,0,1,0,.13-3.88l-4.94-.16A1.94,1.94,0,0,0,123.39,72.57Z" style="fill:#231815"/><path d="M115.1,99.9a1.89,1.89,0,0,0-.29,1,1.94,1.94,0,0,0,.91,1.71l4.2,2.61a1.94,1.94,0,1,0,2-3.29l-4.2-2.61A1.93,1.93,0,0,0,115.1,99.9Z" style="fill:#231815"/><path d="M120.62,86.8a1.53,1.53,0,0,0-.07.47A1.92,1.92,0,0,0,122,89.19l5.15,1.45a1.94,1.94,0,0,0,1-3.73L123,85.46A1.94,1.94,0,0,0,120.62,86.8Z" style="fill:#231815"/><path d="M117.69,42.13a1.94,1.94,0,0,0-1,1.65,1.9,1.9,0,0,0,.23,1,1.93,1.93,0,0,0,2.62.8l4.36-2.33a1.94,1.94,0,1,0-1.83-3.42Z" style="fill:#231815"/><path d="M123,55.88a1.94,1.94,0,0,0-1.53,1.83,1.5,1.5,0,0,0,0,.47,1.94,1.94,0,0,0,2.3,1.5l5.23-1.11a1.94,1.94,0,0,0-.81-3.8Z" style="fill:#231815"/><path d="M32.86,49a17.54,17.54,0,0,1,3.26,2.25l1.05.82c0-1.81-.11-3.67-.82-4.25A4.38,4.38,0,0,0,34.76,47a2.17,2.17,0,0,0-2.47.54,5.7,5.7,0,0,0-.38,1l.75.34Z" style="fill:#e96bb0"/><path d="M49.22,57.19c2-.09,5-.39,8.46-.74,3-.29,6.2-.61,9.52-.89-3.3-4.73-9.81-13.89-12.52-16.48A4.45,4.45,0,0,0,52.85,38c-3.68-1.05-8.3,3-7.6,7.61a92.18,92.18,0,0,0,3,11.57C48.6,57.21,48.91,57.21,49.22,57.19Z" style="fill:#e96bb0"/><path d="M104.79,75.62c-4.26,3.81-10.6,6.8-18.84,8.91a62.49,62.49,0,0,1-13.16,1.71c-.23.91-.56,2.08-1,3.61l1.62.07c18.47.76,31.91-10.66,34.1-13.68a5.21,5.21,0,0,0,.64-4.44A18,18,0,0,1,104.79,75.62Z" style="fill:#fff"/><path d="M46.17,86.89h0c0-1.1.1-2,.16-2.74C43.77,83.72,41.59,83.3,40,83a22.29,22.29,0,0,0,5,3.4C45.31,86.55,45.73,86.73,46.17,86.89Z" style="fill:#fff"/><path d="M110,70.6l.06,0-.24-.48a10,10,0,0,0-1-2,1.46,1.46,0,0,0-.09-.16l0,0h0a25.52,25.52,0,0,0-7.89-8.1l-.09-.06a23.57,23.57,0,0,0-7.11-3.62,11.2,11.2,0,0,0-3.06-.48c-5.6-1-13.32-.82-20.88-.27-3-4.32-10.45-14.91-13.54-17.85a6.58,6.58,0,0,0-2.73-1.59,7.83,7.83,0,0,0-7.26,2A9,9,0,0,0,43.1,46a85.79,85.79,0,0,0,2.79,10.88l-.51-.13a21.56,21.56,0,0,1-6.1-3.06c0-.36,0-.74.06-1.12.12-3.44-.36-5.34-1.61-6.37a6.66,6.66,0,0,0-2.37-1.24c-2.08-.6-4,0-4.93,1.5a6.75,6.75,0,0,0-.57,1.45,6.41,6.41,0,0,0-5.94.85c-2.15,1.69-3.1,5-2.89,10A19.86,19.86,0,0,0,21.69,63c-1.2,2.1-2.72,4.84-3.49,6.59a3.74,3.74,0,0,0-.1,3.2,3.43,3.43,0,0,0,2.22,1.79c2,.58,4.92-.22,6.68-1.29a45.68,45.68,0,0,0,8.56,8.38A30.22,30.22,0,0,0,44,88.33c.68.32,1.39.6,2.12.86a81.11,81.11,0,0,0,.36,9.75c.75,10.56,2.21,12.09,2.83,12.75a8.6,8.6,0,0,0,3.8,2.35c3.1.88,7.4-.12,10.19-5.57,1.57-3.08,4.31-6.25,6.18-11.67.63-1.84,1.16-3.43,1.61-4.8l2.21.09a48,48,0,0,0,24.26-5.67c6.23-3.28,10.41-7.13,11.69-8.91A7.59,7.59,0,0,0,110,70.6Zm-2.57,5.64c-2.19,3-15.63,14.44-34.1,13.68l-1.62-.07c.48-1.53.81-2.7,1-3.61A62.49,62.49,0,0,0,86,84.53c8.24-2.11,14.58-5.1,18.84-8.91a18,18,0,0,0,3.32-3.82A5.21,5.21,0,0,1,107.47,76.24ZM49,81.81c3.09-2.65,11.42-2.49,17.05-.89,2.31.67,4.17,1.57,5,2.63.47,1.25-7,18.55-9.7,23.93-2,3.88-5,5.22-7.65,4.47a6.31,6.31,0,0,1-2.82-1.77C47.85,107,47.79,82.88,49,81.81ZM20.92,72.53c-.83-.24-1.24-.86-.72-2,1.31-3,5.08-9.27,5.08-9.27,1.56-.81,7-1.55,8.65-1.09a.86.86,0,0,1,.36.17c.87.78-6,9.63-8.35,11.11A7.47,7.47,0,0,1,20.92,72.53Zm11.37-25A2.17,2.17,0,0,1,34.76,47a4.38,4.38,0,0,1,1.59.84c.71.58.86,2.44.82,4.25l-1.05-.82A17.54,17.54,0,0,0,32.86,49l-.2-.09-.75-.34A5.7,5.7,0,0,1,32.29,47.56ZM29.37,50A20.21,20.21,0,0,1,32,51c2.09.95,6.75,6.07,12.82,7.79a14.19,14.19,0,0,0,4.54.56c7.28-.34,27-3.31,38.81-1.9a24.76,24.76,0,0,0-1.52,3.58c-1.16,3.52-1.21,6.56-.15,9a5.34,5.34,0,0,0,3.75,3c4.24,1.21,11.43-.25,15.13-1.17-2.33,2.86-7.76,7.4-19.94,10.51A58.82,58.82,0,0,1,73.22,84a2.4,2.4,0,0,0-.14-1.25L73,82.46l-.21-.27c-1.1-1.39-3.16-2.52-6.13-3.36-5.46-1.56-15-2.17-19.06,1.33h0l0,0a2.83,2.83,0,0,0-.91,1.8c-5.77-1-9.59-1.9-9.59-1.9A43.73,43.73,0,0,1,28.7,72a49.35,49.35,0,0,0,3.93-4.48c3.75-4.8,3.87-6.24,3.91-6.71a2.51,2.51,0,0,0-.8-2.08A3.12,3.12,0,0,0,34.53,58h0c-2.24-.63-8.29.23-10.26,1.25l-.54.29-.32.52-.06.11c-.07-.52-.12-1.05-.14-1.58C22.84,49.62,26.44,49.17,29.37,50ZM52.85,38a4.45,4.45,0,0,1,1.83,1.06c2.71,2.59,9.22,11.75,12.52,16.48-3.32.28-6.56.6-9.52.89-3.48.35-6.48.65-8.46.74-.31,0-.62,0-.94,0a92.18,92.18,0,0,1-3-11.57C44.55,41.05,49.17,37,52.85,38ZM93.06,58.21a21.2,21.2,0,0,1,6.45,3.29c5.65,4,7.48,7.72,7.48,7.72s-11,3.23-16.17,1.77a3.37,3.37,0,0,1-2.35-1.74c-2-4.79,2-11.43,2-11.43A7.62,7.62,0,0,1,93.06,58.21ZM46.33,84.15c-.06.75-.12,1.64-.16,2.74h0c-.44-.16-.86-.34-1.26-.53A22.29,22.29,0,0,1,40,83C41.59,83.3,43.77,83.72,46.33,84.15Z" style="fill:#231815"/><path d="M23.21,58.63c0,.53.07,1.06.14,1.58l.06-.11.32-.52.54-.29c2-1,8-1.88,10.26-1.25h0a3.12,3.12,0,0,1,1.21.64,2.51,2.51,0,0,1,.8,2.08c0,.47-.16,1.91-3.91,6.71A49.35,49.35,0,0,1,28.7,72,43.73,43.73,0,0,0,37,80.09s3.82.93,9.59,1.9a2.83,2.83,0,0,1,.91-1.8l0,0h0c4.08-3.5,13.6-2.89,19.06-1.33,3,.84,5,2,6.13,3.36l.21.27.12.32A2.4,2.4,0,0,1,73.22,84a58.82,58.82,0,0,0,12.19-1.61c12.18-3.11,17.61-7.65,19.94-10.51-3.7.92-10.89,2.38-15.13,1.17a5.34,5.34,0,0,1-3.75-3c-1.06-2.49-1-5.53.15-9a24.76,24.76,0,0,1,1.52-3.58c-11.8-1.41-31.53,1.56-38.81,1.9a14.19,14.19,0,0,1-4.54-.56C38.72,57.09,34.06,52,32,51a20.21,20.21,0,0,0-2.6-1C26.44,49.17,22.84,49.62,23.21,58.63ZM77,67.58a3.11,3.11,0,1,1-3.85,2.14A3.12,3.12,0,0,1,77,67.58ZM55.48,72a3.11,3.11,0,1,1-2.14-3.85A3.12,3.12,0,0,1,55.48,72Zm7.93,2.26a3.11,3.11,0,1,1,3.85-2.14A3.12,3.12,0,0,1,63.41,74.24Z" style="fill:#fff"/><path d="M61.34,107.48C64.09,102.1,71.51,84.8,71,83.55c-.84-1.06-2.7-2-5-2.63-5.63-1.6-14-1.76-17.05.89-1.19,1.07-1.13,25.2,1.89,28.37A6.31,6.31,0,0,0,53.69,112C56.34,112.7,59.35,111.36,61.34,107.48Z" style="fill:#e96bb0"/><path d="M34.29,60.31a.86.86,0,0,0-.36-.17c-1.62-.46-7.09.28-8.65,1.09,0,0-3.77,6.28-5.08,9.27-.52,1.17-.11,1.79.72,2a7.47,7.47,0,0,0,5-1.11C28.27,69.94,35.16,61.09,34.29,60.31Z" style="fill:#e96bb0"/><path d="M53.34,68.13A3.11,3.11,0,1,0,55.48,72,3.12,3.12,0,0,0,53.34,68.13Z" style="fill:#6fc9f3"/><path d="M53.68,66.93a4.36,4.36,0,1,0,3,5.39A4.37,4.37,0,0,0,53.68,66.93Zm-2,7.19A3.11,3.11,0,1,1,55.48,72,3.12,3.12,0,0,1,51.63,74.12Z" style="fill:#231815"/><path d="M65.12,68.25a3.11,3.11,0,1,0,2.14,3.85A3.12,3.12,0,0,0,65.12,68.25Z" style="fill:#6fc9f3"/><path d="M65.46,67.05a4.36,4.36,0,1,0,3,5.39A4.36,4.36,0,0,0,65.46,67.05Zm-2,7.19a3.11,3.11,0,1,1,3.85-2.14A3.12,3.12,0,0,1,63.41,74.24Z" style="fill:#231815"/><path d="M77,67.58a3.11,3.11,0,1,0,2.14,3.85A3.11,3.11,0,0,0,77,67.58Z" style="fill:#6fc9f3"/><path d="M77.31,66.38a4.36,4.36,0,1,0,3,5.39A4.37,4.37,0,0,0,77.31,66.38Zm-2,7.19a3.11,3.11,0,1,1,3.85-2.14A3.12,3.12,0,0,1,75.26,73.57Z" style="fill:#231815"/><path d="M88.47,69.25A3.37,3.37,0,0,0,90.82,71C95.94,72.45,107,69.22,107,69.22s-1.83-3.69-7.48-7.72a21.2,21.2,0,0,0-6.45-3.29,7.62,7.62,0,0,0-2.63-.39S86.44,64.46,88.47,69.25Z" style="fill:#ffb71b"/></svg>