<svg id="圖層_1" data-name="圖層 1" xmlns="http://www.w3.org/2000/svg" viewBox="0 0 150 150"><title>ms-10</title><path d="M112.56,57.69a1.91,1.91,0,0,0-.57,1.36,1.94,1.94,0,1,0,3.88,0,1.94,1.94,0,0,0-.56-1.36A2,2,0,0,0,112.56,57.69Z" style="fill:#231815"/><path d="M126.05,36.26h-2.91V33.35a1.94,1.94,0,1,0-3.87,0v2.91h-2.91a1.94,1.94,0,1,0,0,3.88h2.91v2.91a1.94,1.94,0,1,0,3.87,0V40.14h2.91a1.94,1.94,0,0,0,0-3.88Z" style="fill:#231815"/><ellipse cx="132.59" cy="60.77" rx="5.17" ry="4.94" style="fill:#e96bb0;stroke:#231815;stroke-linecap:round;stroke-linejoin:round;stroke-width:2.92612px"/><path d="M22.59,103.77a5.06,5.06,0,0,1-5.18,4.94,4.94,4.94,0,1,1,0-9.87A5.06,5.06,0,0,1,22.59,103.77Z" style="fill:#ffb71b;stroke:#231815;stroke-linecap:round;stroke-linejoin:round;stroke-width:2.92612px"/><path d="M82.92,65.71,69.86,99.2c14.68,10.63,33,8.77,33,8.77l8.77-32.44A60.84,60.84,0,0,1,82.92,65.71Z" style="fill:#d94434;stroke:#231815;stroke-linecap:round;stroke-linejoin:round;stroke-width:2.8102500000000004px"/><path d="M82.92,65.71,69.86,99.2s12-.1,22.74-3.85l10-38.93S93.28,63.15,82.92,65.71Z" style="fill:#b2392b;stroke:#231815;stroke-linecap:round;stroke-linejoin:round;stroke-width:2.8102500000000004px"/><path d="M91.44,51.39c-27.81-9.69-52.27,2.37-52.27,2.37l1.52,31.18.48,9.62c22.06-13.3,51.43.79,51.43.79l10-38.93A69.13,69.13,0,0,0,91.44,51.39Z" style="fill:#d94434;stroke:#231815;stroke-linecap:round;stroke-linejoin:round;stroke-width:2.8102500000000004px"/><rect x="37.85" y="46.88" width="5.2" height="71.71" style="fill:#ffb71b;stroke:#231815;stroke-linecap:round;stroke-linejoin:round;stroke-width:2.8346500000000003px"/><path d="M42.26,40a4.75,4.75,0,0,0-1.81-.36,4.64,4.64,0,0,0-4.64,4.64,4.64,4.64,0,0,0,9.28,0A4.66,4.66,0,0,0,42.26,40Z" style="fill:#e96bb0;stroke:#231815;stroke-linecap:round;stroke-linejoin:round;stroke-width:2.92612px"/></svg>