<svg id="圖層_1" data-name="圖層 1" xmlns="http://www.w3.org/2000/svg" viewBox="0 0 150 150"><title>ms-24</title><path d="M30.12,95.87H27.21V93a1.94,1.94,0,0,0-3.88,0v2.91h-2.9a1.94,1.94,0,0,0,0,3.88h2.9v2.91a1.94,1.94,0,0,0,3.88,0V99.75h2.91a1.94,1.94,0,1,0,0-3.88Z" style="fill:#231815"/><path d="M12.91,79.37a1.92,1.92,0,0,0,0,2.75,2,2,0,0,0,1.36.56,2,2,0,0,0,1.38-.56,2,2,0,0,0,0-2.75A2,2,0,0,0,12.91,79.37Z" style="fill:#231815"/><path d="M106.37,66.67a1.46,1.46,0,0,1-1.46-1.46V64.8a1.47,1.47,0,1,1,2.93,0v.41A1.46,1.46,0,0,1,106.37,66.67Z" style="fill:#231815"/><path d="M27.8,51.83a5.73,5.73,0,0,1,5.52,4.24,11,11,0,0,1,.4,2.43,36.58,36.58,0,0,1,4.06,3.16c3.18,3,5.26,9,5.06,13.19-.09,2.06-1.93,4-3.69,1.82-1-1.29-1-4.65-1.57-6.4a12.48,12.48,0,0,0-4-6.11c-1-.76-2.6-1.73-2.6-1.73a8,8,0,0,1-3.21.67,5.8,5.8,0,0,1-5.69-5.64A5.66,5.66,0,0,1,27.8,51.83Z" style="fill:#ef90b9"/><path d="M40.76,79.1A3.5,3.5,0,0,1,38,77.58c-.87-1.09-1.12-2.83-1.35-4.51a14.47,14.47,0,0,0-.45-2.32,11.06,11.06,0,0,0-3.47-5.42c-.57-.43-1.34-.93-1.88-1.27a8.46,8.46,0,0,1-3.14.5,7.24,7.24,0,0,1-7.06-7.1,7.14,7.14,0,0,1,7.15-7.1,7.23,7.23,0,0,1,6.94,5.35,17.11,17.11,0,0,1,.38,2,33.25,33.25,0,0,1,3.67,2.92c3.32,3.18,5.74,9.46,5.51,14.31a4.37,4.37,0,0,1-2.66,4A2.73,2.73,0,0,1,40.76,79.1ZM31,61a1.48,1.48,0,0,1,.76.21c.07,0,1.67,1,2.72,1.82A13.8,13.8,0,0,1,39,69.79a16.55,16.55,0,0,1,.57,2.87,9.21,9.21,0,0,0,.75,3.1c.3.37.48.42.48.42a1.87,1.87,0,0,0,.61-1.4c.19-4-1.88-9.44-4.62-12.06a33.78,33.78,0,0,0-3.85-3,1.47,1.47,0,0,1-.66-1.22h0a9.89,9.89,0,0,0-.35-2.07,4.26,4.26,0,0,0-4.1-3.14,4.2,4.2,0,0,0-4.22,4.17,4.35,4.35,0,0,0,4.31,4.18,6.41,6.41,0,0,0,2.51-.55A1.62,1.62,0,0,1,31,61Z" style="fill:#231815"/><path d="M107,71.06c0,19.16-8.55,34.9-34.72,34.69-25.21-.16-34.72-15.53-34.72-34.69Z" style="fill:#fff"/><path d="M72.79,107.22h-.52c-23-.14-36.18-13.32-36.18-36.15a1.46,1.46,0,0,1,1.47-1.46h0c1.29,0,68.08,0,69.37,0h0a1.46,1.46,0,0,1,1.46,1.46c0,11.84-3.15,21-9.36,27.13C93.07,104.18,84.21,107.22,72.79,107.22ZM39,72.53c.7,27.41,21,31.68,33.25,31.76,10.89.07,19.2-2.67,24.75-8.17,5.39-5.35,8.23-13.28,8.48-23.59H39Z" style="fill:#231815"/><path d="M87,98.78a7.75,7.75,0,1,0,7.88,7.75A7.82,7.82,0,0,0,87,98.78Z" style="fill:#ffb71b"/><path d="M87,115.74a9.21,9.21,0,1,1,9.34-9.21A9.29,9.29,0,0,1,87,115.74Zm0-15.5a6.29,6.29,0,1,0,6.41,6.29A6.35,6.35,0,0,0,87,100.24Z" style="fill:#231815"/><path d="M56.88,98.78a7.75,7.75,0,1,0,7.87,7.75A7.82,7.82,0,0,0,56.88,98.78Z" style="fill:#ffb71b"/><path d="M56.88,115.74a9.21,9.21,0,1,1,9.34-9.21A9.29,9.29,0,0,1,56.88,115.74Zm0-15.5a6.29,6.29,0,1,0,6.41,6.29A6.36,6.36,0,0,0,56.88,100.24Z" style="fill:#231815"/><path d="M107,70.9c3.32-.64,5.43-3.49,4.72-6.38h0c-.72-2.89-4-4.71-7.31-4.08L70.55,71.16h0C70.58,71.39,107,70.9,107,70.9Z" style="fill:#ef90b9"/><path d="M73.92,72.69H72.11c-1.9,0-2.85,0-3-1.33a1.47,1.47,0,0,1,1-1.58L104,59l.17,0c4-.77,8.1,1.55,9,5.17a6.21,6.21,0,0,1-.84,4.88,7.61,7.61,0,0,1-5,3.28,1.15,1.15,0,0,1-.26,0s-9.11.12-18.23.22c-4.56,0-9.12.09-12.54.1Zm-3.37-1.53h0ZM107,70.9h0Zm-2.23-9L79.91,69.73c7.65,0,18.59-.18,27-.3a4.66,4.66,0,0,0,3-2,3.32,3.32,0,0,0,.46-2.6C109.78,62.75,107.3,61.42,104.78,61.86Z" style="fill:#231815"/><path d="M105.14,60.22a5,5,0,0,0,2-7.38h0a6.7,6.7,0,0,0-8.47-1.71l-27.77,20h0C71,71.34,105.14,60.22,105.14,60.22Z" style="fill:#ef90b9"/><path d="M70.6,72.59c-.58,0-.73-.27-1-.73A1.47,1.47,0,0,1,70,69.94L97.79,50l.15-.1A8.12,8.12,0,0,1,108.3,52a6.17,6.17,0,0,1,1,5.06,6.89,6.89,0,0,1-3.5,4.45,1.12,1.12,0,0,1-.25.11s-8.54,2.78-17.09,5.53c-4.28,1.38-8.56,2.76-11.78,3.77C73,72.09,71.39,72.59,70.6,72.59ZM99.42,52.38,78.91,67.14c7.2-2.29,17.68-5.68,25.64-8.27a3.89,3.89,0,0,0,1.94-2.48,3.35,3.35,0,0,0-.57-2.7A5.2,5.2,0,0,0,99.42,52.38Zm5.72,7.84h0Z" style="fill:#231815"/><path d="M99.73,50.22a4.9,4.9,0,0,0-1-7.52h0a6.78,6.78,0,0,0-8.64.87l-18.44,27h0C71.85,70.69,99.73,50.22,99.73,50.22Z" style="fill:#ef90b9"/><path d="M71.51,72.07c-.3,0-.5-.17-.8-.42a1.47,1.47,0,0,1-.26-1.94l18.44-27c0-.06.09-.11.13-.16a8.3,8.3,0,0,1,10.55-1.1,6.61,6.61,0,0,1,2.92,4.7,6.32,6.32,0,0,1-1.68,5,2.09,2.09,0,0,1-.22.2s-7,5.12-14,10.22c-3.5,2.55-7,5.1-9.65,7C73.32,71.24,72.17,72.07,71.51,72.07ZM91.25,44.49,77.44,64.68c5.9-4.27,14.67-10.68,21.3-15.55a3.41,3.41,0,0,0,.84-2.61,3.75,3.75,0,0,0-1.67-2.62A5.37,5.37,0,0,0,91.25,44.49Zm8.48,5.73h0Z" style="fill:#231815"/><path d="M90.24,42.76c1.05-2.8-.7-5.83-3.93-6.76h0c-3.23-.94-6.7.58-7.76,3.39L72,70.21h0C72.22,70.3,90.24,42.76,90.24,42.76Z" style="fill:#ef90b9"/><path d="M72.13,71.75a2.09,2.09,0,0,1-.68-.18,1.46,1.46,0,0,1-.9-1.67l6.57-30.81q0-.12.06-.21c1.32-3.51,5.6-5.43,9.54-4.29a7.43,7.43,0,0,1,4.62,3.7,6.16,6.16,0,0,1,.26,5,1,1,0,0,1-.14.28s-4.51,6.89-9,13.77c-2.27,3.43-4.55,6.87-6.27,9.44C73.43,70.83,72.81,71.75,72.13,71.75ZM80,39.81l-5,23.5c3.83-5.76,9.62-14.56,14-21.2a3.2,3.2,0,0,0-.19-2.5A4.48,4.48,0,0,0,85.9,37.4C83.43,36.69,80.8,37.77,80,39.81Zm10.28,2.95Z" style="fill:#231815"/><path d="M129.71,75.53a1.4,1.4,0,0,0,1.52,1.25l4.94-.06a1.28,1.28,0,1,0,0-2.52l-4.93.06A1.4,1.4,0,0,0,129.71,75.53Z" style="fill:#231815"/><path d="M127.12,87.22a.91.91,0,0,0,0,.32,1.32,1.32,0,0,0,1.13,1.21l5.6,1.17a1.58,1.58,0,0,0,1.85-.91,1.26,1.26,0,0,0-1.09-1.53L129,86.3A1.57,1.57,0,0,0,127.12,87.22Z" style="fill:#231815"/><path d="M128.16,62.3a1.31,1.31,0,0,0-1.11,1.23,1.25,1.25,0,0,0,0,.32,1.56,1.56,0,0,0,1.86.87l5.34-1.24a1.25,1.25,0,0,0,1.06-1.55,1.57,1.57,0,0,0-1.87-.87Z" style="fill:#231815"/></svg>