<svg id="圖層_1" data-name="圖層 1" xmlns="http://www.w3.org/2000/svg" viewBox="0 0 150 150"><title>ms-22</title><path d="M38.77,63.05h72.46a1.26,1.26,0,0,1,.28,0h2.22v-5H89.25a1.12,1.12,0,1,1,0-2.24h24.48V53.32a2.51,2.51,0,0,0-2.5-2.51H38.77a2.51,2.51,0,0,0-2.5,2.51v9.77h2.22A1.26,1.26,0,0,1,38.77,63.05Zm42.44-6.89a1.16,1.16,0,0,1,1.59,0,1.12,1.12,0,0,1-.8,1.91,1.07,1.07,0,0,1-.79-.33,1.09,1.09,0,0,1,0-1.58Z" style="fill:#ffb71b"/><path d="M61.3,47.82a1.86,1.86,0,0,0,.28.21,1.13,1.13,0,0,1,.42.53H72.58c-2.8-2.21-7.76-6.71-7.76-10.86a10.06,10.06,0,0,1,.77-3.88,7.95,7.95,0,0,0-4.29,14Z" style="fill:#e96bb0"/><polygon points="72.5 85.6 72.5 113.17 77.5 113.17 77.5 92.87 77.5 85.6 77.5 65.34 72.5 65.34 72.5 85.6" style="fill:#e96bb0"/><rect x="39.89" y="86.73" width="30.36" height="5.02" style="fill:#e96bb0"/><rect x="79.75" y="93.99" width="30.36" height="19.18" style="fill:#fff"/><path d="M75,47.58c2.69-2,7.93-6.54,7.93-9.88a7.93,7.93,0,1,0-15.86,0C67.07,41,72.31,45.59,75,47.58Z" style="fill:#e96bb0"/><rect x="39.89" y="93.99" width="30.36" height="19.18" style="fill:#fff"/><path d="M77.42,48.56H88a1.13,1.13,0,0,1,.42-.53,1.86,1.86,0,0,0,.28-.21,7.95,7.95,0,0,0-4.29-14,10.06,10.06,0,0,1,.77,3.88C85.18,41.85,80.22,46.35,77.42,48.56Z" style="fill:#e96bb0"/><rect x="79.75" y="86.73" width="30.36" height="5.02" style="fill:#e96bb0"/><rect x="79.75" y="65.34" width="30.36" height="19.14" style="fill:#fff"/><rect x="39.89" y="65.34" width="30.36" height="19.14" style="fill:#fff"/><path d="M82,58.07a1.12,1.12,0,0,0,.8-1.91,1.16,1.16,0,0,0-1.59,0,1.09,1.09,0,0,0,0,1.58A1.07,1.07,0,0,0,82,58.07Z" style="fill:#231815"/><path d="M109.41,121.38a1.13,1.13,0,0,0-1.13-1.13H40.17a1.13,1.13,0,0,0,0,2.25h68.11A1.12,1.12,0,0,0,109.41,121.38Z" style="fill:#323232"/><path d="M28.63,115.42h92.75a1.13,1.13,0,0,0,0-2.25h-9V65.34h2.49A1.12,1.12,0,0,0,116,64.22V53.32a4.76,4.76,0,0,0-4.75-4.76H91.15a10.2,10.2,0,0,0-8.06-17,10.14,10.14,0,0,0-16.18,0,10.2,10.2,0,0,0-8.06,17H38.77A4.76,4.76,0,0,0,34,53.32v10.9a1.13,1.13,0,0,0,1.13,1.12h2.5v47.83h-9a1.13,1.13,0,1,0,0,2.25Zm41.62-2.25H39.89V94H70.25Zm0-21.43H39.89v-5H70.25Zm0-7.26H39.89V65.34H70.25ZM77.5,85.6v27.57h-5V65.34h5Zm32.61,27.57H79.75V94h30.36Zm0-21.43H79.75v-5h30.36Zm0-7.26H79.75V65.34h30.36ZM85.18,37.7a10.06,10.06,0,0,0-.77-3.88,7.95,7.95,0,0,1,4.29,14,1.86,1.86,0,0,1-.28.21,1.13,1.13,0,0,0-.42.53H77.42C80.22,46.35,85.18,41.85,85.18,37.7ZM75,29.75a8,8,0,0,1,7.93,8c0,3.34-5.24,7.89-7.93,9.88-2.69-2-7.93-6.54-7.93-9.88A8,8,0,0,1,75,29.75ZM60.32,36.61a7.91,7.91,0,0,1,5.27-2.79,10.06,10.06,0,0,0-.77,3.88c0,4.15,5,8.65,7.76,10.86H62a1.13,1.13,0,0,0-.42-.53,1.86,1.86,0,0,1-.28-.21A8,8,0,0,1,60.32,36.61Zm-24,26.48V53.32a2.51,2.51,0,0,1,2.5-2.51h72.46a2.51,2.51,0,0,1,2.5,2.51v2.51H89.25a1.12,1.12,0,1,0,0,2.24h24.48v5h-2.22a1.26,1.26,0,0,0-.28,0H38.77a1.26,1.26,0,0,0-.28,0Z" style="fill:#231815"/><path d="M46.7,41.54h3.63a1.13,1.13,0,0,0,0-2.25H46.7a1.13,1.13,0,0,0,0,2.25Z" style="fill:#231815"/><path d="M48,29.71l3.5.94a1,1,0,0,0,.29,0,1.12,1.12,0,0,0,.3-2.21l-3.5-.94A1.12,1.12,0,0,0,48,29.71Z" style="fill:#231815"/><path d="M99.87,40.42A1.12,1.12,0,0,0,101,41.54h3.62a1.12,1.12,0,1,0,0-2.24H101A1.12,1.12,0,0,0,99.87,40.42Z" style="fill:#231815"/><path d="M99.56,30.69a1,1,0,0,0,.3,0l3.5-.94a1.12,1.12,0,1,0-.59-2.17l-3.5.94a1.12,1.12,0,0,0,.29,2.21Z" style="fill:#231815"/></svg>