<svg id="圖層_1" data-name="圖層 1" xmlns="http://www.w3.org/2000/svg" viewBox="0 0 150 150"><title>ms-25</title><path d="M127.05,72.17a1.9,1.9,0,0,0,1.8,2l4.75.16a1.94,1.94,0,0,0,.13-3.88L129,70.3A1.9,1.9,0,0,0,127.05,72.17Z" style="fill:#231815"/><path d="M119.05,99.52a2,2,0,0,0,.59,2.67l4,2.6a1.83,1.83,0,0,0,2.57-.62,2,2,0,0,0-.6-2.68l-4-2.6A1.83,1.83,0,0,0,119.05,99.52Z" style="fill:#231815"/><path d="M124.37,86.41a2.54,2.54,0,0,0-.07.47,1.91,1.91,0,0,0,1.36,1.92l4.94,1.44a1.87,1.87,0,0,0,2.31-1.34,2,2,0,0,0-1.29-2.39l-5-1.44A1.86,1.86,0,0,0,124.37,86.41Z" style="fill:#231815"/><path d="M121.61,41.74a1.94,1.94,0,0,0-1,1.65,1.89,1.89,0,0,0,.21,1,1.83,1.83,0,0,0,2.53.79l4.19-2.34a2,2,0,0,0,.77-2.62,1.82,1.82,0,0,0-2.52-.79Z" style="fill:#231815"/><path d="M126.74,55.49a1.92,1.92,0,0,0-1.48,1.83,2.49,2.49,0,0,0,0,.47,1.85,1.85,0,0,0,2.21,1.49l5-1.11a2,2,0,0,0,1.44-2.3,1.87,1.87,0,0,0-2.21-1.5Z" style="fill:#231815"/><path d="M22,72.22a1.81,1.81,0,0,1-1.71,1.88L16.06,74a2,2,0,0,1,.12-3.87l4.21.13A1.82,1.82,0,0,1,22,72.22Z" style="fill:#231815"/><path d="M27.37,100a2.23,2.23,0,0,1,.19,1,2,2,0,0,1-.88,1.65L23,105a1.52,1.52,0,0,1-2.23-.78,2.13,2.13,0,0,1,.69-2.63l3.72-2.35A1.52,1.52,0,0,1,27.37,100Z" style="fill:#231815"/><path d="M23.47,86.59a2.49,2.49,0,0,1,0,.47,1.92,1.92,0,0,1-1.32,1.84L17.73,90a1.65,1.65,0,0,1-2-1.48,2,2,0,0,1,1.28-2.31l4.46-1.13A1.64,1.64,0,0,1,23.47,86.59Z" style="fill:#231815"/><path d="M28.65,42.18a2.06,2.06,0,0,1,.77,1.71,2.23,2.23,0,0,1-.26,1,1.52,1.52,0,0,1-2.27.63l-3.57-2.59a2.12,2.12,0,0,1-.51-2.66,1.51,1.51,0,0,1,2.27-.64Z" style="fill:#231815"/><path d="M23.27,55.58a1.91,1.91,0,0,1,1.2,1.92,2.54,2.54,0,0,1-.07.47,1.65,1.65,0,0,1-2,1.35L18,57.9a2,2,0,0,1-1.13-2.39,1.65,1.65,0,0,1,2-1.35Z" style="fill:#231815"/><path d="M108.7,50.77a24,24,0,0,1,4,20.41c-4.41,17.93-25.5,32.95-34.36,38.58a6.83,6.83,0,0,1-3.68,1.06,6.93,6.93,0,0,1-3.7-1.07c-8.74-5.56-29.58-20.44-34.34-38.6a22.91,22.91,0,0,1,3.76-20,19.25,19.25,0,0,1,15.52-7.69c5.67,0,11.7,2.38,17.43,6.89a2.16,2.16,0,0,0,2.63,0c6-4.53,12.1-6.93,17.79-6.93A18.74,18.74,0,0,1,108.7,50.77Z" style="fill:#d94434"/><path d="M74.61,112.23a8.25,8.25,0,0,1-4.45-1.3c-8.89-5.64-30.07-20.79-34.95-39.42a24.31,24.31,0,0,1,4-21.22,20.63,20.63,0,0,1,16.63-8.24c6,0,12.32,2.49,18.3,7.19a.75.75,0,0,0,.91,0C81.26,44.53,87.71,42,93.7,42a20.1,20.1,0,0,1,16.1,7.86h0A25.36,25.36,0,0,1,114,71.52c-4.52,18.42-26,33.71-35,39.42A8.24,8.24,0,0,1,74.61,112.23ZM55.85,44.86A17.84,17.84,0,0,0,41.45,52,21.53,21.53,0,0,0,37.92,70.8c4.64,17.67,25.14,32.29,33.74,37.76a5.59,5.59,0,0,0,5.88,0C86.26,103,107,88.28,111.29,70.85a22.59,22.59,0,0,0-3.7-19.21A17.33,17.33,0,0,0,93.7,44.85c-5.37,0-11.23,2.29-16.94,6.63a3.56,3.56,0,0,1-4.35,0C66.94,47.14,61.21,44.86,55.85,44.86Z" style="fill:#231815"/><path d="M64.66,55.51a1.71,1.71,0,0,1-2.12,2.69c-6.15-4.83-10.69-2.81-12.35-1.72a9.76,9.76,0,0,0-3.77,10.76,1.71,1.71,0,0,1-1.23,2.09,1.59,1.59,0,0,1-.43.06,1.72,1.72,0,0,1-1.66-1.28,13.19,13.19,0,0,1,5.2-14.5C53.06,50.49,59.18,51.2,64.66,55.51Z" style="fill:#231815"/></svg>