<svg id="圖層_1" data-name="圖層 1" xmlns="http://www.w3.org/2000/svg" viewBox="0 0 150 150"><title>ms-32</title><path d="M107.26,119.44a1.75,1.75,0,0,0-.52,1.25,1.78,1.78,0,0,0,1.77,1.77,1.77,1.77,0,0,0,1.26-3A1.84,1.84,0,0,0,107.26,119.44Z" style="fill:#231815"/><path d="M119.58,99.88h-2.66V97.22a1.77,1.77,0,1,0-3.54,0v2.66h-2.66a1.77,1.77,0,1,0,0,3.54h2.66v2.66a1.77,1.77,0,1,0,3.54,0v-2.66h2.66a1.77,1.77,0,0,0,0-3.54Z" style="fill:#231815"/><path d="M130.27,122.26a4.73,4.73,0,1,1-4.73-4.51A4.63,4.63,0,0,1,130.27,122.26Z" style="fill:#e96bb0"/><path d="M125.54,128.23a6,6,0,1,1,6.19-6A6.08,6.08,0,0,1,125.54,128.23Zm0-9a3.05,3.05,0,1,0,3.26,3.05A3.16,3.16,0,0,0,125.54,119.21Z" style="fill:#231815"/><path d="M18.79,45.76A1.79,1.79,0,0,0,18.27,47a1.86,1.86,0,0,0,.52,1.26,1.82,1.82,0,0,0,1.25.51,1.85,1.85,0,0,0,1.26-.51A1.8,1.8,0,0,0,21.81,47a1.78,1.78,0,0,0-.51-1.25A1.84,1.84,0,0,0,18.79,45.76Z" style="fill:#231815"/><path d="M31.11,26.2H28.46V23.54a1.78,1.78,0,0,0-3.55,0V26.2H22.26a1.77,1.77,0,0,0,0,3.54h2.65V32.4a1.78,1.78,0,0,0,3.55,0V29.74h2.65a1.77,1.77,0,1,0,0-3.54Z" style="fill:#231815"/><path d="M48.4,45a4.73,4.73,0,1,1-4.73-4.51A4.62,4.62,0,0,1,48.4,45Z" style="fill:#ffb71b"/><path d="M43.67,50.93a6,6,0,1,1,6.19-6A6.08,6.08,0,0,1,43.67,50.93Zm0-9A3.05,3.05,0,1,0,46.93,45,3.17,3.17,0,0,0,43.67,41.91Z" style="fill:#231815"/><path d="M54.51,69.66c15.35,1.11,21.37,8.49,20.61,20.42l0,2.15C69.25,97,59.32,97.33,53.46,93.6,47.46,86.26,46.21,76,54.51,69.66Z" style="fill:#5ec5f2"/><path d="M67.6,57.94C82.17,60.6,89.1,68,88.57,80c7.05-5.21,9.11-12.3,3.38-23.26C85.48,52.73,73.94,51.24,67.6,57.94Z" style="fill:#5ec5f2"/><path d="M90.22,55.84c-2.83-5.81-.78-10.62,3.31-16.43l2.53,3,4.28-1.1,1,4.57,3.8.25.76,5.22,4.56,2.83C104,60.94,97.19,60.65,90.22,55.84Z" style="fill:#ffb71b"/><path d="M54.53,94.67c2.84,5.8.36,11.61-3.74,17.42l-2.09-4-4.51,1-.79-4.43-4.65.45.1-5.93-4.56-2.82C40.52,89.83,50.45,91.85,54.53,94.67Z" style="fill:#ffb71b"/><path d="M54.83,70.25c11.94,1,21.74,4.82,21.08,22L89.22,78.82c-1-11.81-8.3-18.76-22.44-20.52Z" style="fill:#e96bb0"/><path d="M50.44,112.59a1.51,1.51,0,0,1-1.33-1l-.66-2.45-3.77,1.46a1.54,1.54,0,0,1-2.12-1.33l0-3.6-3.09.43a1.45,1.45,0,0,1-1.82-1.51l.63-5.24-4-1.86A1.54,1.54,0,0,1,33.88,95c3.78-3.55,9.56-4.49,15.15-3.9l.06,0-1.34-3.74c-1.87-6.12-.2-13.13,4-16.71l1-.74,15.6-14c4.18-4.08,12.65-5.47,19.58-2.62l.68.32,0-.12c-.38-5,.35-10.55,4.19-15.12a1.56,1.56,0,0,1,2.64.43l1.22,2.88,3.27-1.59A1.55,1.55,0,0,1,102,41.41l.49,3.87,2.64-1A1.54,1.54,0,0,1,107,45.94l-.35,5.66,4.1,1.45a1.55,1.55,0,0,1,.47,2.56c-3.25,3-7.8,4.35-12.75,4.47A19.6,19.6,0,0,1,96,60l-1.15-.21,0,0c2.09,5.34,2.44,12.46-1.27,16.12L76.76,92.39l-1.15,1.19A17,17,0,0,1,65,97.52a30.27,30.27,0,0,1-7.21-.7l-1.43-.42.16,1.09A19.5,19.5,0,0,1,51.74,112a1.54,1.54,0,0,1-1.06.55Zm.38-3.3.9-1.48a16.39,16.39,0,0,0,2-11.06,1.58,1.58,0,0,1,0-.61l.08-.28-.29,0a12,12,0,0,0-4.38.36,6.81,6.81,0,0,0-3.79,3.06,1.56,1.56,0,0,1-2.14.47,1.56,1.56,0,0,1-.47-2.15,10.33,10.33,0,0,1,4-3.73l1.4-.57-.07,0a18.93,18.93,0,0,0-11.41,2.46l-.29.18,3.37,1.41a1.58,1.58,0,0,1,1,1.56l-.42,4.91,2.79-.51a1.54,1.54,0,0,1,1.82,1.41l.24,3.34,3.11-1.25a1.54,1.54,0,0,1,2,.87ZM64.75,95.12c3.33-.08,6.55-.94,8.72-2.81l.87-.89v-.17c2.38-10-10.51-22.56-20.14-19.09l-.26,0-.22.16C49,75.39,47.24,85,52.35,91c2,2.33,6.29,3.89,10.74,4.12C63.64,95.12,64.2,95.13,64.75,95.12Zm12.34-6,9.39-9.7,1-1.3C88,68.68,75.78,57,66.84,60.25l-.7.69-9.3,8,3.17.17c8.58,1.44,16.24,9.81,17.08,18.42Zm3.75-8.26a2.37,2.37,0,0,1-2.14-2.17,1.74,1.74,0,0,1,1.87-1.91A2.36,2.36,0,0,1,82.7,79,1.72,1.72,0,0,1,80.84,80.9Zm8.94-4.49,1.66-1.83c3.88-3.81,2.67-14.1-1.43-16.82l-.11-.08a16.25,16.25,0,0,0-19.5-.62l-.2.17,2.16.19c8.51,1.42,16.53,10,17.37,18.5ZM76,72.87h-.2a2.39,2.39,0,0,1-2.14-2.16,1.72,1.72,0,0,1,1.86-1.91A2.37,2.37,0,0,1,77.65,71,1.73,1.73,0,0,1,76,72.87Zm-8-5.28h-.19a2.37,2.37,0,0,1-2.15-2.17,1.73,1.73,0,0,1,1.87-1.91,2.39,2.39,0,0,1,2.14,2.17A1.74,1.74,0,0,1,68,67.59Zm30.39-10a19.45,19.45,0,0,0,9.77-2.59l.29-.18-3.36-1.4a1.55,1.55,0,0,1-1-1.57l.43-4.9-2.8.51A1.54,1.54,0,0,1,100,46.1l-.24-3.34L96.63,44a1.54,1.54,0,0,1-2-.86L94,41.55,93.08,43a16.27,16.27,0,0,0-2,11,1.44,1.44,0,0,1,0,.62h0l.32.23,2.16,0a9.06,9.06,0,0,0,2.14-.38,7,7,0,0,0,3.79-3.06,1.55,1.55,0,0,1,2.6,1.67,10.21,10.21,0,0,1-4,3.74l-1.41.57.08,0A14.71,14.71,0,0,0,98.42,57.64Z" style="fill:#231815"/></svg>