<svg id="圖層_1" data-name="圖層 1" xmlns="http://www.w3.org/2000/svg" viewBox="0 0 150 150"><title>ms-38</title><path d="M12.63,106.72a1.93,1.93,0,0,0-.57,1.37,2,2,0,0,0,.57,1.38A2,2,0,0,0,14,110a1.91,1.91,0,0,0,1.94-1.94,2,2,0,0,0-.56-1.37A2,2,0,0,0,12.63,106.72Z" style="fill:#231815"/><path d="M134.63,64a1.93,1.93,0,0,0-.57,1.37,2,2,0,0,0,.57,1.38,2,2,0,0,0,1.37.56,1.91,1.91,0,0,0,1.94-1.94,2,2,0,0,0-.56-1.37A2,2,0,0,0,134.63,64Z" style="fill:#231815"/><path d="M26.12,85.3H23.21V82.39a1.94,1.94,0,0,0-3.88,0V85.3h-2.9a1.94,1.94,0,1,0,0,3.87h2.9v2.92a1.94,1.94,0,0,0,3.88,0V89.17h2.91a1.94,1.94,0,1,0,0-3.87Z" style="fill:#231815"/><path d="M71.84,87.74A25.1,25.1,0,0,1,85.46,90c3.72,1.88,6.82,5.51,5.45,10-.5,1.66-2.66,2.54-4.16,3.17-3.51,1.45-8,.54-11.74.66-4.81.16-12.76,0-14.59-5.73C58.65,92.62,67.47,88.17,71.84,87.74Z" style="fill:#f8dcd5"/><path d="M89,100.24c.76.36,11.75,7.94,9.85,10.89-2.68,4.18-10.65-2.33-12.91-4.71" style="fill:#fbded7"/><path d="M96.26,114c-4.22,0-9.73-4.78-11.39-6.53a1.46,1.46,0,1,1,2.12-2c1.91,2,6.81,5.85,9.49,5.61a1.4,1.4,0,0,0,1.13-.69c.31-1.68-7.18-7.66-9.28-8.79a1.49,1.49,0,0,1-.63-2,1.44,1.44,0,0,1,1.91-.67c.54.25,9.56,6.22,10.76,10.4a3.07,3.07,0,0,1-.3,2.6,4.28,4.28,0,0,1-3.32,2A3.93,3.93,0,0,1,96.26,114Z" style="fill:#231815"/><path d="M64.11,101.06c-.81.21-12.61,5.56-11.22,8.79,2,4.55,10.67-.31,13.23-2.22" style="fill:#fbded7"/><path d="M56.11,113.19a6.35,6.35,0,0,1-1.59-.19,4.36,4.36,0,0,1-3-2.58,3.09,3.09,0,0,1,.15-2.65c1.87-3.84,11.48-8,12-8.12a1.46,1.46,0,0,1,.77,2.82c-2.53.83-10.31,5.21-10.26,6.83a1.43,1.43,0,0,0,1,.87c2.54.68,7.83-2.12,10-3.71A1.47,1.47,0,0,1,67,108.81C65.29,110.07,60.12,113.19,56.11,113.19Z" style="fill:#231815"/><path d="M89.91,101.06c2,5.62,1.5,5.17,1,7.09-1.05,4.27-3.75,6.85-7,9.64s-6.44,3.3-10.72,2.13a13.55,13.55,0,0,1-5.5-2.93c-1.5-1.36-2.13-3-3.27-4.56-3.15-4.25-3.63-6.37-1.25-11.75" style="fill:#fbded7"/><path d="M77,122a16.17,16.17,0,0,1-4.24-.62,15,15,0,0,1-6.11-3.26,13.21,13.21,0,0,1-2.44-3.2c-.33-.55-.65-1.07-1-1.57-3.36-4.52-4.08-7.2-1.42-13.21a1.46,1.46,0,0,1,2.67,1.19c-2.2,5-1.72,6.48,1.1,10.28.45.61.81,1.21,1.16,1.79a11,11,0,0,0,1.91,2.56,12.24,12.24,0,0,0,4.91,2.6c3.88,1.06,6.6.53,9.38-1.84,3.14-2.66,5.62-5,6.56-8.87.08-.32.16-.57.23-.8.25-.83.33-1.11-1.21-5.45a1.46,1.46,0,1,1,2.75-1c1.72,4.83,1.77,5.58,1.26,7.28-.06.18-.12.39-.18.64-1.16,4.71-4.09,7.5-7.52,10.41A11.57,11.57,0,0,1,77,122Z" style="fill:#231815"/><path d="M82,122.31a21,21,0,0,1-16.09-2.43c-5.22-3.36-5.24-7.25-5.26-11.87,0-2.84,3.52-2.93,6.9-3,6-.06,11.78.3,17.77.39,4.06.07,6.38.38,6.63,1.57a13.43,13.43,0,0,1-10,15.31" style="fill:#fff"/><path d="M76.77,124.4a21.74,21.74,0,0,1-11.69-3.29c-5.89-3.79-5.91-8.31-5.94-13.1,0-4.34,5-4.39,8.35-4.43,3.69,0,7.35.09,10.88.2,2.3.08,4.6.16,6.93.19,4.24.07,7.53.31,8,2.73,1.55,7.37-3.5,15.17-11,17h0A23.13,23.13,0,0,1,76.77,124.4Zm-7.91-17.9H67.53c-3.63,0-5.47.28-5.46,1.49,0,4.48,0,7.72,4.59,10.65a19.43,19.43,0,0,0,14.94,2.24h0c6-1.47,10-7.6,8.91-13.42-.36-.21-1.53-.51-5.25-.57-2.35,0-4.67-.12-7-.19C75.2,106.61,72,106.5,68.86,106.5Z" style="fill:#231815"/><path d="M98.53,119.31a7,7,0,0,1-1.35,4c-1.39,2.19-3.74-.09-3.89-.06-2.35.43-6.54.27-8.15-.69-2.78-1.68.26-5.73,2.15-7.63s3-1.47,4.76.4a8.5,8.5,0,0,0,2.34,2.23.94.94,0,0,0,1.31-.36C97,115.62,98.65,117.46,98.53,119.31Z" style="fill:#fbded7"/><path d="M95.62,125.67a4.91,4.91,0,0,1-2.64-.94c-2.5.34-6.62.21-8.56-1a3.52,3.52,0,0,1-1.78-2.67c-.36-2.89,2.71-6.21,3.65-7.16a4.91,4.91,0,0,1,3.28-1.69c1.46,0,2.53,1.06,3.51,2.12.21.22.42.46.62.7a6,6,0,0,0,1,1.08,2.59,2.59,0,0,1,3-.78,4.06,4.06,0,0,1,2.24,4,8.55,8.55,0,0,1-1.57,4.73,3.24,3.24,0,0,1-2.13,1.54A3.34,3.34,0,0,1,95.62,125.67Zm-2.32-3.84a1.74,1.74,0,0,1,1,.41c.65.45,1.12.66,1.35.6s.24-.19.3-.29a5.74,5.74,0,0,0,1.13-3.22v-.11a1.68,1.68,0,0,0-.34-1.12,2.31,2.31,0,0,1-3,.75,6.54,6.54,0,0,1-2.27-2c-.17-.2-.34-.41-.52-.6-.93-1-1.33-1.21-1.5-1.22a2.7,2.7,0,0,0-1.23.86c-1.78,1.78-3,3.81-2.85,4.83a.73.73,0,0,0,.43.59c1.12.67,4.86.94,7.16.51A1.24,1.24,0,0,1,93.3,121.83Z" style="fill:#231815"/><path d="M53.16,119.31a6.67,6.67,0,0,0,1.48,4c1.53,2.19,4.12-.09,4.28-.06,2.58.43,7.18.27,9-.69,3.06-1.68-.28-5.73-2.36-7.63s-3.33-1.47-5.23.4a8.9,8.9,0,0,1-2.57,2.23,1.09,1.09,0,0,1-1.44-.36C54.85,115.62,53,117.46,53.16,119.31Z" style="fill:#fbded7"/><path d="M56.3,125.71a3.43,3.43,0,0,1-2.85-1.57,8.2,8.2,0,0,1-1.75-4.79,4.1,4.1,0,0,1,2.28-4,2.87,2.87,0,0,1,3.3.77A5.31,5.31,0,0,0,58.59,115c.22-.24.44-.47.67-.7,1.88-1.84,4-3.39,7.22-.43,1.33,1.21,4.39,4.34,4,7.21a3.56,3.56,0,0,1-2,2.76c-2,1.12-6.6,1.28-9.35.93A5.74,5.74,0,0,1,56.3,125.71Zm-1.25-7.66a1.5,1.5,0,0,0-.44,1.16v.12a5.3,5.3,0,0,0,1.22,3.14c.2.29.48.69,2-.3a1.76,1.76,0,0,1,1.29-.36c2.61.45,6.73.17,8-.53.43-.23.46-.44.47-.55.12-1-1.22-3-3.11-4.72-1.38-1.26-1.62-1.23-3.23.35q-.3.3-.57.6a7.07,7.07,0,0,1-2.47,1.94,2.5,2.5,0,0,1-3.07-.73A.47.47,0,0,0,55.05,118.05Z" style="fill:#231815"/><path d="M133.08,49.81a5.18,5.18,0,1,1-5.17-4.94A5.06,5.06,0,0,1,133.08,49.81Z" style="fill:#ffb71b"/><path d="M127.91,56.21a6.4,6.4,0,1,1,6.63-6.4A6.53,6.53,0,0,1,127.91,56.21Zm0-9.88a3.48,3.48,0,1,0,3.71,3.48A3.6,3.6,0,0,0,127.91,46.33Z" style="fill:#231815"/><path d="M37.83,109.81a5.18,5.18,0,1,1-5.17-4.94A5.06,5.06,0,0,1,37.83,109.81Z" style="fill:#e96bb0"/><path d="M32.66,116.21a6.4,6.4,0,1,1,6.63-6.4A6.53,6.53,0,0,1,32.66,116.21Zm0-9.87a3.48,3.48,0,1,0,3.71,3.47A3.59,3.59,0,0,0,32.66,106.34Z" style="fill:#231815"/><path d="M118.87,68.29A5.06,5.06,0,0,0,113,66.83l-.06-.32c.07-.84.12-1.68.12-2.53,0-17.48-16-31.66-35.82-31.66-19.22,0-34.9,13.39-35.77,30.19-4.82-1-9.86,5.82-5.75,10.42a4.6,4.6,0,0,0,5,1.4,17.8,17.8,0,0,0,.32,3c4.69,24.23,57.8,25.72,68.47,9.09a24.53,24.53,0,0,0,3.24-8C117.38,79.42,122.92,72.74,118.87,68.29Z" style="fill:#fbded7"/><path d="M79.26,99a69.22,69.22,0,0,1-13.13-1.27c-15-2.87-24.64-10.2-26.56-20.11-.1-.52-.18-1.07-.24-1.64h-.14a6,6,0,0,1-4.57-2.11,7.35,7.35,0,0,1-.81-8.75A8.16,8.16,0,0,1,40.11,61c1.71-17,17.71-30.11,37.12-30.11,20.56,0,37.29,14.86,37.29,33.12,0,.33,0,.66,0,1A6.54,6.54,0,0,1,120,67.3h0a6.81,6.81,0,0,1,.75,8.25A8.65,8.65,0,0,1,113.85,80a25.72,25.72,0,0,1-3.14,7.23C106.51,93.81,94.44,99,79.26,99ZM40.69,72.87a1.48,1.48,0,0,1,1.46,1.42,17.61,17.61,0,0,0,.29,2.81C44.12,85.78,53,92.26,66.68,94.9c17.5,3.36,36.15-.77,41.57-9.22a23.24,23.24,0,0,0,3-7.51A1.47,1.47,0,0,1,113,77.05c1.75.35,4-.94,5.14-2.94a4,4,0,0,0-.36-4.84h0a3.62,3.62,0,0,0-4.26-1.08,1.46,1.46,0,0,1-1.27-.08,1.49,1.49,0,0,1-.72-1l-.05-.31a1.2,1.2,0,0,1,0-.38c.08-.88.12-1.66.12-2.39,0-16.65-15.41-30.2-34.36-30.2-18.4,0-33.47,12.65-34.31,28.8a1.46,1.46,0,0,1-.56,1.08,1.49,1.49,0,0,1-1.19.28c-1.71-.34-3.74.79-4.82,2.68A4.43,4.43,0,0,0,36.8,72a3.14,3.14,0,0,0,3.47,1A1.52,1.52,0,0,1,40.69,72.87Z" style="fill:#231815"/><path d="M103.89,68.52a4.38,4.38,0,1,1-4.38-4.58,4.48,4.48,0,0,1,4.38,4.58" style="fill:#231815"/><path d="M59.92,68.52a4.38,4.38,0,1,1-4.38-4.58,4.48,4.48,0,0,1,4.38,4.58" style="fill:#231815"/><path d="M78.35,38.43h0A1.48,1.48,0,0,1,76.89,37c0-3.58,0-8,2.14-11.9a1.46,1.46,0,0,1,2.57,1.39c-1.74,3.23-1.76,7.11-1.78,10.52A1.47,1.47,0,0,1,78.35,38.43Z" style="fill:#231815"/><path d="M73,39.32a1.45,1.45,0,0,1-1.33-.86c-1.48-3.25-3.32-7.3-3-11.69a1.44,1.44,0,0,1,1.55-1.37A1.46,1.46,0,0,1,71.5,27c-.22,3.67,1.38,7.19,2.79,10.3a1.46,1.46,0,0,1-.72,1.94A1.49,1.49,0,0,1,73,39.32Z" style="fill:#231815"/><path d="M84.66,39.25a1.24,1.24,0,0,1-.33,0,1.46,1.46,0,0,1-1.1-1.75C84,34,85,29.64,87.9,26.31a1.47,1.47,0,0,1,2.22,1.92c-2.4,2.77-3.27,6.55-4,9.88A1.45,1.45,0,0,1,84.66,39.25Z" style="fill:#231815"/><path d="M76.66,87.23c-6.71,0-12.17-4.73-12.17-10.55a1.42,1.42,0,0,1,2.83,0c0,4.25,4.19,7.71,9.34,7.71S86,80.93,86,76.68a1.42,1.42,0,0,1,2.83,0C88.82,82.5,83.36,87.23,76.66,87.23Z" style="fill:#231815"/><path d="M62.52,101.93A4.14,4.14,0,0,1,57,104h0a4.14,4.14,0,0,1-2-5.48l2.16-6.07a4.13,4.13,0,0,1,5.48-2h0a4.13,4.13,0,0,1,2,5.48Z" style="fill:#ffb71b"/><path d="M58.76,105.8a5.6,5.6,0,0,1-5.11-7.87l2.14-6,.05-.12a5.6,5.6,0,0,1,10.21,4.6l-2.15,6a.61.61,0,0,1,0,.12A5.6,5.6,0,0,1,58.76,105.8ZM58.53,93l-2.15,6s0,.08,0,.12a2.63,2.63,0,0,0-.08,2,2.67,2.67,0,0,0,4.91.24l2.14-6a.61.61,0,0,1,0-.12,2.67,2.67,0,0,0,.07-2A2.6,2.6,0,0,0,62,91.71,2.66,2.66,0,0,0,58.53,93Zm4,9h0Z" style="fill:#231815"/><path d="M71.58,104.11A4.14,4.14,0,0,1,66.49,107h0a4.14,4.14,0,0,1-2.88-5.09l1.18-6.34a4.12,4.12,0,0,1,5.09-2.87h0a4.13,4.13,0,0,1,2.87,5.08Z" style="fill:#ffb71b"/><path d="M67.6,108.6a6,6,0,0,1-1.51-.2,5.61,5.61,0,0,1-3.91-6.83l1.17-6.27a.28.28,0,0,1,0-.13,5.6,5.6,0,0,1,10.8,2.93L73,104.38a.5.5,0,0,1,0,.12,5.58,5.58,0,0,1-5.39,4.1ZM66.21,95.9l-1.16,6.27,0,.12a2.67,2.67,0,0,0,5.13,1.48l1.16-6.26,0-.13a2.67,2.67,0,0,0-.25-2,2.69,2.69,0,0,0-3.64-1A2.71,2.71,0,0,0,66.21,95.9Zm5.36,8.21h0Z" style="fill:#231815"/><path d="M91.14,101.79a3.76,3.76,0,0,0,5.12,2h0a4.25,4.25,0,0,0,1.9-5.48l-2-6.07a3.76,3.76,0,0,0-5.12-2h0a4.26,4.26,0,0,0-1.91,5.48Z" style="fill:#ffb71b"/><path d="M94.65,105.66a4.9,4.9,0,0,1-1.77-.32,5.36,5.36,0,0,1-3.09-3s0-.07,0-.11l-2-6a5.76,5.76,0,0,1,2.63-7.31,5,5,0,0,1,4-.2,5.37,5.37,0,0,1,3.08,3,1.17,1.17,0,0,1,0,.11l2,6a5.73,5.73,0,0,1-2.63,7.31A5,5,0,0,1,94.65,105.66Zm-2.15-4.4a2.5,2.5,0,0,0,1.39,1.34,2.17,2.17,0,0,0,1.73-.09,2.8,2.8,0,0,0,1.2-3.59.56.56,0,0,1,0-.12l-2-6a2.47,2.47,0,0,0-1.39-1.34,2.15,2.15,0,0,0-1.72.09,2.78,2.78,0,0,0-1.2,3.59s0,.08,0,.11Z" style="fill:#231815"/><path d="M82.28,104.3A3.84,3.84,0,0,0,87,107.18h0a4.18,4.18,0,0,0,2.69-5.09l-1.1-6.33a3.84,3.84,0,0,0-4.76-2.88h0A4.17,4.17,0,0,0,81.18,98Z" style="fill:#ffb71b"/><path d="M86,108.79a5.16,5.16,0,0,1-2.52-.66,5.65,5.65,0,0,1-2.62-3.46.5.5,0,0,1,0-.12l-1.09-6.28a5.64,5.64,0,0,1,3.7-6.79,5.09,5.09,0,0,1,4,.45A5.54,5.54,0,0,1,90,95.39l0,.12,1.09,6.27a5.65,5.65,0,0,1-3.71,6.8A5.19,5.19,0,0,1,86,108.79ZM83.71,104a2.58,2.58,0,0,0,1.21,1.59,2.2,2.2,0,0,0,1.7.2,2.7,2.7,0,0,0,1.69-3.32l0-.12L87.2,96.07A2.63,2.63,0,0,0,86,94.48a2.16,2.16,0,0,0-1.7-.2A2.7,2.7,0,0,0,82.6,97.6s0,.08,0,.12Z" style="fill:#231815"/><path d="M81.17,104.53a4.12,4.12,0,0,1-4.4,3.84h0a4.13,4.13,0,0,1-3.85-4.4l-.13-6.44a4.15,4.15,0,0,1,4.41-3.85h0A4.14,4.14,0,0,1,81,98.09Z" style="fill:#ffb71b"/><path d="M77.05,109.85l-.38,0a5.59,5.59,0,0,1-5.21-5.89l-.13-6.38v-.13a5.6,5.6,0,0,1,6-5.21,5.62,5.62,0,0,1,5.22,5.9l.12,6.38v.13A5.6,5.6,0,0,1,77.05,109.85ZM74.26,97.57l.12,6.37a.56.56,0,0,1,0,.13,2.67,2.67,0,0,0,5.33.42l-.13-6.38V98a2.67,2.67,0,0,0-5.32-.42Z" style="fill:#231815"/></svg>