<svg id="圖層_1" data-name="圖層 1" xmlns="http://www.w3.org/2000/svg" viewBox="0 0 150 150"><title>ms-pin</title><circle cx="52.53" cy="141.9" r="8.1" style="fill:#777"/><path d="M56,65a41.75,41.75,0,0,1,14.3-2.4,59.49,59.49,0,0,1,23.65,5.34,60.81,60.81,0,0,0,24.2,5.46,40.6,40.6,0,0,0,18.78-4.26,4.48,4.48,0,0,0,2.4-4V9.4a2.49,2.49,0,0,0-3.62-2.24A39.22,39.22,0,0,1,118.12,11,58.3,58.3,0,0,1,94.46,5.58,59.63,59.63,0,0,0,70.27,0h0a39.53,39.53,0,0,0-19.1,4.52A4.09,4.09,0,0,0,49.08,8.1V67.71" style="fill:#f55f5f"/><path d="M49.08,67.71V142.3a3.45,3.45,0,1,0,6.89,0V65" style="fill:#ccccc7"/></svg>