<?xml version="1.0" encoding="utf-8"?>
<!-- Generator: Adobe Illustrator 16.0.3, SVG Export Plug-In . SVG Version: 6.00 Build 0)  -->
<!DOCTYPE svg PUBLIC "-//W3C//DTD SVG 1.1//EN" "http://www.w3.org/Graphics/SVG/1.1/DTD/svg11.dtd">
<svg version="1.1" id="圖層_1" xmlns="http://www.w3.org/2000/svg" xmlns:xlink="http://www.w3.org/1999/xlink" x="0px" y="0px"
	 width="228px" height="55px" viewBox="0 0 228 55" enable-background="new 0 0 228 55" xml:space="preserve">
<g>
	<g>
		<g>
			<path fill="#FAC109" d="M225.754,32.608c-2.799-2.481-7.174-2.901-10.373-1.972c-0.762,0.186-0.376-0.344-0.263-0.5
				c5.032-6.826,7.146-17.048-1.131-22.399c-10.241-6.629-23.493,3.37-19.425,18.523c0.229,0.855,0.508,1.697,0.826,2.529
				c-0.029-0.135-0.064-0.266-0.09-0.403c-2.16-11.274,5.184-22.813,15.676-18.018c9.615,4.398,3.746,18.988,0.672,22.234
				c-0.08,0.086-0.113,0.341,0.13,0.289c3.319-1.245,10.755-2.119,12.271,2.874c1.317,4.331-3.334,6.971-8.129,7.274
				c-3.387,0.211-9.34-0.896-14.041-4.353c5.106,4.982,12.027,7.678,18.984,5.547C228.123,42.017,229.525,35.959,225.754,32.608z"/>
		</g>
		<g>
			<path fill="#FAC109" d="M201.609,38.603c1.332,2.54,1.896,5.412,1.759,8.694c-0.208,4.954-4.276,5.656-6.476,3.048
				c-2.273-2.688-3.056-6.686-3.174-9.021c-0.036-0.381,0-0.521-0.807-0.428c-2.041,0.236-10.436-0.863-14.4-5.98
				c-5.142-6.631,1.107-9.781,8.727-6.926c2.313,0.868,4.357,1.8,6.15,2.806c-2.529-1.707-5.283-3.188-8.057-4.456
				c-10.241-4.675-17.18,4.93-7.495,12.321c4.829,3.681,11.021,3.906,14.35,3.221c0.818-0.168,0.782-0.096,0.873,0.733
				c0.022,4.048,1.356,8.433,3.325,10.397c2.918,2.924,8.023,1.484,8.381-3.049C205.105,45.657,203.854,41.885,201.609,38.603z"/>
		</g>
		<path fill="#EB83B2" d="M190.627,28.103c0,0-4.645-6.904-10.383-9.397c-3.262-1.413-4.6-0.914-4.967-0.123
			c-0.582,1.245,1.83,2.231,3.975,2.967C183.21,22.911,188.279,25.259,190.627,28.103z"/>
		<path fill="#EA82B1" d="M200.826,37.647c0,0-10.479-6.534-11.012-26.768c-0.197-7.384-0.029-11.861-1.607-10.699
			c-0.818,0.604-2.623,4.795-1.302,13.667C189.218,29.379,199.721,37.1,200.826,37.647z"/>
	</g>
	<g>
		<path fill="#FAC109" d="M44.397,48.253h-1.065c0,0,0.008-1.929,0.008-4.765V29c0-2.691-0.231-2.967-2.542-2.967v-0.705l6.572,0.01
			l-0.003,9.157c1.324-1.887,2.844-2.716,5.125-2.716c4.523,0,7.168,2.963,7.168,8.039c0,5.533-2.939,8.83-7.861,8.83
			c-1.871,0-3.395-0.442-4.922-1.472C46.877,47.176,46.281,48.253,44.397,48.253z M48.162,45.837
			c0.627,1.22,1.986,2.077,3.371,2.077c2.443,0,3.732-2.593,3.732-7.576s-1.225-7.613-3.568-7.613c-1.387,0-2.678,0.918-3.404,2.386
			c-0.691,1.468-1.021,3.207-1.021,5.532C47.271,42.966,47.569,44.615,48.162,45.837z"/>
		<path fill="#FAC109" d="M106.32,33.951c1.42-1.379,3.667-2.171,6.179-2.171c5.187,0,8.554,3.302,8.554,8.375
			c0,2.387-0.822,4.644-2.178,6.044c-1.52,1.567-3.932,2.48-6.543,2.48c-2.475,0-4.826-0.887-6.209-2.323
			c-1.457-1.496-2.281-3.667-2.281-6.018C103.842,37.833,104.768,35.478,106.32,33.951z M112.465,47.975
			c2.874,0,4.16-2.381,4.16-7.7c0-5.349-1.318-7.791-4.195-7.791c-1.355,0-2.512,0.638-3.068,1.768
			c-0.727,1.319-1.059,3.274-1.059,5.935C108.303,45.47,109.623,47.975,112.465,47.975z"/>
		<path fill="#FAC109" d="M156.418,39.579c0.033,2.259,0.262,3.57,0.861,4.854c0.958,2.017,2.475,3.028,4.492,3.028
			c2.277,0,4.229-1.262,5.448-3.487l0.829,0.49c-1.652,2.9-3.867,4.185-7.268,4.185c-5.256,0-8.625-3.268-8.625-8.373
			c0-5.134,3.271-8.496,8.295-8.496c3.367,0,5.748,1.409,6.836,4.035c0.365,0.917,0.529,1.834,0.596,3.764H156.418z M163.752,38.684
			c-0.066-1.921-0.197-2.869-0.563-3.82c-0.625-1.618-1.549-2.379-2.841-2.379c-1.419,0-2.514,0.914-3.202,2.687
			c-0.365,0.95-0.563,1.925-0.695,3.512H163.752z"/>
		<path fill="#FAC109" d="M0.216,47.848c2.675-0.061,2.976-0.372,2.976-3.237V29.387c0-2.872-0.335-3.213-2.976-3.242v-0.816h10.341
			c6.541,0,9.484,1.656,9.484,5.306c0,3.309-2.047,4.896-7.105,5.426v0.219c5.287,0.25,7.964,2.279,7.964,6.054
			c0,4.486-3.138,6.327-10.901,6.327H0.216V47.848z M10.225,35.717c3.438,0,5.258-1.685,5.258-4.898
			c0-3.054-1.855-4.585-5.484-4.585H7.453v9.483H10.225z M9.965,47.758c4.127,0,6.209-1.873,6.209-5.581
			c0-2.092-0.761-3.745-2.146-4.62c-0.861-0.53-2.281-0.84-3.897-0.84H7.453v11.041H9.965z"/>
		<g>
			<path fill="#FAC109" d="M38.488,35.645c-0.145-1.203-0.537-2-1.223-2.613c-0.992-0.857-2.614-1.253-4.889-1.253
				c-2.25,0-4.034,0.368-5.419,1.158c-1.294,0.736-1.948,2.159-2.054,2.846c-0.175,1.115,0.381,2.568,2.283,2.422
				c1.307-0.101,1.986-1.412,2.047-2.512c0.101-1.161,0.201-1.65,0.527-2.167c0.467-0.735,1.156-1.042,2.213-1.042
				c1.984,0,2.58,0.946,2.58,4.188v1.986c-2.047,0.092-3.8,0.304-5.418,0.582c-3.535,0.641-5.285,2.26-5.285,4.888
				c0,2.744,1.949,4.49,5.088,4.49c2.146,0,3.93-0.767,5.648-2.477c0.167,1.865,1.482,2.323,2.539,2.323
				c0.296,0,0.793,0.004,1.344,0.012L38.488,35.645z M34.555,41.713c0,1.746-0.167,2.75-0.596,3.546
				c-0.627,1.249-1.883,2.017-3.204,2.017c-1.618,0-2.677-1.438-2.677-3.604c0-2.845,1.684-3.969,6.477-4.311V41.713z"/>
		</g>
		<g>
			<path fill="#FAC109" d="M149.415,37.679c0-2.077-0.267-3.208-0.993-4.126c-0.895-1.165-2.379-1.773-4.295-1.773
				c-2.482,0-4.227,0.975-5.686,3.209c-0.594-2.167-2.143-3.209-4.691-3.209c-2.473,0-4.424,1.072-5.745,3.084l-0.034-3.024
				l-6.441,0.033v0.734c2.177,0.027,2.443,0.736,2.443,3.299l0.017,12.287h4.017l-0.001-9.994c0-2.752,1.815-5.011,3.997-5.011
				c1.816,0,2.676,1.431,2.676,4.491l-0.012,10.514h4.012v-10.24c0-1.132,0.328-2.107,1.023-3.089
				c0.822-1.158,1.75-1.675,2.938-1.675c1.953,0,2.744,1.283,2.744,4.521l-0.009,10.483h4.058L149.415,37.679z"/>
		</g>
		<g>
			<path fill="#FAC109" d="M103.213,47.393c-2.707-0.087-2.976-0.363-2.976-3.17V29.276c0-2.752,0.269-3.06,2.878-3.146v-0.802
				h-7.188l0.018,10.209h-9.372l0.011-10.209h-7.146v0.802c2.58,0.085,2.846,0.393,2.846,3.146v14.947
				c0,2.807-0.266,3.083-2.975,3.17v0.8h7.275l-0.011-11.646h9.372l-0.018,11.646h7.285V47.393z"/>
		</g>
		<path fill="#FAC109" d="M76.486,32.24l-4.904,11.431L66.749,32.24h-5.903v0.697c1.549,0.125,1.846,0.461,2.969,2.908l5.786,12.773
			c0,0-0.614,1.431-0.966,2.101c-0.67,1.291-1.033,1.382-1.033,1.382c-1.082-2.688-4.441-1.94-4.641,0.285
			c-0.123,1.407,0.826,2.616,2.411,2.616c2.048,0,3.235-1.127,4.593-4.278l5.615-13.198c1.49-3.458,2.313-4.338,4.16-4.589V32.24
			H76.486z"/>
		<g>
			<path fill="#FAC109" d="M125.488,20.495c0.623-0.596,1.62-0.935,2.731-0.935c2.292,0,3.782,1.424,3.782,3.613
				c0,1.027-0.367,2.002-0.967,2.604c-0.672,0.677-1.734,1.073-2.891,1.073c-1.096,0-2.133-0.379-2.744-1
				c-0.647-0.647-1.014-1.584-1.014-2.601C124.387,22.167,124.799,21.154,125.488,20.495z M128.201,26.546
				c1.271,0,1.844-1.027,1.844-3.323c0-2.305-0.586-3.361-1.855-3.361c-0.602,0-1.113,0.275-1.361,0.762
				c-0.322,0.568-0.469,1.41-0.469,2.559C126.359,25.47,126.947,26.546,128.201,26.546z"/>
			<path fill="#FAC109" d="M153.861,24.583c0,0.578,0.043,0.921,0.143,1.185c0.119,0.292,0.41,0.49,0.719,0.49
				c0.303,0,0.656-0.145,1.021-0.408l0.207,0.328c-0.602,0.451-1.245,0.661-2.002,0.661c-0.789,0-1.375-0.265-1.654-0.726
				c-0.174-0.336-0.219-0.643-0.219-1.821v-4.117h-0.832v-0.391c0.644-0.028,1.051-0.225,1.389-0.704
				c0.264-0.37,0.41-0.75,0.541-1.408l0.73-0.068c-0.029,0.543-0.043,0.949-0.043,2.152h1.77v0.418h-1.77V24.583z"/>
			<path fill="#FAC109" d="M160.227,26.731h-1.08l-1.826-5.528c-0.277-0.854-0.525-1.104-1.152-1.144v-0.303h2.479l1.696,5.311
				l1.872-5.141h0.849l1.782,5.141l1.677-5.311h1.581v0.303c-0.837,0.053-1.199,0.422-1.596,1.596l-1.708,5.076h-1.05l-1.767-4.824
				L160.227,26.731z"/>
			<g>
				<path fill="#FAC109" d="M144.424,25.002v-2.907c0-0.897-0.115-1.387-0.428-1.784c-0.389-0.504-1.031-0.766-1.858-0.766
					c-1.072,0-1.827,0.422-2.454,1.386c-0.26-0.935-0.931-1.386-2.031-1.386c-1.068,0-1.912,0.463-2.483,1.333l-0.015-1.307
					l-2.783,0.015v0.316c0.941,0.011,1.057,0.317,1.057,1.426v2.752h0.006v2.558h1.729v-2.558h0.006V22.32
					c0-1.19,0.786-2.167,1.728-2.167c0.784,0,1.158,0.619,1.158,1.942v2.907c0,0.126-0.002,0.239-0.006,0.343v1.294h1.734v-1.574
					c-0.003-0.021-0.003-0.041-0.003-0.063v-2.79c0-0.488,0.146-0.91,0.442-1.334c0.357-0.5,0.76-0.725,1.271-0.725
					c0.845,0,1.187,0.555,1.187,1.954v2.895c0,0.187-0.003,0.346-0.011,0.484v1.152h1.76v-1.223
					C144.424,25.294,144.424,25.158,144.424,25.002z"/>
			</g>
			<circle fill="#FAC109" cx="113.431" cy="25.606" r="1.042"/>
			<circle fill="#FAC109" cx="148.467" cy="25.606" r="1.043"/>
			<path fill="#FAC109" d="M123.412,25.002c-0.659,1.229-1.74,1.848-3.201,1.848c-2.25,0-3.75-1.437-3.75-3.557
				c0-1.135,0.421-2.167,1.15-2.852c0.643-0.569,1.549-0.882,2.6-0.882c1.622,0,2.958,0.792,3.012,1.728
				c0.029,0.536-0.406,1.01-0.957,0.919c-0.331-0.054-0.805-0.256-0.896-1.09c-0.089-0.792-0.485-1.244-1.202-1.244
				c-0.597,0-1.111,0.33-1.34,0.841c-0.252,0.583-0.412,1.518-0.412,2.338c0,0.861,0.176,1.636,0.514,2.241
				c0.375,0.676,0.992,1.04,1.736,1.04c1.006,0,1.869-0.582,2.365-1.555L123.412,25.002z"/>
		</g>
	</g>
</g>
</svg>
