<?xml version="1.0" encoding="utf-8"?>
<!-- Generator: Adobe Illustrator 16.0.3, SVG Export Plug-In . SVG Version: 6.00 Build 0)  -->
<!DOCTYPE svg PUBLIC "-//W3C//DTD SVG 1.1//EN" "http://www.w3.org/Graphics/SVG/1.1/DTD/svg11.dtd">
<svg version="1.1" id="Layer_1" xmlns="http://www.w3.org/2000/svg" xmlns:xlink="http://www.w3.org/1999/xlink" x="0px" y="0px"
	 width="30px" height="30px" viewBox="0 0 30 30" enable-background="new 0 0 30 30" xml:space="preserve">
<g>
	<path fill="#B3B1B3" d="M2.295,15.704h2c0.381,0,0.688-0.316,0.688-0.688c0-0.389-0.308-0.688-0.688-0.688H2.052H1.574
		c-1.135,0-1.611,0.211-1.572,1.296c0.074,1.813,0.471,3.531,1.127,5.135l0.031,0.048c0.762,1.822,1.879,3.451,3.24,4.811
		c2.704,2.722,6.462,4.398,10.602,4.398c2.016,0,3.959-0.405,5.741-1.143l0.049-0.023c1.822-0.77,3.449-1.855,4.826-3.232
		C28.323,22.912,30,19.138,30,15.016c0-2.032-0.405-3.96-1.143-5.741l-0.023-0.065c-0.762-1.813-1.855-3.45-3.216-4.811
		c-1.377-1.377-3.045-2.478-4.875-3.239c-1.782-0.754-3.726-1.158-5.741-1.158c-2.033,0-3.961,0.404-5.742,1.158L9.203,1.167
		C8.23,1.571,7.332,2.082,6.482,2.665L6.57,1.208c0.033-0.624-0.453-1.175-1.076-1.207C4.861-0.023,4.328,0.454,4.295,1.078
		L4.061,5.054C4.027,5.403,4.125,5.743,4.4,6.019c0.211,0.219,0.51,0.34,0.811,0.34l3.984,0.227
		c0.632,0.033,1.157-0.453,1.198-1.077c0.032-0.632-0.445-1.166-1.069-1.198L8.215,4.253c0.583-0.373,1.223-0.705,1.87-0.973
		l0.049-0.031c1.297-0.535,2.697-0.867,4.179-0.939v2c0,0.381,0.309,0.688,0.681,0.688c0.381,0,0.696-0.307,0.696-0.688v-2
		c1.466,0.072,2.883,0.404,4.171,0.939c0.315,0.121,0.607,0.267,0.898,0.42l-0.355,0.607c-0.187,0.332-0.065,0.737,0.251,0.932
		c0.332,0.195,0.745,0.073,0.939-0.259l0.348-0.607c0.745,0.494,1.418,1.062,2.049,1.677c0.624,0.623,1.19,1.312,1.669,2.041
		l-0.607,0.355c-0.324,0.187-0.438,0.607-0.243,0.932c0.194,0.332,0.6,0.438,0.915,0.243l0.624-0.349
		c0.138,0.283,0.275,0.559,0.389,0.859l0.032,0.039c0.526,1.305,0.851,2.705,0.939,4.188h-2.017c-0.373,0-0.672,0.3-0.672,0.688
		c0,0.372,0.299,0.688,0.672,0.688h2.017c-0.105,1.807-0.583,3.531-1.36,5.07l-0.607-0.349c-0.332-0.194-0.737-0.073-0.932,0.243
		c-0.194,0.324-0.081,0.744,0.243,0.932l0.607,0.355c-0.479,0.745-1.045,1.426-1.669,2.041c-0.631,0.632-1.304,1.183-2.049,1.676
		l-0.348-0.607c-0.194-0.332-0.607-0.437-0.939-0.242c-0.316,0.178-0.438,0.6-0.251,0.924l0.355,0.599
		c-0.275,0.153-0.55,0.284-0.85,0.389l-0.049,0.032c-1.288,0.535-2.705,0.867-4.171,0.939v-2c0-0.373-0.315-0.672-0.696-0.672
		c-0.372,0-0.681,0.299-0.681,0.672v2c-1.821-0.089-3.538-0.566-5.069-1.36l0.341-0.599c0.186-0.324,0.081-0.746-0.252-0.924
		c-0.324-0.194-0.744-0.09-0.932,0.242l-0.348,0.607c-0.737-0.493-1.425-1.044-2.049-1.676c-0.615-0.623-1.183-1.296-1.676-2.041
		l0.615-0.348c0.324-0.195,0.445-0.607,0.25-0.939c-0.178-0.316-0.599-0.438-0.922-0.243l-0.616,0.349
		c-0.146-0.284-0.275-0.56-0.389-0.859l-0.032-0.04C2.699,18.571,2.367,17.17,2.295,15.704L2.295,15.704z"/>
	<path fill="#E16E5F" d="M15.002,9.493c-4.228-2.844-9.379,2.915-5.588,6.689v0.008l5.109,4.916c0.268,0.242,0.688,0.242,0.947,0
		l5.078-4.893l0.04-0.031C24.363,12.408,19.261,6.634,15.002,9.493z"/>
</g>
</svg>
