<svg id="圖層_1" data-name="圖層 1" xmlns="http://www.w3.org/2000/svg" viewBox="0 0 75 75"><title>ca-2</title><path d="M51.17,48.55a10.64,10.64,0,0,0-6,1.65,14.2,14.2,0,0,1-7.69,2.08,14.19,14.19,0,0,1-7.68-2.08,10.66,10.66,0,0,0-6-1.65,10.71,10.71,0,0,0-6,1.64,13.9,13.9,0,0,1-6.54,2.05V71.46H63.7V52.24a14,14,0,0,1-6.54-2A10.69,10.69,0,0,0,51.17,48.55Z" style="fill:#ffb71b"/><rect x="33.46" y="22.35" width="8.08" height="11.38" style="fill:#d94434"/><path d="M36.56,14a2,2,0,0,0,1.88,0,4,4,0,0,0,2.09-3.42c0-.15,0-.31,0-.47,0-1-.83-3.1-3.06-6-2.09,2.75-3,5-3,6,0,.16,0,.32,0,.47A4,4,0,0,0,36.56,14Z" style="fill:#ffb71b"/><path d="M67.43,39.22a2,2,0,0,0-2-1.95H9.53a2,2,0,0,0-2,1.95v8.93a5.42,5.42,0,0,0,2.58.59,10.72,10.72,0,0,0,6-1.65A14,14,0,0,1,23.82,45a14,14,0,0,1,7.68,2.08,10.77,10.77,0,0,0,6,1.65,10.72,10.72,0,0,0,6-1.65A14.11,14.11,0,0,1,51.17,45a14.11,14.11,0,0,1,7.69,2.08,10.72,10.72,0,0,0,6,1.65,5.37,5.37,0,0,0,2.58-.6Z" style="fill:#fff"/><path d="M35.2,16.76a5.29,5.29,0,0,0,2.3.56,5.42,5.42,0,0,0,2.3-.55,7.05,7.05,0,0,0,3.85-6.08c0-.2,0-.41,0-.62,0-3.18-3.12-7.33-5-9.52A1.56,1.56,0,0,0,37.49,0h0A1.56,1.56,0,0,0,36.3.55c-1.49,1.76-5,6.21-5,9.52,0,.21,0,.42,0,.62A7,7,0,0,0,35.2,16.76ZM37.49,4.05c2.23,2.92,3.06,5,3.06,6,0,.16,0,.32,0,.47A4,4,0,0,1,38.44,14a2,2,0,0,1-1.88,0,4,4,0,0,1-2.09-3.42c0-.15,0-.31,0-.47C34.45,9,35.4,6.8,37.49,4.05Z" style="fill:#231815"/><path d="M73.15,71.46H67.24V52a8.54,8.54,0,0,0,2.43-1A1.78,1.78,0,0,0,71,49.24v-10a5.49,5.49,0,0,0-5.5-5.49H45.08V20.58a1.77,1.77,0,0,0-1.77-1.77H31.69a1.77,1.77,0,0,0-1.77,1.77V33.73H9.53A5.5,5.5,0,0,0,4,39.23v9.92a1.48,1.48,0,0,0,0,.2l0,.1a1.05,1.05,0,0,0,.06.24l0,.09a1.13,1.13,0,0,0,.11.22l0,.08a2,2,0,0,0,.13.19l.09.1.15.13,0,0,.12.09A8.62,8.62,0,0,0,7.76,52V71.46H1.85a1.77,1.77,0,0,0,0,3.54h71.3a1.77,1.77,0,0,0,0-3.54ZM33.46,22.35h8.08V33.73H33.46ZM63.7,71.46H11.3V52.24a13.9,13.9,0,0,0,6.54-2.05,10.71,10.71,0,0,1,6-1.64,10.66,10.66,0,0,1,6,1.65,14.19,14.19,0,0,0,7.68,2.08,14.2,14.2,0,0,0,7.69-2.08,10.64,10.64,0,0,1,6-1.65,10.69,10.69,0,0,1,6,1.65,14,14,0,0,0,6.54,2ZM58.86,47.09A14.11,14.11,0,0,0,51.17,45a14.11,14.11,0,0,0-7.69,2.08,10.72,10.72,0,0,1-6,1.65,10.77,10.77,0,0,1-6-1.65A14,14,0,0,0,23.82,45a14,14,0,0,0-7.68,2.08,10.72,10.72,0,0,1-6,1.65,5.42,5.42,0,0,1-2.58-.59V39.22a2,2,0,0,1,2-1.95H65.47a2,2,0,0,1,2,1.95v8.92a5.37,5.37,0,0,1-2.58.6A10.72,10.72,0,0,1,58.86,47.09Z" style="fill:#231815"/></svg>