<svg id="圖層_1" data-name="圖層 1" xmlns="http://www.w3.org/2000/svg" viewBox="0 0 128 128"><title>feed-line</title><path d="M19.64,106.43a1.93,1.93,0,0,0,1.93-1.93V13.86H17.71V104.5A1.93,1.93,0,0,0,19.64,106.43Z"/><path d="M25.43,13.86V104.5a5.79,5.79,0,0,1-11.57,0V13.86H10V104.5a9.64,9.64,0,0,0,9.64,9.64h86.79A11.57,11.57,0,0,0,118,102.57V13.86Zm88.71,88.71a7.71,7.71,0,0,1-7.71,7.71H27.36a9.6,9.6,0,0,0,1.93-5.79V17.71h84.86Z"/><rect x="37" y="97.51" width="69.43" height="3.86"/><path d="M106.43,45H37V91.72h69.43Zm-3.86,42.91H40.86V48.81h61.71Z"/><rect x="55.56" y="24.22" width="50.87" height="3.86"/><rect x="37" y="24.22" width="13.74" height="15.43"/><rect x="55.56" y="35.79" width="50.87" height="3.86"/></svg>