<svg id="圖層_1" data-name="圖層 1" xmlns="http://www.w3.org/2000/svg" viewBox="0 0 150 150"><title>ms-09</title><path d="M43.14,127A1.94,1.94,0,0,0,45.08,125v-2.91H48a1.94,1.94,0,0,0,0-3.88H45.08v-2.91a1.94,1.94,0,0,0-3.88,0v2.91H38.29a1.94,1.94,0,0,0,0,3.88H41.2V125A1.94,1.94,0,0,0,43.14,127Z" style="fill:#231815"/><path d="M18.2,108.37a2,2,0,0,0-.57,1.38,1.94,1.94,0,0,0,3.88,0,2,2,0,0,0-.57-1.38A2,2,0,0,0,18.2,108.37Z" style="fill:#231815"/><path d="M27.89,95.74a2,2,0,0,0-.57,1.38,1.91,1.91,0,0,0,.57,1.36,1.92,1.92,0,0,0,2.75,0,1.9,1.9,0,0,0,.56-1.36,2,2,0,0,0-.56-1.38A2,2,0,0,0,27.89,95.74Z" style="fill:#231815"/><path d="M100,46a1.91,1.91,0,0,0-.57,1.36,2,2,0,0,0,.57,1.38,2,2,0,0,0,1.37.56,2,2,0,0,0,1.38-.56,2,2,0,0,0,.56-1.38A1.94,1.94,0,0,0,100,46Z" style="fill:#231815"/><path d="M113.44,24.57h-2.91V21.66a1.94,1.94,0,1,0-3.88,0v2.91h-2.91a1.94,1.94,0,0,0,0,3.88h2.91v2.91a1.94,1.94,0,0,0,3.88,0V28.45h2.91a1.94,1.94,0,0,0,0-3.88Z" style="fill:#231815"/><ellipse cx="127.2" cy="45.12" rx="5.17" ry="4.94" style="fill:#ffb71b;stroke:#231815;stroke-linecap:round;stroke-linejoin:round;stroke-width:2.92612px"/><path d="M109.25,96.2q-.1-.74-.27-1.41a12.8,12.8,0,0,0-1.26-3.36,28.32,28.32,0,0,0-2.59-3.87c-.47-.57-.95-1.12-1.44-1.62a19.88,19.88,0,0,0-2.88-2.47l-.41-.28a16.07,16.07,0,0,0-6.28-2.49,15.51,15.51,0,0,0-5.83.19,18.1,18.1,0,0,0-3.84,1.34,7.78,7.78,0,0,0-1.33.82c-.17.12-.32.24-.48.37a9.54,9.54,0,0,0-.72.7,8.84,8.84,0,0,0-.79.95c-.17.23-.33.46-.48.7A12.91,12.91,0,0,0,79,89.85a4.14,4.14,0,0,0-.09.46,9.8,9.8,0,0,0-.17,1.79v.13a10.07,10.07,0,0,0,1,4c.18.38.36.69.5.94l.32.49c.3.44.57.88.83,1.31h0c.41.68.8,1.34,1.24,2,.08.13.15.26.23.38s.12.22.17.33h0a.83.83,0,0,1,.07.13,8.21,8.21,0,0,1,1,3.41,5.15,5.15,0,0,1,0,.56c0,.23-.06.45-.1.66s-.07.37-.11.54a9.27,9.27,0,0,1-.52,1.54c-.11.24-.23.47-.35.69s-.25.41-.39.61a11.75,11.75,0,0,1-3,2.85c-.91.63-1.87,1.22-2.82,1.85l-.68.47a17.37,17.37,0,0,0-2.07,1.69l-.57.59c-.25.29-.48.57-.7.85s-.4.5-.58.75A7.39,7.39,0,0,0,70.73,122a6.67,6.67,0,0,0,.89,4.16A6.78,6.78,0,0,0,74.3,129l.26.14a8.93,8.93,0,0,0,1.85.63c.52.13,1.08.23,1.69.34h0l.56.08a14.56,14.56,0,0,0,3.9-.06,18.66,18.66,0,0,0,3.29-.83,28,28,0,0,0,6.75-3.54c.63-.44,1.25-.89,1.85-1.37s1.46-1.17,2.15-1.79c1.27-1.12,2.47-2.29,3.57-3.46.47-.5.92-1,1.35-1.49l.09-.1c.65-.74,1.26-1.48,1.82-2.19.38-.49.74-1,1.07-1.46a26.62,26.62,0,0,0,1.45-2.31c.2-.36.39-.73.57-1.09s.41-.88.6-1.32a29.71,29.71,0,0,0,1.84-6.34c.05-.24.09-.48.13-.72A19.38,19.38,0,0,0,109.25,96.2Z" style="fill:#ef90b9;stroke:#231815;stroke-linecap:round;stroke-linejoin:round;stroke-width:2.92612px"/><path d="M88.26,66.59C86.5,64,82.53,63,79.42,63.78a6.08,6.08,0,0,0-2.86,1.51,4.61,4.61,0,0,0-1.36,3.59,10.5,10.5,0,0,0,2.26,6.28,8.16,8.16,0,0,0,.7.74,7.2,7.2,0,0,0,1,.82,5.49,5.49,0,0,0,6.6-.25,8,8,0,0,0,.91-.86l.12-.14A10.11,10.11,0,0,0,88.35,73a9.46,9.46,0,0,0,.46-1.2,7.63,7.63,0,0,0,.32-1.47A5.45,5.45,0,0,0,88.26,66.59Z" style="fill:#ef90b9;stroke:#231815;stroke-linecap:round;stroke-linejoin:round;stroke-width:2.92612px"/><path d="M103.11,67.53a4.45,4.45,0,0,0-2.45-2.37,5.28,5.28,0,0,0-1.61-.35h-.29a5.09,5.09,0,0,0-1.05.08,4.87,4.87,0,0,0-2,.91c-2.54,1.94-3.17,6.2-.85,8.36a4.42,4.42,0,0,0,1.26.82,6,6,0,0,0,1.13.36l.21,0a6.07,6.07,0,0,0,1.56.11,4.43,4.43,0,0,0,1-.18C103.2,74.37,104.36,70.32,103.11,67.53Z" style="fill:#ef90b9;stroke:#231815;stroke-linecap:round;stroke-linejoin:round;stroke-width:2.92612px"/><path d="M111,74.37a3.72,3.72,0,0,0-2.87-.86l-.3.14c-1.75.86-4,2.67-4,4.56a.61.61,0,0,0,0,.19,3.41,3.41,0,0,0,1.09,2.47,3.74,3.74,0,0,0,2.6,1,4,4,0,0,0,1.61-.38,4.74,4.74,0,0,0,2.17-2h0C112.25,77.7,112.23,75.55,111,74.37Z" style="fill:#ef90b9;stroke:#231815;stroke-linecap:round;stroke-linejoin:round;stroke-width:2.92612px"/><path d="M118.58,84.44a4.09,4.09,0,0,0-.51-.51,4,4,0,0,0-2.36-.82,7,7,0,0,0-2,.25l-.09,0-.33.12h0a2.86,2.86,0,0,0-1.62,3.6c.42,1.76,1.92,3.46,3.8,3.46a3.56,3.56,0,0,0,1.74-.47,4,4,0,0,0,2.14-3.45A3.44,3.44,0,0,0,118.58,84.44Z" style="fill:#ef90b9;stroke:#231815;stroke-linecap:round;stroke-linejoin:round;stroke-width:2.92612px"/><path d="M123.1,96.31c-.41-1.62-3.7-2.93-5.18-1.91-3.72,1.6-1.36,6,2.16,5.53C121.64,99.85,123.66,98.12,123.1,96.31Z" style="fill:#ef90b9;stroke:#231815;stroke-linecap:round;stroke-linejoin:round;stroke-width:2.92612px"/><path d="M37.19,62.18c.14-.47.3-.93.47-1.36a13.17,13.17,0,0,1,1.71-3.13,27.91,27.91,0,0,1,3-3.44c.52-.5,1.06-1,1.6-1.39a18.93,18.93,0,0,1,3.09-2l.43-.21a14.9,14.9,0,0,1,6.3-1.54,14.05,14.05,0,0,1,5.45,1A16.38,16.38,0,0,1,62.68,52a7.28,7.28,0,0,1,1.13,1l.39.44a9.55,9.55,0,0,1,.57.8,8.31,8.31,0,0,1,.59,1.05,7.51,7.51,0,0,1,.34.77,13.15,13.15,0,0,1,.91,4.27c0,.15,0,.31,0,.46a10,10,0,0,1-.12,1.79s0,.09,0,.13a10.42,10.42,0,0,1-1.57,3.83c-.22.34-.44.63-.61.85s-.3.35-.38.44c-.35.39-.67.78-1,1.16h0c-.49.62-1,1.22-1.48,1.77l-.27.35-.21.29h0l-.09.12a8.68,8.68,0,0,0-1.45,3.23c0,.17-.07.36-.1.54s0,.46,0,.67,0,.38,0,.56a8.53,8.53,0,0,0,.25,1.59c.06.25.14.5.22.73a6.5,6.5,0,0,0,.27.66,11.46,11.46,0,0,0,2.41,3.27c.76.76,1.57,1.48,2.37,2.25l.56.56a16.2,16.2,0,0,1,1.69,2c.15.22.3.44.44.67l.53.94c.15.28.3.56.43.83a7.28,7.28,0,0,1,.89,3.26,7,7,0,0,1-1.48,4,6.76,6.76,0,0,1-3,2.44l-.27.09a8.13,8.13,0,0,1-1.83.36c-.52,0-1.06.06-1.65.08h-.57A12.67,12.67,0,0,1,57,99.61a15.85,15.85,0,0,1-3-1.3,26.27,26.27,0,0,1-5.8-4.5q-.78-.78-1.53-1.62c-.6-.68-1.18-1.37-1.74-2.08-1-1.3-2-2.64-2.82-4-.36-.55-.71-1.11-1-1.66L41,84.38c-.5-.84-1-1.66-1.38-2.44-.28-.54-.54-1.07-.78-1.6a24.57,24.57,0,0,1-1-2.5c-.13-.39-.26-.77-.37-1.16s-.25-.92-.36-1.39a31.79,31.79,0,0,1-.75-6.53c0-.24,0-.49,0-.73A20.28,20.28,0,0,1,37.19,62.18Z" style="fill:#ef90b9;stroke:#231815;stroke-linecap:round;stroke-linejoin:round;stroke-width:2.92612px"/><path d="M61.53,36c2.06-2.31,6-2.69,8.75-1.47a5.77,5.77,0,0,1,2.45,1.91,4.69,4.69,0,0,1,.72,3.75,10.76,10.76,0,0,1-3.09,5.87,7.68,7.68,0,0,1-.78.63,7.45,7.45,0,0,1-1.1.66,5,5,0,0,1-6.17-1.23,6.2,6.2,0,0,1-.72-1c0-.05-.07-.1-.1-.16a10.76,10.76,0,0,1-1.05-2.62c-.11-.44-.19-.85-.25-1.25a8.79,8.79,0,0,1-.07-1.51A5.67,5.67,0,0,1,61.53,36Z" style="fill:#ef90b9;stroke:#231815;stroke-linecap:round;stroke-linejoin:round;stroke-width:2.92612px"/><path d="M47.42,34.77a4.34,4.34,0,0,1,2.67-2,5,5,0,0,1,1.57-.1,1.24,1.24,0,0,1,.27,0,3.91,3.91,0,0,1,1,.24,4.36,4.36,0,0,1,1.77,1.2c2.09,2.28,2,6.58-.5,8.38a4.28,4.28,0,0,1-1.31.62,4.94,4.94,0,0,1-1.12.19h-.2a5.39,5.39,0,0,1-1.48-.12,4,4,0,0,1-1-.34C46.27,41.5,45.8,37.34,47.42,34.77Z" style="fill:#ef90b9;stroke:#231815;stroke-linecap:round;stroke-linejoin:round;stroke-width:2.92612px"/><path d="M39,40.36a3.37,3.37,0,0,1,2.84-.42,2,2,0,0,1,.25.18c1.52,1.1,3.35,3.23,3,5.08l0,.2a3.47,3.47,0,0,1-1.41,2.27,3.51,3.51,0,0,1-2.6.57,3.79,3.79,0,0,1-1.45-.61,4.66,4.66,0,0,1-1.73-2.35h0C37.24,43.46,37.59,41.33,39,40.36Z" style="fill:#ef90b9;stroke:#231815;stroke-linecap:round;stroke-linejoin:round;stroke-width:2.92612px"/><path d="M30.24,49.18a3.28,3.28,0,0,1,.56-.42,3.67,3.67,0,0,1,2.34-.47,6.2,6.2,0,0,1,1.87.55l.08,0,.3.16h0a2.91,2.91,0,0,1,1,3.8C35.68,54.51,34,56,32.24,55.69A3.22,3.22,0,0,1,30.68,55a4,4,0,0,1-1.48-3.72A3.64,3.64,0,0,1,30.24,49.18Z" style="fill:#ef90b9;stroke:#231815;stroke-linecap:round;stroke-linejoin:round;stroke-width:2.92612px"/><path d="M24.14,60.24c.64-1.54,3.94-2.35,5.18-1.13,3.24,2.14.35,6.1-2.9,5.15C25,64,23.34,62,24.14,60.24Z" style="fill:#ef90b9;stroke:#231815;stroke-linecap:round;stroke-linejoin:round;stroke-width:2.92612px"/></svg>