<svg id="圖層_1" data-name="圖層 1" xmlns="http://www.w3.org/2000/svg" viewBox="0 0 150 150"><title>ms-05</title><path d="M70.65,95.2a25.17,25.17,0,0,1,13.61,2.28c3.73,1.88,6.83,5.52,5.46,10-.5,1.66-2.66,2.54-4.16,3.16-3.51,1.46-8,.55-11.74.67-4.81.15-12.77,0-14.59-5.74C57.46,100.08,66.27,95.64,70.65,95.2Z" style="fill:#f8dcd5"/><path d="M24.15,115.92a1.94,1.94,0,0,0,1.94,1.94H29v3a1.94,1.94,0,0,0,3.88,0v-3h2.91a1.94,1.94,0,1,0,0-3.88H32.88v-3A1.94,1.94,0,1,0,29,111v3H26.09A1.94,1.94,0,0,0,24.15,115.92Z" style="fill:#231815"/><path d="M19.87,104.72a1.94,1.94,0,1,0,3.31,1.37,1.91,1.91,0,0,0-.57-1.37A2,2,0,0,0,19.87,104.72Z" style="fill:#231815"/><path d="M122.74,101.55a1.52,1.52,0,0,0,1.53,1.5l4.93-.06a1.52,1.52,0,0,0,0-3l-4.93.06A1.51,1.51,0,0,0,122.74,101.55Z" style="fill:#231815"/><path d="M120.18,115.59a1.81,1.81,0,0,0-.05.39,1.53,1.53,0,0,0,1.14,1.46l5.61,1.42a1.51,1.51,0,0,0,1.84-1.1,1.52,1.52,0,0,0-1.1-1.84L122,114.5A1.51,1.51,0,0,0,120.18,115.59Z" style="fill:#231815"/><path d="M121.16,85.63a1.53,1.53,0,0,0-1.11,1.48,1.32,1.32,0,0,0,.06.39,1.51,1.51,0,0,0,1.86,1l5.33-1.48a1.52,1.52,0,1,0-.81-2.92Z" style="fill:#231815"/><path d="M85.83,103.77c.81-.25,14-2,14.61,1.42.83,4.89-9.44,5.45-12.71,5.21" style="fill:#fbded7;stroke:#231815;stroke-linecap:round;stroke-linejoin:round;stroke-width:2.36097px"/><path d="M64,102.93c-.74-.36-13.18-4-14.23-.65-1.49,4.73,8.29,6.72,11.47,7" style="fill:#fbded7;stroke:#231815;stroke-linecap:round;stroke-linejoin:round;stroke-width:2.36097px"/><path d="M88.71,108c2.33,4.83,1.5,5.66,1,7.58-1,4.28-3.76,6.86-7,9.64s-6.44,3.3-10.71,2.13a13.45,13.45,0,0,1-5.51-2.92c-1.49-1.36-2.12-3-3.26-4.56-3.16-4.26-4.8-8.63-.7-12.86" style="fill:#fbded7;stroke:#231815;stroke-linecap:round;stroke-linejoin:round;stroke-width:2.2722700000000002px"/><path d="M80.76,129.78a21,21,0,0,1-16.09-2.44c-5.21-3.35-5.24-7.24-5.26-11.87,0-2.84,3.53-2.92,6.91-3,6-.06,11.93.59,17.9,1,3,.22,4.43.26,5.48,2.48,3.18,6.75-1.87,12-8.94,13.76" style="fill:#fbded7;stroke:#231815;stroke-linecap:round;stroke-linejoin:round;stroke-width:2.36097px"/><path d="M80.76,129.78a21,21,0,0,1-16.09-2.44c-6.17-4-5.72-11.63-3.76-17.81,1.76-5.54,5.54-11.9,12-12.45,2.78-.24,5.66-.73,8.1.81a28.63,28.63,0,0,1,6.28,5.38c5.34,6,8.17,17.16.9,22.77A21.77,21.77,0,0,1,80.76,129.78Z" style="fill:#d94434;stroke:#231815;stroke-linecap:round;stroke-linejoin:round;stroke-width:2.8102500000000004px"/><path d="M109.37,76.94a38.33,38.33,0,0,0-4-13.72c-4.22-8.13-11.35-15-20.21-17.73a29.39,29.39,0,0,0-9.68-1.28c-3.7.13-6.85,1.41-10.39,2.11l1.28-.25c-6.9,2.48-12.65,7.84-17,13.61-4.1,5.46-9,13.13-8.62,20.19A38.32,38.32,0,0,0,41.17,85c4.44,22.92,54.67,24.32,64.76,8.6C109,88.82,109.92,82.83,109.37,76.94Z" style="fill:#fbded7;stroke:#231815;stroke-linecap:round;stroke-linejoin:round;stroke-width:2.76743px"/><path d="M63.26,33A10.25,10.25,0,0,1,57.2,46.2h0A10.25,10.25,0,0,1,44,40.14l-3-8.2a10.24,10.24,0,0,1,6-13.17h0a10.25,10.25,0,0,1,13.17,6.05Z" style="fill:#fbc600;stroke:#231815;stroke-linecap:round;stroke-linejoin:round;stroke-width:2.8102500000000004px"/><path d="M105.65,41.46a10.26,10.26,0,0,1-13.58,5.09h0A10.25,10.25,0,0,1,87,33l3.62-8a10.24,10.24,0,0,1,13.57-5.09h0a10.25,10.25,0,0,1,5.09,13.57Z" style="fill:#fbc600;stroke:#231815;stroke-linecap:round;stroke-linejoin:round;stroke-width:2.8102500000000004px"/><path d="M100.29,42.74a5.78,5.78,0,0,1-7.66,2.87h0a5.8,5.8,0,0,1-2.88-7.67L94.94,27a5.78,5.78,0,0,1,7.66-2.87h0a5.8,5.8,0,0,1,2.88,7.67Z" style="fill:#d94434;stroke:#231815;stroke-linecap:round;stroke-linejoin:round;stroke-width:1.5875700000000001px"/><path d="M60,37.84a5.79,5.79,0,0,1-3.44,7.43h0a5.79,5.79,0,0,1-7.43-3.44l-4-11.4A5.79,5.79,0,0,1,48.63,23h0a5.78,5.78,0,0,1,7.43,3.44Z" style="fill:#d94434;stroke:#231815;stroke-linecap:round;stroke-linejoin:round;stroke-width:1.5875700000000001px"/><path d="M99.88,78.26a4.14,4.14,0,1,1-4.14-4.33,4.24,4.24,0,0,1,4.14,4.33" style="fill:#231815"/><path d="M58.3,78.25a4.14,4.14,0,1,1-4.14-4.32,4.24,4.24,0,0,1,4.14,4.32" style="fill:#231815"/><path d="M85.71,86c0,5-4.81,9.13-10.75,9.13S64.21,91,64.21,86" style="fill:none;stroke:#231815;stroke-linecap:round;stroke-linejoin:round;stroke-width:2.8346500000000003px"/><path d="M42.37,82c0-16.67,8.19-29.61,33.11-30.17,23.24,0,33.11,13.5,33.11,30.17a27.75,27.75,0,0,1-1.66,9.43,33.53,33.53,0,0,0,9.38-23c0-19.93-12.17-36.08-40.83-36.08C44.75,33,34.65,48.51,34.65,68.44a33.49,33.49,0,0,0,9.39,23A27.52,27.52,0,0,1,42.37,82Z" style="fill:#d94434;stroke:#231815;stroke-linecap:round;stroke-linejoin:round;stroke-width:2.8102500000000004px"/><circle cx="93.5" cy="41.73" r="6.37" style="fill:#fff;stroke:#231815;stroke-linecap:round;stroke-linejoin:round;stroke-width:2.36097px"/><path d="M96.78,41.51a3.43,3.43,0,1,1-3.42-3.58,3.5,3.5,0,0,1,3.42,3.58" style="fill:#231815"/><circle cx="57.5" cy="41.98" r="6.37" style="fill:#fff;stroke:#231815;stroke-linecap:round;stroke-linejoin:round;stroke-width:2.36097px"/><path d="M60.78,41.76a3.43,3.43,0,1,1-3.42-3.58,3.5,3.5,0,0,1,3.42,3.58" style="fill:#231815"/><path d="M77.47,42.39a2.45,2.45,0,0,1-4.79,0,2.45,2.45,0,0,1,4.79,0" style="fill:#231815"/><path d="M112,100.23c.09,3.33-3.07,6.12-7,6.22s-7.27-2.52-7.36-5.85,3.07-6.13,7-6.23S111.86,96.89,112,100.23Z" style="fill:#fbc600;stroke:#231815;stroke-linecap:round;stroke-linejoin:round;stroke-width:1.8596800000000002px"/><path d="M112,109.65s-.63.75-7,.83-6.85-.47-6.85-.47c-.61,0-2.24-2.43-3.23-4.76a24.44,24.44,0,0,1-1.45-4.84A2.21,2.21,0,0,1,95.7,98.2s2.59.74,9.26.49,9-1,9-1a2.22,2.22,0,0,1,2.34,2.09,30.34,30.34,0,0,1-1.3,4.91C114.06,107.23,112.63,109.63,112,109.65Z" style="fill:#fbc600;stroke:#231815;stroke-linecap:round;stroke-linejoin:round;stroke-width:1.8596800000000002px"/><path d="M52.8,113.47l-3-8.51-4.49,1.61,3,8.45a2.26,2.26,0,0,0-.92,2.7,2.24,2.24,0,0,0,2.83,1.42,2.18,2.18,0,0,0,1.39-1.72,2.13,2.13,0,0,0,2.16.45A2.22,2.22,0,0,0,55.05,115,2.25,2.25,0,0,0,52.8,113.47Z" style="fill:#fff;stroke:#00101d;stroke-linecap:round;stroke-linejoin:round;stroke-width:1.9897700000000003px"/><path d="M53.88,101.05c.57-4,1-9.85-3.06-12.24a4.39,4.39,0,0,0-5.35.66c-.11.1-.35.43-.48.49-.35.14-.92-.08-1.35-.14a6.34,6.34,0,0,0-3.38.45c-2.51.92-4.73,2.87-5.11,5.63-.45,3.37,1.67,6.85,3.77,9.29,1.39,1.6,7.54,5.42,7.54,5.42l5.53.07s1.22-5.15,1.34-6C53.49,103.53,53.71,102.3,53.88,101.05Z" style="fill:#d99131;stroke:#010000;stroke-linecap:round;stroke-linejoin:round;stroke-width:2.24478px"/><path d="M45.35,90c-.67.53-1.72.21-2.44.67A6.6,6.6,0,0,0,41.08,93a6.81,6.81,0,0,0-.61,5.55c1.43,3.6,4.22,6.53,6.25,9.78.12.21.91,1.8,1.18,1.82l3.47.23s3.44-10.75,2-16.66C51.29,85.36,45.36,90,45.35,90Z" style="fill:#edab40"/><path d="M45.13,91.24a.78.78,0,1,1-1-.54A.82.82,0,0,1,45.13,91.24Z" style="fill:#d99131"/><path d="M43,91.31a.78.78,0,1,1-1-.54A.82.82,0,0,1,43,91.31Z" style="fill:#d99131"/><path d="M43.87,91.09a.5.5,0,1,1-.65-.34A.51.51,0,0,1,43.87,91.09Z" style="fill:#d99131"/><path d="M42.27,92.12a.78.78,0,1,1-1-.55A.83.83,0,0,1,42.27,92.12Z" style="fill:#d99131"/><path d="M41.33,93.51a.78.78,0,1,1-1-.55A.82.82,0,0,1,41.33,93.51Z" style="fill:#d99131"/><path d="M41.59,98.47a.82.82,0,0,1-.44,1.07.86.86,0,0,1-.58-1.62A.82.82,0,0,1,41.59,98.47Z" style="fill:#d99131"/><path d="M43.19,100.39a.78.78,0,1,1-1-.55A.83.83,0,0,1,43.19,100.39Z" style="fill:#d99131"/><path d="M41.39,95a.78.78,0,1,1-1-.54A.82.82,0,0,1,41.39,95Z" style="fill:#d99131"/><path d="M41.11,96.68a.78.78,0,1,1-1-.55A.83.83,0,0,1,41.11,96.68Z" style="fill:#d99131"/><path d="M44.31,103.91a.78.78,0,1,1-1-.54A.82.82,0,0,1,44.31,103.91Z" style="fill:#d99131"/><path d="M43.93,102.91a.81.81,0,0,1-.44,1.07.86.86,0,0,1-.58-1.61A.81.81,0,0,1,43.93,102.91Z" style="fill:#d99131"/><path d="M45.47,105.53a.78.78,0,1,1-1-.54A.81.81,0,0,1,45.47,105.53Z" style="fill:#d99131"/><path d="M46.79,107.33a.78.78,0,1,1-1-.55A.81.81,0,0,1,46.79,107.33Z" style="fill:#d99131"/><path d="M47.83,108.76a.78.78,0,1,1-1-.54A.82.82,0,0,1,47.83,108.76Z" style="fill:#d99131"/><path d="M42.65,93.79a.46.46,0,0,1-.25.59.46.46,0,0,1-.56-.3.44.44,0,0,1,.24-.58A.46.46,0,0,1,42.65,93.79Z" style="fill:#d99131"/><path d="M43.26,92.14a.44.44,0,0,1-.24.58.47.47,0,0,1-.31-.88A.44.44,0,0,1,43.26,92.14Z" style="fill:#d99131"/><path d="M41.57,99.88a.43.43,0,1,1-.56-.3A.46.46,0,0,1,41.57,99.88Z" style="fill:#d99131"/><path d="M42,96.46a.45.45,0,0,1-.24.59.46.46,0,0,1-.56-.3.43.43,0,1,1,.8-.29Z" style="fill:#d99131"/><path d="M41.84,99.58a.43.43,0,1,1-.8.29.43.43,0,1,1,.8-.29Z" style="fill:#d99131"/><path d="M42.67,101.7a.45.45,0,0,1-.24.59.46.46,0,0,1-.56-.3.44.44,0,0,1,.25-.58A.43.43,0,0,1,42.67,101.7Z" style="fill:#d99131"/><path d="M45.34,103.47a.43.43,0,1,1-.56-.3A.46.46,0,0,1,45.34,103.47Z" style="fill:#d99131"/><path d="M46.12,106.28a.43.43,0,1,1-.8.29.44.44,0,0,1,.24-.58A.45.45,0,0,1,46.12,106.28Z" style="fill:#d99131"/><path d="M48.88,109.37a.45.45,0,0,1-.24.59.48.48,0,0,1-.32-.89A.46.46,0,0,1,48.88,109.37Z" style="fill:#d99131"/><path d="M41.33,95.39a.45.45,0,0,1-.25.59.47.47,0,0,1-.31-.88A.45.45,0,0,1,41.33,95.39Z" style="fill:#d99131"/><path d="M40.73,96.89a.44.44,0,0,1-.24.58.47.47,0,1,1,.24-.58Z" style="fill:#d99131"/><path d="M98.79,126.92a7,7,0,0,1-1.35,4c-1.4,2.19-3.75-.09-3.89-.06-2.35.44-6.54.27-8.15-.69-2.78-1.68.26-5.73,2.15-7.62s3-1.48,4.76.39a8.5,8.5,0,0,0,2.34,2.23.94.94,0,0,0,1.31-.36C97.25,123.23,98.91,125.08,98.79,126.92Z" style="fill:#fbded7;stroke:#231815;stroke-linecap:round;stroke-linejoin:round;stroke-width:2.82365px"/><path d="M52,126.92a6.67,6.67,0,0,0,1.48,4c1.54,2.19,4.12-.09,4.28-.06,2.58.44,7.18.27,8.95-.69,3.06-1.68-.28-5.73-2.36-7.62s-3.33-1.48-5.23.39a8.9,8.9,0,0,1-2.57,2.23,1.09,1.09,0,0,1-1.44-.36C53.69,123.23,51.87,125.08,52,126.92Z" style="fill:#fbded7;stroke:#231815;stroke-linecap:round;stroke-linejoin:round;stroke-width:2.90572px"/><path d="M75,44.53a3.13,3.13,0,0,1-6.25,0" style="fill:none;stroke:#231815;stroke-linecap:round;stroke-linejoin:round;stroke-width:1.4941900000000001px"/><path d="M81.3,44.53a3.13,3.13,0,0,1-6.25,0" style="fill:none;stroke:#231815;stroke-linecap:round;stroke-linejoin:round;stroke-width:1.4941900000000001px"/></svg>