<svg id="圖層_1" data-name="圖層 1" xmlns="http://www.w3.org/2000/svg" viewBox="0 0 150 150"><title>ms-09</title><path d="M45.31,87.64c6.93-1.86,12.34-8,14.55-16.44-6.11-5.65-10.22-14.62-10.72-24.84a1.48,1.48,0,0,1-.32-.34c-4.47-6.87-11.15-10.3-17-8.73A1.52,1.52,0,0,1,31,34.36c6.21-1.66,13,1.09,18.15,7.08A39.66,39.66,0,0,1,50,35.7c-6.05-5.82-13.57-8.22-20.28-6.43-12.19,3.27-18.61,19-14.3,35.11S33.11,90.91,45.31,87.64Z" style="fill:#f5d76e"/><path d="M75,74.46c12.62,0,22.89-13.56,22.89-30.21S87.62,14,75,14c-10.32,0-19.06,9.06-21.91,21.46h0a38.84,38.84,0,0,0-1,8.75C52.11,60.9,62.38,74.46,75,74.46ZM93.6,44.25a1.52,1.52,0,0,1-.44,1.06,1.57,1.57,0,0,1-1.08.45A1.51,1.51,0,0,1,91,45.31a1.5,1.5,0,0,1,0-2.14,1.57,1.57,0,0,1,2.14,0A1.55,1.55,0,0,1,93.6,44.25ZM75,19.3c7.76,0,14.77,6.53,17.45,16.26a1.51,1.51,0,0,1-1.06,1.86,1.39,1.39,0,0,1-.4.06,1.51,1.51,0,0,1-1.46-1.11c-2.32-8.4-8.16-14-14.53-14a1.52,1.52,0,0,1,0-3Z" style="fill:#e26a6a"/><path d="M90.14,71.2c2.21,8.46,7.6,14.58,14.55,16.44,12.2,3.27,25.63-7.16,29.94-23.26s-2.1-31.84-14.3-35.11c-6.71-1.79-14.23.61-20.28,6.44a41.63,41.63,0,0,1,.87,8.54C100.92,55.33,96.67,65.16,90.14,71.2ZM130.54,64a1.52,1.52,0,0,1-1.07.44,1.51,1.51,0,1,1,1.07-2.58,1.52,1.52,0,0,1,0,2.14Zm-13-28.52a1.51,1.51,0,0,1,1.85-1.07c7.5,2,12.58,10.14,12.65,20.23a1.5,1.5,0,0,1-1.5,1.52h0a1.52,1.52,0,0,1-1.52-1.5c-.06-8.71-4.24-15.67-10.4-17.32A1.52,1.52,0,0,1,117.57,35.43Z" style="fill:#f5d76e"/><polygon points="45.49 97.7 50.18 96.44 46.58 92.38 45.49 97.7" style="fill:#f5d76e"/><polygon points="72.57 84.22 77.43 84.22 75 79.36 72.57 84.22" style="fill:#e26a6a"/><polygon points="99.82 96.44 104.51 97.7 103.42 92.38 99.82 96.44" style="fill:#f5d76e"/><path d="M91,43.17a1.5,1.5,0,0,0,0,2.14,1.51,1.51,0,0,0,1.06.45,1.57,1.57,0,0,0,1.08-.45,1.52,1.52,0,0,0,.44-1.06,1.55,1.55,0,0,0-.44-1.08A1.57,1.57,0,0,0,91,43.17Z" style="fill:#323232"/><path d="M75,22.33c6.37,0,12.21,5.64,14.53,14A1.51,1.51,0,0,0,91,37.48a1.39,1.39,0,0,0,.4-.06,1.51,1.51,0,0,0,1.06-1.86C89.77,25.83,82.76,19.3,75,19.3a1.52,1.52,0,0,0,0,3Z" style="fill:#323232"/><path d="M40.78,91.27a19.84,19.84,0,0,0,3-.23L42,99.5a1.5,1.5,0,0,0,.44,1.4,1.53,1.53,0,0,0,1,.42,1.32,1.32,0,0,0,.39-.06l3.34-.89,10,37.51A1.52,1.52,0,0,0,58.75,139a1.83,1.83,0,0,0,.4-.05,1.52,1.52,0,0,0,1.07-1.86l-10-37.51,3.16-.84a1.53,1.53,0,0,0,1.06-1,1.51,1.51,0,0,0-.31-1.44L48.34,89.8C54.89,87.2,60,81.24,62.42,73.3a21.84,21.84,0,0,0,10.2,4l-3.86,7.72a1.52,1.52,0,0,0,1.36,2.19h3.37v50.23a1.51,1.51,0,1,0,3,0V87.25H79.9a1.52,1.52,0,0,0,1.51-1.51,1.58,1.58,0,0,0-.26-.86l-3.77-7.54a21.89,21.89,0,0,0,10.21-4C90,81.24,95.1,87.2,101.66,89.81l-5.74,6.46a1.52,1.52,0,0,0,.75,2.47l3.09.82L89.7,137.09A1.52,1.52,0,0,0,90.77,139a1.74,1.74,0,0,0,.39.05,1.54,1.54,0,0,0,1.47-1.12l10.05-37.53,3.42.91a1.32,1.32,0,0,0,.39.06,1.53,1.53,0,0,0,1-.42,1.5,1.5,0,0,0,.44-1.4L106.24,91a19.84,19.84,0,0,0,3,.23c12.17,0,24.19-10.65,28.33-26.1,4.75-17.71-2.63-35.12-16.43-38.82-7.29-2-15.31.3-21.91,6C95.47,19.89,86,11,75,11S54.53,19.89,50.79,32.37c-6.6-5.72-14.63-8-21.91-6C15.08,30.05,7.7,47.46,12.45,65.17,16.59,80.62,28.61,91.27,40.78,91.27Zm9.4,5.17L45.49,97.7l1.09-5.32ZM77.43,84.22H72.57L75,79.36ZM99.82,96.44l3.6-4.06,1.09,5.32Zm.23-60.73c6-5.83,13.57-8.23,20.28-6.44,12.2,3.27,18.61,19,14.3,35.11s-17.74,26.53-29.94,23.26c-7-1.86-12.34-8-14.55-16.44,6.53-6,10.78-15.87,10.78-26.95A41.63,41.63,0,0,0,100.05,35.71Zm-47-.21h0C55.94,23.09,64.68,14,75,14c12.62,0,22.89,13.55,22.89,30.22S87.62,74.46,75,74.46,52.11,60.9,52.11,44.25A38.84,38.84,0,0,1,53.09,35.5ZM29.67,29.27c6.71-1.79,14.23.61,20.28,6.43a39.66,39.66,0,0,0-.77,5.74c-5.1-6-11.94-8.74-18.15-7.08a1.52,1.52,0,0,0,.79,2.93c5.85-1.57,12.53,1.86,17,8.73a1.48,1.48,0,0,0,.32.34c.5,10.22,4.61,19.19,10.72,24.84-2.21,8.45-7.62,14.58-14.55,16.44-12.2,3.27-25.62-7.16-29.94-23.26S17.48,32.54,29.67,29.27Z" style="fill:#323232"/><path d="M128.4,61.81a1.51,1.51,0,1,0,2.14,0A1.55,1.55,0,0,0,128.4,61.81Z" style="fill:#323232"/><path d="M118.64,37.29C124.8,38.94,129,45.9,129,54.61a1.52,1.52,0,0,0,1.52,1.5h0a1.5,1.5,0,0,0,1.5-1.52c-.07-10.09-5.15-18.22-12.65-20.23a1.52,1.52,0,0,0-.78,2.93Z" style="fill:#323232"/></svg>