<svg id="圖層_1" data-name="圖層 1" xmlns="http://www.w3.org/2000/svg" viewBox="0 0 150 150"><title>ms-06</title><path d="M108.06,68.06a2.91,2.91,0,0,0-4.1-.3l-11.28,9.8a1.42,1.42,0,0,1-1.87-2.15l11.28-9.8,4-3.5a2.91,2.91,0,0,0-3.82-4.4L87,71a1.42,1.42,0,0,1-1.87-2.15l15.31-13.3,4-3.49a2.92,2.92,0,0,0-3.83-4.41l-4,3.5L81.28,64.46h0a1.42,1.42,0,1,1-1.87-2.15h0L94.73,49a2.92,2.92,0,0,0-3.82-4.41L71.62,61.35l0,0a.94.94,0,0,1-.12.09l-.11.07-.13.06-.13,0a.28.28,0,0,1-.13,0l-.14,0h-.27l-.13,0-.15,0h0l-.07,0L70,61.52l-.12-.07-.11-.08-.11-.11-.06,0,0,0A.6.6,0,0,1,69.5,61a.41.41,0,0,1-.07-.11.61.61,0,0,1-.05-.12l-.06-.14a.51.51,0,0,1,0-.13l0-.13v-.28l0-.13a.4.4,0,0,1,0-.15v0l2.76-8a2.92,2.92,0,0,0-5.51-1.91l0,.12-9.9,22.17c-1.83,5,.09,11.92,4.79,17.33,6.26,7.2,15.39,9.57,20.35,5.26L96.56,81.92l11.23-9.76A2.91,2.91,0,0,0,108.06,68.06Z" style="fill:#fbded7"/><path d="M110.21,66.19c-.1-.12-.21-.22-.32-.33a5.22,5.22,0,0,0-2.81-1.11,10.3,10.3,0,0,0,2.86-4.86,5.65,5.65,0,0,0-1.4-3.75A5.75,5.75,0,0,0,106,54.46l.29-.25a5.77,5.77,0,0,0-7.56-8.71l-.29.26A5.88,5.88,0,0,0,97.16,43,5.77,5.77,0,0,0,89,42.44L73.76,55.71l1-3a5.76,5.76,0,0,0-10.87-3.83L56.16,66.27h0L55,68.86h0l-.39.88A12.62,12.62,0,0,0,54,71v0h0l0,.08c-2.24,6-.15,13.94,5.3,20.21,7.29,8.4,18.22,10.89,24.37,5.55L98.43,84.07l11.23-9.76A5.76,5.76,0,0,0,110.21,66.19ZM96.56,81.92,81.79,94.75c-5,4.31-14.09,1.94-20.35-5.26-4.7-5.41-6.62-12.37-4.79-17.33L66.55,50l0-.12a2.92,2.92,0,0,1,5.51,1.91l-2.76,8v0a.4.4,0,0,0,0,.15l0,.13v.28l0,.13a.51.51,0,0,0,0,.13l.06.14a.61.61,0,0,0,.05.12.41.41,0,0,0,.07.11.6.6,0,0,0,.09.13l0,0,.06,0,.11.11.11.08.12.07.14.06.07,0h0l.15,0,.13,0h.27l.14,0a.28.28,0,0,0,.13,0l.13,0,.13-.06.11-.07a.94.94,0,0,0,.12-.09l0,0L90.91,44.59A2.92,2.92,0,0,1,94.73,49L79.41,62.31h0a1.42,1.42,0,1,0,1.87,2.15h0L96.6,51.15l4-3.5a2.92,2.92,0,0,1,3.83,4.41l-4,3.49L85.12,68.85A1.42,1.42,0,0,0,87,71L102.3,57.71a2.91,2.91,0,0,1,3.82,4.4l-4,3.5-11.28,9.8a1.42,1.42,0,0,0,1.87,2.15L104,67.76a2.92,2.92,0,0,1,3.83,4.4Z" style="fill:#323232"/><path d="M130.42,109.91a2.91,2.91,0,1,0,2.91,2.91A2.92,2.92,0,0,0,130.42,109.91Z" style="fill:#e26a6a"/><path d="M107.24,114.56a1.92,1.92,0,0,0-.58,1.37,2,2,0,0,0,.58,1.38,2,2,0,0,0,1.36.56,2,2,0,0,0,1.38-.56,2,2,0,0,0,.56-1.38,2,2,0,0,0-.56-1.37A2,2,0,0,0,107.24,114.56Z" style="fill:#323232"/><path d="M120.73,93.14h-2.91V90.23a1.94,1.94,0,0,0-3.88,0v2.91H111A1.94,1.94,0,1,0,111,97h2.91v2.91a1.94,1.94,0,1,0,3.88,0V97h2.91a1.94,1.94,0,1,0,0-3.87Z" style="fill:#323232"/><path d="M130.42,106a6.79,6.79,0,1,0,6.79,6.79A6.8,6.8,0,0,0,130.42,106Zm0,9.7a2.91,2.91,0,1,1,2.91-2.91A2.92,2.92,0,0,1,130.42,115.73Z" style="fill:#323232"/><path d="M35.67,65.3l3-8.64L30,59.53a.76.76,0,0,1-.7-.12L22,53.88,22.05,63a.78.78,0,0,1-.33.63l-7.51,5.22,8.71,2.79a.78.78,0,0,1,.5.5l2.65,8.76,5.34-7.43a.7.7,0,0,1,.28-.23.6.6,0,0,1,.35-.08l9.15.19L35.78,66A.76.76,0,0,1,35.67,65.3Z" style="fill:#fbc600"/><path d="M26.07,82.35l-.24,0a1.41,1.41,0,0,1-1.12-1l-2.55-8.42-8.39-2.69a1.41,1.41,0,0,1-.37-2.51l7.23-5-.05-8.8a1.42,1.42,0,0,1,2.28-1.14l7,5.32,8.36-2.76A1.42,1.42,0,0,1,40,57.12l-2.9,8.32,5.21,7.1a1.42,1.42,0,0,1-1.17,2.26l-8.8-.19-5.14,7.15A1.4,1.4,0,0,1,26.07,82.35Zm-8.7-13.94,6,1.91a2.19,2.19,0,0,1,1.43,1.44l1.81,6,3.67-5.09a2.16,2.16,0,0,1,1.82-.91l6.27.13-3.72-5.06a2.2,2.2,0,0,1-.3-2h0L36.4,58.9l-6,2a2.16,2.16,0,0,1-2-.33l-5-3.79,0,6.27a2.17,2.17,0,0,1-.93,1.8ZM32,74.61h0Zm.55-.28ZM20.63,63Z" style="fill:#231815"/><path d="M88.43,27.86a1.94,1.94,0,0,0,1.94-1.94V21a1.94,1.94,0,1,0-3.88,0v4.94A1.94,1.94,0,0,0,88.43,27.86Z" style="fill:#323232"/><path d="M116,35.25a1.94,1.94,0,0,0,2.65-.71l2.47-4.28a1.94,1.94,0,0,0-3.36-1.94l-2.47,4.29A1.93,1.93,0,0,0,116,35.25Z" style="fill:#323232"/><path d="M102.75,30.17a2.5,2.5,0,0,0,.47,0,1.94,1.94,0,0,0,1.88-1.47l1.28-5.19a1.94,1.94,0,0,0-3.77-.93l-1.28,5.19A2,2,0,0,0,102.75,30.17Z" style="fill:#323232"/><path d="M58.2,34.54a1.94,1.94,0,0,0,3.36-1.93l-2.48-4.29a1.93,1.93,0,0,0-2.65-.71,2,2,0,0,0-.71,2.65Z" style="fill:#323232"/><path d="M71.77,28.75a1.94,1.94,0,0,0,1.88,1.47,2.59,2.59,0,0,0,.47,0,2,2,0,0,0,1.42-2.35l-1.28-5.19a1.94,1.94,0,1,0-3.77.93Z" style="fill:#323232"/><path d="M91,99.31a2.91,2.91,0,0,0-4.1-.3l-11.28,9.8a1.42,1.42,0,0,1-1.87-2.15L85,96.86l4-3.5A2.91,2.91,0,0,0,85.24,89L69.93,102.25a1.42,1.42,0,0,1-1.87-2.15L83.37,86.81l4-3.5a2.92,2.92,0,0,0-3.82-4.41l-4,3.5L64.22,95.71h0a1.42,1.42,0,0,1-1.87-2.15h0L77.67,80.25a2.91,2.91,0,0,0-3.82-4.4L54.56,92.6l0,0a.62.62,0,0,1-.12.08.41.41,0,0,1-.11.07l-.12.06-.14,0-.13,0-.14,0h-.27l-.13,0-.15,0h0l-.08,0L53,92.77l-.11-.07-.12-.08-.11-.11-.06-.05,0,0a.94.94,0,0,1-.09-.12.75.75,0,0,1-.07-.12.61.61,0,0,1,0-.12l-.06-.14s0-.08,0-.12l0-.14v-.28l0-.13a.32.32,0,0,1,0-.14.43.43,0,0,1,0,0L55,83a2.92,2.92,0,0,0-5.51-1.91s0,.07,0,.11l-9.9,22.18c-1.83,5,.09,11.91,4.79,17.32,6.26,7.21,15.39,9.57,20.35,5.26L79.5,113.17l11.23-9.76A2.91,2.91,0,0,0,91,99.31Z" style="fill:#fbded7"/><path d="M93.15,97.44c-.1-.12-.21-.22-.32-.33A5.22,5.22,0,0,0,90,96a10.3,10.3,0,0,0,2.86-4.86,5.65,5.65,0,0,0-1.4-3.75A5.75,5.75,0,0,0,89,85.71l.29-.25a5.77,5.77,0,0,0-7.56-8.71l-.29.26a5.88,5.88,0,0,0-1.31-2.73A5.77,5.77,0,0,0,72,73.69L56.7,87l1-3a5.76,5.76,0,0,0-10.87-3.83L39.1,97.52h0l-1.16,2.6h0l-.39.88a12.62,12.62,0,0,0-.58,1.29v0h0l0,.08c-2.24,6-.15,13.94,5.3,20.22,7.29,8.39,18.22,10.88,24.37,5.54l14.77-12.83,11.23-9.76A5.76,5.76,0,0,0,93.15,97.44ZM79.5,113.17,64.73,126c-5,4.31-14.09,2-20.35-5.26-4.7-5.41-6.62-12.36-4.79-17.32l9.9-22.18s0-.07,0-.11A2.92,2.92,0,0,1,55,83l-2.76,8a.43.43,0,0,0,0,0,.32.32,0,0,0,0,.14l0,.13v.28l0,.14s0,.08,0,.12l.06.14a.61.61,0,0,0,0,.12.75.75,0,0,0,.07.12.94.94,0,0,0,.09.12l0,0,.06.05.11.11.12.08.11.07.14.07.08,0h0l.15,0,.13,0h.27l.14,0,.13,0,.14,0,.12-.06a.41.41,0,0,0,.11-.07.62.62,0,0,0,.12-.08l0,0L73.85,75.85a2.91,2.91,0,0,1,3.82,4.4L62.35,93.56h0a1.42,1.42,0,0,0,1.87,2.15h0L79.54,82.4l4-3.5a2.92,2.92,0,0,1,3.82,4.41l-4,3.5L68.06,100.1a1.42,1.42,0,0,0,1.87,2.15L85.24,89a2.91,2.91,0,0,1,3.82,4.4l-4,3.5-11.28,9.8a1.42,1.42,0,0,0,1.87,2.15L86.9,99a2.92,2.92,0,0,1,3.83,4.4Z" style="fill:#323232"/></svg>