<svg id="圖層_1" data-name="圖層 1" xmlns="http://www.w3.org/2000/svg" viewBox="0 0 150 150"><title>ms-08</title><circle cx="132.21" cy="132.21" r="2.91" transform="translate(-40.53 60.66) rotate(-22.5)" style="fill:#e26a6a"/><path d="M30.24,110a1.92,1.92,0,0,1,1,2,114.33,114.33,0,0,0,1.46,12,112.15,112.15,0,0,0,9.64-8.77.27.27,0,0,0,.08-.07,1.66,1.66,0,0,1,.21-.16l.13-.08.2-.11.14,0,.22-.07h.13a1,1,0,0,1,.24,0H44a48,48,0,0,0,7.71.61c20.32,0,36.85-12.51,36.85-27.89s-16.53-27.9-36.85-27.9S14.88,71.92,14.88,87.31C14.88,96.24,20.62,104.71,30.24,110Z" style="fill:#fff"/><path d="M92.45,87.31c0,.8,0,1.6-.12,2.39A48.38,48.38,0,0,0,106,89.45h.34a1.55,1.55,0,0,1,.31,0h.06l.31.1,0,0a1.46,1.46,0,0,1,.3.16l0,0a1.68,1.68,0,0,1,.29.24h0l0,0a109.63,109.63,0,0,0,9.6,8.72,114.15,114.15,0,0,0,1.46-12,1.94,1.94,0,0,1,1-2c9.62-5.25,15.36-13.72,15.36-22.65,0-15.38-16.53-27.9-36.85-27.9-17.55,0-32.64,9.48-36.1,22.33C79.58,60.2,92.45,72.6,92.45,87.31ZM110.9,60.58a2,2,0,0,1,2.74,0,1.94,1.94,0,1,1-2.74,0Zm-13,0a2,2,0,0,1,2.74,0,1.94,1.94,0,1,1-2.74,0ZM85,60.58a2,2,0,0,1,2.74,0A1.91,1.91,0,0,1,88.33,62a2,2,0,0,1-.56,1.37,1.94,1.94,0,0,1-2.75,0,1.93,1.93,0,0,1,0-2.74Z" style="fill:#fff"/><path d="M24.58,46.88A2.91,2.91,0,1,0,27.48,44,2.91,2.91,0,0,0,24.58,46.88Z" style="fill:#e26a6a"/><path d="M115.28,120.22a2,2,0,0,0-.57,1.38,2,2,0,0,0,.57,1.37,1.93,1.93,0,0,0,2.74,0,2,2,0,0,0,.56-1.37,2,2,0,0,0-.56-1.38A2,2,0,0,0,115.28,120.22Z" style="fill:#323232"/><path d="M90.87,128.39a1.94,1.94,0,0,0,1.94-1.94v-2.91h2.9a1.94,1.94,0,1,0,0-3.88h-2.9v-2.91a1.94,1.94,0,0,0-3.88,0v2.91H86a1.94,1.94,0,1,0,0,3.88h2.91v2.91A1.94,1.94,0,0,0,90.87,128.39Z" style="fill:#323232"/><path d="M70.1,129.92a2,2,0,0,0-.57,1.38,1.93,1.93,0,0,0,.57,1.36,1.93,1.93,0,0,0,2.74,0,1.93,1.93,0,0,0,.57-1.36,2,2,0,0,0-.57-1.38A2,2,0,0,0,70.1,129.92Z" style="fill:#323232"/><path d="M125.42,132.21a6.79,6.79,0,1,0,6.79-6.79A6.8,6.8,0,0,0,125.42,132.21Zm9.7,0a2.91,2.91,0,1,1-2.91-2.91A2.91,2.91,0,0,1,135.12,132.21Z" style="fill:#323232"/><path d="M27.4,112.79a117,117,0,0,0,2.08,15,1.93,1.93,0,0,0,1.22,1.43,2,2,0,0,0,.68.12,1.91,1.91,0,0,0,1.18-.4,116.6,116.6,0,0,0,11.83-10.39,52.62,52.62,0,0,0,7.34.52c19.73,0,36.22-11,39.94-25.55a53.52,53.52,0,0,0,6.6.42,52.63,52.63,0,0,0,7.34-.53,117.94,117.94,0,0,0,11.83,10.4,2,2,0,0,0,1.18.4,1.79,1.79,0,0,0,.68-.13,1.93,1.93,0,0,0,1.22-1.42,118.75,118.75,0,0,0,2.08-15c10.28-6,16.4-15.43,16.4-25.49,0-17.52-18.27-31.78-40.73-31.78-19.44,0-36.2,10.87-39.94,25.57a51.05,51.05,0,0,0-6.6-.43C29.27,55.53,11,69.79,11,87.31,11,97.36,17.12,106.81,27.4,112.79ZM98.27,34.27c20.32,0,36.85,12.52,36.85,27.9,0,8.93-5.74,17.4-15.36,22.65a1.94,1.94,0,0,0-1,2,114.15,114.15,0,0,1-1.46,12,109.63,109.63,0,0,1-9.6-8.72l0,0h0a1.68,1.68,0,0,0-.29-.24l0,0a1.46,1.46,0,0,0-.3-.16l0,0-.31-.1h-.06a1.55,1.55,0,0,0-.31,0H106a48.38,48.38,0,0,1-13.65.25c.07-.79.12-1.59.12-2.39,0-14.71-12.87-27.11-30.28-30.71C65.63,43.75,80.72,34.27,98.27,34.27ZM51.73,59.41c20.32,0,36.85,12.51,36.85,27.9S72.05,115.2,51.73,115.2a48,48,0,0,1-7.71-.61h-.35a1,1,0,0,0-.24,0H43.3l-.22.07-.14,0-.2.11-.13.08a1.66,1.66,0,0,0-.21.16.27.27,0,0,1-.08.07,112.15,112.15,0,0,1-9.64,8.77,114.33,114.33,0,0,1-1.46-12,1.92,1.92,0,0,0-1-2c-9.62-5.25-15.36-13.72-15.36-22.65C14.88,71.92,31.41,59.41,51.73,59.41Z" style="fill:#323232"/><path d="M12.94,19.73h2.91v2.91a1.94,1.94,0,1,0,3.88,0V19.73h2.91a1.94,1.94,0,0,0,0-3.88H19.73V12.94a1.94,1.94,0,0,0-3.88,0v2.91H12.94a1.94,1.94,0,1,0,0,3.88Z" style="fill:#323232"/><path d="M50.36,26.11a1.94,1.94,0,0,0,0,2.75,1.92,1.92,0,0,0,1.36.56,1.94,1.94,0,0,0,1.38-3.31A2,2,0,0,0,50.36,26.11Z" style="fill:#323232"/><path d="M55.21,11.57a1.91,1.91,0,0,0,0,2.74,1.93,1.93,0,0,0,1.36.57,1.93,1.93,0,0,0,1.94-1.94A2,2,0,0,0,58,11.57,2,2,0,0,0,55.21,11.57Z" style="fill:#323232"/><path d="M20.7,46.88a6.79,6.79,0,1,0,6.78-6.79A6.79,6.79,0,0,0,20.7,46.88Zm9.69,0A2.91,2.91,0,1,1,27.48,44,2.91,2.91,0,0,1,30.39,46.88Z" style="fill:#323232"/><path d="M99.32,63.89a1.94,1.94,0,0,0,1.37-3.31,2,2,0,0,0-2.74,0,1.94,1.94,0,0,0,1.37,3.31Z" style="fill:#323232"/><path d="M86.39,63.89a2,2,0,0,0,1.38-.57A2,2,0,0,0,88.33,62a1.91,1.91,0,0,0-.57-1.37,2,2,0,0,0-2.74,0,1.94,1.94,0,0,0,1.37,3.31Z" style="fill:#323232"/><path d="M112.27,63.89a1.94,1.94,0,0,0,1.37-3.31,2,2,0,0,0-2.74,0,1.94,1.94,0,0,0,1.37,3.31Z" style="fill:#323232"/><path d="M42.1,92.76a5.17,5.17,0,1,1-5.16-5.25A5.21,5.21,0,0,1,42.1,92.76Z" style="fill:#231815"/><ellipse cx="40.43" cy="97.59" rx="5.17" ry="5.25" style="fill:#231815"/><ellipse cx="46.77" cy="98.76" rx="5.17" ry="5.25" style="fill:#231815"/><path d="M61.1,98.42a5.17,5.17,0,1,1-5.16-5.25A5.21,5.21,0,0,1,61.1,98.42Z" style="fill:#231815"/><path d="M68.1,96.92a5.17,5.17,0,1,1-5.16-5.25A5.21,5.21,0,0,1,68.1,96.92Z" style="fill:#231815"/><ellipse cx="67.1" cy="92.42" rx="5.17" ry="5.25" style="fill:#231815"/><path d="M72.77,84.59a5.17,5.17,0,1,1-5.17-5.25A5.21,5.21,0,0,1,72.77,84.59Z" style="fill:#231815"/><ellipse cx="35.77" cy="85.09" rx="5.17" ry="5.25" style="fill:#231815"/><path d="M60.64,109.41h-18a8.71,8.71,0,0,1,9-8.41A8.7,8.7,0,0,1,60.64,109.41Z" style="fill:#ec75a9"/><path d="M60.64,110a.58.58,0,0,1-.59-.59,8.13,8.13,0,0,0-8.38-7.82,8.13,8.13,0,0,0-8.38,7.82.6.6,0,0,1-1.19,0,9.31,9.31,0,0,1,9.57-9,9.31,9.31,0,0,1,9.57,9A.59.59,0,0,1,60.64,110Z" style="fill:#231815"/><path d="M69.47,87.05c0-8.71-7.84-15.76-17.5-15.76s-17.5,7-17.5,15.76c0,8.14,6.85,12.23,15.65,13.06v2a2.16,2.16,0,0,0,3.7,0v-2C62.61,99.28,69.47,95.19,69.47,87.05Z" style="fill:#fbded7"/><path d="M52,103.82h0a3.18,3.18,0,0,1-2.33-1.33.6.6,0,0,1-.11-.34v-1.5c-10-1.1-15.65-6-15.65-13.6,0-9,8.12-16.36,18.1-16.36S70.06,78,70.06,87.05c0,7.57-5.69,12.5-15.65,13.6v1.5a.59.59,0,0,1-.14.38A3.06,3.06,0,0,1,52,103.82Zm-1.25-1.88a1.84,1.84,0,0,0,1.25.69h0a1.79,1.79,0,0,0,1.26-.71v-1.81a.6.6,0,0,1,.54-.59c9.61-.91,15.11-5.46,15.11-12.47,0-8.36-7.58-15.17-16.9-15.17S35.06,78.69,35.06,87.05c0,7,5.51,11.56,15.11,12.47a.59.59,0,0,1,.54.59Z" style="fill:#231815"/><path d="M58.07,73A86.88,86.88,0,0,1,34.66,83.27s-1.47-10.36,7.82-15.55c12-6.71,17.79,2,17.79,2s3.13-.7,6.45,4a15.32,15.32,0,0,1,2.56,10.1S64.79,83.74,58.07,73Z" style="fill:#fbded7"/><path d="M69.89,84.45h-.61c-.2,0-4.78-.12-11.43-10.43a90.3,90.3,0,0,1-23,9.94l-.78.21-.11-.8c0-.1-1.43-10.9,8.17-16.27,11-6.15,17.15.24,18.46,1.85,1.09,0,3.88.32,6.71,4.28A16,16,0,0,1,70,83.84ZM58.28,72.05l.39.62c4.89,7.78,8.54,9.72,10,10.21a14.59,14.59,0,0,0-2.48-8.82c-3-4.16-5.62-3.69-5.74-3.67l-.46.09-.27-.39c-.23-.33-5.59-8-16.85-1.75-7.29,4.07-7.63,11.55-7.53,14a87.2,87.2,0,0,0,22.37-9.9Z" style="fill:#231815"/><path d="M69.28,84.34c-.19,0-4.74-.12-11.39-10.47a90.45,90.45,0,0,1-23.07,10,.62.62,0,0,1-.48-.08.58.58,0,0,1-.27-.41c0-.11-1.42-10.83,8.12-16.16a18.36,18.36,0,0,1,8.89-2.62,12,12,0,0,1,9.46,4.49h.19c1,0,3.74.41,6.48,4.24a15.84,15.84,0,0,1,2.66,10.53A.59.59,0,0,1,69.28,84.34Z" style="fill:#231815"/><path d="M60.75,85.82a2.08,2.08,0,1,1-2.08-2.08A2.08,2.08,0,0,1,60.75,85.82Z" style="fill:#231815"/><path d="M46.76,85.82a2.09,2.09,0,1,1-2.09-2.08A2.09,2.09,0,0,1,46.76,85.82Z" style="fill:#231815"/><path d="M31.38,86.24a2.81,2.81,0,0,0,1.15,3.83c1,.45,3-.23,3-.23v-3.6S32.41,84.7,31.38,86.24Z" style="fill:#fbded7"/><path d="M72.52,86.24c-1-1.54-4.17,0-4.17,0v3.6s2.06.68,3,.23A2.8,2.8,0,0,0,72.52,86.24Z" style="fill:#fbded7"/><path d="M35.3,90A3,3,0,0,1,33,91.18a3.12,3.12,0,0,1,0-6.24,3,3,0,0,1,2.5,1.36" style="fill:#fbded7"/><path d="M33,91.89a3.83,3.83,0,0,1,0-7.66,3.71,3.71,0,0,1,3.09,1.68l-1.18.78a2.31,2.31,0,0,0-1.91-1,2.42,2.42,0,0,0,0,4.83,2.26,2.26,0,0,0,1.78-.88l1.11.88A3.66,3.66,0,0,1,33,91.89Z" style="fill:#231815"/><path d="M69.12,89.64a3.07,3.07,0,0,0,2.39,1.15,3.13,3.13,0,0,0,0-6.25A3.05,3.05,0,0,0,69,85.91" style="fill:#fbded7"/><path d="M71.51,91.5a3.79,3.79,0,0,1-2.94-1.41l1.1-.89a2.35,2.35,0,0,0,1.84.88,2.42,2.42,0,1,0-2-3.78l-1.17-.79a3.8,3.8,0,0,1,6.94,2.16A3.82,3.82,0,0,1,71.51,91.5Z" style="fill:#231815"/><path d="M51.85,96c-3.59,0-6.51-2.53-6.51-5.64h1.52c0,2.27,2.24,4.12,5,4.12s5-1.85,5-4.12h1.51C58.36,93.47,55.44,96,51.85,96Z" style="fill:#231815"/></svg>