<svg id="圖層_1" data-name="圖層 1" xmlns="http://www.w3.org/2000/svg" viewBox="0 0 150 150"><title>ms-03</title><path d="M37.44,101.71a2.91,2.91,0,1,0,2.91,2.91A2.92,2.92,0,0,0,37.44,101.71Z" style="fill:#e26a6a"/><path d="M14.25,106.36a1.91,1.91,0,0,0-.57,1.37,1.93,1.93,0,0,0,1.94,1.94,2,2,0,0,0,1.38-.56,2,2,0,0,0,.56-1.38,2,2,0,0,0-.56-1.37A2,2,0,0,0,14.25,106.36Z" style="fill:#323232"/><path d="M27.74,84.94H24.83V82A1.94,1.94,0,1,0,21,82v2.91H18.05a1.94,1.94,0,1,0,0,3.87H21v2.91a1.94,1.94,0,1,0,3.87,0V88.81h2.91a1.94,1.94,0,1,0,0-3.87Z" style="fill:#323232"/><path d="M37.44,97.83a6.79,6.79,0,1,0,6.79,6.79A6.8,6.8,0,0,0,37.44,97.83Zm0,9.7a2.91,2.91,0,1,1,2.91-2.91A2.92,2.92,0,0,1,37.44,107.53Z" style="fill:#323232"/><path d="M129.57,54.63a2.92,2.92,0,1,0-2.87-2.92A2.9,2.9,0,0,0,129.57,54.63Z" style="fill:#f5d76e"/><path d="M129.57,58.51a6.8,6.8,0,1,0-6.75-6.8A6.78,6.78,0,0,0,129.57,58.51Zm0-9.72a2.92,2.92,0,1,1-2.87,2.92A2.9,2.9,0,0,1,129.57,48.79Z" style="fill:#323232"/><path d="M73.46,87.38a25.1,25.1,0,0,1,13.62,2.28c3.73,1.88,6.82,5.51,5.45,10-.5,1.66-2.66,2.54-4.16,3.16-3.51,1.46-8,.55-11.74.67-4.81.16-12.76,0-14.58-5.74C60.27,92.26,69.09,87.81,73.46,87.38Z" style="fill:#f8dcd5"/><path d="M88.64,95.94c.81-.25,14-2,14.62,1.42.83,4.9-9.44,5.45-12.72,5.21" style="fill:#fbded7"/><path d="M92,104.08c-.61,0-1.13,0-1.52,0l.21-2.92c2.77.2,9-.26,10.79-2.24a1.38,1.38,0,0,0,.38-1.26c-.9-1.46-10.47-.84-12.78-.26l-.83-2.81c.57-.18,11.26-1.83,15,.45a3.09,3.09,0,0,1,1.53,2.13,4.27,4.27,0,0,1-1.09,3.72C101.17,103.52,95.26,104.08,92,104.08Z" style="fill:#231815"/><path d="M66.81,95.1c-.75-.36-13.19-4-14.24-.65-1.48,4.73,8.3,6.72,11.48,7" style="fill:#fbded7"/><path d="M63.94,102.86c-2.4-.17-9.8-1.45-12.18-5a4.37,4.37,0,0,1-.58-3.9A3.06,3.06,0,0,1,53,92.1c3.92-1.7,13.91,1.44,14.43,1.69l-1.27,2.63.64-1.32-.61,1.34C63.74,95.41,55,93.66,54,94.91a1.46,1.46,0,0,0,.21,1.35c1.49,2.18,7.33,3.49,10,3.68Z" style="fill:#231815"/><path d="M91.53,100.2c2.33,4.83,1.5,5.67,1,7.58-1,4.28-3.76,6.86-7,9.65s-6.44,3.3-10.72,2.13a13.55,13.55,0,0,1-5.5-2.93c-1.5-1.36-2.13-3-3.27-4.56-3.15-4.25-4.8-8.63-.7-12.86" style="fill:#fbded7"/><path d="M78.66,121.59a16.17,16.17,0,0,1-4.24-.62,15,15,0,0,1-6.11-3.26,13.21,13.21,0,0,1-2.44-3.2c-.33-.55-.65-1.07-1-1.57-2.77-3.73-5.84-9.32-.58-14.74l2.1,2c-2.94,3-2.7,6.21.83,11,.45.61.81,1.21,1.16,1.79a11,11,0,0,0,1.91,2.56,12.1,12.1,0,0,0,4.91,2.59c3.88,1.07,6.6.54,9.38-1.83,3.14-2.67,5.62-5,6.56-8.87.07-.29.15-.55.22-.8.37-1.24.63-2.14-1.14-5.81l2.63-1.27c2.11,4.36,1.89,6,1.32,7.9-.06.22-.13.43-.18.67-1.16,4.71-4.09,7.5-7.51,10.41A11.66,11.66,0,0,1,78.66,121.59Z" style="fill:#231815"/><path d="M83.58,122a21,21,0,0,1-16.09-2.43c-5.22-3.36-5.24-7.25-5.26-11.88,0-2.83,3.52-2.92,6.9-3,6-.06,11.93.6,17.9,1,3,.22,4.43.26,5.48,2.48,3.19,6.75-1.86,12-8.93,13.76" style="fill:#fff"/><path d="M78.39,124a21.74,21.74,0,0,1-11.69-3.29c-5.89-3.79-5.91-8.31-5.94-13.1,0-4.34,5-4.39,8.36-4.43,4.64,0,9.32.33,13.82.7q2.1.18,4.2.33l.27,0c2.93.21,5,.37,6.43,3.29a9.82,9.82,0,0,1,.22,8.61c-1.61,3.39-5.31,6-10.13,7.2A23.13,23.13,0,0,1,78.39,124Zm-8.5-17.9h-.74c-3.63,0-5.47.28-5.46,1.49,0,4.48,0,7.72,4.59,10.65a19.47,19.47,0,0,0,14.94,2.24h0c3.91-1,7-3.06,8.18-5.62a6.86,6.86,0,0,0-.22-6.1c-.61-1.29-1.07-1.41-4-1.62l-.27,0-4.23-.33C78.51,106.5,74.18,106.14,69.89,106.14Z" style="fill:#231815"/><path d="M102.42,117.75a8.88,8.88,0,0,1-2.15,4.9c-1.39,1.61-3.87.47-5.57.58-2.11.13-4.51.71-6.52-.25-3.49-1.68-2-6,.3-8,4.19-3.82,6.15.89,9.7,2.83,1.59.86,2.52.12,4.2-.34a1.06,1.06,0,0,1,0,.31" style="fill:#fbded7"/><path d="M91,124.7a7.44,7.44,0,0,1-3.28-.66A4.51,4.51,0,0,1,85,120.55c-.36-2.44,1.14-5.07,2.68-6.47,3.78-3.45,6.42-1.12,8.55.75a14.67,14.67,0,0,0,2.52,1.91c.73.4,1.11.3,2.2-.08.34-.12.71-.25,1.12-.36a1.17,1.17,0,0,1,.93.13,1.21,1.21,0,0,1,.54.76,3.86,3.86,0,0,1,.06.49v0c0,2.06-1.47,4.59-2.43,5.71-1.39,1.6-3.43,1.31-4.92,1.1a8.43,8.43,0,0,0-1.48-.12c-.44,0-.9.07-1.37.12A21.41,21.41,0,0,1,91,124.7Zm.53-10a3.43,3.43,0,0,0-2.21,1.14,5.64,5.64,0,0,0-1.94,4.38,2.22,2.22,0,0,0,1.36,1.72,8.54,8.54,0,0,0,4.46.27c.5-.06,1-.11,1.48-.14a9.26,9.26,0,0,1,2,.15c1.4.19,2.29.27,2.8-.32a9.61,9.61,0,0,0,1.58-2.74,4,4,0,0,1-3.34-.32,16.73,16.73,0,0,1-3-2.22C93.33,115.42,92.43,114.68,91.48,114.68Z" style="fill:#231815"/><path d="M102.42,117.75a8.88,8.88,0,0,1-2.15,4.9c-1.39,1.61-3.87.47-5.57.58-2.11.13-4.51.71-6.52-.25-3.49-1.68-2-6,.3-8,4.19-3.82,6.15.89,9.7,2.83,1.59.86,2.52.12,4.2-.34A1.06,1.06,0,0,1,102.42,117.75Z" style="fill:#fbded7"/><path d="M91,125a7.73,7.73,0,0,1-3.4-.69,4.83,4.83,0,0,1-2.83-3.71c-.38-2.56,1.12-5.22,2.77-6.72,4-3.62,6.83-1.1,8.92.74a13.91,13.91,0,0,0,2.47,1.88c.64.35.93.27,2-.1.35-.12.72-.25,1.14-.36a1.43,1.43,0,0,1,1.14.16,1.41,1.41,0,0,1,.67.94,4.51,4.51,0,0,1,.08.53v.06c0,2.14-1.52,4.75-2.51,5.89-1.49,1.72-3.62,1.42-5.17,1.2a8.92,8.92,0,0,0-1.42-.12l-1.36.12A21.91,21.91,0,0,1,91,125Zm.52-10a3.16,3.16,0,0,0-2,1.07,5.36,5.36,0,0,0-1.85,4.13,1.91,1.91,0,0,0,1.2,1.5,8.27,8.27,0,0,0,4.31.24c.51-.05,1-.1,1.49-.13a9.73,9.73,0,0,1,2,.15c1.3.18,2.13.26,2.55-.22a9.34,9.34,0,0,0,1.32-2.15,4.22,4.22,0,0,1-3-.49,17.27,17.27,0,0,1-3-2.25C93.15,115.64,92.32,115,91.47,115Z" style="fill:#231815"/><path d="M52.26,117.61c.15,1.76,1.72,4.15,2.89,5.3,1.68,1.67,4.22.17,6.06.13,2.29-.05,4.94.39,7-.88,3.56-2.2,1.4-6.88-1.26-9-5-3.9-6.51,1.56-10.11,4.06-1.61,1.11-2.71.36-4.56,0a1.37,1.37,0,0,0,0,.35" style="fill:#fbded7"/><path d="M57.19,124.87a3.93,3.93,0,0,1-2.88-1.12c-1.14-1.14-3-3.78-3.23-6h0a3.57,3.57,0,0,1,0-.57,1.19,1.19,0,0,1,.48-.82,1.2,1.2,0,0,1,.92-.21c.45.09.86.2,1.24.3,1.24.33,1.67.41,2.43-.11a16,16,0,0,0,2.49-2.39c2.05-2.27,4.61-5.1,9-1.63,1.83,1.43,3.72,4.22,3.57,6.94a4.85,4.85,0,0,1-2.42,4c-1.9,1.17-4.12,1.11-6.09,1.07-.51,0-1,0-1.49,0a8.48,8.48,0,0,0-1.59.28A10.85,10.85,0,0,1,57.19,124.87Zm-3.37-6A11.1,11.1,0,0,0,56,122.07c.66.66,1.62.49,3.13.13a10,10,0,0,1,2.08-.34c.52,0,1.05,0,1.6,0,1.72,0,3.49.09,4.79-.71a2.51,2.51,0,0,0,1.3-2.08c.1-1.78-1.3-3.88-2.67-5-2.58-2-3.58-1.1-5.81,1.36a17,17,0,0,1-2.9,2.75A4.21,4.21,0,0,1,53.82,118.86Z" style="fill:#231815"/><path d="M52.26,117.61c.15,1.76,1.72,4.15,2.89,5.3,1.68,1.67,4.22.17,6.06.13,2.29-.05,4.94.39,7-.88,3.56-2.2,1.4-6.88-1.26-9-5-3.9-6.51,1.56-10.11,4.06-1.61,1.11-2.71.36-4.56,0A1.37,1.37,0,0,0,52.26,117.61Z" style="fill:#fbded7"/><path d="M57.18,125.16A4.15,4.15,0,0,1,54.12,124c-1.18-1.16-3.12-3.88-3.32-6.22h0a3.18,3.18,0,0,1,0-.62,1.46,1.46,0,0,1,1.74-1.27c.45.09.87.2,1.26.3,1.19.32,1.53.38,2.19-.08a15.32,15.32,0,0,0,2.44-2.34c2-2.24,4.79-5.3,9.41-1.66,1.88,1.47,3.83,4.35,3.67,7.18A5.11,5.11,0,0,1,69,123.41c-2,1.21-4.23,1.16-6.24,1.11-.51,0-1,0-1.49,0a8.15,8.15,0,0,0-1.52.28A11.57,11.57,0,0,1,57.18,125.16Zm-2.87-5.92a10.62,10.62,0,0,0,1.86,2.63c.54.54,1.33.42,2.88.06a9.77,9.77,0,0,1,2.13-.35c.52,0,1.07,0,1.62,0,1.75,0,3.4.09,4.63-.67a2.23,2.23,0,0,0,1.17-1.85A6.45,6.45,0,0,0,66,114.35c-2.36-1.86-3.18-1.16-5.43,1.32a17.17,17.17,0,0,1-3,2.79A4.3,4.3,0,0,1,54.31,119.24Z" style="fill:#231815"/><path d="M120.49,67.92a5.07,5.07,0,0,0-5.88-1.45l-.06-.33c.07-.83.12-1.67.12-2.52,0-17.49-16-31.66-35.82-31.66C59.63,32,44,45.35,43.08,62.15c-4.82-1-9.86,5.81-5.75,10.42a4.6,4.6,0,0,0,5,1.4,19,19,0,0,0,.32,3c4.69,24.23,57.8,25.72,68.47,9.09a24.53,24.53,0,0,0,3.24-8C119,79.06,124.54,72.38,120.49,67.92Z" style="fill:#fbded7"/><path d="M80.88,98.68a69.22,69.22,0,0,1-13.13-1.27c-15-2.87-24.64-10.2-26.56-20.11-.1-.52-.18-1.07-.24-1.64a6.11,6.11,0,0,1-4.71-2.11,7.35,7.35,0,0,1-.81-8.75,8.13,8.13,0,0,1,6.3-4.19c1.71-17,17.71-30.11,37.12-30.11,20.56,0,37.29,14.86,37.29,33.12,0,.33,0,.66,0,1a6.55,6.55,0,0,1,5.45,2.31h0a6.81,6.81,0,0,1,.75,8.25,8.63,8.63,0,0,1-6.85,4.48,25.72,25.72,0,0,1-3.14,7.23C108.13,93.45,96.06,98.68,80.88,98.68ZM43.71,72l.06,1.9a17.61,17.61,0,0,0,.29,2.81c1.68,8.68,10.52,15.16,24.25,17.8,17.49,3.36,36.14-.78,41.56-9.22a23,23,0,0,0,3-7.51l.31-1.4,1.41.28c1.75.35,4-.94,5.14-2.94a4,4,0,0,0-.36-4.84h0a3.62,3.62,0,0,0-4.26-1.08l-1.7.68-.38-2.31,0-.19c.08-.88.12-1.66.12-2.39,0-16.65-15.41-30.2-34.36-30.2-18.4,0-33.47,12.65-34.31,28.8l-.09,1.69-1.66-.33c-1.71-.34-3.74.79-4.82,2.68a4.44,4.44,0,0,0,.45,5.34,3.14,3.14,0,0,0,3.47,1Z" style="fill:#231815"/><path d="M105.51,68.16a4.38,4.38,0,1,1-4.38-4.58,4.48,4.48,0,0,1,4.38,4.58" style="fill:#231815"/><path d="M61.54,68.16a4.38,4.38,0,1,1-4.38-4.58,4.48,4.48,0,0,1,4.38,4.58" style="fill:#231815"/><path d="M71.13,43.74l-2.58-1.39c2.36-4.38-1.14-9.14-4.38-11.13l1.53-2.49C70.69,31.79,74.09,38.24,71.13,43.74Z" style="fill:#231815"/><path d="M81.44,40.11H78.51c0-4.61,0-10.34,2.07-15.26L83.29,26C81.48,30.35,81.46,35.53,81.44,40.11Z" style="fill:#231815"/><path d="M88.23,44.28c-.51-4,.11-9.83,3.5-13.21a8.45,8.45,0,0,1,7.34-2.33l-.38,2.9a5.55,5.55,0,0,0-4.9,1.51c-2.47,2.45-3.11,7.17-2.66,10.76Z" style="fill:#231815"/><path d="M78.28,86.87c-6.71,0-12.17-4.73-12.17-10.55h2.83c0,4.25,4.19,7.71,9.34,7.71s9.33-3.46,9.33-7.71h2.83C90.44,82.14,85,86.87,78.28,86.87Z" style="fill:#231815"/></svg>