<svg id="圖層_1" data-name="圖層 1" xmlns="http://www.w3.org/2000/svg" viewBox="0 0 150 150"><title>ms-04</title><path d="M70.3,84.45a25.06,25.06,0,0,1,13.61,2.28c3.73,1.88,6.83,5.51,5.46,10-.5,1.66-2.66,2.54-4.16,3.17-3.51,1.46-8,.54-11.74.66-4.81.16-12.76,0-14.59-5.73C57.11,89.33,65.93,84.89,70.3,84.45Z" style="fill:#f8dcd5"/><path d="M61.9,92.92c-.79.24-12.33,6.14-10.8,9.29,2.17,4.46,10.65-.81,13.12-2.82" style="fill:#fbded7;stroke:#231815;stroke-linecap:round;stroke-linejoin:round;stroke-width:2.92612px"/><path d="M87.91,93c.74.18,11.63,5,10.11,8.18-2.14,4.53-10.12.1-12.43-1.66" style="fill:#fbded7;stroke:#231815;stroke-linecap:round;stroke-linejoin:round;stroke-width:2.92612px"/><path d="M88.37,97.77c2,5.63,1.49,5.17,1,7.09-1,4.27-3.75,6.85-7,9.64s-6.44,3.3-10.72,2.13a13.53,13.53,0,0,1-5.51-2.93c-1.49-1.36-2.12-3-3.26-4.56-3.15-4.25-4.13-6.08-1.75-11.45" style="fill:#fbded7;stroke:#231815;stroke-linecap:round;stroke-linejoin:round;stroke-width:2.92612px"/><path d="M80.41,119a21,21,0,0,1-16.08-2.43c-5.22-3.36-5.24-7.25-5.27-11.87,0-2.84,3.53-2.93,6.91-3,6,0,11.78.3,17.77.4,4.06.06,6.38.37,6.63,1.56a13.42,13.42,0,0,1-10,15.31" style="fill:#fff;stroke:#231815;stroke-linecap:round;stroke-linejoin:round;stroke-width:2.92612px"/><path d="M81.25,126.84a7,7,0,0,0,4.16.06c2.5-.59,1.18-3.56,1.26-3.69,1.2-2.06,2.47-6.06,2.12-7.89-.62-3.18-5.4-1.67-7.8-.52s-2.39,2.36-1.24,4.61A8.42,8.42,0,0,1,81,122.35a.94.94,0,0,1-.77,1.12C78.35,124.16,79.5,126.33,81.25,126.84Z" style="fill:#fbded7;stroke:#231815;stroke-linecap:round;stroke-linejoin:round;stroke-width:2.82365px"/><path d="M68,127a6.72,6.72,0,0,1-4.1-.14c-2.43-.71-1-3.61-1.09-3.74-1.1-2.12-2.19-6.17-1.78-8,.73-3.15,5.37-1.4,7.68-.14s2.26,2.48,1,4.66a8.23,8.23,0,0,0-1.37,2.87,1,1,0,0,0,.71,1.15C70.92,124.52,69.71,126.63,68,127Z" style="fill:#fbded7;stroke:#231815;stroke-linecap:round;stroke-linejoin:round;stroke-width:2.82365px"/><path d="M116.51,63.56a5.07,5.07,0,0,0-5.94-1.2c0-.11,0-.22-.07-.33,0-.83,0-1.67,0-2.52-.73-17.47-17.35-31-37.12-30.13-19.2.81-34.3,14.85-34.47,31.67-4.86-.75-9.6,6.23-5.3,10.66a4.59,4.59,0,0,0,5,1.19,18.59,18.59,0,0,0,.45,3c5.7,24,58.83,23.26,68.79,6.2a24.29,24.29,0,0,0,2.9-8.12C115.49,74.75,120.74,67.84,116.51,63.56Z" style="fill:#fbded7;stroke:#231815;stroke-linecap:round;stroke-linejoin:round;stroke-width:2.92612px"/><path d="M101.55,64.43A4.38,4.38,0,1,1,97,60a4.48,4.48,0,0,1,4.57,4.39" style="fill:#231815"/><path d="M57.62,66.28a4.38,4.38,0,1,1-4.56-4.39,4.49,4.49,0,0,1,4.56,4.39" style="fill:#231815"/><path d="M74.71,34c-.14-3.73-.24-7.73,1.48-11.29" style="fill:none;stroke:#231815;stroke-linecap:round;stroke-linejoin:round;stroke-width:2.92612px"/><path d="M69.36,35.1C67.67,31.77,65.9,28.19,66,24.23" style="fill:none;stroke:#231815;stroke-linecap:round;stroke-linejoin:round;stroke-width:2.92612px"/><path d="M81,34.53c.68-3.67,1.45-7.59,3.91-10.69" style="fill:none;stroke:#231815;stroke-linecap:round;stroke-linejoin:round;stroke-width:2.92612px"/><path d="M85.43,73.28c.21,5-4.43,9.32-10.36,9.57S64.16,79.22,64,74.19" style="fill:none;stroke:#231815;stroke-linecap:round;stroke-linejoin:round;stroke-width:2.8346500000000003px"/><path d="M108.34,112.39a1.41,1.41,0,0,0,1.53,1.24l4.93,0a1.28,1.28,0,1,0,0-2.52l-4.93,0A1.41,1.41,0,0,0,108.34,112.39Z" style="fill:#231815"/><path d="M105.76,124.07a1,1,0,0,0-.05.33,1.32,1.32,0,0,0,1.14,1.2l5.6,1.18a1.56,1.56,0,0,0,1.84-.92,1.24,1.24,0,0,0-1.09-1.52l-5.6-1.18A1.57,1.57,0,0,0,105.76,124.07Z" style="fill:#231815"/><path d="M106.8,99.15a1.34,1.34,0,0,0-1.12,1.23,1,1,0,0,0,.06.33,1.55,1.55,0,0,0,1.86.87l5.33-1.24A1.25,1.25,0,0,0,114,98.79a1.57,1.57,0,0,0-1.86-.88Z" style="fill:#231815"/><path d="M41,112.43a1.42,1.42,0,0,1-1.52,1.28l-5,.06a1.43,1.43,0,0,1-1.55-1.25,1.41,1.41,0,0,1,1.52-1.27l5-.06A1.42,1.42,0,0,1,41,112.43Z" style="fill:#231815"/><path d="M43.89,124.06a1.28,1.28,0,0,1,.06.32,1.34,1.34,0,0,1-1.13,1.23l-5.66,1.3a1.59,1.59,0,0,1-1.89-.87,1.26,1.26,0,0,1,1.07-1.56L42,123.19A1.59,1.59,0,0,1,43.89,124.06Z" style="fill:#231815"/><path d="M42.28,99.17a1.33,1.33,0,0,1,1.16,1.2,1,1,0,0,1,0,.33,1.6,1.6,0,0,1-1.87.91l-5.44-1.12A1.26,1.26,0,0,1,35,99a1.59,1.59,0,0,1,1.87-.91Z" style="fill:#231815"/></svg>