<svg id="圖層_1" data-name="圖層 1" xmlns="http://www.w3.org/2000/svg" viewBox="0 0 150 150"><title>ms-05</title><path d="M73.07,95.49a25.15,25.15,0,0,1,13.61,2.28c3.73,1.88,6.83,5.52,5.46,10-.5,1.66-2.66,2.54-4.16,3.16-3.51,1.46-8,.55-11.74.67-4.81.15-12.76,0-14.59-5.74C59.88,100.37,68.7,95.93,73.07,95.49Z" style="fill:#f8dcd5"/><path d="M26.57,116.21a1.94,1.94,0,0,0,1.94,1.94h2.91v3a1.94,1.94,0,0,0,3.88,0v-3h2.91a1.94,1.94,0,1,0,0-3.88H35.3v-3a1.94,1.94,0,0,0-3.88,0v3H28.51A1.94,1.94,0,0,0,26.57,116.21Z" style="fill:#323232"/><path d="M18.82,123.06a2,2,0,0,0,1.37-.57,2,2,0,0,0,.57-1.36,2,2,0,0,0-.57-1.38,2,2,0,0,0-2.75,0,2,2,0,0,0-.56,1.38,1.94,1.94,0,0,0,.56,1.36A2,2,0,0,0,18.82,123.06Z" style="fill:#323232"/><path d="M22.29,105a2,2,0,0,0,0,2.74,2,2,0,0,0,1.38.56,1.92,1.92,0,0,0,1.36-.56,2,2,0,0,0,.58-1.37A1.92,1.92,0,0,0,25,105,2,2,0,0,0,22.29,105Z" style="fill:#323232"/><path d="M125.16,101.84a1.52,1.52,0,0,0,1.53,1.5l4.93-.06a1.52,1.52,0,0,0,0-3l-4.93.06A1.51,1.51,0,0,0,125.16,101.84Z" style="fill:#323232"/><path d="M122.6,115.88a1.72,1.72,0,0,0,0,.39,1.5,1.5,0,0,0,1.14,1.45l5.6,1.43a1.52,1.52,0,0,0,.75-2.94l-5.6-1.42A1.52,1.52,0,0,0,122.6,115.88Z" style="fill:#323232"/><path d="M123.59,85.92a1.52,1.52,0,0,0-1.11,1.48,1.74,1.74,0,0,0,0,.39,1.52,1.52,0,0,0,1.87,1l5.33-1.48a1.52,1.52,0,0,0-.81-2.92Z" style="fill:#323232"/><path d="M88.25,104.06c.81-.25,14-2,14.62,1.42.83,4.89-9.44,5.44-12.72,5.21" style="fill:#fbded7"/><path d="M91.59,111.91c-.61,0-1.13,0-1.53,0a1.18,1.18,0,1,1,.18-2.35c2.82.21,9.16-.28,11-2.33a1.64,1.64,0,0,0,.44-1.5c0-.12-.18-.24-.28-.3-2.41-1.56-11.64-.5-12.84-.19a1.2,1.2,0,0,1-1.45-.82,1.16,1.16,0,0,1,.77-1.44c.57-.18,11.11-1.82,14.73.42a2.8,2.8,0,0,1,1.4,1.93,4,4,0,0,1-1,3.49C100.64,111.37,94.84,111.91,91.59,111.91Z" style="fill:#231815"/><path d="M66.41,103.22c-.74-.36-13.18-4-14.23-.65-1.48,4.73,8.3,6.72,11.47,7" style="fill:#fbded7"/><path d="M63.66,110.7h-.09c-2.37-.16-9.65-1.41-12-4.83a4.08,4.08,0,0,1-.55-3.64,2.83,2.83,0,0,1,1.68-1.75c3.85-1.66,13.68,1.44,14.2,1.69a1.18,1.18,0,0,1,.55,1.58,1.2,1.2,0,0,1-1.57.55c-1.12-.47-9.74-2.8-12.28-1.63-.13.06-.29.15-.32.26a1.71,1.71,0,0,0,.24,1.62c1.56,2.28,7.4,3.6,10.19,3.8a1.18,1.18,0,0,1-.08,2.36Z" style="fill:#231815"/><path d="M91.13,108.32c2.34,4.83,1.5,5.66,1,7.58-1,4.28-3.75,6.86-7,9.64s-6.44,3.3-10.72,2.13a13.45,13.45,0,0,1-5.51-2.92c-1.49-1.36-2.12-3-3.26-4.56-3.15-4.26-4.8-8.63-.7-12.86" style="fill:#fbded7"/><path d="M78.25,129.38a15.9,15.9,0,0,1-4.14-.61,14.67,14.67,0,0,1-6-3.18,13.22,13.22,0,0,1-2.38-3.14c-.34-.55-.66-1.08-1-1.58-2.7-3.64-5.69-9.08-.6-14.33a1.14,1.14,0,0,1,1.63,1.58c-3,3.13-2.8,6.54.8,11.39.43.6.79,1.19,1.14,1.77a11.24,11.24,0,0,0,2,2.63,12.44,12.44,0,0,0,5,2.67c4,1.08,6.84.51,9.68-1.9,3.19-2.71,5.7-5.09,6.67-9.05.07-.28.14-.53.22-.78.38-1.31.66-2.26-1.17-6a1.14,1.14,0,1,1,2-1c2.06,4.27,1.86,5.74,1.3,7.67-.07.21-.13.44-.19.68-1.13,4.61-4,7.36-7.41,10.24A11.31,11.31,0,0,1,78.25,129.38Z" style="fill:#231815"/><path d="M83.18,130.07a20.94,20.94,0,0,1-16.08-2.44c-5.22-3.35-5.24-7.25-5.27-11.87,0-2.84,3.53-2.92,6.91-3,6-.06,11.93.59,17.9,1,3,.22,4.43.25,5.48,2.48,3.19,6.75-1.86,12-8.94,13.76" style="fill:#fbded7"/><path d="M78,131.88a21.46,21.46,0,0,1-11.54-3.25c-5.76-3.71-5.78-8.16-5.81-12.86,0-4.06,4.66-4.11,8.08-4.15,4.65-.05,9.3.33,13.8.7q2.1.18,4.2.33l.26,0c2.94.21,4.89.35,6.2,3.13a9.53,9.53,0,0,1,.22,8.37c-1.57,3.31-5.2,5.87-9.94,7A23.06,23.06,0,0,1,78,131.88ZM69.5,114h-.75c-3.89,0-5.74.32-5.73,1.78,0,4.57,0,7.87,4.72,10.88a19.71,19.71,0,0,0,15.16,2.28h0c4-1,7.13-3.14,8.38-5.77a7.14,7.14,0,0,0-.23-6.34c-.7-1.48-1.33-1.57-4.23-1.78l-.26,0-4.22-.34C78.13,114.33,73.8,114,69.5,114Z" style="fill:#231815"/><path d="M83.18,130.07a20.94,20.94,0,0,1-16.08-2.44c-6.18-4-5.73-11.63-3.76-17.81,1.75-5.54,5.54-11.9,12-12.45,2.78-.24,5.66-.73,8.1.81a29.09,29.09,0,0,1,6.28,5.38c5.34,6,8.16,17.16.89,22.77A21.68,21.68,0,0,1,83.18,130.07Z" style="fill:#d94434"/><path d="M78,132.1a21.72,21.72,0,0,1-11.66-3.28c-5.63-3.63-7.17-10.52-4.34-19.43,1.2-3.8,4.9-12.72,13.18-13.42l.89-.08c2.58-.25,5.5-.52,8.08,1.1a30,30,0,0,1,6.58,5.64c3.87,4.38,6,10.57,5.56,15.78a12.56,12.56,0,0,1-4.86,9A20.94,20.94,0,0,1,78,132.1Zm1.07-33.59c-.88,0-1.8.09-2.73.17l-.93.09c-6.58.56-9.7,8.21-10.74,11.47-1.39,4.39-2.83,12.34,3.19,16.21a19.51,19.51,0,0,0,15,2.26h0a20.28,20.28,0,0,0,6.86-3.49,9.71,9.71,0,0,0,3.78-7.07c.42-4.41-1.54-9.89-4.87-13.66a27,27,0,0,0-6-5.12A6.5,6.5,0,0,0,79.07,98.51Z" style="fill:#231815"/><path d="M102,125.86a8.91,8.91,0,0,1-2.15,4.91c-1.39,1.61-3.87.47-5.57.58-2.12.13-4.51.71-6.52-.25-3.49-1.68-2-6,.29-8,4.19-3.83,6.16.88,9.71,2.83,1.59.86,2.52.12,4.2-.35a1.65,1.65,0,0,1,0,.31" style="fill:#fbded7"/><path d="M90.56,132.82a7.44,7.44,0,0,1-3.28-.66,4.49,4.49,0,0,1-2.67-3.5c-.36-2.44,1.14-5.06,2.68-6.47,3.78-3.44,6.42-1.12,8.55.75a14.67,14.67,0,0,0,2.51,1.92c.74.4,1.12.3,2.21-.08.34-.12.71-.25,1.12-.36a1.14,1.14,0,0,1,.92.13,1.16,1.16,0,0,1,.55.76,3.86,3.86,0,0,1,.06.49v0c0,2.06-1.47,4.59-2.43,5.7-1.4,1.61-3.43,1.32-4.92,1.11a8.55,8.55,0,0,0-1.48-.13c-.45,0-.91.08-1.37.13A24.16,24.16,0,0,1,90.56,132.82Zm.52-10a3.43,3.43,0,0,0-2.2,1.14,5.64,5.64,0,0,0-1.94,4.38A2.18,2.18,0,0,0,88.3,130c1.26.61,2.81.44,4.46.27.5-.05,1-.1,1.48-.13a10,10,0,0,1,2,.14c1.4.2,2.29.28,2.8-.31a9.61,9.61,0,0,0,1.58-2.74,4.06,4.06,0,0,1-3.34-.33,15.81,15.81,0,0,1-3-2.22C92.94,123.53,92,122.8,91.08,122.8Z" style="fill:#231815"/><path d="M102,125.86a8.91,8.91,0,0,1-2.15,4.91c-1.39,1.61-3.87.47-5.57.58-2.12.13-4.51.71-6.52-.25-3.49-1.68-2-6,.29-8,4.19-3.83,6.16.88,9.71,2.83,1.59.86,2.52.12,4.2-.35A1.65,1.65,0,0,1,102,125.86Z" style="fill:#fbded7"/><path d="M90.56,132.82a7.44,7.44,0,0,1-3.28-.66,4.49,4.49,0,0,1-2.67-3.5c-.36-2.44,1.14-5.06,2.68-6.47,3.78-3.44,6.42-1.12,8.55.75a14.67,14.67,0,0,0,2.51,1.92c.74.4,1.12.3,2.21-.08.34-.12.71-.25,1.12-.36a1.14,1.14,0,0,1,.92.13,1.16,1.16,0,0,1,.55.76,3.86,3.86,0,0,1,.06.49v0c0,2.06-1.47,4.59-2.43,5.7-1.4,1.61-3.43,1.32-4.92,1.11a8.55,8.55,0,0,0-1.48-.13c-.45,0-.91.08-1.37.13A24.16,24.16,0,0,1,90.56,132.82Zm.52-10a3.43,3.43,0,0,0-2.2,1.14,5.64,5.64,0,0,0-1.94,4.38A2.18,2.18,0,0,0,88.3,130c1.26.61,2.81.44,4.46.27.5-.05,1-.1,1.48-.13a10,10,0,0,1,2,.14c1.4.2,2.29.28,2.8-.31a9.61,9.61,0,0,0,1.58-2.74,4.06,4.06,0,0,1-3.34-.33,15.81,15.81,0,0,1-3-2.22C92.94,123.53,92,122.8,91.08,122.8Z" style="fill:#231815"/><path d="M51.87,125.73c.15,1.76,1.72,4.14,2.88,5.3,1.69,1.67,4.23.17,6.07.13,2.29,0,4.94.38,7-.88,3.56-2.2,1.4-6.88-1.26-9-5-3.89-6.52,1.56-10.11,4.06-1.62,1.12-2.71.37-4.57,0a2,2,0,0,0,0,.35" style="fill:#fbded7"/><path d="M56.8,133a3.89,3.89,0,0,1-2.88-1.13c-1.14-1.13-3-3.77-3.23-6v0a3.47,3.47,0,0,1,0-.56,1.19,1.19,0,0,1,1.4-1c.45.09.86.2,1.24.3,1.24.33,1.67.41,2.43-.12A15.13,15.13,0,0,0,58.26,122c2.05-2.27,4.6-5.1,9-1.62,1.82,1.43,3.72,4.21,3.57,6.94a4.83,4.83,0,0,1-2.42,4c-1.9,1.17-4.12,1.12-6.09,1.07-.51,0-1,0-1.49,0a8.48,8.48,0,0,0-1.59.28A10.94,10.94,0,0,1,56.8,133Zm-3.37-6a11.07,11.07,0,0,0,2.15,3.21c.67.65,1.63.49,3.14.13A9.92,9.92,0,0,1,60.8,130c.51,0,1.05,0,1.6,0,1.71,0,3.49.09,4.79-.72a2.5,2.5,0,0,0,1.3-2.07c.1-1.78-1.3-3.88-2.67-5-2.58-2-3.58-1.11-5.81,1.36a17.33,17.33,0,0,1-2.9,2.74A4.22,4.22,0,0,1,53.43,127Z" style="fill:#231815"/><path d="M51.87,125.73c.15,1.76,1.72,4.14,2.88,5.3,1.69,1.67,4.23.17,6.07.13,2.29,0,4.94.38,7-.88,3.56-2.2,1.4-6.88-1.26-9-5-3.89-6.52,1.56-10.11,4.06-1.62,1.12-2.71.37-4.57,0A2,2,0,0,0,51.87,125.73Z" style="fill:#fbded7"/><path d="M56.8,133a3.89,3.89,0,0,1-2.88-1.13c-1.14-1.13-3-3.77-3.23-6v0a3.47,3.47,0,0,1,0-.56,1.19,1.19,0,0,1,1.4-1c.45.09.86.2,1.24.3,1.24.33,1.67.41,2.43-.12A15.13,15.13,0,0,0,58.26,122c2.05-2.27,4.6-5.1,9-1.62,1.82,1.43,3.72,4.21,3.57,6.94a4.83,4.83,0,0,1-2.42,4c-1.9,1.17-4.12,1.12-6.09,1.07-.51,0-1,0-1.49,0a8.48,8.48,0,0,0-1.59.28A10.94,10.94,0,0,1,56.8,133Zm-3.37-6a11.07,11.07,0,0,0,2.15,3.21c.67.65,1.63.49,3.14.13A9.92,9.92,0,0,1,60.8,130c.51,0,1.05,0,1.6,0,1.71,0,3.49.09,4.79-.72a2.5,2.5,0,0,0,1.3-2.07c.1-1.78-1.3-3.88-2.67-5-2.58-2-3.58-1.11-5.81,1.36a17.33,17.33,0,0,1-2.9,2.74A4.22,4.22,0,0,1,53.43,127Z" style="fill:#231815"/><path d="M111.79,77.23a37.93,37.93,0,0,0-4-13.72c-4.22-8.13-11.34-15-20.2-17.73a29.45,29.45,0,0,0-9.69-1.28c-3.69.13-6.84,1.41-10.38,2.11l1.27-.25c-6.89,2.48-12.65,7.84-17,13.61-4.1,5.45-9,13.13-8.63,20.19a36.88,36.88,0,0,0,.44,5.14c4.43,22.92,54.67,24.32,64.76,8.6C111.43,89.11,112.35,83.12,111.79,77.23Z" style="fill:#fbded7"/><path d="M79.78,105.79a66.42,66.42,0,0,1-12.42-1.2c-14.15-2.72-23.31-9.65-25.12-19a29.74,29.74,0,0,1-.41-4.37l0-1c-.31-5.81,2.6-12.71,8.9-21.09,3.48-4.63,9.13-10.66,16.59-13.69l0-.2c1.19-.24,2.37-.55,3.52-.85a31.31,31.31,0,0,1,7.08-1.28A30.76,30.76,0,0,1,88,44.46c8.68,2.69,16.34,9.4,21,18.41a39.74,39.74,0,0,1,4.17,14.23h0c.64,6.77-.62,12.83-3.65,17.55C105.55,100.84,94.14,105.79,79.78,105.79ZM69.23,47.64v0C61.91,50.3,56.3,56.26,52.89,60.8,47,68.64,44.27,74.94,44.54,80.09l.05,1A27.25,27.25,0,0,0,45,85c1.58,8.2,9.94,14.34,22.93,16.83,16.55,3.18,34.18-.73,39.3-8.72,3.4-5.29,3.63-11.51,3.22-15.79h0a36.8,36.8,0,0,0-3.87-13.22c-4.33-8.36-11.4-14.57-19.38-17a27.89,27.89,0,0,0-9.23-1.22,28.8,28.8,0,0,0-6.48,1.2C70.73,47.27,70,47.46,69.23,47.64Z" style="fill:#231815"/><path d="M65.68,33.32a10.24,10.24,0,0,1-6.05,13.17h0a10.25,10.25,0,0,1-13.17-6.06l-3-8.2a10.25,10.25,0,0,1,6.06-13.17h0a10.24,10.24,0,0,1,13.17,6.05Z" style="fill:#fbc600"/><path d="M56.06,48.54a11.66,11.66,0,0,1-10.92-7.62l-3-8.21A11.65,11.65,0,1,1,64,24.63l3,8.2h0A11.67,11.67,0,0,1,56.06,48.54ZM53,19.82a8.87,8.87,0,0,0-3.08.56,8.84,8.84,0,0,0-5.22,11.36l3,8.21a8.84,8.84,0,0,0,16.59-6.14h0l-3-8.21A8.85,8.85,0,0,0,53,19.82Z" style="fill:#231815"/><path d="M108.07,41.75A10.25,10.25,0,0,1,94.5,46.84h0a10.26,10.26,0,0,1-5.09-13.58l3.62-8a10.26,10.26,0,0,1,13.58-5.09h0a10.24,10.24,0,0,1,5.08,13.57Z" style="fill:#fbc600"/><path d="M98.72,49.16A11.66,11.66,0,0,1,88.13,32.68l3.62-8A11.66,11.66,0,1,1,113,34.37l-3.62,8h0A11.68,11.68,0,0,1,98.72,49.16Zm3.66-28.46a8.85,8.85,0,0,0-8.07,5.18l-3.62,8a8.85,8.85,0,1,0,16.1,7.33h0l3.62-8A8.85,8.85,0,0,0,106,21.49,8.72,8.72,0,0,0,102.38,20.7Z" style="fill:#231815"/><path d="M102.72,43a5.79,5.79,0,0,1-7.67,2.88h0a5.79,5.79,0,0,1-2.87-7.67l5.18-10.91A5.79,5.79,0,0,1,105,24.45h0a5.79,5.79,0,0,1,2.87,7.67Z" style="fill:#d94434"/><path d="M97.45,47.22a6.53,6.53,0,0,1-2.73-.6,6.6,6.6,0,0,1-3.27-8.72L96.64,27a6.58,6.58,0,1,1,12,5.46l-5.18,10.92a6.53,6.53,0,0,1-3.68,3.43A6.61,6.61,0,0,1,97.45,47.22Zm5.18-22.5a5,5,0,0,0-4.55,2.93L92.89,38.57A5,5,0,0,0,102,42.7v0l5.19-10.9a5,5,0,0,0-4.56-7.06Z" style="fill:#231815"/><path d="M62.46,38.13A5.79,5.79,0,0,1,59,45.56h0a5.79,5.79,0,0,1-7.43-3.44l-4-11.4a5.78,5.78,0,0,1,3.44-7.43h0a5.78,5.78,0,0,1,7.43,3.43Z" style="fill:#d94434"/><path d="M57,46.71a6.58,6.58,0,0,1-6.18-4.31L46.87,31a6.58,6.58,0,0,1,9-8.23,6.5,6.5,0,0,1,3.41,3.7l4,11.41a6.6,6.6,0,0,1-3.91,8.45A6.71,6.71,0,0,1,57,46.71Zm-4-23a4.9,4.9,0,0,0-1.73.31,5,5,0,0,0-3,6.41l4,11.42a5,5,0,0,0,6.41,3,5,5,0,0,0,3-6.42h0l-4-11.4a5,5,0,0,0-4.68-3.27Z" style="fill:#231815"/><path d="M102.31,78.54a4.15,4.15,0,1,1-4.14-4.33,4.25,4.25,0,0,1,4.14,4.33" style="fill:#231815"/><path d="M60.73,78.54a4.15,4.15,0,1,1-4.14-4.33,4.25,4.25,0,0,1,4.14,4.33" style="fill:#231815"/><path d="M77.39,96.82c-6.71,0-12.17-4.73-12.17-10.55h2.83c0,4.25,4.19,7.71,9.34,7.71s9.33-3.46,9.33-7.71h2.83C89.55,92.09,84.09,96.82,77.39,96.82Z" style="fill:#231815"/><path d="M44.8,82.31c0-16.66,8.19-29.6,33.11-30.16,23.23,0,33.1,13.5,33.1,30.16a27.77,27.77,0,0,1-1.66,9.44,33.54,33.54,0,0,0,9.39-23c0-19.93-12.17-36.08-40.83-36.08-30.74.67-40.84,16.15-40.84,36.08a33.54,33.54,0,0,0,9.39,23A27.77,27.77,0,0,1,44.8,82.31Z" style="fill:#d94434"/><path d="M109.35,93.15a1.39,1.39,0,0,1-.73-.2,1.41,1.41,0,0,1-.59-1.68,26.23,26.23,0,0,0,1.58-9c0-8.64-3.09-28.76-31.7-28.76C56.88,54,46.2,63.7,46.2,82.31a26.18,26.18,0,0,0,1.58,9,1.4,1.4,0,0,1-2.34,1.44,35.07,35.07,0,0,1-9.77-24c0-24.27,14.2-36.88,42.21-37.49,26.47,0,42.26,14,42.26,37.49a35.06,35.06,0,0,1-9.76,24A1.42,1.42,0,0,1,109.35,93.15ZM77.91,34.05c-26.16.57-39.43,12.24-39.43,34.68a31.55,31.55,0,0,0,5.13,17.1,29.44,29.44,0,0,1-.22-3.52c0-20.14,11.93-31.06,34.49-31.57,21.64,0,34.54,11.81,34.54,31.57a27.49,27.49,0,0,1-.22,3.52,31.52,31.52,0,0,0,5.13-17.1C117.33,58.3,113.49,34.05,77.91,34.05Z" style="fill:#231815"/><circle cx="95.93" cy="42.02" r="6.37" style="fill:#fff"/><path d="M95.93,49.58A7.56,7.56,0,1,1,103.48,42,7.57,7.57,0,0,1,95.93,49.58Zm0-12.75A5.2,5.2,0,1,0,101.12,42,5.2,5.2,0,0,0,95.93,36.83Z" style="fill:#231815"/><path d="M99.21,41.8a3.43,3.43,0,1,1-3.43-3.59,3.51,3.51,0,0,1,3.43,3.59" style="fill:#231815"/><circle cx="59.93" cy="42.27" r="6.37" style="fill:#fff"/><path d="M59.93,49.83a7.56,7.56,0,1,1,7.55-7.56A7.57,7.57,0,0,1,59.93,49.83Zm0-12.75a5.2,5.2,0,1,0,5.19,5.19A5.2,5.2,0,0,0,59.93,37.08Z" style="fill:#231815"/><path d="M63.21,42.05a3.43,3.43,0,1,1-3.43-3.59,3.51,3.51,0,0,1,3.43,3.59" style="fill:#231815"/><path d="M79.89,42.13a2.39,2.39,0,1,1-2.39-2.5,2.45,2.45,0,0,1,2.39,2.5" style="fill:#231815"/><path d="M80.21,48.79h0a5.18,5.18,0,0,1-1.93-.44,2.71,2.71,0,0,0-1.94-.22,4.73,4.73,0,0,1-4.19-.48,3.74,3.74,0,0,1-1.43-3.18h1.5a2.3,2.3,0,0,0,.82,2,3.25,3.25,0,0,0,2.87.24,4.21,4.21,0,0,1,2.9.26,4,4,0,0,0,1.4.35h0a1.28,1.28,0,0,0,.93-.43,3.71,3.71,0,0,0,.91-2.4h1.5a5.19,5.19,0,0,1-1.36,3.46A2.78,2.78,0,0,1,80.21,48.79Z" style="fill:#231815"/><path d="M114.37,100.51c.09,3.34-3.06,6.13-7,6.23s-7.27-2.52-7.35-5.85,3.06-6.13,7-6.23S114.29,97.18,114.37,100.51Z" style="fill:#fbc600"/><path d="M107.11,107.67c-4.37,0-8-3-8.06-6.76a6.48,6.48,0,0,1,2.31-5A8.79,8.79,0,0,1,107,93.73a9,9,0,0,1,5.74,1.84,6.47,6.47,0,0,1,2.56,4.92h0c.1,3.84-3.46,7.06-7.94,7.18Zm.14-12.08h-.2a6.92,6.92,0,0,0-4.46,1.67,4.62,4.62,0,0,0-1.68,3.6c.07,2.82,2.92,5.06,6.4,5s6.21-2.45,6.13-5.27h0A4.64,4.64,0,0,0,111.58,97,6.94,6.94,0,0,0,107.25,95.59Z" style="fill:#231815"/><path d="M114.41,109.94s-.63.75-7,.83-6.85-.47-6.85-.47c-.61,0-2.24-2.44-3.23-4.76a24.09,24.09,0,0,1-1.46-4.84,2.22,2.22,0,0,1,2.23-2.21s2.58.74,9.26.49,9-1,9-1a2.22,2.22,0,0,1,2.34,2.09,29.71,29.71,0,0,1-1.29,4.91C116.48,107.52,115.06,109.92,114.41,109.94Z" style="fill:#fbc600"/><path d="M106.18,111.71c-4.17,0-5.49-.3-6-.56-1.72-.65-3.68-5.2-3.7-5.25A25.62,25.62,0,0,1,95,100.85s0-.08,0-.13a3.16,3.16,0,0,1,3.13-3.16.86.86,0,0,1,.28,0s2.59.69,9,.45,8.72-.91,8.74-.92a1.09,1.09,0,0,1,.25,0,3.29,3.29,0,0,1,2.27.82,3,3,0,0,1,1,2.18,1,1,0,0,1,0,.17,31.07,31.07,0,0,1-1.34,5.08c-.32.85-1.88,4.88-3.49,5.46-1,.55-3.43.85-7.34.9Zm-5.11-2.2c.19.06,1.41.39,6.36.33s6.24-.55,6.41-.63a1,1,0,0,1,.35-.17,13.26,13.26,0,0,0,2.34-4.35,29.31,29.31,0,0,0,1.24-4.63,1.16,1.16,0,0,0-.4-.76,1.41,1.41,0,0,0-.88-.35,46.24,46.24,0,0,1-9.07,1A37.64,37.64,0,0,1,98,99.43a1.28,1.28,0,0,0-1.21,1.18,24.29,24.29,0,0,0,1.38,4.56,14.1,14.1,0,0,0,2.58,4.22A1,1,0,0,1,101.07,109.51Zm.2.16Zm0,0Zm0,0h0Zm0,0Zm0,0Zm-.21-.16Zm-.48-.13h0Zm13.14,0Zm.44-.27Z" style="fill:#231815"/><path d="M55.23,113.75l-3-8.5-4.49,1.61,3,8.45a2.25,2.25,0,0,0-.91,2.7,2.22,2.22,0,0,0,2.82,1.42A2.16,2.16,0,0,0,54,117.71a2.15,2.15,0,0,0,2.17.45,2.24,2.24,0,0,0,1.29-2.88A2.28,2.28,0,0,0,55.23,113.75Z" style="fill:#fff"/><path d="M51.92,120.55a3.15,3.15,0,0,1-1.42-.34,3.35,3.35,0,0,1-1.63-1.86,3.28,3.28,0,0,1,.68-3.36l-2.78-7.8a1,1,0,0,1,.6-1.27l4.49-1.6a1,1,0,0,1,.76,0,1,1,0,0,1,.51.56l2.81,7.89a3.32,3.32,0,0,1,2.38,4.61,3.07,3.07,0,0,1-1.8,1.68,3.11,3.11,0,0,1-2,0A3.07,3.07,0,0,1,53,120.37,3.12,3.12,0,0,1,51.92,120.55ZM49,107.46,51.66,115a1,1,0,0,1-.43,1.18,1.28,1.28,0,0,0-.49,1.52,1.32,1.32,0,0,0,.66.75,1.09,1.09,0,0,0,.9.06,1.16,1.16,0,0,0,.74-.94,1,1,0,0,1,.65-.77,1,1,0,0,1,1,.19,1.17,1.17,0,0,0,1.17.26,1.21,1.21,0,0,0,.66-.62,1.33,1.33,0,0,0,0-1,1.26,1.26,0,0,0-1.25-.86,1,1,0,0,1-1-.66l-2.7-7.56Z" style="fill:#00101d"/><path d="M56.31,101.34c.56-4,1-9.85-3.06-12.24a4.39,4.39,0,0,0-5.35.66c-.12.1-.35.43-.49.49-.34.14-.91-.08-1.35-.14a6.34,6.34,0,0,0-3.38.45c-2.51.92-4.73,2.86-5.1,5.63-.45,3.37,1.66,6.85,3.77,9.29,1.38,1.6,7.53,5.42,7.53,5.42l5.53.07s1.23-5.15,1.34-6C55.92,103.82,56.13,102.59,56.31,101.34Z" style="fill:#d99131"/><path d="M54.41,112.09h0L48.87,112a1.16,1.16,0,0,1-.58-.17c-.64-.4-6.34-4-7.79-5.64-1.75-2-4.59-6-4-10.18.4-2.89,2.57-5.34,5.83-6.53A7.54,7.54,0,0,1,46.23,89l.48.09.22,0a2.68,2.68,0,0,1,.24-.24,5.54,5.54,0,0,1,6.65-.77c5.08,3,4,10.52,3.6,13.36h0c-.08.6-.18,1.18-.27,1.76s-.2,1.29-.29,1.92c-.12.84-1.23,5.53-1.36,6.06A1.12,1.12,0,0,1,54.41,112.09Zm-5.2-2.31,4.32,0c.46-2,1-4.5,1.11-5,.09-.64.19-1.3.29-2l.27-1.72C55.79,97,56,92,52.68,90.07a3.25,3.25,0,0,0-4,.54l-.05.06a1.93,1.93,0,0,1-.73.61,2.58,2.58,0,0,1-1.65,0l-.3-.06a5.28,5.28,0,0,0-2.83.39c-2.47.91-4.1,2.68-4.38,4.73-.44,3.27,2,6.67,3.51,8.41C43.19,105.89,47.37,108.63,49.21,109.78Zm7.1-8.44h0Z" style="fill:#010000"/><path d="M47.78,90.25c-.68.53-1.72.21-2.45.67a6.46,6.46,0,0,0-1.82,2.32,6.81,6.81,0,0,0-.61,5.55c1.43,3.6,4.21,6.53,6.24,9.78.13.2.91,1.8,1.18,1.82l3.48.23s3.44-10.75,2-16.66C53.72,85.65,47.78,90.24,47.78,90.25Z" style="fill:#edab40"/><path d="M47.55,91.53a.78.78,0,1,1-1-.54A.82.82,0,0,1,47.55,91.53Z" style="fill:#d99131"/><path d="M45.47,91.6a.79.79,0,1,1-1-.54A.83.83,0,0,1,45.47,91.6Z" style="fill:#d99131"/><path d="M46.3,91.38a.5.5,0,1,1-.66-.34A.53.53,0,0,1,46.3,91.38Z" style="fill:#d99131"/><path d="M44.7,92.41a.82.82,0,0,1-.45,1.06.8.8,0,0,1-1-.54.78.78,0,1,1,1.47-.52Z" style="fill:#d99131"/><path d="M43.76,93.8a.78.78,0,1,1-1-.55A.82.82,0,0,1,43.76,93.8Z" style="fill:#d99131"/><path d="M44,98.76a.78.78,0,1,1-1-.55A.82.82,0,0,1,44,98.76Z" style="fill:#d99131"/><path d="M45.61,100.68a.78.78,0,1,1-1-.55A.82.82,0,0,1,45.61,100.68Z" style="fill:#d99131"/><path d="M43.81,95.32a.78.78,0,1,1-1-.54A.82.82,0,0,1,43.81,95.32Z" style="fill:#d99131"/><path d="M43.53,97a.78.78,0,1,1-1-.55A.82.82,0,0,1,43.53,97Z" style="fill:#d99131"/><path d="M46.73,104.2a.81.81,0,0,1-.44,1.07.86.86,0,0,1-.58-1.62A.82.82,0,0,1,46.73,104.2Z" style="fill:#d99131"/><path d="M46.36,103.2a.78.78,0,1,1-1-.54A.82.82,0,0,1,46.36,103.2Z" style="fill:#d99131"/><path d="M47.9,105.82a.78.78,0,1,1-1-.54A.82.82,0,0,1,47.9,105.82Z" style="fill:#d99131"/><path d="M49.22,107.61a.79.79,0,1,1-1.48.53.82.82,0,0,1,.45-1.07A.83.83,0,0,1,49.22,107.61Z" style="fill:#d99131"/><path d="M50.26,109.05a.79.79,0,1,1-1.48.53.79.79,0,1,1,1.48-.53Z" style="fill:#d99131"/><path d="M45.07,94.08a.45.45,0,0,1-.25.59.47.47,0,0,1-.31-.88A.45.45,0,0,1,45.07,94.08Z" style="fill:#d99131"/><path d="M45.69,92.43a.46.46,0,0,1-.25.58.45.45,0,0,1-.56-.3.43.43,0,1,1,.81-.28Z" style="fill:#d99131"/><path d="M44,100.17a.44.44,0,0,1-.24.58.45.45,0,0,1-.56-.3.44.44,0,0,1,.25-.58A.43.43,0,0,1,44,100.17Z" style="fill:#d99131"/><path d="M44.44,96.75a.45.45,0,0,1-.25.59.47.47,0,0,1-.31-.88A.45.45,0,0,1,44.44,96.75Z" style="fill:#d99131"/><path d="M44.27,99.87a.45.45,0,0,1-.25.59.45.45,0,0,1-.56-.3.46.46,0,0,1,.25-.58A.45.45,0,0,1,44.27,99.87Z" style="fill:#d99131"/><path d="M45.1,102a.45.45,0,0,1-.25.59.44.44,0,0,1-.55-.3.45.45,0,0,1,.24-.59A.46.46,0,0,1,45.1,102Z" style="fill:#d99131"/><path d="M47.77,103.76a.46.46,0,0,1-.25.58.47.47,0,1,1,.25-.58Z" style="fill:#d99131"/><path d="M48.54,106.57a.45.45,0,0,1-.24.59.46.46,0,0,1-.56-.3.43.43,0,1,1,.8-.29Z" style="fill:#d99131"/><path d="M51.31,109.66a.43.43,0,1,1-.56-.3A.46.46,0,0,1,51.31,109.66Z" style="fill:#d99131"/><path d="M43.75,95.68a.45.45,0,0,1-.24.59A.46.46,0,0,1,43,96a.44.44,0,0,1,.24-.58A.45.45,0,0,1,43.75,95.68Z" style="fill:#d99131"/><path d="M43.15,97.18a.44.44,0,0,1-.24.58.45.45,0,0,1-.56-.29.46.46,0,0,1,.25-.59A.44.44,0,0,1,43.15,97.18Z" style="fill:#d99131"/></svg>