<svg id="圖層_1" data-name="圖層 1" xmlns="http://www.w3.org/2000/svg" viewBox="0 0 150 150"><title>ms-07</title><path d="M98.51,34.29c-19.25,0-34.9,12.52-34.9,27.9s15.65,27.9,34.9,27.9a43.16,43.16,0,0,0,7.3-.62h.33a1.81,1.81,0,0,1,.23,0l.12,0a.86.86,0,0,1,.21.07l.13,0a1.18,1.18,0,0,1,.19.11l.13.08.19.17.07.06a108.17,108.17,0,0,0,9.13,8.77,119.8,119.8,0,0,0,1.39-12,2,2,0,0,1,.93-2c9.11-5.25,14.55-13.72,14.55-22.65C133.41,46.81,117.75,34.29,98.51,34.29Z" style="fill:#fff;stroke:#231815;stroke-linecap:round;stroke-linejoin:round;stroke-width:2.92612px"/><path d="M28.27,112.84a1.94,1.94,0,0,1,1,2,114.47,114.47,0,0,0,1.46,12A109,109,0,0,0,40.35,118l.08-.06.2-.17.14-.08.19-.11.15,0a.81.81,0,0,1,.22-.07l.13,0a2,2,0,0,1,.24,0h.35a48,48,0,0,0,7.71.62c20.32,0,36.85-12.52,36.85-27.9s-16.53-27.9-36.85-27.9S12.91,74.81,12.91,90.19C12.91,99.12,18.65,107.59,28.27,112.84Z" style="fill:#fff"/><path d="M108.92,63.46a2,2,0,0,1,2.75,0,1.94,1.94,0,1,1-2.75,0ZM96,63.46a2,2,0,0,1,2.74,0,1.94,1.94,0,1,1-2.74,0Zm-12.93,0a2,2,0,0,1,2.74,0,1.94,1.94,0,0,1,0,2.74,2,2,0,0,1-1.38.57,2,2,0,0,1-1.37-.57,1.93,1.93,0,0,1,0-2.74Z" style="fill:#fff"/><path d="M113.31,123.1a2,2,0,0,0-.57,1.38,2,2,0,0,0,.57,1.37,1.91,1.91,0,0,0,1.36.57,1.93,1.93,0,0,0,1.94-1.94,2,2,0,0,0-.56-1.38A2,2,0,0,0,113.31,123.1Z" style="fill:#231815"/><path d="M88.9,131.27a1.93,1.93,0,0,0,1.93-1.94v-2.91h2.91a1.94,1.94,0,1,0,0-3.88H90.83v-2.91a1.94,1.94,0,1,0-3.87,0v2.91H84.05a1.94,1.94,0,0,0,0,3.88H87v2.91A1.94,1.94,0,0,0,88.9,131.27Z" style="fill:#231815"/><path d="M68.13,132.8a2,2,0,0,0-.57,1.38,1.91,1.91,0,0,0,.57,1.36,1.91,1.91,0,0,0,2.74,0,1.91,1.91,0,0,0,.57-1.36,2,2,0,0,0-.57-1.38A2,2,0,0,0,68.13,132.8Z" style="fill:#231815"/><path d="M49.76,62.29c20.32,0,36.85,12.52,36.85,27.9s-16.53,27.9-36.85,27.9a48,48,0,0,1-7.71-.62H41.7a2,2,0,0,0-.24,0l-.13,0a.81.81,0,0,0-.22.07l-.15,0-.19.11-.14.08-.2.17-.08.06a109,109,0,0,1-9.64,8.77,114.47,114.47,0,0,1-1.46-12,1.94,1.94,0,0,0-1-2c-9.62-5.25-15.36-13.72-15.36-22.65C12.91,74.81,29.44,62.29,49.76,62.29Z" style="fill:#fff;stroke:#231815;stroke-linecap:round;stroke-linejoin:round;stroke-width:2.92612px"/><path d="M11,22.61h2.91v2.91a1.94,1.94,0,0,0,3.88,0V22.61h2.91a1.94,1.94,0,0,0,0-3.88H17.76V15.82a1.94,1.94,0,0,0-3.88,0v2.91H11a1.94,1.94,0,1,0,0,3.88Z" style="fill:#231815"/><path d="M48.39,29a1.91,1.91,0,0,0,0,2.74,1.92,1.92,0,0,0,1.36.56,1.91,1.91,0,0,0,1.94-1.93A2,2,0,0,0,51.13,29,2,2,0,0,0,48.39,29Z" style="fill:#231815"/><path d="M53.24,14.45a1.91,1.91,0,0,0,0,2.74,1.94,1.94,0,0,0,1.36.58A2,2,0,0,0,56,17.19a2,2,0,0,0,0-2.74A2,2,0,0,0,53.24,14.45Z" style="fill:#231815"/><path d="M97.35,66.77a1.94,1.94,0,0,0,1.37-3.31,2,2,0,0,0-2.74,0,1.94,1.94,0,0,0,1.37,3.31Z" style="fill:#231815"/><path d="M84.42,66.77a2,2,0,0,0,1.38-.57,1.94,1.94,0,0,0,0-2.74,2,2,0,0,0-2.74,0,1.93,1.93,0,0,0,0,2.74A2,2,0,0,0,84.42,66.77Z" style="fill:#231815"/><path d="M110.3,66.77a1.94,1.94,0,0,0,1.37-3.31,2,2,0,0,0-2.75,0,1.94,1.94,0,0,0,1.38,3.31Z" style="fill:#231815"/><path d="M58.51,112.29H40.56a8.71,8.71,0,0,1,9-8.41C54.49,103.88,58.51,107.65,58.51,112.29Z" style="fill:#00b7ee"/><path d="M58.51,112.88a.59.59,0,0,1-.6-.59c0-4.31-3.76-7.81-8.38-7.81s-8.38,3.5-8.38,7.81a.58.58,0,0,1-.59.59.59.59,0,0,1-.6-.59c0-5,4.3-9,9.57-9s9.57,4,9.57,9A.59.59,0,0,1,58.51,112.88Z" style="fill:#231815"/><path d="M67.33,89.93c0-8.7-7.83-15.76-17.5-15.76s-17.5,7.06-17.5,15.76c0,8.14,6.85,12.23,15.65,13.06v2a2.16,2.16,0,0,0,3.7,0v-2C60.48,102.16,67.33,98.07,67.33,89.93Z" style="fill:#fbded7"/><path d="M49.82,106.7h0a3.18,3.18,0,0,1-2.33-1.33.6.6,0,0,1-.11-.34v-1.5c-10-1.09-15.64-6-15.64-13.6,0-9,8.11-16.35,18.09-16.35s18.1,7.33,18.1,16.35c0,7.57-5.7,12.51-15.65,13.6V105a.59.59,0,0,1-.14.38A3.09,3.09,0,0,1,49.82,106.7Zm-1.25-1.88a1.86,1.86,0,0,0,1.25.69h0a1.83,1.83,0,0,0,1.27-.7V103a.6.6,0,0,1,.54-.59c9.6-.91,15.11-5.45,15.11-12.47,0-8.36-7.59-15.16-16.91-15.16s-16.91,6.8-16.91,15.16c0,7,5.51,11.56,15.12,12.47a.6.6,0,0,1,.53.59Z" style="fill:#231815"/><path d="M55.93,75.93a87.08,87.08,0,0,1-23.4,10.23S31.05,75.79,40.34,70.6c12-6.7,17.79,2,17.79,2s3.13-.7,6.46,4a15.32,15.32,0,0,1,2.55,10.09S62.66,86.62,55.93,75.93Z" style="fill:#fbded7;stroke:#231815;stroke-linecap:round;stroke-linejoin:round;stroke-width:1.4173200000000001px"/><path d="M67.14,87.22c-.19,0-4.74-.12-11.39-10.47a90.26,90.26,0,0,1-23.07,10,.58.58,0,0,1-.48-.08.57.57,0,0,1-.26-.41c0-.11-1.42-10.83,8.11-16.16a18.53,18.53,0,0,1,8.89-2.62A12,12,0,0,1,58.41,72h.19c1,0,3.73.42,6.47,4.24a15.85,15.85,0,0,1,2.66,10.53A.59.59,0,0,1,67.14,87.22Z" style="fill:#231815"/><path d="M58.62,88.7a2.09,2.09,0,1,1-2.09-2.08A2.1,2.1,0,0,1,58.62,88.7Z" style="fill:#231815"/><path d="M44.62,88.7a2.08,2.08,0,1,1-2.08-2.08A2.09,2.09,0,0,1,44.62,88.7Z" style="fill:#231815"/><path d="M29.25,89.12A2.8,2.8,0,0,0,30.39,93c1,.46,3-.23,3-.23v-3.6S30.28,87.58,29.25,89.12Z" style="fill:#fbded7"/><path d="M70.38,89.12c-1-1.54-4.17,0-4.17,0v3.6s2.06.69,3,.23A2.8,2.8,0,0,0,70.38,89.12Z" style="fill:#fbded7"/><path d="M33.16,92.92a3,3,0,0,1-2.34,1.15,3.13,3.13,0,0,1,0-6.25,3,3,0,0,1,2.5,1.37" style="fill:#fbded7;stroke:#231815;stroke-linecap:round;stroke-linejoin:round;stroke-width:1.4173200000000001px"/><path d="M67,92.53a3.12,3.12,0,1,0-.16-3.74" style="fill:#fbded7;stroke:#231815;stroke-linecap:round;stroke-linejoin:round;stroke-width:1.4173200000000001px"/><path d="M55.47,93.24c0,2.7-2.58,4.88-5.75,4.88S44,95.94,44,93.24" style="fill:none;stroke:#231815;stroke-linecap:round;stroke-linejoin:round;stroke-width:1.51642px"/><path d="M28.3,49.06A5.05,5.05,0,0,1,23.13,54a4.94,4.94,0,1,1,0-9.87A5.05,5.05,0,0,1,28.3,49.06Z" style="fill:#e96bb0;stroke:#231815;stroke-linecap:round;stroke-linejoin:round;stroke-width:2.92612px"/><path d="M141,111.72a5.18,5.18,0,1,1-5.17-4.93A5.06,5.06,0,0,1,141,111.72Z" style="fill:#e96bb0;stroke:#231815;stroke-linecap:round;stroke-linejoin:round;stroke-width:2.92612px"/></svg>