<svg id="圖層_1" data-name="圖層 1" xmlns="http://www.w3.org/2000/svg" viewBox="0 0 150 150"><title>ms-03</title><path d="M12.63,106.71a1.93,1.93,0,0,0-.57,1.37,1.94,1.94,0,1,0,3.32-1.37A2,2,0,0,0,12.63,106.71Z" style="fill:#231815"/><path d="M134.63,64a1.93,1.93,0,0,0-.57,1.37A1.94,1.94,0,1,0,137.38,64,2,2,0,0,0,134.63,64Z" style="fill:#231815"/><path d="M26.12,85.29H23.21V82.38a1.94,1.94,0,0,0-3.88,0v2.91h-2.9a1.94,1.94,0,0,0,0,3.88h2.9v2.91a1.94,1.94,0,0,0,3.88,0V89.17h2.91a1.94,1.94,0,1,0,0-3.88Z" style="fill:#231815"/><path d="M71.84,87.73A25.1,25.1,0,0,1,85.46,90c3.72,1.88,6.82,5.51,5.45,10-.5,1.67-2.66,2.54-4.16,3.17-3.51,1.46-8,.55-11.74.67-4.81.15-12.76,0-14.59-5.74C58.65,92.61,67.47,88.17,71.84,87.73Z" style="fill:#f8dcd5"/><path d="M87,96.29c.81-.25,14-2,14.62,1.43.83,4.89-9.44,5.44-12.72,5.2" style="fill:#fbded7;stroke:#231815;stroke-linecap:round;stroke-linejoin:round;stroke-width:2.92612px"/><path d="M66.69,95.83c-.75-.36-13.19-4-14.24-.65-1.48,4.73,8.3,6.72,11.48,6.95" style="fill:#fbded7;stroke:#231815;stroke-linecap:round;stroke-linejoin:round;stroke-width:2.92612px"/><path d="M89.91,101.05c2,5.63,1.5,5.17,1,7.09-1.05,4.28-3.75,6.85-7,9.64s-6.44,3.3-10.72,2.13a13.43,13.43,0,0,1-5.5-2.93c-1.5-1.35-2.13-3-3.27-4.55-3.15-4.26-3.63-6.38-1.25-11.75" style="fill:#fbded7;stroke:#231815;stroke-linecap:round;stroke-linejoin:round;stroke-width:2.92612px"/><path d="M82,122.31a21,21,0,0,1-16.09-2.44c-5.22-3.36-5.24-7.25-5.26-11.87,0-2.84,3.52-2.93,6.9-3,6-.06,11.78.29,17.77.39,4.06.06,6.38.37,6.63,1.56a13.44,13.44,0,0,1-10,15.32" style="fill:#fff;stroke:#231815;stroke-linecap:round;stroke-linejoin:round;stroke-width:2.92612px"/><path d="M98.53,119.3a7,7,0,0,1-1.35,4c-1.39,2.19-3.74-.09-3.89-.06-2.35.44-6.54.27-8.15-.69-2.78-1.68.26-5.73,2.15-7.62s3-1.47,4.76.39a8.5,8.5,0,0,0,2.34,2.23.93.93,0,0,0,1.31-.36C97,115.62,98.65,117.46,98.53,119.3Z" style="fill:#fbded7;stroke:#231815;stroke-linecap:round;stroke-linejoin:round;stroke-width:2.82365px"/><path d="M53.16,119.3a6.64,6.64,0,0,0,1.48,4c1.53,2.19,4.12-.09,4.28-.06,2.58.44,7.18.27,9-.69,3.06-1.68-.28-5.73-2.36-7.62s-3.33-1.47-5.23.39a8.9,8.9,0,0,1-2.57,2.23,1.08,1.08,0,0,1-1.44-.36C54.85,115.62,53,117.46,53.16,119.3Z" style="fill:#fbded7;stroke:#231815;stroke-linecap:round;stroke-linejoin:round;stroke-width:2.90572px"/><path d="M118.87,68.28A5,5,0,0,0,113,66.83l-.06-.33c.07-.84.12-1.68.12-2.53,0-17.48-16-31.66-35.82-31.66C58,32.31,42.33,45.7,41.46,62.5c-4.82-1-9.86,5.82-5.75,10.43a4.61,4.61,0,0,0,5,1.39A17.8,17.8,0,0,0,41,77.37c4.69,24.24,57.8,25.72,68.47,9.09a24.44,24.44,0,0,0,3.24-8C117.38,79.41,122.92,72.74,118.87,68.28Z" style="fill:#fbded7;stroke:#231815;stroke-linecap:round;stroke-linejoin:round;stroke-width:2.92612px"/><path d="M103.89,68.51a4.38,4.38,0,1,1-4.38-4.58,4.49,4.49,0,0,1,4.38,4.58" style="fill:#231815"/><path d="M59.92,68.51a4.38,4.38,0,1,1-4.38-4.58,4.48,4.48,0,0,1,4.38,4.58" style="fill:#231815"/><path d="M78.35,37c0-3.73.09-7.73,2-11.21" style="fill:none;stroke:#231815;stroke-linecap:round;stroke-linejoin:round;stroke-width:2.92612px"/><path d="M73,37.85c-1.54-3.39-3.16-7-2.92-11" style="fill:none;stroke:#231815;stroke-linecap:round;stroke-linejoin:round;stroke-width:2.92612px"/><path d="M84.66,37.78c.83-3.64,1.76-7.53,4.35-10.52" style="fill:none;stroke:#231815;stroke-linecap:round;stroke-linejoin:round;stroke-width:2.92612px"/><path d="M87.41,76.68c0,5-4.82,9.12-10.75,9.12s-10.75-4.08-10.75-9.12" style="fill:none;stroke:#231815;stroke-linecap:round;stroke-linejoin:round;stroke-width:2.8346500000000003px"/><path d="M133.08,49.8a5.18,5.18,0,1,1-5.17-4.94A5.07,5.07,0,0,1,133.08,49.8Z" style="fill:#ffb71b;stroke:#231815;stroke-linecap:round;stroke-linejoin:round;stroke-width:2.92612px"/><path d="M37.83,109.8a5.18,5.18,0,1,1-5.17-4.94A5.06,5.06,0,0,1,37.83,109.8Z" style="fill:#e96bb0;stroke:#231815;stroke-linecap:round;stroke-linejoin:round;stroke-width:2.92612px"/></svg>