<svg id="圖層_1" data-name="圖層 1" xmlns="http://www.w3.org/2000/svg" viewBox="0 0 150 150"><title>ms-19</title><path d="M100,62.89a1.93,1.93,0,0,0-.57,1.37,2,2,0,0,0,.57,1.38,2,2,0,0,0,1.37.56,2,2,0,0,0,1.38-.56,2,2,0,0,0,.56-1.38A1.94,1.94,0,0,0,100,62.89Z" style="fill:#231815"/><path d="M113.47,41.47h-2.91V38.56a1.94,1.94,0,0,0-3.88,0v2.91h-2.9a1.94,1.94,0,1,0,0,3.88h2.9v2.91a1.94,1.94,0,0,0,3.88,0V45.35h2.91a1.94,1.94,0,0,0,0-3.88Z" style="fill:#231815"/><path d="M125.18,66A5.18,5.18,0,1,1,120,61,5.06,5.06,0,0,1,125.18,66Z" style="fill:#e96bb0"/><path d="M120,72.38a6.4,6.4,0,1,1,6.63-6.4A6.53,6.53,0,0,1,120,72.38Zm0-9.87A3.48,3.48,0,1,0,123.72,66,3.59,3.59,0,0,0,120,62.51Z" style="fill:#231815"/><path d="M23.93,107.86a1.91,1.91,0,0,0-.57,1.37,1.94,1.94,0,1,0,3.88,0,2,2,0,0,0-.57-1.37A2,2,0,0,0,23.93,107.86Z" style="fill:#231815"/><path d="M37.42,86.44H34.51V83.53a1.94,1.94,0,1,0-3.88,0v2.91H27.72a1.94,1.94,0,1,0,0,3.87h2.91v2.91a1.94,1.94,0,1,0,3.88,0V90.31h2.91a1.94,1.94,0,1,0,0-3.87Z" style="fill:#231815"/><ellipse cx="51.18" cy="106.98" rx="5.17" ry="4.94" style="fill:#ffb71b"/><path d="M51.18,113.38a6.4,6.4,0,1,1,6.63-6.4A6.53,6.53,0,0,1,51.18,113.38Zm0-9.87A3.48,3.48,0,1,0,54.89,107,3.59,3.59,0,0,0,51.18,103.51Z" style="fill:#231815"/><path d="M106.05,106.7,97.4,98.05l4.29-12.25L73.74,57.86,77,54.6a1.66,1.66,0,0,0-2.35-2.34L71.4,55.51l-2.07,2.06-7.28-7.28,2.44-2.44a1.66,1.66,0,1,0-2.35-2.35l-2.43,2.44L52.3,55.35l-9.76,9.76a1.66,1.66,0,0,0,0,2.35,1.64,1.64,0,0,0,1.17.48,1.66,1.66,0,0,0,1.17-.48L47.3,65l7.28,7.29-5.32,5.31A1.66,1.66,0,0,0,51.61,80l3.25-3.26,28,28,12.24-4.29,8.66,8.65a1.64,1.64,0,0,0,2.34,0,1.65,1.65,0,0,0,0-2.34m-56.41-44,5-5,5.05-5L67,59.92l-2.63,2.63L56.93,70Zm7.57,11.69L67.34,64.26,71.4,60.2l3.73,3.73-3.52,3.52a1.11,1.11,0,0,0,.78,1.89,1.1,1.1,0,0,0,.78-.33l3.52-3.52,4.12,4.12-3.52,3.52a1.12,1.12,0,0,0,0,1.57,1.13,1.13,0,0,0,.78.32,1.1,1.1,0,0,0,.78-.32l3.52-3.52L86.5,75.3,83,78.82a1.1,1.1,0,0,0,.79,1.88,1.09,1.09,0,0,0,.78-.32l3.52-3.52L92.18,81,88.66,84.5a1.1,1.1,0,0,0,0,1.56,1.08,1.08,0,0,0,.78.33,1.1,1.1,0,0,0,.78-.33l3.52-3.52,4.13,4.13L94.19,97.18l-10.51,3.68Z" style="fill:#231815"/></svg>