<svg id="圖層_1" data-name="圖層 1" xmlns="http://www.w3.org/2000/svg" viewBox="0 0 150 150"><title>ms-18</title><path d="M125.47,75.05a1.93,1.93,0,0,0,1.87,2l4.95.16a1.94,1.94,0,1,0,.12-3.88l-4.94-.16A1.94,1.94,0,0,0,125.47,75.05Z" style="fill:#231815"/><path d="M117.18,102.38a2,2,0,0,0-.29,1,2,2,0,0,0,.91,1.71l4.2,2.61a1.94,1.94,0,1,0,2-3.29l-4.2-2.61A1.93,1.93,0,0,0,117.18,102.38Z" style="fill:#231815"/><path d="M122.7,89.28a1.53,1.53,0,0,0-.07.47A1.94,1.94,0,0,0,124,91.68l5.15,1.44a1.94,1.94,0,0,0,1.05-3.73l-5.15-1.45A1.94,1.94,0,0,0,122.7,89.28Z" style="fill:#231815"/><path d="M119.77,44.61a1.94,1.94,0,0,0-1,1.65,1.88,1.88,0,0,0,.23,1,1.93,1.93,0,0,0,2.62.8L126,45.7a1.94,1.94,0,1,0-1.83-3.42Z" style="fill:#231815"/><path d="M125.12,58.36a1.94,1.94,0,0,0-1.53,1.83,1.87,1.87,0,0,0,0,.47,1.94,1.94,0,0,0,2.3,1.5l5.23-1.11a1.94,1.94,0,0,0-.81-3.8Z" style="fill:#231815"/><path d="M114.18,75.63a6.43,6.43,0,1,1-6.42-6.08A6.27,6.27,0,0,1,114.18,75.63Z" style="fill:#ffb71b"/><path d="M107.76,83.18a7.55,7.55,0,1,1,7.88-7.55A7.73,7.73,0,0,1,107.76,83.18Zm0-12.17a4.63,4.63,0,1,0,4.95,4.62A4.81,4.81,0,0,0,107.76,71Z" style="fill:#231815"/><path d="M30,73.8a6.25,6.25,0,0,1-6.42,6.08,6.09,6.09,0,1,1,0-12.16A6.25,6.25,0,0,1,30,73.8Z" style="fill:#ffb71b"/><path d="M23.59,81.34a7.55,7.55,0,1,1,0-15.09,7.55,7.55,0,1,1,0,15.09Zm0-12.16a4.63,4.63,0,1,0,0,9.24,4.63,4.63,0,1,0,0-9.24Z" style="fill:#231815"/><path d="M90.88,80a10.32,10.32,0,0,0-8,3.8h16A10.32,10.32,0,0,0,90.88,80Z" style="fill:none"/><path d="M37.79,80a10.32,10.32,0,0,0-8,3.8h16A10.32,10.32,0,0,0,37.79,80Z" style="fill:none"/><path d="M112.61,78.6a2.87,2.87,0,0,1,0-.31c-4.33-1.3-4.37-5.4-4-7.91-2.5-2.79-5.57-4.54-7.42-4.54H98.65C95.92,59.05,86,48.9,82.65,48.9H57.41c-3,0-13,9.57-17.85,16.94h-8a10.56,10.56,0,0,0-7.25,2.85c-.45,6.13-2.92,7.89-5,8.26-.18.55-.35,1.1-.5,1.65a30.85,30.85,0,0,0-.89,5.16c-.07.76-.11,1.51-.11,2.21,0,6,6,7.7,10.4,8.15a10.34,10.34,0,1,1,19.16.16h34a10.14,10.14,0,0,1-.8-4,10.34,10.34,0,1,1,19.89,4h.76c3,0,9-4.46,10.9-10.52a12.36,12.36,0,0,0,.6-3.7A14.13,14.13,0,0,0,112.61,78.6Z" style="fill:#ef90b9"/><path d="M101.19,95.74h-.76a1.46,1.46,0,0,1-1.35-2,8.92,8.92,0,0,0,.68-3.42,8.88,8.88,0,1,0-17.07,3.42,1.48,1.48,0,0,1-.14,1.37,1.45,1.45,0,0,1-1.21.65h-34a1.46,1.46,0,0,1-1.35-2,8.92,8.92,0,0,0,.68-3.42,8.91,8.91,0,0,0-8.88-8.88,8.86,8.86,0,0,0-6.88,3.27,8.86,8.86,0,0,0-1.37,8.89,1.47,1.47,0,0,1-1.51,2C20.48,94.8,16.32,91.39,16.32,86c0-.67,0-1.41.11-2.33a31.72,31.72,0,0,1,.94-5.41c.15-.58.33-1.16.52-1.74a1.45,1.45,0,0,1,1.13-1c2.75-.48,3.58-4,3.8-6.93a1.41,1.41,0,0,1,.47-1,12,12,0,0,1,8.23-3.22h7.26c4.65-6.81,14.64-16.94,18.63-16.94H82.65c4.29,0,13.75,10.12,17,16.94h1.58c2.39,0,5.81,2,8.51,5a1.5,1.5,0,0,1,.35,1.22c-.57,3.41.41,5.52,2.93,6.27a1.46,1.46,0,0,1,1,1.19l0,.28s0,0,0,.07a15.32,15.32,0,0,1,.1,1.63,13.66,13.66,0,0,1-.67,4.14C111.48,90.59,105.12,95.74,101.19,95.74ZM49.33,92.82h30a11.81,11.81,0,1,1,23.13-.3,15.93,15.93,0,0,0,8.22-9.2,10.72,10.72,0,0,0,.53-3.26c0-.23,0-.46,0-.7-3.15-1.36-4.63-4.38-4.15-8.5-2.17-2.24-4.63-3.56-5.87-3.56H98.65a1.47,1.47,0,0,1-1.36-.91c-2.79-6.94-12.44-16-14.64-16H57.41C55.49,50.4,46,58.6,40.79,66.64a1.47,1.47,0,0,1-1.23.66h-8a9,9,0,0,0-5.84,2.11c-.58,5.84-3,8-5.25,8.76-.09.27-.16.54-.23.81a27.75,27.75,0,0,0-.85,4.9c-.07.85-.11,1.51-.11,2.09,0,3.33,2.33,5.47,6.92,6.38a11.8,11.8,0,1,1,23.43-2A12.38,12.38,0,0,1,49.33,92.82Z" style="fill:#231815"/><path d="M47.26,90.21a9.51,9.51,0,1,1-9.51-9.51A9.5,9.5,0,0,1,47.26,90.21Z" style="fill:#231815"/><path d="M37.75,101.13A10.93,10.93,0,1,1,48.68,90.21,10.93,10.93,0,0,1,37.75,101.13Zm0-19a8.09,8.09,0,1,0,8.09,8.09A8.1,8.1,0,0,0,37.75,82.12Z" style="fill:#231815"/><path d="M43.93,90.21A6.18,6.18,0,1,1,37.75,84,6.18,6.18,0,0,1,43.93,90.21Z" style="fill:#cccdcd"/><path d="M40,90.21A2.23,2.23,0,1,1,37.75,88,2.23,2.23,0,0,1,40,90.21Z" style="fill:#231815"/><path d="M98.85,95.37A9.51,9.51,0,1,1,96,82.23,9.49,9.49,0,0,1,98.85,95.37Z" style="fill:#231815"/><path d="M90.86,101.13a10.81,10.81,0,0,1-5.92-1.76,10.92,10.92,0,1,1,15.11-3.23h0A10.92,10.92,0,0,1,90.86,101.13Zm0-19A8.08,8.08,0,1,0,97.66,94.6h0a8.09,8.09,0,0,0-6.77-12.48Z" style="fill:#231815"/><path d="M96.06,93.57A6.18,6.18,0,1,1,94.23,85,6.18,6.18,0,0,1,96.06,93.57Z" style="fill:#cccdcd"/><path d="M92.75,91.42a2.23,2.23,0,1,1-.66-3.08A2.24,2.24,0,0,1,92.75,91.42Z" style="fill:#231815"/><path d="M59.17,54.18c-2,0-8.72,6.4-11.93,11.33H66.37V54.18Z" style="fill:#a7dcf7"/><path d="M66.37,67H47.24A1.44,1.44,0,0,1,46,66.2,1.43,1.43,0,0,1,46,64.71c2.74-4.21,10-12,13.15-12h7.2a1.46,1.46,0,0,1,1.46,1.46V65.51A1.47,1.47,0,0,1,66.37,67ZM50.1,64H64.9v-8.4H59.2C58,55.86,53.48,59.73,50.1,64Z" style="fill:#231815"/><path d="M91,65.51C89.17,61,82.57,54.18,80.3,54.18H71.87V65.51Z" style="fill:#a7dcf7"/><path d="M91,67H71.87a1.46,1.46,0,0,1-1.46-1.46V54.18a1.46,1.46,0,0,1,1.46-1.46H80.3c3.24,0,10.15,7.52,12,12.24a1.43,1.43,0,0,1-.14,1.36A1.45,1.45,0,0,1,91,67ZM73.34,64H88.61c-2.43-4-7.06-8.26-8.33-8.4H73.34Z" style="fill:#231815"/></svg>