<svg id="圖層_1" data-name="圖層 1" xmlns="http://www.w3.org/2000/svg" viewBox="0 0 150 150"><title>ms-10</title><path d="M117.17,115.53a186.78,186.78,0,0,0,10.5-26.89,136.15,136.15,0,0,1-26,2.63A178,178,0,0,0,117.17,115.53Z" style="fill:#f5d76e"/><path d="M61,28.5A182.72,182.72,0,0,0,73.9,54.07,183.76,183.76,0,0,0,86.77,28.55q-6.31.57-12.66.58C69.75,29.13,65.38,28.91,61,28.5Z" style="fill:#e26a6a"/><path d="M27.24,21.18l-.2-.07Q22.81,19.67,18.69,18a187,187,0,0,0,5.06,28.54A178.58,178.58,0,0,0,43.69,25.8q-7.12-1.56-14.18-3.87C28.75,21.68,28,21.44,27.24,21.18Z" style="fill:#e26a6a"/><path d="M121.72,47.21a186.18,186.18,0,0,0,5.44-28.43,144.92,144.92,0,0,1-25,7.51A179.43,179.43,0,0,0,121.72,47.21Z" style="fill:#e26a6a"/><path d="M114,72.69a3.38,3.38,0,1,0-3.38,3.41A3.41,3.41,0,0,0,114,72.69Z" style="fill:#f5d76e"/><path d="M48.74,50.64a3.38,3.38,0,1,0-3.37,3.42A3.39,3.39,0,0,0,48.74,50.64Z" style="fill:#f5d76e"/><path d="M68.91,113.47A182.82,182.82,0,0,0,86.32,90.55a146.21,146.21,0,0,1-25.47-4.77A184.4,184.4,0,0,0,68.91,113.47Z" style="fill:#f5d76e"/><path d="M21.18,67.9A186.79,186.79,0,0,0,21,96.79,178.39,178.39,0,0,0,44.41,80.05,144.72,144.72,0,0,1,23.8,69.46C22.93,69,22.05,68.43,21.18,67.9Z" style="fill:#f5d76e"/><path d="M99.31,129.14a3.42,3.42,0,1,0,3.37,3.42A3.41,3.41,0,0,0,99.31,129.14Z" style="fill:#e26a6a"/><path d="M87.51,74.78a1.48,1.48,0,0,0-.45,1.06,1.52,1.52,0,0,0,2.59,1.08,1.55,1.55,0,0,0,.44-1.08,1.52,1.52,0,0,0-.44-1.06A1.56,1.56,0,0,0,87.51,74.78Z" style="fill:#323232"/><path d="M82.53,120.7a1.54,1.54,0,0,0-.44,1.07,1.52,1.52,0,0,0,.44,1.07,1.57,1.57,0,0,0,1.08.45,1.55,1.55,0,0,0,1.07-.45,1.52,1.52,0,0,0,.44-1.07,1.54,1.54,0,0,0-.44-1.07A1.59,1.59,0,0,0,82.53,120.7Z" style="fill:#323232"/><path d="M52.7,115.33H49.33v-3.41a1.52,1.52,0,1,0-3,0v3.41H42.92a1.52,1.52,0,1,0,0,3H46.3v3.41a1.52,1.52,0,1,0,3,0v-3.41H52.7a1.52,1.52,0,1,0,0-3Z" style="fill:#323232"/><path d="M32.07,120.7a1.55,1.55,0,0,0-.45,1.07,1.53,1.53,0,0,0,.45,1.07,1.49,1.49,0,0,0,1.07.45,1.52,1.52,0,0,0,1.51-1.52,1.54,1.54,0,0,0-.44-1.07A1.57,1.57,0,0,0,32.07,120.7Z" style="fill:#323232"/><path d="M37,105.92a1.5,1.5,0,0,0,0,2.14,1.52,1.52,0,0,0,2.14,0,1.52,1.52,0,0,0,0-2.14A1.55,1.55,0,0,0,37,105.92Z" style="fill:#323232"/><path d="M95.91,46.54a1.51,1.51,0,0,0-1.51,1.51v3.41H91a1.52,1.52,0,0,0,0,3H94.4V57.9a1.52,1.52,0,1,0,3,0V54.49h3.38a1.52,1.52,0,0,0,0-3H97.43V48.05A1.51,1.51,0,0,0,95.91,46.54Z" style="fill:#323232"/><path d="M117,72.69a6.41,6.41,0,1,0-6.41,6.44A6.44,6.44,0,0,0,117,72.69Zm-9.79,0a3.38,3.38,0,1,1,3.38,3.41A3.41,3.41,0,0,1,107.21,72.69Z" style="fill:#323232"/><path d="M56.22,61.57a1.55,1.55,0,0,0,.45-1.07,1.52,1.52,0,1,0-3,0,1.54,1.54,0,0,0,.44,1.07,1.52,1.52,0,0,0,2.14,0Z" style="fill:#323232"/><path d="M51.77,50.64a6.41,6.41,0,1,0-6.4,6.44A6.43,6.43,0,0,0,51.77,50.64Zm-9.78,0a3.38,3.38,0,1,1,3.38,3.42A3.4,3.4,0,0,1,42,50.64Z" style="fill:#323232"/><path d="M99.31,126.12a6.44,6.44,0,1,0,6.4,6.44A6.43,6.43,0,0,0,99.31,126.12Zm0,9.85a3.42,3.42,0,1,1,3.37-3.41A3.4,3.4,0,0,1,99.31,136Z" style="fill:#323232"/><path d="M136.81,11.16c-2.79,1.38-5.6,2.65-8.43,3.84h0A141.73,141.73,0,0,1,99,23.64a1.49,1.49,0,0,0-.63.28c-2.88.52-5.76.93-8.66,1.27a1.38,1.38,0,0,0-.73-.11,142.84,142.84,0,0,1-30.24,0,1.55,1.55,0,0,0-.61.07q-5.49-.63-11-1.71a1.44,1.44,0,0,0-.45-.17A143.12,143.12,0,0,1,30,18.9a152.27,152.27,0,0,1-16.83-6.7,1.51,1.51,0,1,0-1.29,2.74c1.22.57,2.44,1.13,3.66,1.66a189.62,189.62,0,0,0,5.92,33.05,1.5,1.5,0,0,0,1,1.05,1.62,1.62,0,0,0,.44.07,1.52,1.52,0,0,0,1-.37A182.35,182.35,0,0,0,47,26.49q5.28,1,10.6,1.66a186.38,186.38,0,0,0,15,29.62,1.51,1.51,0,0,0,1.28.71,1.52,1.52,0,0,0,1.29-.71,186.57,186.57,0,0,0,15-29.57q4.34-.49,8.64-1.27A182.16,182.16,0,0,0,121.51,51.1a1.53,1.53,0,0,0,2.47-.71,189.91,189.91,0,0,0,6.36-32.92q3.93-1.68,7.82-3.6a1.51,1.51,0,0,0-1.35-2.71ZM23.75,46.51A187,187,0,0,1,18.69,18q4.13,1.7,8.35,3.14l.2.07c.75.26,1.51.5,2.27.75q7.05,2.3,14.18,3.87A178.58,178.58,0,0,1,23.75,46.51ZM73.9,54.07A182.72,182.72,0,0,1,61,28.5c4.36.41,8.73.63,13.09.63s8.45-.2,12.66-.58A183.76,183.76,0,0,1,73.9,54.07Zm47.82-6.86a179.43,179.43,0,0,1-19.58-20.92,144.92,144.92,0,0,0,25-7.51A186.18,186.18,0,0,1,121.72,47.21Z" style="fill:#323232"/><path d="M137.07,83.28q-3.54,1-7.13,1.79a1.35,1.35,0,0,0-.4,0,142.52,142.52,0,0,1-29.41,3.08h-1a1.48,1.48,0,0,0-.35,0C74.09,87.82,49.12,80.63,25.57,67c-1.62-1-3.23-2-4.81-3.09a1.5,1.5,0,0,0-.73-.26q-3.34-2.1-6.65-4.38a1.52,1.52,0,0,0-1.73,2.49c2.21,1.53,4.42,3,6.66,4.39a190.1,190.1,0,0,0-.17,33.33,1.53,1.53,0,0,0,.81,1.21,1.45,1.45,0,0,0,.7.17,1.5,1.5,0,0,0,.77-.2A180.6,180.6,0,0,0,47.86,81.08q4.8,1.86,9.64,3.38A187.59,187.59,0,0,0,67,116.87a1.52,1.52,0,0,0,1.14.93,1.27,1.27,0,0,0,.28,0,1.52,1.52,0,0,0,1.11-.49A186.47,186.47,0,0,0,89.73,90.83q4.26.35,8.53.43a181.7,181.7,0,0,0,18,28.06,1.52,1.52,0,0,0,1.19.59h.15a1.52,1.52,0,0,0,1.21-.83A189,189,0,0,0,131,87.91c2.3-.52,4.59-1.08,6.87-1.72a1.51,1.51,0,0,0-.83-2.91ZM21,96.79a186.79,186.79,0,0,1,.2-28.89c.87.53,1.75,1,2.62,1.56A144.72,144.72,0,0,0,44.41,80.05,178.39,178.39,0,0,1,21,96.79Zm47.93,16.68a184.4,184.4,0,0,1-8.06-27.69,146.21,146.21,0,0,0,25.47,4.77A182.82,182.82,0,0,1,68.91,113.47Zm48.26,2.06a178,178,0,0,1-15.49-24.26,136.15,136.15,0,0,0,26-2.63A186.78,186.78,0,0,1,117.17,115.53Z" style="fill:#323232"/></svg>