<svg id="圖層_1" data-name="圖層 1" xmlns="http://www.w3.org/2000/svg" viewBox="0 0 150 150"><title>ms-15</title><path d="M117,56.62a1.93,1.93,0,0,0-.57,1.37,2,2,0,0,0,.57,1.38,2,2,0,0,0,1.37.56,2,2,0,0,0,1.38-.56,2,2,0,0,0,.56-1.38A1.94,1.94,0,0,0,117,56.62Z" style="fill:#231815"/><path d="M130.47,35.2h-2.91V32.29a1.94,1.94,0,1,0-3.88,0V35.2h-2.9a1.94,1.94,0,0,0,0,3.88h2.9V42a1.94,1.94,0,1,0,3.88,0V39.08h2.91a1.94,1.94,0,0,0,0-3.88Z" style="fill:#231815"/><path d="M142.18,59.71A5.18,5.18,0,1,1,137,54.77,5.06,5.06,0,0,1,142.18,59.71Z" style="fill:#e96bb0"/><path d="M137,66.11a6.4,6.4,0,1,1,6.63-6.4A6.53,6.53,0,0,1,137,66.11Zm0-9.87a3.48,3.48,0,1,0,3.71,3.47A3.6,3.6,0,0,0,137,56.24Z" style="fill:#231815"/><path d="M6.93,115.59A1.93,1.93,0,0,0,6.36,117a2,2,0,0,0,.57,1.38,2,2,0,0,0,2.74,0,2,2,0,0,0,.57-1.38,2,2,0,0,0-.57-1.37A2,2,0,0,0,6.93,115.59Z" style="fill:#231815"/><path d="M20.42,94.17H17.51V91.26a1.94,1.94,0,1,0-3.88,0v2.91H10.72a1.94,1.94,0,0,0,0,3.88h2.91V101a1.94,1.94,0,1,0,3.88,0V98.05h2.91a1.94,1.94,0,0,0,0-3.88Z" style="fill:#231815"/><ellipse cx="34.18" cy="114.71" rx="5.17" ry="4.94" style="fill:#ffb71b"/><path d="M34.18,121.11a6.4,6.4,0,1,1,6.63-6.4A6.53,6.53,0,0,1,34.18,121.11Zm0-9.87a3.48,3.48,0,1,0,3.71,3.47A3.6,3.6,0,0,0,34.18,111.24Z" style="fill:#231815"/><path d="M91.4,55.76c1.17,15.54-29.29,12.9-36.05,4.47C41.82,43.36,90.08,38.25,91.4,55.76Z" style="fill:#fff"/><path d="M75.45,68.43c-8.44,0-17.66-2.82-21.24-7.28-3.81-4.76-2.93-8.38-1.51-10.59,4.21-6.54,18.38-8.63,28.23-6.14,7.29,1.85,11.52,5.84,11.93,11.23h0c.39,5.12-2.31,9.09-7.59,11.17A27.42,27.42,0,0,1,75.45,68.43ZM72.21,46.32c-7.47,0-14.75,2.25-17,5.83-1.3,2-.86,4.44,1.33,7.17,4,5,18.71,8.32,27.71,4.78,4.1-1.62,6-4.39,5.74-8.23-.41-5.45-6.27-7.74-9.73-8.61A33.06,33.06,0,0,0,72.21,46.32Z" style="fill:#231815"/><path d="M67.6,58.61c9-6.61,23.72-16.39,33.54-5.15s4,23.19-2.14,34.36c-2.86,5.24-3.75,6.51-5.5,12.25-1.31,4.29-.74,12.7-6.58,14.3-5.1,1.39-8.44-5.12-11.7-7.86A87.46,87.46,0,0,0,53.86,93.87" style="fill:#fff"/><path d="M85.5,116c-3.68,0-6.42-3.14-8.69-5.74a25.45,25.45,0,0,0-2.53-2.66,85.15,85.15,0,0,0-21-12.41,1.46,1.46,0,0,1,1.13-2.7,88.59,88.59,0,0,1,21.75,12.87,27.37,27.37,0,0,1,2.85,3c2.74,3.14,4.89,5.31,7.52,4.59,3.2-.88,4-4.39,4.75-9.25a30.81,30.81,0,0,1,.81-4.07,44.73,44.73,0,0,1,4.68-10.81l.94-1.71c6.49-11.9,11.15-22.58,2.32-32.7-8.35-9.56-20.65-2.65-31.58,5.37a1.46,1.46,0,0,1-1.73-2.36C74,52.1,91,39.62,102.24,52.5c10.06,11.52,4.82,23.61-1.95,36l-1,1.73A42,42,0,0,0,94.9,100.5a27.89,27.89,0,0,0-.72,3.66c-.67,4.3-1.6,10.17-6.87,11.62A6.91,6.91,0,0,1,85.5,116Z" style="fill:#231815"/><path d="M81,55.92C71,51.56,49.91,40.4,40.09,50.3c-10,10.14-4.24,22.79,0,34.05,2.64,6.92,6,26.4,12.8,29.61,8.7,4.1,18.29-13.1,24.41-16.9" style="fill:#fff"/><path d="M55.7,116.06a7.88,7.88,0,0,1-3.38-.77c-5.68-2.68-8.83-14-11.36-23.18-.82-3-1.53-5.52-2.19-7.24-.26-.69-.53-1.39-.8-2.09-4.22-10.93-9-23.32,1.08-33.51,9.53-9.61,28.06-1.22,39.13,3.79,1.23.55,2.37,1.07,3.39,1.51a1.46,1.46,0,0,1-1.16,2.69c-1-.45-2.19-1-3.44-1.54C66.6,51,49.23,43.17,41.13,51.33c-8.75,8.84-4.52,19.8-.43,30.4l.81,2.1c.7,1.85,1.43,4.47,2.27,7.5,2.12,7.65,5.32,19.21,9.78,21.31,4.94,2.33,10.77-4.19,15.91-9.94,2.67-3,5-5.56,7.11-6.88a1.46,1.46,0,1,1,1.54,2.48c-1.77,1.11-4.05,3.65-6.47,6.35C67,109.83,61.44,116.06,55.7,116.06Z" style="fill:#231815"/><path d="M67.19,72.68a4.21,4.21,0,1,1-4.43-3.81A4.13,4.13,0,0,1,67.19,72.68Z" style="fill:#231815"/><path d="M95.39,72.68A4.21,4.21,0,1,1,91,68.87,4.13,4.13,0,0,1,95.39,72.68Z" style="fill:#231815"/><path d="M76.89,90.24c-5.16,0-9.36-3.66-9.36-8.16a1.42,1.42,0,1,1,2.83,0c0,2.94,2.93,5.33,6.53,5.33s6.53-2.39,6.53-5.33a1.42,1.42,0,1,1,2.83,0C86.25,86.58,82.05,90.24,76.89,90.24Z" style="fill:#231815"/></svg>