<svg id="圖層_1" data-name="圖層 1" xmlns="http://www.w3.org/2000/svg" viewBox="0 0 150 150"><title>ms-11</title><path d="M15.55,72.09A1.43,1.43,0,0,1,14,73.37l-5,0a1.28,1.28,0,1,1,0-2.51l5-.06A1.43,1.43,0,0,1,15.55,72.09Z" style="fill:#231815"/><path d="M18.43,83.72a.89.89,0,0,1,.05.32,1.32,1.32,0,0,1-1.13,1.23l-5.65,1.3a1.59,1.59,0,0,1-1.89-.87,1.25,1.25,0,0,1,1.07-1.56l5.66-1.29A1.59,1.59,0,0,1,18.43,83.72Z" style="fill:#231815"/><path d="M16.82,58.82A1.35,1.35,0,0,1,18,60a1.13,1.13,0,0,1-.05.32,1.59,1.59,0,0,1-1.87.92l-5.44-1.12a1.26,1.26,0,0,1-1.11-1.53,1.59,1.59,0,0,1,1.87-.91Z" style="fill:#231815"/><path d="M113,78.64a1.9,1.9,0,0,0-.58,1.36,2,2,0,0,0,.58,1.38,1.92,1.92,0,0,0,1.36.56A1.91,1.91,0,0,0,116.25,80a1.92,1.92,0,0,0-.56-1.36A2,2,0,0,0,113,78.64Z" style="fill:#231815"/><path d="M126.44,57.21h-2.91V54.3a1.94,1.94,0,1,0-3.88,0v2.91h-2.91a1.94,1.94,0,1,0,0,3.88h2.91V64a1.94,1.94,0,0,0,3.88,0V61.09h2.91a1.94,1.94,0,0,0,0-3.88Z" style="fill:#231815"/><path d="M142.53,77.76a5.18,5.18,0,1,1-5.17-4.94A5.06,5.06,0,0,1,142.53,77.76Z" style="fill:#ffb71b;stroke:#231815;stroke-linecap:round;stroke-linejoin:round;stroke-width:2.92612px"/><path d="M72.49,95.72a101.32,101.32,0,0,0-11.1,10.12c-1.63,1.79-6.62,5.21-5,8.11s9.42-3.16,10.94-3.87" style="fill:#fbded7;stroke:#231815;stroke-linecap:round;stroke-linejoin:round;stroke-width:2.92612px"/><path d="M68.82,91.78a5.67,5.67,0,0,1,.52-.69c4-4.73,17-2.29,21.53.66,5.93,3.86,8.85,12.14,9.09,19.17.25,7.3-6,9.47-11.43,8.5-5-.9-11.91-5.55-15.57-8.83C68.81,106.87,65.4,97,68.82,91.78Z" style="fill:#fbded7;stroke:#231815;stroke-linecap:round;stroke-linejoin:round;stroke-width:2.92612px"/><path d="M112.22,99.08c.44,6-2.33,12.16-6.21,16.33-4.53,4.88-9.59,4.65-15.61,4.37-3.69-.17-3.69-3.63-3.63-6.92.11-5.87,1.14-11.61,1.9-17.4.37-2.92.47-4.31,3.39-5.19,2.21-.66,4.75-.49,7-.47C104.34,89.84,111.73,92.32,112.22,99.08Z" style="fill:#fff;stroke:#231815;stroke-linecap:round;stroke-linejoin:round;stroke-width:2.92612px"/><path d="M70,95.84a100.28,100.28,0,0,0-2.54,14.79c-.2,2.42-2,8.19,1,9.47s5.5-8.28,6.26-9.76" style="fill:#fbded7;stroke:#231815;stroke-linecap:round;stroke-linejoin:round;stroke-width:2.92612px"/><path d="M103.05,74.43c.47-8.12-1.46-16.55-5.52-22.73-6.26-9.53-17.24-15.19-28.48-16a38,38,0,0,0-27.67,8.73,30.55,30.55,0,0,0-9.19,15C30.62,65,28.85,72.08,29.52,77.85c2.84,24.52,55.69,30,67.59,14.25C100.74,87.29,102.67,81,103.05,74.43Z" style="fill:#fbded7;stroke:#231815;stroke-linecap:round;stroke-linejoin:round;stroke-width:2.92612px"/><path d="M58,65.38c-.51,2.48-2.54,4.16-4.54,3.75s-3.21-2.75-2.7-5.24,2.54-4.15,4.54-3.74,3.21,2.75,2.7,5.23" style="fill:#231815"/><path d="M69.82,40.38c.3-3.72.67-7.7,2.8-11" style="fill:none;stroke:#231815;stroke-linecap:round;stroke-linejoin:round;stroke-width:2.92612px"/><path d="M64.37,40.86c-1.28-3.5-2.62-7.27-2.08-11.19" style="fill:none;stroke:#231815;stroke-linecap:round;stroke-linejoin:round;stroke-width:2.92612px"/><path d="M76,41.67c1.11-3.56,2.33-7.37,5.14-10.15" style="fill:none;stroke:#231815;stroke-linecap:round;stroke-linejoin:round;stroke-width:2.92612px"/><path d="M44.28,74.63c-2.3,4.48-8.45,5.92-13.73,3.21" style="fill:none;stroke:#231815;stroke-linecap:round;stroke-linejoin:round;stroke-width:2.8346500000000003px"/><path d="M77.62,69.92C86.25,68,85.7,84.61,75.4,81.21" style="fill:#fbded7;stroke:#231815;stroke-linecap:round;stroke-linejoin:round;stroke-width:2.92612px"/><path d="M109.32,112.33l-.39.16c.81-2.33,2.6-5.34.85-7.67-1.38-1.85-4-1.63-5.86-.87-4.39,1.76-7.43,8.65-5.75,13.07a6.31,6.31,0,0,0,3,3.25c3.36,1.24,7.33-.81,10.29-2.29,1.48-.74,3,4.49,4.86.8,1-1.94.4-6-1.45-7.33S111,111.56,109.32,112.33Z" style="fill:#fbded7;stroke:#231815;stroke-linecap:round;stroke-linejoin:round;stroke-width:2.92612px"/></svg>