<svg id="圖層_1" data-name="圖層 1" xmlns="http://www.w3.org/2000/svg" viewBox="0 0 150 150"><title>ms-28</title><path d="M122.79,56.88a1.91,1.91,0,0,0-.57,1.37,1.94,1.94,0,1,0,3.31-1.37A2,2,0,0,0,122.79,56.88Z" style="fill:#231815"/><path d="M136.28,35.46h-2.91V32.55a1.94,1.94,0,0,0-3.88,0v2.91h-2.91a1.94,1.94,0,1,0,0,3.87h2.91v2.91a1.94,1.94,0,1,0,3.88,0V39.33h2.91a1.94,1.94,0,1,0,0-3.87Z" style="fill:#231815"/><path d="M148,60A5.18,5.18,0,1,1,142.81,55,5.07,5.07,0,0,1,148,60Z" style="fill:#e96bb0"/><path d="M142.81,66.37a6.4,6.4,0,1,1,6.64-6.4A6.52,6.52,0,0,1,142.81,66.37Zm0-9.88A3.48,3.48,0,1,0,146.52,60,3.61,3.61,0,0,0,142.81,56.49Z" style="fill:#231815"/><path d="M1.12,115.34a1.91,1.91,0,0,0-.57,1.36,2,2,0,0,0,.57,1.38,2,2,0,0,0,1.37.56,2,2,0,0,0,1.38-.56,2,2,0,0,0,.56-1.38,1.94,1.94,0,0,0-.56-1.36A2,2,0,0,0,1.12,115.34Z" style="fill:#231815"/><path d="M14.61,93.91H11.7V91a1.94,1.94,0,0,0-3.88,0v2.91H4.92a1.94,1.94,0,1,0,0,3.88h2.9v2.91a1.94,1.94,0,0,0,3.88,0V97.79h2.91a1.94,1.94,0,0,0,0-3.88Z" style="fill:#231815"/><ellipse cx="28.37" cy="114.46" rx="5.17" ry="4.94" style="fill:#ffb71b"/><path d="M28.37,120.86a6.4,6.4,0,1,1,6.64-6.4A6.53,6.53,0,0,1,28.37,120.86Zm0-9.88a3.48,3.48,0,1,0,3.71,3.48A3.61,3.61,0,0,0,28.37,111Z" style="fill:#231815"/><path d="M118.62,90c0,5.49-17.68,22.42-43.65,22.42S29.41,97.16,30.2,90C31.55,77.64,49,67.53,75,67.53S118.62,77.57,118.62,90Z" style="fill:#fff"/><path d="M75,113.83c-19.37,0-35.69-8.37-42.66-16.15-2.58-2.88-3.82-5.61-3.56-7.89,1.53-14,20.54-23.72,46.22-23.72,26.14,0,45.11,10,45.11,23.88,0,3.72-5.24,9.68-12.75,14.5A60.59,60.59,0,0,1,75,113.83ZM75,69C48.06,69,32.81,79.61,31.65,90.11c-.15,1.39.88,3.44,2.84,5.62C41,103,56.5,110.91,75,110.91c25.85,0,42.19-16.77,42.19-21C117.16,78,99,69,75,69Z" style="fill:#231815"/><path d="M114.12,60.12c0,2.71-17.59,4.9-40.67,4.9S33.9,62.83,33.9,60.12s16.47-4.89,39.55-4.89S114.12,57.42,114.12,60.12Z" style="fill:#fff"/><path d="M73.45,66.48A240.56,240.56,0,0,1,44.84,65c-10.9-1.37-12.4-3.17-12.4-4.91s1.5-3.53,12.4-4.91a243,243,0,0,1,28.61-1.44,256.45,256.45,0,0,1,29.17,1.44c12,1.45,13,3.3,13,4.91s-1,3.46-13,4.92A256.45,256.45,0,0,1,73.45,66.48ZM35.82,60.12c3,1.51,15.79,3.43,37.63,3.43,21.38,0,35.32-1.87,38.68-3.43-3.36-1.55-17.3-3.43-38.68-3.43C51.61,56.69,38.81,58.61,35.82,60.12Zm77,.43h0Z" style="fill:#231815"/><path d="M33.77,59.59s14.81,6,41.4,5.16S114.52,60,114.52,60l4.09,29.63S90.84,89,85.68,111.18c-.4.2-3.78,2.8-10.77,2.78a24.91,24.91,0,0,1-11.25-2.65S56.78,92.53,30.34,90.52C29.41,90.45,33.77,59.59,33.77,59.59Z" style="fill:#fff"/><path d="M75,115.42H74.9a26.13,26.13,0,0,1-12-2.84,1.45,1.45,0,0,1-.65-.77C62,111.09,55.35,93.89,30.23,92a1.61,1.61,0,0,1-1.07-.56c-.49-.62-1.16-1.45,3.16-32A1.44,1.44,0,0,1,33,58.33a1.46,1.46,0,0,1,1.27-.1c.15.06,14.91,5.84,40.82,5.06s38.83-4.66,39-4.7a1.5,1.5,0,0,1,1.22.17,1.45,1.45,0,0,1,.66,1l4.09,29.63a1.45,1.45,0,0,1-.36,1.18,1.53,1.53,0,0,1-1.12.49,45.26,45.26,0,0,0-14.1,2.39c-9.51,3.3-15.36,9.36-17.37,18a1.49,1.49,0,0,1-.77,1l-.08.05A20.92,20.92,0,0,1,75,115.42Zm-10.17-5.16a24.37,24.37,0,0,0,10.09,2.23,17.93,17.93,0,0,0,9.5-2.25c4.9-19.26,26.29-21.73,32.53-22L113.3,61.84c-4.25,1.08-16.67,3.73-38.09,4.37C53.49,66.85,39.64,63.1,35,61.57c-1.62,11.59-3.16,24-3.29,27.6C55.55,91.48,63.43,107.05,64.82,110.26ZM31.69,90.08h0Z" style="fill:#231815"/><path d="M101.59,82.32a5.48,5.48,0,0,1-.66-10.91l13.21-1.63a1.47,1.47,0,0,1,.36,2.91l-13.21,1.62a2.55,2.55,0,1,0,.62,5.06l13.41-1.72A1.48,1.48,0,0,1,117,78.92a1.46,1.46,0,0,1-1.26,1.64l-13.41,1.71A5.34,5.34,0,0,1,101.59,82.32Z" style="fill:#231815"/><path d="M47,83.24a6.22,6.22,0,0,1-.86-.06L31,81a1.46,1.46,0,0,1-1.24-1.65,1.47,1.47,0,0,1,1.66-1.24l15.14,2.17a3.12,3.12,0,0,0,2.28-.56A2.87,2.87,0,0,0,50,77.81a3,3,0,0,0-2.65-3.31L32.41,72.43a1.46,1.46,0,0,1,.4-2.9L47.72,71.6a5.94,5.94,0,0,1,5.15,6.61,5.77,5.77,0,0,1-2.33,3.87A6,6,0,0,1,47,83.24Z" style="fill:#231815"/><path d="M96.4,95.21a1,1,0,0,0,.27-1.36l-1.4-2A1,1,0,0,0,93.62,93L95,95A1,1,0,0,0,96.4,95.21Z" style="fill:#231815"/><path d="M110.21,90.09a1.12,1.12,0,0,0,.48-.18,1,1,0,0,0,.44-.89L111,86.54a.94.94,0,0,0-1.06-.87,1,1,0,0,0-.92,1.07l.17,2.48A.94.94,0,0,0,110.21,90.09Z" style="fill:#231815"/><path d="M103.13,91.93a.72.72,0,0,0,.21-.12,1,1,0,0,0,.39-1.16l-.93-2.49a1,1,0,0,0-1.27-.54,1,1,0,0,0-.6,1.27l.93,2.5A1,1,0,0,0,103.13,91.93Z" style="fill:#231815"/><path d="M85.45,106.87a1,1,0,0,0,1-.1,1.07,1.07,0,0,0,.34-.39,1,1,0,0,0-.45-1.3l-2.26-1a1,1,0,0,0-1.33.49,1,1,0,0,0,.45,1.29Z" style="fill:#231815"/><path d="M89.57,100.5a1,1,0,0,0,1.22,0,.69.69,0,0,0,.18-.16A1,1,0,0,0,90.91,99l-2-1.74a1,1,0,0,0-1.4.12,1,1,0,0,0,.07,1.37Z" style="fill:#231815"/><path d="M52,96.74a1,1,0,0,0,1.37-.21l1.41-2a1,1,0,0,0-1.64-1.15l-1.41,2A1,1,0,0,0,52,96.74Z" style="fill:#231815"/><path d="M61.58,107.93a1,1,0,0,0,.34.39,1,1,0,0,0,1,.11l2.26-1a1,1,0,0,0,.46-1.3,1,1,0,0,0-1.33-.49l-2.27,1A1,1,0,0,0,61.58,107.93Z" style="fill:#231815"/><path d="M57.41,101.92a.73.73,0,0,0,.18.17,1,1,0,0,0,1.22,0l2-1.73a1,1,0,0,0,.07-1.38,1,1,0,0,0-1.4-.12l-2,1.74A1,1,0,0,0,57.41,101.92Z" style="fill:#231815"/><path d="M37.28,90.5a1,1,0,0,0,.44.9,1,1,0,0,0,.48.18.93.93,0,0,0,1-.87l.18-2.48a1,1,0,0,0-.92-1.07.94.94,0,0,0-1.06.87Z" style="fill:#231815"/><path d="M44.68,92.17a1,1,0,0,0,.38,1.15.72.72,0,0,0,.21.12,1,1,0,0,0,1.27-.54l.94-2.49a1,1,0,0,0-.59-1.28,1,1,0,0,0-1.27.54Z" style="fill:#231815"/></svg>