<svg id="圖層_1" data-name="圖層 1" xmlns="http://www.w3.org/2000/svg" viewBox="0 0 150 150"><title>ms-34</title><polygon points="80.56 122.33 80.68 138.89 74.56 138.83 70.37 122.2 80.56 122.33" style="fill:#fbded7"/><path d="M80.68,140.37h0l-6.13-.07a1.45,1.45,0,0,1-1.41-1.11l-4.19-16.63a1.49,1.49,0,0,1,.27-1.27,1.42,1.42,0,0,1,1.18-.56l10.18.12A1.49,1.49,0,0,1,82,122.32l.12,16.56a1.45,1.45,0,0,1-.43,1.06A1.5,1.5,0,0,1,80.68,140.37Zm-5-3,3.49,0-.11-13.62-6.83-.08Z" style="fill:#231815"/><polygon points="80.43 122.33 80.31 138.89 86.21 138.83 90.24 122.2 80.43 122.33" style="fill:#fbded7"/><path d="M80.31,140.34a1.47,1.47,0,0,1-1-.42,1.49,1.49,0,0,1-.42-1L79,122.32a1.45,1.45,0,0,1,1.43-1.44l9.82-.12a1.59,1.59,0,0,1,1.14.54,1.47,1.47,0,0,1,.28,1.25l-4,16.62a1.44,1.44,0,0,1-1.39,1.11l-5.9.06Zm1.55-16.58-.1,13.67,3.31,0,3.33-13.73Z" style="fill:#231815"/><path d="M120.48,98.81h-3.71a1.46,1.46,0,1,0,0,2.91h3.71a1.46,1.46,0,0,0,0-2.91Z" style="fill:#231815"/><path d="M119.18,110.89l-4.64-1a1.46,1.46,0,0,0-.59,2.85l4.65,1a1.43,1.43,0,0,0,.29,0,1.45,1.45,0,0,0,.29-2.88Z" style="fill:#231815"/><path d="M113.9,89.55a1.47,1.47,0,0,0,1.41,1.08,1.28,1.28,0,0,0,.38,0l3.58-1a1.46,1.46,0,1,0-.76-2.81l-3.58,1A1.47,1.47,0,0,0,113.9,89.55Z" style="fill:#231815"/><path d="M28.49,76.33a1.46,1.46,0,1,0,2.06,0A1.51,1.51,0,0,0,28.49,76.33Z" style="fill:#231815"/><path d="M38.61,59H36.43V56.83a1.46,1.46,0,0,0-2.91,0V59H31.34a1.46,1.46,0,1,0,0,2.91h2.18v2.19a1.46,1.46,0,0,0,2.91,0V61.92h2.18a1.46,1.46,0,1,0,0-2.91Z" style="fill:#231815"/><ellipse cx="56.44" cy="48.06" rx="8.34" ry="8.47" style="fill:#231815"/><path d="M70.43,55.86a8.35,8.35,0,1,1-8.34-8.47A8.42,8.42,0,0,1,70.43,55.86Z" style="fill:#231815"/><path d="M80.65,57.75a8.34,8.34,0,1,1-8.34-8.48A8.4,8.4,0,0,1,80.65,57.75Z" style="fill:#231815"/><path d="M95.45,57.21a8.34,8.34,0,1,1-8.34-8.48A8.41,8.41,0,0,1,95.45,57.21Z" style="fill:#231815"/><path d="M106.75,54.79a8.35,8.35,0,1,1-8.34-8.48A8.41,8.41,0,0,1,106.75,54.79Z" style="fill:#231815"/><path d="M113.47,47.52a8.34,8.34,0,1,1-8.34-8.47A8.41,8.41,0,0,1,113.47,47.52Z" style="fill:#231815"/><path d="M114.28,34.88a8.34,8.34,0,1,1-8.34-8.47A8.41,8.41,0,0,1,114.28,34.88Z" style="fill:#231815"/><path d="M65.51,103.56A4.88,4.88,0,0,1,55.88,102c1.66-10.29,3.17-20.62,4.9-30.9.37-2.2.51-4.84,2.2-6.5,1.52-1.49,3.32-1.41,5.3-1.6s3.59-.23,4,2-1.12,3.92-1.47,6c-.47,2.78-.91,5.56-1.37,8.34q-1.48,9.09-3,18.18C66.17,99.54,65.83,101.55,65.51,103.56Z" style="fill:#fbded7"/><path d="M60.71,109.11a7,7,0,0,1-1-.08,6.34,6.34,0,0,1-5.24-7.25q1-6.24,2-12.49c.93-6,1.9-12.29,2.93-18.42.06-.32.11-.65.16-1,.31-2.13.67-4.55,2.45-6.31s3.66-1.81,5.41-1.94l.77-.07c1.7-.16,4.87-.45,5.58,3.12a7.54,7.54,0,0,1-.8,4.57,9.07,9.07,0,0,0-.67,2l-1,5.89L67.58,99.85c-.22,1.31-.43,2.63-.64,3.94a6.33,6.33,0,0,1-6.23,5.32Zm8.9-44.73c-.31,0-.7,0-1.2.07l-.82.07c-1.7.13-2.71.25-3.6,1.12-1.09,1.08-1.36,2.91-1.62,4.68-.06.35-.11.69-.16,1-1,6.11-2,12.35-2.94,18.38q-1,6.27-2,12.51a3.43,3.43,0,1,0,6.77,1.09h0c.21-1.32.43-2.63.64-4l3.71-22.72q.48-2.94,1-5.9a11.85,11.85,0,0,1,.85-2.62,4.92,4.92,0,0,0,.63-2.89C70.77,64.68,70.71,64.38,69.61,64.38Z" style="fill:#231815"/><path d="M92.91,103.8a5.11,5.11,0,0,0,10.19-.68c-.69-10.41-1.21-20.82-2-31.23-.16-2.22,0-4.86-1.63-6.66-1.44-1.63-3.33-1.71-5.37-2.07s-3.71-.56-4.39,1.58.78,4,.93,6.14q.3,4.22.58,8.43L92.49,97.7C92.63,99.73,92.78,101.76,92.91,103.8Z" style="fill:#fbded7"/><path d="M98,109.82a6.63,6.63,0,0,1-4.29-1.55,6.19,6.19,0,0,1-2.24-4.37h0l-.3-4.35L89.57,76.7c-.13-1.9-.26-3.81-.4-5.71a8.39,8.39,0,0,0-.49-2,7.37,7.37,0,0,1-.37-4.68c1.1-3.49,4.33-2.91,6.06-2.6l.81.13c1.79.29,3.82.62,5.41,2.42s1.83,4.49,1.94,6.56c0,.33,0,.66.06,1,.46,6.21.84,12.52,1.21,18.62.25,4.21.5,8.42.78,12.63a6.15,6.15,0,0,1-1.65,4.63,6.63,6.63,0,0,1-4.5,2.14Zm-3.58-6.12a3.26,3.26,0,0,0,1.19,2.3,3.7,3.7,0,0,0,2.65.85,3.76,3.76,0,0,0,2.52-1.19,3.29,3.29,0,0,0,.88-2.44q-.42-6.31-.79-12.64c-.37-6.09-.74-12.39-1.2-18.58,0-.34,0-.68-.07-1-.09-1.77-.19-3.6-1.21-4.75-.84-1-1.88-1.17-3.65-1.45-.28-.05-.57-.09-.85-.15-2.41-.42-2.51-.11-2.72.58a4.58,4.58,0,0,0,.36,2.87,11.42,11.42,0,0,1,.63,2.72c.14,1.9.26,3.81.39,5.72l1.57,22.85.3,4.35Z" style="fill:#231815"/><path d="M72.81,61.89l-2.13,1.87s-8.85,6.22-7.5,14c.79,4.55,4.1,5.57,4.1,5.57S47,96.76,56.65,122.57c.63.26,50,0,50,0s3.44-16.33-2.19-28.18-10.3-11.58-10.3-11.58,3.29-.67,3.92-6.55c.58-5.5-8.25-13.12-8.25-13.12l-1.5-1.38-7.63-1.43Z" style="fill:#ee87b4"/><path d="M71.7,124.06c-15,0-15.35-.14-15.58-.23a1.43,1.43,0,0,1-.75-.78c-8.25-22,4.7-35.51,9.49-39.57a8.75,8.75,0,0,1-3-5.48c-1.43-8.26,7.09-14.65,8-15.31l2.07-1.83a1.28,1.28,0,0,1,.64-.31L80.41,59a1.51,1.51,0,0,1,.52,0l7.63,1.44a1.41,1.41,0,0,1,.67.33l1.5,1.38c.93.8,9.33,8.23,8.69,14.28a10.38,10.38,0,0,1-2.34,6c2.17,1.32,5.28,4.36,8.6,11.36,5.76,12.13,2.44,28.36,2.29,29.05a1.38,1.38,0,0,1-1.33,1.09C90.2,124,79.15,124.06,71.7,124.06Zm-14.07-2.81c4.86.12,30.14,0,47.86,0,.62-3.77,2.26-16.65-2.28-26.22-4.91-10.35-8.94-10.81-9-10.81h0a1.37,1.37,0,0,1-.34-2.71c.06,0,2.33-.66,2.82-5.34.42-3.93-5.47-10-7.78-11.94L87.67,63l-7-1.32-7.26,1.44-1.84,1.63-.12.09c-.08.06-8.12,5.83-6.94,12.65.63,3.62,3.13,4.49,3.15,4.49A1.37,1.37,0,0,1,68,84.47C67.25,85,49.19,97.36,57.63,121.25ZM70.68,63.76h0Z" style="fill:#231815"/><path d="M62.9,35.69a8.34,8.34,0,1,1-8.34-8.48A8.41,8.41,0,0,1,62.9,35.69Z" style="fill:#231815"/><path d="M109,38.85c0-14-12.65-25.44-28.25-25.44S52.45,24.8,52.45,38.85c0,13.14,11.07,19.74,25.26,21.09v3.28s2.71,3.9,6,0V59.94C97.88,58.59,109,52,109,38.85Z" style="fill:#fbded7"/><path d="M80.69,65.91h0a5.11,5.11,0,0,1-3.76-2.14.91.91,0,0,1-.18-.55V60.8C60.68,59,51.49,51.07,51.49,38.85c0-14.56,13.1-26.4,29.21-26.4s29.21,11.84,29.21,26.4c0,12.22-9.19,20.19-25.26,21.95v2.42a.93.93,0,0,1-.23.61A4.93,4.93,0,0,1,80.69,65.91Zm-2-3a2.93,2.93,0,0,0,2,1.11h0a2.92,2.92,0,0,0,2-1.13V59.94a1,1,0,0,1,.87-1C99.1,57.51,108,50.18,108,38.85c0-13.5-12.24-24.48-27.29-24.48s-27.29,11-27.29,24.48C53.41,50.18,62.3,57.51,77.8,59a1,1,0,0,1,.87,1Z" style="fill:#231815"/><path d="M90.55,16.24A140.6,140.6,0,0,1,52.77,32.76S50.39,16,65.39,7.65C84.77-3.18,94.1,10.84,94.1,10.84s5.05-1.13,10.42,6.37a24.71,24.71,0,0,1,4.12,16.3S101.4,33.51,90.55,16.24Z" style="fill:#fbded7"/><path d="M109.92,35h-1.28c-.8,0-8-.48-18.54-16.71a147,147,0,0,1-36.94,15.9l-1.61.44L51.31,33c0-.17-2.34-17.83,13.36-26.59,17.7-9.89,27.73.08,30.1,2.94h0c2,0,6.43.79,10.9,7a26,26,0,0,1,4.38,17.37ZM91,14.17l.81,1.29c7.42,11.8,13,15.21,15.48,16.19a23.08,23.08,0,0,0-4-13.58c-4.65-6.5-8.76-5.82-8.93-5.79l-1,.18-.56-.81C92.52,11.13,84-1.06,66.11,8.94,54.76,15.28,54,26.56,54.1,30.85A139.86,139.86,0,0,0,89.73,15Z" style="fill:#231815"/><path d="M108.64,34.47c-.31,0-7.65-.19-18.38-16.9A145.24,145.24,0,0,1,53,33.68a.95.95,0,0,1-1.2-.79c0-.17-2.29-17.48,13.1-26.07,5-2.81,9.85-4.23,14.35-4.23A19.33,19.33,0,0,1,94.54,9.82h.31c1.67,0,6,.66,10.45,6.83a25.44,25.44,0,0,1,4.29,17A1,1,0,0,1,108.64,34.47Z" style="fill:#231815"/><path d="M94.88,36.87a3.36,3.36,0,1,1-3.36-3.36A3.36,3.36,0,0,1,94.88,36.87Z" style="fill:#231815"/><path d="M72.29,36.87a3.36,3.36,0,1,1-3.36-3.36A3.36,3.36,0,0,1,72.29,36.87Z" style="fill:#231815"/><path d="M47.48,37.54c-1.66,2.49.27,5.44,1.84,6.18s4.89-.36,4.89-.36V37.54S49.14,35.05,47.48,37.54Z" style="fill:#fbded7"/><path d="M113.87,37.54c-1.66-2.49-6.73,0-6.73,0v5.82s3.32,1.1,4.89.36S115.53,40,113.87,37.54Z" style="fill:#fbded7"/><path d="M53.8,43.68A4.83,4.83,0,0,1,50,45.53a5,5,0,0,1,0-10.08,4.84,4.84,0,0,1,4,2.2" style="fill:#fbded7"/><path d="M50,47a6.52,6.52,0,0,1,0-13,6.29,6.29,0,0,1,5.26,2.87,1.47,1.47,0,1,1-2.46,1.62A3.37,3.37,0,0,0,50,36.92a3.57,3.57,0,0,0,0,7.13,3.33,3.33,0,0,0,2.62-1.29A1.47,1.47,0,1,1,55,44.59,6.27,6.27,0,0,1,50,47Z" style="fill:#231815"/><path d="M108.38,43a5,5,0,1,0-.26-6" style="fill:#fbded7"/><path d="M112.25,46.36a6.42,6.42,0,0,1-5-2.39,1.48,1.48,0,1,1,2.29-1.86,3.48,3.48,0,0,0,2.72,1.3,3.57,3.57,0,0,0,0-7.13,3.49,3.49,0,0,0-2.9,1.55,1.48,1.48,0,1,1-2.45-1.65,6.48,6.48,0,1,1,5.35,10.18Z" style="fill:#231815"/><path d="M80.52,53.65c-6,0-10.86-4.24-10.86-9.46h3.15c0,3.48,3.46,6.3,7.71,6.3s7.7-2.82,7.7-6.3h3.15C91.37,49.41,86.5,53.65,80.52,53.65Z" style="fill:#231815"/><path d="M80.84,110a1.06,1.06,0,0,1-.51-.14C69,103.44,69.58,97,70,95.21a6,6,0,0,1,5.6-4.69,5.88,5.88,0,0,1,5,3.18.23.23,0,0,0,.36,0,5.87,5.87,0,0,1,5-3.2,6,6,0,0,1,5.62,4.67c.47,1.81,1.11,8.22-10.23,14.66a1.07,1.07,0,0,1-.52.14" style="fill:#e60045"/><path d="M80.87,110.9a1.19,1.19,0,0,1-.58-.15C67.35,103.47,68.05,96.16,68.57,94.1a6.88,6.88,0,0,1,6.37-5.35c2.26,0,4.27,1.29,5.7,3.62a.24.24,0,0,0,.4,0c1.42-2.34,3.43-3.64,5.68-3.64A6.87,6.87,0,0,1,93.12,94c.53,2.07,1.26,9.37-11.66,16.71a1.2,1.2,0,0,1-.59.15M75,91.14a4.49,4.49,0,0,0-4.07,3.54c-.4,1.62-.86,7.33,10,13.65C91.7,102,91.22,96.26,90.81,94.64a4.48,4.48,0,0,0-4.08-3.52,4.4,4.4,0,0,0-3.64,2.49,2.64,2.64,0,0,1-2.25,1.27,2.68,2.68,0,0,1-2.25-1.26A4.42,4.42,0,0,0,75,91.14" style="fill:#231815"/><polygon points="80.68 139.14 80.68 146.39 92.43 146.52 86.21 139.08 80.68 139.14" style="fill:#ee87b4"/><path d="M92.43,147.89h0l-11.75-.13a1.38,1.38,0,0,1-1.36-1.37v-7.25a1.37,1.37,0,0,1,1.36-1.37l5.52-.06a1.37,1.37,0,0,1,1.07.49l6.22,7.44a1.37,1.37,0,0,1-1,2.25ZM82.05,145l7.42.08-3.9-4.66-3.52,0Z" style="fill:#231815"/><polygon points="80.06 139.14 80.06 146.39 67.93 146.52 74.35 139.08 80.06 139.14" style="fill:#ee87b4"/><path d="M67.93,147.91a1.39,1.39,0,0,1-1.05-2.3l6.42-7.44a1.48,1.48,0,0,1,1.07-.48l5.7.06a1.4,1.4,0,0,1,1.38,1.39v7.25a1.39,1.39,0,0,1-1.38,1.39L68,147.91Zm7-7.43-4,4.61,7.66-.07v-4.5Z" style="fill:#231815"/><path d="M41.43,91.64a3.88,3.88,0,1,1-3.88-3.7A3.78,3.78,0,0,1,41.43,91.64Z" style="fill:#ffb71b"/><path d="M37.55,96.76a5.12,5.12,0,1,1,5.3-5.12A5.21,5.21,0,0,1,37.55,96.76Zm0-7.41A2.3,2.3,0,1,0,40,91.64,2.38,2.38,0,0,0,37.55,89.35Z" style="fill:#231815"/></svg>