<svg id="圖層_1" data-name="圖層 1" xmlns="http://www.w3.org/2000/svg" viewBox="0 0 150 150"><title>ms-30</title><path d="M105.08,53.16a2,2,0,0,0-.57,1.37,2,2,0,0,0,.57,1.38,2,2,0,0,0,2.75,0,2,2,0,0,0,.56-1.38,2,2,0,0,0-.56-1.37A2,2,0,0,0,105.08,53.16Z" style="fill:#231815"/><path d="M118.57,31.74h-2.9V28.83a1.94,1.94,0,0,0-3.88,0v2.91h-2.91a1.94,1.94,0,1,0,0,3.87h2.91v2.91a1.94,1.94,0,0,0,3.88,0V35.61h2.9a1.94,1.94,0,1,0,0-3.87Z" style="fill:#231815"/><ellipse cx="125.11" cy="56.25" rx="5.17" ry="4.94" style="fill:#e96bb0"/><path d="M125.11,62.65a6.4,6.4,0,1,1,6.63-6.4A6.53,6.53,0,0,1,125.11,62.65Zm0-9.88a3.48,3.48,0,1,0,3.71,3.48A3.6,3.6,0,0,0,125.11,52.77Z" style="fill:#231815"/><path d="M19.72,96.67v28.85h19.5c0-.13,0-.27,0-.4,0-7.18,9.73-13,21.73-13s21.72,5.83,21.72,13c0,.13,0,.27,0,.4h19.5V96.67Z" style="fill:#f6a930"/><path d="M102.09,127H82.59a1.47,1.47,0,0,1-1.46-1.57l0-.25c0-6.31-9.27-11.6-20.25-11.6s-20.27,5.29-20.27,11.55a2.2,2.2,0,0,1,0,.36,1.45,1.45,0,0,1-.41,1.06,1.46,1.46,0,0,1-1.05.45H19.72a1.46,1.46,0,0,1-1.46-1.47V96.67a1.46,1.46,0,0,1,1.46-1.47h82.37a1.46,1.46,0,0,1,1.46,1.47v28.85A1.46,1.46,0,0,1,102.09,127ZM84,124.06h16.6V98.13H21.18v25.93H37.77c.84-7.6,10.7-13.41,23.14-13.41S83.19,116.46,84,124.06Z" style="fill:#231815"/><rect x="34.89" y="81.2" width="52.04" height="15.55" style="fill:#d94434"/><path d="M86.92,98.16h-52a1.41,1.41,0,0,1-1.41-1.41V81.2a1.41,1.41,0,0,1,1.41-1.41h52a1.41,1.41,0,0,1,1.41,1.41V96.75A1.41,1.41,0,0,1,86.92,98.16ZM36.29,95.34H85.52V82.6H36.29Z" style="fill:#231815"/><rect x="29.03" y="69.16" width="63.76" height="11.95" style="fill:#76ccf3"/><path d="M92.78,82.58H29a1.46,1.46,0,0,1-1.46-1.46v-12A1.46,1.46,0,0,1,29,67.7H92.78a1.46,1.46,0,0,1,1.47,1.46v12A1.47,1.47,0,0,1,92.78,82.58ZM30.49,79.65H91.32v-9H30.49Z" style="fill:#231815"/><polygon points="38.5 69.18 38.41 54.26 55.91 54.23 55.99 69.15 38.5 69.18" style="fill:#64b72f"/><path d="M38.5,70.64A1.47,1.47,0,0,1,37,69.18L37,54.27a1.49,1.49,0,0,1,.42-1,1.46,1.46,0,0,1,1-.43l17.49,0h0a1.47,1.47,0,0,1,1.47,1.46l.09,14.92A1.47,1.47,0,0,1,56,70.61l-17.49,0Zm1.38-14.92.08,12,14.56,0-.07-12Z" style="fill:#231815"/><polygon points="64.48 69.01 64.39 54.09 81.87 54.06 81.97 68.98 64.48 69.01" style="fill:#64b72f"/><path d="M64.48,70.47A1.47,1.47,0,0,1,63,69L62.92,54.1a1.46,1.46,0,0,1,.43-1,1.48,1.48,0,0,1,1-.43l17.49,0h0a1.47,1.47,0,0,1,1.47,1.45L83.43,69A1.45,1.45,0,0,1,82,70.44l-17.49,0Zm1.38-14.92.07,12,14.57,0-.08-12Z" style="fill:#231815"/><polygon points="36.95 41.59 60.49 24.48 84.86 41.46 36.95 41.59" style="fill:#ef90b9"/><path d="M37,43.05a1.46,1.46,0,0,1-.86-2.64L59.63,23.29a1.47,1.47,0,0,1,1.7,0l24.36,17a1.46,1.46,0,0,1-.83,2.66L37,43.05ZM60.51,26.27l-19,13.85L80.22,40Z" style="fill:#231815"/><rect x="34.66" y="41.56" width="52.5" height="12.58" style="fill:#ffb71b"/><path d="M87.15,55.6H34.66a1.46,1.46,0,0,1-1.47-1.46V41.56a1.46,1.46,0,0,1,1.47-1.46H87.15a1.46,1.46,0,0,1,1.47,1.46V54.14A1.46,1.46,0,0,1,87.15,55.6Zm-51-2.93H85.69V43H36.12Z" style="fill:#231815"/></svg>