<svg id="圖層_1" data-name="圖層 1" xmlns="http://www.w3.org/2000/svg" viewBox="0 0 150 150"><title>ms-33</title><path d="M140.47,75.65a1.9,1.9,0,0,0,1.8,2l4.75.16a1.94,1.94,0,0,0,.13-3.88l-4.76-.16A1.9,1.9,0,0,0,140.47,75.65Z" style="fill:#231815"/><path d="M132.47,103a2.1,2.1,0,0,0-.29,1,2,2,0,0,0,.88,1.71l4,2.61a1.83,1.83,0,0,0,2.57-.63,2,2,0,0,0-.6-2.67l-4-2.6A1.81,1.81,0,0,0,132.47,103Z" style="fill:#231815"/><path d="M137.79,89.89a1.51,1.51,0,0,0-.07.46,1.92,1.92,0,0,0,1.35,1.93l5,1.44a1.86,1.86,0,0,0,2.3-1.34A1.94,1.94,0,0,0,145,90l-4.95-1.45A1.87,1.87,0,0,0,137.79,89.89Z" style="fill:#231815"/><path d="M135,45.22a2,2,0,0,0-1,1.65,2,2,0,0,0,.22,1,1.82,1.82,0,0,0,2.52.79L141,46.3a2,2,0,0,0,.77-2.62,1.84,1.84,0,0,0-2.53-.8Z" style="fill:#231815"/><path d="M140.16,59a1.92,1.92,0,0,0-1.48,1.83,1.5,1.5,0,0,0,0,.47,1.86,1.86,0,0,0,2.21,1.49l5-1.12a2,2,0,0,0,1.44-2.3,1.87,1.87,0,0,0-2.21-1.49Z" style="fill:#231815"/><path d="M8.56,77.19a1.81,1.81,0,0,1-1.71,1.89l-4.21-.14a2,2,0,0,1,.13-3.88L7,75.2A1.82,1.82,0,0,1,8.56,77.19Z" style="fill:#231815"/><path d="M14,105a2.21,2.21,0,0,1,.19,1,2,2,0,0,1-.88,1.66L9.54,110a1.52,1.52,0,0,1-2.23-.78A2.12,2.12,0,0,1,8,106.54l3.72-2.35A1.52,1.52,0,0,1,14,105Z" style="fill:#231815"/><path d="M10.06,91.57a3.55,3.55,0,0,1,0,.46,1.91,1.91,0,0,1-1.32,1.84L4.32,95a1.66,1.66,0,0,1-2-1.49,2,2,0,0,1,1.29-2.3L8.1,90.08A1.67,1.67,0,0,1,10.06,91.57Z" style="fill:#231815"/><path d="M15.23,47.16a2,2,0,0,1,.77,1.7,2.18,2.18,0,0,1-.25,1,1.53,1.53,0,0,1-2.28.64L9.91,47.87a2.12,2.12,0,0,1-.52-2.67,1.53,1.53,0,0,1,2.28-.63Z" style="fill:#231815"/><path d="M9.86,60.56a1.91,1.91,0,0,1,1.19,1.92A2.52,2.52,0,0,1,11,63,1.66,1.66,0,0,1,8.94,64.3L4.57,62.88a2,2,0,0,1-1.13-2.39,1.65,1.65,0,0,1,2-1.35Z" style="fill:#231815"/><path d="M47.4,59.79a45.36,45.36,0,0,1-8.91,4.39,47,47,0,0,1-7.74-18.67l-.07-.08C36.78,40.27,53.5,32.8,58,30.84c0,0,3.68,12.22,16.58,13.15,16.68,1.19,19.16-12.46,19.16-12.46C98.3,33.07,113.4,38.62,121.5,47c0,0-7.59,14.24-12,17.56l-8.8-5.94c1.33,10.83,1.74,36,1.74,38.61,0,2-3.38-1.55-12.07,7.13-6.82,6.83-7.67,12.79-7.67,12.79-8.41,5.49-18.65,0-18.65,0C59.11,94.52,46.31,97.91,45.22,95.26,43.59,91.32,46.34,68.07,47.4,59.79Z" style="fill:#ffb71b"/><path d="M74.11,121.11a24.87,24.87,0,0,1-10.75-2.63,1.45,1.45,0,0,1-.74-1C59.1,101.33,51.56,99.18,47.51,98c-1.73-.5-3.1-.89-3.65-2.2-1.54-3.73.25-21.3,1.71-33.25a35.9,35.9,0,0,1-6.66,3A1.46,1.46,0,0,1,37.28,65a49,49,0,0,1-7.93-19,1.45,1.45,0,0,1,.39-1.71c6.2-5.25,22.74-12.66,27.66-14.81a1.46,1.46,0,0,1,2,.92c.14.46,3.58,11.27,15.29,12.11,15.19,1.1,17.52-10.76,17.61-11.26a1.47,1.47,0,0,1,1.91-1.13c4.54,1.54,20,7.21,28.35,15.89a1.46,1.46,0,0,1,.24,1.7c-.32.6-7.79,14.56-12.41,18a1.46,1.46,0,0,1-1.7,0l-6.2-4.19c1.09,12.05,1.42,33.46,1.42,35.64,0,2-1.77,2.19-2.53,2.27-1.49.17-4.58.51-10,5.89-6.41,6.41-7.26,11.91-7.27,12a1.46,1.46,0,0,1-.64,1A16.93,16.93,0,0,1,74.11,121.11Zm-8.79-4.93c2.13,1,9.69,3.86,16.07.1.45-1.86,2.14-7.11,8-12.92,6-6,9.79-6.51,11.63-6.72,0-4.62-.47-27.59-1.73-37.8a1.46,1.46,0,0,1,2.27-1.39l7.88,5.31c3.22-3.11,8.06-11.36,10.3-15.45-7.26-7-19.51-11.94-24.94-13.88-1.7,5.3-7.45,12.94-20.28,12-10.9-.79-15.73-9.15-17.28-12.66C48,36.87,37.18,42.22,32.31,46a47.2,47.2,0,0,0,6.78,16.44,49.75,49.75,0,0,0,7.52-3.88,1.48,1.48,0,0,1,1.57,0A1.46,1.46,0,0,1,48.85,60c-2.35,18.44-3.25,32-2.32,34.62a11.78,11.78,0,0,0,1.78.61C52.56,96.42,61.35,98.93,65.32,116.18ZM46.57,94.7h0Z" style="fill:#231815"/><path d="M92.38,31.09s2.84.87,3.7,1.16a21,21,0,0,1-21.7,13.11C61.48,44.44,55.84,32,55.84,32c.72-.31,3.27-1.6,3.27-1.6,1,1,8.23,10.43,17.19,10.43S92.38,31.09,92.38,31.09Z" style="fill:#ef90b9"/><path d="M76.32,46.9c-.66,0-1.34,0-2-.08-13.61-1-19.52-13.72-19.77-14.27a1.47,1.47,0,0,1,.75-1.94c.56-.25,2.5-1.21,3.2-1.56a1.46,1.46,0,0,1,1.7.27l.58.64c5.45,6.21,10.68,9.36,15.57,9.36,8.1,0,14.84-9,14.91-9.1a1.46,1.46,0,0,1,1.6-.53s2.87.88,3.74,1.17a1.5,1.5,0,0,1,.85.75,1.48,1.48,0,0,1,.06,1.13C97.41,32.88,92.29,46.9,76.32,46.9ZM57.85,32.61c1.79,3,7.15,10.62,16.63,11.3C87,44.79,92.4,36.54,94.09,33.15l-1.18-.37c-2,2.46-8.54,9.46-16.61,9.46-8.4,0-15.07-7.28-17.54-10.08Z" style="fill:#231815"/><path d="M40.77,63.3a38.77,38.77,0,0,1-4.33,1.24c-3.47,0-9.29-13-7.86-16.63.28-.73,1.92-2.08,3-3l-.82.6C34.37,55,34.76,54.5,40.77,63.3Z" style="fill:#ef90b9"/><path d="M36.44,66c-1.54,0-3.12-1.21-4.81-3.7-2.72-4-5.72-11.63-4.41-14.94a8.27,8.27,0,0,1,2.26-2.6,1.56,1.56,0,0,1,.41-.44l.82-.6A1.46,1.46,0,0,1,32.52,46h0C35,52.56,35.88,53.77,39,58.17c.82,1.17,1.8,2.55,3,4.31a1.46,1.46,0,0,1-.79,2.22l-.81.26A17.07,17.07,0,0,1,36.44,66ZM30.19,48.13a1.81,1.81,0,0,0-.26.35C29.32,50,31,55.87,33.74,60.19c1.48,2.32,2.47,2.88,2.71,2.89s1.17-.31,2-.57l-1.85-2.66A42.45,42.45,0,0,1,30.19,48.13Z" style="fill:#231815"/><path d="M119.75,45.52c.5.52,2.73,2.58,3.17,3.12,0,0-7.13,15.72-11.34,17.37l-4.19-2.86C111.8,59.83,119.75,45.52,119.75,45.52Z" style="fill:#ef90b9"/><path d="M111.58,67.47a1.49,1.49,0,0,1-.82-.25l-4.2-2.86a1.46,1.46,0,0,1,0-2.38c3.41-2.57,9.79-13.27,12-17.18a1.46,1.46,0,0,1,1.09-.73,1.43,1.43,0,0,1,1.24.43c.17.18.57.55,1,1,1.11,1.06,1.92,1.84,2.23,2.22a1.47,1.47,0,0,1,.2,1.53C123,52,116.64,65.6,112.11,67.37A1.39,1.39,0,0,1,111.58,67.47ZM109.74,63l1.92,1.31c2.53-1.91,6.82-9.59,9.51-15.36-.33-.33-.73-.72-1.08-1C118.1,51.32,113.38,59.2,109.74,63Z" style="fill:#231815"/><path d="M85.44,68.87A9,9,0,0,1,87,76.47c-1.4,5.69-7.4,10.22-10.85,12.41a3.94,3.94,0,0,1-4.23,0c-3.4-2.16-9.33-6.64-10.83-12.38A8.6,8.6,0,0,1,62.47,69a7.6,7.6,0,0,1,6-3A9.88,9.88,0,0,1,74,67.84,10.14,10.14,0,0,1,79.55,66,7.36,7.36,0,0,1,85.44,68.87Z" style="fill:#231815"/><path d="M83.38,70.49a6.26,6.26,0,0,1,1,5.36c-1.22,5-7.2,9.23-9.71,10.82a1.35,1.35,0,0,1-1.42,0c-2.48-1.57-8.39-5.78-9.72-10.84a6,6,0,0,1,1-5.24,5,5,0,0,1,4-2,7.7,7.7,0,0,1,4.66,1.86l.8.62.8-.61a8.09,8.09,0,0,1,4.77-1.88A4.77,4.77,0,0,1,83.38,70.49Z" style="fill:#e96bb0"/></svg>