<svg id="圖層_1" data-name="圖層 1" xmlns="http://www.w3.org/2000/svg" viewBox="0 0 150 150"><title>ms-40</title><path d="M114.67,98.53a3.39,3.39,0,0,1-2.87-.13c-2.93-1.08-9.15-3.2-9.85,2.61-.35,2.88,2.13,5.81,4.43,5.83,3.14,0,6.49-1.18,9.46-2.47,1.28-.55,2,4.83,3.9,1.39,1-1.81.91-5.92-.47-7.45-1.2-1.33-2.87-.51-4.18,0Z" style="fill:#fbded7"/><path d="M118.54,108.38c-1.34,0-2.06-1.19-2.6-2.06,0-.1-.12-.21-.19-.32a25.06,25.06,0,0,1-9.27,2.31h-.11a5.73,5.73,0,0,1-4.1-2.11,7,7,0,0,1-1.77-5.37,5.54,5.54,0,0,1,2.5-4.36c3-1.79,7.4-.14,9.31.56,1.06.4,1.24.36,1.84.13h0l.34-.14.2-.09c1.32-.57,3.8-1.64,5.64.4s1.93,6.83.67,9.13c-.25.47-1,1.88-2.43,1.92Zm-12.29-9.8a3.38,3.38,0,0,0-1.73.39c-.23.14-.92.56-1.12,2.22a4,4,0,0,0,1.07,3.08,2.9,2.9,0,0,0,1.92,1.11h.09c3,0,6.25-1.25,8.78-2.35,1.67-.72,2.69,1,3.18,1.76,0,0,0,.09.08.14.69-1.48.51-4.7-.34-5.64-.34-.38-.84-.31-2.31.33l-.2.08a4.61,4.61,0,0,1-.49.2,4.83,4.83,0,0,1-3.89-.12A16.07,16.07,0,0,0,106.25,98.58Z" style="fill:#231815"/><path d="M66.44,101.3c-1.85,1.57-13.35,4.86-11.4,9s14.22-1.81,15.81-2.33" style="fill:#fbded7"/><path d="M58.23,113.28c-2,0-3.72-.62-4.51-2.32a3.59,3.59,0,0,1-.12-2.87c1-2.84,5.45-4.84,9-6.45a20.7,20.7,0,0,0,2.9-1.46,1.46,1.46,0,0,1,1.9,2.23,17.65,17.65,0,0,1-3.59,1.9c-2.56,1.16-6.83,3.1-7.46,4.79a.73.73,0,0,0,0,.63c.32.69,2.19,1.83,12.56-2.52.71-.29,1.18-.49,1.47-.59a1.47,1.47,0,1,1,.9,2.79c-.22.07-.65.25-1.24.5C67.09,111.16,62,113.28,58.23,113.28Z" style="fill:#231815"/><path d="M67.47,95.85a7.87,7.87,0,0,1,.3-.81c2.51-5.68,15.6-7.06,20.82-5.53,6.79,2,12,9.1,14.2,15.76,2.33,6.93-3.08,10.81-8.51,11.42-5,.57-13-1.9-17.46-4C71.78,110.32,65.7,101.84,67.47,95.85Z" style="fill:#fbded7"/><path d="M92.69,118.24c-5.48,0-12.65-2.42-16.49-4.23C70.8,111.47,64,102.35,66.07,95.44h0a8.72,8.72,0,0,1,.36-1C69.31,87.93,83.17,86.4,89,88.11c7.83,2.3,13.07,10.43,15.17,16.7a9.37,9.37,0,0,1-.7,8.29c-1.73,2.72-5.1,4.6-9,5A14.09,14.09,0,0,1,92.69,118.24Zm-23.82-22c-1.56,5.26,4.16,13,8.58,15.1,4.77,2.25,12.23,4.37,16.66,3.87,3.06-.35,5.63-1.73,6.89-3.71a6.52,6.52,0,0,0,.4-5.79c-1.88-5.6-6.48-12.84-13.22-14.82-4.7-1.38-17,0-19.07,4.71A6.05,6.05,0,0,0,68.87,96.27Z" style="fill:#231815"/><path d="M111.15,90.42c2.13,5.6,1.25,12.32-1.27,17.42-2.95,6-7.86,7.2-13.71,8.66-3.58.9-4.58-2.42-5.47-5.6-1.57-5.64-2.22-11.44-3.16-17.21-.47-2.9-.78-4.26,1.77-5.94,1.93-1.26,4.41-1.83,6.58-2.46C101,83.82,108.75,84.08,111.15,90.42Z" style="fill:#fff"/><path d="M95,118.12c-3.8,0-5-4.2-5.7-6.82A110.36,110.36,0,0,1,86.73,98c-.21-1.36-.41-2.72-.63-4.08l0-.25c-.46-2.79-.82-5,2.45-7.15a20.94,20.94,0,0,1,6-2.36l1-.28c6.4-1.86,14.47-.77,17,6h0c2.1,5.53,1.59,12.66-1.33,18.59-3.25,6.59-8.8,8-14.67,9.43A6.11,6.11,0,0,1,95,118.12ZM101.11,86a17.81,17.81,0,0,0-4.81.67l-1,.28a18.61,18.61,0,0,0-5.16,2c-1.69,1.1-1.61,1.58-1.17,4.23l0,.25c.22,1.37.43,2.74.63,4.12a110.82,110.82,0,0,0,2.49,12.93c1.16,4.13,1.88,5,3.71,4.57,5.64-1.4,10.09-2.51,12.75-7.88s3-11.46,1.21-16.26h0C108.34,87.13,104.57,86,101.11,86Z" style="fill:#231815"/><path d="M71.88,104.37c-1.85,1.57-13.35,4.86-11.4,9s14.22-1.82,15.81-2.33" style="fill:#fbded7"/><path d="M63.68,116.35c-2,0-3.73-.62-4.52-2.32a3.63,3.63,0,0,1-.12-2.87c1.05-2.84,5.45-4.84,9-6.45a20.36,20.36,0,0,0,2.9-1.45,1.46,1.46,0,1,1,1.9,2.22,17.37,17.37,0,0,1-3.59,1.9c-2.56,1.16-6.83,3.1-7.46,4.79a.77.77,0,0,0,0,.63c.32.69,2.19,1.83,12.56-2.52.71-.3,1.18-.49,1.47-.59a1.47,1.47,0,1,1,.9,2.79c-.22.07-.65.25-1.24.5C72.53,114.23,67.48,116.35,63.68,116.35Z" style="fill:#231815"/><path d="M115.51,104.3a3.36,3.36,0,0,1-2.86-.21c-2.9-1.16-9.06-3.46-9.93,2.33-.43,2.88,2,5.87,4.27,6,3.14.11,6.53-1,9.53-2.2,1.3-.52,1.89,4.87,3.86,1.49,1-1.78,1.07-5.89-.26-7.46-1.17-1.36-2.85-.59-4.18-.07C115.79,104.2,115.65,104.26,115.51,104.3Z" style="fill:#fbded7"/><path d="M119.16,114.26h0c-1.37,0-2.07-1.24-2.58-2.14-.06-.09-.12-.21-.19-.32a24.84,24.84,0,0,1-9.44,2,5.67,5.67,0,0,1-4-2.21,7,7,0,0,1-1.62-5.43,5.56,5.56,0,0,1,2.62-4.28c2.64-1.51,6.18-.43,9.29.82,1.06.42,1.24.39,1.84.18a3.44,3.44,0,0,0,.37-.14l.2-.07c1.34-.54,3.84-1.54,5.63.55s1.74,6.88.41,9.15C121.38,112.87,120.57,114.26,119.16,114.26Zm-2.1-2.72Zm-10.13-7.43a3.14,3.14,0,0,0-1.57.35c-.24.13-.94.53-1.19,2.18a4.1,4.1,0,0,0,1,3.12,2.9,2.9,0,0,0,1.89,1.15c3,.12,6.35-1.06,8.94-2.09,1.69-.68,2.66,1,3.13,1.85l.07.14c.73-1.46.65-4.68-.18-5.65-.33-.39-.81-.34-2.32.26l-.2.08-.49.19h0a4.8,4.8,0,0,1-3.89-.24A15.81,15.81,0,0,0,106.93,104.11Zm8.58.19h0Z" style="fill:#231815"/><path d="M14.66,76.46a1.41,1.41,0,0,1-1.52,1.28l-5,.06a1.42,1.42,0,0,1-1.55-1.25,1.41,1.41,0,0,1,1.52-1.27l5-.06A1.41,1.41,0,0,1,14.66,76.46Z" style="fill:#231815"/><path d="M17.55,88.09a1.19,1.19,0,0,1,.05.32,1.32,1.32,0,0,1-1.13,1.23l-5.65,1.3a1.59,1.59,0,0,1-1.89-.87A1.25,1.25,0,0,1,10,88.51l5.66-1.29A1.6,1.6,0,0,1,17.55,88.09Z" style="fill:#231815"/><path d="M15.94,63.19A1.35,1.35,0,0,1,17.1,64.4a1.13,1.13,0,0,1-.05.32,1.59,1.59,0,0,1-1.87.92L9.74,64.52A1.26,1.26,0,0,1,8.63,63a1.58,1.58,0,0,1,1.87-.91Z" style="fill:#231815"/><path d="M113.66,67a1.85,1.85,0,0,0-.16,1.47,2,2,0,0,0,.94,1.15,1.89,1.89,0,0,0,1.47.15A1.94,1.94,0,1,0,113.66,67Z" style="fill:#231815"/><path d="M120.45,42.57l-2.79.83-.83-2.79a1.94,1.94,0,0,0-3.72,1.11l.83,2.79-2.78.83a1.94,1.94,0,1,0,1.11,3.72l2.78-.84.84,2.79a1.94,1.94,0,1,0,3.71-1.11l-.83-2.79,2.79-.83a1.94,1.94,0,0,0-1.11-3.71Z" style="fill:#231815"/><path d="M141.75,57.64a5.18,5.18,0,1,1-6.37-3.25A5.06,5.06,0,0,1,141.75,57.64Z" style="fill:#ffb71b"/><path d="M136.67,65.54A6.45,6.45,0,0,1,130.44,61,6.2,6.2,0,0,1,131,56.1,6.74,6.74,0,0,1,135,53a6.66,6.66,0,0,1,5,.44,6.19,6.19,0,0,1,3.19,3.79h0a6.53,6.53,0,0,1-4.52,8A6.7,6.7,0,0,1,136.67,65.54Zm.26-9.91a4.06,4.06,0,0,0-1.13.16,3.81,3.81,0,0,0-2.24,1.76,3.34,3.34,0,0,0-.32,2.63,3.72,3.72,0,0,0,7.11-2.12h0a3.34,3.34,0,0,0-1.71-2A3.77,3.77,0,0,0,136.93,55.63Z" style="fill:#231815"/><path d="M100.33,76.73c.06-8.14-2.29-16.46-6.65-22.43C87,45.09,75.7,40,64.43,39.71a38.06,38.06,0,0,0-27.2,10.1,30.55,30.55,0,0,0-8.42,15.5c-1.29,5.6-2.71,12.78-1.75,18.52C31.13,108.17,84.19,111,95.28,94.67,98.67,89.68,100.28,83.26,100.33,76.73Z" style="fill:#fbded7"/><path d="M66.43,106.48a69.36,69.36,0,0,1-14.77-1.62C36.78,101.6,27.28,94,25.62,84.07c-1-5.84.35-12.93,1.77-19.09a31.77,31.77,0,0,1,8.83-16.22A39.43,39.43,0,0,1,64.47,38.25c12.31.31,23.67,6,30.39,15.19,4.47,6.12,7,14.62,6.93,23.3h0c-.06,7.14-1.94,13.8-5.3,18.75C92.29,101.69,80.82,106.48,66.43,106.48Zm-3-65.32a36.42,36.42,0,0,0-25.16,9.71,29,29,0,0,0-8,14.77c-1.36,5.88-2.63,12.62-1.73,18C30,92.3,38.63,99,52.29,102c17.4,3.81,36.15.15,41.78-8.15,3-4.48,4.74-10.57,4.8-17.13.06-8-2.32-16-6.37-21.55-6.19-8.47-16.7-13.71-28.11-14Zm36.93,35.57h0Z" style="fill:#231815"/><path d="M54.87,69.94c-.39,2.51-2.34,4.29-4.35,4s-3.35-2.59-3-5.1,2.33-4.27,4.35-4,3.34,2.59,3,5.08" style="fill:#231815"/><path d="M65.44,45.84h0A1.46,1.46,0,0,1,64,44.34c.11-3.57.25-8,2.44-11.84A1.46,1.46,0,0,1,69,34c-1.83,3.2-2,7.06-2,10.48A1.46,1.46,0,0,1,65.44,45.84Z" style="fill:#231815"/><path d="M60,46.6a1.46,1.46,0,0,1-1.35-.89c-1.39-3.29-3.13-7.38-2.75-11.77a1.49,1.49,0,0,1,1.59-1.33,1.47,1.47,0,0,1,1.33,1.59c-.32,3.66,1.19,7.22,2.53,10.37a1.47,1.47,0,0,1-1.35,2Z" style="fill:#231815"/><path d="M71.72,46.83a1.57,1.57,0,0,1-.37,0,1.46,1.46,0,0,1-1-1.78c.89-3.46,2-7.77,5-11a1.46,1.46,0,0,1,2.17,2C75,38.66,74,42.41,73.13,45.73A1.46,1.46,0,0,1,71.72,46.83Z" style="fill:#231815"/><path d="M33.1,86.28a13.6,13.6,0,0,1-5.59-1.22,1.42,1.42,0,0,1,1.17-2.59c4.68,2.12,9.92.69,11.67-3.19a1.42,1.42,0,0,1,2.59,1.17C41.26,84.16,37.38,86.28,33.1,86.28Z" style="fill:#231815"/><path d="M74.71,73.5c8.52-2.34,8.81,14.26-1.65,11.38" style="fill:#fbded7"/><path d="M75.36,86.68a10.05,10.05,0,0,1-2.69-.39,1.46,1.46,0,1,1,.78-2.82c2.33.64,4.12.19,5.18-1.31A5.74,5.74,0,0,0,78.69,76a3,3,0,0,0-3.59-1.09,1.47,1.47,0,0,1-.78-2.83,5.93,5.93,0,0,1,6.76,2.23A8.64,8.64,0,0,1,81,83.84,6.66,6.66,0,0,1,75.36,86.68Z" style="fill:#231815"/></svg>