<svg id="圖層_1" data-name="圖層 1" xmlns="http://www.w3.org/2000/svg" viewBox="0 0 150 150"><title>ms-41</title><path d="M76.73,50.05a9.93,9.93,0,0,1-19.83,0,9.93,9.93,0,0,1,19.83,0Z" style="fill:#fbded7"/><path d="M125.88,93.8c0,5.18-3.91,9.38-8.73,9.38s-8.73-4.2-8.73-9.38,3.91-9.37,8.73-9.37S125.88,88.62,125.88,93.8Z" style="fill:#fbded7"/><path d="M118,118.54a5.18,5.18,0,1,1-5.17-4.94A5.05,5.05,0,0,1,118,118.54Z" style="fill:#e96bb0"/><path d="M112.82,124.94a6.4,6.4,0,1,1,6.64-6.4A6.53,6.53,0,0,1,112.82,124.94Zm0-9.87a3.48,3.48,0,1,0,3.71,3.47A3.59,3.59,0,0,0,112.82,115.07Z" style="fill:#231815"/><path d="M28.18,18.51a1.93,1.93,0,0,0-1.33-.67,2,2,0,0,0-2.07,1.8,2.05,2.05,0,0,0,.47,1.42,2,2,0,0,0,1.34.65,1.9,1.9,0,0,0,1.4-.47A2,2,0,0,0,28.18,18.51Z" style="fill:#231815"/><path d="M48.62,33.44l.2-2.9,2.9.2A1.94,1.94,0,1,0,52,26.87l-2.9-.2.2-2.9a1.94,1.94,0,1,0-3.87-.27l-.2,2.9-2.9-.2a1.94,1.94,0,1,0-.27,3.87l2.9.2-.2,2.91a1.94,1.94,0,0,0,3.87.26Z" style="fill:#231815"/><path d="M26.82,50.91a5.18,5.18,0,1,1,5.28-4.82A5.06,5.06,0,0,1,26.82,50.91Z" style="fill:#ffb71b"/><path d="M27.15,52.39l-.43,0h0a6.53,6.53,0,0,1-5.93-7.06A6.69,6.69,0,0,1,23,40.78a6.25,6.25,0,0,1,4.68-1.65,6.52,6.52,0,0,1,5.92,7.06,6.69,6.69,0,0,1-2.17,4.53A6.25,6.25,0,0,1,27.15,52.39Zm-.23-2.94a3.31,3.31,0,0,0,2.5-.89A3.82,3.82,0,0,0,30.64,46a3.6,3.6,0,0,0-3.21-3.94,3.33,3.33,0,0,0-2.5.89,3.82,3.82,0,0,0-1.22,2.57,3.6,3.6,0,0,0,3.21,3.94Z" style="fill:#231815"/><path d="M69.75,71S66.53,65.43,67,61.17s0-2.26-1.25-2.49-6.28-2.12-6.28-2.12-1.82-2.05-2.41,2.12c0,0-2.84,5.27,2.25,10.85,0,0-4.16,2.76-5.52,4.77,0,0-7-10.95-18.25-1.26,0,0-8.82-6-12.34,4.25,0,0-3.35,10,4.41,16.34s14,.31,14.56-4.85c0,0,4.23-5.48,7.71.23s9.43,13.22,9.43,13.22l6.58,5.64s-8.83,1.38-10.25,7.4.43,13.58,14.08,15.86c0,0,11,1.21,10.44-10.07,0,0,8.32-6.31,1.06-14.62l12.1-7.65a17.84,17.84,0,0,0,17.44,1.29s-3.82-4.56-.43-11.48l-1.94-2a9.59,9.59,0,0,1-2.59,1.33S91.71,90.63,83.14,84A79,79,0,0,1,69.75,71" style="fill:#ef90b9"/><path d="M110.82,87.82s-.18-.17-.24-.17.14.11,0,0l-.11-.1a5,5,0,0,1-.46-.46c-.07-.07-.14-.16-.21-.24s0,0,0,0l-.1-.14a7,7,0,0,1-.41-.64,1,1,0,0,0-1.4-.37,1,1,0,0,0-.36,1.4,7.47,7.47,0,0,0,2.25,2.46,1,1,0,0,0,1.39-.36,1,1,0,0,0-.36-1.4" style="fill:#231815"/><path d="M54.7,74.81l.25-.37.08-.11c-.09.12.08-.09.11-.13.22-.27.45-.52.69-.77A17.68,17.68,0,0,1,57.48,72c.12-.09-.13.1,0,0l.1-.07.23-.17c.16-.13.33-.25.51-.37.34-.22.68-.45,1-.66a20.46,20.46,0,0,1,2.18-1.13l.32-.14c-.19.08-.05,0,0,0l.2-.08.64-.24c.44-.16.89-.3,1.34-.42a1,1,0,0,0,.71-1.25,1,1,0,0,0-1.25-.71,20.27,20.27,0,0,0-8.92,5.1,12,12,0,0,0-1.61,2,1,1,0,0,0,.36,1.4,1,1,0,0,0,1.4-.37" style="fill:#231815"/><path d="M91.38,98.3a20.93,20.93,0,0,0,7.42,3.8,25.52,25.52,0,0,0,3.36.64,13.59,13.59,0,0,0,4.22-.14,28.4,28.4,0,0,0,4.68-1.43,1,1,0,0,0-.55-2,30.9,30.9,0,0,1-4,1.3l-.9.18-.24,0c-.28.05.22,0-.06,0l-.53.06a11.9,11.9,0,0,1-2,0l-.44,0c-.3,0,.21,0-.09,0l-.27,0-.84-.15c-.46-.07-.92-.17-1.38-.28s-1-.28-1.55-.45l-.77-.29a3.34,3.34,0,0,1-.44-.17c.22.1,0,0,0,0l-.25-.12a18.36,18.36,0,0,1-2-1c-.33-.2-.67-.42-1-.64l-.54-.38L93,97l-.16-.12c.08.06.07.05,0,0a1.16,1.16,0,0,0-.72-.3,1,1,0,0,0-.72,1.74" style="fill:#231815"/><path d="M118.81,86.68a9.2,9.2,0,0,1,1.66,0l.19,0h.08l-.12,0,.38.07a5.48,5.48,0,0,1,.67.17L122,87l.13,0c.21.08-.27-.12,0,0s.38.18.57.29.36.24.54.37-.25-.2-.07,0l.11.09.24.21a4.89,4.89,0,0,1,.44.47l.09.11c.14.17-.11-.15,0-.07s.13.17.18.26a8.61,8.61,0,0,1,.61,1.11c0,.12-.12-.3,0-.06l.06.14c0,.11.08.22.11.33a6.32,6.32,0,0,1,.18.62c.06.22.1.44.14.67s0,.2,0,.3c-.07-.43,0,0,0,.12a10.6,10.6,0,0,1,0,1.38c0,.24,0,.49,0,.73l0,.32a1.11,1.11,0,0,0,0,.19,1.25,1.25,0,0,1,0-.17s0,.08,0,.11a12.67,12.67,0,0,1-.74,2.78c0,.06,0,.11-.07.17-.09.21.1-.24,0-.06s-.1.24-.16.36-.2.41-.31.62a11.41,11.41,0,0,1-.76,1.19l-.11.15,0,0-.23.29c-.15.17-.3.33-.46.49s-.34.33-.52.48l-.24.2,0,0-.14.11a7.59,7.59,0,0,1-1.17.68l-.16.07c-.2.1.25-.09.07,0l-.35.13-.65.19-.33.07-.16,0h-.09c-.2,0,.27,0,.11,0l-.71,0a6.6,6.6,0,0,1-.77,0l-.36,0c-.15,0,.17,0,.15,0h-.12l-.2,0a9.26,9.26,0,0,1-1.64-.45l-.41-.16c-.12,0,.25.11.09,0l-.09,0-.27-.13c-.29-.13-.58-.28-.86-.44s-.61-.36-.9-.56l-.15-.1-.11-.08s.22.17.1.07l-.34-.29a6.35,6.35,0,0,1-.62-.65.35.35,0,0,0,0-.08c-.1-.11.07.1.07.1l-.13-.18c-.09-.12-.18-.25-.26-.38a7.89,7.89,0,0,1-.44-.81s0-.11-.08-.17a.75.75,0,0,0-.06-.13l.05.12c-.05-.15-.11-.3-.17-.45a10.21,10.21,0,0,1-.46-1.83l0-.24s0,.29,0,.13,0-.09,0-.13,0-.34,0-.52,0-.63,0-.94,0-.67,0-1c0-.15,0-.3,0-.45s0,.12,0,.12,0-.1,0-.15,0-.16,0-.25a10.78,10.78,0,0,1,.47-1.86c0-.15.11-.3.16-.44l.09-.2c-.11.34,0,0,0-.07a8.62,8.62,0,0,1,.41-.8c.16-.27.33-.54.51-.79A1.34,1.34,0,0,0,112,88c-.19.29,0,.06,0,0s.2-.24.3-.35a5.56,5.56,0,0,1,.66-.62l.14-.11c-.26.24-.07,0,0,0l.37-.25.37-.21.19-.09s.32-.14.12-.06,0,0,.09,0l.22-.08a3.6,3.6,0,0,1,.44-.12l.44-.1c.1,0,.35,0,0,0a2.48,2.48,0,0,0,.27,0l.47,0c.22,0,.43,0,.64,0-.24,0-.12,0,0,0l.16,0,.3.07c.22.06.44.12.65.2s.18.11,0,0l.12.06a2.1,2.1,0,0,1,.3.15,4.73,4.73,0,0,1,.56.35l.06,0c.07,0,.07,0,0,0l0,0,.1.09.23.19c.16.15.31.31.45.47l.11.13s-.13-.18,0,0l.18.27a4,4,0,0,1,.32.57,1,1,0,0,1,.07.15c.07.13-.09-.24,0,0a2.29,2.29,0,0,1,.09.28,4.61,4.61,0,0,1,.16.64c0,.08,0,.22,0,0,0,0,0,.09,0,.14s0,.23,0,.34,0,.46,0,.69c0-.3,0,.08,0,.16s0,.21-.08.31-.11.21-.1.27c0-.1.09-.19,0,0l-.09.16a2.92,2.92,0,0,1-.29.48.53.53,0,0,0-.06.1c.13-.24.07-.1,0,0l-.18.2c-.07.06-.13.13-.2.18l-.09.07c.17-.18.14-.1.06,0a3.23,3.23,0,0,1-.44.27l-.12.05c-.14.07.1,0,.11,0a2.34,2.34,0,0,0-.24.09,2.68,2.68,0,0,0-.49.11c.15-.09.24,0,.1,0h-.57s-.21,0,0,0,0,0,0,0a2.64,2.64,0,0,1-.46-.13c-.24-.09.19.1,0,0l-.25-.14-.22-.14c-.06,0-.12-.12.08.07l-.1-.09a2.59,2.59,0,0,1-.37-.37s0-.07-.08-.09c.17.14.1.13,0,0l-.15-.22-.15-.27c0-.07-.18-.39-.06-.11a1.18,1.18,0,0,0-.47-.61,1.06,1.06,0,0,0-.78-.1A1,1,0,0,0,114,92a4.93,4.93,0,0,0,1.81,2.3,4.1,4.1,0,0,0,2.38.65,4.6,4.6,0,0,0,4-3.23,5.68,5.68,0,0,0,.07-3.19,6.28,6.28,0,0,0-1.52-2.66,6.5,6.5,0,0,0-5.29-2,7.28,7.28,0,0,0-4,1.69,8.83,8.83,0,0,0-2.35,3.22,13,13,0,0,0-.69,8.59,9.44,9.44,0,0,0,2,3.73,9.85,9.85,0,0,0,3.45,2.35,9.13,9.13,0,0,0,7,.43,9.74,9.74,0,0,0,4.75-4.23,13.53,13.53,0,0,0,1.79-6.18,9.82,9.82,0,0,0-1.43-5.79,6.82,6.82,0,0,0-2.21-2.13,7.62,7.62,0,0,0-3.22-1,9.65,9.65,0,0,0-1.7,0,1,1,0,0,0-1,1,1,1,0,0,0,1,1" style="fill:#231815"/><path d="M92.83,97.91c-2.88,1.76-5.82,3.42-8.66,5.24-.83.53-1.65,1.08-2.45,1.65a1,1,0,0,0-.37,1.39,1,1,0,0,0,1.4.37c2.81-2,5.79-3.72,8.75-5.47.79-.47,1.58-.94,2.36-1.42a1,1,0,0,0,.37-1.39,1,1,0,0,0-1.4-.37" style="fill:#231815"/><path d="M36.29,73.76a9.14,9.14,0,0,1,1.41-1.37c.15-.12-.17.13-.07,0l.11-.08.17-.12.44-.3c.28-.18.57-.34.87-.5l.43-.21.25-.11-.1,0L40,71.1a10.09,10.09,0,0,1,1-.34c.33-.1.66-.19,1-.26l.49-.09.24,0,.14,0c.21,0-.26,0,0,0a13.42,13.42,0,0,1,2.1-.09c.36,0,.71.06,1.06.1,0,0-.27,0-.1,0l.11,0,.27,0,.55.11c.35.08.7.17,1,.28l.48.17.22.08c.06,0,.24.12,0,0l.16.07a10.82,10.82,0,0,1,1.87,1.06l.26.19-.07-.05.14.11c.17.13.33.28.49.42a10.78,10.78,0,0,1,.88.91l.2.24.1.12c0,.06,0,0-.06-.08l.07.1c.13.17.25.34.37.52a14,14,0,0,1,.72,1.25,1,1,0,0,0,1.76-1,12.08,12.08,0,0,0-7.52-6.19,13.53,13.53,0,0,0-9.1.75,10.72,10.72,0,0,0-3.85,2.88,1,1,0,0,0,1.44,1.44" style="fill:#231815"/><path d="M77.2,105.15c.59.32,1.19.63,1.77,1l.77.47c.24.16.46.35.7.5l-.09-.07.07,0,.15.13.33.29a6.72,6.72,0,0,1,.58.61,1.83,1.83,0,0,1,.13.16c.12.13-.12-.17,0,0l.27.38a7.74,7.74,0,0,1,.48.83c.08.15.15.31.22.46a.86.86,0,0,1,.11.24l0-.07.07.18a10.76,10.76,0,0,1,.37,1.09,10,10,0,0,1,.23,1.09c0,.2,0-.18,0,0l0,.26a5.07,5.07,0,0,1,0,.55,9.21,9.21,0,0,1,0,1,2.13,2.13,0,0,0,0,.25s0-.25,0-.06c0,0,0,.07,0,.1s-.06.35-.1.53-.18.66-.29,1l-.09.23a.3.3,0,0,1,0,.1c0,.13.08-.17,0,0s-.14.33-.22.49a11.07,11.07,0,0,1-.59,1,2,2,0,0,1-.17.23s-.08.1-.08.12.11-.14,0,0-.25.3-.38.44a8.93,8.93,0,0,1-.87.87l-.24.19-.08.07c-.15.13.09-.06,0,0l-.54.38a1,1,0,0,0,1,1.77,11.14,11.14,0,0,0,3.39-3.51A9.62,9.62,0,0,0,85.43,114a10.79,10.79,0,0,0-1-4.85,9.1,9.1,0,0,0-2.34-3.28,20.69,20.69,0,0,0-3.87-2.44,1,1,0,0,0-1,1.76" style="fill:#231815"/><path d="M49.17,89.69a53.53,53.53,0,0,0,5.21,8.11,58.66,58.66,0,0,0,6.71,7.38c1.37,1.26,2.82,2.45,4.31,3.57a1,1,0,0,0,1.4-.36,1.06,1.06,0,0,0-.37-1.4l-.43-.33c-.06,0-.25-.19-.1-.07l-.27-.21c-.31-.25-.62-.49-.92-.75-.61-.5-1.21-1-1.79-1.54-1.2-1.09-2.35-2.22-3.45-3.41s-2.14-2.4-3.14-3.66c-.06-.09-.13-.17-.19-.25l-.08-.1h0c-.13-.16-.25-.33-.37-.49-.25-.33-.49-.65-.73-1-.46-.64-.91-1.3-1.35-2a51,51,0,0,1-2.68-4.57,1,1,0,0,0-1.39-.37,1,1,0,0,0-.37,1.4" style="fill:#231815"/><path d="M43.08,89.74a5.47,5.47,0,0,1,.41-.65c.13-.18-.13.16,0,0s.09-.1.13-.16l.29-.3a3.45,3.45,0,0,1,.28-.26.81.81,0,0,0,.14-.12c-.23.22,0,0,0,0a5.35,5.35,0,0,1,.7-.41c.08,0,.29-.09,0,0l.17-.06.4-.12.18,0c.1,0,.32,0,0,0,.14,0,.28,0,.42,0h.18s.31,0,.11,0,0,0,.08,0l.24,0a3.31,3.31,0,0,0,.41.14l-.11,0,.11,0,.24.13c.16.09.31.2.46.3l0,0,.13.11.21.2a5.68,5.68,0,0,1,.47.51l.1.12c-.05-.07-.06-.09,0,0l.25.36a1,1,0,0,0,1.76-1,5.91,5.91,0,0,0-4.28-2.91A5.25,5.25,0,0,0,42.65,87a6.21,6.21,0,0,0-1.33,1.68,1,1,0,1,0,1.76,1" style="fill:#231815"/><path d="M40.68,79.26a11.48,11.48,0,0,0-3.13-5.9,9.79,9.79,0,0,0-5.19-2.71,8.8,8.8,0,0,0-5.8,1,10,10,0,0,0-4.2,5.12,12.81,12.81,0,0,0-.78,6.37,20.19,20.19,0,0,0,2,6.6,16.08,16.08,0,0,0,4,5.26,10.26,10.26,0,0,0,6.12,2.49,9.53,9.53,0,0,0,3.47-.52,8.83,8.83,0,0,0,3.56-2,9.67,9.67,0,0,0,2.48-7.18A9.25,9.25,0,0,0,43,86.07a1,1,0,1,0-2,.55l.06.31,0,.17c0,.05,0,.28,0,.08s0,0,0,.07,0,.1,0,.15,0,.26,0,.4a9.68,9.68,0,0,1-.06,1.61c0,.18,0-.24,0,0a1.55,1.55,0,0,1,0,.21c0,.15-.05.29-.08.44s-.14.56-.22.83-.09.28-.14.41,0,.14-.08.2l0,.09c0,.12.09-.21,0,0a7.16,7.16,0,0,1-.4.78,2.85,2.85,0,0,1-.23.37,1.88,1.88,0,0,1-.12.18s-.18.25-.08.12-.05.06-.08.09l-.12.14-.33.35c-.1.1-.21.19-.33.29l-.07.06c-.14.12,0,0,0,0s-.18.13-.2.15a7.9,7.9,0,0,1-.8.46l-.41.19-.2.09.1,0-.15.06c-.27.11-.55.2-.83.29a7.44,7.44,0,0,1-.78.2l-.39.08-.19,0,.13,0H35a7.91,7.91,0,0,1-1.54,0l-.33,0h-.1l.14,0-.2,0c-.25,0-.49-.1-.72-.16s-.46-.13-.68-.21l-.33-.12-.07,0c-.15-.06.1,0,.1,0l-.19-.09a9.26,9.26,0,0,1-1.27-.7l-.59-.41c-.19-.14.15.12,0,0l-.14-.11-.3-.25a13.51,13.51,0,0,1-1.08-1.06c-.17-.19-.34-.38-.5-.58L27,91.41c-.06-.09.09.11.08.1L27,91.42l-.13-.18c-.31-.42-.6-.86-.87-1.31s-.52-.92-.75-1.4c-.12-.23-.23-.47-.33-.71l-.08-.18,0,.09,0-.07c-.06-.13-.11-.26-.16-.39a18.75,18.75,0,0,1-.89-3c-.05-.25-.1-.51-.14-.76s0-.23-.05-.34,0,.21,0,0,0-.14,0-.21a13.93,13.93,0,0,1-.1-1.44,12.73,12.73,0,0,1,0-1.38l0-.32c0-.17,0,.27,0,.07a1.11,1.11,0,0,1,0-.19c0-.23.09-.46.14-.69a14.2,14.2,0,0,1,.55-1.71s.11-.27,0-.1,0-.06,0-.1.12-.26.19-.39.25-.48.38-.72.27-.42.41-.63l.11-.15.05-.06-.06.08.22-.28a8,8,0,0,1,1-1l.11-.09.07-.06-.11.08.29-.2a5.5,5.5,0,0,1,.57-.36c.18-.1.37-.2.57-.29l.14-.06s-.26.1-.11,0l.06,0,.31-.11a7.5,7.5,0,0,1,1.24-.31l.15,0a.87.87,0,1,0-.1,0c.11,0,.22,0,.34,0s.42,0,.64,0l.62,0,.31,0-.14,0h.07l.18,0a7.53,7.53,0,0,1,1.24.32l.3.11.13,0,.09,0-.12,0c.2.1.4.18.6.29a8.29,8.29,0,0,1,1.14.7l.13.1-.11-.08.07.06.26.21c.18.15.35.31.52.48s.33.34.49.53l.21.25.06.08c.07.08-.09-.13-.08-.11l.12.16A10.24,10.24,0,0,1,37.75,77c.12.22.23.46.34.7l0,.07c.05.1-.06-.13,0-.11s0,.11.07.17l.15.4a11.58,11.58,0,0,1,.43,1.56,1,1,0,0,0,1.25.71,1,1,0,0,0,.71-1.26" style="fill:#231815"/><path d="M64.5,113.56a18.68,18.68,0,0,1,4.42-.08l.26,0h0l.53.09c.31.06.61.13.92.21a11.78,11.78,0,0,1,1.71.56s.09,0,.12,0l-.1,0,.21.09.4.19a6.72,6.72,0,0,1,.75.4,13.33,13.33,0,0,1,1.42.93s.09.08.15.11-.2-.16-.07,0l.08,0,.33.27.61.54c.4.38.78.77,1.15,1.18.19.21.38.41.55.63,0,0,.07.1.08.1l-.06-.08.11.15.27.4a7.58,7.58,0,0,1,.4.74l.09.2c.08.18-.07-.18,0,0l.15.41a8.19,8.19,0,0,1,.23.85c0,.14.06.27.08.4s0,.26,0,.09,0,.09,0,.14a8.88,8.88,0,0,1,0,1.71c0,.26,0-.17,0,0l0,.19a4,4,0,0,1-.09.48q-.11.42-.24.84l-.15.39c0,.11,0-.09,0-.09a1.34,1.34,0,0,0-.06.12l-.09.21a9.13,9.13,0,0,1-.45.82c-.08.13-.16.25-.25.37a1.63,1.63,0,0,1-.11.17l-.09.1s.12-.14,0,0c-.2.25-.41.48-.63.71a9.45,9.45,0,0,1-.75.67.31.31,0,0,0-.09.07l.07-.05a1,1,0,0,0-.16.12l-.34.21a6.47,6.47,0,0,1-.69.36c-.21.1.16-.06,0,0l-.17.07-.39.13a8.48,8.48,0,0,1-.83.22l-.4.08-.22,0-.1,0h.08a17.92,17.92,0,0,1-3.66,0s-.3,0-.14,0l-.11,0-.52-.08-.93-.18c-.63-.14-1.26-.3-1.87-.49s-1.17-.37-1.75-.59l-.4-.16-.21-.08h0c.16.06,0,0-.05,0l-.77-.35c-.48-.23-.94-.47-1.39-.74-.27-.16-.53-.33-.79-.51l-.4-.3c-.16-.11.11.1,0,0l-.24-.2a12.33,12.33,0,0,1-1.47-1.42l-.3-.37,0,0a1.7,1.7,0,0,1-.17-.23q-.29-.41-.54-.81c-.16-.28-.31-.56-.45-.85a1.47,1.47,0,0,1-.1-.22l0-.1c-.07-.16,0,0,0,0,0-.15-.12-.3-.18-.46a10.34,10.34,0,0,1-.47-1.84.3.3,0,0,1,0-.14s0,.22,0,.1l0-.25c0-.16,0-.33,0-.49,0-.33,0-.65,0-1l0-.47,0-.26s0-.07,0-.11,0,.19,0,.05c0-.35.12-.69.2-1s.18-.65.29-1c0-.07,0-.13.07-.2l0-.09c0-.1-.05.11-.05.11s.12-.27.19-.4a7.89,7.89,0,0,1,.43-.74,4,4,0,0,1,.23-.34l.11-.15a.81.81,0,0,0-.06.09.6.6,0,0,0,.09-.13A10.46,10.46,0,0,1,59,112.3l.32-.27.08-.06-.08.06.22-.16a8.73,8.73,0,0,1,.74-.5,13.73,13.73,0,0,1,1.64-.89l.4-.18c.18-.08-.17.07,0,0l.26-.1c.28-.11.57-.22.86-.31a17.19,17.19,0,0,1,1.8-.49c.3-.07.59-.12.89-.17l.22,0c.2,0-.2,0,0,0l.48,0a11.52,11.52,0,0,1,1.66-.06,1,1,0,1,0,0-2,17.06,17.06,0,0,0-7.69,1.72,11.72,11.72,0,0,0-5.66,5.15,11.11,11.11,0,0,0-.38,8.49A13.14,13.14,0,0,0,60.34,129a22.73,22.73,0,0,0,7.11,2.7,15.3,15.3,0,0,0,7.92-.08,9.23,9.23,0,0,0,4.8-13.26,14.05,14.05,0,0,0-2.41-2.81,16,16,0,0,0-2.91-2.19,15.42,15.42,0,0,0-8-2,21,21,0,0,0-2.38.18,1,1,0,0,0-1,1c0,.5.45,1.1,1,1" style="fill:#231815"/><path d="M60.06,68.81a6,6,0,0,1-.58-.55,3.27,3.27,0,0,1-.24-.27,1.71,1.71,0,0,1-.11-.14c-.11-.12.13.18,0,0a8.57,8.57,0,0,1-.79-1.34l-.08-.17a.3.3,0,0,0,0-.08s.09.21,0,.1-.1-.24-.14-.36-.17-.5-.24-.76-.13-.49-.18-.74-.05-.26-.07-.4l0-.18c0-.17,0,.23,0,0a14.52,14.52,0,0,1,0-3.16l0-.18c0-.19,0,.22,0,0l.06-.38q.06-.37.15-.75a13.38,13.38,0,0,1,.4-1.37c0-.13.09-.25.14-.37a.87.87,0,0,1,.07-.17s-.1.22-.06.12a.36.36,0,0,0,0-.09c.1-.22.21-.44.32-.64s.22-.38.34-.56l.09-.13s.16-.21,0-.05,0,0,0,0l.1-.12a1,1,0,0,0-1.44-1.44,10.6,10.6,0,0,0-2.24,5.44A13.24,13.24,0,0,0,56.31,67a8.75,8.75,0,0,0,2.31,3.29,1,1,0,1,0,1.44-1.44" style="fill:#231815"/><path d="M66.43,57.66l-1-.1c-.26,0,.16,0,0,0l-.23,0-.48-.08A13.91,13.91,0,0,1,63,57c-.27-.09-.53-.19-.8-.3s.23.11,0,0L62,56.61l-.38-.18-.7-.4-.31-.21-.16-.11-.06-.05c-.16-.11.15.12.06.05a8.31,8.31,0,0,1-1.09-1.05l-.11-.14c.21.24.07.09,0,0L59,54.23a5.63,5.63,0,0,1-.38-.68s0-.11-.08-.16v0c0-.13-.09-.25-.14-.38s-.15-.5-.21-.75-.05-.25-.07-.38,0-.28,0-.09,0-.07,0-.12a8.24,8.24,0,0,1,0-.86c0-.3,0-.61,0-.91l0-.23c0-.18,0,.22,0,0s0-.34.09-.5a13,13,0,0,1,.56-2l.09-.21,0-.09c0-.13-.08.18,0,.06s.13-.29.2-.44.29-.54.45-.8.15-.24.23-.36a3.18,3.18,0,0,0,.27-.37L60,45l.06-.07c0-.06.09-.11.13-.16l.3-.34c.2-.21.4-.41.62-.6a4,4,0,0,1,.31-.27s.22-.17.08-.07l.11-.08a10.39,10.39,0,0,1,1.47-.88l.37-.17c.17-.08-.2.08,0,0l.25-.09c.26-.1.53-.19.8-.27a8.15,8.15,0,0,1,.82-.2l.41-.07.2,0H65.8l.15,0a12.22,12.22,0,0,1,1.71-.06c.3,0,.6,0,.89.07l.09,0-.12,0,.21,0,.44.08a11.27,11.27,0,0,1,1.72.49l.4.15c.1,0-.11,0-.1,0l.11,0,.22.1c.27.13.54.27.8.42s.52.31.77.48a1,1,0,0,0,1.39-.37,1,1,0,0,0-.36-1.4,12.4,12.4,0,0,0-7.41-2.09,11.22,11.22,0,0,0-7.06,2.81A11.6,11.6,0,0,0,56.11,50a8.12,8.12,0,0,0,2.31,6.69,12.17,12.17,0,0,0,7,3l1,.1a1,1,0,0,0,1-1,1,1,0,0,0-1-1" style="fill:#231815"/><path d="M72.68,47.59a5.23,5.23,0,0,0-4.41-.94,4.83,4.83,0,0,0-3.51,2.41,3.74,3.74,0,0,0-.18,2.75,1,1,0,0,0,2-.54,4.21,4.21,0,0,1-.12-.48c0-.17,0,.27,0,0a1.93,1.93,0,0,1,0-.24c0-.07,0-.13,0-.19s0,.12,0,.13,0-.07,0-.09.08-.28.12-.42-.11.23,0,.12a.3.3,0,0,1,0-.08l.09-.18a1.3,1.3,0,0,0,.1-.15c.14-.2-.16.18,0,0s.17-.19.27-.28l.16-.14c.06-.05.13-.05-.1.07a.33.33,0,0,0,.1-.06,4.15,4.15,0,0,1,.74-.42c.17-.08-.2.08-.08,0l.09,0,.22-.08a3.45,3.45,0,0,1,.43-.12l.4-.08h0l.25,0c.14,0,.29,0,.43,0a3.4,3.4,0,0,0,.45,0c-.2,0-.23,0-.13,0l.14,0,.24,0,.45.14c.09,0,.07.08-.11,0l.12.06.19.09.19.13c.24.15-.16-.14,0,0a1.05,1.05,0,0,0,1.45,0,1,1,0,0,0,0-1.44" style="fill:#231815"/><path d="M125.78,83.38a4.51,4.51,0,0,0-3.66-4l.11-.27c.47-.59.92-1.19,1.34-1.82,8.59-13,3.62-31.44-11.11-41.16C98.16,26.72,79.91,29,71,41.05,67.89,38,60.82,40.54,61.61,46a4.1,4.1,0,0,0,3,3.48,18,18,0,0,0-1.25,2.43C55,72.24,93.75,99.43,109.86,92.3A21.92,21.92,0,0,0,116.19,88C119.2,90.93,126.61,88.69,125.78,83.38Z" style="fill:#fbded7"/><path d="M103.67,94.94c-10.12,0-23-6.93-31.74-15.41C62.16,70,58.55,59.72,62,51.34c.17-.4.36-.81.57-1.22a5.55,5.55,0,0,1-2.42-3.93,6.69,6.69,0,0,1,3.78-7.06A7.47,7.47,0,0,1,70.72,39c9.7-11.78,28.08-13.65,42.55-4.1,15.37,10.15,20.54,29.52,11.52,43.19l-.41.6a6,6,0,0,1,2.84,4.42h0a6.2,6.2,0,0,1-3.58,6.67,7.89,7.89,0,0,1-7.35,0,22.82,22.82,0,0,1-5.84,3.79A16.77,16.77,0,0,1,103.67,94.94ZM67.52,41.19a5,5,0,0,0-2.26.55,3.8,3.8,0,0,0-2.2,4,2.63,2.63,0,0,0,2,2.29,1.47,1.47,0,0,1,.82,2.17,15.78,15.78,0,0,0-1.15,2.22c-3,7.22.39,16.32,9.26,25,11.33,11,27.16,17.12,35.29,13.52a20.31,20.31,0,0,0,5.9-4.06,1.47,1.47,0,0,1,2,0c1.09,1.08,3.32,1.21,5.09.31a3.36,3.36,0,0,0,2-3.61,3,3,0,0,0-2.51-2.77,1.44,1.44,0,0,1-1-.77,1.46,1.46,0,0,1,0-1.26l.12-.28a1.53,1.53,0,0,1,.19-.3c.49-.63.9-1.18,1.25-1.71,8.14-12.33,3.34-29.88-10.68-39.14-13.63-9-31-7-39.47,4.54a1.47,1.47,0,0,1-2.21.17A3.5,3.5,0,0,0,67.52,41.19Z" style="fill:#231815"/><path d="M114.52,76.19a3.91,3.91,0,1,1-1-5.55,4,4,0,0,1,1,5.55" style="fill:#231815"/><path d="M81.8,54.59a3.91,3.91,0,1,1-1-5.55,4,4,0,0,1,1,5.55" style="fill:#231815"/><path d="M111,41.63a1.43,1.43,0,0,1-.81-.25,1.46,1.46,0,0,1-.4-2c1.78-2.66,4-6,7.49-7.85a1.46,1.46,0,1,1,1.38,2.58c-2.84,1.53-4.75,4.38-6.44,6.9A1.46,1.46,0,0,1,111,41.63Z" style="fill:#231815"/><path d="M106.56,39.65l-.23,0A1.47,1.47,0,0,1,105.12,38c.5-3.16,1.12-7.1,3.5-10.27a1.48,1.48,0,0,1,2-.29,1.46,1.46,0,0,1,.29,2.05c-1.94,2.59-2.48,6-2.95,9A1.48,1.48,0,0,1,106.56,39.65Z" style="fill:#231815"/><path d="M115.3,45.34a1.41,1.41,0,0,1-1-.46,1.47,1.47,0,0,1,0-2.07c2.32-2.21,5.21-5,9-6a1.46,1.46,0,1,1,.8,2.81c-3.11.88-5.6,3.25-7.8,5.34A1.45,1.45,0,0,1,115.3,45.34Z" style="fill:#231815"/><path d="M93.05,65.29s-3.11-5.45-7.87-3a7.55,7.55,0,0,0-2.66,2.31A6,6,0,0,0,77.6,69.9c-.62,4.69,1.62,9.82,7.25,10.94s6.79.7,9.25-2.06,4.25-6.6,1.65-9.71Z" style="fill:#8fd3f5"/><path d="M89.79,63.32a7,7,0,0,1,.81.53l.17.13c.14.11-.07,0-.08-.07l.1.09.35.35a8.07,8.07,0,0,1,.58.73c.11.15,0,0,0-.07a.41.41,0,0,0,.07.11l.11.19c.09.15.17.29.25.45s.13.29.2.43a2,2,0,0,0,.18.48s-.07-.24,0-.07l0,.12.06.22c.05.16.09.33.13.5.07.33.11.66.15,1s0-.21,0,0c0,.07,0,.15,0,.22s0,.35,0,.52c0,.33-.06.66-.1,1,0,.13,0-.21,0-.08l0,.12c0,.08,0,.15,0,.22s-.09.33-.14.49-.11.3-.17.45l-.09.2c-.07.16,0-.07,0-.08a.61.61,0,0,0-.07.14,5.56,5.56,0,0,1-.53.83,2.09,2.09,0,0,0-.14.17c-.17.21.12-.13,0,0s-.24.25-.37.37l-.38.32-.2.13c-.16.12.06,0,.06,0l-.15.09a7,7,0,0,1-1,.49l-.16.06c.14,0-.15,0-.18,0l-.52.13-.47.07h-.3a5.68,5.68,0,0,1-.92,0l-.23,0s.23,0,.12,0l-.12,0-.46-.13L85.89,74l-.19-.08c-.09,0-.33-.2,0,0-.26-.16-.54-.29-.79-.46l-.36-.26-.16-.13c-.18-.16.18.16,0,0a7.45,7.45,0,0,1-.61-.65c-.1-.11-.19-.23-.28-.35l-.12-.17c-.17-.23.09.16,0,0a6.41,6.41,0,0,1-.45-.81c-.06-.13-.11-.26-.16-.38l-.09-.23c0-.07,0-.16,0,.09l0-.12a8.45,8.45,0,0,1-.22-.9L82.29,69a.45.45,0,0,0,0-.12s0,.26,0,.09,0-.16,0-.24a5.86,5.86,0,0,1,0-.94l0-.21c0-.17,0,.07,0,.08a.42.42,0,0,0,0-.12,4.43,4.43,0,0,1,.13-.49,6.67,6.67,0,0,1,.35-.94A.61.61,0,0,0,82.9,66s-.12.24,0,.07.07-.13.1-.2l.27-.45a8,8,0,0,1,.59-.81c.13-.15-.16.17,0,0l.18-.18c.11-.12.24-.24.36-.35l.37-.3.18-.13.1-.07c.1-.07-.23.15,0,0a6.52,6.52,0,0,1,.83-.43l.22-.1.11,0,.1,0,.27-.08.45-.09.22,0h.12c.18,0,0,0,0,0a2.48,2.48,0,0,0,.47,0l.51,0,.22,0c.11,0,.06.06-.07,0l.12,0L89,63l.45.17.26.11h0l.06,0A1.05,1.05,0,1,0,91,61.56a6.91,6.91,0,0,0-4.8-.71,7.52,7.52,0,0,0-3.9,2.4,8.48,8.48,0,0,0-2,4.35,7.93,7.93,0,0,0,7.6,8.87,7.48,7.48,0,0,0,4.71-1.81,7.12,7.12,0,0,0,2.24-4,8.87,8.87,0,0,0-3-8.55,6.35,6.35,0,0,0-.86-.56,1.08,1.08,0,0,0-1.46.3,1.06,1.06,0,0,0,.3,1.46" style="fill:#231815"/><path d="M82.46,62.92a10.32,10.32,0,0,0-4.68,3.75,8.71,8.71,0,0,0-1.37,5.06,11.14,11.14,0,0,0,5,8.66,11.46,11.46,0,0,0,8.76,1.7,9.6,9.6,0,0,0,4-2A9.86,9.86,0,0,0,97.05,76a9.21,9.21,0,0,0,.45-5.14,9.89,9.89,0,0,0-2.38-4.52c-.29-.31-.59-.61-.91-.89a1.11,1.11,0,0,0-.74-.36,1,1,0,0,0-.75.26,1.07,1.07,0,0,0-.1,1.49,10.81,10.81,0,0,1,1.62,1.76l.15.23c.09.11-.11-.18,0-.06l.07.12c.1.16.2.32.29.49a8,8,0,0,1,.47,1,.56.56,0,0,1,0,.12c0,.13,0,0,0-.07a.73.73,0,0,0,.08.25c0,.18.1.36.14.54a5.16,5.16,0,0,1,.09.52c0,.09,0,.17,0,.26a.53.53,0,0,0,0,.13c0,.13,0-.22,0,0a10.84,10.84,0,0,1,0,1.14c0,.18,0,.37-.07.55s0,.09,0,.13.05-.24,0-.06a2.82,2.82,0,0,1-.07.31,8.52,8.52,0,0,1-.35,1.15c-.07.17-.14.35-.22.52s0,.08,0,.12,0,0,0-.07-.1.21-.15.3a10,10,0,0,1-.58,1c-.1.14-.2.27-.31.4l-.16.2c0,.06-.13.1.07-.08l-.11.12a7.82,7.82,0,0,1-.72.69c-.12.11-.25.2-.38.3l-.19.14-.1.07c.23-.19.1-.07,0,0a13.29,13.29,0,0,1-1.74.84c.29-.13.07,0,0,0l-.22.06-.51.14c-.32.06-.64.12-1,.16l-.24,0c-.24,0,.23,0,0,0l-.5,0c-.34,0-.68,0-1,0l-.48-.06-.23,0-.12,0c-.18,0,.19,0,.06,0-.33-.07-.65-.15-1-.24s-.66-.21-1-.34l-.45-.2c-.09,0-.31-.18,0,0l-.24-.12A11.24,11.24,0,0,1,81.79,78l-.19-.16c-.06,0-.13-.14.07.06l-.1-.08-.39-.38a10.27,10.27,0,0,1-.7-.78c-.12-.14-.22-.27-.32-.41s-.11-.15-.16-.22a.34.34,0,0,0-.07-.11c.17.17.07.11,0,0a10,10,0,0,1-.6-1.06c-.08-.17-.16-.35-.23-.53a1.88,1.88,0,0,1-.12-.3,1.21,1.21,0,0,1,0-.14c-.07-.18,0,.14,0,0a11.19,11.19,0,0,1-.29-1.14,5.25,5.25,0,0,1-.09-.55,1.33,1.33,0,0,1,0-.28.68.68,0,0,1,0-.14c0,.26,0,.07,0,0a8.68,8.68,0,0,1,0-1.14c0-.18,0-.36.08-.54s-.05.18,0-.07,0-.2.07-.3a7,7,0,0,1,.38-1.12l.06-.12c.06-.15,0,0,0,.06a1.45,1.45,0,0,0,.12-.25c.1-.18.2-.35.31-.52l.34-.48c.05-.08.12-.15.18-.23l.09-.11c.09-.11-.15.16,0,0a10.12,10.12,0,0,1,1-.89,6.41,6.41,0,0,1,.52-.39s.16-.12,0,0l.14-.09.33-.2a12.65,12.65,0,0,1,1.33-.66,1.07,1.07,0,0,0,.48-1.41,1.09,1.09,0,0,0-1.42-.48" style="fill:#231815"/></svg>