<svg id="圖層_1" data-name="圖層 1" xmlns="http://www.w3.org/2000/svg" viewBox="0 0 32 32"><title>youtube-icon</title><rect width="32" height="32" rx="1.76" ry="1.76" style="fill:red"/><g id="_群組_" data-name="&lt;群組&gt;"><path id="_路徑_" data-name="&lt;路徑&gt;" d="M26.06,10.91A2.64,2.64,0,0,0,24.2,9C22.57,8.6,16,8.6,16,8.6S9.43,8.6,7.8,9a2.64,2.64,0,0,0-1.86,1.87A27.68,27.68,0,0,0,5.5,16a27.68,27.68,0,0,0,.44,5.09A2.64,2.64,0,0,0,7.8,23c1.64.44,8.2.44,8.2.44s6.57,0,8.2-.44a2.64,2.64,0,0,0,1.86-1.87A27.68,27.68,0,0,0,26.5,16,27.68,27.68,0,0,0,26.06,10.91Z" style="fill:#fff"/><polygon id="_路徑_2" data-name="&lt;路徑&gt;" points="13.85 19.12 19.34 16 13.85 12.88 13.85 19.12" style="fill:red"/></g></svg>