<svg id="圖層_1" data-name="圖層 1" xmlns="http://www.w3.org/2000/svg" viewBox="0 0 128 128"><defs><style>.cls-1{fill-rule:evenodd;}</style></defs><title>avatar-line</title><path class="cls-1" d="M63.49,64A27,27,0,1,0,37,37.51,27,27,0,0,0,63.49,64Zm.09-49.49A22.5,22.5,0,1,1,41.5,36.57,22.5,22.5,0,0,1,63.57,14.5ZM75.31,71.25,64,82.56,52.69,71.25a2.8,2.8,0,0,0-2.77-.71A49.53,49.53,0,0,0,14.59,115a2.82,2.82,0,0,0,2.81,3H110.6a2.82,2.82,0,0,0,2.81-3A49.53,49.53,0,0,0,78.09,70.53,2.8,2.8,0,0,0,75.31,71.25Zm-25,3.86L62,86.76a2.81,2.81,0,0,0,4,0L77.64,75.11a45,45,0,0,1,31.13,38.39H19.22A45,45,0,0,1,50.36,75.11Z"/></svg>