<svg id="圖層_1" data-name="圖層 1" xmlns="http://www.w3.org/2000/svg" viewBox="0 0 128 128"><defs><style>.cls-1{fill:none;}</style></defs><title>bell-line</title><path class="cls-1" d="M64,113.68a8.63,8.63,0,0,0,7.48-4.32h-15A8.63,8.63,0,0,0,64,113.68Z"/><circle class="cls-1" cx="64" cy="18.64" r="4.32"/><path d="M51.78,109.36a13,13,0,0,0,24.44,0Z"/><path d="M110.25,102C99,90.73,99,64.86,96.87,52.43l-.38-2.16c-2-11.11-10.68-23.66-25.44-26.65a8.64,8.64,0,1,0-14.11,0c-14.75,3-23.48,15.53-25.44,26.65l-.38,2.16C29,64.86,29,90.73,17.75,102a4.32,4.32,0,0,0,3.05,7.37h86.4a4.32,4.32,0,0,0,3.05-7.37ZM77,105H23.83a1.35,1.35,0,0,1-1-2.25c11.4-13.85,11-40.72,12.93-51.78C38,38.11,47.3,27.28,64,27.28S90,38.11,92.24,51c2,11.06,1.53,38,12.95,51.8a1.34,1.34,0,0,1-1,2.23Z"/></svg>