<svg id="圖層_1" data-name="圖層 1" xmlns="http://www.w3.org/2000/svg" viewBox="0 0 128 128"><title>camera-line</title><path d="M65.3,53.59A14.57,14.57,0,1,0,79.87,68.15,14.57,14.57,0,0,0,65.3,53.59Zm0,24.9A10.33,10.33,0,1,1,75.63,68.15,10.33,10.33,0,0,1,65.3,78.48Zm44.39-45.64H18.31A8.31,8.31,0,0,0,10,41.15v54a8.31,8.31,0,0,0,8.31,8.31h91.38A8.31,8.31,0,0,0,118,95.15v-54A8.31,8.31,0,0,0,109.69,32.85Zm4.15,62.31a4.15,4.15,0,0,1-4.15,4.15H18.31a4.15,4.15,0,0,1-4.15-4.15v-54A4.15,4.15,0,0,1,18.31,37h91.38a4.15,4.15,0,0,1,4.15,4.15Zm-48.55-54a27,27,0,1,0,27,27A27,27,0,0,0,65.3,41.15ZM65.3,91A22.82,22.82,0,1,1,88.12,68.15,22.82,22.82,0,0,1,65.3,91Zm40.24-49.92a4.19,4.19,0,1,0,4.19,4.19A4.19,4.19,0,0,0,105.54,41.06ZM41.15,24.54H22.46v4.15H41.15Z" style="fill:#231815;fill-rule:evenodd"/></svg>