<svg id="圖層_1" data-name="圖層 1" xmlns="http://www.w3.org/2000/svg" viewBox="0 0 128 128"><title>camera-full</title><path d="M109.69,32.85H18.31A8.31,8.31,0,0,0,10,41.15v54a8.31,8.31,0,0,0,8.31,8.31h91.38A8.31,8.31,0,0,0,118,95.15v-54A8.31,8.31,0,0,0,109.69,32.85ZM65.3,95.15a27,27,0,1,1,27-27A27,27,0,0,1,65.3,95.15Zm40.24-45.72a4.19,4.19,0,1,1,4.19-4.19A4.19,4.19,0,0,1,105.54,49.43ZM65.3,45.33A22.82,22.82,0,1,0,88.12,68.15,22.82,22.82,0,0,0,65.3,45.33Zm0,33.15A10.33,10.33,0,1,1,75.63,68.15,10.33,10.33,0,0,1,65.3,78.48ZM41.15,24.54H22.46v4.15H41.15Z" style="fill:#231815;fill-rule:evenodd"/></svg>