<svg id="圖層_1" data-name="圖層 1" xmlns="http://www.w3.org/2000/svg" viewBox="0 0 128 128"><title>card-line</title><path d="M44.71,40.38A11.57,11.57,0,1,0,33.14,28.8,11.57,11.57,0,0,0,44.71,40.38Zm0-19.29A7.71,7.71,0,1,1,37,28.8,7.71,7.71,0,0,1,44.71,21.09Z"/><rect x="28.21" y="101.37" width="71.58" height="3.86"/><rect x="28.21" y="93.17" width="71.58" height="3.86"/><path d="M114,14.62c0-.17-.08-.33-.13-.49a5.74,5.74,0,0,0-.26-.71c-.06-.13-.12-.26-.19-.39s-.19-.32-.29-.48l-.24-.32a5.81,5.81,0,0,0-1.8-1.53q-.25-.13-.51-.24a5.74,5.74,0,0,0-1.37-.39,5.83,5.83,0,0,0-.88-.07H19.64a5.76,5.76,0,0,0-2.76.7q-.25.13-.48.29a5.82,5.82,0,0,0-1.56,1.56q-.16.23-.29.48a5.76,5.76,0,0,0-.7,2.76v96.43A5.79,5.79,0,0,0,19.64,118h88.71a5.79,5.79,0,0,0,5.79-5.79V15.79A5.81,5.81,0,0,0,114,14.62Zm-94.38-.76h88.71a1.93,1.93,0,0,1,1.93,1.93v6.77c0,10.84,0,27.06,0,27.06L91.61,37a3.74,3.74,0,0,0-4.31,0L68.44,50.54l-9-5.93a3.74,3.74,0,0,0-4.31,0L17.71,69.46V15.79A1.93,1.93,0,0,1,19.64,13.86ZM17.71,74.13,57.49,47.85l11,7.64,21-15.35L110.29,54.6v26H17.71Zm92.57,38.09a1.93,1.93,0,0,1-1.93,1.93H19.64a1.93,1.93,0,0,1-1.93-1.93V84.49h92.57Z"/></svg>