<svg id="圖層_1" data-name="圖層 1" xmlns="http://www.w3.org/2000/svg" viewBox="0 0 128 128"><title>earth-full</title><path d="M88.41,32.55A9,9,0,0,0,85,29.33c-1.44-.22-.58,1.06-.58,1.62a6.26,6.26,0,0,0-1.23,1c-.17.14.41,1.47,1.53,1s.47.43,1.24,2.14,2.32,1.74,3,1.22C89.9,35.66,88.9,33.42,88.41,32.55Z"/><path d="M92.88,43.41h0Z"/><path d="M107.06,49.8c.1,0-.43-.1,0,0Z"/><path d="M64,10a54,54,0,1,0,54,54A54,54,0,0,0,64,10ZM44.09,105.81A5.09,5.09,0,0,1,41.44,102c-1-5-.07-7.73,4.33-10.67,2.07-1.38,2.42-3.05,4.07-4.71.41-.52,1.5-2.5,2.22-2.6.88-.19,3.3-.61,3.78-1.57.91-1.24,2.92-6.6,3.81-7.14,1.45-.95,3.48-3.85,2-5.57-1.69-2.08-4-2.11-6.24-3.21-1.93-1-2.79-5.37-4.27-6.89C48.28,56.69,43.92,55,40.3,53.17c-2-.78-1.77-1-3.3.51-2,2-4.84-.5-5.13-2.53,0-.68-.79-4.39-.34-4.68,4.33-2.71-2-2.08-2.53-3.33-1.29-3.61,3.14-6.48,6.12-6.77,3.35-.42,4,5.28,5.33,4.8.62-.31.62-3,.7-3.57.31-1.94.86-2.24,2.75-2.94,2.19-.81,3.87-1.84,6.2-2.22,2.65-.77,4.9-.37,6.94-2.07.94-.7,1.62.38,2.51.58,1.93.39,2.34-2.68,2.34-3.83s.3-2.08-1.13-3.28c-1.88-1.46-4.59-.21-6.1,1.3-1.83,1.7-3.94,1.58-3.33-1.35.15-1.07,2.46-2.31,3.38-2.89s1.42.61,2.51.34c1.59-.35,2.18,1.14,4.05,1.16a3.2,3.2,0,0,0,2.08-4.67H64l1.34,0c.68,2.14-1.44,4-.37,6.66,2.12,5.18,3.86.73,6-1.69.69-.69,1.12-.53,2.24-.75.7-.12,1.7-2.23,2-2.89a45.72,45.72,0,0,1,13.64,5.85c-1.8.19-2.25-.34-2.23,1.78,0,.8.07,3.21,1.27,3.41,2,.24,1.63,1.65,3.51,1.89s.68,1.82,1.41,3.39C93.6,37.85,88,38.59,86.93,39c-3.29,1.1,1.53,5.88,3.66,5.38.68-.17,2.94-.46,3.1-1.22,0-.08-.44-2.65-.21-2.95.37-.47,1.24-.71,2.6.06,3.22,1.83,4.86,6.2,8.65,7.06.52.12,1.41,0,2,.49.54.73,1.91,2,.27,2-2.17-.48-3.32.21-5.11-1.17S98.92,46,96.46,46c-2.12,0-4-.92-6.2-.57a28,28,0,0,0-3.59,1c-1.11.37-1.33,2.35-2.46,2.58-4.69,1.1-3.68,5.59-4.53,9.14-.33,1.36-1.45,5.06-.22,6.29,2.2,2.13,4.77,5.07,8,5.54,1.74.25,5.53-1.1,6.71.66.5,1,1.8-.73,2.15.14.88,2.65-1,4.38-1,6.88,0,3.67,2.21,5-.79,8.23-3.29,3.28-1,7.42-2.87,11.33-1,2-1.16,4.8-2.62,5.73a46,46,0,0,1-10.3,4.91,46.73,46.73,0,0,1-20,2,45.87,45.87,0,0,1-10.34-2.43c-.91-.33-1.75-.6-2.52-.89Q44.94,106.21,44.09,105.81ZM34,99.28,33.7,99q-1.25-1.08-2.43-2.26T28.93,94.2l0,0-.45-.54a46.76,46.76,0,0,1-3.84-54c1.47,1.47-1,4.35,1.81,6.27,1.24.87,2.42.52,2.17,2.12s1.29,1.53,1.52,2.89c.69,3,4.63,4.49,2.39,7.86-2.2,3-4.1,6.44-2.43,10.32A13.27,13.27,0,0,0,33,73.05c1.88,1.92,1.78.77,1.78,3.2,0,1.05,1.27,2.14,1.13,2.82-.24,1.93-.7,3.84-.94,5.76-.43,6.9,0,13.66,5.13,18.83a46.37,46.37,0,0,1-5.54-3.93Z"/></svg>