<svg id="圖層_1" data-name="圖層 1" xmlns="http://www.w3.org/2000/svg" viewBox="0 0 128 128"><defs><style>.cls-1{fill-rule:evenodd;}</style></defs><title>envelope-line</title><path class="cls-1" d="M10,33.88V94.12a5.19,5.19,0,0,0,5.19,5.19h97.62A5.19,5.19,0,0,0,118,94.12V33.88a5.19,5.19,0,0,0-5.19-5.19H15.19A5.19,5.19,0,0,0,10,33.88Zm100.73-1-44.9,44.9a2.6,2.6,0,0,1-3.67,0l-44.9-44.9ZM14.15,95.15V95l.12.12ZM38.33,68,14.15,92.23V36L60.33,82.14a5.19,5.19,0,0,0,7.34,0L113.85,36V92.22L89.68,68l-3.06,3.06,24,24H17.34l24-24Zm75.4,27.1.11-.11v.11Z"/></svg>