<svg id="圖層_1" data-name="圖層 1" xmlns="http://www.w3.org/2000/svg" viewBox="0 0 128 128"><title>heart-line</title><path d="M87.14,13A30.63,30.63,0,0,0,64,23.92C60,19.36,52.29,13,40.86,13,21.82,13,10,25.57,10,45.79S26.46,80.21,43.57,95.66C52.43,103.65,64,115,64,115s11.57-11.34,20.43-19.34C101.54,80.21,118,66,118,45.79S106.18,13,87.14,13ZM64,109.44C42.62,87.28,13.86,70.87,13.86,45.8c0-17.36,9.64-28.93,27-28.93C56.29,16.87,64,30.37,64,30.37s7.6-13.5,23.14-13.5c17.36,0,27,11.57,27,28.93C114.14,70.87,85.38,87.28,64,109.44Z"/></svg>