<svg id="圖層_1" data-name="圖層 1" xmlns="http://www.w3.org/2000/svg" viewBox="0 0 128 128"><title>message-outline</title><path d="M64,15A49.52,49.52,0,0,1,99.37,29.46a45.82,45.82,0,0,1,6,57.92,14.56,14.56,0,0,0-.85,1.27l-.06.09-.05.09a12.83,12.83,0,0,0-1.65,6.23v.62l.15.6,3.45,13.79-12.84-4.72a12.86,12.86,0,0,0-5-1,13.31,13.31,0,0,0-4.65.83l-3.26,1.21v0A50.57,50.57,0,0,1,64,109.23c-27,0-49-21.14-49-47.13S37,15,64,15m0-5C34.18,10,10,33.32,10,62.1s24.18,52.13,54,52.13a55.63,55.63,0,0,0,21.12-4.13,3.17,3.17,0,0,1,.44-.18s.05,0,.05,0a8.37,8.37,0,0,1,2.91-.52,7.89,7.89,0,0,1,3.14.62l21.82,8-5.74-23a7.8,7.8,0,0,1,1-3.79,8.87,8.87,0,0,1,.65-1A50.5,50.5,0,0,0,118,62.16C118.05,33.32,93.87,10,64,10Z"/><circle cx="88.96" cy="64" r="8.31"/><circle cx="64.03" cy="64" r="8.31"/><circle cx="39.09" cy="64" r="8.31"/></svg>