<svg id="圖層_1" data-name="圖層 1" xmlns="http://www.w3.org/2000/svg" viewBox="0 0 128 128"><title>message-full</title><path d="M64,114.23a55.63,55.63,0,0,0,21.12-4.13,3.17,3.17,0,0,1,.44-.18s.05,0,.05,0a8.37,8.37,0,0,1,2.91-.52,7.89,7.89,0,0,1,3.14.62l21.82,8-5.74-23a7.8,7.8,0,0,1,1-3.79h0a8.87,8.87,0,0,1,.65-1A50.5,50.5,0,0,0,118,62.16C118.05,33.32,93.87,10,64,10S10,33.32,10,62.1,34.18,114.23,64,114.23ZM89,55.69A8.31,8.31,0,1,1,80.65,64,8.3,8.3,0,0,1,89,55.69ZM64,55.69A8.31,8.31,0,1,1,55.71,64,8.3,8.3,0,0,1,64,55.69Zm-24.94,0A8.31,8.31,0,1,1,30.78,64,8.3,8.3,0,0,1,39.09,55.69Z"/></svg>