<svg id="圖層_1" data-name="圖層 1" xmlns="http://www.w3.org/2000/svg" viewBox="0 0 128 128"><title>shopcart</title><path d="M39.7,81.28l68-10a4.15,4.15,0,0,0,3.5-3.52L118,34.38a4.15,4.15,0,0,0-4.11-4.74H27.92l-3-12.25a4.15,4.15,0,0,0-4-3.2H10v4.15H20.86L36,79.49,31.09,93a7.83,7.83,0,1,0,5.79,4.23h60a7.82,7.82,0,1,0,5.35-4.15H35.51l4.16-11.71Zm74.09-47.49L107,67.18,39.64,77.08,28.95,33.79Z"/><path d="M39.7,81.28l68-10a4.15,4.15,0,0,0,3.5-3.52L118,34.38a4.15,4.15,0,0,0-4.11-4.74H27.92l-3-12.25a4.15,4.15,0,0,0-4-3.2H10v4.15H20.86L36,79.49,31.09,93a7.83,7.83,0,1,0,5.79,4.23h60a7.82,7.82,0,1,0,5.35-4.15H35.51l4.16-11.71Zm74.09-47.49L107,67.18,39.64,77.08,28.95,33.79Z" style="fill:none;stroke:#000;stroke-linecap:round;stroke-linejoin:round;stroke-width:0.25px"/></svg>