<svg id="圖層_1" data-name="圖層 1" xmlns="http://www.w3.org/2000/svg" viewBox="0 0 128 128"><title>smile-line</title><path d="M47.38,59.87c2.29,0,4.15-2.8,4.15-6.26s-1.86-6.26-4.15-6.26-4.15,2.8-4.15,6.26S45.09,59.87,47.38,59.87ZM64,10a54,54,0,1,0,54,54A54,54,0,0,0,64,10Zm0,103.83A49.83,49.83,0,1,1,113.83,64,49.83,49.83,0,0,1,64,113.83Zm16.62-54c2.29,0,4.15-2.8,4.15-6.26s-1.86-6.26-4.15-6.26-4.15,2.8-4.15,6.26S78.32,59.87,80.62,59.87ZM64,93.09A29.27,29.27,0,0,1,36,72l-4,1.15a33.28,33.28,0,0,0,63.95,0L92,72A29.27,29.27,0,0,1,64,93.09Z"/></svg>