<?xml version="1.0" encoding="utf-8"?>
<!-- Generator: Adobe Illustrator 21.1.0, SVG Export Plug-In . SVG Version: 6.00 Build 0)  -->
<svg version="1.1" id="圖層_1" xmlns="http://www.w3.org/2000/svg" xmlns:xlink="http://www.w3.org/1999/xlink" x="0px" y="0px"
	 viewBox="0 0 768 768" style="enable-background:new 0 0 768 768;" xml:space="preserve">
<title></title>
<g id="icomoon-ignore">
</g>
<path d="M384,678.8c162.6,0,295.8-133.2,295.8-295.8c0-29.4-5.2-57.1-12.1-83c-25.9,6.9-53.6,8.6-83,8.6
	c-124.5,0-233.5-60.5-301-155.7c-36.3,88.2-107.2,160.9-193.7,198.9c-1.7,10.4-1.7,20.8-1.7,31.1C88.2,545.6,221.4,678.8,384,678.8z
	 M384,64.5C561,64.5,703.5,207,703.5,384S561,703.5,384,703.5S64.5,561,64.5,384S207,64.5,384,64.5z M480,376.5
	c22.5,0,40.5,16.5,40.5,39S502.5,456,480,456s-40.5-18-40.5-40.5S457.5,376.5,480,376.5z M288,376.5c22.5,0,40.5,16.5,40.5,39
	S310.5,456,288,456s-40.5-18-40.5-40.5S265.5,376.5,288,376.5z"/>
</svg>
