<?xml version="1.0" encoding="utf-8"?>
<!-- Generator: Adobe Illustrator 21.1.0, SVG Export Plug-In . SVG Version: 6.00 Build 0)  -->
<svg version="1.1" id="Layer_1" xmlns="http://www.w3.org/2000/svg" xmlns:xlink="http://www.w3.org/1999/xlink" x="0px" y="0px"
	 viewBox="0 0 512 512" style="enable-background:new 0 0 512 512;" xml:space="preserve">
<style type="text/css">
	.st0{fill:#FFFFFF;}
</style>
<g>
	<path class="st0" d="M384,160l64,64l-64,64v-48H232c-4.4,0-8-3.6-8-8v-16c0-4.4,3.6-8,8-8h152V160z"/>
	<path class="st0" d="M352,176V72c0-4.4-3.6-8-8-8H72c-4.4,0-8,3.6-8,8v302c0,8.5,0,10,9.2,14.6L192,448v-64h152c4.4,0,8-3.6,8-8
		V272h-32v80H192V128l-48-32h176v80H352z"/>
</g>
</svg>
