<?xml version="1.0" encoding="utf-8"?>
<!-- Generator: Adobe Illustrator 21.1.0, SVG Export Plug-In . SVG Version: 6.00 Build 0)  -->
<svg version="1.1" id="圖層_1" xmlns="http://www.w3.org/2000/svg" xmlns:xlink="http://www.w3.org/1999/xlink" x="0px" y="0px"
	 viewBox="0 0 32 32" style="enable-background:new 0 0 32 32;" xml:space="preserve">
<style type="text/css">
	.st0{fill:#00B900;}
	.st1{fill:#FFFFFF;}
</style>
<title>facebook-icon</title>
<g>
	<path class="st0" d="M26.2,0H5.8C2.6,0,0,2.6,0,5.8v20.4C0,29.4,2.6,32,5.8,32h20.4c3.2,0,5.8-2.6,5.8-5.8V5.8
		C32,2.6,29.4,0,26.2,0"/>
	<path class="st1" d="M27.6,14.6c0-5.2-5.2-9.5-11.7-9.5c-6.4,0-11.7,4.2-11.7,9.5c0,4.7,4.1,8.6,9.7,9.3c0.4,0.1,0.9,0.3,1,0.6
		c0.1,0.3,0.1,0.8,0,1.1c0,0-0.1,0.8-0.2,1c-0.1,0.3-0.2,1.2,1,0.6c1.2-0.5,6.7-4,9.2-6.8h0C26.8,18.6,27.6,16.7,27.6,14.6"/>
	<g>
		<path class="st0" d="M13.6,12.1h-0.8c-0.1,0-0.2,0.1-0.2,0.2v5.1c0,0.1,0.1,0.2,0.2,0.2h0.8c0.1,0,0.2-0.1,0.2-0.2v-5.1
			C13.8,12.2,13.7,12.1,13.6,12.1"/>
		<path class="st0" d="M19.2,12.1h-0.8c-0.1,0-0.2,0.1-0.2,0.2v3l-2.3-3.1c0,0,0,0,0,0c0,0,0,0,0,0c0,0,0,0,0,0c0,0,0,0,0,0
			c0,0,0,0,0,0c0,0,0,0,0,0c0,0,0,0,0,0c0,0,0,0,0,0c0,0,0,0,0,0c0,0,0,0,0,0c0,0,0,0,0,0c0,0,0,0,0,0c0,0,0,0,0,0c0,0,0,0,0,0
			c0,0,0,0,0,0c0,0,0,0,0,0c0,0,0,0,0,0c0,0,0,0,0,0c0,0,0,0,0,0h-0.8c-0.1,0-0.2,0.1-0.2,0.2v5.1c0,0.1,0.1,0.2,0.2,0.2h0.8
			c0.1,0,0.2-0.1,0.2-0.2v-3l2.3,3.1c0,0,0,0,0.1,0.1c0,0,0,0,0,0c0,0,0,0,0,0c0,0,0,0,0,0c0,0,0,0,0,0c0,0,0,0,0,0c0,0,0,0,0,0
			c0,0,0,0,0,0c0,0,0,0,0,0c0,0,0,0,0.1,0h0.8c0.1,0,0.2-0.1,0.2-0.2v-5.1C19.4,12.2,19.3,12.1,19.2,12.1"/>
		<path class="st0" d="M11.6,16.3H9.4v-4c0-0.1-0.1-0.2-0.2-0.2H8.3c-0.1,0-0.2,0.1-0.2,0.2v5.1v0c0,0.1,0,0.1,0.1,0.2c0,0,0,0,0,0
			c0,0,0,0,0,0c0,0,0.1,0.1,0.2,0.1h0h3.3c0.1,0,0.2-0.1,0.2-0.2v-0.8C11.8,16.4,11.7,16.3,11.6,16.3"/>
		<path class="st0" d="M23.7,13.3c0.1,0,0.2-0.1,0.2-0.2v-0.8c0-0.1-0.1-0.2-0.2-0.2h-3.3h0c-0.1,0-0.1,0-0.2,0.1c0,0,0,0,0,0
			c0,0,0,0,0,0c0,0-0.1,0.1-0.1,0.2v0v5.1v0c0,0.1,0,0.1,0.1,0.2c0,0,0,0,0,0c0,0,0,0,0,0c0,0,0.1,0.1,0.2,0.1h0h3.3
			c0.1,0,0.2-0.1,0.2-0.2v-0.8c0-0.1-0.1-0.2-0.2-0.2h-2.2v-0.9h2.2c0.1,0,0.2-0.1,0.2-0.2v-0.8c0-0.1-0.1-0.2-0.2-0.2h-2.2v-0.9
			H23.7z"/>
	</g>
</g>
</svg>
