<svg id="圖層_1" data-name="圖層 1" xmlns="http://www.w3.org/2000/svg" viewBox="0 0 75 75"><title>ca-1</title><polygon points="29.01 17.32 20.54 8.85 14.68 14.71 8.84 20.55 17.31 29.02 25.95 20.38 29.01 17.32" style="fill:#fff"/><path d="M60.11,43.63,56,47.72a1.3,1.3,0,0,1-1.82,0,1.29,1.29,0,0,1,0-1.82l4.09-4.09L53.5,37l-4.09,4.09a1.29,1.29,0,1,1-1.82-1.82l4.1-4.09-4.8-4.79L42.8,34.5a1.27,1.27,0,0,1-1.81,0,1.26,1.26,0,0,1,0-1.81l4.09-4.1L40.29,23.8l-4.1,4.09a1.27,1.27,0,0,1-1.81,0,1.26,1.26,0,0,1,0-1.81L38.47,22l-4.34-4.34-4.72,4.72L17.64,34.15,48.41,64.92l12.22-4.28,4.28-12.22Z" style="fill:#8fd3f5"/><path d="M64.36,61.65l5-14.24L36.86,14.92l3.78-3.78a1.93,1.93,0,0,0-2.72-2.73L34.13,12.2l-2.4,2.4L23.27,6.12,26.1,3.29A1.93,1.93,0,1,0,23.38.56L20.54,3.4,11.93,12,.58,23.36A1.93,1.93,0,0,0,3.3,26.09l2.81-2.81,8.47,8.47L8.4,37.93a1.93,1.93,0,1,0,2.73,2.72l3.78-3.78L47.4,69.36l14.24-5L71.7,74.44a1.93,1.93,0,0,0,2.72-2.73ZM8.84,20.55l5.84-5.84,5.86-5.86L29,17.32,26,20.38,17.31,29ZM60.63,60.64,48.41,64.92,17.64,34.15,29.41,22.37l4.72-4.72L38.47,22l-4.09,4.09a1.26,1.26,0,0,0,0,1.81,1.27,1.27,0,0,0,1.81,0l4.1-4.09,4.79,4.79L41,32.69a1.26,1.26,0,0,0,0,1.81,1.27,1.27,0,0,0,1.81,0l4.09-4.09,4.8,4.79-4.1,4.09a1.29,1.29,0,1,0,1.82,1.82L53.5,37l4.79,4.79L54.2,45.9a1.29,1.29,0,0,0,0,1.82,1.3,1.3,0,0,0,1.82,0l4.09-4.09,4.8,4.79Z" style="fill:#231815"/></svg>