<svg id="圖層_1" data-name="圖層 1" xmlns="http://www.w3.org/2000/svg" viewBox="0 0 75 75"><title>ca-3</title><path d="M29.24,22.43l-4,8A172.92,172.92,0,0,1,51.26,47l1.7-.84c-.23-1.82-1.66-6.57-9.4-14.32S31.06,22.66,29.24,22.43Z" style="fill:#ffb71b"/><path d="M19.93,41.18A162.7,162.7,0,0,1,39.21,53l8.67-4.31a170,170,0,0,0-24.12-15.2Z" style="fill:#d94434"/><path d="M9.61,61.94c1.88,1,3.71,2,5.46,3l9.06-4.5c-3.47-2.21-7.06-4.3-10.7-6.21Z" style="fill:#d94434"/><path d="M14.94,51.22c4.32,2.26,8.59,4.79,12.71,7.49l8.12-4A157,157,0,0,0,18.42,44.21Z" style="fill:#ffb71b"/><path d="M5.83,69.55l5.58-2.77C10.3,66.16,9.19,65.55,8.1,65Z" style="fill:#ffb71b"/><path d="M71.4,1.4l-18.05,18A1.89,1.89,0,0,0,56,22.11l18-18a1.85,1.85,0,0,0,.56-1.33,1.88,1.88,0,0,0-.55-1.33A1.92,1.92,0,0,0,71.4,1.4Z" style="fill:#ffb71b"/><path d="M45.42,18.29a1.79,1.79,0,0,0,.72.15,1.88,1.88,0,0,0,1.74-1.16L53.64,3.45A1.88,1.88,0,0,0,50.17,2L44.4,15.83A1.88,1.88,0,0,0,45.42,18.29Z" style="fill:#ef90b9"/><path d="M73.47,21.82a1.85,1.85,0,0,0-1.44,0L58.14,27.42a1.88,1.88,0,0,0,.7,3.63,1.91,1.91,0,0,0,.71-.14L73.44,25.3a1.88,1.88,0,0,0,0-3.48Z" style="fill:#ef90b9"/><path d="M26.18,7.9a1.65,1.65,0,0,0,1.29,0l1.72-.72.73,1.75a1.68,1.68,0,0,0,1.55,1,1.61,1.61,0,0,0,.65-.13,1.69,1.69,0,0,0,.9-2.2l-.74-1.75L34,5.14a1.69,1.69,0,0,0,.9-.92A1.68,1.68,0,0,0,34,2a1.7,1.7,0,0,0-1.29,0L31,2.77,30.24,1a1.68,1.68,0,0,0-3.1,1.3l.74,1.75-1.72.72a1.68,1.68,0,0,0,0,3.1Z" style="fill:#ffb71b"/><path d="M27.86,19.06a1.69,1.69,0,0,0-1.17.91L.56,72.55a1.69,1.69,0,0,0,2.27,2.27L55.41,48.7a1.71,1.71,0,0,0,.91-1.18c.13-.65,1-6.73-10.37-18.09S28.51,18.93,27.86,19.06Zm-22,50.49L8.1,65c1.09.57,2.2,1.18,3.31,1.8ZM15.07,65c-1.75-1-3.58-2-5.46-3l3.82-7.69c3.64,1.91,7.23,4,10.7,6.21Zm12.58-6.25c-4.12-2.7-8.39-5.23-12.71-7.49l3.48-7A157,157,0,0,1,35.77,54.68ZM39.21,53A162.7,162.7,0,0,0,19.93,41.18l3.83-7.72a170,170,0,0,1,24.12,15.2Zm12-6a172.92,172.92,0,0,0-26-16.55l4-8c1.82.23,6.58,1.65,14.32,9.39s9.17,12.5,9.4,14.32Z" style="fill:#231815"/></svg>