<svg id="圖層_1" data-name="圖層 1" xmlns="http://www.w3.org/2000/svg" viewBox="0 0 75 75"><title>ca-4</title><path d="M27.58,40.16c-.44,1.29-2.67,2.4-3.64,3.47S22.1,46.08,21,47.17a26,26,0,0,0-2.44,2.24c-2.1,2.81-4,7.54-3,11.05,1.38,5.18,10.46,7.45,15,7.53s7.4-.56,10.81-3.74c1.48-1.38,3-2.06,3.44-4.1a40.19,40.19,0,0,1,1-4.28c.65-2,1.26-4.12,2.08-6,.64-1.5,2.17-3.86,1.66-5.58-.41-1.4-2.45-2.83-3.46-3.8a20.72,20.72,0,0,0-7.21-5,14.64,14.64,0,0,0-14.46,3.24" style="fill:#fbded7"/><path d="M31.23,69.1H30.5c-4.34-.08-14.41-2.29-16-8.36-1-3.9.94-9,3.22-12a8.44,8.44,0,0,1,1.61-1.56,9,9,0,0,0,.92-.79,19.55,19.55,0,0,0,1.56-1.87c.42-.54.85-1.1,1.33-1.64a11.88,11.88,0,0,1,1.61-1.37c.73-.55,1.64-1.23,1.8-1.72a1.11,1.11,0,0,1,2.1.71,6.69,6.69,0,0,1-2.56,2.78,9.36,9.36,0,0,0-1.3,1.09c-.42.46-.81,1-1.22,1.5A21,21,0,0,1,21.81,48a14,14,0,0,1-1.12,1,7.05,7.05,0,0,0-1.22,1.14c-2,2.71-3.65,7.06-2.84,10.1,1.2,4.53,9.79,6.64,13.91,6.71s6.79-.42,10-3.45c.39-.36.77-.67,1.14-1a4.35,4.35,0,0,0,2-2.54l.18-.84a31.47,31.47,0,0,1,.85-3.55l.3-.94c.54-1.73,1.11-3.53,1.82-5.2.15-.34.33-.72.53-1.13.58-1.16,1.37-2.77,1.09-3.71a8,8,0,0,0-2.26-2.5c-.34-.29-.66-.57-.91-.81a19.64,19.64,0,0,0-6.82-4.78,13.54,13.54,0,0,0-13.31,3,1.11,1.11,0,1,1-1.54-1.59,15.88,15.88,0,0,1,15.6-3.49,22.13,22.13,0,0,1,7.61,5.27c.23.22.51.47.82.73,1.13,1,2.53,2.18,2.94,3.55.52,1.78-.45,3.74-1.23,5.32-.18.37-.35.71-.48,1-.67,1.58-1.22,3.32-1.75,5l-.3,1a31.05,31.05,0,0,0-.79,3.3l-.18.87a6.42,6.42,0,0,1-2.73,3.81c-.34.27-.69.55-1,.87C38.53,68.37,35.46,69.1,31.23,69.1Z" style="fill:#231815"/><path d="M18.65,51.67c-2,1.61-4.72,3.54-5.42,6.12a13.68,13.68,0,0,0-.07,5.52c.08.51.47,1.42.21,1.91-.16.3-.81.53-1.09.72-.8.55-1.56,1.16-1.5,2.23.11,1.81,3.05,2.12,4.53,2.32a17.33,17.33,0,0,0,4.06.35,2.86,2.86,0,0,0,2-1.59,28.19,28.19,0,0,0,2.11-5.11" style="fill:#fbded7"/><path d="M18.67,72a17.67,17.67,0,0,1-2.75-.28l-.76-.11-.23,0c-1.78-.24-5.1-.69-5.25-3.33a3.66,3.66,0,0,1,2-3.2,3.92,3.92,0,0,1,.48-.27l.21-.11c0-.17-.09-.4-.13-.54s-.12-.46-.15-.64a14.87,14.87,0,0,1,.1-6c.71-2.63,3.13-4.55,5.07-6.1l.72-.59a1.11,1.11,0,0,1,1.41,1.72l-.75.6c-1.78,1.42-3.79,3-4.31,4.95a12.73,12.73,0,0,0,0,5.07,2.62,2.62,0,0,0,.09.39,3,3,0,0,1,0,2.21,2.61,2.61,0,0,1-1.2,1l-.24.13c-.79.54-1,.84-1,1.24,0,.82,2.44,1.14,3.34,1.26l.23,0,.8.12a12.1,12.1,0,0,0,3,.23c.38,0,.71-.33,1.19-1.09a15.91,15.91,0,0,0,1.46-3.4c.18-.52.36-1,.55-1.51a1.11,1.11,0,0,1,2.07.8c-.18.46-.35.95-.52,1.44a17.78,17.78,0,0,1-1.7,3.87,3.91,3.91,0,0,1-2.83,2.09A7.57,7.57,0,0,1,18.67,72Z" style="fill:#231815"/><path d="M21.07,68c1.59,1.45,3.17-.23,4.83,1.12,2.51,2.06,6.78,3.88,9.91,3.54a10.09,10.09,0,0,0,7.6-5.16A31.93,31.93,0,0,0,46,61.65c1.34-3.74,3.49-8.13,2.35-12.22" style="fill:#fbded7"/><path d="M35,73.81A17.28,17.28,0,0,1,25.19,70c-.44-.36-.83-.35-1.6-.28a3.83,3.83,0,0,1-3.27-.88,1.11,1.11,0,0,1,1.49-1.64c.43.4.8.38,1.59.31a4.05,4.05,0,0,1,3.2.78c2.27,1.85,6.28,3.59,9.09,3.29a9.06,9.06,0,0,0,6.77-4.63A30.8,30.8,0,0,0,45,61.28c.2-.58.43-1.17.66-1.78,1.24-3.27,2.53-6.66,1.66-9.78a1.11,1.11,0,0,1,2.14-.59c1.06,3.81-.42,7.72-1.73,11.16-.22.59-.44,1.17-.64,1.74a34.3,34.3,0,0,1-2.71,6,11.24,11.24,0,0,1-8.43,5.68A6.85,6.85,0,0,1,35,73.81Z" style="fill:#231815"/><path d="M32.12,58.62c-3.12-1-7.59-3.15-10.55-.42-2,1.83-2.28,5.41-2.18,7.94,0,.54.33,1.51,0,2-.19.29-.86.48-1.16.65-.85.5-1.68,1.07-1.72,2.17-.08,1.89,2.82,2.45,4.28,2.78,5,1.16,7.12-4.55,9-8.16" style="fill:#fbded7"/><path d="M22.13,75a7,7,0,0,1-1.58-.19l-.22,0c-1.64-.37-5-1.14-4.92-3.85a3.83,3.83,0,0,1,2.27-3.08,3.93,3.93,0,0,1,.5-.24l.26-.11c0-.18-.05-.46-.08-.63a6.66,6.66,0,0,1-.08-.67c-.11-2.84.24-6.68,2.54-8.8,3-2.79,7.22-1.34,10.28-.27.48.16.93.32,1.36.45A1.12,1.12,0,0,1,33.18,59a1.1,1.1,0,0,1-1.39.72l-1.41-.47c-2.81-1-6-2.08-8.06-.19-1.76,1.63-1.9,5.14-1.82,7.09a3.92,3.92,0,0,0,.05.42,3.11,3.11,0,0,1-.22,2.22,2.63,2.63,0,0,1-1.28.89l-.25.11c-.87.51-1.16.81-1.17,1.26,0,.87,2.22,1.38,3.19,1.6l.23.05c3.35.77,5.13-2.27,7.1-6.33.21-.44.41-.86.62-1.26a1.11,1.11,0,1,1,2,1l-.6,1.22C28.54,70.59,26.4,75,22.13,75Z" style="fill:#231815"/><path d="M34.54,56.7C31,58.17,27,55.1,28.85,51.15a5,5,0,0,1,3-2.34c1.8-.31,4.21-.17,5.52,1.33,1.12,1.27.92,2,.65,3.47" style="fill:#fbded7"/><path d="M34.3,55.84c-3,1.09-6.75-1.67-4.3-4.82a4.59,4.59,0,0,1,4.58-1.36,2.9,2.9,0,0,1,2.6,3.72C37,54.5,38.7,55,38.9,53.85c.45-2.54-.24-4.69-2.88-5.65a6.68,6.68,0,0,0-7.28,1.56c-3.76,4.27,1.3,9.52,6,7.8,1.07-.39.61-2.11-.48-1.72Z" style="fill:#231815"/><path d="M41.38,62.93a4.21,4.21,0,0,1-1-.12C37,62,34.45,58.3,33.75,57.2a.93.93,0,0,1,1.58-1c1.24,2,3.34,4.26,5.5,4.8s5.11-2.45,6.18-4.75A.93.93,0,0,1,48.7,57C47.67,59.26,44.6,62.93,41.38,62.93Z" style="fill:#231815"/><path d="M41.57,55.22h-.13c-1-.13-1.6-.26-2.32-.42l-1.25-.26a.92.92,0,0,1-.75-1.06,1,1,0,0,1,1-.78l.21,0a.71.71,0,0,1,.26.07c.33.06.62.13.89.19.71.15,1.28.27,2.18.39a.93.93,0,0,1-.12,1.86Z" style="fill:#231815"/><path d="M4.84,40.52A1,1,0,0,1,3.51,39h0c1.65-1.47,3.31-2.95,5.7-2.35a7.56,7.56,0,0,1,3.23,2h0A4.52,4.52,0,0,1,14,41.69c-.08,1.41-1.28,2-2.68,2.64a10.48,10.48,0,0,0-1.86,1,4.28,4.28,0,0,0-1.41,1.91,1.65,1.65,0,0,0,0,1.42,6,6,0,0,0,2.45,1.37,17.16,17.16,0,0,1,2.55,1.18A16.37,16.37,0,0,1,15.37,53a8.05,8.05,0,0,0,2.81,1.8c1.67.44,4.07-.36,6.47-1.18h0a1,1,0,0,1,1.33.56,1,1,0,0,1-.56,1.33h0l-.05,0c-2.72.93-5.44,1.85-7.71,1.25a9.48,9.48,0,0,1-3.59-2.22,14.12,14.12,0,0,0-2-1.5,16.16,16.16,0,0,0-2.27-1c-1.4-.56-2.69-1.08-3.38-2.12a3.63,3.63,0,0,1-.27-3.21,6.28,6.28,0,0,1,2.09-2.86,12.11,12.11,0,0,1,2.24-1.28c.81-.38,1.51-.71,1.52-.92s-.4-.93-1-1.52h0A5.56,5.56,0,0,0,8.71,38.6c-1.34-.34-2.59.78-3.85,1.9h0l0,0Z" style="fill:#f4a555"/><path d="M17.79,46.74c-.84-.45-1-.62-1.9.08-3.06,2.49-1.66,7.32,2.28,6.48a7.45,7.45,0,0,0,3.23-1.66" style="fill:#fbded7"/><path d="M17.29,54.33a3.8,3.8,0,0,1-3.56-2.21,5,5,0,0,1,1.57-6,2.07,2.07,0,0,1,2.83-.23l.11.05a.94.94,0,0,1-.9,1.64l-.11-.05-.4-.22a2.52,2.52,0,0,0-.36.26,3.19,3.19,0,0,0-1.06,3.76A2.12,2.12,0,0,0,18,52.38a6.33,6.33,0,0,0,2.82-1.46A.93.93,0,1,1,22,52.36a8.24,8.24,0,0,1-3.62,1.85A5.1,5.1,0,0,1,17.29,54.33Z" style="fill:#231815"/><path d="M21.34,51.61c1.8.57,4,.74,5-1.15s-.11-4.86-1.69-6.16a7.28,7.28,0,0,0-3.42-1.56,3.7,3.7,0,0,0-3.46,1.81c-1,1.6-.57,3,.65,4.56" style="fill:#fbded7"/><path d="M21.09,52.51c2.16.62,4.83.69,6-1.58s.2-5.15-1.38-6.84C24,42.22,20.89,41,18.55,42.48c-2.76,1.72-2.66,4.7-.95,7.09.69,1,2.29,0,1.6-.93a3.59,3.59,0,0,1-1-2.81,3,3,0,0,1,2.24-2.14c1.61-.31,3.56,1,4.42,2.23a4.61,4.61,0,0,1,.77,3.91c-.68,1.69-2.65,1.29-4,.89a.93.93,0,0,0-.5,1.79Z" style="fill:#231815"/><path d="M15.49,19.4c-3.82-1.46-8.9,2.43-6.17,6.32a4.29,4.29,0,0,0,3.89,1.78" style="fill:#fbded7"/><path d="M12.94,28.39A5.11,5.11,0,0,1,8.6,26.22a4.52,4.52,0,0,1,.09-5.59,6.41,6.41,0,0,1,7.11-2.05.88.88,0,1,1-.62,1.64,4.68,4.68,0,0,0-5.11,1.49,2.76,2.76,0,0,0,0,3.5,3.45,3.45,0,0,0,3.13,1.42.89.89,0,0,1,.92.83.88.88,0,0,1-.84.92Z" style="fill:#231815"/><path d="M70.31,36a3.68,3.68,0,0,0-3.82-2.22c0-.08.08-.22.09-.3.22-.56.36-1.09.54-1.69,3.59-12.25-4.74-25.47-18.6-29.53-10.29-3-22.62-.17-28.85,9C14.09,19.56,11,31.68,19,39.49,24.71,45,32,48,39.73,49.36c6.08,1.09,14.45,1.66,19.48-2.72,1.59-1.39,3.67-2.87,4.7-4.73C67,43.51,72.23,40,70.31,36Z" style="fill:#fbded7"/><path d="M47.58,51.24a46.22,46.22,0,0,1-8-.78c-8.82-1.58-16-5-21.28-10.18a17.69,17.69,0,0,1-5.1-14.82A32.33,32.33,0,0,1,18.75,10.7c6.09-9,18.46-12.88,30.08-9.48,14.43,4.22,23.11,18.09,19.35,30.9l-.08.28c0,.13-.07.26-.11.39a4.85,4.85,0,0,1,3.32,2.74h0a5,5,0,0,1-1.18,6,6.31,6.31,0,0,1-5.77,1.74,19.75,19.75,0,0,1-3.44,3.4c-.34.28-.67.55-1,.83C57.06,50,52.92,51.24,47.58,51.24Zm-7.23-49c-8.05,0-15.57,3.54-19.76,9.73C12.31,24.17,15,34,19.8,38.69c5,4.86,11.75,8.09,20.13,9.58,8.65,1.55,14.89.72,18.55-2.47.32-.28.67-.56,1-.86a14.08,14.08,0,0,0,3.44-3.57,1.1,1.1,0,0,1,1.48-.45,3.89,3.89,0,0,0,4.16-1,2.84,2.84,0,0,0,.74-3.41,2.61,2.61,0,0,0-2.73-1.61,1.1,1.1,0,0,1-.89-.33,1.08,1.08,0,0,1-.31-.9,1.92,1.92,0,0,1,.1-.4s0,.06,0,.1a1.07,1.07,0,0,1,.06-.27A10.73,10.73,0,0,0,66,31.78l.09-.28c3.41-11.64-4.6-24.27-17.85-28.15A27.84,27.84,0,0,0,40.35,2.21Z" style="fill:#231815"/><path d="M24,26.62a5.5,5.5,0,0,1-1.64-.26A5.12,5.12,0,0,1,19,20a1.09,1.09,0,0,1,1.39-.71,1.11,1.11,0,0,1,.72,1.4,3,3,0,0,0,5.66,1.83,1.11,1.11,0,0,1,2.11.68A5.05,5.05,0,0,1,24,26.62Z" style="fill:#231815"/><path d="M50.91,34.61a5.25,5.25,0,0,1-1.64-.26A5.12,5.12,0,0,1,45.88,28a1.11,1.11,0,0,1,2.11.68,3,3,0,0,0,5.67,1.84,1.09,1.09,0,0,1,1.39-.72,1.11,1.11,0,0,1,.71,1.4A5.06,5.06,0,0,1,50.91,34.61Z" style="fill:#231815"/><path d="M37.77,6.81c-1.61,1-4.43,3.13-3.75,5.39.76,2.55,3.83.67,5.21,0l-1.3-.75c0,.56-.93,1.3-.91,2.07a2,2,0,0,0,1.06,1.62c1.77,1,3.34-.77,4.6-1.76l-1.48-.61c-.07,1.4.13,3.39,1.84,3.69s3.49-1.61,4.66-2.63c.84-.74-.39-2-1.23-1.23s-3.7,3.28-3.54.17c0-.83-.94-1-1.47-.61s-2.41,2.27-2.31.49c0-.4.51-.75.51-1.2a.87.87,0,0,0-1.3-.74c-.71.36-2.47,1.59-2.45.26,0-1,2.07-2.23,2.73-2.63,1-.57.08-2.07-.87-1.49Z" style="fill:#231815"/><path d="M35.27,41.79a11,11,0,0,1-3.26-.5,10.42,10.42,0,0,1-5.42-3.71,6.42,6.42,0,0,1-1.15-5.7,1.11,1.11,0,0,1,2.12.65,4.24,4.24,0,0,0,.83,3.75,8.17,8.17,0,0,0,4.27,2.89c3.59,1.1,7.15-.1,7.93-2.67a1.11,1.11,0,1,1,2.12.65C41.84,40,38.79,41.79,35.27,41.79Z" style="fill:#231815"/></svg>