<svg id="圖層_1" data-name="圖層 1" xmlns="http://www.w3.org/2000/svg" viewBox="0 0 150 150"><title>ms-12</title><path d="M137,102.1a1.94,1.94,0,0,0,1.94-1.94V97.25h2.91a1.94,1.94,0,1,0,0-3.87h-2.91V90.46a1.94,1.94,0,0,0-3.88,0v2.92h-2.91a1.94,1.94,0,1,0,0,3.87h2.91v2.91A1.94,1.94,0,0,0,137,102.1Z" style="fill:#231815"/><path d="M119,109.59a2,2,0,0,0-.57,1.37,1.94,1.94,0,0,0,.57,1.37,1.94,1.94,0,0,0,2.75,0,1.93,1.93,0,0,0,.56-1.37,2,2,0,0,0-.56-1.37A2,2,0,0,0,119,109.59Z" style="fill:#231815"/><path d="M8.15,32.25h2.91v2.91a1.94,1.94,0,0,0,3.88,0V32.25h2.91a1.94,1.94,0,1,0,0-3.87H14.94V25.47a1.94,1.94,0,0,0-3.88,0v2.91H8.15a1.94,1.94,0,1,0,0,3.87Z" style="fill:#231815"/><path d="M33.94,32.51a1.93,1.93,0,0,0,0,2.74,1.94,1.94,0,0,0,1.37.57,1.94,1.94,0,0,0,1.37-3.31A2,2,0,0,0,33.94,32.51Z" style="fill:#231815"/><path d="M46.51,24.88a1.94,1.94,0,0,0,1.37,3.31,1.94,1.94,0,0,0,1.38-3.31A2,2,0,0,0,46.51,24.88Z" style="fill:#231815"/><path d="M63.11,81.16c-.59,1.73-3.59,3.23-4.89,4.67s-2.48,3.29-3.92,4.76c-1.07,1.08-2.37,1.79-3.28,3C48.2,97.37,45.7,103.72,47,108.43c1.84,7,14,10,20.11,10.12s9.93-.75,14.52-5c2-1.84,4-2.76,4.62-5.5a54.44,54.44,0,0,1,1.34-5.75c.87-2.74,1.7-5.54,2.8-8.13.87-2,2.92-5.18,2.23-7.49-.55-1.88-3.3-3.8-4.65-5.11-2.89-2.78-5.86-5.37-9.69-6.75-6.37-2.3-14.49-.4-19.43,4.35" style="fill:#fbded7;stroke:#231815;stroke-linecap:round;stroke-linejoin:round;stroke-width:2.9776200000000004px"/><path d="M51.11,96.63c-2.64,2.16-6.35,4.75-7.29,8.22a18.72,18.72,0,0,0-.09,7.42c.1.69.64,1.91.28,2.57-.21.4-1.09.71-1.46,1-1.07.73-2.1,1.57-2,3,.14,2.44,4.1,2.85,6.08,3.13a23.81,23.81,0,0,0,5.45.46,3.84,3.84,0,0,0,2.71-2.13c1.3-2,2-4.65,2.84-6.87" style="fill:#fbded7;stroke:#231815;stroke-linecap:round;stroke-linejoin:round;stroke-width:2.9776200000000004px"/><path d="M54.36,118.57c2.14,2,4.26-.31,6.48,1.51,3.38,2.76,9.12,5.21,13.32,4.75a13.56,13.56,0,0,0,10.21-6.93A43.24,43.24,0,0,0,87.88,110c1.8-5,4.69-10.93,3.16-16.43" style="fill:#fbded7;stroke:#231815;stroke-linecap:round;stroke-linejoin:round;stroke-width:2.9776200000000004px"/><path d="M69.21,106C65,104.64,59,101.74,55,105.4c-2.67,2.46-3.06,7.27-2.92,10.67,0,.72.43,2,0,2.68-.26.39-1.16.64-1.56.87-1.14.67-2.25,1.44-2.32,2.92-.1,2.53,3.8,3.28,5.76,3.73,6.76,1.55,9.56-6.12,12-11" style="fill:#fbded7;stroke:#231815;stroke-linecap:round;stroke-linejoin:round;stroke-width:2.9776200000000004px"/><path d="M72.46,103.39c-4.75,2-10.2-2.16-7.65-7.46a6.69,6.69,0,0,1,4.06-3.15c2.42-.41,5.66-.22,7.42,1.79,1.5,1.71,1.23,2.62.87,4.67" style="fill:#fbded7"/><path d="M72.14,102.23c-4,1.47-9.08-2.25-5.78-6.47,1.46-1.88,3.93-2.24,6.15-1.84,2.77.5,4,2.31,3.5,5-.27,1.51,2,2.16,2.31.64.6-3.41-.33-6.3-3.88-7.59a9,9,0,0,0-9.78,2.1c-5,5.73,1.75,12.78,8.12,10.47,1.43-.52.81-2.83-.64-2.31Z" style="fill:#231815"/><path d="M72.46,103.39c1.79,2.84,4.86,6.17,8.14,7,3.84,1,8.21-3.77,9.75-7.07" style="fill:none;stroke:#231815;stroke-linecap:round;stroke-linejoin:round;stroke-width:2.5089400000000004px"/><path d="M77.46,99.27l-.3,0c1.94.37,2.8.64,4.73.91" style="fill:none;stroke:#231815;stroke-linecap:round;stroke-linejoin:round;stroke-width:2.5089400000000004px"/><path d="M32.56,81.64a1.36,1.36,0,0,1-1.8-2h0c2.23-2,4.45-4,7.67-3.16a10.35,10.35,0,0,1,4.34,2.63h0c1.32,1.3,2.23,2.88,2.15,4.17-.12,1.89-1.73,2.65-3.6,3.54a13.89,13.89,0,0,0-2.51,1.41,5.62,5.62,0,0,0-1.89,2.57,2.21,2.21,0,0,0,0,1.9c.46.7,1.81,1.24,3.29,1.83a23.49,23.49,0,0,1,3.43,1.59,23.74,23.74,0,0,1,3,2.28,10.53,10.53,0,0,0,3.76,2.42c2.25.6,5.47-.48,8.7-1.58h0a1.37,1.37,0,0,1,1.79.75,1.39,1.39,0,0,1-.76,1.79h0l-.07,0c-3.66,1.24-7.31,2.48-10.36,1.67a12.58,12.58,0,0,1-4.82-3,21.94,21.94,0,0,0-2.66-2,22.15,22.15,0,0,0-3-1.4c-1.9-.76-3.62-1.45-4.55-2.86a4.85,4.85,0,0,1-.36-4.3A8.48,8.48,0,0,1,37.14,86a15.8,15.8,0,0,1,3-1.72c1.09-.51,2-1,2-1.23,0-.46-.53-1.25-1.34-2h0a7.45,7.45,0,0,0-3.09-1.93c-1.8-.46-3.49,1.05-5.18,2.55h0l0,0Z" style="fill:#f4a555"/><path d="M50,90c-1.12-.61-1.4-.84-2.56.1-4.1,3.34-2.22,9.84,3.08,8.71a10,10,0,0,0,4.33-2.23" style="fill:#fbded7;stroke:#231815;stroke-linecap:round;stroke-linejoin:round;stroke-width:2.5089400000000004px"/><path d="M54.72,96.55c2.42.77,5.41,1,6.7-1.54s-.16-6.53-2.28-8.28a9.75,9.75,0,0,0-4.59-2.1,5,5,0,0,0-4.65,2.44c-1.36,2.14-.77,4,.87,6.11" style="fill:#fbded7"/><path d="M54.39,97.75c2.89.85,6.48.94,8.1-2.12,1.54-2.9.26-6.92-1.86-9.18-2.36-2.52-6.51-4.12-9.66-2.16-3.71,2.31-3.58,6.31-1.27,9.52.93,1.29,3.08,0,2.15-1.25-.8-1.1-1.71-2.31-1.38-3.77a4,4,0,0,1,3-2.88c2.16-.42,4.77,1.28,5.93,3,1,1.39,1.7,3.58,1,5.24-.91,2.27-3.55,1.74-5.39,1.21a1.24,1.24,0,0,0-.66,2.39Z" style="fill:#231815"/><ellipse cx="16.94" cy="60.32" rx="5.17" ry="4.94" style="fill:#e96bb0;stroke:#231815;stroke-linecap:round;stroke-linejoin:round;stroke-width:2.92612px"/><path d="M46.87,53.27c-5.14-2-12,3.27-8.29,8.49a5.77,5.77,0,0,0,5.22,2.4" style="fill:#fbded7;stroke:#231815;stroke-linecap:round;stroke-linejoin:round;stroke-width:2.35699px"/><path d="M120.52,75.6a5,5,0,0,0-5.14-3c0-.11.11-.29.12-.4.3-.76.49-1.47.73-2.27,4.82-16.46-6.37-34.22-25-39.67-13.82-4.05-30.39-.23-38.76,12.14C45,53.49,40.87,69.77,51.62,80.26c7.63,7.45,17.45,11.42,27.81,13.27,8.16,1.46,19.41,2.23,26.17-3.66,2.13-1.86,4.94-3.86,6.32-6.36C116,85.67,123.1,80.91,120.52,75.6Z" style="fill:#fbded7;stroke:#231815;stroke-linecap:round;stroke-linejoin:round;stroke-width:2.9776200000000004px"/><path d="M52.92,54.49a5.5,5.5,0,0,0,10.45,3.38" style="fill:none;stroke:#231815;stroke-linecap:round;stroke-linejoin:round;stroke-width:2.9776200000000004px"/><path d="M89.11,65.23a5.49,5.49,0,0,0,10.44,3.38" style="fill:none;stroke:#231815;stroke-linecap:round;stroke-linejoin:round;stroke-width:2.9776200000000004px"/><path d="M76.79,36.35c-2.16,1.3-5.94,4.21-5,7.24,1,3.44,5.15.91,7-.05l-1.75-1c0,.74-1.25,1.74-1.21,2.77a2.61,2.61,0,0,0,1.41,2.18c2.39,1.3,4.5-1,6.18-2.36l-2-.82c-.1,1.88.17,4.55,2.46,5s4.7-2.17,6.26-3.54c1.13-1-.52-2.62-1.64-1.64s-5,4.4-4.76.22c.06-1.11-1.26-1.4-2-.82s-3.23,3-3.1.67c0-.54.69-1,.69-1.62a1.17,1.17,0,0,0-1.75-1c-1,.49-3.32,2.15-3.3.35,0-1.32,2.78-3,3.67-3.53a1.16,1.16,0,0,0-1.17-2Z" style="fill:#231815"/><path d="M82,76.68c-1.3,4.24-6.9,6.3-12.52,4.58s-9.13-6.54-7.84-10.78" style="fill:none;stroke:#231815;stroke-linecap:round;stroke-linejoin:round;stroke-width:2.9776200000000004px"/></svg>