<svg id="圖層_1" data-name="圖層 1" xmlns="http://www.w3.org/2000/svg" viewBox="0 0 150 150"><title>ms-42</title><path d="M129.36,78.29a6.41,6.41,0,0,0-7.43-1.83c0-.14,0-.39,0-.53.1-1.05.08-2,.08-3.07,0-22.1-20.26-40-45.25-40-24.29,0-44.1,16.91-45.2,38.13-6.09-1.2-12.45,7.35-7.26,13.18a5.82,5.82,0,0,0,6.29,1.76c0,1.32.24,2.6.4,3.85,4.19,32.32,73,32.49,86.5,11.49a31.14,31.14,0,0,0,4.1-10.09C127.47,92.36,134.47,83.92,129.36,78.29Z" style="fill:#fbded7"/><path d="M77.24,117.61a83.39,83.39,0,0,1-18.07-1.92c-17.47-3.92-28.41-13.28-30-25.67l-.09-.63C29,89,29,88.51,28.9,88.06a7.55,7.55,0,0,1-6-2.66,9.26,9.26,0,0,1-1-11.05,10.31,10.31,0,0,1,8-5.3C32,47.58,52.24,31,76.76,31c26,0,47.1,18.77,47.1,41.85v1.27a8.28,8.28,0,0,1,6.86,2.92h0a8.59,8.59,0,0,1,.94,10.42A10.88,10.88,0,0,1,123,93.13a32.34,32.34,0,0,1-4,9.13C115,108.63,106.12,113.49,94.13,116A84.58,84.58,0,0,1,77.24,117.61ZM30.59,84.08a1.84,1.84,0,0,1,1.84,1.79c0,1,.17,2,.31,3l.08.65c.82,6.32,5.44,17.65,27.16,22.53,22.53,5,48.68-.46,56-11.81a29.25,29.25,0,0,0,3.84-9.49A1.85,1.85,0,0,1,122,89.37c2.22.44,5.07-1.19,6.5-3.72a5,5,0,0,0-.46-6.11,4.56,4.56,0,0,0-5.38-1.36,1.86,1.86,0,0,1-2.51-1.44,3.17,3.17,0,0,1,0-.67v0a1.31,1.31,0,0,1,0-.28c.07-.83.07-1.59.07-2.47v-.44c0-21-19.47-38.15-43.4-38.15-23.25,0-42.3,16-43.35,36.38a1.85,1.85,0,0,1-.71,1.36,1.88,1.88,0,0,1-1.5.36c-2.17-.44-4.73,1-6.09,3.37a5.6,5.6,0,0,0,.57,6.76,4,4,0,0,0,4.38,1.22A1.89,1.89,0,0,1,30.59,84.08Zm89.52-7.86h0Z" style="fill:#231815"/><path d="M6.34,122.48a1.91,1.91,0,0,0-.57,1.36,1.94,1.94,0,1,0,3.88,0,1.94,1.94,0,0,0-.56-1.36A2,2,0,0,0,6.34,122.48Z" style="fill:#231815"/><path d="M19.83,101.05H16.92V98.14a1.94,1.94,0,1,0-3.87,0v2.91H10.14a1.94,1.94,0,1,0,0,3.88h2.91v2.91a1.94,1.94,0,1,0,3.87,0v-2.91h2.91a1.94,1.94,0,0,0,0-3.88Z" style="fill:#231815"/><path d="M75.14,41.61h0a1.84,1.84,0,0,1-1.83-1.86c0-5,.07-11.33,3-16.78a1.85,1.85,0,0,1,3.26,1.76C77.05,29.37,77,34.9,77,39.78A1.85,1.85,0,0,1,75.14,41.61Z" style="fill:#231815"/><path d="M67.48,42.88A1.84,1.84,0,0,1,65.8,41.8c-2.09-4.6-4.69-10.32-4.31-16.49a1.85,1.85,0,1,1,3.69.22c-.32,5.26,2,10.3,4,14.74a1.85,1.85,0,0,1-.92,2.45A1.82,1.82,0,0,1,67.48,42.88Z" style="fill:#231815"/><path d="M84.09,42.78a2,2,0,0,1-.42-.05,1.86,1.86,0,0,1-1.39-2.22c1.13-4.92,2.54-11,6.59-15.72a1.85,1.85,0,1,1,2.79,2.42c-3.44,4-4.68,9.37-5.77,14.13A1.85,1.85,0,0,1,84.09,42.78Z" style="fill:#231815"/><ellipse cx="33.59" cy="121.6" rx="5.17" ry="4.94" style="fill:#ffb71b"/><path d="M33.59,128a6.4,6.4,0,1,1,6.64-6.4A6.52,6.52,0,0,1,33.59,128Zm0-9.88a3.48,3.48,0,1,0,3.71,3.48A3.61,3.61,0,0,0,33.59,118.12Z" style="fill:#231815"/><path d="M142.77,45.6a5.18,5.18,0,1,1-5.18-4.94A5.06,5.06,0,0,1,142.77,45.6Z" style="fill:#e96bb0"/><path d="M137.59,52a6.4,6.4,0,1,1,6.64-6.4A6.52,6.52,0,0,1,137.59,52Zm0-9.88a3.48,3.48,0,1,0,3.71,3.48A3.61,3.61,0,0,0,137.59,42.12Z" style="fill:#231815"/><path d="M98.75,87.52c0,11.23-5.75,20.33-21.74,20.33s-21.75-9.1-21.75-20.33C55.62,87.89,98.75,87.89,98.75,87.52Z" style="fill:#f3a9c9"/><path d="M77,109.19c-20.09,0-23.09-13.58-23.09-21.67a1.35,1.35,0,0,1,.83-1.24,1.41,1.41,0,0,1,.86,0c2.58.28,40,.29,42.77,0a1.1,1.1,0,0,1,.37-.06,1.34,1.34,0,0,1,1.34,1.34C100.09,95.61,97.09,109.19,77,109.19ZM56.63,89c.4,8.33,4.43,17.56,20.38,17.56S97,97.28,97.38,89c-2.33.09-7.77.18-20.57.18C64.55,89.13,59.13,89.08,56.63,89Zm41-2.2a1.27,1.27,0,0,0-.25.77A1.29,1.29,0,0,1,97.66,86.75Zm-41.45-.17Zm0,0Zm0,0h0Zm0,0Z" style="fill:#231815"/><path d="M109,74.52a5.22,5.22,0,1,1-5.21-5.45A5.33,5.33,0,0,1,109,74.52" style="fill:#231815"/><path d="M55,74.52a5.22,5.22,0,1,1-5.21-5.45A5.33,5.33,0,0,1,55,74.52" style="fill:#231815"/><path d="M80,87.79c-11.69,0-24.56-.07-24.76-.27a24.59,24.59,0,0,0,1.6,9.14H80Z" style="fill:#fff"/><path d="M80,98H56.86a1.36,1.36,0,0,1-1.25-.84,26,26,0,0,1-1.69-9.64,1.35,1.35,0,0,1,.83-1.24,1.41,1.41,0,0,1,.86,0c1.31.14,12.13.23,24.41.22h0a1.31,1.31,0,0,1,1,.4,1.33,1.33,0,0,1,.39.94v8.87A1.34,1.34,0,0,1,80,98ZM57.79,95.32H78.68V89.14c-13.56,0-19.42,0-22.05-.2A23.2,23.2,0,0,0,57.79,95.32Zm-1.58-8.74Zm0,0Zm0,0Zm0,0Z" style="fill:#231815"/><path d="M89.19,87.75v8.91h8a24.59,24.59,0,0,0,1.59-9.14C98.75,87.63,94.76,87.71,89.19,87.75Z" style="fill:#fff"/><path d="M97.16,98h-8a1.34,1.34,0,0,1-1.34-1.34V87.75a1.34,1.34,0,0,1,1.33-1.34c7.22,0,8.84-.14,9.2-.17a1.15,1.15,0,0,1,.37-.06,1.34,1.34,0,0,1,1.34,1.34,26,26,0,0,1-1.69,9.64A1.35,1.35,0,0,1,97.16,98Zm-6.63-2.68h5.69A22.68,22.68,0,0,0,97.38,89l-1.29,0c-1.43,0-3.34.06-5.56.08Zm7.13-8.57a1.27,1.27,0,0,0-.25.77A1.29,1.29,0,0,1,97.66,86.75Z" style="fill:#231815"/></svg>