<?xml version="1.0" encoding="utf-8"?>
<!-- Generator: Adobe Illustrator 16.0.3, SVG Export Plug-In . SVG Version: 6.00 Build 0)  -->
<!DOCTYPE svg PUBLIC "-//W3C//DTD SVG 1.1//EN" "http://www.w3.org/Graphics/SVG/1.1/DTD/svg11.dtd">
<svg version="1.1" id="圖層_1" xmlns="http://www.w3.org/2000/svg" xmlns:xlink="http://www.w3.org/1999/xlink" x="0px" y="0px"
	 width="357.165px" height="68px" viewBox="0 0 357.165 68" enable-background="new 0 0 357.165 68" xml:space="preserve">
<g>
	<path fill="#FFFFFF" d="M161.265,38.479c-1.311-9.028-0.728-18.812,8.705-19.162c9.433-0.349,9.433,8.88,9.433,9.391
		c0,0.509-3.843,9.772-3.843,9.772s6.523-0.879,8.62,0.869c2.096,1.746,1.514,6.057,0.697,6.639s-6.639,5.705-18.866-1.516
		c0,0,2.286,4.332,1.492,7.523c-0.793,3.193-3.007,3.54-4.87,2.609c-1.863-0.935-2.749-8.42-2.749-8.42s-12.74-0.781-14.371-5.905
		c-1.63-5.124,3.18-8.681,9.465-5.24C161.265,38.479,161.265,38.479,161.265,38.479z"/>
	<g>
		<g>
			<g>
				<g>
					
						<path fill="#FAC109" stroke="#FFFFFF" stroke-width="2.8196" stroke-linecap="round" stroke-linejoin="round" stroke-miterlimit="10" d="
						M39.645,51.742h-0.861c0,0,0.005-1.557,0.005-3.842V36.212c0-2.173-0.186-2.395-2.051-2.395v-0.569l5.303,0.008l-0.002,7.387
						c1.07-1.522,2.296-2.191,4.134-2.191c3.651,0,5.784,2.392,5.784,6.486c0,4.465-2.372,7.123-6.344,7.123
						c-1.508,0-2.737-0.355-3.968-1.188C41.645,50.874,41.162,51.742,39.645,51.742z M42.681,49.795
						c0.506,0.982,1.6,1.676,2.718,1.676c1.974,0,3.011-2.095,3.011-6.111c0-4.021-0.988-6.146-2.877-6.146
						c-1.118,0-2.162,0.741-2.746,1.927c-0.559,1.182-0.826,2.586-0.826,4.461C41.962,47.479,42.202,48.809,42.681,49.795z"/>
					
						<path fill="#FAC109" stroke="#FFFFFF" stroke-width="2.8196" stroke-linecap="round" stroke-linejoin="round" stroke-miterlimit="10" d="
						M89.602,40.204c1.144-1.113,2.958-1.753,4.984-1.753c4.185,0,6.902,2.663,6.902,6.756c0,1.927-0.665,3.748-1.76,4.877
						c-1.225,1.264-3.171,2.004-5.278,2.004c-1.997,0-3.895-0.718-5.009-1.875c-1.177-1.207-1.839-2.958-1.839-4.855
						C87.601,43.336,88.348,41.436,89.602,40.204z M94.559,51.518c2.317,0,3.357-1.92,3.357-6.211c0-4.315-1.067-6.285-3.387-6.285
						c-1.092,0-2.025,0.515-2.475,1.427c-0.587,1.063-0.856,2.64-0.856,4.784C91.198,49.497,92.265,51.518,94.559,51.518z"/>
					
						<path fill="#FAC109" stroke="#FFFFFF" stroke-width="2.8196" stroke-linecap="round" stroke-linejoin="round" stroke-miterlimit="10" d="
						M130.017,44.744c0.028,1.822,0.211,2.882,0.693,3.917c0.773,1.63,1.998,2.444,3.625,2.444c1.838,0,3.409-1.019,4.395-2.814
						l0.67,0.396c-1.334,2.34-3.12,3.377-5.865,3.377c-4.238,0-6.958-2.635-6.958-6.754c0-4.143,2.641-6.855,6.691-6.855
						c2.719,0,4.638,1.133,5.517,3.255c0.294,0.74,0.428,1.481,0.481,3.036h-9.25L130.017,44.744L130.017,44.744z M135.935,44.023
						c-0.056-1.554-0.162-2.317-0.456-3.084c-0.506-1.307-1.249-1.92-2.291-1.92c-1.146,0-2.026,0.737-2.584,2.17
						c-0.294,0.765-0.456,1.547-0.56,2.832L135.935,44.023L135.935,44.023z"/>
					
						<path fill="#FAC109" stroke="#FFFFFF" stroke-width="2.8196" stroke-linecap="round" stroke-linejoin="round" stroke-miterlimit="10" d="
						M4,51.417c2.158-0.049,2.4-0.3,2.4-2.612V36.521c0-2.314-0.268-2.591-2.4-2.612V33.25h8.341c5.278,0,7.651,1.337,7.651,4.28
						c0,2.669-1.651,3.948-5.731,4.378v0.176c4.264,0.2,6.424,1.839,6.424,4.886c0,3.62-2.532,5.104-8.794,5.104H4V51.417z
						 M12.075,41.628c2.772,0,4.239-1.36,4.239-3.95c0-2.463-1.493-3.699-4.423-3.699H9.837v7.649H12.075L12.075,41.628z
						 M11.864,51.342c3.33,0,5.009-1.511,5.009-4.499c0-1.69-0.614-3.022-1.733-3.729c-0.693-0.429-1.839-0.679-3.144-0.679H9.837
						v8.906H11.864L11.864,51.342z"/>
					<g>
						
							<path fill="#FAC109" stroke="#FFFFFF" stroke-width="2.8196" stroke-linecap="round" stroke-linejoin="round" stroke-miterlimit="10" d="
							M34.876,41.57c-0.114-0.971-0.433-1.613-0.986-2.107c-0.8-0.691-2.108-1.012-3.946-1.012c-1.813,0-3.251,0.298-4.369,0.934
							c-1.044,0.596-1.573,1.743-1.656,2.299c-0.143,0.897,0.306,2.068,1.843,1.951c1.051-0.082,1.599-1.139,1.649-2.027
							c0.082-0.937,0.162-1.33,0.426-1.748c0.376-0.592,0.933-0.838,1.784-0.838c1.602,0,2.082,0.764,2.082,3.381v1.6
							c-1.651,0.073-3.064,0.247-4.371,0.471c-2.852,0.517-4.265,1.823-4.265,3.943c0,2.216,1.573,3.626,4.107,3.626
							c1.73,0,3.17-0.618,4.557-2.002c0.134,1.511,1.194,1.877,2.047,1.877c0.24,0,0.641,0.002,1.084,0.008L34.876,41.57z
							 M31.703,46.467c0,1.406-0.133,2.219-0.48,2.86c-0.506,1.011-1.52,1.63-2.584,1.63c-1.307,0-2.158-1.159-2.158-2.907
							c0-2.298,1.356-3.202,5.223-3.481L31.703,46.467L31.703,46.467z"/>
					</g>
					<g>
						
							<path fill="#FAC109" stroke="#FFFFFF" stroke-width="2.8196" stroke-linecap="round" stroke-linejoin="round" stroke-miterlimit="10" d="
							M124.366,43.213c0-1.677-0.214-2.591-0.801-3.33c-0.72-0.939-1.92-1.432-3.464-1.432c-2.003,0-3.412,0.785-4.586,2.591
							c-0.479-1.748-1.729-2.591-3.786-2.591c-1.996,0-3.569,0.865-4.635,2.488l-0.028-2.438l-5.196,0.026v0.593
							c1.757,0.021,1.971,0.594,1.971,2.659l0.014,9.914h3.243V43.63c0-2.216,1.464-4.042,3.222-4.042
							c1.465,0,2.159,1.157,2.159,3.626l-0.009,8.481h3.237v-8.262c0-0.914,0.263-1.703,0.824-2.494
							c0.667-0.935,1.414-1.353,2.373-1.353c1.573,0,2.212,1.036,2.212,3.647l-0.005,8.457h3.272L124.366,43.213z"/>
					</g>
					<g>
						
							<path fill="#FAC109" stroke="#FFFFFF" stroke-width="2.8196" stroke-linecap="round" stroke-linejoin="round" stroke-miterlimit="10" d="
							M87.091,51.049c-2.183-0.07-2.397-0.293-2.397-2.558V36.436c0-2.221,0.213-2.47,2.32-2.539V33.25h-5.796l0.011,8.236H73.67
							l0.008-8.236h-5.766v0.647c2.082,0.067,2.296,0.316,2.296,2.539V48.49c0,2.267-0.215,2.488-2.402,2.559v0.645h5.872
							l-0.008-9.395h7.558l-0.011,9.395h5.874V51.049L87.091,51.049z"/>
					</g>
					
						<path fill="#FAC109" stroke="#FFFFFF" stroke-width="2.8196" stroke-linecap="round" stroke-linejoin="round" stroke-miterlimit="10" d="
						M65.533,38.823l-3.958,9.224l-3.898-9.224h-4.763v0.563c1.251,0.104,1.491,0.371,2.396,2.347l4.667,10.306
						c0,0-0.495,1.151-0.779,1.694c-0.543,1.041-0.835,1.115-0.835,1.115c-0.874-2.17-3.583-1.568-3.744,0.227
						c-0.099,1.134,0.667,2.113,1.947,2.113c1.651,0,2.61-0.912,3.703-3.451L64.8,43.087c1.203-2.788,1.866-3.5,3.358-3.7v-0.563
						L65.533,38.823L65.533,38.823L65.533,38.823z"/>
					<g>
						
							<path fill="#FAC109" stroke="#FFFFFF" stroke-width="2.8196" stroke-linecap="round" stroke-linejoin="round" stroke-miterlimit="10" d="
							M105.064,29.349c0.504-0.48,1.306-0.754,2.204-0.754c1.849,0,3.049,1.148,3.049,2.914c0,0.829-0.295,1.615-0.778,2.101
							c-0.542,0.545-1.399,0.867-2.333,0.867c-0.884,0-1.719-0.309-2.213-0.808c-0.522-0.522-0.817-1.279-0.817-2.099
							C104.176,30.698,104.509,29.881,105.064,29.349z M107.253,34.23c1.024,0,1.488-0.827,1.488-2.68
							c0-1.859-0.474-2.711-1.499-2.711c-0.486,0-0.899,0.223-1.1,0.614c-0.258,0.46-0.377,1.139-0.377,2.066
							C105.766,33.362,106.241,34.23,107.253,34.23z"/>
						
							<path fill="#FAC109" stroke="#FFFFFF" stroke-width="2.8196" stroke-linecap="round" stroke-linejoin="round" stroke-miterlimit="10" d="
							M127.952,32.647c0,0.466,0.037,0.744,0.117,0.956c0.098,0.235,0.333,0.396,0.581,0.396c0.243,0,0.529-0.117,0.823-0.329
							l0.166,0.265c-0.484,0.363-1.007,0.533-1.614,0.533c-0.639,0-1.11-0.214-1.335-0.586c-0.138-0.271-0.178-0.519-0.178-1.469
							v-3.32h-0.672v-0.316c0.521-0.021,0.851-0.181,1.124-0.568c0.212-0.299,0.331-0.607,0.433-1.136l0.592-0.055
							c-0.021,0.439-0.036,0.767-0.036,1.737h1.426v0.338h-1.426L127.952,32.647L127.952,32.647z"/>
						
							<path fill="#FAC109" stroke="#FFFFFF" stroke-width="2.8196" stroke-linecap="round" stroke-linejoin="round" stroke-miterlimit="10" d="
							M133.09,34.38h-0.875l-1.473-4.458c-0.222-0.69-0.424-0.893-0.929-0.924v-0.243h1.999l1.369,4.285l1.51-4.148h0.69
							l1.435,4.148l1.353-4.285h1.278v0.243c-0.675,0.043-0.968,0.341-1.288,1.288l-1.379,4.095h-0.849l-1.424-3.892L133.09,34.38z"
							/>
						<g>
							
								<path fill="#FAC109" stroke="#FFFFFF" stroke-width="2.8196" stroke-linecap="round" stroke-linejoin="round" stroke-miterlimit="10" d="
								M120.339,32.985V30.64c0-0.723-0.092-1.12-0.346-1.438c-0.312-0.407-0.829-0.619-1.498-0.619c-0.864,0-1.474,0.34-1.98,1.118
								c-0.208-0.754-0.75-1.118-1.637-1.118c-0.863,0-1.542,0.375-2.005,1.075l-0.008-1.053l-2.248,0.012v0.255
								c0.758,0.008,0.853,0.256,0.853,1.15v2.22h0.005v2.063h1.395v-2.063h0.003v-1.421c0-0.96,0.632-1.747,1.395-1.747
								c0.632,0,0.934,0.5,0.934,1.566v2.345c0,0.102,0,0.193-0.003,0.277v1.043h1.395v-1.27c0-0.017,0-0.033,0-0.051v-2.251
								c0-0.393,0.114-0.734,0.356-1.077c0.287-0.403,0.61-0.584,1.024-0.584c0.682,0,0.956,0.448,0.956,1.577v2.335
								c0,0.149-0.001,0.279-0.01,0.391v0.929h1.422V33.32C120.341,33.222,120.339,33.109,120.339,32.985z"/>
						</g>
						
							<path fill="#FAC109" stroke="#FFFFFF" stroke-width="2.8196" stroke-linecap="round" stroke-linejoin="round" stroke-miterlimit="10" d="
							M96.178,33.472c0,0.466-0.376,0.841-0.841,0.841c-0.463,0-0.842-0.375-0.842-0.841c0-0.466,0.378-0.84,0.842-0.84
							C95.802,32.632,96.178,33.007,96.178,33.472z"/>
						
							<circle fill="#FAC109" stroke="#FFFFFF" stroke-width="2.8196" stroke-linecap="round" stroke-linejoin="round" stroke-miterlimit="10" cx="123.603" cy="33.472" r="0.842"/>
						
							<path fill="#FAC109" stroke="#FFFFFF" stroke-width="2.8196" stroke-linecap="round" stroke-linejoin="round" stroke-miterlimit="10" d="
							M103.389,32.985c-0.532,0.991-1.403,1.491-2.583,1.491c-1.815,0-3.026-1.16-3.026-2.871c0-0.914,0.34-1.748,0.93-2.3
							c0.515-0.458,1.248-0.71,2.097-0.71c1.309,0,2.387,0.639,2.428,1.395c0.026,0.431-0.326,0.813-0.771,0.741
							c-0.269-0.044-0.651-0.207-0.722-0.88c-0.074-0.639-0.39-1.004-0.968-1.004c-0.485,0-0.896,0.266-1.084,0.679
							c-0.202,0.47-0.33,1.224-0.33,1.886c0,0.695,0.143,1.321,0.412,1.809c0.305,0.545,0.8,0.839,1.402,0.839
							c0.81,0,1.508-0.47,1.906-1.255L103.389,32.985z"/>
					</g>
				</g>
				<g>
					
						<path fill="#FAC109" stroke="#FFFFFF" stroke-width="2.8196" stroke-linecap="round" stroke-linejoin="round" stroke-miterlimit="10" d="
						M186.115,39.17c-2.266-2.01-5.807-2.346-8.395-1.602c-0.617,0.158-0.307-0.275-0.211-0.397
						c4.073-5.523,5.777-13.797-0.921-18.127c-8.285-5.366-19.013,2.726-15.72,14.99c0.184,0.685,0.405,1.364,0.658,2.028
						c-0.021-0.104-0.042-0.205-0.063-0.307c-1.743-9.126,4.198-18.466,12.688-14.583c7.787,3.56,3.03,15.364,0.545,17.994
						c-0.064,0.067-0.092,0.276,0.103,0.233c2.688-1.008,8.704-1.717,9.934,2.33c1.066,3.502-2.698,5.639-6.579,5.881
						c-2.743,0.172-7.561-0.719-11.361-3.518c4.128,4.032,9.728,6.211,15.363,4.489C188.034,46.784,189.167,41.883,186.115,39.17z"
						/>
					
						<path fill="#FAC109" stroke="#FFFFFF" stroke-width="2.8196" stroke-linecap="round" stroke-linejoin="round" stroke-miterlimit="10" d="
						M166.573,44.021c1.077,2.055,1.538,4.379,1.425,7.039c-0.169,4.004-3.456,4.576-5.242,2.467
						c-1.839-2.176-2.471-5.412-2.568-7.303c-0.03-0.309-0.002-0.42-0.652-0.347c-1.655,0.192-8.443-0.698-11.657-4.84
						c-4.161-5.364,0.898-7.915,7.063-5.603c1.878,0.699,3.536,1.457,4.99,2.274c-2.048-1.383-4.283-2.582-6.532-3.611
						c-8.29-3.783-13.905,3.988-6.065,9.971c3.906,2.981,8.914,3.162,11.612,2.604c0.662-0.133,0.632-0.073,0.708,0.595
						c0.017,3.276,1.102,6.823,2.688,8.416c2.365,2.364,6.497,1.198,6.785-2.468C169.401,49.73,168.39,46.675,166.573,44.021z"/>
					
						<path fill="#EB83B2" stroke="#FFFFFF" stroke-width="2.8196" stroke-linecap="round" stroke-linejoin="round" stroke-miterlimit="10" d="
						M157.688,35.525c0,0-3.76-5.588-8.408-7.604c-2.639-1.146-3.718-0.742-4.017-0.103c-0.471,1.009,1.484,1.808,3.219,2.401
						C151.681,31.324,155.785,33.224,157.688,35.525z"/>
					
						<path fill="#EA82B1" stroke="#FFFFFF" stroke-width="2.8196" stroke-linecap="round" stroke-linejoin="round" stroke-miterlimit="10" d="
						M165.942,43.249c0,0-8.483-5.286-8.914-21.663c-0.162-5.975-0.026-9.598-1.302-8.66c-0.662,0.489-2.124,3.883-1.051,11.063
						C156.547,36.557,165.043,42.807,165.942,43.249z"/>
				</g>
			</g>
		</g>
		<g>
			<g>
				<g>
					<path fill="#231815" d="M39.645,51.742h-0.861c0,0,0.005-1.557,0.005-3.842V36.212c0-2.173-0.186-2.395-2.051-2.395v-0.569
						l5.303,0.008l-0.002,7.387c1.07-1.522,2.296-2.191,4.134-2.191c3.651,0,5.784,2.392,5.784,6.486
						c0,4.465-2.372,7.123-6.344,7.123c-1.508,0-2.737-0.355-3.968-1.188C41.645,50.874,41.162,51.742,39.645,51.742z
						 M42.681,49.795c0.506,0.982,1.6,1.676,2.718,1.676c1.974,0,3.011-2.095,3.011-6.111c0-4.021-0.988-6.146-2.877-6.146
						c-1.118,0-2.162,0.741-2.746,1.927c-0.559,1.182-0.826,2.586-0.826,4.461C41.962,47.479,42.202,48.809,42.681,49.795z"/>
					<path fill="#231815" d="M89.602,40.204c1.144-1.113,2.958-1.753,4.984-1.753c4.185,0,6.902,2.663,6.902,6.756
						c0,1.927-0.665,3.748-1.76,4.877c-1.225,1.264-3.171,2.004-5.278,2.004c-1.997,0-3.895-0.718-5.009-1.875
						c-1.177-1.207-1.839-2.958-1.839-4.855C87.601,43.336,88.348,41.436,89.602,40.204z M94.559,51.518
						c2.317,0,3.357-1.92,3.357-6.211c0-4.315-1.067-6.285-3.387-6.285c-1.092,0-2.025,0.515-2.475,1.427
						c-0.587,1.063-0.856,2.64-0.856,4.784C91.198,49.497,92.265,51.518,94.559,51.518z"/>
					<path fill="#231815" d="M130.017,44.744c0.028,1.822,0.211,2.882,0.693,3.917c0.773,1.63,1.998,2.444,3.625,2.444
						c1.838,0,3.409-1.019,4.395-2.814l0.67,0.396c-1.334,2.34-3.12,3.377-5.865,3.377c-4.238,0-6.958-2.635-6.958-6.754
						c0-4.143,2.641-6.855,6.691-6.855c2.719,0,4.638,1.133,5.517,3.255c0.294,0.74,0.428,1.481,0.481,3.036h-9.25L130.017,44.744
						L130.017,44.744z M135.935,44.023c-0.056-1.554-0.162-2.317-0.456-3.084c-0.506-1.307-1.249-1.92-2.291-1.92
						c-1.146,0-2.026,0.737-2.584,2.17c-0.294,0.765-0.456,1.547-0.56,2.832L135.935,44.023L135.935,44.023z"/>
					<path fill="#231815" d="M4,51.417c2.158-0.049,2.4-0.3,2.4-2.612V36.521c0-2.314-0.268-2.591-2.4-2.612V33.25h8.341
						c5.278,0,7.651,1.337,7.651,4.28c0,2.669-1.651,3.948-5.731,4.378v0.176c4.264,0.2,6.424,1.839,6.424,4.886
						c0,3.62-2.532,5.104-8.794,5.104H4V51.417z M12.075,41.628c2.772,0,4.239-1.36,4.239-3.95c0-2.463-1.493-3.699-4.423-3.699
						H9.837v7.649H12.075L12.075,41.628z M11.864,51.342c3.33,0,5.009-1.511,5.009-4.499c0-1.69-0.614-3.022-1.733-3.729
						c-0.693-0.429-1.839-0.679-3.144-0.679H9.837v8.906H11.864L11.864,51.342z"/>
					<g>
						<path fill="#231815" d="M34.876,41.57c-0.114-0.971-0.433-1.613-0.986-2.107c-0.8-0.691-2.108-1.012-3.946-1.012
							c-1.813,0-3.251,0.298-4.369,0.934c-1.044,0.596-1.573,1.743-1.656,2.299c-0.143,0.897,0.306,2.068,1.843,1.951
							c1.051-0.082,1.599-1.139,1.649-2.027c0.082-0.937,0.162-1.33,0.426-1.748c0.376-0.592,0.933-0.838,1.784-0.838
							c1.602,0,2.082,0.764,2.082,3.381v1.6c-1.651,0.073-3.064,0.247-4.371,0.471c-2.852,0.517-4.265,1.823-4.265,3.943
							c0,2.216,1.573,3.626,4.107,3.626c1.73,0,3.17-0.618,4.557-2.002c0.134,1.511,1.194,1.877,2.047,1.877
							c0.24,0,0.641,0.002,1.084,0.008L34.876,41.57z M31.703,46.467c0,1.406-0.133,2.219-0.48,2.86
							c-0.506,1.011-1.52,1.63-2.584,1.63c-1.307,0-2.158-1.159-2.158-2.907c0-2.298,1.356-3.202,5.223-3.481L31.703,46.467
							L31.703,46.467z"/>
					</g>
					<g>
						<path fill="#231815" d="M124.366,43.213c0-1.677-0.214-2.591-0.801-3.33c-0.72-0.939-1.92-1.432-3.464-1.432
							c-2.003,0-3.412,0.785-4.586,2.591c-0.479-1.748-1.729-2.591-3.786-2.591c-1.996,0-3.569,0.865-4.635,2.488l-0.028-2.438
							l-5.196,0.026v0.593c1.757,0.021,1.971,0.594,1.971,2.659l0.014,9.914h3.243V43.63c0-2.216,1.464-4.042,3.222-4.042
							c1.465,0,2.159,1.157,2.159,3.626l-0.009,8.481h3.237v-8.262c0-0.914,0.263-1.703,0.824-2.494
							c0.667-0.935,1.414-1.353,2.373-1.353c1.573,0,2.212,1.036,2.212,3.647l-0.005,8.457h3.272L124.366,43.213z"/>
					</g>
					<g>
						<path fill="#231815" d="M87.091,51.049c-2.183-0.07-2.397-0.293-2.397-2.558V36.436c0-2.221,0.213-2.47,2.32-2.539V33.25
							h-5.796l0.011,8.236H73.67l0.008-8.236h-5.766v0.647c2.082,0.067,2.296,0.316,2.296,2.539V48.49
							c0,2.267-0.215,2.488-2.402,2.559v0.645h5.872l-0.008-9.395h7.558l-0.011,9.395h5.874V51.049L87.091,51.049z"/>
					</g>
					<path fill="#231815" d="M65.533,38.823l-3.958,9.224l-3.898-9.224h-4.763v0.563c1.251,0.104,1.491,0.371,2.396,2.347
						l4.667,10.306c0,0-0.495,1.151-0.779,1.694c-0.543,1.041-0.835,1.115-0.835,1.115c-0.874-2.17-3.583-1.568-3.744,0.227
						c-0.099,1.134,0.667,2.113,1.947,2.113c1.651,0,2.61-0.912,3.703-3.451L64.8,43.087c1.203-2.788,1.866-3.5,3.358-3.7v-0.563
						L65.533,38.823L65.533,38.823L65.533,38.823z"/>
					<g>
						<path fill="#231815" d="M105.064,29.349c0.504-0.48,1.306-0.754,2.204-0.754c1.849,0,3.049,1.148,3.049,2.914
							c0,0.829-0.295,1.615-0.778,2.101c-0.542,0.545-1.399,0.867-2.333,0.867c-0.884,0-1.719-0.309-2.213-0.808
							c-0.522-0.522-0.817-1.279-0.817-2.099C104.176,30.698,104.509,29.881,105.064,29.349z M107.253,34.23
							c1.024,0,1.488-0.827,1.488-2.68c0-1.859-0.474-2.711-1.499-2.711c-0.486,0-0.899,0.223-1.1,0.614
							c-0.258,0.46-0.377,1.139-0.377,2.066C105.766,33.362,106.241,34.23,107.253,34.23z"/>
						<path fill="#231815" d="M127.952,32.647c0,0.466,0.037,0.744,0.117,0.956c0.098,0.235,0.333,0.396,0.581,0.396
							c0.243,0,0.529-0.117,0.823-0.329l0.166,0.265c-0.484,0.363-1.007,0.533-1.614,0.533c-0.639,0-1.11-0.214-1.335-0.586
							c-0.138-0.271-0.178-0.519-0.178-1.469v-3.32h-0.672v-0.316c0.521-0.021,0.851-0.181,1.124-0.568
							c0.212-0.299,0.331-0.607,0.433-1.136l0.592-0.055c-0.021,0.439-0.036,0.767-0.036,1.737h1.426v0.338h-1.426L127.952,32.647
							L127.952,32.647z"/>
						<path fill="#231815" d="M133.09,34.38h-0.875l-1.473-4.458c-0.222-0.69-0.424-0.893-0.929-0.924v-0.243h1.999l1.369,4.285
							l1.51-4.148h0.69l1.435,4.148l1.353-4.285h1.278v0.243c-0.675,0.043-0.968,0.341-1.288,1.288l-1.379,4.095h-0.849
							l-1.424-3.892L133.09,34.38z"/>
						<g>
							<path fill="#231815" d="M120.339,32.985V30.64c0-0.723-0.092-1.12-0.346-1.438c-0.312-0.407-0.829-0.619-1.498-0.619
								c-0.864,0-1.474,0.34-1.98,1.118c-0.208-0.754-0.75-1.118-1.637-1.118c-0.863,0-1.542,0.375-2.005,1.075l-0.008-1.053
								l-2.248,0.012v0.255c0.758,0.008,0.853,0.256,0.853,1.15v2.22h0.005v2.063h1.395v-2.063h0.003v-1.421
								c0-0.96,0.632-1.747,1.395-1.747c0.632,0,0.934,0.5,0.934,1.566v2.345c0,0.102,0,0.193-0.003,0.277v1.043h1.395v-1.27
								c0-0.017,0-0.033,0-0.051v-2.251c0-0.393,0.114-0.734,0.356-1.077c0.287-0.403,0.61-0.584,1.024-0.584
								c0.682,0,0.956,0.448,0.956,1.577v2.335c0,0.149-0.001,0.279-0.01,0.391v0.929h1.422V33.32
								C120.341,33.222,120.339,33.109,120.339,32.985z"/>
						</g>
						<path fill="#231815" d="M96.178,33.472c0,0.466-0.376,0.841-0.841,0.841c-0.463,0-0.842-0.375-0.842-0.841
							c0-0.466,0.378-0.84,0.842-0.84C95.802,32.632,96.178,33.007,96.178,33.472z"/>
						<circle fill="#231815" cx="123.603" cy="33.472" r="0.842"/>
						<path fill="#231815" d="M103.389,32.985c-0.532,0.991-1.403,1.491-2.583,1.491c-1.815,0-3.026-1.16-3.026-2.871
							c0-0.914,0.34-1.748,0.93-2.3c0.515-0.458,1.248-0.71,2.097-0.71c1.309,0,2.387,0.639,2.428,1.395
							c0.026,0.431-0.326,0.813-0.771,0.741c-0.269-0.044-0.651-0.207-0.722-0.88c-0.074-0.639-0.39-1.004-0.968-1.004
							c-0.485,0-0.896,0.266-1.084,0.679c-0.202,0.47-0.33,1.224-0.33,1.886c0,0.695,0.143,1.321,0.412,1.809
							c0.305,0.545,0.8,0.839,1.402,0.839c0.81,0,1.508-0.47,1.906-1.255L103.389,32.985z"/>
					</g>
				</g>
				<g>
					<path fill="#FAC109" d="M186.115,39.17c-2.266-2.01-5.807-2.346-8.395-1.602c-0.617,0.158-0.307-0.275-0.211-0.397
						c4.073-5.523,5.777-13.797-0.921-18.127c-8.285-5.366-19.013,2.726-15.72,14.99c0.184,0.685,0.405,1.364,0.658,2.028
						c-0.021-0.104-0.042-0.205-0.063-0.307c-1.743-9.126,4.198-18.466,12.688-14.583c7.787,3.56,3.03,15.364,0.545,17.994
						c-0.064,0.067-0.092,0.276,0.103,0.233c2.688-1.008,8.704-1.717,9.934,2.33c1.066,3.502-2.698,5.639-6.579,5.881
						c-2.743,0.172-7.561-0.719-11.361-3.518c4.128,4.032,9.728,6.211,15.363,4.489C188.034,46.784,189.167,41.883,186.115,39.17z"
						/>
					<path fill="#FAC109" d="M166.573,44.021c1.077,2.055,1.538,4.379,1.425,7.039c-0.169,4.004-3.456,4.576-5.242,2.467
						c-1.839-2.176-2.471-5.412-2.568-7.303c-0.03-0.309-0.002-0.42-0.652-0.347c-1.655,0.192-8.443-0.698-11.657-4.84
						c-4.161-5.364,0.898-7.915,7.063-5.603c1.878,0.699,3.536,1.457,4.99,2.274c-2.048-1.383-4.283-2.582-6.532-3.611
						c-8.29-3.783-13.905,3.988-6.065,9.971c3.906,2.981,8.914,3.162,11.612,2.604c0.662-0.133,0.632-0.073,0.708,0.595
						c0.017,3.276,1.102,6.823,2.688,8.416c2.365,2.364,6.497,1.198,6.785-2.468C169.401,49.73,168.39,46.675,166.573,44.021z"/>
					<path fill="#EB83B2" d="M157.688,35.525c0,0-3.76-5.588-8.408-7.604c-2.639-1.146-3.718-0.742-4.017-0.103
						c-0.471,1.009,1.484,1.808,3.219,2.401C151.681,31.324,155.785,33.224,157.688,35.525z"/>
					<path fill="#EA82B1" d="M165.942,43.249c0,0-8.483-5.286-8.914-21.663c-0.162-5.975-0.026-9.598-1.302-8.66
						c-0.662,0.489-2.124,3.883-1.051,11.063C156.547,36.557,165.043,42.807,165.942,43.249z"/>
				</g>
			</g>
		</g>
	</g>
</g>
<g>
	<path fill="#333333" d="M204.229,43.318c-0.802,2.246-2.084,4.813-3.238,6.447c-0.481-0.385-1.443-1.091-2.053-1.41
		c1.187-1.508,2.276-3.688,2.949-5.741L204.229,43.318z M208.367,41.234v10.873h-2.887V41.234h-6.158v-2.533h6.158v-2.919h-6.352
		v-2.501h3.496c-0.129-1.091-0.578-2.758-1.123-4.009l2.438-0.609c0.515,1.25,1.026,2.887,1.188,3.945l-2.373,0.674h5.066
		c0.578-1.347,1.252-3.304,1.572-4.651l2.758,0.577c-0.545,1.412-1.09,2.887-1.635,4.074h3.752v2.501h-5.9v2.919h5.451v2.534h-5.451
		V41.234z M213.755,28.598h-14.112v-2.47h5.871c-0.354-0.898-0.771-1.924-1.156-2.726l2.951-0.77
		c0.545,1.091,1.188,2.438,1.604,3.496h4.843L213.755,28.598L213.755,28.598z M211.479,42.357c1.059,1.508,2.148,3.527,2.662,4.812
		l-2.084,1.251c-0.515-1.348-1.604-3.434-2.566-4.972L211.479,42.357z M228.35,36.264h-3.271v15.877h-2.919V36.264h-3.752v0.771
		c0,4.618-0.417,11.032-3.271,15.106c-0.449-0.546-1.669-1.443-2.277-1.765c2.533-3.721,2.758-9.142,2.758-13.343V25.936
		c3.561-0.609,7.506-1.604,9.814-2.598l2.342,2.181c-2.631,1.026-6.094,1.796-9.365,2.374v5.613h9.941V36.264L228.35,36.264z"/>
	<path fill="#333333" d="M240.271,38.38c-0.096,0.61-0.16,1.22-0.287,1.829c1.604,1.571,5.291,5.741,6.223,6.799l-2.053,2.566
		c-1.059-1.604-3.209-4.362-4.908-6.318c-1.059,3.305-2.95,6.512-6.352,8.98c-0.416-0.643-1.506-1.828-2.115-2.277
		c4.521-3.207,5.996-7.568,6.479-11.579h-6.094v-2.821h6.286v-0.963v-4.779h-1.956c-0.674,1.764-1.508,3.368-2.374,4.651
		c-0.545-0.513-1.731-1.315-2.438-1.732c1.828-2.341,3.08-6.094,3.817-9.847l2.854,0.545c-0.258,1.219-0.547,2.438-0.867,3.592
		h8.757v2.79h-4.779v4.812c0,0.288,0,0.608,0,0.931h5.679v2.821H240.271z M258.813,25.615v25.402h-3.016v-2.053h-5.838v2.405h-2.887
		V25.615H258.813z M255.797,46.174V28.438h-5.838v17.736H255.797z"/>
	<path fill="#333333" d="M280.165,34.82c2.183,6.671,6.224,12.092,12.284,14.625c-0.737,0.642-1.731,1.893-2.213,2.791
		c-5.998-2.791-9.879-7.986-12.381-14.786c-1.635,5.806-5.101,11.354-12.381,14.786c-0.48-0.803-1.442-1.86-2.277-2.502
		c7.635-3.336,10.746-9.108,12.027-14.914H263.84v-3.079h11.932c0.386-3.208,0.354-6.287,0.386-8.853h3.239
		c-0.032,2.598-0.064,5.677-0.449,8.853h12.926v3.079H280.165z"/>
	<path fill="#333333" d="M324.26,47.938h-5.581v4.33h-3.11v-4.33h-20.047v-2.951h5.261V27.411H296.1v-2.919h27.583v2.919h-5.004
		v17.575h5.581V47.938L324.26,47.938z M303.893,27.411v3.849h11.676v-3.849H303.893z M303.893,37.963h11.676v-4.009h-11.676V37.963z
		 M315.567,44.986v-4.297h-11.676v4.297H315.567z"/>
	<path fill="#333333" d="M337.787,43.191c-1.894,2.951-5.035,5.646-7.826,7.345c-0.609-0.545-1.796-1.539-2.533-1.988
		c2.887-1.442,5.806-3.753,7.377-6.286L337.787,43.191z M343.368,41.171v11.13h-3.176v-11.13h-12.221V38.35h12.221v-3.594h3.176
		v3.594h12.477v2.821H343.368z M337.819,27.283c0,3.592-1.443,7.666-7.826,10.04c-0.32-0.675-1.315-2.054-1.86-2.566
		c5.773-2.021,6.607-4.907,6.607-7.569V23.82h14.562v8.275c0,0.994,0.128,1.315,0.803,1.315h3.495c0.643,0,1.604-0.032,2.149-0.192
		c0.063,0.802,0.192,2.084,0.288,2.759c-0.545,0.191-1.477,0.225-2.405,0.225h-3.527c-3.079,0-3.85-1.092-3.85-4.169v-5.356h-8.436
		V27.283z M347.923,42.293c2.854,1.828,6.511,4.587,8.308,6.512l-2.438,1.893c-1.668-1.924-5.228-4.812-8.146-6.768L347.923,42.293z
		"/>
</g>
</svg>
