<?xml version="1.0" encoding="UTF-8" standalone="no"?>
<!DOCTYPE svg PUBLIC "-//W3C//DTD SVG 1.1//EN" "http://www.w3.org/Graphics/SVG/1.1/DTD/svg11.dtd">
<svg version="1.1" xmlns="http://www.w3.org/2000/svg" xmlns:xlink="http://www.w3.org/1999/xlink" preserveAspectRatio="xMidYMid meet" viewBox="0 0 120 50" width="120" height="50"><defs><path d="M111.56 2.01L111.71 2.03L111.86 2.05L112.01 2.08L112.15 2.11L112.29 2.15L112.44 2.19L112.57 2.24L112.71 2.29L112.84 2.35L112.97 2.42L113.1 2.49L113.23 2.56L113.35 2.64L113.46 2.72L113.58 2.81L113.69 2.9L113.8 3L113.9 3.1L114 3.2L114.1 3.31L114.19 3.42L114.28 3.54L114.36 3.65L114.44 3.77L114.51 3.9L114.58 4.03L114.65 4.16L114.71 4.29L114.76 4.43L114.81 4.56L114.85 4.71L114.89 4.85L114.92 4.99L114.95 5.14L114.97 5.29L114.99 5.44L115 5.6L115 5.75L115 12.46L114.73 12.67L113.81 13.52L112.97 14.44L112.19 15.41L111.49 16.45L110.87 17.54L110.33 18.68L109.88 19.87L109.53 21.1L109.27 22.37L109.11 23.67L109.06 25L109.11 26.33L109.27 27.63L109.53 28.9L109.88 30.13L110.33 31.32L110.87 32.46L111.49 33.55L112.19 34.59L112.97 35.56L113.81 36.48L114.73 37.33L115 37.54L115 44.25L115 44.4L114.99 44.56L114.97 44.71L114.95 44.86L114.92 45.01L114.89 45.15L114.85 45.29L114.81 45.44L114.76 45.57L114.71 45.71L114.65 45.84L114.58 45.97L114.51 46.1L114.44 46.23L114.36 46.35L114.28 46.46L114.19 46.58L114.1 46.69L114 46.8L113.9 46.9L113.8 47L113.69 47.1L113.58 47.19L113.46 47.28L113.35 47.36L113.23 47.44L113.1 47.51L112.97 47.58L112.84 47.65L112.71 47.71L112.57 47.76L112.44 47.81L112.29 47.85L112.15 47.89L112.01 47.92L111.86 47.95L111.71 47.97L111.56 47.99L111.4 48L111.25 48L8.75 48L8.6 48L8.44 47.99L8.29 47.97L8.14 47.95L7.99 47.92L7.85 47.89L7.71 47.85L7.56 47.81L7.43 47.76L7.29 47.71L7.16 47.65L7.03 47.58L6.9 47.51L6.77 47.44L6.65 47.36L6.54 47.28L6.42 47.19L6.31 47.1L6.2 47L6.1 46.9L6 46.8L5.9 46.69L5.81 46.58L5.72 46.46L5.64 46.35L5.56 46.23L5.49 46.1L5.42 45.97L5.35 45.84L5.29 45.71L5.24 45.57L5.19 45.44L5.15 45.29L5.11 45.15L5.08 45.01L5.05 44.86L5.03 44.71L5.01 44.56L5 44.4L5 44.25L5 5.75L5 5.6L5.01 5.44L5.03 5.29L5.05 5.14L5.08 4.99L5.11 4.85L5.15 4.71L5.19 4.56L5.24 4.43L5.29 4.29L5.35 4.16L5.42 4.03L5.49 3.9L5.56 3.77L5.64 3.65L5.72 3.54L5.81 3.42L5.9 3.31L6 3.2L6.1 3.1L6.2 3L6.31 2.9L6.42 2.81L6.54 2.72L6.65 2.64L6.77 2.56L6.9 2.49L7.03 2.42L7.16 2.35L7.29 2.29L7.43 2.24L7.56 2.19L7.71 2.15L7.85 2.11L7.99 2.08L8.14 2.05L8.29 2.03L8.44 2.01L8.6 2L8.75 2L111.25 2L111.4 2L111.56 2.01Z" id="ba82iFr4"></path></defs><g><g><g><use xlink:href="#ba82iFr4" opacity="1" fill="#e3f1fd" fill-opacity="1"></use></g></g></g></svg>