<?xml version="1.0" standalone="no"?><!DOCTYPE svg PUBLIC "-//W3C//DTD SVG 1.1//EN" "http://www.w3.org/Graphics/SVG/1.1/DTD/svg11.dtd"><svg t="1542597719260" class="icon" style="" viewBox="0 0 1024 1024" version="1.1" xmlns="http://www.w3.org/2000/svg" p-id="19419" xmlns:xlink="http://www.w3.org/1999/xlink" width="128" height="128"><defs><style type="text/css"></style></defs><path d="M138.2 168.1H298v-32.5H84.1l69.6 130.9h36.8zM939.9 135.6H726v32.5h159.8l-52.3 98.4h36.8zM512 870.8L400.5 661.1h-36.8L512 939.9l148.3-278.8h-36.8z" fill="#1e5bc6" p-id="19420"></path><path d="M552.9 661.1h-27.6L512 686l-13.2-24.9h-27.6l40.8 76.8zM276.5 243.1h21.6v-24.3h-62.2l25.3 47.7h27.7zM788.1 218.8H726v24.3h21.6l-12.4 23.4h27.6zM172.4 468.4c36-46.6 65.5-101.3 88.5-163.9l24.9 7.4c-12.6 30.2-25.8 58.2-39.6 84L221 635.6h-25.3l19.7-187.5c-11.4 17.5-23.1 33.6-35.2 48.3-1.9-9.7-4.5-19-7.8-28z m61.1 144.9c33.6-32.7 55.3-78.2 65-136.5l25.3 4.1c-3.7 20.5-8.6 39.5-14.6 57.1 10.6 28.2 28.6 46 54 53.6L379 440.7h-57.4l-1.7 15.9h-25.7l13.9-132.5H494l-13.7 130.1h-25.7l1.4-13.5h-51.7l-6.1 58.1h92.9l-2.5 23.7h-92.9l-7.7 73.2c30.9 1.5 67 1 108.3-1.5-6.3 10.8-11 19.9-14 27.4-34.5 0.4-67.4 0.2-98.6-0.7-40.2 0.1-69.3-17.3-87.1-52.2-12.6 26.2-28.4 48.4-47.5 66.4-3.6-6.2-8.8-13.4-15.6-21.8z m232.4-265.9H331.4l-7.4 69.9h134.5l7.4-69.9zM627.1 562.3c-1 9.9-1.5 19.3-1.3 28-15.2 7-32.9 16.2-53.3 27.7-4.3 2.3-9.4 6.1-15.4 11.5l-15.5-23.3c7.9-6.5 12.4-15 13.5-25.3l7.7-73.7h-45.3l2.5-23.3h45.3l4.8-45.6h-22l2.5-23.3h86.2l-2.5 23.3h-39.5l-4.8 45.6h47.3l-2.5 23.3h-47.3l-8.5 80.4c17.5-8.7 33.5-17.2 48.1-25.3zM525 408.6c25.1-31.3 46.3-66.1 63.3-104.4l24.5 8.4c-7.7 15.1-15.7 29.6-24.2 43.6h62.5l-2.5 23.3h-74.3c-11.8 18.2-24.4 35.6-37.6 52-3.3-8.1-7.3-15.7-11.7-22.9zM657.5 637h-24.7l24.9-236.5H735l10.1-96h26l-10.1 96h80.8l-20.6 196c-2.7 26.1-16.4 39.2-40.9 39.2-12.6 0-30.5-0.3-53.6-1-0.5-8.3-1.1-17.6-1.8-27.7 21 1.4 37.1 2 48.1 2 14.9 0 23-6.3 24.3-18.9l3.4-32.1H665.8l-8.3 79zM654 328.8l20.1-14.2c14.5 16 28.6 34 42.3 54.1l-23.1 17.2C680.1 364.1 667 345 654 328.8z m14.3 204.8h134.8l4.4-41.9H672.7l-4.4 41.9z m146.2-107.8H679.7l-4.4 41.6h134.8l4.4-41.6z m-29.6-52.7c17.8-17.3 35.4-36.5 52.7-57.4l20.5 16.9c-15.5 16.7-34.4 35.5-56.6 56.4l-16.6-15.9z" fill="#1e5bc6" p-id="19421"></path><path d="M310.5 174.5l22-2.1c1.3 7.4 4 12.8 8 16.2 4 3.5 9.5 5.2 16.4 5.2 7.3 0 12.7-1.5 16.4-4.6 3.7-3.1 5.5-6.7 5.5-10.8 0-2.6-0.8-4.9-2.3-6.7-1.6-1.9-4.3-3.5-8.1-4.8-2.6-0.9-8.7-2.5-18.1-4.9-12.1-3-20.6-6.7-25.5-11.1-6.9-6.1-10.3-13.6-10.3-22.5 0-5.7 1.6-11 4.8-16 3.2-5 7.9-8.7 14-11.3 6.1-2.6 13.4-3.9 22-3.9 14 0 24.6 3.1 31.7 9.2 7.1 6.1 10.8 14.4 11.2 24.6l-22.6 1c-1-5.7-3-9.9-6.2-12.4s-7.9-3.8-14.3-3.8c-6.6 0-11.7 1.3-15.4 4-2.4 1.7-3.6 4-3.6 6.9 0 2.6 1.1 4.9 3.4 6.8 2.8 2.4 9.8 4.9 20.7 7.5 11 2.6 19.1 5.3 24.4 8 5.3 2.8 9.4 6.6 12.3 11.4 3 4.8 4.5 10.7 4.5 17.8 0 6.4-1.8 12.4-5.3 18-3.6 5.6-8.6 9.7-15.1 12.5-6.5 2.7-14.6 4.1-24.3 4.1-14.1 0-25-3.3-32.6-9.8-7.6-6.5-12.1-16-13.6-28.5zM521.1 210.9h-24.5l-9.8-25.4h-44.7l-9.2 25.4H409l43.5-111.8h23.9l44.7 111.8z m-41.5-44.2l-15.4-41.5-15.1 41.5h30.5zM533.7 210.9V100h22.6v92h56.1v18.8h-78.7zM628.5 210.9V99.1h82.9V118H651v24.8h56.1v18.8H651V192h62.4v18.8h-84.9z" fill="#1e5bc6" p-id="19422"></path></svg>