<?xml version="1.0" standalone="no"?><!DOCTYPE svg PUBLIC "-//W3C//DTD SVG 1.1//EN" "http://www.w3.org/Graphics/SVG/1.1/DTD/svg11.dtd"><svg t="1541579520508" class="icon" style="" viewBox="0 0 1024 1024" version="1.1" xmlns="http://www.w3.org/2000/svg" p-id="1660" xmlns:xlink="http://www.w3.org/1999/xlink" width="32" height="32"><defs><style type="text/css"></style></defs><path d="M955.1 961.9c-16 16-41.9 16-57.9 0L645.7 710.4c-16-16-16-41.9 0-57.9s41.9-16 57.9 0L955.1 904c16 16 16 41.9 0 57.9z" fill="#1e5bc6" p-id="1661"></path><path d="M770.2 503.6m-41.3 0a41.3 41.3 0 1 0 82.6 0 41.3 41.3 0 1 0-82.6 0Z" fill="#1e5bc6" p-id="1662"></path><path d="M438.3 63.3c-209.2 0-378.8 169.6-378.8 378.8S229.1 821 438.3 821c104.9 0 199.8-42.6 268.4-111.5L648.3 651c-53.6 53.9-127.9 87.3-210 87.3-163.6 0-296.2-132.6-296.2-296.2S274.8 146 438.3 146s296.2 132.6 296.2 296.2c0 18.8-1.8 37.2-5.2 55.1h10.3v3.9h15.5V512h55.6c4.2-22.6 6.4-46 6.4-69.8 0.1-209.3-169.5-378.9-378.8-378.9z" fill="#1e5bc6" p-id="1663"></path></svg>