<svg xmlns="http://www.w3.org/2000/svg" viewBox="0 0 1024 1024" width="64" height="64">
	<style>
		tspan { white-space:pre }
		.shp0 { #231f20 } 
	</style>
	<g fill="#f786b9" id="Folder 4">
		<path id="Layer" class="shp0" d="M337.36,1018.84c-1.76,-0.73 -3.36,-1.8 -4.7,-3.14c-1.35,-1.35 -2.41,-2.94 -3.14,-4.7c-0.73,-1.76 -1.1,-3.64 -1.1,-5.55v-700.71c0,-6.54 4.36,-12.25 10.66,-13.98l519.34,-142.4c2.15,-0.59 4.41,-0.68 6.6,-0.25c2.19,0.42 4.25,1.35 6.03,2.7c1.77,1.35 3.21,3.1 4.2,5.1c0.99,2 1.51,4.2 1.51,6.43v700.74c0,6.52 -4.36,12.27 -10.66,13.99l-519.35,142.38c-0.31,0.08 -0.63,0.16 -0.94,0.22c-0.32,0.06 -0.63,0.12 -0.95,0.16c-0.32,0.04 -0.64,0.07 -0.96,0.1c-0.32,0.02 -0.64,0.03 -0.97,0.03c-1.9,0 -3.79,-0.38 -5.55,-1.1zM357.41,986.43l490.34,-134.42v-670.69l-490.34,134.46zM213.53,270.67c-3.49,0.01 -6.87,-1.25 -9.51,-3.53c-2.64,-2.28 -4.37,-5.45 -4.87,-8.9c-0.5,-3.46 0.27,-6.98 2.16,-9.91c1.89,-2.94 4.78,-5.09 8.13,-6.07l499.84,-147.26c3.72,-1.21 7.78,-0.86 11.24,0.96c3.46,1.83 6.04,4.98 7.15,8.73c1.1,3.76 0.64,7.8 -1.28,11.21c-1.92,3.41 -5.15,5.9 -8.93,6.9l-499.82,147.28c-0.33,0.1 -0.67,0.18 -1.01,0.26c-0.34,0.07 -0.68,0.14 -1.02,0.19c-0.34,0.05 -0.69,0.09 -1.03,0.11c-0.35,0.02 -0.69,0.04 -1.04,0.04zM862.25,863.07h0.14z" />
		<path id="Layer" class="shp0" d="M170.45,186.62c0.35,0 0.7,-0.01 1.05,-0.04c0.35,-0.03 0.7,-0.06 1.05,-0.11c0.35,-0.05 0.69,-0.11 1.04,-0.19c0.34,-0.08 0.68,-0.17 1.02,-0.27l500.26,-149.38c-0.29,5.64 -0.13,11.29 0.46,16.91c0.6,5.61 1.63,11.17 3.09,16.63c1.46,5.45 3.35,10.78 5.65,15.94c2.3,5.16 4.99,10.13 8.06,14.87c27.46,42.31 84.32,67.8 169.01,75.77c1.9,0.19 3.81,0 5.64,-0.55c1.82,-0.56 3.52,-1.47 4.99,-2.69c1.47,-1.22 2.68,-2.71 3.57,-4.4c0.89,-1.69 1.43,-3.54 1.59,-5.44c0.77,-7.96 -5.09,-15.03 -13.06,-15.79c-74.04,-6.97 -124.92,-28.5 -147.15,-62.29c-20.69,-31.46 -10.67,-63.52 -10.26,-64.78c0.85,-2.52 0.99,-5.22 0.4,-7.81c-0.58,-2.59 -1.87,-4.97 -3.72,-6.88c-1.85,-1.91 -4.18,-3.28 -6.75,-3.95c-2.57,-0.67 -5.28,-0.63 -7.82,0.13l-522.27,155.93c-3.33,1 -6.2,3.16 -8.07,6.1c-1.87,2.93 -2.62,6.44 -2.12,9.89c0.5,3.44 2.23,6.59 4.86,8.87c2.63,2.28 6,3.53 9.48,3.53z" />
		<path id="Layer" class="shp0" d="M356,1015.86c2.68,-2.59 4.26,-6.11 4.41,-9.84c0.15,-3.73 -1.13,-7.37 -3.59,-10.17c-2.46,-2.8 -5.9,-4.55 -9.62,-4.88c-158.44,-13.09 -161.4,-127.8 -161.44,-132.62l-0.8,-686.29c0,-1.9 -0.38,-3.79 -1.11,-5.54c-0.73,-1.76 -1.8,-3.35 -3.14,-4.7c-1.35,-1.34 -2.94,-2.41 -4.7,-3.14c-1.76,-0.73 -3.64,-1.1 -5.54,-1.1h-0.01c-8,0.01 -14.48,6.51 -14.48,14.51l0.8,686.3c0,1.46 2.38,146.14 188.05,161.5l1.2,0.04c3.73,-0.03 7.3,-1.49 9.98,-4.08z" />
		<path id="Layer" class="shp0" d="M346.01,319.23c3.75,0.02 7.37,-1.42 10.08,-4.01c2.71,-2.59 4.32,-6.14 4.47,-9.89c0.15,-3.75 -1.15,-7.42 -3.65,-10.22c-2.49,-2.81 -5.98,-4.54 -9.72,-4.83c-158.18,-13.08 -162.15,-113.96 -162.24,-118.35c-0.12,-7.96 -7,-14.18 -14.63,-14.3c-1.9,0.02 -3.79,0.41 -5.54,1.15c-1.75,0.74 -3.34,1.83 -4.68,3.19c-1.33,1.36 -2.39,2.97 -3.1,4.73c-0.71,1.77 -1.07,3.65 -1.05,5.56c0.01,1.32 3.28,131.59 188.84,146.93l1.2,0.04z" />
	</g>
</svg>