<?xml version="1.0" encoding="iso-8859-1"?>
<!DOCTYPE svg PUBLIC "-//W3C//DTD SVG 1.1//EN" "http://www.w3.org/Graphics/SVG/1.1/DTD/svg11.dtd">
<svg 
 version="1.1" xmlns="http://www.w3.org/2000/svg" xmlns:xlink="http://www.w3.org/1999/xlink" x="0px" y="0px" width="512px"
	 height="512px" viewBox="0 0 512 512" enable-background="new 0 0 512 512" xml:space="preserve"
><g id="5151e0c8492e5103c096af88a5236d2e"><g></g><g fill="#c1d4f1"><path display="inline" d="M189.328,31.622c0-17.188,34.087-31.122,76.132-31.122c42.046,0,76.133,13.934,76.133,31.122
		c0,17.189-34.087,31.126-76.133,31.126C223.415,62.748,189.328,48.812,189.328,31.622z M265.46,178.138
		c42.046,0,76.133-13.937,76.133-31.126V51.251c0,17.192-34.087,24.183-76.133,24.183c-42.045,0-76.132-6.99-76.132-24.183v95.761
		C189.328,164.201,223.415,178.138,265.46,178.138z M412.876,197.748v254.923c0,21.57-17.648,39.219-39.219,39.219v19.61H138.343
		v-19.61c-21.57,0-39.219-17.648-39.219-39.219V197.748c0-21.571,14.278-43.632,31.72-49.024c5.561-1.72,10.793-3.148,15.343-4.231
		l24.221-1.651v8.093c0,34.856,49.629,50.736,95.742,50.736c46.113,0,95.742-15.88,95.742-50.736v-8.093
		c0,0,20.911,5.661,21.57,5.883C399.64,154.116,412.876,176.177,412.876,197.748z M157.953,208.016
		c-6.695-5.871-12.302-12.39-16.569-19.552c-1.563,2.447-3.041,5.979-3.041,9.284v235.313h19.61V208.016z M354.048,344.818
		c0-48.736-30.725-88.242-68.634-88.242c-37.901,0-68.633,39.506-68.633,88.242c0,48.733,30.732,88.243,68.633,88.243
		C323.323,433.062,354.048,393.552,354.048,344.818z"></path></g></g></svg>