<?xml version="1.0" encoding="iso-8859-1"?>
<!DOCTYPE svg PUBLIC "-//W3C//DTD SVG 1.1//EN" "http://www.w3.org/Graphics/SVG/1.1/DTD/svg11.dtd">
<svg 
 version="1.1" xmlns="http://www.w3.org/2000/svg" xmlns:xlink="http://www.w3.org/1999/xlink" x="0px" y="0px" width="512px"
	 height="512px" viewBox="0 0 512 512" style="enable-background:new 0 0 512 512;" xml:space="preserve"
><g id="afcae5a789ccd549f9c6e2a2f8159793"><g></g><g fill="#c1d4f1"><path style="display: inline;" d="M434.992,118.165c9.845,0,17.899,8.055,17.899,17.899v142.747c0,9.844-8.055,17.898-17.899,17.898
		h-46.24c-9.845,0-21.913-6.984-26.817-15.521c0,0-42.504-73.975-105.935-73.975s-105.934,73.975-105.934,73.975
		c-4.905,8.537-16.973,15.521-26.817,15.521H77.007c-9.844,0-17.899-8.055-17.899-17.898V136.063
		c0-9.844,8.055-17.899,17.899-17.899H434.992z M184.403,402.763c0-9.845-8.055-17.899-17.899-17.899H77.007
		c-9.844,0-17.899,8.055-17.899,17.899v90.839c0,9.844,8.055,17.898,17.899,17.898h89.497c9.844,0,17.899-8.055,17.899-17.898
		V402.763z M452.892,402.763c0-9.845-8.055-17.899-17.899-17.899h-89.496c-9.845,0-17.899,8.055-17.899,17.899v90.839
		c0,9.844,8.055,17.898,17.899,17.898h89.496c9.845,0,17.899-8.055,17.899-17.898V402.763z M470.791,332.061
		c0-9.845-8.055-17.899-17.899-17.899H59.108c-9.845,0-17.899,8.055-17.899,17.899v18.347c0,9.845,8.055,17.899,17.899,17.899
		h393.783c9.845,0,17.899-8.055,17.899-17.899V332.061z M247.875,99.818c9.845,0,12.743-6.188,6.44-13.75L187.738,6.172
		c-6.303-7.562-16.616-7.562-22.919,0L98.242,86.068c-6.303,7.562-3.405,13.75,6.44,13.75H247.875z"></path></g></g></svg>