<?xml version="1.0" standalone="no"?><!DOCTYPE svg PUBLIC "-//W3C//DTD SVG 1.1//EN" "http://www.w3.org/Graphics/SVG/1.1/DTD/svg11.dtd"><svg t="1545184983768" class="icon" style="" viewBox="0 0 1024 1024" version="1.1" xmlns="http://www.w3.org/2000/svg" p-id="1877" xmlns:xlink="http://www.w3.org/1999/xlink" width="200" height="200"><defs><style type="text/css"></style></defs><g fill="#555555"><path d="M256 352c44.8 0 76.8-25.6 89.6-64L832 288c19.2 0 32-12.8 32-32S851.2 224 832 224L345.6 224c-12.8-38.4-51.2-64-89.6-64C204.8 160 160 204.8 160 256S204.8 352 256 352zM256 224c19.2 0 32 12.8 32 32S275.2 288 256 288 224 275.2 224 256 236.8 224 256 224z" p-id="1878"></path><path d="M832 480 601.6 480c-12.8-38.4-51.2-64-89.6-64s-76.8 25.6-89.6 64L192 480C172.8 480 160 492.8 160 512S172.8 544 192 544l230.4 0c12.8 38.4 51.2 64 89.6 64s76.8-25.6 89.6-64L832 544c19.2 0 32-12.8 32-32S851.2 480 832 480zM512 544C492.8 544 480 531.2 480 512S492.8 480 512 480 544 492.8 544 512 531.2 544 512 544z" p-id="1879"></path><path d="M768 672c-44.8 0-76.8 25.6-89.6 64L192 736c-19.2 0-32 12.8-32 32s12.8 32 32 32l486.4 0c12.8 38.4 51.2 64 89.6 64 51.2 0 96-44.8 96-96S819.2 672 768 672zM768 800c-19.2 0-32-12.8-32-32s12.8-32 32-32 32 12.8 32 32S787.2 800 768 800z" p-id="1880"></path></g></svg>