<?xml version="1.0" standalone="no"?>
<!DOCTYPE svg PUBLIC "-//W3C//DTD SVG 1.1//EN" "http://www.w3.org/Graphics/SVG/1.1/DTD/svg11.dtd" >
<svg xmlns="http://www.w3.org/2000/svg">
<metadata>Generated by IcoMoon</metadata>
<defs>
<font id="bbhiocn" horiz-adv-x="1024">
<font-face units-per-em="1024" ascent="960" descent="-64" />
<missing-glyph horiz-adv-x="1024" />
<glyph unicode="&#x20;" horiz-adv-x="512" d="" />
<glyph unicode="&#xe900;" glyph-name="arrow-down" d="M184 596.32l326.88-327.2 329.12 324.24-28.96 33.52-300.080-299.84-297.92 298.24-29.040-28.96z" />
<glyph unicode="&#xe901;" glyph-name="arrow-left" d="M660.32 776l-327.2-326.88 324.24-329.12 33.52 28.96-299.84 300.080 298.24 297.92-28.96 29.040z" />
<glyph unicode="&#xe902;" glyph-name="arrow-right" d="M334.72 746.96l298.24-297.92-299.84-300.080 33.52-28.96 324.24 329.12-327.2 326.88-28.96-29.040z" />
<glyph unicode="&#xe903;" glyph-name="arrow-up" d="M840 299.68l-326.88 327.2-329.12-324.24 28.96-33.52 300.080 299.84 297.92-298.24 29.040 28.96z" />
<glyph unicode="&#xe904;" glyph-name="avatar-line" d="M507.92 448c1.203-0.024 2.621-0.038 4.042-0.038 119.294 0 216 96.706 216 216s-96.706 216-216 216c-119.294 0-216-96.706-216-216 0-1.421 0.014-2.839 0.041-4.254l-0.003 0.212c2.242-116.127 95.793-209.678 211.708-211.917l0.212-0.003zM508.64 843.92c0.99 0.020 2.157 0.031 3.326 0.031 99.411 0 180-80.589 180-180s-80.589-180-180-180c-99.411 0-180 80.589-180 180 0 1.227 0.012 2.451 0.037 3.672l-0.003-0.183c1.89 96.742 79.818 174.67 176.381 176.557l0.179 0.003zM602.48 390l-90.48-90.48-90.48 90.48c-4.056 4.067-9.665 6.584-15.862 6.584-2.245 0-4.412-0.33-6.457-0.945l0.159 0.041c-157.492-47.874-272.036-187.094-282.582-354.537l-0.058-1.143c-0.029-0.431-0.046-0.933-0.046-1.44 0-12.448 10.081-22.541 22.524-22.56h745.602c12.445 0.019 22.526 10.112 22.526 22.56 0 0.507-0.017 1.009-0.050 1.508l0.004-0.068c-10.559 168.6-125.078 307.849-279.753 355.024l-2.807 0.736c-1.886 0.574-4.054 0.904-6.299 0.904-6.237 0-11.878-2.549-15.939-6.661l-0.002-0.002zM402.48 359.12l93.52-93.2c4.078-4.131 9.74-6.689 16-6.689s11.922 2.558 15.998 6.687l93.122 93.202c135.272-44.001 234.095-162.322 248.911-305.578l0.129-1.542h-716.4c14.958 144.817 113.815 263.145 246.573 306.402l2.547 0.718z" />
<glyph unicode="&#xe905;" glyph-name="avator-full" d="M507.92 448c1.203-0.024 2.621-0.038 4.042-0.038 119.294 0 216 96.706 216 216s-96.706 216-216 216c-119.294 0-216-96.706-216-216 0-1.421 0.014-2.839 0.041-4.254l-0.003 0.212c2.242-116.127 95.793-209.678 211.708-211.917l0.212-0.003zM602.56 390l-90.56-90.48-90.48 90.48c-4.056 4.067-9.665 6.584-15.862 6.584-2.245 0-4.412-0.33-6.457-0.945l0.159 0.041c-157.492-47.874-272.036-187.094-282.582-354.537l-0.058-1.143c-0.029-0.431-0.046-0.933-0.046-1.44 0-12.448 10.081-22.541 22.524-22.56h745.602c12.445 0.019 22.526 10.112 22.526 22.56 0 0.507-0.017 1.009-0.050 1.508l0.004-0.068c-10.559 168.6-125.078 307.849-279.753 355.024l-2.807 0.736c-1.886 0.574-4.054 0.904-6.299 0.904-6.237 0-11.878-2.549-15.939-6.661l-0.002-0.002z" />
<glyph unicode="&#xe906;" glyph-name="back-line" d="M423.36 103.84l30.4 30.4-292.080 291.76h782.32v43.040h-781.040l292.48 292.8-35.12 30.32-340.32-345.36 343.36-342.96z" />
<glyph unicode="&#xe907;" glyph-name="bell-line" d="M414.24 85.12c14.935-40.309 53.053-68.518 97.76-68.518s82.825 28.209 97.526 67.798l0.234 0.72zM882 144c-90 90.16-90 297.12-107.040 396.56l-3.040 17.28c-16 88.88-85.44 189.28-203.52 213.2 7.93 11.1 12.68 24.946 12.68 39.901 0 38.174-30.946 69.12-69.12 69.12s-69.12-30.946-69.12-69.12c0-14.955 4.75-28.801 12.823-40.112l-0.143 0.211c-118-24-187.84-124.24-203.52-213.2l-3.040-17.28c-16.96-99.44-16.96-306.4-106.96-396.56-6.232-6.25-10.085-14.875-10.085-24.4 0-19.061 15.43-34.517 34.481-34.56h691.204c19.055 0.043 34.485 15.499 34.485 34.56 0 9.525-3.853 18.15-10.086 24.401l0.001-0.001zM616 120h-425.36c-5.943 0.028-10.75 4.853-10.75 10.8 0 2.771 1.044 5.298 2.759 7.21l-0.009-0.010c91.2 110.8 88 325.76 103.44 414.24 17.92 102.88 92.32 189.52 225.92 189.52s208-86.64 225.92-189.76c16-88.48 12.24-304 103.6-414.4 1.68-1.884 2.706-4.382 2.706-7.12 0-5.916-4.792-10.712-10.705-10.72h-0.001z" />
<glyph unicode="&#xe908;" glyph-name="camera-full" d="M877.52 697.2h-731.040c-36.688 0-66.434-29.719-66.48-66.396v-432.004c0-36.716 29.764-66.48 66.48-66.48h731.040c36.716 0 66.48 29.764 66.48 66.48v0 432c-0.046 36.681-29.792 66.4-66.48 66.4v0zM522.4 198.8c-119.294 0-216 96.706-216 216s96.706 216 216 216c119.294 0 216-96.706 216-216v0c0-119.294-96.706-216-216-216v0zM844.32 564.56c-18.513 0-33.52 15.007-33.52 33.52s15.007 33.52 33.52 33.52c18.513 0 33.52-15.007 33.52-33.52v0c0-18.513-15.007-33.52-33.52-33.52v0zM522.4 597.36c-100.825 0-182.56-81.735-182.56-182.56s81.735-182.56 182.56-182.56c100.825 0 182.56 81.735 182.56 182.56v0c0 100.825-81.735 182.56-182.56 182.56v0zM522.4 332.16c-45.641 0-82.64 36.999-82.64 82.64s36.999 82.64 82.64 82.64c45.641 0 82.64-36.999 82.64-82.64v0c0-45.641-36.999-82.64-82.64-82.64v0zM329.2 763.68h-149.52v-33.2h149.52z" />
<glyph unicode="&#xe909;" glyph-name="camera-line" d="M522.4 531.28c-64.374 0-116.56-52.186-116.56-116.56s52.186-116.56 116.56-116.56c64.374 0 116.56 52.186 116.56 116.56 0 0.028 0 0.056 0 0.084v-0.004c-0.046 64.34-52.214 116.48-116.56 116.48v0zM522.4 332.080c-45.641 0-82.64 36.999-82.64 82.64s36.999 82.64 82.64 82.64c45.613 0 82.594-36.954 82.64-82.556v-0.004c0-45.641-36.999-82.64-82.64-82.64v0zM877.52 697.2h-731.040c-36.688 0-66.434-29.719-66.48-66.396v-432.004c0-36.716 29.764-66.48 66.48-66.48h731.040c36.716 0 66.48 29.764 66.48 66.48v0 432c-0.046 36.681-29.792 66.4-66.48 66.4v0zM910.72 198.72c0-18.336-14.864-33.2-33.2-33.2v0h-731.040c-18.336 0-33.2 14.864-33.2 33.2v0 432c0 0.024 0 0.052 0 0.080 0 18.336 14.864 33.2 33.2 33.2 0 0 0 0 0 0h731.040c18.336 0 33.2-14.864 33.2-33.2v0zM522.32 630.72c-119.294 0-216-96.706-216-216s96.706-216 216-216c119.294 0 216 96.706 216 216v0c0 0.024 0 0.052 0 0.080 0 119.265-96.661 215.954-215.916 216h-0.004zM522.4 232c-100.825 0-182.56 81.735-182.56 182.56s81.735 182.56 182.56 182.56c100.741 0 182.423-81.598 182.56-182.307v-0.013c0-0.071 0-0.156 0-0.24 0-100.825-81.735-182.56-182.56-182.56 0 0 0 0 0 0v0zM844.32 631.36c-18.513 0-33.52-15.007-33.52-33.52s15.007-33.52 33.52-33.52c18.513 0 33.52 15.007 33.52 33.52v0c0 0.048 0 0.104 0 0.16 0 18.513-15.007 33.52-33.52 33.52 0 0 0 0 0 0v0zM329.2 763.68h-149.52v-33.2h149.52z" />
<glyph unicode="&#xe90a;" glyph-name="card-line" d="M357.68 636.96c51.119 0 92.56 41.441 92.56 92.56s-41.441 92.56-92.56 92.56c-51.091 0-92.514-41.395-92.56-92.476v-0.004c0-0.024 0-0.052 0-0.080 0-51.119 41.441-92.56 92.56-92.56v0zM357.68 791.28c34.065 0 61.68-27.615 61.68-61.68s-27.615-61.68-61.68-61.68c-34.065 0-61.68 27.615-61.68 61.68v0c0 34.065 27.615 61.68 61.68 61.68v0zM225.68 149.040h572.64v-30.88h-572.64v30.88zM225.68 214.64h572.64v-30.88h-572.64v30.88zM912 843.040c0 1.36-0.64 2.64-1.040 3.92-0.667 2.264-1.374 4.148-2.197 5.969l0.117-0.289c-0.48 1.040-0.96 2.080-1.52 3.12s-1.52 2.56-2.32 3.84l-1.92 2.56c-3.908 4.988-8.698 9.088-14.162 12.119l-0.238 0.121q-2 1.040-4.080 1.92c-3.168 1.388-6.854 2.475-10.699 3.086l-0.261 0.034c-2.11 0.347-4.548 0.551-7.031 0.56h-709.529c-0.019 0-0.041 0-0.063 0-8.071 0-15.657-2.075-22.254-5.72l0.237 0.12q-2-1.040-3.84-2.32c-4.952-3.38-9.1-7.528-12.377-12.32l-0.103-0.16q-1.28-1.84-2.32-3.84c-3.525-6.36-5.6-13.946-5.6-22.017 0-0.022 0-0.044 0-0.067v0.003-771.44c0.046-25.547 20.766-46.24 46.32-46.24 0 0 0 0 0 0h709.68c25.582 0 46.32 20.738 46.32 46.32v0 771.36c-0.060 3.349-0.465 6.57-1.181 9.673l0.061-0.313zM156.96 849.12h709.68c8.527 0 15.44-6.913 15.44-15.44v0-54.16c0-86.72 0-216.48 0-216.48l-149.2 100.96c-4.798 3.419-10.78 5.466-17.24 5.466s-12.442-2.047-17.332-5.528l0.092 0.062-150.88-108.32-72 47.44c-4.798 3.419-10.78 5.466-17.24 5.466s-12.442-2.047-17.332-5.528l0.092 0.062-299.36-198.8v429.36c0 8.527 6.913 15.44 15.44 15.44v0zM141.68 366.96l318.24 210.24 88-61.12 168 122.8 166.4-115.68v-208h-740.64zM882.24 62.24c0-8.527-6.913-15.44-15.44-15.44v0h-709.68c-8.527 0-15.44 6.913-15.44 15.44v0 221.84h740.56z" />
<glyph unicode="&#xe90b;" glyph-name="chat-line" d="M113.2 846.8h531.68v-199.44h33.28v232.64h-598.16v-465.2h232.64v33.2h-199.44v398.8zM345.84 614.16v-465.2h337.68l132.96-132.96h27.84v132.96h99.68v465.2zM910.8 182.16h-99.76v-113.44l-114.16 113.44h-317.84v398.8h531.68z" />
<glyph unicode="&#xe90c;" glyph-name="check-full-circle" d="M512 880c-238.587 0-432-193.413-432-432s193.413-432 432-432c238.587 0 432 193.413 432 432v0c0 238.587-193.413 432-432 432v0zM419.040 253.36l-163.040 162.64 42.64 40.64 120.4-120.64 306.32 306.64 42.64-40.64z" />
<glyph unicode="&#xe90d;" glyph-name="check-full" d="M419.040 336.16l-120.4 120.56-42.64-40.72 163.040-162.64 348.96 348.64-42.64 40.64-306.32-306.48z" />
<glyph unicode="&#xe90e;" glyph-name="clock-line" d="M528.64 780.32h-33.28v-348.96h249.28v33.28h-216zM512 880c-238.587 0-432-193.413-432-432s193.413-432 432-432c238.587 0 432 193.413 432 432v0c0 238.587-193.413 432-432 432v0zM512 49.2c-220.251 0-398.8 178.549-398.8 398.8s178.549 398.8 398.8 398.8c220.251 0 398.8-178.549 398.8-398.8v0c0-220.251-178.549-398.8-398.8-398.8v0z" />
<glyph unicode="&#xe90f;" glyph-name="close-full" d="M944 448c0-238.587-193.413-432-432-432s-432 193.413-432 432c0 238.587 193.413 432 432 432v0c238.587 0 432-193.413 432-432v0zM744 644.96l-35.040 35.040-196.96-197.2-196.96 197.2-35.040-35.040 197.2-196.96-197.2-196.96 35.040-35.040 196.96 197.2 196.96-197.2 35.040 35.040-197.2 196.96z" />
<glyph unicode="&#xe910;" glyph-name="close-line" d="M840 741.92l-34.080 34.080-293.92-293.92-293.92 293.92-34.080-34.080 293.92-293.92-293.92-293.92 34.080-34.080 293.92 293.92 293.92-293.92 34.080 34.080-293.92 293.92 293.92 293.92z" />
<glyph unicode="&#xe911;" glyph-name="close-outline" d="M512 880c-238.587 0-432-193.413-432-432s193.413-432 432-432c238.587 0 432 193.413 432 432v0c0 238.587-193.413 432-432 432v0zM512 49.2c-220.251 0-398.8 178.549-398.8 398.8s178.549 398.8 398.8 398.8c220.251 0 398.8-178.549 398.8-398.8v0c0-220.251-178.549-398.8-398.8-398.8v0zM743.76 644.96l-34.8 34.8-196.96-196.96-196.96 196.96-34.8-34.8 196.96-196.96-196.96-196.96 34.8-34.8 196.96 196.96 196.96-196.96 34.8 34.8-196.96 196.96 196.96 196.96z" />
<glyph unicode="&#xe912;" glyph-name="earth-full" d="M707.28 699.6c-6.741 10.862-15.962 19.596-26.904 25.572l-0.376 0.188c-11.52 1.76-4.64-8.48-4.64-12.96-3.732-2.339-6.961-4.982-9.821-7.98l-0.019-0.020c-1.36-1.12 3.28-11.76 12.24-8s3.76-3.44 9.92-17.12 18.56-13.92 24-9.76c7.52 5.2-0.48 23.12-4.4 30.080zM743.040 612.72v0zM856.48 561.6c0.8 0-3.44 0.8 0 0zM512 880c-238.587 0-432-193.413-432-432s193.413-432 432-432c238.587 0 432 193.413 432 432v0c0 238.587-193.413 432-432 432v0zM352.72 113.52c-11.351 6.139-19.358 17.212-21.176 30.266l-0.024 0.214c-8 40-0.56 61.84 34.64 85.36 16.56 11.040 19.36 24.4 32.56 37.68 3.28 4.16 12 20 17.76 20.8 7.040 1.52 26.4 4.88 30.24 12.56 7.28 9.92 23.36 52.8 30.48 57.12 11.6 7.6 27.84 30.8 16 44.56-13.52 16.64-32 16.88-49.92 25.68-15.44 8-22.32 42.96-34.16 55.12-22.88 23.6-57.76 37.12-86.72 51.76-16 6.24-14.16 8-26.4-4.080-16-16-38.72 4-41.040 20.24 0 5.44-6.32 35.12-2.72 37.44 34.64 21.68-16 16.64-20.24 26.64-10.32 28.88 25.12 51.84 48.96 54.16 26.8 3.36 32-42.24 42.64-38.4 4.96 2.48 4.96 24 5.6 28.56 2.48 15.52 6.88 17.92 22 23.52 17.52 6.48 30.96 14.72 49.6 17.76 21.2 6.16 39.2 2.96 55.52 16.56 7.52 5.6 12.96-3.040 20.080-4.64 15.44-3.12 18.72 21.44 18.72 30.64s2.4 16.64-9.040 26.24c-15.040 11.68-36.72 1.68-48.8-10.4-14.64-13.6-31.52-12.64-26.64 10.8 1.2 8.56 19.68 18.48 27.040 23.12s11.36-4.88 20.080-2.72c12.72 2.8 17.44-9.12 32.4-9.28 11.457 2.707 19.851 12.846 19.851 24.946 0 4.557-1.191 8.836-3.278 12.542l0.066-0.128h15.92c5.44-17.12-11.52-32-2.96-53.28 16.96-41.44 30.88-5.84 48 13.52 5.52 5.52 8.96 4.24 17.92 6 5.6 0.96 13.6 17.84 16 23.12 41.393-10.404 77.776-26.486 110.555-47.669l-1.435 0.869c-14.4-1.52-18 2.72-17.84-14.24 0-6.4 0.56-25.68 10.16-27.28 16-1.92 13.040-13.2 28.080-15.12s5.44-14.56 11.28-27.12c6.32-19.76-38.48-25.68-47.040-28.96-26.32-8.8 12.24-47.040 29.28-43.040 5.44 1.36 23.52 3.68 24.8 9.76 0 0.64-3.52 21.2-1.68 23.6 2.96 3.76 9.92 5.68 20.8-0.48 25.76-14.64 38.88-49.6 69.2-56.48 4.16-0.96 11.28 0 16-3.92 4.32-5.84 15.28-16 2.16-16-17.36 3.84-26.56-1.68-40.88 9.36s-23.76 21.2-43.44 21.2c-16.96 0-32 7.36-49.6 4.56-11.329-2.373-20.949-5.131-30.282-8.491l1.562 0.491c-8.88-2.96-10.64-18.8-19.68-20.64-37.52-8.8-29.44-44.72-36.24-73.12-2.64-10.88-11.6-40.48-1.76-50.32 17.6-17.040 38.16-40.56 64-44.32 13.92-2 44.24 8.8 53.68-5.28 4-8 14.4 5.84 17.2-1.12 7.040-21.2-8-35.040-8-55.040 0-29.36 17.68-40-6.32-65.84-26.32-26.24-8-59.36-22.96-90.64-8-16-9.28-38.4-20.96-45.84-23.7-15.407-50.949-28.703-79.808-38.515l-2.592-0.765c-34.732-11.768-74.737-18.56-116.328-18.56-15.39 0-30.563 0.93-45.465 2.737l1.793-0.177c-30.752 3.616-58.729 10.45-85.261 20.263l2.541-0.823c-7.28 2.64-14 4.8-20.16 7.12q-7.52 2.64-14.32 5.84zM272 165.76l-2.4 2.24q-10 8.64-19.44 18.080t-18.72 20.32v0l-3.6 4.32c-53.016 64.080-85.177 147.103-85.177 237.636 0 71.859 20.262 138.986 55.384 195.979l-0.927-1.616c11.76-11.76-8-34.8 14.48-50.16 9.92-6.96 19.36-4.16 17.36-16.96s10.32-12.24 12.16-23.12c5.52-24 37.040-35.92 19.12-62.88-17.6-24-32.8-51.52-19.44-82.56 5.997-12.232 13.777-22.644 23.138-31.383l0.062-0.057c15.040-15.36 14.24-6.16 14.24-25.6 0-8.4 10.16-17.12 9.040-22.56-1.92-15.44-5.6-30.72-7.52-46.080-3.44-55.2 0-109.28 41.040-150.64-16.813 10.231-31.284 20.601-44.929 31.932l0.609-0.492z" />
<glyph unicode="&#xe913;" glyph-name="envelope-line" d="M80 688.96v-481.92c0-22.931 18.589-41.52 41.52-41.52v0h780.96c22.931 0 41.52 18.589 41.52 41.52v0 481.92c0 22.931-18.589 41.52-41.52 41.52v0h-780.96c-22.931 0-41.52-18.589-41.52-41.52v0zM885.84 696.96l-359.2-359.2c-3.761-3.747-8.95-6.064-14.68-6.064s-10.919 2.317-14.681 6.065l-359.199 359.199zM113.2 198.8v1.2l0.96-0.96zM306.64 416l-193.44-193.84v449.84l369.44-369.12c7.514-7.514 17.894-12.162 29.36-12.162s21.846 4.648 29.36 12.162l369.44 369.12v-449.76l-193.36 193.76-24.48-24.48 192-192h-746.24l192 192zM909.84 199.2l0.88 0.88v-0.88z" />
<glyph unicode="&#xe914;" glyph-name="feed-line" d="M157.12 108.56c8.527 0 15.44 6.913 15.44 15.44v0 725.12h-30.88v-725.12c0-8.527 6.913-15.44 15.44-15.44v0zM203.44 849.12v-725.12c-1.061-24.74-21.375-44.395-46.28-44.395s-45.219 19.655-46.277 44.3l-0.003 0.096v725.12h-30.88v-725.12c0-42.592 34.528-77.12 77.12-77.12v0h694.32c51.119 0 92.56 41.441 92.56 92.56v0 709.68zM913.12 139.44c0-34.065-27.615-61.68-61.68-61.68v0h-632.56c9.638 12.696 15.44 28.764 15.44 46.187 0 0.047 0 0.094 0 0.141v-0.007 694.24h678.88zM296 179.92h555.44v-30.88h-555.44v30.88zM851.44 600h-555.44v-373.76h555.44zM820.56 256.72h-493.68v312.8h493.68zM444.48 766.24h406.96v-30.88h-406.96v30.88zM296 766.24h109.92v-123.44h-109.92v123.44zM444.48 673.68h406.96v-30.88h-406.96v30.88z" />
<glyph unicode="&#xe915;" glyph-name="heart-full" d="M348.56 194.72c-136.88 123.6-268.56 237.28-268.56 398.96s94.56 262.32 246.88 262.32c91.44 0 153.12-50.88 185.12-87.36 44.731 52.965 110.923 86.592 184.988 87.359l0.132 0.001c152 0 246.88-100.48 246.88-262.32s-131.68-275.36-268.56-398.96c-70.88-63.92-163.44-154.72-163.44-154.72s-92.56 90.8-163.44 154.72z" />
<glyph unicode="&#xe916;" glyph-name="heart-line" d="M697.12 856c-74.197-0.768-140.389-34.395-184.821-86.996l-0.299-0.364c-32 36.48-93.68 87.36-185.12 87.36-152.32 0-246.88-100.56-246.88-262.32s131.68-275.36 268.56-398.96c70.88-63.92 163.44-154.72 163.44-154.72s92.56 90.72 163.44 154.72c136.88 123.6 268.56 237.28 268.56 398.96s-94.56 262.32-246.88 262.32zM512 84.48c-171.040 177.28-401.12 308.56-401.12 509.12 0 138.88 77.12 231.44 216 231.44 123.44 0 185.12-108 185.12-108s60.8 108 185.12 108c138.88 0 216-92.56 216-231.44 0-200.56-230.080-331.84-401.12-509.12z" />
<glyph unicode="&#xe917;" glyph-name="lock-line" d="M816.64 569.84h-83.12v88.64c0 122.342-99.178 221.52-221.52 221.52s-221.52-99.178-221.52-221.52v0-88.64h-83.12c-24.477 0-44.32-19.843-44.32-44.32v0-465.2c0-24.477 19.843-44.32 44.32-44.32v0h609.2c24.477 0 44.32 19.843 44.32 44.32v0 465.2c0 0 0 0 0 0 0 24.449-19.797 44.274-44.236 44.32h-0.004zM541.36 297.84v-181.12h-58.72v181.28c-34.478 12.442-58.68 44.881-58.68 82.972 0 48.601 39.399 88 88 88s88-39.399 88-88c0-38.091-24.202-70.53-58.067-82.778l-0.613-0.194zM689.28 569.84h-354.48v88.64c0 97.887 79.353 177.24 177.24 177.24s177.24-79.353 177.24-177.24v0z" />
<glyph unicode="&#xe918;" glyph-name="magnify-glass-line" d="M710.72 274.72c58.258 64.189 93.921 149.809 93.921 243.759 0 200.634-162.646 363.28-363.28 363.28s-363.28-162.646-363.28-363.28c0-200.634 162.646-363.28 363.28-363.28 93.95 0 179.57 35.664 244.061 94.191l-0.302-0.27 233.12-233.12 25.6 25.6zM442.48 189.76c-181.149 0-328 146.851-328 328s146.851 328 328 328c181.149 0 328-146.851 328-328v0c0-181.149-146.851-328-328-328v0zM403.44 789.2v-34.4c136.411-2.803 252.123-88.46 299.072-208.569l0.768-2.231q13.2 13.12 26.8 25.84c-56.053 128.221-180.695 216.739-326.308 219.355l-0.332 0.005z" />
<glyph unicode="&#xe919;" glyph-name="mars" d="M851.44 818.32c17.018-0.090 30.79-13.862 30.88-30.871v-200.569c0.001-0.072 0.002-0.157 0.002-0.242 0-8.395-6.805-15.2-15.2-15.2-0.085 0-0.17 0.001-0.255 0.002h-30.867c-0.072-0.001-0.157-0.002-0.242-0.002-8.395 0-15.2 6.805-15.2 15.2 0 0.085 0.001 0.17 0.002 0.255v-0.013 126.32l-184-184.72c37.822-46.701 60.721-106.838 60.721-172.322 0-0.281 0-0.561-0.001-0.841v0.044c-0.046-153.368-124.386-277.68-277.76-277.68-153.403 0-277.76 124.357-277.76 277.76 0 153.374 124.312 277.714 277.676 277.76h0.004c0.237 0.001 0.517 0.001 0.798 0.001 65.485 0 125.621-22.899 172.839-61.126l-0.516 0.405 184 184h-125.68c-0.072-0.001-0.157-0.002-0.242-0.002-8.395 0-15.2 6.805-15.2 15.2 0 0.085 0.001 0.17 0.002 0.255v-0.013 30.96c-0.001 0.072-0.002 0.157-0.002 0.242 0 8.395 6.805 15.2 15.2 15.2 0.085 0 0.17-0.001 0.255-0.002h-0.013zM419.44 139.36c119.294 0 216 96.706 216 216s-96.706 216-216 216c-119.294 0-216-96.706-216-216v0c0-119.294 96.706-216 216-216v0z" />
<glyph unicode="&#xe91a;" glyph-name="minus" d="M184 466.32h656v-36.64h-656v36.64z" />
<glyph unicode="&#xe91b;" glyph-name="more-horizontal-full" d="M188 556c-59.647 0-108-48.353-108-108s48.353-108 108-108c59.647 0 108 48.353 108 108v0c-0.181 59.574-48.426 107.819-107.983 108h-0.017zM836 556c-59.647 0-108-48.353-108-108s48.353-108 108-108c59.647 0 108 48.353 108 108v0c-0.181 59.574-48.426 107.819-107.983 108h-0.017zM512 556c-59.647 0-108-48.353-108-108s48.353-108 108-108c59.647 0 108 48.353 108 108v0c-0.181 59.574-48.426 107.819-107.983 108h-0.017z" />
<glyph unicode="&#xe91c;" glyph-name="more-line" d="M512 880c-238.587 0-432-193.413-432-432s193.413-432 432-432c238.587 0 432 193.413 432 432v0c0 238.587-193.413 432-432 432v0zM512 49.36c-220.163 0-398.64 178.477-398.64 398.64s178.477 398.64 398.64 398.64c220.163 0 398.64-178.477 398.64-398.64v0c0-220.163-178.477-398.64-398.64-398.64v0zM420.32 690l241.76-241.52-243.040-243.28 27.2-23.44 262.88 266.8-265.28 264.96z" />
<glyph unicode="&#xe91d;" glyph-name="optional-vertical-full" d="M620 772c0 59.647-48.353 108-108 108s-108-48.353-108-108c0-59.647 48.353-108 108-108v0c59.574 0.181 107.819 48.426 108 107.983v0.017zM620 124c0 59.647-48.353 108-108 108s-108-48.353-108-108c0-59.647 48.353-108 108-108v0c59.574 0.181 107.819 48.426 108 107.983v0.017zM620 448c0 59.647-48.353 108-108 108s-108-48.353-108-108c0-59.647 48.353-108 108-108v0c59.574 0.181 107.819 48.426 108 107.983v0.017z" />
<glyph unicode="&#xe91e;" glyph-name="photos-full" d="M279.36 813.52v-66.48h598.16v-465.2h-33.2v432h-664.64v-66.48h598.16v-465.2h-33.2v432h-664.64v-531.68h664.64v99.68h99.68v99.68h99.68v531.68zM711.36 310.96l-120.64 98.8c-3.867 2.782-8.699 4.449-13.92 4.449s-10.053-1.667-13.992-4.498l0.072 0.049-137.12-124.080-76 57.84c-3.867 2.782-8.699 4.449-13.92 4.449s-10.053-1.667-13.992-4.498l0.072 0.049-208.72-158.4v395.84h598.16zM262.8 381.52c45.827 0.046 82.96 37.206 82.96 83.040 0 45.862-37.178 83.040-83.040 83.040-45.834 0-82.994-37.133-83.040-82.956v-0.004c0-0.024 0-0.052 0-0.080 0-45.862 37.178-83.040 83.040-83.040 0.028 0 0.056 0 0.084 0h-0.004z" />
<glyph unicode="&#xe91f;" glyph-name="plus" d="M840 429.68v36.64h-309.68v309.68h-36.64v-309.68h-309.68v-36.64h309.68v-309.68h36.64v309.68h309.68z" />
<glyph unicode="&#xe920;" glyph-name="poll-full" d="M200 507.2h120.56c18.336 0 33.2-14.864 33.2-33.2v-330.32c0-18.336-14.864-33.2-33.2-33.2h-120.56c-18.336 0-33.2 14.864-33.2 33.2v330.32c0 18.336 14.864 33.2 33.2 33.2zM451.76 785.52h120.56c18.336 0 33.2-14.864 33.2-33.2v-608.64c0-18.336-14.864-33.2-33.2-33.2h-120.56c-18.336 0-33.2 14.864-33.2 33.2v608.64c0 18.336 14.864 33.2 33.2 33.2zM703.44 349.36h120.56c18.336 0 33.2-14.864 33.2-33.2v-172.48c0-18.336-14.864-33.2-33.2-33.2h-120.56c-18.336 0-33.2 14.864-33.2 33.2v172.48c0 18.336 14.864 33.2 33.2 33.2z" />
<glyph unicode="&#xe921;" glyph-name="poll-stamp-line" d="M929.2 560c-51.065 185.789-218.474 320.020-417.234 320.020-238.587 0-432-193.413-432-432s193.413-432 432-432c39.846 0 78.432 5.395 115.068 15.493l-3.034-0.713c185.761 51.083 319.966 218.479 319.966 417.22 0 39.827-5.389 78.394-15.479 115.014l0.713-3.034zM849.2 525.12c7.48-26.838 11.779-57.657 11.779-89.481 0-1.28-0.007-2.558-0.021-3.834l0.002 0.195-323.12 86.56-69.52 259.28c14.111 2.041 30.406 3.207 46.972 3.207 159.064 0 293.029-107.459 333.259-253.741l0.569-2.426zM181.6 346.080c-7.465 26.806-11.756 57.588-11.756 89.372 0 143.795 87.819 267.079 212.75 319.144l2.286 0.844 177.52-662.32c-14.111-2.041-30.406-3.207-46.972-3.207-159.064 0-293.029 107.459-333.259 253.741l-0.569 2.426zM645.6 115.52l-82 306.64 285.44-76.48c-29-105.238-103.732-188.819-200.914-229.315l-2.286-0.845z" />
<glyph unicode="&#xe922;" glyph-name="share-line" d="M80 106.080h23.2l43.28 69.92c46.080 73.6 101.040 141.28 170.56 172.32 56.969 28.125 123.97 44.759 194.812 45.199l0.148 0.001v-179.52l432 288-432 288v-180.72c-141.76-6.32-243.2-46.56-322.4-126.4-117.6-118.56-109.6-267.76-109.6-305.28 0-20 0-48.8 0-71.52zM548.080 574v145.52l333.2-217.76-333.2-217.52v145.76c-204.72 0-325.28-55.36-432-237.12-0.4 0-20.080 381.12 432 381.12z" />
<glyph unicode="&#xe923;" glyph-name="smile-line" d="M379.040 481.040c18.32 0 33.2 22.4 33.2 50.080s-14.88 50.080-33.2 50.080-33.2-22.4-33.2-50.080 14.88-50.080 33.2-50.080zM512 880c-238.587 0-432-193.413-432-432s193.413-432 432-432c238.587 0 432 193.413 432 432v0c0 238.587-193.413 432-432 432v0zM512 49.36c-220.163 0-398.64 178.477-398.64 398.64s178.477 398.64 398.64 398.64c220.163 0 398.64-178.477 398.64-398.64v0c0-220.163-178.477-398.64-398.64-398.64v0zM644.96 481.36c18.32 0 33.2 22.4 33.2 50.080s-14.88 50.080-33.2 50.080-33.2-22.4-33.2-50.080 14.8-50.4 33.2-50.4zM512 215.28c-105.667 0.387-194.806 70.704-223.575 167.063l-0.425 1.657-32-9.2c33.093-112.044 135.061-192.415 255.8-192.415s222.706 80.371 255.322 190.531l0.478 1.884-31.6 9.2c-29.194-98.016-118.333-168.333-223.955-168.72h-0.045z" />
<glyph unicode="&#xe924;" glyph-name="venus" d="M789.68 602.4c-0.105-142.44-107.411-259.784-245.593-275.719l-1.287-0.121v-125.36h108c0.072 0.001 0.157 0.002 0.242 0.002 8.395 0 15.2-6.805 15.2-15.2 0-0.085-0.001-0.17-0.002-0.255v0.013-30.88c0.001-0.072 0.002-0.157 0.002-0.242 0-8.395-6.805-15.2-15.2-15.2-0.085 0-0.17 0.001-0.255 0.002h-107.987v-108c0.001-0.072 0.002-0.157 0.002-0.242 0-8.395-6.805-15.2-15.2-15.2-0.085 0-0.17 0.001-0.255 0.002h-30.787c-0.072-0.001-0.157-0.002-0.242-0.002-8.395 0-15.2 6.805-15.2 15.2 0 0.085 0.001 0.17 0.002 0.255v-0.013 108h-108c-0.072-0.001-0.157-0.002-0.242-0.002-8.395 0-15.2 6.805-15.2 15.2 0 0.085 0.001 0.17 0.002 0.255v-0.013 30.88c-0.001 0.072-0.002 0.157-0.002 0.242 0 8.395 6.805 15.2 15.2 15.2 0.085 0 0.17-0.001 0.255-0.002h107.987v125.36c-139.411 16.101-246.64 133.462-246.64 275.868 0 153.314 124.286 277.6 277.6 277.6s277.6-124.286 277.6-277.6c0-0.010 0-0.020 0-0.030v0.001zM296 602.4c0-119.294 96.706-216 216-216s216 96.706 216 216c0 119.294-96.706 216-216 216v0c-119.294 0-216-96.706-216-216v0z" />
<glyph unicode="&#xe925;" glyph-name="zface" d="M301.6 446.4c-35.2 0-64-28.8-64-64s28.8-64 64-64c35.2 0 64 28.8 64 64s-28.8 64-64 64zM722.4 446.4c-35.2 0-64-28.8-64-64s28.8-64 64-64c35.2 0 64 28.8 64 64 0.8 35.2-28 64-64 64zM628 243.2c-5.6 5.6-12.8 8.8-20.8 8.8s-15.2-3.2-20.8-8.8c-20-20-46.4-31.2-75.2-31.2s-55.2 11.2-75.2 31.2c-5.6 5.6-12.8 8.8-20.8 8.8s-15.2-3.2-20.8-8.8c-5.6-5.6-8.8-12.8-8.8-20.8s3.2-15.2 8.8-20.8c31.2-31.2 72-48 116-48s84.8 16.8 116 48c5.6 5.6 8.8 12.8 8.8 20.8s-1.6 15.2-7.2 20.8zM920 501.6v17.6c0 224.8-183.2 360.8-408 360.8s-408-136-408-360.8v-17.6c0 0-4-188.8 1.6-233.6 8-89.6 48.8-156 122.4-197.6 65.6-36.8 158.4-54.4 284-54.4s218.4 17.6 284 54.4c73.6 41.6 114.4 108 122.4 197.6 5.6-2.4 1.6 233.6 1.6 233.6zM775.2 107.2c-59.2-32.8-144.8-49.6-263.2-49.6s-204.8 16-263.2 49.6c-68.8 38.4-102.4 102.4-102.4 194.4v217.6c0 165.6 110.4 258.4 260.8 304 0 0 0 0 0.8 0 31.2 9.6 64.8 15.2 100 15.2 3.2 0 6.4 0 10.4 0 0 0 0 0 0 0 199.2-2.4 360.8-119.2 360.8-319.2v-217.6c-0.8-92-34.4-156-104-194.4z" />
<glyph unicode="&#xe926;" glyph-name="edite-full" d="M826.32 600.4l69.68 69.76c14.651 14.663 23.712 34.913 23.712 57.28s-9.061 42.617-23.713 57.28l-48 48c-14.627 14.729-34.889 23.845-57.28 23.845s-42.653-9.117-57.275-23.841l-69.765-69.765zM150.4 248l-5.92-5.92-40.48-202.080 202.32 40 5.92 5.92zM179.040 276.8l456.88 456.88 161.84-161.76-456.96-456.96-161.76 161.84z" />
<glyph unicode="&#xe927;" glyph-name="message-outline" d="M512 840c0.943 0.008 2.057 0.013 3.173 0.013 109.227 0 208.13-44.205 279.795-115.7l-0.007 0.007c67.324-66.495 109.021-158.8 109.021-260.845 0-75.438-22.788-145.553-61.856-203.838l0.835 1.323c-2.191-2.892-4.435-6.207-6.507-9.638l-0.293-0.522-0.48-0.72-0.4-0.72c-8.22-14.342-13.105-31.511-13.2-49.812v-4.988l1.2-4.8 27.6-110.32-102.72 37.76c-11.745 5.059-25.417 8-39.776 8-0.079 0-0.158 0-0.236 0h0.012c-0.055 0-0.121 0-0.187 0-13.291 0-26.014-2.435-37.745-6.884l0.732 0.244-26.080-9.68c-39.571-14.308-85.24-22.624-132.837-22.72h-0.043c-216 0-392 169.12-392 377.040s176 376.8 392 376.8zM512 880c-238.56 0-432-186.56-432-416.8s193.44-417.040 432-417.040c0.203 0 0.443-0.001 0.683-0.001 60.674 0 118.513 12.142 171.218 34.128l-2.941-1.088c0.972 0.501 2.137 0.989 3.341 1.388l0.179 0.052s0.4 0 0.4 0c6.905 2.634 14.891 4.16 23.234 4.16 0.016 0 0.033 0 0.049 0h-0.003c0.174 0.002 0.381 0.003 0.587 0.003 8.859 0 17.292-1.825 24.943-5.12l-0.41 0.157 174.56-64-45.92 184c0.046 11.147 3.008 21.593 8.161 30.627l-0.161-0.307c1.729 3.078 3.449 5.692 5.329 8.178l-0.129-0.178c42.942 63.012 68.65 140.761 68.88 224.502v0.058c0.4 230.72-193.040 417.28-432 417.28zM778.16 448c0-36.716-29.764-66.48-66.48-66.48s-66.48 29.764-66.48 66.48c0 36.716 29.764 66.48 66.48 66.48s66.48-29.764 66.48-66.48zM578.72 448c0-36.716-29.764-66.48-66.48-66.48s-66.48 29.764-66.48 66.48c0 36.716 29.764 66.48 66.48 66.48s66.48-29.764 66.48-66.48zM379.2 448c0-36.716-29.764-66.48-66.48-66.48s-66.48 29.764-66.48 66.48c0 36.716 29.764 66.48 66.48 66.48s66.48-29.764 66.48-66.48z" />
<glyph unicode="&#xe928;" glyph-name="message-full" d="M512 46.16c0.203 0 0.443-0.001 0.683-0.001 60.674 0 118.513 12.142 171.218 34.128l-2.941-1.088c0.972 0.501 2.137 0.989 3.341 1.388l0.179 0.052s0.4 0 0.4 0c6.905 2.634 14.891 4.16 23.234 4.16 0.016 0 0.033 0 0.049 0h-0.003c0.174 0.002 0.381 0.003 0.587 0.003 8.859 0 17.292-1.825 24.943-5.12l-0.41 0.157 174.56-64-45.92 184c0.046 11.147 3.008 21.593 8.161 30.627l-0.161-0.307c1.729 3.078 3.449 5.692 5.329 8.178l-0.129-0.178c42.942 63.012 68.65 140.761 68.88 224.502v0.058c0.4 230.72-193.040 417.28-432 417.28s-432-186.56-432-416.8 193.44-417.040 432-417.040zM712 514.48c36.578-0.182 66.16-29.876 66.16-66.479 0-36.716-29.764-66.48-66.48-66.48s-66.48 29.764-66.48 66.479v0c0 0.024 0 0.053 0 0.081 0 36.672 29.728 66.4 66.4 66.4 0.141 0 0.281 0 0.422-0.001h-0.022zM512 514.48c0.048 0 0.104 0 0.16 0 36.716 0 66.48-29.764 66.48-66.48s-29.764-66.48-66.48-66.48c-36.716 0-66.48 29.764-66.48 66.48v0c0 0.024 0 0.052 0 0.080 0 36.644 29.683 66.354 66.316 66.4h0.004zM312.48 514.48c0.071 0 0.156 0 0.24 0 36.716 0 66.48-29.764 66.48-66.48s-29.764-66.48-66.48-66.48c-36.716 0-66.48 29.764-66.48 66.48v0c0 0.024 0 0.052 0 0.080 0 36.672 29.728 66.4 66.4 66.4 0.028 0 0.056 0 0.084 0h-0.004z" />
<glyph unicode="&#xe929;" glyph-name="arrow-front" d="M840.32 776l-327.2-326.88 324.24-329.12 33.52 28.96-299.84 300.080 298.24 297.92-28.96 29.040zM480.32 776l-327.2-326.88 324.24-329.12 33.52 28.96-299.84 300.080 298.24 297.92-28.96 29.040z" />
<glyph unicode="&#xe92a;" glyph-name="arrow-last" d="M183.68 776l327.2-326.88-324.24-329.12-33.52 28.96 299.84 300.080-298.24 297.92 28.96 29.040zM543.68 776l327.2-326.88-324.24-329.12-33.52 28.96 299.84 300.080-298.24 297.92 28.96 29.040z" />
<glyph unicode="&#xe92b;" glyph-name="shopcart" d="M317.6 309.76l544 80c14.539 2.215 25.868 13.599 27.978 27.98l0.022 0.18 54.4 267.040c0.215 1.418 0.337 3.055 0.337 4.72 0 18.336-14.864 33.2-33.2 33.2-0.006 0-0.012 0-0.018 0h-687.759l-24 98c-3.539 14.682-16.491 25.446-31.983 25.6h-87.377v-33.2h86.88l121.12-489.2-39.28-108.080c-2.913 0.48-6.27 0.754-9.691 0.754-34.595 0-62.64-28.045-62.64-62.64s28.045-62.64 62.64-62.64c34.595 0 62.64 28.045 62.64 62.64 0 10.224-2.449 19.876-6.794 28.401l0.164-0.355h480c-4.159-8.146-6.595-17.768-6.595-27.959 0-34.551 28.009-62.56 62.56-62.56s62.56 28.009 62.56 62.56c0 34.551-28.009 62.56-62.56 62.56-4.663 0-9.208-0.51-13.58-1.478l0.416 0.077h-533.76l33.28 93.68zM910.32 689.68l-54.32-267.12-538.88-79.2-85.52 346.32z" />
<glyph unicode="&#xe92c;" glyph-name="link" d="M414.080 474.8c-11.454-4.15-24.674-6.55-38.455-6.55-32.021 0-61.015 12.956-82.027 33.913l-126.477 126.477c-20.987 21.015-33.965 50.032-33.965 82.080 0 64.141 51.987 116.14 116.123 116.16h0.002c0.088 0 0.192 0 0.296 0 31.961 0 60.886-12.998 81.779-33.996l126.485-126.485c20.971-21 33.94-49.997 33.94-82.022 0-8.348-0.881-16.49-2.556-24.339l0.136 0.761 42.24-42.24c8.407 19.422 13.297 42.039 13.297 65.798 0 46.705-18.897 88.996-49.461 119.645l-126.476 126.396c-30.441 30.638-72.6 49.602-119.189 49.602-0.285 0-0.571-0.001-0.856-0.002h0.044c-0.084 0-0.183 0-0.282 0-93.491 0-169.28-75.789-169.28-169.28 0-46.736 18.94-89.048 49.563-119.681v0l127.040-126.48c30.684-30.577 73.017-49.481 119.765-49.481 28.748 0 55.825 7.149 79.552 19.766l-0.917-0.445zM410.72 594.16c-4.535 4.535-10.8 7.34-17.72 7.34-13.84 0-25.060-11.22-25.060-25.060 0-6.92 2.805-13.185 7.34-17.72l238.080-237.92c4.535-4.535 10.8-7.34 17.72-7.34 13.84 0 25.060 11.22 25.060 25.060 0 6.92-2.805 13.185-7.34 17.72v0zM894.48 304.88l-126.48 126.48c-30.441 30.638-72.6 49.602-119.189 49.602-0.285 0-0.571-0.001-0.856-0.002h0.044c-0.039 0-0.086 0-0.132 0-23.699 0-46.258-4.884-66.724-13.7l1.096 0.42 42.24-42.24c7.068 1.521 15.19 2.394 23.516 2.4h0.004c0.088 0 0.192 0 0.296 0 31.961 0 60.886-12.998 81.779-33.996l126.485-126.485c22.042-21.174 35.737-50.896 35.737-83.817 0-64.153-52.007-116.16-116.16-116.16-32.92 0-62.642 13.695-83.779 35.698l-0.037 0.039-126.080 126.4c-21.023 20.961-34.030 49.951-34.030 81.979 0 13.8 2.415 27.035 6.844 39.307l-0.254-0.807-40 40c-12.2-22.807-19.367-49.888-19.367-78.643 0-46.569 18.796-88.749 49.216-119.366l126.471-126.471c30.404-29.369 71.861-47.465 117.545-47.465 93.491 0 169.28 75.789 169.28 169.28 0 45.684-18.097 87.141-47.512 117.594l0.047-0.049z" />
<glyph unicode="&#xe92d;" glyph-name="calendar-line" d="M611.68 713.84h-199.36v-33.2h199.36zM711.36 813.52h-33.2v-132.88h33.2zM345.84 813.52h-33.2v-132.88h33.2zM877.52 713.84h-99.68v-33.2h99.68c18.336 0 33.2-14.864 33.2-33.2v0-66.48h-797.52v66.4c0 18.336 14.864 33.2 33.2 33.2v0h99.76v33.28h-99.68c-36.716 0-66.48-29.764-66.48-66.48v0-498.48c0-36.716 29.764-66.48 66.48-66.48h731.040c36.716 0 66.48 29.764 66.48 66.48v0 498.48c0 36.716-29.764 66.48-66.48 66.48v0zM910.72 148.88c0-18.336-14.864-33.2-33.2-33.2v0h-731.040c-18.336 0-33.2 14.864-33.2 33.2v0 398.8h797.52zM512 423.44v-224.64h33.2v265.84l-27.84 11.2-83.040-83.040 23.52-23.52z" />
<glyph unicode="&#xe92e;" glyph-name="calendar-full" d="M877.52 713.84h-166.16v99.68h-33.2v-99.68h-332.32v99.68h-33.2v-99.68h-166.16c-36.716 0-66.48-29.764-66.48-66.48v0-498.48c0-36.716 29.764-66.48 66.48-66.48h731.040c36.716 0 66.48 29.764 66.48 66.48v0 498.48c0 36.716-29.764 66.48-66.48 66.48v0zM545.2 198.8h-33.2v224.64l-54.16-54.16-23.52 23.52 83.040 83.040 27.84-11.2zM910.72 547.76h-797.52v99.6c0 18.336 14.864 33.2 33.2 33.2v0h166.24v-33.2h33.2v33.28h332.32v-33.2h33.2v33.2h166.16c18.336 0 33.2-14.864 33.2-33.2v0z" />
<glyph unicode="&#xe92f;" glyph-name="eye" d="M512 694.88c-157.92 0-280.96-94.16-432-246.88 130-130.56 239.12-246.88 432-246.88s334.4 147.36 432 244.16c-99.92 113.44-241.44 249.6-432 249.6zM512 272c-0.952-0.019-2.075-0.029-3.2-0.029-97.202 0-176 78.798-176 176s78.798 176 176 176c97.192 0 175.983-78.781 176-175.969v-0.002c0.003-0.383 0.005-0.837 0.005-1.29 0-95.822-77.137-173.627-172.702-174.709l-0.102-0.001zM512 509.68c0 0.005 0 0.011 0 0.016 0 15.283 5.537 29.272 14.713 40.072l-0.073-0.089c-4.303 0.713-9.262 1.121-14.315 1.121-0.114 0-0.228 0-0.342-0.001h0.018c-0.571 0.011-1.245 0.018-1.92 0.018-56.775 0-102.8-46.025-102.8-102.8s46.025-102.8 102.8-102.8c56.769 0 102.79 46.015 102.8 102.781v0.001c0 4.4 0 8.88-0.8 13.28-10.424-8.305-23.786-13.326-38.32-13.326-34.097 0-61.741 27.631-61.76 61.724v0.002z" />
<glyph unicode="&#xe930;" glyph-name="folder-line" d="M932.88 586.88c-8 9.92-20 11.76-33.040 11.76h-94.64v60.32c-0.091 24.894-20.293 45.040-45.2 45.040 0 0 0 0 0 0h-376.88c-2.594 0.009-4.878 1.329-6.223 3.333l-0.017 0.027-46.72 70.16c-6.835 10.217-18.32 16.859-31.357 16.88h-171.603c-24.963 0-45.2-20.237-45.2-45.2v0-602.64c0-24.963 20.237-45.2 45.2-45.2h674.64c22.4 0 42.96 19.44 48 41.44l91.2 409.68c0.712 2.777 1.121 5.965 1.121 9.249 0 9.625-3.512 18.43-9.324 25.203l0.043-0.052zM127.2 131.6c-0.048-0.001-0.104-0.001-0.16-0.001-8.306 0-15.040 6.734-15.040 15.040 0 0 0 0.001 0 0.001v0 602.64c0 8.306 6.734 15.040 15.040 15.040h171.68c2.586-0.113 4.84-1.436 6.223-3.414l0.017-0.026 47.040-70.080c6.835-10.186 18.306-16.8 31.323-16.8 0.013 0 0.026 0 0.039 0h376.638c8.306 0 15.040-6.734 15.040-15.040v-60.24h-508c-0.471 0.017-1.024 0.026-1.58 0.026-22.168 0-40.825-15.027-46.343-35.45l-0.077-0.336-91.040-404.080c-0.691-3.074-1.087-6.604-1.087-10.227 0-6.126 1.132-11.987 3.199-17.386l-0.112 0.333zM910.080 553.44l-91.2-406.8c-2.178-8.447-9.554-14.653-18.438-15.039l-0.042-0.001h-632.4c-0.148-0.007-0.322-0.011-0.497-0.011-6.451 0-11.68 5.229-11.68 11.68 0 1.202 0.182 2.362 0.519 3.453l-0.022-0.083 90.88 406.8c2.178 8.447 9.554 14.653 18.438 15.039l0.042 0.001h632.8c0.124 0.005 0.27 0.007 0.416 0.007 6.451 0 11.68-5.229 11.68-11.68 0-1.201-0.181-2.36-0.518-3.45l0.022 0.083z" />
<glyph unicode="&#xe931;" glyph-name="motherhood-full" d="M532.8 432c43.2-44 89.6-86.4 133.6-126.4 44.8 48 106.4 118.4 151.2 187.2l4 6.4c36 56 57.6 89.6 48 126.4-9.6 37.6-29.6 83.2-57.6 132.8-8 14.4-16.8 29.6-28 46.4-3.2 4-5.6 8.8-8 12.8-1.6 2.4-2.4 4-4 6.4 0-4 0.8-8.8 0.8-12.8v-12.8c0-2.4 0-4-0.8-5.6 0-4-0.8-8-1.6-12.8 0-2.4-0.8-4.8-0.8-8v0c-17.6-109.6-108.8-210.4-236.8-340zM408.8 827.2c51.2 0 93.6-33.6 108-79.2 14.4 45.6 56.8 79.2 108 79.2 49.6 0 92.8-31.2 107.2-77.6 8 12.8 9.6 30.4 9.6 58.4 0 83.2-101.6 152-226.4 152-125.6 0-227.2-68-227.2-152 0-28.8 2.4-48 12.8-60 13.6 46.4 57.6 79.2 108 79.2zM636 298.4c-35.2 30.4-68 63.2-100 94.4-10.4 9.6-20 20-30.4 29.6-0.8 0.8-1.6 2.4-3.2 3.2-0.8 0.8-1.6 1.6-2.4 2.4-128 132-220 233.6-237.6 343.2 0 0.8-0.8 2.4-0.8 4 0 0.8 0 2.4-0.8 3.2v0.8c-0.8 5.6-0.8 12-0.8 17.6-0.8 4-0.8 8.8 0 12.8 0 4 0 8.8 0.8 12.8-4-5.6-8-12-12-17.6l-0.8-0.8c-8-13.6-18.4-29.6-28-47.2-28-49.6-47.2-95.2-57.6-132.8-9.6-36.8 12-70.4 48-126.4l4-6.4c45.6-68.8 108.8-140 153.6-187.2 36.8-38.4 74.4-76.8 111.2-113.6 28-28 56-56.8 83.2-84.8 24.8-25.6 48-52.8 71.2-79.2 16-19.2 32.8-38.4 49.6-56.8 9.6-10.4 20-21.6 30.4-32 10.4 80 51.2 151.2 114.4 197.6-37.6 32.8-88.8 76.8-129.6 111.2-31.2 25.6-56 46.4-62.4 52zM401.6 233.6c-11.2 11.2-24 23.2-37.6 37.6l-0.8 0.8c-45.6-40-56-48-84-69.6-9.6-8-22.4-16.8-38.4-30.4-20.8-16-28.8-23.2-38.4-32-3.2-2.4-5.6-4.8-8.8-8 61.6-46.4 102.4-116.8 112.8-195.2 32.8 32.8 52 52.8 91.2 95.2l8 8.8c21.6 23.2 32.8 35.2 39.2 42.4 12.8 14.4 13.6 14.4 54.4 55.2-15.2 15.2-30.4 30.4-46.4 45.6-17.6 16.8-34.4 32.8-51.2 49.6z" />
<glyph unicode="&#xe932;" glyph-name="motherhood-vr" d="M512 22.4c-238.4 0-432 191.2-432 425.6s193.6 425.6 432 425.6 432-191.2 432-425.6-193.6-425.6-432-425.6zM512 768.8c-180 0-327.2-144-327.2-320.8s146.4-320.8 327.2-320.8 327.2 144 327.2 320.8-147.2 320.8-327.2 320.8zM512 224c-9.6 0-56.8 32-92.8 64.8-71.2 64-130.4 131.2-130.4 215.2s48.8 136 128 136c47.2 0 79.2-49.6 96-68.8 16.8 19.2 48.8 68.8 96 68.8 78.4 0 128-52 128-136 0-83.2-59.2-151.2-130.4-215.2-37.6-32.8-84.8-64.8-94.4-64.8z" />
<glyph unicode="&#xe933;" glyph-name="motherhood-vs" d="M512 230.4c49.6 72.8 116.8 90.4 181.6 149.6 70.4 64.8 54.4 150.4 0.8 191.2-68.8 51.2-170.4 10.4-182.4-76.8-12.8 87.2-114.4 128-183.2 76.8-54.4-40.8-70.4-126.4 0.8-191.2 65.6-60 132.8-77.6 182.4-149.6v0zM755.2 8.8h-486.4c-104 0-188.8 84.8-188.8 189.6v499.2c0 104 84.8 189.6 188.8 189.6h487.2c104 0 188.8-84.8 188.8-189.6v-498.4c-0.8-104.8-85.6-190.4-189.6-190.4zM268.8 777.6c-44 0-79.2-36-79.2-80v-498.4c0-44 35.2-80 79.2-80h487.2c44 0 79.2 36 79.2 80v498.4c0 44-35.2 80-79.2 80h-487.2z" />
<glyph unicode="&#xe934;" glyph-name="zface-full" d="M920 501.6v17.6c0 224.8-183.2 360.8-408 360.8s-408-136-408-360.8v-17.6c0 0-4-188.8 1.6-233.6 8-89.6 48.8-156 122.4-197.6 65.6-36.8 158.4-54.4 284-54.4s218.4 17.6 284 54.4c73.6 41.6 114.4 108 122.4 197.6 5.6-2.4 1.6 233.6 1.6 233.6zM301.6 317.6c-35.2 0-64 28.8-64 64s28.8 64 64 64 64-28.8 64-64c0-35.2-28.8-64-64-64zM628 202.4c-31.2-31.2-72-48-116-48s-84.8 16.8-116 48c-11.2 11.2-11.2 29.6 0 40.8 5.6 5.6 12.8 8.8 20.8 8.8s15.2-3.2 20.8-8.8c20-20 46.4-31.2 75.2-31.2s55.2 11.2 75.2 31.2c5.6 5.6 12.8 8.8 20.8 8.8s15.2-3.2 20.8-8.8c9.6-11.2 9.6-29.6-1.6-40.8zM722.4 317.6c-35.2 0-64 28.8-64 64s28.8 64 64 64 64-28.8 64-64c0.8-35.2-28-64-64-64z" />
<glyph unicode="&#xe935;" glyph-name="pin-full" d="M788.4 683.6c0 0.038 0 0.083 0 0.128 0 152.652-123.748 276.4-276.4 276.4s-276.4-123.748-276.4-276.4c0-141.828 106.823-258.707 244.4-274.568l1.28-0.12c0-0.64 0-1.2 0-1.76v-440.4c0-17.055 13.825-30.88 30.88-30.88s30.88 13.825 30.88 30.88v0 440c0 0.56 0 1.12 0 1.76 138.701 16.093 245.36 132.881 245.36 274.58 0 0.134 0 0.267 0 0.401v-0.021zM686.72 632.48c-0.087-0.001-0.19-0.001-0.294-0.001-14.549 0-26.79 9.883-30.376 23.302l-0.050 0.22c-17.823 69.535-63.593 126.004-124.329 157.757l-1.351 0.643c-11.152 5.019-18.777 16.034-18.777 28.829 0 17.408 14.112 31.52 31.52 31.52 5.891 0 11.404-1.616 16.121-4.429l-0.144 0.080c78.015-40.511 135.605-111.232 157.766-196.258l0.474-2.142c0.603-2.305 0.95-4.952 0.95-7.68 0-17.404-14.106-31.514-31.509-31.52h-0.001z" />
<glyph unicode="&#xe936;" glyph-name="cal-tab" d="M80 788.080v-680c0-20.943 16.977-37.92 37.92-37.92v0h788.16c20.943 0 37.92 16.977 37.92 37.92v0 680c0 20.943-16.977 37.92-37.92 37.92v0h-788.16c-20.943 0-37.92-16.977-37.92-37.92v0zM404 340.080v161.92h216v-162zM620 286.080v-162.080h-216v162zM620 718.080v-162.080h-216v162zM350 718.080v-162.080h-216v162zM134 502.080h216v-162.080h-216zM674 502.080h216v-162.080h-216zM674 556.080v161.92h216v-162zM134 286h216v-162h-216zM674 124v162h216v-162z" />
<glyph unicode="&#xe937;" glyph-name="cal-list" d="M331.28 784.48h606.8v-80.96h-606.8zM85.92 744c0 33.535 27.185 60.72 60.72 60.72s60.72-27.185 60.72-60.72c0-33.535-27.185-60.72-60.72-60.72v0c-33.535 0-60.72 27.185-60.72 60.72v0zM331.28 488.48h606.8v-80.96h-606.8zM85.92 448c0 33.535 27.185 60.72 60.72 60.72s60.72-27.185 60.72-60.72c0-33.535-27.185-60.72-60.72-60.72v0c-33.535 0-60.72 27.185-60.72 60.72v0zM331.28 192.48h606.8v-80.96h-606.8zM85.92 152c0 33.535 27.185 60.72 60.72 60.72s60.72-27.185 60.72-60.72c0-33.535-27.185-60.72-60.72-60.72v0c-33.535 0-60.72 27.185-60.72 60.72v0z" />
<glyph unicode="&#xe938;" glyph-name="add-feed" d="M874.56 746.8h-725.12c-38.332-0.046-69.394-31.108-69.44-69.436v-458.724c0.046-38.332 31.108-69.394 69.436-69.44h725.124c38.332 0.046 69.394 31.108 69.44 69.436v458.724c-0.046 38.332-31.108 69.394-69.436 69.44h-0.004zM905.76 218.8c-0.045-17.213-13.987-31.155-31.196-31.2h-725.124c-17.213 0.045-31.155 13.987-31.2 31.196v458.564c0.045 17.213 13.987 31.155 31.196 31.2h725.124c17.213-0.045 31.155-13.987 31.2-31.196v-0.004zM632 480h-100.88v88c0 10.56-8.56 19.12-19.12 19.12s-19.12-8.56-19.12-19.12v0-88h-87.44c-0.37 0.025-0.801 0.040-1.236 0.040-10.56 0-19.12-8.56-19.12-19.12s8.56-19.12 19.12-19.12c0.435 0 0.866 0.015 1.294 0.043l-0.058-0.003h87.44v-100.8c0-10.56 8.56-19.12 19.12-19.12s19.12 8.56 19.12 19.12v0 101.2h100.88c0.908-0.153 1.954-0.24 3.020-0.24 10.56 0 19.12 8.56 19.12 19.12s-8.56 19.12-19.12 19.12c-1.066 0-2.112-0.087-3.131-0.255l0.111 0.015z" />
<glyph unicode="&#xe939;" glyph-name="add-mboard" d="M874.56 826.72h-725.12c-38.314-0.091-69.349-31.126-69.44-69.431v-458.729c0.046-38.332 31.108-69.394 69.436-69.44h125.764c17.241-0.045 31.2-14.033 31.2-31.28 0 0 0 0 0 0v0-109.84c0.023-7.649 4.516-14.243 11.003-17.31l0.117-0.050c2.328-1.111 5.059-1.76 7.942-1.76 0.020 0 0.041 0 0.061 0h-0.003c4.767 0.015 9.128 1.736 12.509 4.584l-0.029-0.024 172.32 148.16c5.434 4.657 12.543 7.499 20.315 7.52h344.005c38.298 0.091 69.315 31.136 69.36 69.436v458.724c-0.091 38.314-31.126 69.349-69.431 69.44h-0.009zM905.76 298.72c-0.045-17.213-13.987-31.155-31.196-31.2h-344.004c-17.299-0.036-33.116-6.357-45.294-16.799l0.094 0.079-140.8-120.72v67.76c0 38.367-31.080 69.474-69.436 69.52h-125.684c-17.213 0.045-31.155 13.987-31.2 31.196v458.724c0.045 17.213 13.987 31.155 31.196 31.2h725.124c17.213-0.045 31.155-13.987 31.2-31.196v-0.004zM632 560h-100.88v88c0 10.56-8.56 19.12-19.12 19.12s-19.12-8.56-19.12-19.12v0-88h-87.44c-10.56 0-19.12-8.56-19.12-19.12s8.56-19.12 19.12-19.12v0h87.44v-100.4c0-10.56 8.56-19.12 19.12-19.12s19.12 8.56 19.12 19.12v0 100.72h100.88c0.741-0.102 1.598-0.16 2.468-0.16 10.56 0 19.12 8.56 19.12 19.12s-8.56 19.12-19.12 19.12c-0.87 0-1.727-0.058-2.566-0.171l0.098 0.011z" />
<glyph unicode="&#xe93a;" glyph-name="drawer" d="M174.56 58.16v0c-0.48 0 0 0 0-2.080 0 1.68-0.48 2.080 0 2.080zM849.44 639.52v-562.16c0-10.604-8.596-19.2-19.2-19.2v0h-636.48c-10.604 0-19.2 8.596-19.2 19.2v0 678.72c0 10.604 8.596 19.2 19.2 19.2v0h510.24c10.604 0 19.2 8.596 19.2 19.2v0 3.76c0 0.024 0 0.052 0 0.080 0 10.56-8.56 19.12-19.12 19.12-0.028 0-0.056 0-0.085 0h-529.676c-0.243 0.005-0.53 0.008-0.817 0.008-22.335 0-40.519-17.773-41.181-39.947l-0.001-0.061v-721.44c0.705-22.246 18.908-40.012 41.261-40.012 0.344 0 0.688 0.004 1.030 0.013l-0.051-0.001h674.88c0.315-0.009 0.685-0.014 1.057-0.014 22.337 0 40.522 17.776 41.181 39.953l0.001 0.061v583.52c0 10.648-8.632 19.28-19.28 19.28v0h-3.76c-10.614-0.045-19.2-8.66-19.2-19.28 0 0 0 0 0 0v0zM617.44 430.24c3.073-1.845 6.781-2.937 10.744-2.937 7.669 0 14.383 4.087 18.083 10.203l0.053 0.094 242.56 411.28c1.493 2.822 2.369 6.168 2.369 9.719 0 11.664-9.456 21.12-21.12 21.12-7.296 0-13.727-3.699-17.522-9.324l-0.048-0.075-242.72-411.2c-1.854-3.079-2.951-6.795-2.951-10.768 0-7.707 4.129-14.451 10.295-18.139l0.096-0.053zM322.16 564.32h253.12c11.664 0 21.12 9.456 21.12 21.12v0 0c0 11.664-9.456 21.12-21.12 21.12v0h-253.12c-11.63-0.045-21.040-9.484-21.040-21.12 0 0 0 0 0 0v0c0 0 0 0 0 0 0-11.636 9.41-21.074 21.036-21.12h0.004zM322.16 437.84h126.56c0 0 0 0 0 0 11.636 0 21.074 9.41 21.12 21.036v0.004c0 11.664-9.456 21.12-21.12 21.12v0h-126.56c-11.63-0.045-21.040-9.484-21.040-21.12 0 0 0 0 0 0v0c0-11.62 9.42-21.040 21.040-21.040v0z" />
<glyph unicode="&#xe93b;" glyph-name="checkout" d="M76 448c0-240.796 195.204-436 436-436s436 195.204 436 436v0c0.001 0.329 0.001 0.717 0.001 1.106 0 99.371-33.551 190.906-89.944 263.894l0.743-1c-4.165 6.013-11.029 9.902-18.801 9.902-12.592 0-22.8-10.208-22.8-22.8 0-5.655 2.059-10.829 5.467-14.813l-0.026 0.031c49.432-64.65 79.207-146.621 79.207-235.546 0-215.303-174.537-389.84-389.84-389.84s-389.84 174.537-389.84 389.84c0 215.303 174.537 389.84 389.84 389.84 75.118 0 145.274-21.246 204.786-58.057l-1.673 0.963c3.371-2.077 7.455-3.307 11.826-3.307 12.592 0 22.8 10.208 22.8 22.8 0 1.883-0.228 3.713-0.659 5.463l0.033-0.156c-1.464 5.997-5.163 10.948-10.143 14.024l-0.097 0.056c-64.607 39.947-142.939 63.619-226.8 63.619-240.819 0-436.045-195.205-436.080-436.015v-0.004zM500.64 167.12c3.33-10.336 12.863-17.683 24.112-17.683 0.721 0 1.435 0.030 2.141 0.089l-0.092-0.006c0.424-0.027 0.92-0.042 1.419-0.042 6.205 0 11.86 2.355 16.121 6.22l-0.020-0.018c3.122 3.19 5.104 7.508 5.279 12.287l0.001 0.033v61.28c49.36 4.96 85.12 19.92 106.32 44.56 19.84 21.716 32.132 50.622 32.559 82.394l0.001 0.086c0 67.92-46.72 111.12-138.88 128v136c40-3.68 65.12-22.080 76.56-56v-1.040l0.8-0.72c6.546-5.597 15.111-9.004 24.472-9.004 3.068 0 6.050 0.366 8.906 1.056l-0.258-0.053c11.566 3.173 19.924 13.593 19.924 25.964 0 0.153-0.001 0.306-0.004 0.459v-0.023 1.44c-20.72 53.68-64.4 84.24-129.84 90.96v53.36c-4.531 10.149-14.472 17.127-26.060 17.28h-0.020c-11.026-0.166-20.288-7.525-23.315-17.585l-0.045-0.175v-53.2c-83.040-14.72-125.12-56-125.12-121.76 0-0.118-0.001-0.257-0.001-0.397 0-26.264 9.040-50.416 24.179-69.515l-0.178 0.232c16-20.72 49.040-37.040 100.88-49.84v-148.4c-44.48 4.64-74.16 29.28-91.040 74.64-5.59 9.23-15.577 15.303-26.983 15.303-3.988 0-7.802-0.742-11.312-2.096l0.215 0.073c-6.698-2.151-12.030-6.909-14.897-13.049l-0.063-0.151c-1.099-2.998-1.735-6.459-1.735-10.069 0-4.009 0.784-7.835 2.208-11.332l-0.072 0.201c21.2-62.4 69.6-98.56 144-107.52v-62.24zM432.56 557.44c-0.011 0.415-0.017 0.905-0.017 1.395 0 16.893 7.48 32.039 19.308 42.306l0.069 0.059c13.173 11.113 29.948 18.343 48.352 19.742l0.288 0.018v-128.64c-45.76 9.84-68 31.12-68 65.12zM549.6 283.2v138.080c53.2-8 79.040-31.28 79.040-69.68 0.002-0.182 0.003-0.397 0.003-0.612 0-18.627-8.388-35.295-21.592-46.434l-0.091-0.075c-15.461-12.917-35.443-20.891-57.277-21.279l-0.083-0.001z" />
<glyph unicode="&#xe93c;" glyph-name="shopping-bag" d="M782.64 771.2h-50.48c-11.532 0-20.88-9.348-20.88-20.88s9.348-20.88 20.88-20.88h50.48c7.688 0 13.92-6.232 13.92-13.92v0-643.52c0-7.688-6.232-13.92-13.92-13.92h-541.44c-7.688 0-13.92 6.232-13.92 13.92v0 643.52c0 7.688 6.232 13.92 13.92 13.92h51.6c11.532 0 20.88 9.348 20.88 20.88s-9.348 20.88-20.88 20.88h-51.6c-30.928 0-56-25.072-56-56v0-643.2c0-30.928 25.072-56 56-56v0h541.44c30.928 0 56 25.072 56 56v0 643.52c-0.182 30.79-25.184 55.68-55.999 55.68 0 0-0.001 0-0.001 0v0zM356.24 729.44h313.28c11.532 0 20.88 9.348 20.88 20.88s-9.348 20.88-20.88 20.88h-43.84c-5.68 60.8-54.88 108.8-114.48 108.8s-108.72-48-114.4-108.8h-40.56c-11.532 0-20.88-9.348-20.88-20.88s9.348-20.88 20.88-20.88v0zM511.2 838.24c37.805-1.088 68.565-29.858 72.768-66.693l0.032-0.347h-145.2c4.18 37.067 34.749 65.785 72.277 67.037l0.123 0.003z" />
<glyph unicode="&#xe93d;" glyph-name="shopping-bag-add" d="M782.64 771.2h-50.48c-11.532 0-20.88-9.348-20.88-20.88s9.348-20.88 20.88-20.88h50.48c7.688 0 13.92-6.232 13.92-13.92v0-643.52c0-7.688-6.232-13.92-13.92-13.92h-541.44c-7.688 0-13.92 6.232-13.92 13.92v0 643.52c0 7.688 6.232 13.92 13.92 13.92h51.6c11.532 0 20.88 9.348 20.88 20.88s-9.348 20.88-20.88 20.88h-51.6c-30.928 0-56-25.072-56-56v0-643.2c0-30.928 25.072-56 56-56v0h541.44c30.928 0 56 25.072 56 56v0 643.52c-0.182 30.79-25.184 55.68-55.999 55.68 0 0-0.001 0-0.001 0v0zM356.24 729.44h313.28c11.532 0 20.88 9.348 20.88 20.88s-9.348 20.88-20.88 20.88h-43.84c-5.68 60.8-54.88 108.8-114.48 108.8s-108.72-48-114.4-108.8h-40.56c-11.532 0-20.88-9.348-20.88-20.88s9.348-20.88 20.88-20.88v0zM511.2 838.24c37.805-1.088 68.565-29.858 72.768-66.693l0.032-0.347h-145.2c4.18 37.067 34.749 65.785 72.277 67.037l0.123 0.003zM512 590.32c-11.532 0-20.88-9.348-20.88-20.88v0-322.96c0-11.532 9.348-20.88 20.88-20.88s20.88 9.348 20.88 20.88v0 322.96c0 11.532-9.348 20.88-20.88 20.88v0zM673.36 428.88h-322.88c-11.532 0-20.88-9.348-20.88-20.88s9.348-20.88 20.88-20.88h322.88c11.532 0 20.88 9.348 20.88 20.88s-9.348 20.88-20.88 20.88v0z" />
<glyph unicode="&#xe93e;" glyph-name="shopping-bag-list" d="M782.64 771.2h-50.48c-11.532 0-20.88-9.348-20.88-20.88s9.348-20.88 20.88-20.88h50.48c7.688 0 13.92-6.232 13.92-13.92v0-643.52c0-7.688-6.232-13.92-13.92-13.92h-541.44c-7.688 0-13.92 6.232-13.92 13.92v0 643.52c0 7.688 6.232 13.92 13.92 13.92h51.6c11.532 0 20.88 9.348 20.88 20.88s-9.348 20.88-20.88 20.88h-51.6c-30.928 0-56-25.072-56-56v0-643.2c0-30.928 25.072-56 56-56v0h541.44c30.928 0 56 25.072 56 56v0 643.52c-0.182 30.79-25.184 55.68-55.999 55.68 0 0-0.001 0-0.001 0v0zM356.24 729.44h313.28c11.532 0 20.88 9.348 20.88 20.88s-9.348 20.88-20.88 20.88h-43.84c-5.68 60.8-54.88 108.8-114.48 108.8s-108.72-48-114.4-108.8h-40.56c-11.532 0-20.88-9.348-20.88-20.88s9.348-20.88 20.88-20.88v0zM511.2 838.24c37.805-1.088 68.565-29.858 72.768-66.693l0.032-0.347h-145.2c4.18 37.067 34.749 65.785 72.277 67.037l0.123 0.003zM673.36 520.72h-322.88c-11.532 0-20.88-9.348-20.88-20.88s9.348-20.88 20.88-20.88h322.88c11.532 0 20.88 9.348 20.88 20.88s-9.348 20.88-20.88 20.88v0zM673.36 346.72h-322.88c-11.532 0-20.88-9.348-20.88-20.88s9.348-20.88 20.88-20.88h322.88c11.532 0 20.88 9.348 20.88 20.88s-9.348 20.88-20.88 20.88v0z" />
<glyph unicode="&#xe93f;" glyph-name="shopping-delet" d="M921.12 725.6c12.68 0 22.96 10.28 22.96 22.96s-10.28 22.96-22.96 22.96v0l-818.24 1.12c-12.68 0-22.96-10.28-22.96-22.96s10.28-22.96 22.96-22.96v0zM232 44.16v-23.2h23.12l567.68 5.6v629.44c0.025 0.404 0.040 0.877 0.040 1.352 0 12.636-10.244 22.88-22.88 22.88s-22.88-10.244-22.88-22.88c0-0.476 0.015-0.948 0.043-1.417l-0.003 0.064v-606.16l22.64 22.96-545.12-5.6 23.040-22.96v617.52c0.025 0.404 0.040 0.877 0.040 1.352 0 12.636-10.244 22.88-22.88 22.88s-22.88-10.244-22.88-22.88c0-0.476 0.015-0.948 0.043-1.417l-0.003 0.064zM645.92 170.56c-0.025-0.404-0.040-0.877-0.040-1.352 0-12.636 10.244-22.88 22.88-22.88s22.88 10.244 22.88 22.88c0 0.476-0.015 0.948-0.043 1.417l0.003-0.064v413.44c0.025 0.404 0.040 0.877 0.040 1.352 0 12.636-10.244 22.88-22.88 22.88s-22.88-10.244-22.88-22.88c0-0.476 0.015-0.948 0.043-1.417l-0.003 0.064zM371.68 170.56c-0.025-0.404-0.040-0.877-0.040-1.352 0-12.636 10.244-22.88 22.88-22.88s22.88 10.244 22.88 22.88c0 0.476-0.015 0.948-0.043 1.417l0.003-0.064v413.44c0.025 0.404 0.040 0.877 0.040 1.352 0 12.636-10.244 22.88-22.88 22.88s-22.88-10.244-22.88-22.88c0-0.476 0.015-0.948 0.043-1.417l-0.003 0.064zM508.8 170.56c-0.025-0.404-0.040-0.877-0.040-1.352 0-12.636 10.244-22.88 22.88-22.88s22.88 10.244 22.88 22.88c0 0.476-0.015 0.948-0.043 1.417l0.003-0.064v413.44c0.025 0.404 0.040 0.877 0.040 1.352 0 12.636-10.244 22.88-22.88 22.88s-22.88-10.244-22.88-22.88c0-0.476 0.015-0.948 0.043-1.417l-0.003 0.064zM416 806.16c-0.001 0.072-0.001 0.156-0.001 0.241 0 12.548 10.172 22.72 22.72 22.72 0.057 0 0.113 0 0.17-0.001h177.831c0.119 0.002 0.259 0.003 0.4 0.003 12.609 0 22.836-10.2 22.88-22.799v-48.004h45.68v48c0 0.024 0 0.052 0 0.080 0 37.881-30.686 68.594-68.556 68.64h-178.324c-0.024 0-0.053 0-0.081 0-37.82 0-68.48-30.66-68.48-68.48 0-0.141 0-0.281 0.001-0.422v0.022-42.24h45.76z" />
<glyph unicode="&#xe940;" glyph-name="shopping-box" d="M116 653.92l373.12-211.44c3-1.736 6.601-2.761 10.44-2.761s7.44 1.025 10.542 2.815l-0.102-0.054 373.12 211.44c6.45 3.697 10.725 10.542 10.725 18.385 0 8.225-4.702 15.352-11.565 18.84l-0.12 0.055-373.12 186.56c-2.764 1.399-6.026 2.219-9.48 2.219s-6.716-0.82-9.603-2.275l0.123 0.056-373.12-186.56c-6.983-3.543-11.685-10.67-11.685-18.895 0-7.843 4.275-14.687 10.622-18.33l0.103-0.054zM136.88 690.72l-0.88-37.36 373.040 186.64h-18.96l373.2-186.56-1.040 37.36-373.12-211.6h20.88l-373.12 211.52zM478.4 443.44v-406.24c0-0.005 0-0.012 0-0.018 0-11.664 9.456-21.12 21.12-21.12 3.823 0 7.409 1.016 10.503 2.793l-0.103-0.054 398.080 224.64c6.447 3.698 10.72 10.541 10.72 18.382 0 0.006 0 0.013 0 0.019v-0.001 273.6c0.025 0.389 0.040 0.844 0.040 1.302 0 11.708-9.492 21.2-21.2 21.2s-21.2-9.492-21.2-21.2c0-0.458 0.015-0.913 0.043-1.363l-0.003 0.062v-273.6l10.8 18.16-398-224.4 31.52-18.4v406.24c-0.706 11.135-9.91 19.898-21.16 19.898s-20.454-8.764-21.157-19.837l-0.003-0.062zM510.4 55.28l-373.040 224.72 10.24-18.080v397.92c-0.706 11.135-9.91 19.898-21.16 19.898s-20.454-8.764-21.157-19.837l-0.003-0.062v-398c0-0.007 0-0.015 0-0.023 0-7.633 4.064-14.316 10.146-18.004l0.094-0.053 373.12-224.72c3.115-1.907 6.886-3.036 10.92-3.036 11.684 0 21.156 9.472 21.156 21.156 0 7.65-4.060 14.351-10.143 18.067l-0.093 0.053zM215.040 492.48l124.4-74.64c3.105-1.894 6.862-3.015 10.88-3.015 11.673 0 21.135 9.463 21.135 21.135 0 7.654-4.069 14.359-10.162 18.067l-0.093 0.053-124.4 74.64c-3.105 1.894-6.862 3.015-10.88 3.015-11.673 0-21.135-9.463-21.135-21.135 0-7.654 4.069-14.359 10.162-18.067l0.093-0.053z" />
<glyph unicode="&#xe941;" glyph-name="minus-full" d="M512 880c-238.587 0-432-193.413-432-432s193.413-432 432-432c238.587 0 432 193.413 432 432v0c0 238.587-193.413 432-432 432v0zM816 421.68h-608v52.64h608z" />
<glyph unicode="&#xe942;" glyph-name="plus-full" d="M512 880c-238.587 0-432-193.413-432-432s193.413-432 432-432c238.587 0 432 193.413 432 432v0c0 238.587-193.413 432-432 432v0zM816 421.68h-277.68v-277.68h-52.64v277.68h-277.68v52.64h277.68v277.68h52.64v-277.68h277.68z" />
<glyph unicode="&#xe943;" glyph-name="vaccine-line" d="M937.36 53.92l-115.92 115.84 57.44 164.080-374.24 374.24 43.52 43.92c4.013 4.013 6.495 9.557 6.495 15.68 0 12.247-9.928 22.175-22.175 22.175-6.123 0-11.667-2.482-15.68-6.495v0l-43.6-43.52-27.6-27.84-97.6 97.44 32.64 32.64c3.509 3.915 5.654 9.115 5.654 14.816 0 12.283-9.957 22.24-22.24 22.24-5.681 0-10.865-2.13-14.796-5.636l0.022 0.019-32.64-32.72-230-229.92c-3.767-3.976-6.084-9.359-6.084-15.284 0-12.283 9.957-22.24 22.24-22.24 5.924 0 11.308 2.316 15.294 6.093l-0.010-0.009 32 32 97.92-97.2-71.2-71.2c-4.016-4.011-6.501-9.555-6.501-15.68s2.485-11.669 6.501-15.68v0c4.045-4.006 9.613-6.481 15.759-6.481 0.085 0 0.169 0 0.254 0.001h-0.013c0.11-0.002 0.241-0.003 0.371-0.003 6.105 0 11.632 2.478 15.629 6.483v0l43.6 43.6 374.32-374.32 164 57.44 115.84-115.92c4.045-4.006 9.613-6.481 15.759-6.481 0.085 0 0.169 0 0.254 0.001h-0.013c0.068-0.001 0.149-0.001 0.229-0.001 12.283 0 22.24 9.957 22.24 22.24 0 6.119-2.471 11.661-6.47 15.682l0.001-0.001zM181.84 643.2l134.8 134.88 97.52-97.6-134.8-134.8zM283.12 486.64l190.4 190.4 50-50-47.2-47.12c-2.682-2.682-4.341-6.387-4.341-10.48 0-8.185 6.636-14.821 14.821-14.821 4.093 0 7.798 1.659 10.48 4.341v0l46.72 46.88 55.2-55.2-47.2-47.2c-2.663-2.676-4.31-6.366-4.31-10.44s1.646-7.764 4.31-10.441l-0.001 0.001c2.648-2.722 6.347-4.411 10.44-4.411s7.792 1.689 10.437 4.408l0.003 0.003 47.2 47.12 55.2-55.2-47.2-47.12c-2.682-2.682-4.341-6.387-4.341-10.48 0-8.185 6.636-14.821 14.821-14.821 4.093 0 7.798 1.659 10.48 4.341v0l46.96 47.12 55.2-55.12-47.12-47.2c-2.702-2.658-4.377-6.353-4.377-10.44s1.674-7.782 4.375-10.438l0.002-0.002c2.648-2.722 6.347-4.411 10.44-4.411s7.792 1.689 10.437 4.408l0.003 0.003 47.2 47.12 55.28-55.28-49.28-140.8-140.8-49.28z" />
<glyph unicode="&#xe944;" glyph-name="cake-line" d="M512 680.96c-9.698 0.12-18.819 2.47-26.911 6.561l0.351-0.161c-25.91 13.346-43.519 39.558-44.397 69.964l-0.003 0.116c0 2.4 0 4.72 0 7.12 0 38.24 40 89.68 57.36 110 3.313 3.838 8.168 6.267 13.591 6.32h0.009c0.006 0 0.014 0 0.021 0 5.461 0 10.351-2.443 13.638-6.295l0.021-0.025c21.52-25.28 57.6-73.28 57.6-110 0-2.32 0-4.72 0-7.12-0.881-30.522-18.49-56.734-43.946-69.867l-0.454-0.213c-7.835-3.976-17.075-6.333-26.858-6.4h-0.022zM512 834.16c-24-32-35.12-57.2-35.12-69.6 0-1.76 0-3.6 0-5.36 0.349-16.973 9.854-31.648 23.763-39.32l0.237-0.12c3.135-1.774 6.886-2.82 10.88-2.82s7.745 1.046 10.992 2.878l-0.112-0.058c14.146 7.792 23.651 22.467 23.999 39.392l0.001 0.048c0 1.76 0 3.6 0 5.36 0.56 11.44-8.96 35.92-34.64 69.6zM923.52 56h-68.16v224.72c10.657 2.829 20.001 6.938 28.515 12.253l-0.435-0.253c8.697 2.52 14.949 10.408 14.96 19.759v115.601c-0.27 34.972-28.548 63.25-63.494 63.52h-235.386v152c-0.045 11.276-9.197 20.4-20.48 20.4 0 0 0 0 0 0h-134.080c0 0 0 0 0 0-11.283 0-20.434-9.124-20.48-20.396v-152.004h-235.36c-34.972-0.27-63.25-28.548-63.52-63.494v-114.506c-0.036-0.36-0.056-0.777-0.056-1.2s0.020-0.84 0.060-1.252l-0.004 0.052v-1.12c0.205-1.071 0.482-2.010 0.838-2.908l-0.038 0.108v-1.040c0.548-0.859 1.075-1.589 1.638-2.289l-0.038 0.049 0.48-0.88c0.492-0.815 1.021-1.522 1.61-2.171l-0.010 0.011 0.96-1.12c0.534-0.581 1.109-1.106 1.728-1.577l0.032-0.023 0.48-0.48 1.44-1.040c9.609-7.071 20.876-12.571 33.057-15.84l0.703-0.16v-224.72h-68c-0.383 0.025-0.829 0.040-1.279 0.040-11.311 0-20.48-9.169-20.48-20.48s9.169-20.48 20.48-20.48c0.45 0 0.897 0.015 1.34 0.043l-0.060-0.003h823.040c0.383-0.025 0.829-0.040 1.279-0.040 11.311 0 20.48 9.169 20.48 20.48s-9.169 20.48-20.48 20.48c-0.45 0-0.897-0.015-1.34-0.043l0.060 0.003zM465.36 622.96h93.28v-131.36h-93.28zM814.48 56h-604.88v221.84c28.149 1.726 53.949 10.432 76.106 24.392l-0.666-0.392c18.684 11.921 41.462 19 65.893 19 1.107 0 2.21-0.015 3.309-0.043l-0.162 0.003c0.924 0.025 2.011 0.039 3.102 0.039 24.483 0 47.306-7.109 66.516-19.376l-0.498 0.297c24.265-15.091 53.713-24.037 85.252-24.037 1.219 0 2.436 0.013 3.649 0.040l-0.181-0.003c1.029-0.023 2.242-0.037 3.459-0.037 31.568 0 61.047 8.946 86.040 24.44l-0.699-0.403c19.746 11.964 43.606 19.044 69.12 19.044s49.374-7.080 69.724-19.382l-0.604 0.339c21.522-13.553 47.345-22.256 75.059-23.977l0.461-0.023zM758.48 337.28c-24.251 15.092-53.686 24.040-85.211 24.040-1.262 0-2.521-0.014-3.776-0.043l0.187 0.003c-1.052 0.024-2.291 0.038-3.534 0.038-31.517 0-60.944-8.947-85.88-24.439l0.693 0.401c-18.673-11.968-41.457-19.078-65.901-19.078-1.076 0-2.148 0.014-3.217 0.041l0.158-0.003c-0.924-0.025-2.011-0.039-3.102-0.039-24.483 0-47.306 7.109-66.516 19.376l0.498-0.297c-24.243 15.091-53.67 24.038-85.186 24.038-1.243 0-2.482-0.014-3.718-0.042l0.184 0.003c-1.052 0.024-2.291 0.038-3.534 0.038-31.517 0-60.944-8.947-85.88-24.439l0.693 0.401c-18.675-11.971-41.461-19.082-65.907-19.082-1.13 0-2.256 0.015-3.378 0.045l0.166-0.004c-0.407-0.009-0.885-0.015-1.366-0.015-10.362 0-20.136 2.519-28.743 6.979l0.348-0.164v103.040c0.045 12.469 10.164 22.56 22.64 22.56 0 0 0 0 0 0h645.76c0 0 0 0 0 0 12.476 0 22.594-10.091 22.64-22.556v-102.964c-8.357-4.343-18.248-6.89-28.733-6.89-0.389 0-0.778 0.004-1.165 0.010l0.058-0.001c-0.947-0.026-2.061-0.041-3.179-0.041-24.485 0-47.308 7.11-66.519 19.378l0.498-0.298z" />
<glyph unicode="&#xe945;" glyph-name="celebration" d="M682.32 639.28c-0.001-0.073-0.001-0.159-0.001-0.245 0-12.062 9.778-21.84 21.84-21.84 6.232 0 11.854 2.61 15.833 6.796l209.129 209.129c3.95 3.952 6.394 9.411 6.394 15.44s-2.443 11.488-6.394 15.44v0c-4.010 3.821-9.45 6.171-15.44 6.171s-11.43-2.351-15.449-6.18l0.009 0.009-209.52-209.28c-3.946-3.956-6.389-9.411-6.4-15.438v-0.002zM596.8 668c2.466-1.062 5.337-1.68 8.352-1.68 0.017 0 0.034 0 0.051 0h-0.003c9.082 0.042 16.851 5.622 20.107 13.535l0.053 0.145 66.72 160c1.775 3.088 2.822 6.791 2.822 10.737 0 12.062-9.778 21.84-21.84 21.84-9.902 0-18.265-6.59-20.942-15.623l-0.039-0.155-66.8-160c-1.139-2.56-1.803-5.547-1.803-8.689 0-8.986 5.427-16.704 13.181-20.056l0.142-0.054zM921.84 627.2c-2.468 1.064-5.342 1.683-8.36 1.683s-5.892-0.619-8.501-1.737l0.141 0.054-161.12-64.88c-9.064-2.795-15.537-11.097-15.537-20.911 0-12.062 9.778-21.84 21.84-21.84 3.533 0 6.869 0.839 9.822 2.328l-0.125-0.057 160.96 64.96c7.696 3.514 12.949 11.144 12.949 20s-5.252 16.486-12.812 19.944l-0.137 0.056zM373.92 788.4c2.196-0.948 4.754-1.5 7.44-1.5s5.244 0.552 7.565 1.548l-0.125-0.048 19.92 8.4 8.56-20.24c3.055-6.975 9.898-11.76 17.859-11.76 0.022 0 0.043 0 0.065 0h-0.003c2.718 0.027 5.299 0.583 7.654 1.57l-0.134-0.050c7.056 3.045 11.906 9.943 11.906 17.974 0 2.785-0.583 5.434-1.635 7.832l0.049-0.125-8.48 20.24 19.92 8c6.875 3.097 11.574 9.888 11.574 17.778 0 8.073-4.921 14.996-11.926 17.935l-0.128 0.048c-2.2 0.928-4.757 1.467-7.44 1.467s-5.24-0.539-7.569-1.515l0.129 0.048-19.92-8-8.56 20.16c-2.908 7.302-9.916 12.369-18.108 12.369-10.736 0-19.44-8.704-19.44-19.44 0-2.887 0.629-5.627 1.758-8.090l-0.050 0.121 8.8-20.32-19.92-8.8c-7.105-2.999-12-9.908-12-17.96s4.896-14.961 11.873-17.912l0.128-0.048zM393.36 659.12c-6.011-1.257-10.92-5.14-13.549-10.368l-0.051-0.112-302.72-609.36c-1.332-2.57-2.113-5.61-2.113-8.833 0-10.781 8.739-19.52 19.52-19.52 3.223 0 6.263 0.781 8.942 2.164l-0.109-0.051 609.36 302.72c5.34 2.68 9.223 7.589 10.458 13.473l0.022 0.127c1.52 8 11.52 78-120 209.6s-202.24 121.68-209.76 120.16zM575.28 511.28c89.68-89.76 106.16-144.8 108.96-165.84l-19.68-9.44c-87.634 68.114-186.232 131.824-290.21 186.711l-10.99 5.289 46 92.72c21.12-3.36 76.16-19.76 165.92-109.44zM625.28 316.16l-100.4-49.92c-63.946 46.155-137.036 91.463-213.242 131.657l-10.198 4.903 44.48 89.52c106.868-55.867 198.297-114.318 284.182-179.68l-4.822 3.52zM485.040 246.48l-94.16-46.48c-48 31.36-97.2 60.56-147.28 86.88l40.4 81.12c78.335-41.021 144.084-81.334 206.962-125.459l-5.922 3.939zM350.16 179.44l-105.040-52.16c-20.24 11.84-41.44 24-63.2 35.040l44.24 89.12c42.16-22.16 83.84-46.32 124-72zM202.72 106.16l-64.64-32 26.32 53.040c12.64-6.72 25.52-13.76 38.32-21.040z" />
<glyph unicode="&#xe946;" glyph-name="gear-line" d="M563.76 20h-102c-8.207 0.022-15.254 4.964-18.35 12.031l-0.050 0.129-48 112.64c-4.8 1.76-9.92 3.68-15.12 5.92l-112.56-46.72c-2.258-0.959-4.883-1.516-7.639-1.516-5.512 0-10.504 2.23-14.121 5.837v0l-72 72c-3.623 3.583-5.866 8.555-5.866 14.051 0 2.693 0.539 5.26 1.514 7.6l-0.048-0.131 45.28 112.96c-2.16 4.88-4.32 10.080-6.48 16l-112.32 46.96c-7.286 3.111-12.303 10.207-12.32 18.478v102.002c0.051 8.241 5.058 15.3 12.189 18.35l0.131 0.050 112 48c1.92 4.96 4 10.32 6.4 16l-46.080 112c-0.959 2.258-1.516 4.883-1.516 7.639 0 5.512 2.23 10.504 5.837 14.121v0l72 72c3.597 3.629 8.582 5.875 14.093 5.875 2.707 0 5.287-0.542 7.638-1.524l-0.131 0.049 113.28-45.52c4.56 2 9.52 4 14.96 6l47.28 112.72c3.111 7.286 10.207 12.303 18.478 12.32h102.002c8.241-0.051 15.3-5.058 18.35-12.189l0.050-0.131 48-113.2c4.96-1.92 9.6-3.76 14-5.68l113.28 46.64c2.262 0.968 4.894 1.531 7.658 1.531 5.509 0 10.496-2.236 14.102-5.85v0l72-72c3.629-3.597 5.875-8.582 5.875-14.093 0-2.707-0.542-5.287-1.524-7.638l0.049 0.131-46-114.56c2-4.64 3.84-9.12 5.36-13.28l114.56-47.76c7.286-3.111 12.303-10.207 12.32-18.478v-102.002c-0.022-8.207-4.964-15.254-12.031-18.35l-0.129-0.050-114-48.56c-1.6-4.32-3.28-8.72-5.2-13.2l47.040-113.76c0.953-2.247 1.508-4.859 1.508-7.602 0-5.537-2.259-10.546-5.906-14.157l-72.002-72.002c-3.597-3.629-8.582-5.875-14.093-5.875-2.707 0-5.287 0.542-7.638 1.524l0.131-0.049-114.8 45.68c-4.8-2.080-9.44-4-13.76-5.68l-47.2-113.68c-3.189-7.125-10.216-12-18.383-12-0.034 0-0.068 0-0.103 0h0.005zM474.96 60h75.52l45.36 109.040c2.131 5.129 6.218 9.085 11.304 10.995l0.136 0.045c8 2.96 17.6 6.64 26.72 11.040 2.529 1.234 5.502 1.956 8.644 1.956 2.648 0 5.176-0.513 7.491-1.444l-0.135 0.048 110-44.16 53.36 53.36-44.96 109.36c-1.060 2.355-1.677 5.106-1.677 8s0.617 5.645 1.728 8.126l-0.051-0.126c4 8.64 7.36 17.68 10.4 26.16 1.97 5.256 5.916 9.384 10.91 11.55l0.13 0.050 109.76 46.8v75.68l-109.2 45.68c-5.237 2.225-9.258 6.454-11.156 11.7l-0.044 0.14c-3.656 10.588-7.197 19.126-11.161 27.423l0.681-1.583c-1.221 2.534-1.935 5.51-1.935 8.653 0 2.643 0.505 5.168 1.423 7.484l-0.048-0.137 44.32 110.16-53.36 53.28-109.12-44.64c-2.205-0.911-4.766-1.44-7.45-1.44-3.106 0-6.047 0.708-8.669 1.972l0.12-0.052c-7.034 3.459-15.89 7.136-24.977 10.323l-1.823 0.557c-5.294 1.943-9.455 5.896-11.63 10.91l-0.050 0.13-46.56 108.96h-75.44l-45.28-108.4c-2.199-5.229-6.402-9.248-11.621-11.156l-0.139-0.044c-11.28-4-19.84-7.44-27.68-11.12-2.498-1.225-5.436-1.942-8.542-1.942-2.689 0-5.252 0.537-7.589 1.51l0.131-0.048-108.8 43.76-53.52-53.36 44.32-107.84c0.911-2.205 1.44-4.766 1.44-7.45 0-3.106-0.708-6.047-1.972-8.669l0.052 0.12c-3.724-7.496-7.617-16.828-10.965-26.415l-0.555-1.825c-1.816-5.384-5.696-9.655-10.675-11.948l-0.125-0.052-108-46.080v-75.52l108-44.88c5.203-2.199 9.213-6.364 11.154-11.541l0.046-0.139c4.016-11.554 7.935-20.908 12.329-29.99l-0.729 1.67c1.239-2.527 1.963-5.499 1.963-8.641 0-2.65-0.515-5.179-1.451-7.493l0.048 0.134-43.92-108.64 53.36-53.28 108.080 44.48c2.231 0.925 4.821 1.462 7.538 1.462 3.070 0 5.981-0.686 8.585-1.914l-0.123 0.052c7.297-3.539 16.425-7.248 25.797-10.429l1.803-0.531c5.385-1.861 9.623-5.839 11.791-10.912l0.049-0.128zM920 397.76v0zM511.2 274.96c-95.567 0-173.040 77.473-173.040 173.040s77.473 173.040 173.040 173.040c95.567 0 173.040-77.473 173.040-173.040v0c-0.091-95.531-77.509-172.949-173.031-173.040h-0.009zM511.2 580.96c-73.476 0-133.040-59.564-133.040-133.040s59.564-133.040 133.040-133.040c73.476 0 133.040 59.564 133.040 133.040 0 0.028 0 0.056 0 0.084v-0.004c-0.046 73.442-59.592 132.96-133.040 132.96 0 0 0 0 0 0v0z" />
<glyph unicode="&#xe947;" glyph-name="gear-full" d="M920 397.76v102l-121.92 50.8c-3.852 11.289-7.692 20.516-12.032 29.454l0.672-1.534 49.2 122.56-72 72-121.52-49.92c-7.377 3.656-16.782 7.625-26.418 11.109l-2.062 0.651-51.68 121.12h-102l-50.48-120.72c-10.080-3.6-19.84-7.36-29.52-11.92l-121.28 48.64-72-72 49.44-120c-3.957-8.022-8.147-18.093-11.774-28.43l-0.626-2.050-120-51.28v-102l120-50c4.346-12.398 8.56-22.412 13.275-32.137l-0.795 1.817-48.48-120.96 72-72 120.48 49.6c7.761-3.734 17.576-7.713 27.64-11.154l2.040-0.606 51.6-120.8h102l50.56 121.36c9.6 3.6 19.2 7.36 28.32 11.76l122.32-49.040 72 72-50.080 121.84c4.32 9.12 8 18.4 11.2 27.84l121.92 52zM511.2 295.040c-0.048 0-0.104 0-0.16 0-84.477 0-152.96 68.483-152.96 152.96s68.483 152.96 152.96 152.96c84.477 0 152.96-68.483 152.96-152.96v0c0-84.421-68.391-152.869-152.791-152.96h-0.009z" />
<glyph unicode="&#xe948;" glyph-name="mami-market" d="M512 22.16c-238.24 0-432 191.040-432 425.84s193.76 425.84 432 425.84 432-191.040 432-425.84-193.76-425.84-432-425.84zM512 768.88c-180.32 0-327.040-144-327.040-320.88s146.72-320.88 327.040-320.88 327.040 144 327.040 320.88-146.72 320.88-327.040 320.88zM758.56 345.12c-0.56 4.56-1.2 13.12-2 25.44s-2.48 27.44-4.8 44.4c-2.948 20.769-6.749 38.794-11.611 56.379l0.731-3.099c-5.432 20.479-12.429 38.297-21.173 55.059l0.693-1.459c-5.393 9.627-11.465 17.942-18.401 25.449l0.081-0.089c-7.148 7.68-15.006 14.523-23.526 20.486l-0.474 0.314c-7.119 5.031-15.233 9.705-23.771 13.611l-0.949 0.389c-7.575 3.708-16.452 5.982-25.833 6.238l-0.087 0.002c-9.69-0.602-18.659-3.136-26.709-7.219l0.389 0.179c-11.808-5.356-21.815-12.725-30.012-21.764l-0.068-0.076-0.64-0.72c-6.953-8.26-13.337-17.476-18.82-27.265l-0.46-0.895c-5.44-9.76-10.4-19.84-14.8-30-2.8 8-5.92 15.36-9.2 22.64-6.209 13.829-13.817 25.743-22.892 36.366l0.172-0.206c-9.438 11.889-23.804 19.514-39.96 19.76h-0.040c-14.4 0-28.4-8-42.8-24-11.539-13.219-22.119-27.901-31.265-43.522l-0.735-1.358c-8-12.96-15.12-26.4-22.24-40-0.72 5.44-1.36 10.88-2 16.4-1.68 14.080-3.2 27.68-4.56 40.64s-2.32 23.6-2.88 32v1.040c-1.064 13.27-6.991 24.981-15.977 33.498l-0.023 0.022c-7.533 6.414-17.377 10.315-28.132 10.315-3.471 0-6.847-0.406-10.083-1.174l0.296 0.059-2.48-0.56c-14.249-4.117-25.452-14.558-30.535-28.003l-0.105-0.317c-3.313-8.592-5.233-18.534-5.233-28.924 0-1.983 0.070-3.95 0.207-5.898l-0.015 0.262v-0.8c2.72-27.36 5.68-55.36 8.72-84s6.96-56 11.6-80.96c2.342-10.495 5.562-19.709 9.703-28.399l-0.343 0.799c4.313-9.19 9.007-17.063 14.37-24.417l-0.29 0.417c5.155-7.192 10.923-13.443 17.371-18.917l0.149-0.123c7.132-6.528 16.577-10.633 26.975-10.958l0.065-0.002c11.808 0.095 22.41 5.181 29.813 13.25l0.027 0.030c5.407 5.719 10.314 12.025 14.582 18.775l0.298 0.505 0.56 0.96c5.76 10.48 12 22.4 18.4 35.6s13.040 26.16 19.84 39.2 13.76 25.6 21.2 38.32l1.28 2.16c3.44-9.12 6.8-18.48 10.24-28q6.24-17.44 12-34.080c4-11.28 8-21.44 10.96-30.24 4.276-10.905 11.665-19.817 21.068-25.872l0.212-0.128c8.633-6.409 19.429-10.359 31.134-10.639l0.066-0.001c13.717 0.426 25.73 7.353 33.112 17.788l0.088 0.132c8.131 11.061 13.012 24.949 13.012 39.978 0 0.936-0.019 1.868-0.056 2.795l0.004-0.133c2.080 10.080 5.28 22.4 9.6 36.88s9.52 30 14.96 44c4.972 13.222 10.355 24.425 16.581 35.076l-0.581-1.076c2.301-2.433 4.503-5.041 6.554-7.769l0.166-0.231c2-2.96 3.12-4.8 3.68-5.84 2.88-7.44 5.76-16 8.48-25.76 2.572-8.591 5.183-19.78 7.219-31.169l0.301-2.031c2.16-12 4.24-24.8 6.16-38.16s3.76-26.24 5.36-38.96v-1.28c1.15-5.333 2.804-10.037 4.963-14.449l-0.163 0.369c2.749-5.944 6.321-11.026 10.641-15.361l-0.001 0.001c5.65-5.578 12.958-9.489 21.12-10.925l0.24-0.035c2.378-0.424 5.115-0.666 7.909-0.666 7.577 0 14.737 1.782 21.085 4.95l-0.274-0.124c8.080 3.871 14.463 10.202 18.299 18.012l0.101 0.228c2.767 6.541 4.374 14.147 4.374 22.129 0 0.883-0.020 1.762-0.059 2.636l0.004-0.124z" />
<glyph unicode="&#xe949;" glyph-name="play-full" d="M512 832c212.077 0 384-171.923 384-384s-171.923-384-384-384c-212.077 0-384 171.923-384 384v0c0.228 211.986 172.014 383.772 383.978 384h0.022zM512 880c-238.587 0-432-193.413-432-432s193.413-432 432-432c238.587 0 432 193.413 432 432v0c0 238.587-193.413 432-432 432v0zM719.12 460.64l-299.76 173.040c-2.088 1.226-4.6 1.951-7.28 1.951-8.041 0-14.56-6.519-14.56-14.56 0-0.011 0-0.022 0-0.032v0.002-346.080c0-0.009 0-0.020 0-0.031 0-8.041 6.519-14.56 14.56-14.56 2.68 0 5.192 0.724 7.349 1.988l-0.069-0.037 299.76 173.040c4.413 2.557 7.333 7.258 7.333 12.64s-2.921 10.083-7.264 12.603l-0.070 0.037z" />
<glyph unicode="&#xe94a;" glyph-name="bookmark-line" d="M738.64 849.84v-803.6c0-0.020 0-0.044 0-0.067 0-16.657-13.503-30.16-30.16-30.16-8.345 0-15.899 3.389-21.359 8.867l-175.121 175.121-175.12-175.2c-5.461-5.478-13.015-8.867-21.36-8.867-16.657 0-30.16 13.503-30.16 30.16 0 0.024 0 0.047 0 0.071v-0.004 803.68c0 16.657 13.503 30.16 30.16 30.16h392.96c16.657 0 30.16-13.503 30.16-30.16v0zM323.12 841.84v-777.84l188.88 188.96 188.88-188.96v778.24zM512 503.52l-69.28-36.48 13.2 77.2-56 54.64 77.44 11.2 34.64 70.24 34.64-70.24 77.44-11.2-56-54.64 13.2-77.2-69.28 36.48z" />
<glyph unicode="&#xe94b;" glyph-name="bookmark-full" d="M285.36 849.84v-803.6c0-0.020 0-0.044 0-0.067 0-16.657 13.503-30.16 30.16-30.16 8.345 0 15.899 3.389 21.359 8.867l175.121 175.121 175.12-175.2c5.461-5.478 13.015-8.867 21.36-8.867 16.657 0 30.16 13.503 30.16 30.16 0 0.024 0 0.047 0 0.071v-0.004 803.68c0 16.657-13.503 30.16-30.16 30.16h-392.96c-16.657 0-30.16-13.503-30.16-30.16v0zM581.36 467.040l-69.36 36.48-69.28-36.48 13.28 76.96-56 54.64 77.44 11.2 34.56 70.16 34.64-70.24 77.36-10.88-56-54.88z" />
<glyph unicode="&#xe94c;" glyph-name="printer-full" d="M238.4 649.6v172.88c0.046 31.777 25.816 57.52 57.6 57.52 0 0 0 0 0 0h432c0.024 0 0.052 0 0.080 0 31.723 0 57.44-25.717 57.44-57.44 0-0.028 0-0.056 0-0.084v0.004-172.88zM209.6 188.8h-28.96c-47.639 0.046-86.24 38.675-86.24 86.32 0 0.028 0 0.056 0 0.084v-0.004 259.2c0 0 0 0 0 0 0 47.661 38.591 86.309 86.231 86.4h662.729c47.639-0.046 86.24-38.675 86.24-86.32 0-0.028 0-0.056 0-0.084v0.004-259.2c0 0 0 0 0 0 0-47.661-38.591-86.309-86.231-86.4h-28.969v144h-604.8v-144zM238.4 304v-230.4c0-0.024 0-0.052 0-0.080 0-31.767 25.753-57.52 57.52-57.52 0.028 0 0.056 0 0.084 0h431.996c0.048 0 0.104 0 0.161 0 31.679 0 57.36 25.681 57.36 57.36 0 0.084 0 0.169-0.001 0.253v-0.013 230.4zM756.8 448c15.906 0 28.8 12.894 28.8 28.8s-12.894 28.8-28.8 28.8c-15.906 0-28.8-12.894-28.8-28.8v0c0-15.906 12.894-28.8 28.8-28.8v0z" />
<glyph unicode="&#xe94d;" glyph-name="printer-line" d="M297.92 18c-32.572 0.046-58.96 26.461-58.96 59.040v0 112h-54.96c0 0 0 0 0 0-48.517 0-87.863 39.262-88 87.747v256.813c0.227 48.429 39.539 87.6 87.999 87.6 0 0 0.001 0 0.001 0h55.28v197.76c0 0 0 0 0 0 0 32.579 26.387 58.994 58.956 59.040h427.844c32.572-0.046 58.96-26.461 58.96-59.040v0-197.76h54.96c0 0 0.001 0 0.001 0 48.46 0 87.772-39.171 87.999-87.578v-256.822c-0.227-48.429-39.539-87.6-87.999-87.6 0 0-0.001 0-0.001 0h-54.96v-112c0 0 0 0 0 0 0-32.579-26.387-58.994-58.956-59.040h-0.004zM271.44 76.96c0.045-14.634 11.919-26.48 26.56-26.48 0 0 0 0 0 0h428c0 0 0 0 0 0 14.641 0 26.514 11.846 26.56 26.476v197.844h-481.12zM840 221.68c0 0 0 0 0 0 30.518 0 55.269 24.694 55.36 55.191v256.649c-0.091 30.506-24.842 55.2-55.36 55.2 0 0 0 0 0 0h-656c0 0 0 0 0 0-30.518 0-55.269-24.694-55.36-55.191v-256.649c0.091-30.506 24.842-55.2 55.36-55.2 0 0 0 0 0 0h54.88v85.6h546.16v-85.6zM752.56 621.2v197.84c-0.045 14.634-11.919 26.48-26.56 26.48 0 0 0 0 0 0h-428c0 0 0 0 0 0-14.641 0-26.514-11.846-26.56-26.476v-197.844zM754.56 446c-0.024 0-0.052 0-0.080 0-16.878 0-30.56 13.682-30.56 30.56s13.682 30.56 30.56 30.56c16.878 0 30.56-13.682 30.56-30.56v0c-0.045-16.832-13.655-30.469-30.471-30.56h-0.009zM726.080 876c0.024 0 0.052 0 0.080 0 31.458 0 56.96-25.502 56.96-56.96 0-0.028 0-0.056 0-0.085v0.004-200h56.88c47.197-0.046 85.44-38.317 85.44-85.52 0-0.028 0-0.056 0-0.085v0.004-256.56c0-0.024 0-0.052 0-0.080 0-47.203-38.243-85.474-85.436-85.52h-56.884v-114.16c0-0.048 0-0.104 0-0.16 0-31.414-25.466-56.88-56.88-56.88-0.056 0-0.113 0-0.169 0h-428.151c-0.024 0-0.052 0-0.080 0-31.458 0-56.96 25.502-56.96 56.96 0 0.028 0 0.056 0 0.085v-0.004 114.16h-56.88c-0.071 0-0.156 0-0.24 0-47.231 0-85.52 38.289-85.52 85.52 0 0.028 0 0.056 0 0.085v-0.004 256.8c0 0.024 0 0.052 0 0.080 0 47.231 38.289 85.52 85.52 85.52 0.084 0 0.169 0 0.253 0h57.187v200c0 0.048 0 0.104 0 0.16 0 31.414 25.466 56.88 56.88 56.88 0.056 0 0.113 0 0.169 0h427.831zM298 847.52v0c-15.727-0.045-28.469-12.759-28.56-28.471v-200.009h485.12v200c-0.091 15.721-12.833 28.435-28.556 28.48h-428.004zM184 219.68h56.8v85.68h542.32v-85.68h56.88c0.048 0 0.104 0 0.16 0 31.547 0 57.12 25.573 57.12 57.12 0 0.028 0 0.056 0 0.085v-0.004 256.64c0 0 0 0 0 0 0 31.547-25.573 57.12-57.12 57.12-0.056 0-0.112 0-0.169 0h-655.991c-0.048 0-0.104 0-0.16 0-31.547 0-57.12-25.573-57.12-57.12 0 0 0 0 0 0v0-256.64c0 0 0 0 0 0 0-31.591 25.609-57.2 57.2-57.2 0.028 0 0.056 0 0.084 0h-0.004zM297.92 48.48h428c15.727 0.045 28.469 12.759 28.56 28.471v200.009h-485.040v-200c0.091-15.721 12.833-28.435 28.556-28.48h0.004zM298 847.52v0zM754.56 505.040c15.773 0 28.56-12.787 28.56-28.56s-12.787-28.56-28.56-28.56c-15.773 0-28.56 12.787-28.56 28.56 0 0.028 0 0.056 0 0.084v-0.004c0 0 0 0 0 0 0 15.729 12.751 28.48 28.48 28.48 0.028 0 0.056 0 0.084 0h-0.004zM726.080 880h-428.16c-33.677-0.046-60.96-27.357-60.96-61.040 0 0 0 0 0 0v0-195.76h-52.96c-0.048 0-0.104 0-0.16 0-49.485 0-89.6-40.115-89.6-89.6 0 0 0 0 0 0v0-256.8c0 0 0 0 0 0 0-49.485 40.115-89.6 89.6-89.6 0.056 0 0.112 0 0.169 0h53.271v-110.16c0 0 0-0.001 0-0.001 0-33.571 27.101-60.812 60.618-61.039h428.182c33.677 0.046 60.96 27.357 60.96 61.040 0 0 0 0 0 0v0 110.16h52.96c49.416 0.091 89.44 40.171 89.44 89.6 0 0 0 0 0 0v0 256.8c0 0 0 0 0 0 0 49.428-40.024 89.509-89.431 89.6h-52.969v195.76c0 33.683-27.283 60.995-60.956 61.040h-0.004zM298 843.52h428c0.024 0 0.052 0 0.080 0 13.52 0 24.48-10.96 24.48-24.48 0 0 0 0 0 0v0-195.84h-477.12v195.84c0 0 0 0 0 0 0 13.52 10.96 24.48 24.48 24.48 0.028 0 0.056 0 0.084 0h-0.004zM184 224c-0.024 0-0.052 0-0.080 0-29.398 0-53.234 23.809-53.28 53.196v256.324c0.046 29.391 23.882 53.2 53.28 53.2 0.028 0 0.056 0 0.084 0h655.996c0.024 0 0.052 0 0.080 0 29.398 0 53.234-23.809 53.28-53.196v-256.644c-0.227-29.253-23.993-52.88-53.278-52.88-0.029 0-0.057 0-0.086 0h-52.955v85.28h-550.080v-85.28zM273.44 272.8h477.12v-195.84c0 0 0 0 0 0 0-13.52-10.96-24.48-24.48-24.48-0.028 0-0.056 0-0.084 0h-427.996c-0.024 0-0.052 0-0.080 0-13.52 0-24.48 10.96-24.48 24.48 0 0 0 0 0 0v0 195.84zM754.56 509.040c-0.024 0-0.052 0-0.080 0-17.982 0-32.56-14.578-32.56-32.56s14.578-32.56 32.56-32.56c17.982 0 32.56 14.578 32.56 32.56 0 0.028 0 0.056 0 0.084v-0.004c0 17.938-14.542 32.48-32.48 32.48v0z" />
<glyph unicode="&#xe94e;" glyph-name="share-full" d="M92.64 106.080h3.36c4.469 0.008 8.389 2.348 10.609 5.868l0.031 0.052 39.52 64c46.16 73.6 101.040 141.28 170.56 172.32 57.056 28.225 124.185 44.872 195.17 45.2h0.11v-179.52l432 288-432 288v-180.72c-141.76-6.24-243.2-46.56-322.4-126.4-117.6-118.56-109.6-267.76-109.6-305.28 0-16.48 0-38.96 0-59.040-0.001-0.049-0.001-0.106-0.001-0.164 0-6.804 5.516-12.32 12.32-12.32 0.113 0 0.225 0.002 0.338 0.005h-0.017z" />
<glyph unicode="&#xe94f;" glyph-name="sub-line" d="M738.64 849.84c0 16.657-13.503 30.16-30.16 30.16h-392.96c-16.657 0-30.16-13.503-30.16-30.16v0-803.6c0-0.020 0-0.044 0-0.067 0-16.657 13.503-30.16 30.16-30.16 8.345 0 15.899 3.389 21.359 8.867l175.121 175.121 175.12-175.2c5.461-5.478 13.015-8.867 21.36-8.867 16.657 0 30.16 13.503 30.16 30.16 0 0.024 0 0.047 0 0.071v-0.004zM700.88 64l-188.88 188.96-188.88-188.96v778.24h377.76v-93.92h-280.88c-11.046 0-20-8.954-20-20s8.954-20 20-20v0h280.88z" />
<glyph unicode="&#xe950;" glyph-name="sub-full" d="M420 708.32c-11.046 0-20 8.954-20 20s8.954 20 20 20v0h318.64v101.52c0 16.657-13.503 30.16-30.16 30.16h-392.96c-16.657 0-30.16-13.503-30.16-30.16v0-803.6c0-0.020 0-0.044 0-0.067 0-16.657 13.503-30.16 30.16-30.16 8.345 0 15.899 3.389 21.359 8.867l175.121 175.121 175.12-175.2c5.461-5.478 13.015-8.867 21.36-8.867 16.657 0 30.16 13.503 30.16 30.16 0 0.024 0 0.047 0 0.071v-0.004 662.16z" />
</font>
</defs>
</svg>
