<?xml version="1.0" encoding="utf-8"?>
<!-- Generator: Adobe Illustrator 16.0.3, SVG Export Plug-In . SVG Version: 6.00 Build 0)  -->
<!DOCTYPE svg PUBLIC "-//W3C//DTD SVG 1.1//EN" "http://www.w3.org/Graphics/SVG/1.1/DTD/svg11.dtd">
<svg version="1.1" id="圖層_1" xmlns="http://www.w3.org/2000/svg" xmlns:xlink="http://www.w3.org/1999/xlink" x="0px" y="0px"
	 width="265px" height="68px" viewBox="0 -0.583 265 68" enable-background="new 0 -0.583 265 68" xml:space="preserve">
<path fill="#FFFFFF" d="M225.709,38.168c-1.875-12.922-1.042-26.922,12.458-27.422s13.5,12.709,13.5,13.438s-5.5,13.986-5.5,13.986
	s9.334-1.258,12.334,1.242s2.167,8.668,1,9.5c-1.167,0.834-9.5,8.166-27-2.166c0,0,3.271,6.197,2.136,10.766
	s-4.304,5.066-6.97,3.734c-2.666-1.334-3.935-12.049-3.935-12.049s-18.232-1.119-20.565-8.451c-2.333-7.333,4.55-12.423,13.546-7.5
	C225.709,38.168,225.709,38.168,225.709,38.168z"/>
<g>
	<g>
		<g>
			
				<path fill="#FAC109" stroke="#FFFFFF" stroke-width="4" stroke-linecap="round" stroke-linejoin="round" stroke-miterlimit="10" d="
				M52.722,57.792h-1.22c0,0,0.007-2.207,0.007-5.451V35.758c0-3.081-0.264-3.396-2.911-3.396v-0.807l7.524,0.011l-0.003,10.479
				c1.517-2.16,3.256-3.109,5.865-3.109c5.18,0,8.205,3.393,8.205,9.203c0,6.332-3.365,10.105-9,10.105
				c-2.139,0-3.884-0.506-5.63-1.688C55.559,56.559,54.875,57.792,52.722,57.792z M57.029,55.028
				c0.719,1.396,2.271,2.379,3.857,2.379c2.8,0,4.272-2.971,4.272-8.672c0-5.705-1.402-8.717-4.081-8.717
				c-1.587,0-3.068,1.053-3.896,2.732c-0.793,1.678-1.172,3.67-1.172,6.332C56.01,51.743,56.35,53.629,57.029,55.028z"/>
			
				<path fill="#FAC109" stroke="#FFFFFF" stroke-width="4" stroke-linecap="round" stroke-linejoin="round" stroke-miterlimit="10" d="
				M123.594,41.422c1.623-1.578,4.197-2.486,7.07-2.486c5.938,0,9.793,3.779,9.793,9.586c0,2.732-0.943,5.314-2.496,6.918
				c-1.738,1.793-4.5,2.84-7.489,2.84c-2.832,0-5.524-1.016-7.106-2.66c-1.669-1.711-2.609-4.195-2.609-6.887
				C120.757,45.864,121.816,43.17,123.594,41.422z M130.627,57.473c3.288,0,4.764-2.725,4.764-8.813
				c0-6.121-1.514-8.916-4.805-8.916c-1.551,0-2.874,0.729-3.512,2.023c-0.833,1.51-1.214,3.746-1.214,6.791
				C125.859,54.608,127.373,57.473,130.627,57.473z"/>
			
				<path fill="#FAC109" stroke="#FFFFFF" stroke-width="4" stroke-linecap="round" stroke-linejoin="round" stroke-miterlimit="10" d="
				M180.93,47.864c0.039,2.586,0.299,4.088,0.984,5.557c1.096,2.311,2.834,3.467,5.143,3.467c2.607,0,4.836-1.443,6.234-3.992
				l0.951,0.564c-1.893,3.32-4.426,4.791-8.32,4.791c-6.013,0-9.871-3.74-9.871-9.584c0-5.875,3.746-9.727,9.493-9.727
				c3.856,0,6.58,1.611,7.826,4.619c0.417,1.049,0.606,2.102,0.683,4.309H180.93V47.864z M189.326,46.842
				c-0.079-2.203-0.229-3.287-0.646-4.375c-0.717-1.852-1.771-2.723-3.25-2.723c-1.627,0-2.875,1.045-3.666,3.076
				c-0.418,1.084-0.646,2.197-0.795,4.02L189.326,46.842L189.326,46.842z"/>
			
				<path fill="#FAC109" stroke="#FFFFFF" stroke-width="4" stroke-linecap="round" stroke-linejoin="round" stroke-miterlimit="10" d="
				M2.155,57.329c3.061-0.068,3.404-0.424,3.404-3.705V36.2c0-3.285-0.38-3.677-3.404-3.708v-0.934h11.834
				c7.487,0,10.854,1.896,10.854,6.072c0,3.785-2.343,5.602-8.131,6.209v0.25c6.05,0.285,9.114,2.609,9.114,6.93
				c0,5.137-3.592,7.242-12.476,7.242H2.155V57.329z M13.611,43.444c3.933,0,6.014-1.93,6.014-5.604
				c0-3.494-2.119-5.248-6.275-5.248h-2.914v10.851H13.611z M13.311,57.225c4.724,0,7.107-2.145,7.107-6.385
				c0-2.396-0.872-4.287-2.459-5.291c-0.984-0.605-2.609-0.961-4.461-0.961h-3.062v12.637H13.311L13.311,57.225z"/>
			<g>
				
					<path fill="#FAC109" stroke="#FFFFFF" stroke-width="4" stroke-linecap="round" stroke-linejoin="round" stroke-miterlimit="10" d="
					M45.957,43.362c-0.162-1.377-0.614-2.289-1.399-2.99c-1.135-0.979-2.991-1.436-5.598-1.436c-2.573,0-4.613,0.422-6.198,1.326
					c-1.481,0.842-2.231,2.471-2.35,3.258c-0.201,1.275,0.434,2.938,2.614,2.771c1.492-0.117,2.269-1.617,2.341-2.877
					c0.115-1.328,0.229-1.887,0.605-2.48c0.532-0.84,1.323-1.189,2.53-1.189c2.273,0,2.954,1.082,2.954,4.793v2.271
					c-2.342,0.105-4.348,0.35-6.201,0.666c-4.045,0.734-6.05,2.588-6.05,5.596c0,3.143,2.231,5.143,5.826,5.143
					c2.455,0,4.497-0.877,6.465-2.838c0.19,2.139,1.695,2.66,2.905,2.66c0.339,0,0.908,0.006,1.537,0.014L45.957,43.362z
					 M41.455,50.307c0,1.996-0.189,3.146-0.68,4.057c-0.718,1.434-2.156,2.313-3.667,2.313c-1.853,0-3.061-1.646-3.061-4.125
					c0-3.26,1.925-4.543,7.409-4.938L41.455,50.307L41.455,50.307z"/>
			</g>
			<g>
				
					<path fill="#FAC109" stroke="#FFFFFF" stroke-width="4" stroke-linecap="round" stroke-linejoin="round" stroke-miterlimit="10" d="
					M172.913,45.69c0-2.377-0.304-3.672-1.136-4.723c-1.022-1.334-2.723-2.031-4.914-2.031c-2.842,0-4.84,1.117-6.508,3.676
					c-0.678-2.479-2.453-3.676-5.369-3.676c-2.832,0-5.065,1.229-6.576,3.533l-0.04-3.463l-7.372,0.039v0.84
					c2.492,0.031,2.796,0.842,2.796,3.775l0.019,14.063h4.6V46.284c0-3.146,2.076-5.732,4.572-5.732
					c2.078,0,3.063,1.639,3.063,5.143l-0.013,12.031h4.592V46.004c0-1.295,0.374-2.412,1.17-3.535
					c0.945-1.326,2.006-1.918,3.365-1.918c2.232,0,3.139,1.469,3.139,5.174l-0.008,11.998h4.643L172.913,45.69z"/>
			</g>
			<g>
				
					<path fill="#FAC109" stroke="#FFFFFF" stroke-width="4" stroke-linecap="round" stroke-linejoin="round" stroke-miterlimit="10" d="
					M120.033,56.809c-3.097-0.1-3.401-0.416-3.401-3.629V36.073c0-3.147,0.303-3.5,3.292-3.598v-0.918h-8.225l0.017,11.684h-10.723
					l0.012-11.684h-8.181v0.918c2.954,0.096,3.259,0.449,3.259,3.598v17.105c0,3.215-0.306,3.531-3.408,3.629v0.914h8.33
					l-0.012-13.328h10.723l-0.017,13.328h8.334V56.809L120.033,56.809z"/>
			</g>
			
				<path fill="#FAC109" stroke="#FFFFFF" stroke-width="4" stroke-linecap="round" stroke-linejoin="round" stroke-miterlimit="10" d="
				M89.448,39.465l-5.614,13.084l-5.531-13.084h-6.756v0.797c1.774,0.145,2.115,0.527,3.399,3.328l6.621,14.621
				c0,0-0.702,1.635-1.104,2.404c-0.77,1.477-1.185,1.582-1.185,1.582c-1.239-3.078-5.083-2.225-5.31,0.322
				c-0.142,1.609,0.944,2.998,2.76,2.998c2.343,0,3.704-1.293,5.255-4.896l6.427-15.107c1.707-3.955,2.648-4.965,4.764-5.252v-0.797
				H89.448L89.448,39.465L89.448,39.465z"/>
			<g>
				
					<path fill="#FAC109" stroke="#FFFFFF" stroke-width="4" stroke-linecap="round" stroke-linejoin="round" stroke-miterlimit="10" d="
					M145.531,26.023c0.715-0.682,1.854-1.071,3.127-1.071c2.623,0,4.326,1.63,4.326,4.135c0,1.175-0.418,2.292-1.104,2.981
					c-0.769,0.774-1.985,1.229-3.31,1.229c-1.254,0-2.439-0.437-3.141-1.146c-0.74-0.741-1.158-1.814-1.158-2.977
					C144.271,27.937,144.743,26.778,145.531,26.023z M148.637,32.949c1.453,0,2.11-1.174,2.11-3.803
					c0-2.637-0.672-3.846-2.125-3.846c-0.69,0-1.276,0.316-1.56,0.872c-0.367,0.651-0.535,1.614-0.535,2.93
					C146.527,31.717,147.2,32.949,148.637,32.949z"/>
				
					<path fill="#FAC109" stroke="#FFFFFF" stroke-width="4" stroke-linecap="round" stroke-linejoin="round" stroke-miterlimit="10" d="
					M178.002,30.702c0,0.661,0.051,1.055,0.165,1.356c0.138,0.333,0.472,0.561,0.823,0.561c0.345,0,0.751-0.166,1.169-0.466
					l0.235,0.375c-0.688,0.516-1.428,0.756-2.289,0.756c-0.906,0-1.574-0.304-1.894-0.831c-0.198-0.384-0.252-0.736-0.252-2.084
					v-4.711h-0.954V25.21c0.738-0.031,1.206-0.258,1.592-0.806c0.301-0.423,0.469-0.86,0.616-1.611l0.839-0.077
					C178.02,23.339,178,23.803,178,25.18h2.023v0.479H178L178.002,30.702L178.002,30.702z"/>
				
					<path fill="#FAC109" stroke="#FFFFFF" stroke-width="4" stroke-linecap="round" stroke-linejoin="round" stroke-miterlimit="10" d="
					M185.29,33.161h-1.24l-2.089-6.325c-0.316-0.978-0.602-1.265-1.318-1.311V25.18h2.836l1.942,6.079l2.142-5.885h0.978
					l2.036,5.885l1.919-6.079h1.813v0.345c-0.957,0.061-1.373,0.484-1.826,1.827l-1.957,5.809h-1.203l-2.021-5.521L185.29,33.161z"
					/>
				<g>
					
						<path fill="#FAC109" stroke="#FFFFFF" stroke-width="4" stroke-linecap="round" stroke-linejoin="round" stroke-miterlimit="10" d="
						M167.2,31.182v-3.327c0-1.026-0.13-1.587-0.49-2.04c-0.442-0.577-1.176-0.877-2.125-0.877c-1.226,0-2.091,0.482-2.81,1.586
						c-0.295-1.071-1.063-1.586-2.323-1.586c-1.224,0-2.188,0.53-2.843,1.524l-0.012-1.494l-3.189,0.016v0.362
						c1.076,0.012,1.209,0.363,1.209,1.632v3.15h0.007v2.927h1.979v-2.927h0.006v-2.015c0-1.363,0.897-2.479,1.979-2.479
						c0.896,0,1.324,0.709,1.324,2.221v3.327c0,0.145-0.001,0.274-0.005,0.392v1.48h1.979v-1.802c0-0.024,0-0.046,0-0.072v-3.193
						c0-0.559,0.162-1.042,0.506-1.528c0.408-0.572,0.867-0.828,1.453-0.828c0.967,0,1.357,0.634,1.357,2.235v3.313
						c0,0.213-0.002,0.396-0.014,0.555v1.318h2.017v-1.397C167.203,31.517,167.2,31.359,167.2,31.182z"/>
				</g>
				
					<path fill="#FAC109" stroke="#FFFFFF" stroke-width="4" stroke-linecap="round" stroke-linejoin="round" stroke-miterlimit="10" d="
					M132.924,31.873c0,0.66-0.532,1.193-1.192,1.193c-0.658,0-1.195-0.533-1.195-1.193c0-0.661,0.537-1.193,1.195-1.193
					C132.392,30.68,132.924,31.213,132.924,31.873z"/>
				
					<circle fill="#FAC109" stroke="#FFFFFF" stroke-width="4" stroke-linecap="round" stroke-linejoin="round" stroke-miterlimit="10" cx="171.83" cy="31.872" r="1.194"/>
				
					<path fill="#FAC109" stroke="#FFFFFF" stroke-width="4" stroke-linecap="round" stroke-linejoin="round" stroke-miterlimit="10" d="
					M143.154,31.182c-0.754,1.406-1.991,2.115-3.663,2.115c-2.576,0-4.294-1.645-4.294-4.072c0-1.297,0.482-2.48,1.318-3.264
					c0.732-0.651,1.772-1.009,2.976-1.009c1.856,0,3.386,0.908,3.444,1.978c0.037,0.613-0.463,1.156-1.094,1.052
					c-0.381-0.062-0.923-0.293-1.025-1.248c-0.103-0.906-0.553-1.424-1.373-1.424c-0.688,0-1.271,0.377-1.537,0.964
					c-0.287,0.667-0.469,1.736-0.469,2.675c0,0.986,0.203,1.874,0.586,2.567c0.432,0.773,1.134,1.19,1.988,1.19
					c1.149,0,2.139-0.667,2.706-1.78L143.154,31.182z"/>
			</g>
		</g>
		<g>
			
				<path fill="#FAC109" stroke="#FFFFFF" stroke-width="4" stroke-linecap="round" stroke-linejoin="round" stroke-miterlimit="10" d="
				M260.514,39.956c-3.211-2.85-8.236-3.328-11.908-2.27c-0.875,0.221-0.435-0.391-0.299-0.566
				c5.777-7.837,8.195-19.573-1.306-25.718c-11.754-7.612-26.974,3.868-22.302,21.268c0.261,0.971,0.574,1.933,0.935,2.876
				c-0.03-0.146-0.062-0.287-0.09-0.434c-2.474-12.946,5.956-26.197,17.998-20.689c11.047,5.05,4.301,21.798,0.774,25.527
				c-0.09,0.098-0.129,0.391,0.147,0.334c3.812-1.432,12.347-2.439,14.091,3.301c1.512,4.971-3.828,8.002-9.334,8.348
				c-3.889,0.24-10.723-1.023-16.117-4.992c5.858,5.719,13.801,8.811,21.795,6.367C263.236,50.758,264.844,43.805,260.514,39.956z"
				/>
			
				<path fill="#FAC109" stroke="#FFFFFF" stroke-width="4" stroke-linecap="round" stroke-linejoin="round" stroke-miterlimit="10" d="
				M232.792,46.836c1.528,2.916,2.181,6.215,2.021,9.986c-0.24,5.684-4.903,6.492-7.436,3.5c-2.609-3.084-3.506-7.676-3.645-10.357
				c-0.041-0.438-0.002-0.598-0.924-0.492c-2.347,0.271-11.98-0.992-16.539-6.867c-5.902-7.613,1.276-11.229,10.021-7.949
				c2.665,0.996,5.017,2.07,7.078,3.229c-2.905-1.963-6.075-3.664-9.267-5.124c-11.758-5.368-19.726,5.657-8.604,14.146
				c5.541,4.229,12.646,4.486,16.473,3.695c0.939-0.189,0.897-0.105,1.004,0.842c0.024,4.65,1.561,9.68,3.813,11.939
				c3.354,3.355,9.216,1.701,9.625-3.498C236.805,54.938,235.369,50.604,232.792,46.836z"/>
			
				<path fill="#EB83B2" stroke="#FFFFFF" stroke-width="4" stroke-linecap="round" stroke-linejoin="round" stroke-miterlimit="10" d="
				M220.188,34.786c0,0-5.334-7.929-11.928-10.79c-3.744-1.625-5.275-1.051-5.699-0.144c-0.668,1.431,2.104,2.563,4.565,3.406
				C211.665,28.825,217.486,31.521,220.188,34.786z"/>
			
				<path fill="#EA82B1" stroke="#FFFFFF" stroke-width="4" stroke-linecap="round" stroke-linejoin="round" stroke-miterlimit="10" d="
				M231.896,45.741c0,0-12.035-7.5-12.646-30.73c-0.229-8.478-0.036-13.616-1.846-12.285c-0.94,0.694-3.014,5.508-1.492,15.695
				C218.568,36.249,230.621,45.112,231.896,45.741z"/>
		</g>
	</g>
</g>
<g>
	<g>
		<g>
			<path fill="#231815" d="M52.722,57.792h-1.22c0,0,0.007-2.207,0.007-5.451V35.758c0-3.081-0.264-3.396-2.911-3.396v-0.807
				l7.524,0.011l-0.003,10.479c1.517-2.16,3.256-3.109,5.865-3.109c5.18,0,8.205,3.393,8.205,9.203c0,6.332-3.365,10.105-9,10.105
				c-2.139,0-3.884-0.506-5.63-1.688C55.559,56.559,54.875,57.792,52.722,57.792z M57.029,55.028
				c0.719,1.396,2.271,2.379,3.857,2.379c2.8,0,4.272-2.971,4.272-8.672c0-5.705-1.402-8.717-4.081-8.717
				c-1.587,0-3.068,1.053-3.896,2.732c-0.793,1.678-1.172,3.67-1.172,6.332C56.01,51.743,56.35,53.629,57.029,55.028z"/>
			<path fill="#231815" d="M123.594,41.422c1.623-1.578,4.197-2.486,7.07-2.486c5.938,0,9.793,3.779,9.793,9.586
				c0,2.732-0.943,5.314-2.496,6.918c-1.738,1.793-4.5,2.84-7.489,2.84c-2.832,0-5.524-1.016-7.106-2.66
				c-1.669-1.711-2.609-4.195-2.609-6.887C120.757,45.864,121.816,43.17,123.594,41.422z M130.627,57.473
				c3.288,0,4.764-2.725,4.764-8.813c0-6.121-1.514-8.916-4.805-8.916c-1.551,0-2.874,0.729-3.512,2.023
				c-0.833,1.51-1.214,3.746-1.214,6.791C125.859,54.608,127.373,57.473,130.627,57.473z"/>
			<path fill="#231815" d="M180.93,47.864c0.039,2.586,0.299,4.088,0.984,5.557c1.096,2.311,2.834,3.467,5.143,3.467
				c2.607,0,4.836-1.443,6.234-3.992l0.951,0.564c-1.893,3.32-4.426,4.791-8.32,4.791c-6.013,0-9.871-3.74-9.871-9.584
				c0-5.875,3.746-9.727,9.493-9.727c3.856,0,6.58,1.611,7.826,4.619c0.417,1.049,0.606,2.102,0.683,4.309H180.93V47.864z
				 M189.326,46.842c-0.079-2.203-0.229-3.287-0.646-4.375c-0.717-1.852-1.771-2.723-3.25-2.723c-1.627,0-2.875,1.045-3.666,3.076
				c-0.418,1.084-0.646,2.197-0.795,4.02L189.326,46.842L189.326,46.842z"/>
			<path fill="#231815" d="M2.155,57.329c3.061-0.068,3.404-0.424,3.404-3.705V36.2c0-3.285-0.38-3.677-3.404-3.708v-0.934h11.834
				c7.487,0,10.854,1.896,10.854,6.072c0,3.785-2.343,5.602-8.131,6.209v0.25c6.05,0.285,9.114,2.609,9.114,6.93
				c0,5.137-3.592,7.242-12.476,7.242H2.155V57.329z M13.611,43.444c3.933,0,6.014-1.93,6.014-5.604
				c0-3.494-2.119-5.248-6.275-5.248h-2.914v10.851H13.611z M13.311,57.225c4.724,0,7.107-2.145,7.107-6.385
				c0-2.396-0.872-4.287-2.459-5.291c-0.984-0.605-2.609-0.961-4.461-0.961h-3.062v12.637H13.311L13.311,57.225z"/>
			<g>
				<path fill="#231815" d="M45.957,43.362c-0.162-1.377-0.614-2.289-1.399-2.99c-1.135-0.979-2.991-1.436-5.598-1.436
					c-2.573,0-4.613,0.422-6.198,1.326c-1.481,0.842-2.231,2.471-2.35,3.258c-0.201,1.275,0.434,2.938,2.614,2.771
					c1.492-0.117,2.269-1.617,2.341-2.877c0.115-1.328,0.229-1.887,0.605-2.48c0.532-0.84,1.323-1.189,2.53-1.189
					c2.273,0,2.954,1.082,2.954,4.793v2.271c-2.342,0.105-4.348,0.35-6.201,0.666c-4.045,0.734-6.05,2.588-6.05,5.596
					c0,3.143,2.231,5.143,5.826,5.143c2.455,0,4.497-0.877,6.465-2.838c0.19,2.139,1.695,2.66,2.905,2.66
					c0.339,0,0.908,0.006,1.537,0.014L45.957,43.362z M41.455,50.307c0,1.996-0.189,3.146-0.68,4.057
					c-0.718,1.434-2.156,2.313-3.667,2.313c-1.853,0-3.061-1.646-3.061-4.125c0-3.26,1.925-4.543,7.409-4.938L41.455,50.307
					L41.455,50.307z"/>
			</g>
			<g>
				<path fill="#231815" d="M172.913,45.69c0-2.377-0.304-3.672-1.136-4.723c-1.022-1.334-2.723-2.031-4.914-2.031
					c-2.842,0-4.84,1.117-6.508,3.676c-0.678-2.479-2.453-3.676-5.369-3.676c-2.832,0-5.065,1.229-6.576,3.533l-0.04-3.463
					l-7.372,0.039v0.84c2.492,0.031,2.796,0.842,2.796,3.775l0.019,14.063h4.6V46.284c0-3.146,2.076-5.732,4.572-5.732
					c2.078,0,3.063,1.639,3.063,5.143l-0.013,12.031h4.592V46.004c0-1.295,0.374-2.412,1.17-3.535
					c0.945-1.326,2.006-1.918,3.365-1.918c2.232,0,3.139,1.469,3.139,5.174l-0.008,11.998h4.643L172.913,45.69z"/>
			</g>
			<g>
				<path fill="#231815" d="M120.033,56.809c-3.097-0.1-3.401-0.416-3.401-3.629V36.073c0-3.147,0.303-3.5,3.292-3.598v-0.918
					h-8.225l0.017,11.684h-10.723l0.012-11.684h-8.181v0.918c2.954,0.096,3.259,0.449,3.259,3.598v17.105
					c0,3.215-0.306,3.531-3.408,3.629v0.914h8.33l-0.012-13.328h10.723l-0.017,13.328h8.334V56.809L120.033,56.809z"/>
			</g>
			<path fill="#231815" d="M89.448,39.465l-5.614,13.084l-5.531-13.084h-6.756v0.797c1.774,0.145,2.115,0.527,3.399,3.328
				l6.621,14.621c0,0-0.702,1.635-1.104,2.404c-0.77,1.477-1.185,1.582-1.185,1.582c-1.239-3.078-5.083-2.225-5.31,0.322
				c-0.142,1.609,0.944,2.998,2.76,2.998c2.343,0,3.704-1.293,5.255-4.896l6.427-15.107c1.707-3.955,2.648-4.965,4.764-5.252v-0.797
				H89.448L89.448,39.465L89.448,39.465z"/>
			<g>
				<path fill="#231815" d="M145.531,26.023c0.715-0.682,1.854-1.071,3.127-1.071c2.623,0,4.326,1.63,4.326,4.135
					c0,1.175-0.418,2.292-1.104,2.981c-0.769,0.774-1.985,1.229-3.31,1.229c-1.254,0-2.439-0.437-3.141-1.146
					c-0.74-0.741-1.158-1.814-1.158-2.977C144.271,27.937,144.743,26.778,145.531,26.023z M148.637,32.949
					c1.453,0,2.11-1.174,2.11-3.803c0-2.637-0.672-3.846-2.125-3.846c-0.69,0-1.276,0.316-1.56,0.872
					c-0.367,0.651-0.535,1.614-0.535,2.93C146.527,31.717,147.2,32.949,148.637,32.949z"/>
				<path fill="#231815" d="M178.002,30.702c0,0.661,0.051,1.055,0.165,1.356c0.138,0.333,0.472,0.561,0.823,0.561
					c0.345,0,0.751-0.166,1.169-0.466l0.235,0.375c-0.688,0.516-1.428,0.756-2.289,0.756c-0.906,0-1.574-0.304-1.894-0.831
					c-0.198-0.384-0.252-0.736-0.252-2.084v-4.711h-0.954V25.21c0.738-0.031,1.206-0.258,1.592-0.806
					c0.301-0.423,0.469-0.86,0.616-1.611l0.839-0.077C178.02,23.339,178,23.803,178,25.18h2.023v0.479H178L178.002,30.702
					L178.002,30.702z"/>
				<path fill="#231815" d="M185.29,33.161h-1.24l-2.089-6.325c-0.316-0.978-0.602-1.265-1.318-1.311V25.18h2.836l1.942,6.079
					l2.142-5.885h0.978l2.036,5.885l1.919-6.079h1.813v0.345c-0.957,0.061-1.373,0.484-1.826,1.827l-1.957,5.809h-1.203
					l-2.021-5.521L185.29,33.161z"/>
				<g>
					<path fill="#231815" d="M167.2,31.182v-3.327c0-1.026-0.13-1.587-0.49-2.04c-0.442-0.577-1.176-0.877-2.125-0.877
						c-1.226,0-2.091,0.482-2.81,1.586c-0.295-1.071-1.063-1.586-2.323-1.586c-1.224,0-2.188,0.53-2.843,1.524l-0.012-1.494
						l-3.189,0.016v0.362c1.076,0.012,1.209,0.363,1.209,1.632v3.15h0.007v2.927h1.979v-2.927h0.006v-2.015
						c0-1.363,0.897-2.479,1.979-2.479c0.896,0,1.324,0.709,1.324,2.221v3.327c0,0.145-0.001,0.274-0.005,0.392v1.48h1.979v-1.802
						c0-0.024,0-0.046,0-0.072v-3.193c0-0.559,0.162-1.042,0.506-1.528c0.408-0.572,0.867-0.828,1.453-0.828
						c0.967,0,1.357,0.634,1.357,2.235v3.313c0,0.213-0.002,0.396-0.014,0.555v1.318h2.017v-1.397
						C167.203,31.517,167.2,31.359,167.2,31.182z"/>
				</g>
				<path fill="#231815" d="M132.924,31.873c0,0.66-0.532,1.193-1.192,1.193c-0.658,0-1.195-0.533-1.195-1.193
					c0-0.661,0.537-1.193,1.195-1.193C132.392,30.68,132.924,31.213,132.924,31.873z"/>
				<circle fill="#231815" cx="171.83" cy="31.872" r="1.194"/>
				<path fill="#231815" d="M143.154,31.182c-0.754,1.406-1.991,2.115-3.663,2.115c-2.576,0-4.294-1.645-4.294-4.072
					c0-1.297,0.482-2.48,1.318-3.264c0.732-0.651,1.772-1.009,2.976-1.009c1.856,0,3.386,0.908,3.444,1.978
					c0.037,0.613-0.463,1.156-1.094,1.052c-0.381-0.062-0.923-0.293-1.025-1.248c-0.103-0.906-0.553-1.424-1.373-1.424
					c-0.688,0-1.271,0.377-1.537,0.964c-0.287,0.667-0.469,1.736-0.469,2.675c0,0.986,0.203,1.874,0.586,2.567
					c0.432,0.773,1.134,1.19,1.988,1.19c1.149,0,2.139-0.667,2.706-1.78L143.154,31.182z"/>
			</g>
		</g>
		<g>
			<path fill="#FAC109" d="M260.514,39.956c-3.211-2.85-8.236-3.328-11.908-2.27c-0.875,0.221-0.435-0.391-0.299-0.566
				c5.777-7.837,8.195-19.573-1.306-25.718c-11.754-7.612-26.974,3.868-22.302,21.268c0.261,0.971,0.574,1.933,0.935,2.876
				c-0.03-0.146-0.062-0.287-0.09-0.434c-2.474-12.946,5.956-26.197,17.998-20.689c11.047,5.05,4.301,21.798,0.774,25.527
				c-0.09,0.098-0.129,0.391,0.147,0.334c3.812-1.432,12.347-2.439,14.091,3.301c1.512,4.971-3.828,8.002-9.334,8.348
				c-3.889,0.24-10.723-1.023-16.117-4.992c5.858,5.719,13.801,8.811,21.795,6.367C263.236,50.758,264.844,43.805,260.514,39.956z"
				/>
			<path fill="#FAC109" d="M232.792,46.836c1.528,2.916,2.181,6.215,2.021,9.986c-0.24,5.684-4.903,6.492-7.436,3.5
				c-2.609-3.084-3.506-7.676-3.645-10.357c-0.041-0.438-0.002-0.598-0.924-0.492c-2.347,0.271-11.98-0.992-16.539-6.867
				c-5.902-7.613,1.276-11.229,10.021-7.949c2.665,0.996,5.017,2.07,7.078,3.229c-2.905-1.963-6.075-3.664-9.267-5.124
				c-11.758-5.368-19.726,5.657-8.604,14.146c5.541,4.229,12.646,4.486,16.473,3.695c0.939-0.189,0.897-0.105,1.004,0.842
				c0.024,4.65,1.561,9.68,3.813,11.939c3.354,3.355,9.216,1.701,9.625-3.498C236.805,54.938,235.369,50.604,232.792,46.836z"/>
			<path fill="#EB83B2" d="M220.188,34.786c0,0-5.334-7.929-11.928-10.79c-3.744-1.625-5.275-1.051-5.699-0.144
				c-0.668,1.431,2.104,2.563,4.565,3.406C211.665,28.825,217.486,31.521,220.188,34.786z"/>
			<path fill="#EA82B1" d="M231.896,45.741c0,0-12.035-7.5-12.646-30.73c-0.229-8.478-0.036-13.616-1.846-12.285
				c-0.94,0.694-3.014,5.508-1.492,15.695C218.568,36.249,230.621,45.112,231.896,45.741z"/>
		</g>
	</g>
</g>
</svg>
