<svg id="圖層_1" data-name="圖層 1" xmlns="http://www.w3.org/2000/svg" xmlns:xlink="http://www.w3.org/1999/xlink" viewBox="0 0 169.7 37.98"><defs><style>.cls-1{fill:#231815;}.cls-2{fill:#1eaa39;}.cls-3{fill:url(#linear-gradient);}.cls-4{fill:url(#linear-gradient-2);}.cls-5{fill:url(#linear-gradient-3);}.cls-6{fill:url(#linear-gradient-4);}.cls-7{fill:url(#linear-gradient-5);}.cls-8{fill:#8c037f;}.cls-9{fill:#57004d;}.cls-10{fill:#67005c;}.cls-11{fill:#fff000;}</style><linearGradient id="linear-gradient" x1="113.27" y1="40.74" x2="113.27" y2="53.87" gradientUnits="userSpaceOnUse"><stop offset="0.01" stop-color="#f39b00"/><stop offset="1" stop-color="#e95208"/></linearGradient><linearGradient id="linear-gradient-2" x1="109.69" y1="40.74" x2="109.69" y2="53.87" xlink:href="#linear-gradient"/><linearGradient id="linear-gradient-3" x1="106.71" y1="40.74" x2="106.71" y2="53.87" xlink:href="#linear-gradient"/><linearGradient id="linear-gradient-4" x1="116.56" y1="40.74" x2="116.56" y2="53.87" xlink:href="#linear-gradient"/><linearGradient id="linear-gradient-5" x1="119.5" y1="40.74" x2="119.5" y2="53.87" xlink:href="#linear-gradient"/></defs><title>1025_logo_mobile</title><path class="cls-1" d="M44.62,53.18H43.55s0-2,0-4.82V33.72c0-2.72-.24-3-2.57-3V30h6.64v9.26a5.75,5.75,0,0,1,5.18-2.75c4.57,0,7.24,3,7.24,8.13,0,5.59-3,8.93-7.95,8.93a8.43,8.43,0,0,1-5-1.49A2.75,2.75,0,0,1,44.62,53.18Zm3.81-2.45a4,4,0,0,0,3.41,2.1c2.47,0,3.77-2.62,3.77-7.65s-1.24-7.7-3.6-7.7a4,4,0,0,0-3.44,2.41,12.62,12.62,0,0,0-1,5.59A12,12,0,0,0,48.43,50.73Z" transform="translate(0.03 -22.02)"/><path class="cls-1" d="M157.85,44.41a11.34,11.34,0,0,0,.87,4.9,4.8,4.8,0,0,0,4.55,3.06,6.21,6.21,0,0,0,5.5-3.52l.84.5a7.63,7.63,0,0,1-7.34,4.23c-5.31,0-8.72-3.31-8.72-8.47s3.3-8.59,8.38-8.59c3.41,0,5.81,1.43,6.91,4.08a10.61,10.61,0,0,1,.6,3.81Zm7.42-.9a11.28,11.28,0,0,0-.57-3.87c-.63-1.63-1.57-2.41-2.87-2.41s-2.54.93-3.24,2.72a12,12,0,0,0-.7,3.56Z" transform="translate(0.03 -22.02)"/><path class="cls-1" d="M0,52.76c2.7,0,3-.37,3-3.27V34.11c0-2.91-.34-3.25-3-3.28V30H10.42C17,30,20,31.68,20,35.37c0,3.34-2.07,5-7.18,5.48v.22c5.34.26,8,2.31,8,6.12,0,4.54-3.18,6.4-11,6.4H0ZM10.09,40.51c3.47,0,5.31-1.71,5.31-5,0-3.08-1.87-4.63-5.54-4.63H7.28v9.59ZM9.82,52.68c4.17,0,6.28-1.9,6.28-5.65a5.24,5.24,0,0,0-2.17-4.66A7.89,7.89,0,0,0,10,41.51H7.28V52.68Z" transform="translate(0.03 -22.02)"/><path class="cls-1" d="M38.65,40.43a3.9,3.9,0,0,0-1.23-2.64c-1-.86-2.64-1.27-5-1.27A10.9,10.9,0,0,0,27,37.7a4.52,4.52,0,0,0-2.08,2.87A2,2,0,0,0,27.23,43a2.52,2.52,0,0,0,2.07-2.54,4.28,4.28,0,0,1,.54-2.19,2.35,2.35,0,0,1,2.23-1.06c2,0,2.61,1,2.61,4.24v2a45,45,0,0,0-5.48.58c-3.57.65-5.34,2.29-5.34,4.95s2,4.54,5.15,4.54A7.7,7.7,0,0,0,34.71,51a2.37,2.37,0,0,0,2.57,2.35h1.35Zm-4,6.14a7.41,7.41,0,0,1-.6,3.58,3.68,3.68,0,0,1-3.24,2c-1.64,0-2.71-1.46-2.71-3.65,0-2.87,1.71-4,6.55-4.35Z" transform="translate(0.03 -22.02)"/><path class="cls-1" d="M150.78,42.49c0-2.1-.27-3.25-1-4.17a5.19,5.19,0,0,0-4.34-1.8,6.32,6.32,0,0,0-5.74,3.25c-.6-2.19-2.17-3.25-4.75-3.25a6.64,6.64,0,0,0-5.81,3.12l0-3.06-6.51,0v.74c2.2,0,2.47.74,2.47,3.34l0,12.41h4V43c0-2.78,1.84-5.06,4.05-5.06,1.83,0,2.7,1.45,2.7,4.54V53.11h4V42.76a5.19,5.19,0,0,1,1-3.12,3.49,3.49,0,0,1,3-1.69c2,0,2.77,1.29,2.77,4.57V53.11h4.1Z" transform="translate(0.03 -22.02)"/><path class="cls-1" d="M104.08,52.31c-2.74-.09-3-.37-3-3.21V34c0-2.78.27-3.09,2.91-3.18V30H96.71l0,10.32H87.26V30H80v.81c2.61.09,2.88.4,2.88,3.18V49.1c0,2.84-.27,3.12-3,3.21v.8h7.36V41.34h9.47l0,11.77h7.37Z" transform="translate(0.03 -22.02)"/><path class="cls-1" d="M77.06,37l-5,11.56L67.22,37h-6v.71c1.57.12,1.87.46,3,2.93L70.1,53.55s-.62,1.44-1,2.12c-.68,1.3-1,1.4-1,1.4a2.4,2.4,0,0,0-4.69.29A2.36,2.36,0,0,0,65.83,60c2.07,0,3.27-1.14,4.64-4.33l5.67-13.34c1.51-3.49,2.34-4.38,4.21-4.63V37Z" transform="translate(0.03 -22.02)"/><path class="cls-1" d="M126.59,25.12a4,4,0,0,1,2.76-.95,3.52,3.52,0,0,1,3.83,3.66,3.78,3.78,0,0,1-1,2.63,4.14,4.14,0,0,1-2.92,1.08,4,4,0,0,1-2.78-1,3.7,3.7,0,0,1-1-2.63A3.88,3.88,0,0,1,126.59,25.12Zm2.75,6.11c1.28,0,1.86-1,1.86-3.35s-.59-3.4-1.88-3.4a1.48,1.48,0,0,0-1.37.77,5.31,5.31,0,0,0-.47,2.59C127.48,30.15,128.07,31.23,129.34,31.23Z" transform="translate(0.03 -22.02)"/><path class="cls-1" d="M155.27,29.25a3.19,3.19,0,0,0,.15,1.2.79.79,0,0,0,.72.49,1.86,1.86,0,0,0,1-.41l.21.33a3.19,3.19,0,0,1-2,.67,1.84,1.84,0,0,1-1.67-.74c-.18-.33-.22-.64-.22-1.83V24.8h-.84v-.4a1.63,1.63,0,0,0,1.4-.71,3.35,3.35,0,0,0,.54-1.42l.74-.07c0,.55,0,1,0,2.17h1.79v.43h-1.79Z" transform="translate(0.03 -22.02)"/><path class="cls-1" d="M161.71,31.42h-1.1l-1.84-5.58c-.29-.87-.53-1.12-1.17-1.16v-.31h2.5l1.72,5.37,1.89-5.19h.86l1.8,5.19,1.7-5.37h1.6v.31c-.85.05-1.21.43-1.61,1.61l-1.74,5.13h-1l-1.79-4.87Z" transform="translate(0.03 -22.02)"/><path class="cls-1" d="M145.73,29.67V26.74a2.7,2.7,0,0,0-.43-1.81,2.25,2.25,0,0,0-1.88-.77,2.72,2.72,0,0,0-2.48,1.4,1.86,1.86,0,0,0-2.05-1.4,2.85,2.85,0,0,0-2.51,1.35l0-1.33-2.81,0v.32c.95,0,1.07.32,1.07,1.44v2.78h0v2.59h1.75V28.74h0V27a2,2,0,0,1,1.74-2.19c.8,0,1.17.63,1.17,2v4.59H141V26.85a2.19,2.19,0,0,1,.45-1.34,1.49,1.49,0,0,1,1.28-.74c.86,0,1.2.56,1.2,2v2.92c0,.19,0,.35,0,.49v1.17h1.78V30.09C145.73,30,145.73,29.83,145.73,29.67Z" transform="translate(0.03 -22.02)"/><path class="cls-1" d="M115.46,30.29a1.06,1.06,0,1,1-1-1.06A1,1,0,0,1,115.46,30.29Z" transform="translate(0.03 -22.02)"/><path class="cls-1" d="M150.87,30.29a1.06,1.06,0,0,1-2.11,0,1.06,1.06,0,1,1,2.11,0Z" transform="translate(0.03 -22.02)"/><path class="cls-1" d="M124.49,29.68a3.4,3.4,0,0,1-3.23,1.86A3.49,3.49,0,0,1,117.47,28a3.52,3.52,0,0,1,3.79-3.78c1.64,0,3,.8,3,1.75a.86.86,0,0,1-1,.93,1.07,1.07,0,0,1-.91-1.1c-.09-.8-.49-1.26-1.21-1.26a1.45,1.45,0,0,0-1.36.85,6.46,6.46,0,0,0-.42,2.36A4.7,4.7,0,0,0,120,30,2,2,0,0,0,121.72,31a2.67,2.67,0,0,0,2.39-1.57Z" transform="translate(0.03 -22.02)"/><path class="cls-2" d="M113,39.3s-.38-2.27.7-3c.46-.31,1.62-.06,1.29.44a6.41,6.41,0,0,0-1.35,2.51C113.5,39.8,113.11,39.73,113,39.3Z" transform="translate(0.03 -22.02)"/><path class="cls-3" d="M116.21,44.38c0,4.48-.19,8.86-2.83,8.86-3,0-2.35-4.42-2.91-8.86-.58-4.64.63-5.81,2.91-5.81S116.21,39.9,116.21,44.38Z" transform="translate(0.03 -22.02)"/><path class="cls-4" d="M106.68,44.69c.26,4.26,2,8.56,4.57,8.55,2.75,0,.94-4.27.67-8.57s-1.19-5.83-3-5.53C107.28,39.4,106.42,40.41,106.68,44.69Z" transform="translate(0.03 -22.02)"/><path class="cls-5" d="M103.45,45.81c.24,4,3.42,7.43,5.35,7.43,2.79,0-.08-4.13-.34-8.17s-1.14-5.63-2.95-5.2C103.94,40.24,103.24,42.33,103.45,45.81Z" transform="translate(0.03 -22.02)"/><path class="cls-6" d="M119.57,44.69c-.26,4.26-2,8.56-4.57,8.55-2.75,0-.94-4.27-.68-8.57s1.2-5.83,3-5.53C119,39.4,119.83,40.41,119.57,44.69Z" transform="translate(0.03 -22.02)"/><path class="cls-7" d="M122.71,45.81c-.24,4-3.41,7.43-5.34,7.43-2.57,0,.08-4.13.34-8.17s1.14-5.63,3-5.2C122.23,40.24,122.92,42.33,122.71,45.81Z" transform="translate(0.03 -22.02)"/><path class="cls-1" d="M107.06,46c-.71-1.39-.18-3.48,1.67-3.71a2.42,2.42,0,0,1,2.45,3.27,2.69,2.69,0,0,0-2.19-.7A2.77,2.77,0,0,0,107.06,46Z" transform="translate(0.03 -22.02)"/><path class="cls-1" d="M118.78,46c.71-1.39.18-3.48-1.67-3.71a2.42,2.42,0,0,0-2.45,3.27,2.69,2.69,0,0,1,2.19-.7A2.77,2.77,0,0,1,118.78,46Z" transform="translate(0.03 -22.02)"/><path class="cls-1" d="M106.29,46.89l2.83.38.06,1,2.52.25-.07-1.07h2.64v.88l2.32.06.07-1,3.15-.25s-.58,3.26-3.41,3.7V49.66l-2.32.06L114,51l-2.12-.13-.2-1.13-2.45-.31.07,1.19A3.69,3.69,0,0,1,106.29,46.89Z" transform="translate(0.03 -22.02)"/><path class="cls-8" d="M6.36,26.8c.3-.67,3.77.71,3.77.71S16,22.2,17.34,22,23,26.22,22.72,27s-3.22-.46-3.22-.46L18.66,31s2.95,1.9,3.08,2.81-4.37,1.18-9-.42S6,27.73,6.36,26.8Z" transform="translate(0.03 -22.02)"/><path class="cls-9" d="M21.92,26.15c-.29.75-3.22-.45-3.22-.45l-.84,4.52s.37.23.84.58l.8-4.3s2.93,1.2,3.22.46c.15-.38-.89-1.68-2.13-2.86C21.44,25,22,25.86,21.92,26.15Z" transform="translate(0.03 -22.02)"/><path class="cls-10" d="M21.74,33.83a3.05,3.05,0,0,0-1.06-1.32,1.26,1.26,0,0,1,.26.52c.13.91-4.37,1.18-9-.43A11.65,11.65,0,0,1,8,30.25a11.66,11.66,0,0,0,4.74,3.16C17.37,35,21.87,34.75,21.74,33.83Z" transform="translate(0.03 -22.02)"/><path class="cls-1" d="M13.82,30.51a7.79,7.79,0,0,0,4.84.51L19,29.16a11.27,11.27,0,0,1-4.88-.58,5.1,5.1,0,0,1-2.6-2.3c-.83.71-1.4,1.23-1.4,1.23S10.69,29.3,13.82,30.51Z" transform="translate(0.03 -22.02)"/><path class="cls-11" d="M15.33,29.31S16,28,16.3,28s.67,1.3.67,1.3,1.22-.07,1.32.16-.82,1.19-.82,1.19.52.94.27,1.21-1.46-.42-1.46-.42-1.15.67-1.43.53.12-1.35.12-1.35-1-.64-.9-1S15.33,29.31,15.33,29.31Z" transform="translate(0.03 -22.02)"/></svg>